M48
; DRILL file {KiCad (5.1.4)-1} date 19-6-2020 15:29:59
; FORMAT={-:-/ absolute / inch / decimal}
; #@! TF.CreationDate,2020-06-19T15:29:59+02:00
; #@! TF.GenerationSoftware,Kicad,Pcbnew,(5.1.4)-1
; #@! TF.FileFunction,Plated,1,2,PTH
FMAT,2
INCH
T1C0.0157
T2C0.0394
T3C0.0394
T4C0.0909
T5C0.1260
%
G90
G05
T1
X6.1313Y-3.704
X6.1377Y-3.925
X6.1939Y-4.1924
X6.4142Y-3.9968
X6.5084Y-4.0951
X6.5523Y-4.2118
X6.5882Y-3.6292
X6.5907Y-3.9232
X6.6124Y-3.5402
X6.6358Y-4.3931
X6.6776Y-3.9977
X6.793Y-4.2291
X6.9413Y-3.5901
T2
X5.5564Y-3.6825
X5.5564Y-3.7809
X5.8241Y-3.6825
X5.8241Y-3.7809
T3
X5.765Y-3.975
X5.76Y-4.17
X5.76Y-4.39
T4
X5.4245Y-3.5644
X5.6903Y-3.5329
X5.956Y-3.5644
T5
X5.47Y-4.035
X6.9665Y-4.035
T0
M30
