G04 #@! TF.GenerationSoftware,KiCad,Pcbnew,(5.1.4)-1*
G04 #@! TF.CreationDate,2020-06-19T15:30:03+02:00*
G04 #@! TF.ProjectId,S-VHS ZX Spectrum Rev. C,532d5648-5320-45a5-9820-537065637472,rev?*
G04 #@! TF.SameCoordinates,Original*
G04 #@! TF.FileFunction,Legend,Bot*
G04 #@! TF.FilePolarity,Positive*
%FSLAX46Y46*%
G04 Gerber Fmt 4.6, Leading zero omitted, Abs format (unit mm)*
G04 Created by KiCad (PCBNEW (5.1.4)-1) date 2020-06-19 15:30:03*
%MOMM*%
%LPD*%
G04 APERTURE LIST*
%ADD10C,0.150000*%
%ADD11C,0.200000*%
%ADD12C,0.010000*%
G04 APERTURE END LIST*
D10*
X177696047Y-87153714D02*
X177734142Y-87191809D01*
X177848428Y-87229904D01*
X177924619Y-87229904D01*
X178038904Y-87191809D01*
X178115095Y-87115619D01*
X178153190Y-87039428D01*
X178191285Y-86887047D01*
X178191285Y-86772761D01*
X178153190Y-86620380D01*
X178115095Y-86544190D01*
X178038904Y-86468000D01*
X177924619Y-86429904D01*
X177848428Y-86429904D01*
X177734142Y-86468000D01*
X177696047Y-86506095D01*
X177353190Y-87229904D02*
X177353190Y-86696571D01*
X177353190Y-86848952D02*
X177315095Y-86772761D01*
X177277000Y-86734666D01*
X177200809Y-86696571D01*
X177124619Y-86696571D01*
X176553190Y-87191809D02*
X176629380Y-87229904D01*
X176781761Y-87229904D01*
X176857952Y-87191809D01*
X176896047Y-87115619D01*
X176896047Y-86810857D01*
X176857952Y-86734666D01*
X176781761Y-86696571D01*
X176629380Y-86696571D01*
X176553190Y-86734666D01*
X176515095Y-86810857D01*
X176515095Y-86887047D01*
X176896047Y-86963238D01*
X175829380Y-87229904D02*
X175829380Y-86429904D01*
X175829380Y-87191809D02*
X175905571Y-87229904D01*
X176057952Y-87229904D01*
X176134142Y-87191809D01*
X176172238Y-87153714D01*
X176210333Y-87077523D01*
X176210333Y-86848952D01*
X176172238Y-86772761D01*
X176134142Y-86734666D01*
X176057952Y-86696571D01*
X175905571Y-86696571D01*
X175829380Y-86734666D01*
X175448428Y-87229904D02*
X175448428Y-86696571D01*
X175448428Y-86429904D02*
X175486523Y-86468000D01*
X175448428Y-86506095D01*
X175410333Y-86468000D01*
X175448428Y-86429904D01*
X175448428Y-86506095D01*
X175181761Y-86696571D02*
X174877000Y-86696571D01*
X175067476Y-86429904D02*
X175067476Y-87115619D01*
X175029380Y-87191809D01*
X174953190Y-87229904D01*
X174877000Y-87229904D01*
X174648428Y-87191809D02*
X174572238Y-87229904D01*
X174419857Y-87229904D01*
X174343666Y-87191809D01*
X174305571Y-87115619D01*
X174305571Y-87077523D01*
X174343666Y-87001333D01*
X174419857Y-86963238D01*
X174534142Y-86963238D01*
X174610333Y-86925142D01*
X174648428Y-86848952D01*
X174648428Y-86810857D01*
X174610333Y-86734666D01*
X174534142Y-86696571D01*
X174419857Y-86696571D01*
X174343666Y-86734666D01*
X173467476Y-86696571D02*
X173162714Y-86696571D01*
X173353190Y-86429904D02*
X173353190Y-87115619D01*
X173315095Y-87191809D01*
X173238904Y-87229904D01*
X173162714Y-87229904D01*
X172781761Y-87229904D02*
X172857952Y-87191809D01*
X172896047Y-87153714D01*
X172934142Y-87077523D01*
X172934142Y-86848952D01*
X172896047Y-86772761D01*
X172857952Y-86734666D01*
X172781761Y-86696571D01*
X172667476Y-86696571D01*
X172591285Y-86734666D01*
X172553190Y-86772761D01*
X172515095Y-86848952D01*
X172515095Y-87077523D01*
X172553190Y-87153714D01*
X172591285Y-87191809D01*
X172667476Y-87229904D01*
X172781761Y-87229904D01*
X172172238Y-87153714D02*
X172134142Y-87191809D01*
X172172238Y-87229904D01*
X172210333Y-87191809D01*
X172172238Y-87153714D01*
X172172238Y-87229904D01*
X172172238Y-86734666D02*
X172134142Y-86772761D01*
X172172238Y-86810857D01*
X172210333Y-86772761D01*
X172172238Y-86734666D01*
X172172238Y-86810857D01*
X170762714Y-87229904D02*
X171219857Y-87229904D01*
X170991285Y-87229904D02*
X170991285Y-86429904D01*
X171067476Y-86544190D01*
X171143666Y-86620380D01*
X171219857Y-86658476D01*
X170267476Y-86429904D02*
X170191285Y-86429904D01*
X170115095Y-86468000D01*
X170077000Y-86506095D01*
X170038904Y-86582285D01*
X170000809Y-86734666D01*
X170000809Y-86925142D01*
X170038904Y-87077523D01*
X170077000Y-87153714D01*
X170115095Y-87191809D01*
X170191285Y-87229904D01*
X170267476Y-87229904D01*
X170343666Y-87191809D01*
X170381761Y-87153714D01*
X170419857Y-87077523D01*
X170457952Y-86925142D01*
X170457952Y-86734666D01*
X170419857Y-86582285D01*
X170381761Y-86506095D01*
X170343666Y-86468000D01*
X170267476Y-86429904D01*
X169696047Y-86506095D02*
X169657952Y-86468000D01*
X169581761Y-86429904D01*
X169391285Y-86429904D01*
X169315095Y-86468000D01*
X169277000Y-86506095D01*
X169238904Y-86582285D01*
X169238904Y-86658476D01*
X169277000Y-86772761D01*
X169734142Y-87229904D01*
X169238904Y-87229904D01*
X168553190Y-86696571D02*
X168553190Y-87229904D01*
X168743666Y-86391809D02*
X168934142Y-86963238D01*
X168438904Y-86963238D01*
X168134142Y-87229904D02*
X168134142Y-86429904D01*
X167867476Y-87001333D01*
X167600809Y-86429904D01*
X167600809Y-87229904D01*
X167257952Y-87001333D02*
X166877000Y-87001333D01*
X167334142Y-87229904D02*
X167067476Y-86429904D01*
X166800809Y-87229904D01*
X166534142Y-87229904D02*
X166534142Y-86429904D01*
X166077000Y-87229904D02*
X166419857Y-86772761D01*
X166077000Y-86429904D02*
X166534142Y-86887047D01*
X164477000Y-87229904D02*
X164515095Y-87229904D01*
X164591285Y-87191809D01*
X164705571Y-87077523D01*
X164896047Y-86848952D01*
X164972238Y-86734666D01*
X165010333Y-86620380D01*
X165010333Y-86544190D01*
X164972238Y-86468000D01*
X164896047Y-86429904D01*
X164857952Y-86429904D01*
X164781761Y-86468000D01*
X164743666Y-86544190D01*
X164743666Y-86582285D01*
X164781761Y-86658476D01*
X164819857Y-86696571D01*
X165048428Y-86848952D01*
X165086523Y-86887047D01*
X165124619Y-86963238D01*
X165124619Y-87077523D01*
X165086523Y-87153714D01*
X165048428Y-87191809D01*
X164972238Y-87229904D01*
X164857952Y-87229904D01*
X164781761Y-87191809D01*
X164743666Y-87153714D01*
X164629380Y-87001333D01*
X164591285Y-86887047D01*
X164591285Y-86810857D01*
X163067476Y-87229904D02*
X163334142Y-86848952D01*
X163524619Y-87229904D02*
X163524619Y-86429904D01*
X163219857Y-86429904D01*
X163143666Y-86468000D01*
X163105571Y-86506095D01*
X163067476Y-86582285D01*
X163067476Y-86696571D01*
X163105571Y-86772761D01*
X163143666Y-86810857D01*
X163219857Y-86848952D01*
X163524619Y-86848952D01*
X162305571Y-86468000D02*
X162381761Y-86429904D01*
X162496047Y-86429904D01*
X162610333Y-86468000D01*
X162686523Y-86544190D01*
X162724619Y-86620380D01*
X162762714Y-86772761D01*
X162762714Y-86887047D01*
X162724619Y-87039428D01*
X162686523Y-87115619D01*
X162610333Y-87191809D01*
X162496047Y-87229904D01*
X162419857Y-87229904D01*
X162305571Y-87191809D01*
X162267476Y-87153714D01*
X162267476Y-86887047D01*
X162419857Y-86887047D01*
X161962714Y-87001333D02*
X161581761Y-87001333D01*
X162038904Y-87229904D02*
X161772238Y-86429904D01*
X161505571Y-87229904D01*
X161277000Y-86506095D02*
X161238904Y-86468000D01*
X161162714Y-86429904D01*
X160972238Y-86429904D01*
X160896047Y-86468000D01*
X160857952Y-86506095D01*
X160819857Y-86582285D01*
X160819857Y-86658476D01*
X160857952Y-86772761D01*
X161315095Y-87229904D01*
X160819857Y-87229904D01*
X160134142Y-86696571D02*
X160134142Y-87229904D01*
X160324619Y-86391809D02*
X160515095Y-86963238D01*
X160019857Y-86963238D01*
X159715095Y-87153714D02*
X159677000Y-87191809D01*
X159715095Y-87229904D01*
X159753190Y-87191809D01*
X159715095Y-87153714D01*
X159715095Y-87229904D01*
X159715095Y-86734666D02*
X159677000Y-86772761D01*
X159715095Y-86810857D01*
X159753190Y-86772761D01*
X159715095Y-86734666D01*
X159715095Y-86810857D01*
X158724619Y-87229904D02*
X158724619Y-86429904D01*
X158381761Y-87229904D02*
X158381761Y-86810857D01*
X158419857Y-86734666D01*
X158496047Y-86696571D01*
X158610333Y-86696571D01*
X158686523Y-86734666D01*
X158724619Y-86772761D01*
X158115095Y-86696571D02*
X157810333Y-86696571D01*
X158000809Y-86429904D02*
X158000809Y-87115619D01*
X157962714Y-87191809D01*
X157886523Y-87229904D01*
X157810333Y-87229904D01*
X157657952Y-86696571D02*
X157353190Y-86696571D01*
X157543666Y-86429904D02*
X157543666Y-87115619D01*
X157505571Y-87191809D01*
X157429380Y-87229904D01*
X157353190Y-87229904D01*
X157086523Y-86696571D02*
X157086523Y-87496571D01*
X157086523Y-86734666D02*
X157010333Y-86696571D01*
X156857952Y-86696571D01*
X156781761Y-86734666D01*
X156743666Y-86772761D01*
X156705571Y-86848952D01*
X156705571Y-87077523D01*
X156743666Y-87153714D01*
X156781761Y-87191809D01*
X156857952Y-87229904D01*
X157010333Y-87229904D01*
X157086523Y-87191809D01*
X156362714Y-87153714D02*
X156324619Y-87191809D01*
X156362714Y-87229904D01*
X156400809Y-87191809D01*
X156362714Y-87153714D01*
X156362714Y-87229904D01*
X156362714Y-86734666D02*
X156324619Y-86772761D01*
X156362714Y-86810857D01*
X156400809Y-86772761D01*
X156362714Y-86734666D01*
X156362714Y-86810857D01*
X155410333Y-86391809D02*
X156096047Y-87420380D01*
X154572238Y-86391809D02*
X155257952Y-87420380D01*
X154381761Y-86696571D02*
X154229380Y-87229904D01*
X154077000Y-86848952D01*
X153924619Y-87229904D01*
X153772238Y-86696571D01*
X153543666Y-86696571D02*
X153391285Y-87229904D01*
X153238904Y-86848952D01*
X153086523Y-87229904D01*
X152934142Y-86696571D01*
X152705571Y-86696571D02*
X152553190Y-87229904D01*
X152400809Y-86848952D01*
X152248428Y-87229904D01*
X152096047Y-86696571D01*
X151791285Y-87153714D02*
X151753190Y-87191809D01*
X151791285Y-87229904D01*
X151829380Y-87191809D01*
X151791285Y-87153714D01*
X151791285Y-87229904D01*
X151486523Y-86696571D02*
X151334142Y-87229904D01*
X151181761Y-86848952D01*
X151029380Y-87229904D01*
X150877000Y-86696571D01*
X150457952Y-87229904D02*
X150534142Y-87191809D01*
X150572238Y-87153714D01*
X150610333Y-87077523D01*
X150610333Y-86848952D01*
X150572238Y-86772761D01*
X150534142Y-86734666D01*
X150457952Y-86696571D01*
X150343666Y-86696571D01*
X150267476Y-86734666D01*
X150229380Y-86772761D01*
X150191285Y-86848952D01*
X150191285Y-87077523D01*
X150229380Y-87153714D01*
X150267476Y-87191809D01*
X150343666Y-87229904D01*
X150457952Y-87229904D01*
X149848428Y-87229904D02*
X149848428Y-86696571D01*
X149848428Y-86848952D02*
X149810333Y-86772761D01*
X149772238Y-86734666D01*
X149696047Y-86696571D01*
X149619857Y-86696571D01*
X149238904Y-87229904D02*
X149315095Y-87191809D01*
X149353190Y-87115619D01*
X149353190Y-86429904D01*
X148591285Y-87229904D02*
X148591285Y-86429904D01*
X148591285Y-87191809D02*
X148667476Y-87229904D01*
X148819857Y-87229904D01*
X148896047Y-87191809D01*
X148934142Y-87153714D01*
X148972238Y-87077523D01*
X148972238Y-86848952D01*
X148934142Y-86772761D01*
X148896047Y-86734666D01*
X148819857Y-86696571D01*
X148667476Y-86696571D01*
X148591285Y-86734666D01*
X148096047Y-87229904D02*
X148172238Y-87191809D01*
X148210333Y-87153714D01*
X148248428Y-87077523D01*
X148248428Y-86848952D01*
X148210333Y-86772761D01*
X148172238Y-86734666D01*
X148096047Y-86696571D01*
X147981761Y-86696571D01*
X147905571Y-86734666D01*
X147867476Y-86772761D01*
X147829380Y-86848952D01*
X147829380Y-87077523D01*
X147867476Y-87153714D01*
X147905571Y-87191809D01*
X147981761Y-87229904D01*
X148096047Y-87229904D01*
X147600809Y-86696571D02*
X147296047Y-86696571D01*
X147486523Y-87229904D02*
X147486523Y-86544190D01*
X147448428Y-86468000D01*
X147372238Y-86429904D01*
X147296047Y-86429904D01*
X147067476Y-87191809D02*
X146991285Y-87229904D01*
X146838904Y-87229904D01*
X146762714Y-87191809D01*
X146724619Y-87115619D01*
X146724619Y-87077523D01*
X146762714Y-87001333D01*
X146838904Y-86963238D01*
X146953190Y-86963238D01*
X147029380Y-86925142D01*
X147067476Y-86848952D01*
X147067476Y-86810857D01*
X147029380Y-86734666D01*
X146953190Y-86696571D01*
X146838904Y-86696571D01*
X146762714Y-86734666D01*
X146381761Y-86696571D02*
X146381761Y-87496571D01*
X146381761Y-86734666D02*
X146305571Y-86696571D01*
X146153190Y-86696571D01*
X146077000Y-86734666D01*
X146038904Y-86772761D01*
X146000809Y-86848952D01*
X146000809Y-87077523D01*
X146038904Y-87153714D01*
X146077000Y-87191809D01*
X146153190Y-87229904D01*
X146305571Y-87229904D01*
X146381761Y-87191809D01*
X145353190Y-87191809D02*
X145429380Y-87229904D01*
X145581761Y-87229904D01*
X145657952Y-87191809D01*
X145696047Y-87115619D01*
X145696047Y-86810857D01*
X145657952Y-86734666D01*
X145581761Y-86696571D01*
X145429380Y-86696571D01*
X145353190Y-86734666D01*
X145315095Y-86810857D01*
X145315095Y-86887047D01*
X145696047Y-86963238D01*
X144629380Y-87191809D02*
X144705571Y-87229904D01*
X144857952Y-87229904D01*
X144934142Y-87191809D01*
X144972238Y-87153714D01*
X145010333Y-87077523D01*
X145010333Y-86848952D01*
X144972238Y-86772761D01*
X144934142Y-86734666D01*
X144857952Y-86696571D01*
X144705571Y-86696571D01*
X144629380Y-86734666D01*
X144400809Y-86696571D02*
X144096047Y-86696571D01*
X144286523Y-86429904D02*
X144286523Y-87115619D01*
X144248428Y-87191809D01*
X144172238Y-87229904D01*
X144096047Y-87229904D01*
X143829380Y-87229904D02*
X143829380Y-86696571D01*
X143829380Y-86848952D02*
X143791285Y-86772761D01*
X143753190Y-86734666D01*
X143677000Y-86696571D01*
X143600809Y-86696571D01*
X142991285Y-86696571D02*
X142991285Y-87229904D01*
X143334142Y-86696571D02*
X143334142Y-87115619D01*
X143296047Y-87191809D01*
X143219857Y-87229904D01*
X143105571Y-87229904D01*
X143029380Y-87191809D01*
X142991285Y-87153714D01*
X142610333Y-87229904D02*
X142610333Y-86696571D01*
X142610333Y-86772761D02*
X142572238Y-86734666D01*
X142496047Y-86696571D01*
X142381761Y-86696571D01*
X142305571Y-86734666D01*
X142267476Y-86810857D01*
X142267476Y-87229904D01*
X142267476Y-86810857D02*
X142229380Y-86734666D01*
X142153190Y-86696571D01*
X142038904Y-86696571D01*
X141962714Y-86734666D01*
X141924619Y-86810857D01*
X141924619Y-87229904D01*
X141543666Y-87153714D02*
X141505571Y-87191809D01*
X141543666Y-87229904D01*
X141581761Y-87191809D01*
X141543666Y-87153714D01*
X141543666Y-87229904D01*
X141048428Y-87229904D02*
X141124619Y-87191809D01*
X141162714Y-87153714D01*
X141200809Y-87077523D01*
X141200809Y-86848952D01*
X141162714Y-86772761D01*
X141124619Y-86734666D01*
X141048428Y-86696571D01*
X140934142Y-86696571D01*
X140857952Y-86734666D01*
X140819857Y-86772761D01*
X140781761Y-86848952D01*
X140781761Y-87077523D01*
X140819857Y-87153714D01*
X140857952Y-87191809D01*
X140934142Y-87229904D01*
X141048428Y-87229904D01*
X140438904Y-87229904D02*
X140438904Y-86696571D01*
X140438904Y-86848952D02*
X140400809Y-86772761D01*
X140362714Y-86734666D01*
X140286523Y-86696571D01*
X140210333Y-86696571D01*
X139600809Y-86696571D02*
X139600809Y-87344190D01*
X139638904Y-87420380D01*
X139677000Y-87458476D01*
X139753190Y-87496571D01*
X139867476Y-87496571D01*
X139943666Y-87458476D01*
X139600809Y-87191809D02*
X139677000Y-87229904D01*
X139829380Y-87229904D01*
X139905571Y-87191809D01*
X139943666Y-87153714D01*
X139981761Y-87077523D01*
X139981761Y-86848952D01*
X139943666Y-86772761D01*
X139905571Y-86734666D01*
X139829380Y-86696571D01*
X139677000Y-86696571D01*
X139600809Y-86734666D01*
D11*
X176718809Y-109670904D02*
X176185476Y-109670904D01*
X176718809Y-110470904D01*
X176185476Y-110470904D01*
X175956904Y-109670904D02*
X175423571Y-110470904D01*
X175423571Y-109670904D02*
X175956904Y-110470904D01*
X174547380Y-110432809D02*
X174433095Y-110470904D01*
X174242619Y-110470904D01*
X174166428Y-110432809D01*
X174128333Y-110394714D01*
X174090238Y-110318523D01*
X174090238Y-110242333D01*
X174128333Y-110166142D01*
X174166428Y-110128047D01*
X174242619Y-110089952D01*
X174395000Y-110051857D01*
X174471190Y-110013761D01*
X174509285Y-109975666D01*
X174547380Y-109899476D01*
X174547380Y-109823285D01*
X174509285Y-109747095D01*
X174471190Y-109709000D01*
X174395000Y-109670904D01*
X174204523Y-109670904D01*
X174090238Y-109709000D01*
X173747380Y-109937571D02*
X173747380Y-110737571D01*
X173747380Y-109975666D02*
X173671190Y-109937571D01*
X173518809Y-109937571D01*
X173442619Y-109975666D01*
X173404523Y-110013761D01*
X173366428Y-110089952D01*
X173366428Y-110318523D01*
X173404523Y-110394714D01*
X173442619Y-110432809D01*
X173518809Y-110470904D01*
X173671190Y-110470904D01*
X173747380Y-110432809D01*
X172718809Y-110432809D02*
X172795000Y-110470904D01*
X172947380Y-110470904D01*
X173023571Y-110432809D01*
X173061666Y-110356619D01*
X173061666Y-110051857D01*
X173023571Y-109975666D01*
X172947380Y-109937571D01*
X172795000Y-109937571D01*
X172718809Y-109975666D01*
X172680714Y-110051857D01*
X172680714Y-110128047D01*
X173061666Y-110204238D01*
X171995000Y-110432809D02*
X172071190Y-110470904D01*
X172223571Y-110470904D01*
X172299761Y-110432809D01*
X172337857Y-110394714D01*
X172375952Y-110318523D01*
X172375952Y-110089952D01*
X172337857Y-110013761D01*
X172299761Y-109975666D01*
X172223571Y-109937571D01*
X172071190Y-109937571D01*
X171995000Y-109975666D01*
X171766428Y-109937571D02*
X171461666Y-109937571D01*
X171652142Y-109670904D02*
X171652142Y-110356619D01*
X171614047Y-110432809D01*
X171537857Y-110470904D01*
X171461666Y-110470904D01*
X171195000Y-110470904D02*
X171195000Y-109937571D01*
X171195000Y-110089952D02*
X171156904Y-110013761D01*
X171118809Y-109975666D01*
X171042619Y-109937571D01*
X170966428Y-109937571D01*
X170356904Y-109937571D02*
X170356904Y-110470904D01*
X170699761Y-109937571D02*
X170699761Y-110356619D01*
X170661666Y-110432809D01*
X170585476Y-110470904D01*
X170471190Y-110470904D01*
X170395000Y-110432809D01*
X170356904Y-110394714D01*
X169975952Y-110470904D02*
X169975952Y-109937571D01*
X169975952Y-110013761D02*
X169937857Y-109975666D01*
X169861666Y-109937571D01*
X169747380Y-109937571D01*
X169671190Y-109975666D01*
X169633095Y-110051857D01*
X169633095Y-110470904D01*
X169633095Y-110051857D02*
X169595000Y-109975666D01*
X169518809Y-109937571D01*
X169404523Y-109937571D01*
X169328333Y-109975666D01*
X169290238Y-110051857D01*
X169290238Y-110470904D01*
X168337857Y-110432809D02*
X168223571Y-110470904D01*
X168033095Y-110470904D01*
X167956904Y-110432809D01*
X167918809Y-110394714D01*
X167880714Y-110318523D01*
X167880714Y-110242333D01*
X167918809Y-110166142D01*
X167956904Y-110128047D01*
X168033095Y-110089952D01*
X168185476Y-110051857D01*
X168261666Y-110013761D01*
X168299761Y-109975666D01*
X168337857Y-109899476D01*
X168337857Y-109823285D01*
X168299761Y-109747095D01*
X168261666Y-109709000D01*
X168185476Y-109670904D01*
X167995000Y-109670904D01*
X167880714Y-109709000D01*
X167537857Y-110166142D02*
X166928333Y-110166142D01*
X166661666Y-109670904D02*
X166395000Y-110470904D01*
X166128333Y-109670904D01*
X165861666Y-110470904D02*
X165861666Y-109937571D01*
X165861666Y-109670904D02*
X165899761Y-109709000D01*
X165861666Y-109747095D01*
X165823571Y-109709000D01*
X165861666Y-109670904D01*
X165861666Y-109747095D01*
X165137857Y-110470904D02*
X165137857Y-109670904D01*
X165137857Y-110432809D02*
X165214047Y-110470904D01*
X165366428Y-110470904D01*
X165442619Y-110432809D01*
X165480714Y-110394714D01*
X165518809Y-110318523D01*
X165518809Y-110089952D01*
X165480714Y-110013761D01*
X165442619Y-109975666D01*
X165366428Y-109937571D01*
X165214047Y-109937571D01*
X165137857Y-109975666D01*
X164452142Y-110432809D02*
X164528333Y-110470904D01*
X164680714Y-110470904D01*
X164756904Y-110432809D01*
X164795000Y-110356619D01*
X164795000Y-110051857D01*
X164756904Y-109975666D01*
X164680714Y-109937571D01*
X164528333Y-109937571D01*
X164452142Y-109975666D01*
X164414047Y-110051857D01*
X164414047Y-110128047D01*
X164795000Y-110204238D01*
X163956904Y-110470904D02*
X164033095Y-110432809D01*
X164071190Y-110394714D01*
X164109285Y-110318523D01*
X164109285Y-110089952D01*
X164071190Y-110013761D01*
X164033095Y-109975666D01*
X163956904Y-109937571D01*
X163842619Y-109937571D01*
X163766428Y-109975666D01*
X163728333Y-110013761D01*
X163690238Y-110089952D01*
X163690238Y-110318523D01*
X163728333Y-110394714D01*
X163766428Y-110432809D01*
X163842619Y-110470904D01*
X163956904Y-110470904D01*
X162737857Y-110470904D02*
X162737857Y-109670904D01*
X162471190Y-110242333D01*
X162204523Y-109670904D01*
X162204523Y-110470904D01*
X161709285Y-110470904D02*
X161785476Y-110432809D01*
X161823571Y-110394714D01*
X161861666Y-110318523D01*
X161861666Y-110089952D01*
X161823571Y-110013761D01*
X161785476Y-109975666D01*
X161709285Y-109937571D01*
X161595000Y-109937571D01*
X161518809Y-109975666D01*
X161480714Y-110013761D01*
X161442619Y-110089952D01*
X161442619Y-110318523D01*
X161480714Y-110394714D01*
X161518809Y-110432809D01*
X161595000Y-110470904D01*
X161709285Y-110470904D01*
X160756904Y-110470904D02*
X160756904Y-109670904D01*
X160756904Y-110432809D02*
X160833095Y-110470904D01*
X160985476Y-110470904D01*
X161061666Y-110432809D01*
X161099761Y-110394714D01*
X161137857Y-110318523D01*
X161137857Y-110089952D01*
X161099761Y-110013761D01*
X161061666Y-109975666D01*
X160985476Y-109937571D01*
X160833095Y-109937571D01*
X160756904Y-109975666D01*
X160375952Y-110470904D02*
X160375952Y-109937571D01*
X160375952Y-109670904D02*
X160414047Y-109709000D01*
X160375952Y-109747095D01*
X160337857Y-109709000D01*
X160375952Y-109670904D01*
X160375952Y-109747095D01*
X160109285Y-109937571D02*
X159804523Y-109937571D01*
X159995000Y-110470904D02*
X159995000Y-109785190D01*
X159956904Y-109709000D01*
X159880714Y-109670904D01*
X159804523Y-109670904D01*
X159537857Y-110470904D02*
X159537857Y-109937571D01*
X159537857Y-109670904D02*
X159575952Y-109709000D01*
X159537857Y-109747095D01*
X159499761Y-109709000D01*
X159537857Y-109670904D01*
X159537857Y-109747095D01*
X158814047Y-110432809D02*
X158890238Y-110470904D01*
X159042619Y-110470904D01*
X159118809Y-110432809D01*
X159156904Y-110394714D01*
X159195000Y-110318523D01*
X159195000Y-110089952D01*
X159156904Y-110013761D01*
X159118809Y-109975666D01*
X159042619Y-109937571D01*
X158890238Y-109937571D01*
X158814047Y-109975666D01*
X158128333Y-110470904D02*
X158128333Y-110051857D01*
X158166428Y-109975666D01*
X158242619Y-109937571D01*
X158395000Y-109937571D01*
X158471190Y-109975666D01*
X158128333Y-110432809D02*
X158204523Y-110470904D01*
X158395000Y-110470904D01*
X158471190Y-110432809D01*
X158509285Y-110356619D01*
X158509285Y-110280428D01*
X158471190Y-110204238D01*
X158395000Y-110166142D01*
X158204523Y-110166142D01*
X158128333Y-110128047D01*
X157861666Y-109937571D02*
X157556904Y-109937571D01*
X157747380Y-109670904D02*
X157747380Y-110356619D01*
X157709285Y-110432809D01*
X157633095Y-110470904D01*
X157556904Y-110470904D01*
X157290238Y-110470904D02*
X157290238Y-109937571D01*
X157290238Y-109670904D02*
X157328333Y-109709000D01*
X157290238Y-109747095D01*
X157252142Y-109709000D01*
X157290238Y-109670904D01*
X157290238Y-109747095D01*
X156795000Y-110470904D02*
X156871190Y-110432809D01*
X156909285Y-110394714D01*
X156947380Y-110318523D01*
X156947380Y-110089952D01*
X156909285Y-110013761D01*
X156871190Y-109975666D01*
X156795000Y-109937571D01*
X156680714Y-109937571D01*
X156604523Y-109975666D01*
X156566428Y-110013761D01*
X156528333Y-110089952D01*
X156528333Y-110318523D01*
X156566428Y-110394714D01*
X156604523Y-110432809D01*
X156680714Y-110470904D01*
X156795000Y-110470904D01*
X156185476Y-109937571D02*
X156185476Y-110470904D01*
X156185476Y-110013761D02*
X156147380Y-109975666D01*
X156071190Y-109937571D01*
X155956904Y-109937571D01*
X155880714Y-109975666D01*
X155842619Y-110051857D01*
X155842619Y-110470904D01*
X154852142Y-110166142D02*
X154242619Y-110166142D01*
X152795000Y-110470904D02*
X153061666Y-110089952D01*
X153252142Y-110470904D02*
X153252142Y-109670904D01*
X152947380Y-109670904D01*
X152871190Y-109709000D01*
X152833095Y-109747095D01*
X152795000Y-109823285D01*
X152795000Y-109937571D01*
X152833095Y-110013761D01*
X152871190Y-110051857D01*
X152947380Y-110089952D01*
X153252142Y-110089952D01*
X152147380Y-110432809D02*
X152223571Y-110470904D01*
X152375952Y-110470904D01*
X152452142Y-110432809D01*
X152490238Y-110356619D01*
X152490238Y-110051857D01*
X152452142Y-109975666D01*
X152375952Y-109937571D01*
X152223571Y-109937571D01*
X152147380Y-109975666D01*
X152109285Y-110051857D01*
X152109285Y-110128047D01*
X152490238Y-110204238D01*
X151842619Y-109937571D02*
X151652142Y-110470904D01*
X151461666Y-109937571D01*
X151156904Y-110394714D02*
X151118809Y-110432809D01*
X151156904Y-110470904D01*
X151195000Y-110432809D01*
X151156904Y-110394714D01*
X151156904Y-110470904D01*
X149709285Y-110394714D02*
X149747380Y-110432809D01*
X149861666Y-110470904D01*
X149937857Y-110470904D01*
X150052142Y-110432809D01*
X150128333Y-110356619D01*
X150166428Y-110280428D01*
X150204523Y-110128047D01*
X150204523Y-110013761D01*
X150166428Y-109861380D01*
X150128333Y-109785190D01*
X150052142Y-109709000D01*
X149937857Y-109670904D01*
X149861666Y-109670904D01*
X149747380Y-109709000D01*
X149709285Y-109747095D01*
D12*
G36*
X168935371Y-105139066D02*
G01*
X168895889Y-105139467D01*
X168780200Y-105142259D01*
X168683311Y-105150550D01*
X168601919Y-105165232D01*
X168532723Y-105187193D01*
X168472420Y-105217322D01*
X168417708Y-105256510D01*
X168398167Y-105273532D01*
X168365750Y-105313363D01*
X168336520Y-105367413D01*
X168313991Y-105427323D01*
X168301679Y-105484739D01*
X168300400Y-105505956D01*
X168308417Y-105564769D01*
X168329899Y-105629013D01*
X168360999Y-105689821D01*
X168397866Y-105738330D01*
X168403854Y-105744182D01*
X168454579Y-105785321D01*
X168510125Y-105817435D01*
X168573696Y-105841365D01*
X168648494Y-105857953D01*
X168737722Y-105868041D01*
X168844582Y-105872469D01*
X168893528Y-105872845D01*
X168955762Y-105872545D01*
X168999528Y-105871292D01*
X169028931Y-105868554D01*
X169048079Y-105863801D01*
X169061077Y-105856501D01*
X169068045Y-105850267D01*
X169074626Y-105842694D01*
X169079788Y-105832924D01*
X169083703Y-105818340D01*
X169086543Y-105796326D01*
X169088480Y-105764264D01*
X169089684Y-105719536D01*
X169090328Y-105659526D01*
X169090583Y-105581617D01*
X169090622Y-105505956D01*
X169090870Y-105405041D01*
X169090817Y-105324427D01*
X169089857Y-105285822D01*
X168943867Y-105285822D01*
X168943867Y-105726089D01*
X168850734Y-105726004D01*
X168794693Y-105724396D01*
X168735999Y-105720256D01*
X168687028Y-105714464D01*
X168685538Y-105714226D01*
X168606392Y-105695090D01*
X168545002Y-105665287D01*
X168498305Y-105622878D01*
X168468635Y-105576961D01*
X168450353Y-105526026D01*
X168451771Y-105478200D01*
X168472988Y-105426933D01*
X168514489Y-105373899D01*
X168571998Y-105334600D01*
X168646750Y-105308331D01*
X168696708Y-105299035D01*
X168753416Y-105292507D01*
X168813519Y-105287782D01*
X168864639Y-105285817D01*
X168867667Y-105285808D01*
X168943867Y-105285822D01*
X169089857Y-105285822D01*
X169089260Y-105261851D01*
X169084998Y-105215055D01*
X169076830Y-105181778D01*
X169063556Y-105159759D01*
X169043974Y-105146739D01*
X169016883Y-105140457D01*
X168981082Y-105138653D01*
X168935371Y-105139066D01*
X168935371Y-105139066D01*
G37*
X168935371Y-105139066D02*
X168895889Y-105139467D01*
X168780200Y-105142259D01*
X168683311Y-105150550D01*
X168601919Y-105165232D01*
X168532723Y-105187193D01*
X168472420Y-105217322D01*
X168417708Y-105256510D01*
X168398167Y-105273532D01*
X168365750Y-105313363D01*
X168336520Y-105367413D01*
X168313991Y-105427323D01*
X168301679Y-105484739D01*
X168300400Y-105505956D01*
X168308417Y-105564769D01*
X168329899Y-105629013D01*
X168360999Y-105689821D01*
X168397866Y-105738330D01*
X168403854Y-105744182D01*
X168454579Y-105785321D01*
X168510125Y-105817435D01*
X168573696Y-105841365D01*
X168648494Y-105857953D01*
X168737722Y-105868041D01*
X168844582Y-105872469D01*
X168893528Y-105872845D01*
X168955762Y-105872545D01*
X168999528Y-105871292D01*
X169028931Y-105868554D01*
X169048079Y-105863801D01*
X169061077Y-105856501D01*
X169068045Y-105850267D01*
X169074626Y-105842694D01*
X169079788Y-105832924D01*
X169083703Y-105818340D01*
X169086543Y-105796326D01*
X169088480Y-105764264D01*
X169089684Y-105719536D01*
X169090328Y-105659526D01*
X169090583Y-105581617D01*
X169090622Y-105505956D01*
X169090870Y-105405041D01*
X169090817Y-105324427D01*
X169089857Y-105285822D01*
X168943867Y-105285822D01*
X168943867Y-105726089D01*
X168850734Y-105726004D01*
X168794693Y-105724396D01*
X168735999Y-105720256D01*
X168687028Y-105714464D01*
X168685538Y-105714226D01*
X168606392Y-105695090D01*
X168545002Y-105665287D01*
X168498305Y-105622878D01*
X168468635Y-105576961D01*
X168450353Y-105526026D01*
X168451771Y-105478200D01*
X168472988Y-105426933D01*
X168514489Y-105373899D01*
X168571998Y-105334600D01*
X168646750Y-105308331D01*
X168696708Y-105299035D01*
X168753416Y-105292507D01*
X168813519Y-105287782D01*
X168864639Y-105285817D01*
X168867667Y-105285808D01*
X168943867Y-105285822D01*
X169089857Y-105285822D01*
X169089260Y-105261851D01*
X169084998Y-105215055D01*
X169076830Y-105181778D01*
X169063556Y-105159759D01*
X169043974Y-105146739D01*
X169016883Y-105140457D01*
X168981082Y-105138653D01*
X168935371Y-105139066D01*
G36*
X167526794Y-105139146D02*
G01*
X167457386Y-105139518D01*
X167404997Y-105140385D01*
X167366847Y-105141946D01*
X167340159Y-105144403D01*
X167322153Y-105147957D01*
X167310049Y-105152810D01*
X167301069Y-105159161D01*
X167297818Y-105162084D01*
X167278043Y-105193142D01*
X167274482Y-105228828D01*
X167287491Y-105260510D01*
X167293506Y-105266913D01*
X167303235Y-105273121D01*
X167318901Y-105277910D01*
X167343408Y-105281514D01*
X167379661Y-105284164D01*
X167430565Y-105286095D01*
X167499026Y-105287539D01*
X167561617Y-105288418D01*
X167809334Y-105291467D01*
X167812719Y-105356378D01*
X167816105Y-105421289D01*
X167647958Y-105421289D01*
X167574959Y-105421919D01*
X167521517Y-105424553D01*
X167484628Y-105430309D01*
X167461288Y-105440304D01*
X167448494Y-105455656D01*
X167443242Y-105477482D01*
X167442445Y-105497738D01*
X167444923Y-105522592D01*
X167454277Y-105540906D01*
X167473383Y-105553637D01*
X167505118Y-105561741D01*
X167552359Y-105566176D01*
X167617983Y-105567899D01*
X167653801Y-105568045D01*
X167814978Y-105568045D01*
X167814978Y-105726089D01*
X167566622Y-105726089D01*
X167485213Y-105726202D01*
X167423342Y-105726712D01*
X167377968Y-105727870D01*
X167346054Y-105729930D01*
X167324559Y-105733146D01*
X167310443Y-105737772D01*
X167300668Y-105744059D01*
X167295689Y-105748667D01*
X167278610Y-105775560D01*
X167273111Y-105799467D01*
X167280963Y-105828667D01*
X167295689Y-105850267D01*
X167303546Y-105857066D01*
X167313688Y-105862346D01*
X167328844Y-105866298D01*
X167351741Y-105869113D01*
X167385109Y-105870982D01*
X167431675Y-105872098D01*
X167494167Y-105872651D01*
X167575314Y-105872833D01*
X167617422Y-105872845D01*
X167707598Y-105872765D01*
X167777924Y-105872398D01*
X167831129Y-105871552D01*
X167869940Y-105870036D01*
X167897087Y-105867659D01*
X167915298Y-105864229D01*
X167927300Y-105859554D01*
X167935822Y-105853444D01*
X167939156Y-105850267D01*
X167945755Y-105842670D01*
X167950927Y-105832870D01*
X167954846Y-105818239D01*
X167957684Y-105796152D01*
X167959615Y-105763982D01*
X167960812Y-105719103D01*
X167961448Y-105658889D01*
X167961697Y-105580713D01*
X167961734Y-105507923D01*
X167961700Y-105414707D01*
X167961465Y-105341431D01*
X167960830Y-105285458D01*
X167959594Y-105244151D01*
X167957556Y-105214872D01*
X167954517Y-105194984D01*
X167950277Y-105181850D01*
X167944635Y-105172832D01*
X167937391Y-105165293D01*
X167935606Y-105163612D01*
X167926945Y-105156172D01*
X167916882Y-105150409D01*
X167902625Y-105146112D01*
X167881383Y-105143064D01*
X167850364Y-105141051D01*
X167806777Y-105139860D01*
X167747831Y-105139275D01*
X167670734Y-105139083D01*
X167616001Y-105139067D01*
X167526794Y-105139146D01*
X167526794Y-105139146D01*
G37*
X167526794Y-105139146D02*
X167457386Y-105139518D01*
X167404997Y-105140385D01*
X167366847Y-105141946D01*
X167340159Y-105144403D01*
X167322153Y-105147957D01*
X167310049Y-105152810D01*
X167301069Y-105159161D01*
X167297818Y-105162084D01*
X167278043Y-105193142D01*
X167274482Y-105228828D01*
X167287491Y-105260510D01*
X167293506Y-105266913D01*
X167303235Y-105273121D01*
X167318901Y-105277910D01*
X167343408Y-105281514D01*
X167379661Y-105284164D01*
X167430565Y-105286095D01*
X167499026Y-105287539D01*
X167561617Y-105288418D01*
X167809334Y-105291467D01*
X167812719Y-105356378D01*
X167816105Y-105421289D01*
X167647958Y-105421289D01*
X167574959Y-105421919D01*
X167521517Y-105424553D01*
X167484628Y-105430309D01*
X167461288Y-105440304D01*
X167448494Y-105455656D01*
X167443242Y-105477482D01*
X167442445Y-105497738D01*
X167444923Y-105522592D01*
X167454277Y-105540906D01*
X167473383Y-105553637D01*
X167505118Y-105561741D01*
X167552359Y-105566176D01*
X167617983Y-105567899D01*
X167653801Y-105568045D01*
X167814978Y-105568045D01*
X167814978Y-105726089D01*
X167566622Y-105726089D01*
X167485213Y-105726202D01*
X167423342Y-105726712D01*
X167377968Y-105727870D01*
X167346054Y-105729930D01*
X167324559Y-105733146D01*
X167310443Y-105737772D01*
X167300668Y-105744059D01*
X167295689Y-105748667D01*
X167278610Y-105775560D01*
X167273111Y-105799467D01*
X167280963Y-105828667D01*
X167295689Y-105850267D01*
X167303546Y-105857066D01*
X167313688Y-105862346D01*
X167328844Y-105866298D01*
X167351741Y-105869113D01*
X167385109Y-105870982D01*
X167431675Y-105872098D01*
X167494167Y-105872651D01*
X167575314Y-105872833D01*
X167617422Y-105872845D01*
X167707598Y-105872765D01*
X167777924Y-105872398D01*
X167831129Y-105871552D01*
X167869940Y-105870036D01*
X167897087Y-105867659D01*
X167915298Y-105864229D01*
X167927300Y-105859554D01*
X167935822Y-105853444D01*
X167939156Y-105850267D01*
X167945755Y-105842670D01*
X167950927Y-105832870D01*
X167954846Y-105818239D01*
X167957684Y-105796152D01*
X167959615Y-105763982D01*
X167960812Y-105719103D01*
X167961448Y-105658889D01*
X167961697Y-105580713D01*
X167961734Y-105507923D01*
X167961700Y-105414707D01*
X167961465Y-105341431D01*
X167960830Y-105285458D01*
X167959594Y-105244151D01*
X167957556Y-105214872D01*
X167954517Y-105194984D01*
X167950277Y-105181850D01*
X167944635Y-105172832D01*
X167937391Y-105165293D01*
X167935606Y-105163612D01*
X167926945Y-105156172D01*
X167916882Y-105150409D01*
X167902625Y-105146112D01*
X167881383Y-105143064D01*
X167850364Y-105141051D01*
X167806777Y-105139860D01*
X167747831Y-105139275D01*
X167670734Y-105139083D01*
X167616001Y-105139067D01*
X167526794Y-105139146D01*
G36*
X166505703Y-105140351D02*
G01*
X166430888Y-105145581D01*
X166361306Y-105153750D01*
X166301002Y-105164550D01*
X166254020Y-105177673D01*
X166224406Y-105192813D01*
X166219860Y-105197269D01*
X166204054Y-105231850D01*
X166208847Y-105267351D01*
X166233364Y-105297725D01*
X166234534Y-105298596D01*
X166248954Y-105307954D01*
X166264008Y-105312876D01*
X166285005Y-105313473D01*
X166317257Y-105309861D01*
X166366073Y-105302154D01*
X166370000Y-105301505D01*
X166442739Y-105292569D01*
X166521217Y-105288161D01*
X166599927Y-105288119D01*
X166673361Y-105292279D01*
X166736011Y-105300479D01*
X166782370Y-105312557D01*
X166785416Y-105313771D01*
X166819048Y-105332615D01*
X166830864Y-105351685D01*
X166821614Y-105370439D01*
X166792047Y-105388337D01*
X166742911Y-105404837D01*
X166674957Y-105419396D01*
X166629645Y-105426406D01*
X166535456Y-105439889D01*
X166460544Y-105452214D01*
X166401717Y-105464449D01*
X166355785Y-105477661D01*
X166319555Y-105492917D01*
X166289838Y-105511285D01*
X166263442Y-105533831D01*
X166242230Y-105555971D01*
X166217065Y-105586819D01*
X166204681Y-105613345D01*
X166200808Y-105646026D01*
X166200667Y-105657995D01*
X166203576Y-105697712D01*
X166215202Y-105727259D01*
X166235323Y-105753486D01*
X166276216Y-105793576D01*
X166321817Y-105824149D01*
X166375513Y-105846203D01*
X166440692Y-105860735D01*
X166520744Y-105868741D01*
X166619057Y-105871218D01*
X166635289Y-105871177D01*
X166700849Y-105869818D01*
X166765866Y-105866730D01*
X166823252Y-105862356D01*
X166865922Y-105857140D01*
X166869372Y-105856541D01*
X166911796Y-105846491D01*
X166947780Y-105833796D01*
X166968150Y-105822190D01*
X166987107Y-105791572D01*
X166988427Y-105755918D01*
X166972085Y-105724144D01*
X166968429Y-105720551D01*
X166953315Y-105709876D01*
X166934415Y-105705276D01*
X166905162Y-105706059D01*
X166869651Y-105710127D01*
X166829970Y-105713762D01*
X166774345Y-105716828D01*
X166709406Y-105719053D01*
X166641785Y-105720164D01*
X166624000Y-105720237D01*
X166556128Y-105719964D01*
X166506454Y-105718646D01*
X166470610Y-105715827D01*
X166444224Y-105711050D01*
X166422926Y-105703857D01*
X166410126Y-105697867D01*
X166382000Y-105681233D01*
X166364068Y-105666168D01*
X166361447Y-105661897D01*
X166366976Y-105644263D01*
X166393260Y-105627192D01*
X166438478Y-105611458D01*
X166500808Y-105597838D01*
X166519171Y-105594804D01*
X166615090Y-105579738D01*
X166691641Y-105567146D01*
X166751780Y-105556111D01*
X166798460Y-105545720D01*
X166834637Y-105535056D01*
X166863265Y-105523205D01*
X166887298Y-105509251D01*
X166909692Y-105492281D01*
X166933402Y-105471378D01*
X166941380Y-105464049D01*
X166969353Y-105436699D01*
X166984160Y-105415029D01*
X166989952Y-105390232D01*
X166990889Y-105358983D01*
X166980575Y-105297705D01*
X166949752Y-105245640D01*
X166898595Y-105202958D01*
X166827283Y-105169825D01*
X166776400Y-105154964D01*
X166721100Y-105145366D01*
X166654853Y-105139936D01*
X166581706Y-105138367D01*
X166505703Y-105140351D01*
X166505703Y-105140351D01*
G37*
X166505703Y-105140351D02*
X166430888Y-105145581D01*
X166361306Y-105153750D01*
X166301002Y-105164550D01*
X166254020Y-105177673D01*
X166224406Y-105192813D01*
X166219860Y-105197269D01*
X166204054Y-105231850D01*
X166208847Y-105267351D01*
X166233364Y-105297725D01*
X166234534Y-105298596D01*
X166248954Y-105307954D01*
X166264008Y-105312876D01*
X166285005Y-105313473D01*
X166317257Y-105309861D01*
X166366073Y-105302154D01*
X166370000Y-105301505D01*
X166442739Y-105292569D01*
X166521217Y-105288161D01*
X166599927Y-105288119D01*
X166673361Y-105292279D01*
X166736011Y-105300479D01*
X166782370Y-105312557D01*
X166785416Y-105313771D01*
X166819048Y-105332615D01*
X166830864Y-105351685D01*
X166821614Y-105370439D01*
X166792047Y-105388337D01*
X166742911Y-105404837D01*
X166674957Y-105419396D01*
X166629645Y-105426406D01*
X166535456Y-105439889D01*
X166460544Y-105452214D01*
X166401717Y-105464449D01*
X166355785Y-105477661D01*
X166319555Y-105492917D01*
X166289838Y-105511285D01*
X166263442Y-105533831D01*
X166242230Y-105555971D01*
X166217065Y-105586819D01*
X166204681Y-105613345D01*
X166200808Y-105646026D01*
X166200667Y-105657995D01*
X166203576Y-105697712D01*
X166215202Y-105727259D01*
X166235323Y-105753486D01*
X166276216Y-105793576D01*
X166321817Y-105824149D01*
X166375513Y-105846203D01*
X166440692Y-105860735D01*
X166520744Y-105868741D01*
X166619057Y-105871218D01*
X166635289Y-105871177D01*
X166700849Y-105869818D01*
X166765866Y-105866730D01*
X166823252Y-105862356D01*
X166865922Y-105857140D01*
X166869372Y-105856541D01*
X166911796Y-105846491D01*
X166947780Y-105833796D01*
X166968150Y-105822190D01*
X166987107Y-105791572D01*
X166988427Y-105755918D01*
X166972085Y-105724144D01*
X166968429Y-105720551D01*
X166953315Y-105709876D01*
X166934415Y-105705276D01*
X166905162Y-105706059D01*
X166869651Y-105710127D01*
X166829970Y-105713762D01*
X166774345Y-105716828D01*
X166709406Y-105719053D01*
X166641785Y-105720164D01*
X166624000Y-105720237D01*
X166556128Y-105719964D01*
X166506454Y-105718646D01*
X166470610Y-105715827D01*
X166444224Y-105711050D01*
X166422926Y-105703857D01*
X166410126Y-105697867D01*
X166382000Y-105681233D01*
X166364068Y-105666168D01*
X166361447Y-105661897D01*
X166366976Y-105644263D01*
X166393260Y-105627192D01*
X166438478Y-105611458D01*
X166500808Y-105597838D01*
X166519171Y-105594804D01*
X166615090Y-105579738D01*
X166691641Y-105567146D01*
X166751780Y-105556111D01*
X166798460Y-105545720D01*
X166834637Y-105535056D01*
X166863265Y-105523205D01*
X166887298Y-105509251D01*
X166909692Y-105492281D01*
X166933402Y-105471378D01*
X166941380Y-105464049D01*
X166969353Y-105436699D01*
X166984160Y-105415029D01*
X166989952Y-105390232D01*
X166990889Y-105358983D01*
X166980575Y-105297705D01*
X166949752Y-105245640D01*
X166898595Y-105202958D01*
X166827283Y-105169825D01*
X166776400Y-105154964D01*
X166721100Y-105145366D01*
X166654853Y-105139936D01*
X166581706Y-105138367D01*
X166505703Y-105140351D01*
G36*
X165737822Y-105161645D02*
G01*
X165731242Y-105169218D01*
X165726079Y-105178987D01*
X165722164Y-105193571D01*
X165719324Y-105215585D01*
X165717387Y-105247648D01*
X165716183Y-105292375D01*
X165715539Y-105352385D01*
X165715284Y-105430294D01*
X165715245Y-105505956D01*
X165715314Y-105599802D01*
X165715638Y-105673689D01*
X165716386Y-105730232D01*
X165717732Y-105772049D01*
X165719846Y-105801757D01*
X165722900Y-105821973D01*
X165727066Y-105835314D01*
X165732516Y-105844398D01*
X165737822Y-105850267D01*
X165770826Y-105869947D01*
X165805991Y-105868181D01*
X165837455Y-105846717D01*
X165844684Y-105838337D01*
X165850334Y-105828614D01*
X165854599Y-105814861D01*
X165857673Y-105794389D01*
X165859752Y-105764512D01*
X165861030Y-105722541D01*
X165861701Y-105665789D01*
X165861959Y-105591567D01*
X165862000Y-105507537D01*
X165862000Y-105194485D01*
X165834291Y-105166776D01*
X165800137Y-105143463D01*
X165767006Y-105142623D01*
X165737822Y-105161645D01*
X165737822Y-105161645D01*
G37*
X165737822Y-105161645D02*
X165731242Y-105169218D01*
X165726079Y-105178987D01*
X165722164Y-105193571D01*
X165719324Y-105215585D01*
X165717387Y-105247648D01*
X165716183Y-105292375D01*
X165715539Y-105352385D01*
X165715284Y-105430294D01*
X165715245Y-105505956D01*
X165715314Y-105599802D01*
X165715638Y-105673689D01*
X165716386Y-105730232D01*
X165717732Y-105772049D01*
X165719846Y-105801757D01*
X165722900Y-105821973D01*
X165727066Y-105835314D01*
X165732516Y-105844398D01*
X165737822Y-105850267D01*
X165770826Y-105869947D01*
X165805991Y-105868181D01*
X165837455Y-105846717D01*
X165844684Y-105838337D01*
X165850334Y-105828614D01*
X165854599Y-105814861D01*
X165857673Y-105794389D01*
X165859752Y-105764512D01*
X165861030Y-105722541D01*
X165861701Y-105665789D01*
X165861959Y-105591567D01*
X165862000Y-105507537D01*
X165862000Y-105194485D01*
X165834291Y-105166776D01*
X165800137Y-105143463D01*
X165767006Y-105142623D01*
X165737822Y-105161645D01*
G36*
X164764081Y-105144599D02*
G01*
X164695565Y-105156095D01*
X164642943Y-105173967D01*
X164608708Y-105197499D01*
X164599379Y-105210924D01*
X164589893Y-105242148D01*
X164596277Y-105270395D01*
X164616430Y-105297182D01*
X164647745Y-105309713D01*
X164693183Y-105308696D01*
X164728326Y-105301906D01*
X164806419Y-105288971D01*
X164886226Y-105287742D01*
X164975555Y-105298241D01*
X165000229Y-105302690D01*
X165083291Y-105326108D01*
X165148273Y-105360945D01*
X165194461Y-105406604D01*
X165221145Y-105462494D01*
X165226663Y-105491388D01*
X165223051Y-105550012D01*
X165199729Y-105601879D01*
X165158824Y-105645978D01*
X165102459Y-105681299D01*
X165032760Y-105706829D01*
X164951852Y-105721559D01*
X164861860Y-105724478D01*
X164764910Y-105714575D01*
X164759436Y-105713641D01*
X164720875Y-105706459D01*
X164699494Y-105699521D01*
X164690227Y-105689227D01*
X164688006Y-105671976D01*
X164687956Y-105662841D01*
X164687956Y-105624489D01*
X164756431Y-105624489D01*
X164816900Y-105620347D01*
X164858165Y-105607147D01*
X164882175Y-105583730D01*
X164890877Y-105548936D01*
X164890983Y-105544394D01*
X164885892Y-105514654D01*
X164868433Y-105493419D01*
X164835939Y-105479366D01*
X164785743Y-105471173D01*
X164737123Y-105468161D01*
X164666456Y-105466433D01*
X164615198Y-105469070D01*
X164580239Y-105478800D01*
X164558470Y-105498353D01*
X164546780Y-105530456D01*
X164542060Y-105577838D01*
X164541200Y-105640071D01*
X164542609Y-105709535D01*
X164546848Y-105756786D01*
X164553936Y-105782012D01*
X164555311Y-105783988D01*
X164594228Y-105815508D01*
X164651286Y-105840470D01*
X164722869Y-105858340D01*
X164805358Y-105868586D01*
X164895139Y-105870673D01*
X164988592Y-105864068D01*
X165043556Y-105855956D01*
X165129766Y-105831554D01*
X165209892Y-105791662D01*
X165276977Y-105739887D01*
X165287173Y-105729539D01*
X165320302Y-105686035D01*
X165350194Y-105632118D01*
X165373357Y-105575592D01*
X165386298Y-105524259D01*
X165387858Y-105504544D01*
X165381218Y-105463419D01*
X165363568Y-105412252D01*
X165338297Y-105358394D01*
X165308789Y-105309195D01*
X165282719Y-105276334D01*
X165221765Y-105227452D01*
X165142969Y-105188545D01*
X165049157Y-105160494D01*
X164943150Y-105144179D01*
X164846000Y-105140192D01*
X164764081Y-105144599D01*
X164764081Y-105144599D01*
G37*
X164764081Y-105144599D02*
X164695565Y-105156095D01*
X164642943Y-105173967D01*
X164608708Y-105197499D01*
X164599379Y-105210924D01*
X164589893Y-105242148D01*
X164596277Y-105270395D01*
X164616430Y-105297182D01*
X164647745Y-105309713D01*
X164693183Y-105308696D01*
X164728326Y-105301906D01*
X164806419Y-105288971D01*
X164886226Y-105287742D01*
X164975555Y-105298241D01*
X165000229Y-105302690D01*
X165083291Y-105326108D01*
X165148273Y-105360945D01*
X165194461Y-105406604D01*
X165221145Y-105462494D01*
X165226663Y-105491388D01*
X165223051Y-105550012D01*
X165199729Y-105601879D01*
X165158824Y-105645978D01*
X165102459Y-105681299D01*
X165032760Y-105706829D01*
X164951852Y-105721559D01*
X164861860Y-105724478D01*
X164764910Y-105714575D01*
X164759436Y-105713641D01*
X164720875Y-105706459D01*
X164699494Y-105699521D01*
X164690227Y-105689227D01*
X164688006Y-105671976D01*
X164687956Y-105662841D01*
X164687956Y-105624489D01*
X164756431Y-105624489D01*
X164816900Y-105620347D01*
X164858165Y-105607147D01*
X164882175Y-105583730D01*
X164890877Y-105548936D01*
X164890983Y-105544394D01*
X164885892Y-105514654D01*
X164868433Y-105493419D01*
X164835939Y-105479366D01*
X164785743Y-105471173D01*
X164737123Y-105468161D01*
X164666456Y-105466433D01*
X164615198Y-105469070D01*
X164580239Y-105478800D01*
X164558470Y-105498353D01*
X164546780Y-105530456D01*
X164542060Y-105577838D01*
X164541200Y-105640071D01*
X164542609Y-105709535D01*
X164546848Y-105756786D01*
X164553936Y-105782012D01*
X164555311Y-105783988D01*
X164594228Y-105815508D01*
X164651286Y-105840470D01*
X164722869Y-105858340D01*
X164805358Y-105868586D01*
X164895139Y-105870673D01*
X164988592Y-105864068D01*
X165043556Y-105855956D01*
X165129766Y-105831554D01*
X165209892Y-105791662D01*
X165276977Y-105739887D01*
X165287173Y-105729539D01*
X165320302Y-105686035D01*
X165350194Y-105632118D01*
X165373357Y-105575592D01*
X165386298Y-105524259D01*
X165387858Y-105504544D01*
X165381218Y-105463419D01*
X165363568Y-105412252D01*
X165338297Y-105358394D01*
X165308789Y-105309195D01*
X165282719Y-105276334D01*
X165221765Y-105227452D01*
X165142969Y-105188545D01*
X165049157Y-105160494D01*
X164943150Y-105144179D01*
X164846000Y-105140192D01*
X164764081Y-105144599D01*
G36*
X164114114Y-105143448D02*
G01*
X164090548Y-105157273D01*
X164059735Y-105179881D01*
X164020078Y-105212338D01*
X163969980Y-105255708D01*
X163907843Y-105311058D01*
X163832072Y-105379451D01*
X163745334Y-105458084D01*
X163564711Y-105621878D01*
X163559067Y-105402029D01*
X163557029Y-105326351D01*
X163555063Y-105269994D01*
X163552734Y-105229706D01*
X163549606Y-105202235D01*
X163545245Y-105184329D01*
X163539216Y-105172737D01*
X163531084Y-105164208D01*
X163526772Y-105160623D01*
X163492241Y-105141670D01*
X163459383Y-105144441D01*
X163433318Y-105160633D01*
X163406667Y-105182199D01*
X163403352Y-105497151D01*
X163402435Y-105589779D01*
X163401968Y-105662544D01*
X163402113Y-105718161D01*
X163403032Y-105759342D01*
X163404887Y-105788803D01*
X163407839Y-105809255D01*
X163412050Y-105823413D01*
X163417682Y-105833991D01*
X163423927Y-105842474D01*
X163437439Y-105858207D01*
X163450883Y-105868636D01*
X163466124Y-105872639D01*
X163485026Y-105869094D01*
X163509455Y-105856879D01*
X163541273Y-105834871D01*
X163582348Y-105801949D01*
X163634542Y-105756991D01*
X163699722Y-105698875D01*
X163773556Y-105632099D01*
X164038845Y-105391458D01*
X164044489Y-105610589D01*
X164046531Y-105686128D01*
X164048502Y-105742354D01*
X164050839Y-105782524D01*
X164053981Y-105809896D01*
X164058364Y-105827728D01*
X164064424Y-105839279D01*
X164072600Y-105847807D01*
X164076784Y-105851282D01*
X164113765Y-105870372D01*
X164148708Y-105867493D01*
X164179136Y-105843100D01*
X164186097Y-105833286D01*
X164191523Y-105821826D01*
X164195603Y-105805968D01*
X164198529Y-105782963D01*
X164200492Y-105750062D01*
X164201683Y-105704516D01*
X164202292Y-105643573D01*
X164202511Y-105564486D01*
X164202534Y-105505956D01*
X164202460Y-105414407D01*
X164202113Y-105342687D01*
X164201301Y-105288045D01*
X164199833Y-105247732D01*
X164197519Y-105218998D01*
X164194167Y-105199093D01*
X164189588Y-105185268D01*
X164183589Y-105174772D01*
X164179136Y-105168811D01*
X164167850Y-105154691D01*
X164157301Y-105144029D01*
X164145893Y-105137892D01*
X164132030Y-105137343D01*
X164114114Y-105143448D01*
X164114114Y-105143448D01*
G37*
X164114114Y-105143448D02*
X164090548Y-105157273D01*
X164059735Y-105179881D01*
X164020078Y-105212338D01*
X163969980Y-105255708D01*
X163907843Y-105311058D01*
X163832072Y-105379451D01*
X163745334Y-105458084D01*
X163564711Y-105621878D01*
X163559067Y-105402029D01*
X163557029Y-105326351D01*
X163555063Y-105269994D01*
X163552734Y-105229706D01*
X163549606Y-105202235D01*
X163545245Y-105184329D01*
X163539216Y-105172737D01*
X163531084Y-105164208D01*
X163526772Y-105160623D01*
X163492241Y-105141670D01*
X163459383Y-105144441D01*
X163433318Y-105160633D01*
X163406667Y-105182199D01*
X163403352Y-105497151D01*
X163402435Y-105589779D01*
X163401968Y-105662544D01*
X163402113Y-105718161D01*
X163403032Y-105759342D01*
X163404887Y-105788803D01*
X163407839Y-105809255D01*
X163412050Y-105823413D01*
X163417682Y-105833991D01*
X163423927Y-105842474D01*
X163437439Y-105858207D01*
X163450883Y-105868636D01*
X163466124Y-105872639D01*
X163485026Y-105869094D01*
X163509455Y-105856879D01*
X163541273Y-105834871D01*
X163582348Y-105801949D01*
X163634542Y-105756991D01*
X163699722Y-105698875D01*
X163773556Y-105632099D01*
X164038845Y-105391458D01*
X164044489Y-105610589D01*
X164046531Y-105686128D01*
X164048502Y-105742354D01*
X164050839Y-105782524D01*
X164053981Y-105809896D01*
X164058364Y-105827728D01*
X164064424Y-105839279D01*
X164072600Y-105847807D01*
X164076784Y-105851282D01*
X164113765Y-105870372D01*
X164148708Y-105867493D01*
X164179136Y-105843100D01*
X164186097Y-105833286D01*
X164191523Y-105821826D01*
X164195603Y-105805968D01*
X164198529Y-105782963D01*
X164200492Y-105750062D01*
X164201683Y-105704516D01*
X164202292Y-105643573D01*
X164202511Y-105564486D01*
X164202534Y-105505956D01*
X164202460Y-105414407D01*
X164202113Y-105342687D01*
X164201301Y-105288045D01*
X164199833Y-105247732D01*
X164197519Y-105218998D01*
X164194167Y-105199093D01*
X164189588Y-105185268D01*
X164183589Y-105174772D01*
X164179136Y-105168811D01*
X164167850Y-105154691D01*
X164157301Y-105144029D01*
X164145893Y-105137892D01*
X164132030Y-105137343D01*
X164114114Y-105143448D01*
G36*
X162583657Y-105139260D02*
G01*
X162507299Y-105140174D01*
X162448783Y-105142311D01*
X162405745Y-105146175D01*
X162375817Y-105152267D01*
X162356632Y-105161090D01*
X162345824Y-105173146D01*
X162341027Y-105188939D01*
X162339873Y-105208970D01*
X162339867Y-105211335D01*
X162340869Y-105233992D01*
X162345604Y-105251503D01*
X162356667Y-105264574D01*
X162376652Y-105273913D01*
X162408154Y-105280227D01*
X162453768Y-105284222D01*
X162516087Y-105286606D01*
X162597707Y-105288086D01*
X162622723Y-105288414D01*
X162864800Y-105291467D01*
X162868186Y-105356378D01*
X162871571Y-105421289D01*
X162703424Y-105421289D01*
X162637734Y-105421531D01*
X162590828Y-105422556D01*
X162558917Y-105424811D01*
X162538209Y-105428742D01*
X162524916Y-105434798D01*
X162515245Y-105443424D01*
X162515183Y-105443493D01*
X162497644Y-105477112D01*
X162498278Y-105513448D01*
X162516686Y-105544423D01*
X162520329Y-105547607D01*
X162533259Y-105555812D01*
X162550976Y-105561521D01*
X162577430Y-105565162D01*
X162616568Y-105567167D01*
X162672338Y-105567964D01*
X162708006Y-105568045D01*
X162870445Y-105568045D01*
X162870445Y-105726089D01*
X162623839Y-105726089D01*
X162542420Y-105726231D01*
X162480590Y-105726814D01*
X162435363Y-105728068D01*
X162403752Y-105730227D01*
X162382769Y-105733523D01*
X162369427Y-105738189D01*
X162360739Y-105744457D01*
X162358550Y-105746733D01*
X162342386Y-105778280D01*
X162341203Y-105814168D01*
X162354464Y-105845285D01*
X162364957Y-105855271D01*
X162375871Y-105860769D01*
X162392783Y-105865022D01*
X162418367Y-105868180D01*
X162455299Y-105870392D01*
X162506254Y-105871806D01*
X162573906Y-105872572D01*
X162660931Y-105872838D01*
X162680606Y-105872845D01*
X162769089Y-105872787D01*
X162837773Y-105872467D01*
X162889436Y-105871667D01*
X162926855Y-105870167D01*
X162952810Y-105867749D01*
X162970078Y-105864194D01*
X162981438Y-105859282D01*
X162989668Y-105852795D01*
X162994183Y-105848138D01*
X163000979Y-105839889D01*
X163006288Y-105829669D01*
X163010294Y-105814800D01*
X163013179Y-105792602D01*
X163015126Y-105760393D01*
X163016319Y-105715496D01*
X163016939Y-105655228D01*
X163017171Y-105576911D01*
X163017200Y-105510994D01*
X163017129Y-105418628D01*
X163016792Y-105346117D01*
X163016002Y-105290737D01*
X163014574Y-105249765D01*
X163012321Y-105220478D01*
X163009057Y-105200153D01*
X163004596Y-105186066D01*
X162998752Y-105175495D01*
X162993803Y-105168811D01*
X162970406Y-105139067D01*
X162680226Y-105139067D01*
X162583657Y-105139260D01*
X162583657Y-105139260D01*
G37*
X162583657Y-105139260D02*
X162507299Y-105140174D01*
X162448783Y-105142311D01*
X162405745Y-105146175D01*
X162375817Y-105152267D01*
X162356632Y-105161090D01*
X162345824Y-105173146D01*
X162341027Y-105188939D01*
X162339873Y-105208970D01*
X162339867Y-105211335D01*
X162340869Y-105233992D01*
X162345604Y-105251503D01*
X162356667Y-105264574D01*
X162376652Y-105273913D01*
X162408154Y-105280227D01*
X162453768Y-105284222D01*
X162516087Y-105286606D01*
X162597707Y-105288086D01*
X162622723Y-105288414D01*
X162864800Y-105291467D01*
X162868186Y-105356378D01*
X162871571Y-105421289D01*
X162703424Y-105421289D01*
X162637734Y-105421531D01*
X162590828Y-105422556D01*
X162558917Y-105424811D01*
X162538209Y-105428742D01*
X162524916Y-105434798D01*
X162515245Y-105443424D01*
X162515183Y-105443493D01*
X162497644Y-105477112D01*
X162498278Y-105513448D01*
X162516686Y-105544423D01*
X162520329Y-105547607D01*
X162533259Y-105555812D01*
X162550976Y-105561521D01*
X162577430Y-105565162D01*
X162616568Y-105567167D01*
X162672338Y-105567964D01*
X162708006Y-105568045D01*
X162870445Y-105568045D01*
X162870445Y-105726089D01*
X162623839Y-105726089D01*
X162542420Y-105726231D01*
X162480590Y-105726814D01*
X162435363Y-105728068D01*
X162403752Y-105730227D01*
X162382769Y-105733523D01*
X162369427Y-105738189D01*
X162360739Y-105744457D01*
X162358550Y-105746733D01*
X162342386Y-105778280D01*
X162341203Y-105814168D01*
X162354464Y-105845285D01*
X162364957Y-105855271D01*
X162375871Y-105860769D01*
X162392783Y-105865022D01*
X162418367Y-105868180D01*
X162455299Y-105870392D01*
X162506254Y-105871806D01*
X162573906Y-105872572D01*
X162660931Y-105872838D01*
X162680606Y-105872845D01*
X162769089Y-105872787D01*
X162837773Y-105872467D01*
X162889436Y-105871667D01*
X162926855Y-105870167D01*
X162952810Y-105867749D01*
X162970078Y-105864194D01*
X162981438Y-105859282D01*
X162989668Y-105852795D01*
X162994183Y-105848138D01*
X163000979Y-105839889D01*
X163006288Y-105829669D01*
X163010294Y-105814800D01*
X163013179Y-105792602D01*
X163015126Y-105760393D01*
X163016319Y-105715496D01*
X163016939Y-105655228D01*
X163017171Y-105576911D01*
X163017200Y-105510994D01*
X163017129Y-105418628D01*
X163016792Y-105346117D01*
X163016002Y-105290737D01*
X163014574Y-105249765D01*
X163012321Y-105220478D01*
X163009057Y-105200153D01*
X163004596Y-105186066D01*
X162998752Y-105175495D01*
X162993803Y-105168811D01*
X162970406Y-105139067D01*
X162680226Y-105139067D01*
X162583657Y-105139260D01*
G36*
X161795691Y-105139275D02*
G01*
X161666712Y-105143636D01*
X161557009Y-105156861D01*
X161464774Y-105179741D01*
X161388198Y-105213070D01*
X161325473Y-105257638D01*
X161274788Y-105314236D01*
X161234337Y-105383658D01*
X161233541Y-105385351D01*
X161209399Y-105447483D01*
X161200797Y-105502509D01*
X161207769Y-105557887D01*
X161230346Y-105621073D01*
X161234628Y-105630689D01*
X161263828Y-105686966D01*
X161296644Y-105730451D01*
X161338998Y-105767417D01*
X161396810Y-105804135D01*
X161400169Y-105806052D01*
X161450496Y-105830227D01*
X161507379Y-105848282D01*
X161574473Y-105860839D01*
X161655435Y-105868522D01*
X161753918Y-105871953D01*
X161788714Y-105872251D01*
X161954406Y-105872845D01*
X161977803Y-105843100D01*
X161984743Y-105833319D01*
X161990158Y-105821897D01*
X161994235Y-105806095D01*
X161997163Y-105783175D01*
X161999133Y-105750396D01*
X161999775Y-105726089D01*
X161843156Y-105726089D01*
X161749274Y-105726089D01*
X161694336Y-105724483D01*
X161637940Y-105720255D01*
X161591655Y-105714292D01*
X161588861Y-105713790D01*
X161506652Y-105691736D01*
X161442886Y-105658600D01*
X161395548Y-105612847D01*
X161362618Y-105552939D01*
X161356892Y-105537061D01*
X161351279Y-105512333D01*
X161353709Y-105487902D01*
X161365533Y-105455400D01*
X161372660Y-105439434D01*
X161396000Y-105397006D01*
X161424120Y-105367240D01*
X161455060Y-105346511D01*
X161517034Y-105319537D01*
X161596349Y-105299998D01*
X161688747Y-105288746D01*
X161755667Y-105286270D01*
X161843156Y-105285822D01*
X161843156Y-105726089D01*
X161999775Y-105726089D01*
X162000332Y-105705021D01*
X162000950Y-105644311D01*
X162001175Y-105565526D01*
X162001200Y-105503920D01*
X162001200Y-105194485D01*
X161973491Y-105166776D01*
X161961194Y-105155544D01*
X161947897Y-105147853D01*
X161929328Y-105143040D01*
X161901214Y-105140446D01*
X161859283Y-105139410D01*
X161799263Y-105139270D01*
X161795691Y-105139275D01*
X161795691Y-105139275D01*
G37*
X161795691Y-105139275D02*
X161666712Y-105143636D01*
X161557009Y-105156861D01*
X161464774Y-105179741D01*
X161388198Y-105213070D01*
X161325473Y-105257638D01*
X161274788Y-105314236D01*
X161234337Y-105383658D01*
X161233541Y-105385351D01*
X161209399Y-105447483D01*
X161200797Y-105502509D01*
X161207769Y-105557887D01*
X161230346Y-105621073D01*
X161234628Y-105630689D01*
X161263828Y-105686966D01*
X161296644Y-105730451D01*
X161338998Y-105767417D01*
X161396810Y-105804135D01*
X161400169Y-105806052D01*
X161450496Y-105830227D01*
X161507379Y-105848282D01*
X161574473Y-105860839D01*
X161655435Y-105868522D01*
X161753918Y-105871953D01*
X161788714Y-105872251D01*
X161954406Y-105872845D01*
X161977803Y-105843100D01*
X161984743Y-105833319D01*
X161990158Y-105821897D01*
X161994235Y-105806095D01*
X161997163Y-105783175D01*
X161999133Y-105750396D01*
X161999775Y-105726089D01*
X161843156Y-105726089D01*
X161749274Y-105726089D01*
X161694336Y-105724483D01*
X161637940Y-105720255D01*
X161591655Y-105714292D01*
X161588861Y-105713790D01*
X161506652Y-105691736D01*
X161442886Y-105658600D01*
X161395548Y-105612847D01*
X161362618Y-105552939D01*
X161356892Y-105537061D01*
X161351279Y-105512333D01*
X161353709Y-105487902D01*
X161365533Y-105455400D01*
X161372660Y-105439434D01*
X161396000Y-105397006D01*
X161424120Y-105367240D01*
X161455060Y-105346511D01*
X161517034Y-105319537D01*
X161596349Y-105299998D01*
X161688747Y-105288746D01*
X161755667Y-105286270D01*
X161843156Y-105285822D01*
X161843156Y-105726089D01*
X161999775Y-105726089D01*
X162000332Y-105705021D01*
X162000950Y-105644311D01*
X162001175Y-105565526D01*
X162001200Y-105503920D01*
X162001200Y-105194485D01*
X161973491Y-105166776D01*
X161961194Y-105155544D01*
X161947897Y-105147853D01*
X161929328Y-105143040D01*
X161901214Y-105140446D01*
X161859283Y-105139410D01*
X161799263Y-105139270D01*
X161795691Y-105139275D01*
G36*
X159069335Y-105141034D02*
G01*
X159049745Y-105148035D01*
X159048990Y-105148377D01*
X159022387Y-105168678D01*
X159007730Y-105189561D01*
X159004862Y-105199352D01*
X159005004Y-105212361D01*
X159009039Y-105230895D01*
X159017854Y-105257257D01*
X159032331Y-105293752D01*
X159053355Y-105342687D01*
X159081812Y-105406365D01*
X159118585Y-105487093D01*
X159138825Y-105531216D01*
X159175375Y-105609985D01*
X159209685Y-105682423D01*
X159240448Y-105745880D01*
X159266352Y-105797708D01*
X159286090Y-105835259D01*
X159298350Y-105855884D01*
X159300776Y-105858733D01*
X159331817Y-105871302D01*
X159366879Y-105869619D01*
X159395000Y-105854332D01*
X159396146Y-105853089D01*
X159407332Y-105836154D01*
X159426096Y-105803170D01*
X159450125Y-105758380D01*
X159477103Y-105706032D01*
X159486799Y-105686742D01*
X159559986Y-105540150D01*
X159639760Y-105699393D01*
X159668233Y-105754415D01*
X159694650Y-105802132D01*
X159716852Y-105838893D01*
X159732681Y-105861044D01*
X159738046Y-105865741D01*
X159779743Y-105872102D01*
X159814151Y-105858733D01*
X159824272Y-105844446D01*
X159841786Y-105812692D01*
X159865265Y-105766597D01*
X159893280Y-105709285D01*
X159924401Y-105643880D01*
X159957201Y-105573507D01*
X159990250Y-105501291D01*
X160022119Y-105430355D01*
X160051381Y-105363825D01*
X160076605Y-105304826D01*
X160096364Y-105256481D01*
X160109228Y-105221915D01*
X160113769Y-105204253D01*
X160113723Y-105203613D01*
X160102674Y-105181388D01*
X160080590Y-105158753D01*
X160079290Y-105157768D01*
X160052147Y-105142425D01*
X160027042Y-105142574D01*
X160017632Y-105145466D01*
X160006166Y-105151718D01*
X159993990Y-105164014D01*
X159979643Y-105184908D01*
X159961664Y-105216949D01*
X159938593Y-105262688D01*
X159908970Y-105324677D01*
X159882255Y-105381898D01*
X159851520Y-105448226D01*
X159823979Y-105507874D01*
X159801062Y-105557725D01*
X159784202Y-105594664D01*
X159774827Y-105615573D01*
X159773460Y-105618845D01*
X159767311Y-105613497D01*
X159753178Y-105591109D01*
X159732943Y-105554946D01*
X159708485Y-105508277D01*
X159698752Y-105489022D01*
X159665783Y-105424004D01*
X159640357Y-105376654D01*
X159620388Y-105344219D01*
X159603790Y-105323946D01*
X159588476Y-105313082D01*
X159572360Y-105308875D01*
X159561857Y-105308400D01*
X159543330Y-105310042D01*
X159527096Y-105316831D01*
X159510965Y-105331566D01*
X159492749Y-105357044D01*
X159470261Y-105396061D01*
X159441311Y-105451414D01*
X159425338Y-105482903D01*
X159399430Y-105533087D01*
X159376833Y-105574704D01*
X159359542Y-105604242D01*
X159349550Y-105618189D01*
X159348191Y-105618770D01*
X159341739Y-105607793D01*
X159327292Y-105579290D01*
X159306297Y-105536244D01*
X159280203Y-105481638D01*
X159250454Y-105418454D01*
X159235820Y-105387071D01*
X159197750Y-105306078D01*
X159167095Y-105243756D01*
X159142263Y-105198071D01*
X159121663Y-105166989D01*
X159103702Y-105148478D01*
X159086790Y-105140504D01*
X159069335Y-105141034D01*
X159069335Y-105141034D01*
G37*
X159069335Y-105141034D02*
X159049745Y-105148035D01*
X159048990Y-105148377D01*
X159022387Y-105168678D01*
X159007730Y-105189561D01*
X159004862Y-105199352D01*
X159005004Y-105212361D01*
X159009039Y-105230895D01*
X159017854Y-105257257D01*
X159032331Y-105293752D01*
X159053355Y-105342687D01*
X159081812Y-105406365D01*
X159118585Y-105487093D01*
X159138825Y-105531216D01*
X159175375Y-105609985D01*
X159209685Y-105682423D01*
X159240448Y-105745880D01*
X159266352Y-105797708D01*
X159286090Y-105835259D01*
X159298350Y-105855884D01*
X159300776Y-105858733D01*
X159331817Y-105871302D01*
X159366879Y-105869619D01*
X159395000Y-105854332D01*
X159396146Y-105853089D01*
X159407332Y-105836154D01*
X159426096Y-105803170D01*
X159450125Y-105758380D01*
X159477103Y-105706032D01*
X159486799Y-105686742D01*
X159559986Y-105540150D01*
X159639760Y-105699393D01*
X159668233Y-105754415D01*
X159694650Y-105802132D01*
X159716852Y-105838893D01*
X159732681Y-105861044D01*
X159738046Y-105865741D01*
X159779743Y-105872102D01*
X159814151Y-105858733D01*
X159824272Y-105844446D01*
X159841786Y-105812692D01*
X159865265Y-105766597D01*
X159893280Y-105709285D01*
X159924401Y-105643880D01*
X159957201Y-105573507D01*
X159990250Y-105501291D01*
X160022119Y-105430355D01*
X160051381Y-105363825D01*
X160076605Y-105304826D01*
X160096364Y-105256481D01*
X160109228Y-105221915D01*
X160113769Y-105204253D01*
X160113723Y-105203613D01*
X160102674Y-105181388D01*
X160080590Y-105158753D01*
X160079290Y-105157768D01*
X160052147Y-105142425D01*
X160027042Y-105142574D01*
X160017632Y-105145466D01*
X160006166Y-105151718D01*
X159993990Y-105164014D01*
X159979643Y-105184908D01*
X159961664Y-105216949D01*
X159938593Y-105262688D01*
X159908970Y-105324677D01*
X159882255Y-105381898D01*
X159851520Y-105448226D01*
X159823979Y-105507874D01*
X159801062Y-105557725D01*
X159784202Y-105594664D01*
X159774827Y-105615573D01*
X159773460Y-105618845D01*
X159767311Y-105613497D01*
X159753178Y-105591109D01*
X159732943Y-105554946D01*
X159708485Y-105508277D01*
X159698752Y-105489022D01*
X159665783Y-105424004D01*
X159640357Y-105376654D01*
X159620388Y-105344219D01*
X159603790Y-105323946D01*
X159588476Y-105313082D01*
X159572360Y-105308875D01*
X159561857Y-105308400D01*
X159543330Y-105310042D01*
X159527096Y-105316831D01*
X159510965Y-105331566D01*
X159492749Y-105357044D01*
X159470261Y-105396061D01*
X159441311Y-105451414D01*
X159425338Y-105482903D01*
X159399430Y-105533087D01*
X159376833Y-105574704D01*
X159359542Y-105604242D01*
X159349550Y-105618189D01*
X159348191Y-105618770D01*
X159341739Y-105607793D01*
X159327292Y-105579290D01*
X159306297Y-105536244D01*
X159280203Y-105481638D01*
X159250454Y-105418454D01*
X159235820Y-105387071D01*
X159197750Y-105306078D01*
X159167095Y-105243756D01*
X159142263Y-105198071D01*
X159121663Y-105166989D01*
X159103702Y-105148478D01*
X159086790Y-105140504D01*
X159069335Y-105141034D01*
G36*
X158625386Y-105145877D02*
G01*
X158601673Y-105160647D01*
X158575022Y-105182227D01*
X158575022Y-105503773D01*
X158575107Y-105597830D01*
X158575471Y-105671932D01*
X158576276Y-105728704D01*
X158577687Y-105770768D01*
X158579867Y-105800748D01*
X158582979Y-105821267D01*
X158587186Y-105834949D01*
X158592652Y-105844416D01*
X158596528Y-105849082D01*
X158627966Y-105869575D01*
X158663767Y-105868739D01*
X158695127Y-105851264D01*
X158721778Y-105829684D01*
X158721778Y-105182227D01*
X158695127Y-105160647D01*
X158669406Y-105144949D01*
X158648400Y-105139067D01*
X158625386Y-105145877D01*
X158625386Y-105145877D01*
G37*
X158625386Y-105145877D02*
X158601673Y-105160647D01*
X158575022Y-105182227D01*
X158575022Y-105503773D01*
X158575107Y-105597830D01*
X158575471Y-105671932D01*
X158576276Y-105728704D01*
X158577687Y-105770768D01*
X158579867Y-105800748D01*
X158582979Y-105821267D01*
X158587186Y-105834949D01*
X158592652Y-105844416D01*
X158596528Y-105849082D01*
X158627966Y-105869575D01*
X158663767Y-105868739D01*
X158695127Y-105851264D01*
X158721778Y-105829684D01*
X158721778Y-105182227D01*
X158695127Y-105160647D01*
X158669406Y-105144949D01*
X158648400Y-105139067D01*
X158625386Y-105145877D01*
G36*
X157850935Y-105139163D02*
G01*
X157772228Y-105139542D01*
X157711137Y-105140333D01*
X157665183Y-105141670D01*
X157631886Y-105143683D01*
X157608764Y-105146506D01*
X157593338Y-105150269D01*
X157583129Y-105155105D01*
X157578187Y-105158822D01*
X157552543Y-105191358D01*
X157549441Y-105225138D01*
X157565289Y-105255826D01*
X157575652Y-105268089D01*
X157586804Y-105276450D01*
X157602965Y-105281657D01*
X157628358Y-105284457D01*
X157667202Y-105285596D01*
X157723720Y-105285821D01*
X157734820Y-105285822D01*
X157880756Y-105285822D01*
X157880756Y-105556756D01*
X157880852Y-105642154D01*
X157881289Y-105707864D01*
X157882288Y-105756774D01*
X157884072Y-105791773D01*
X157886863Y-105815749D01*
X157890883Y-105831593D01*
X157896355Y-105842191D01*
X157903334Y-105850267D01*
X157936266Y-105870112D01*
X157970646Y-105868548D01*
X158001824Y-105845906D01*
X158004114Y-105843100D01*
X158011571Y-105832492D01*
X158017253Y-105820081D01*
X158021399Y-105802850D01*
X158024250Y-105777784D01*
X158026046Y-105741867D01*
X158027028Y-105692083D01*
X158027436Y-105625417D01*
X158027511Y-105549589D01*
X158027511Y-105285822D01*
X158166873Y-105285822D01*
X158226678Y-105285418D01*
X158268082Y-105283840D01*
X158295252Y-105280547D01*
X158312354Y-105274992D01*
X158323557Y-105266631D01*
X158324917Y-105265178D01*
X158341275Y-105231939D01*
X158339828Y-105194362D01*
X158321022Y-105161645D01*
X158313750Y-105155298D01*
X158304373Y-105150266D01*
X158290391Y-105146396D01*
X158269304Y-105143537D01*
X158238611Y-105141535D01*
X158195811Y-105140239D01*
X158138405Y-105139498D01*
X158063890Y-105139158D01*
X157969767Y-105139068D01*
X157949740Y-105139067D01*
X157850935Y-105139163D01*
X157850935Y-105139163D01*
G37*
X157850935Y-105139163D02*
X157772228Y-105139542D01*
X157711137Y-105140333D01*
X157665183Y-105141670D01*
X157631886Y-105143683D01*
X157608764Y-105146506D01*
X157593338Y-105150269D01*
X157583129Y-105155105D01*
X157578187Y-105158822D01*
X157552543Y-105191358D01*
X157549441Y-105225138D01*
X157565289Y-105255826D01*
X157575652Y-105268089D01*
X157586804Y-105276450D01*
X157602965Y-105281657D01*
X157628358Y-105284457D01*
X157667202Y-105285596D01*
X157723720Y-105285821D01*
X157734820Y-105285822D01*
X157880756Y-105285822D01*
X157880756Y-105556756D01*
X157880852Y-105642154D01*
X157881289Y-105707864D01*
X157882288Y-105756774D01*
X157884072Y-105791773D01*
X157886863Y-105815749D01*
X157890883Y-105831593D01*
X157896355Y-105842191D01*
X157903334Y-105850267D01*
X157936266Y-105870112D01*
X157970646Y-105868548D01*
X158001824Y-105845906D01*
X158004114Y-105843100D01*
X158011571Y-105832492D01*
X158017253Y-105820081D01*
X158021399Y-105802850D01*
X158024250Y-105777784D01*
X158026046Y-105741867D01*
X158027028Y-105692083D01*
X158027436Y-105625417D01*
X158027511Y-105549589D01*
X158027511Y-105285822D01*
X158166873Y-105285822D01*
X158226678Y-105285418D01*
X158268082Y-105283840D01*
X158295252Y-105280547D01*
X158312354Y-105274992D01*
X158323557Y-105266631D01*
X158324917Y-105265178D01*
X158341275Y-105231939D01*
X158339828Y-105194362D01*
X158321022Y-105161645D01*
X158313750Y-105155298D01*
X158304373Y-105150266D01*
X158290391Y-105146396D01*
X158269304Y-105143537D01*
X158238611Y-105141535D01*
X158195811Y-105140239D01*
X158138405Y-105139498D01*
X158063890Y-105139158D01*
X157969767Y-105139068D01*
X157949740Y-105139067D01*
X157850935Y-105139163D01*
G36*
X156585177Y-105144533D02*
G01*
X156553798Y-105166776D01*
X156526089Y-105194485D01*
X156526089Y-105503920D01*
X156526162Y-105595799D01*
X156526505Y-105667840D01*
X156527308Y-105722780D01*
X156528759Y-105763360D01*
X156531048Y-105792317D01*
X156534364Y-105812391D01*
X156538895Y-105826321D01*
X156544831Y-105836845D01*
X156549486Y-105843100D01*
X156580217Y-105867673D01*
X156615504Y-105870341D01*
X156647755Y-105855271D01*
X156658412Y-105846374D01*
X156665536Y-105834557D01*
X156669833Y-105815526D01*
X156672009Y-105784992D01*
X156672772Y-105738662D01*
X156672845Y-105702871D01*
X156672845Y-105568045D01*
X157169556Y-105568045D01*
X157169556Y-105690700D01*
X157170069Y-105746787D01*
X157172124Y-105785333D01*
X157176492Y-105811361D01*
X157183944Y-105829897D01*
X157192953Y-105843100D01*
X157223856Y-105867604D01*
X157258804Y-105870506D01*
X157292262Y-105853089D01*
X157301396Y-105843959D01*
X157307848Y-105831855D01*
X157312103Y-105813001D01*
X157314648Y-105783620D01*
X157315971Y-105739937D01*
X157316557Y-105678175D01*
X157316625Y-105664000D01*
X157317109Y-105547631D01*
X157317359Y-105451727D01*
X157317277Y-105374177D01*
X157316769Y-105312869D01*
X157315738Y-105265690D01*
X157314087Y-105230530D01*
X157311721Y-105205276D01*
X157308543Y-105187817D01*
X157304456Y-105176041D01*
X157299366Y-105167835D01*
X157293734Y-105161645D01*
X157261872Y-105141844D01*
X157228643Y-105144533D01*
X157197265Y-105166776D01*
X157184567Y-105181126D01*
X157176474Y-105196978D01*
X157171958Y-105219554D01*
X157169994Y-105254078D01*
X157169556Y-105305776D01*
X157169556Y-105421289D01*
X156672845Y-105421289D01*
X156672845Y-105302756D01*
X156672338Y-105248148D01*
X156670302Y-105211275D01*
X156665965Y-105187307D01*
X156658553Y-105171415D01*
X156650267Y-105161645D01*
X156618406Y-105141844D01*
X156585177Y-105144533D01*
X156585177Y-105144533D01*
G37*
X156585177Y-105144533D02*
X156553798Y-105166776D01*
X156526089Y-105194485D01*
X156526089Y-105503920D01*
X156526162Y-105595799D01*
X156526505Y-105667840D01*
X156527308Y-105722780D01*
X156528759Y-105763360D01*
X156531048Y-105792317D01*
X156534364Y-105812391D01*
X156538895Y-105826321D01*
X156544831Y-105836845D01*
X156549486Y-105843100D01*
X156580217Y-105867673D01*
X156615504Y-105870341D01*
X156647755Y-105855271D01*
X156658412Y-105846374D01*
X156665536Y-105834557D01*
X156669833Y-105815526D01*
X156672009Y-105784992D01*
X156672772Y-105738662D01*
X156672845Y-105702871D01*
X156672845Y-105568045D01*
X157169556Y-105568045D01*
X157169556Y-105690700D01*
X157170069Y-105746787D01*
X157172124Y-105785333D01*
X157176492Y-105811361D01*
X157183944Y-105829897D01*
X157192953Y-105843100D01*
X157223856Y-105867604D01*
X157258804Y-105870506D01*
X157292262Y-105853089D01*
X157301396Y-105843959D01*
X157307848Y-105831855D01*
X157312103Y-105813001D01*
X157314648Y-105783620D01*
X157315971Y-105739937D01*
X157316557Y-105678175D01*
X157316625Y-105664000D01*
X157317109Y-105547631D01*
X157317359Y-105451727D01*
X157317277Y-105374177D01*
X157316769Y-105312869D01*
X157315738Y-105265690D01*
X157314087Y-105230530D01*
X157311721Y-105205276D01*
X157308543Y-105187817D01*
X157304456Y-105176041D01*
X157299366Y-105167835D01*
X157293734Y-105161645D01*
X157261872Y-105141844D01*
X157228643Y-105144533D01*
X157197265Y-105166776D01*
X157184567Y-105181126D01*
X157176474Y-105196978D01*
X157171958Y-105219554D01*
X157169994Y-105254078D01*
X157169556Y-105305776D01*
X157169556Y-105421289D01*
X156672845Y-105421289D01*
X156672845Y-105302756D01*
X156672338Y-105248148D01*
X156670302Y-105211275D01*
X156665965Y-105187307D01*
X156658553Y-105171415D01*
X156650267Y-105161645D01*
X156618406Y-105141844D01*
X156585177Y-105144533D01*
G36*
X165760400Y-100359054D02*
G01*
X165749535Y-100472993D01*
X165717918Y-100580616D01*
X165667015Y-100679615D01*
X165598293Y-100767684D01*
X165513219Y-100842516D01*
X165416232Y-100900384D01*
X165309964Y-100940005D01*
X165202950Y-100958573D01*
X165097300Y-100957434D01*
X164995125Y-100937930D01*
X164898534Y-100901406D01*
X164809638Y-100849205D01*
X164730546Y-100782673D01*
X164663369Y-100703152D01*
X164610217Y-100611987D01*
X164573199Y-100510523D01*
X164554427Y-100400102D01*
X164552489Y-100350206D01*
X164552489Y-100262267D01*
X164500560Y-100262267D01*
X164464253Y-100265111D01*
X164437355Y-100276911D01*
X164410249Y-100300649D01*
X164371867Y-100339031D01*
X164371867Y-102530602D01*
X164371876Y-102792739D01*
X164371908Y-103033241D01*
X164371972Y-103253048D01*
X164372076Y-103453101D01*
X164372227Y-103634344D01*
X164372434Y-103797716D01*
X164372706Y-103944160D01*
X164373050Y-104074617D01*
X164373474Y-104190029D01*
X164373987Y-104291338D01*
X164374597Y-104379484D01*
X164375312Y-104455410D01*
X164376140Y-104520057D01*
X164377089Y-104574367D01*
X164378167Y-104619280D01*
X164379383Y-104655740D01*
X164380745Y-104684687D01*
X164382261Y-104707063D01*
X164383938Y-104723809D01*
X164385786Y-104735868D01*
X164387813Y-104744180D01*
X164390025Y-104749687D01*
X164391108Y-104751537D01*
X164395271Y-104758549D01*
X164398805Y-104764996D01*
X164402635Y-104770900D01*
X164407682Y-104776286D01*
X164414871Y-104781178D01*
X164425123Y-104785598D01*
X164439364Y-104789572D01*
X164458514Y-104793121D01*
X164483499Y-104796270D01*
X164515240Y-104799042D01*
X164554662Y-104801461D01*
X164602686Y-104803551D01*
X164660237Y-104805335D01*
X164728237Y-104806837D01*
X164807610Y-104808080D01*
X164899279Y-104809089D01*
X165004166Y-104809885D01*
X165123196Y-104810494D01*
X165257290Y-104810939D01*
X165407373Y-104811243D01*
X165574367Y-104811430D01*
X165759196Y-104811524D01*
X165962783Y-104811548D01*
X166186050Y-104811525D01*
X166429922Y-104811480D01*
X166695321Y-104811437D01*
X166733704Y-104811432D01*
X167000682Y-104811389D01*
X167246002Y-104811318D01*
X167470583Y-104811213D01*
X167675345Y-104811066D01*
X167861206Y-104810869D01*
X168029088Y-104810616D01*
X168179908Y-104810300D01*
X168314587Y-104809913D01*
X168434044Y-104809447D01*
X168539199Y-104808897D01*
X168630971Y-104808253D01*
X168710279Y-104807511D01*
X168778043Y-104806661D01*
X168835182Y-104805697D01*
X168882617Y-104804611D01*
X168921266Y-104803397D01*
X168952049Y-104802047D01*
X168975885Y-104800555D01*
X168993694Y-104798911D01*
X169006395Y-104797111D01*
X169014908Y-104795145D01*
X169019266Y-104793477D01*
X169027728Y-104789906D01*
X169035497Y-104787270D01*
X169042602Y-104784634D01*
X169049073Y-104781062D01*
X169054939Y-104775621D01*
X169060229Y-104767375D01*
X169064974Y-104755390D01*
X169069202Y-104738731D01*
X169072943Y-104716463D01*
X169076227Y-104687652D01*
X169079083Y-104651363D01*
X169081540Y-104606661D01*
X169083629Y-104552611D01*
X169085378Y-104488279D01*
X169086817Y-104412730D01*
X169087976Y-104325030D01*
X169088883Y-104224243D01*
X169089569Y-104109434D01*
X169090063Y-103979670D01*
X169090395Y-103834015D01*
X169090593Y-103671535D01*
X169090687Y-103491295D01*
X169090708Y-103292360D01*
X169090685Y-103073796D01*
X169090646Y-102834668D01*
X169090622Y-102574040D01*
X169090622Y-102531889D01*
X169090636Y-102268992D01*
X169090661Y-102027732D01*
X169090671Y-101807165D01*
X169090642Y-101606352D01*
X169090548Y-101424349D01*
X169090362Y-101260216D01*
X169090059Y-101113011D01*
X169089614Y-100981792D01*
X169089034Y-100871867D01*
X168786197Y-100871867D01*
X168746407Y-100929711D01*
X168735236Y-100945479D01*
X168725166Y-100959441D01*
X168716138Y-100972784D01*
X168708097Y-100986693D01*
X168700986Y-101002356D01*
X168694747Y-101020958D01*
X168689325Y-101043686D01*
X168684662Y-101071727D01*
X168680701Y-101106267D01*
X168677385Y-101148492D01*
X168674659Y-101199589D01*
X168672464Y-101260744D01*
X168670745Y-101333144D01*
X168669444Y-101417975D01*
X168668505Y-101516422D01*
X168667870Y-101629674D01*
X168667484Y-101758916D01*
X168667288Y-101905334D01*
X168667227Y-102070116D01*
X168667243Y-102254447D01*
X168667280Y-102459513D01*
X168667289Y-102582133D01*
X168667265Y-102799082D01*
X168667231Y-102994642D01*
X168667243Y-103169999D01*
X168667358Y-103326341D01*
X168667630Y-103464857D01*
X168668118Y-103586734D01*
X168668876Y-103693160D01*
X168669962Y-103785322D01*
X168671431Y-103864409D01*
X168673340Y-103931608D01*
X168675744Y-103988107D01*
X168678701Y-104035093D01*
X168682266Y-104073755D01*
X168686495Y-104105280D01*
X168691446Y-104130855D01*
X168697173Y-104151670D01*
X168703733Y-104168911D01*
X168711183Y-104183765D01*
X168719579Y-104197422D01*
X168728976Y-104211069D01*
X168739432Y-104225893D01*
X168745523Y-104234783D01*
X168784296Y-104292400D01*
X168252732Y-104292400D01*
X168129483Y-104292365D01*
X168026987Y-104292215D01*
X167943420Y-104291878D01*
X167876956Y-104291286D01*
X167825771Y-104290367D01*
X167788041Y-104289051D01*
X167761940Y-104287269D01*
X167745644Y-104284951D01*
X167737328Y-104282026D01*
X167735168Y-104278424D01*
X167737339Y-104274075D01*
X167738535Y-104272645D01*
X167763685Y-104235573D01*
X167789583Y-104182772D01*
X167813192Y-104120770D01*
X167821461Y-104094357D01*
X167826078Y-104076416D01*
X167829979Y-104055355D01*
X167833248Y-104029089D01*
X167835966Y-103995532D01*
X167838215Y-103952599D01*
X167840077Y-103898204D01*
X167841636Y-103830262D01*
X167842972Y-103746688D01*
X167844169Y-103645395D01*
X167845308Y-103524300D01*
X167845685Y-103479600D01*
X167846702Y-103354449D01*
X167847460Y-103250082D01*
X167847903Y-103164707D01*
X167847970Y-103096533D01*
X167847605Y-103043765D01*
X167846748Y-103004614D01*
X167845341Y-102977285D01*
X167843325Y-102959986D01*
X167840643Y-102950926D01*
X167837236Y-102948312D01*
X167833044Y-102950351D01*
X167828571Y-102954667D01*
X167818216Y-102967602D01*
X167796158Y-102996676D01*
X167763957Y-103039759D01*
X167723174Y-103094718D01*
X167675370Y-103159423D01*
X167622105Y-103231742D01*
X167564940Y-103309544D01*
X167505437Y-103390698D01*
X167445155Y-103473072D01*
X167385655Y-103554536D01*
X167328498Y-103632957D01*
X167275245Y-103706204D01*
X167227457Y-103772147D01*
X167186693Y-103828654D01*
X167154516Y-103873593D01*
X167132485Y-103904834D01*
X167127917Y-103911466D01*
X167104996Y-103948369D01*
X167078188Y-103996359D01*
X167052789Y-104045897D01*
X167049568Y-104052577D01*
X167027890Y-104100772D01*
X167015304Y-104138334D01*
X167009574Y-104174160D01*
X167008456Y-104216200D01*
X167009090Y-104292400D01*
X165854651Y-104292400D01*
X165945815Y-104198669D01*
X165992612Y-104148775D01*
X166042899Y-104092295D01*
X166088944Y-104038026D01*
X166109369Y-104012673D01*
X166139807Y-103973128D01*
X166179862Y-103919916D01*
X166228361Y-103854667D01*
X166284135Y-103779011D01*
X166346011Y-103694577D01*
X166412819Y-103602994D01*
X166483387Y-103505892D01*
X166556545Y-103404901D01*
X166631121Y-103301650D01*
X166705944Y-103197768D01*
X166779843Y-103094885D01*
X166851646Y-102994631D01*
X166920184Y-102898636D01*
X166984284Y-102808527D01*
X167042775Y-102725936D01*
X167094486Y-102652492D01*
X167138247Y-102589824D01*
X167172885Y-102539561D01*
X167197230Y-102503334D01*
X167210111Y-102482771D01*
X167211869Y-102478668D01*
X167203910Y-102467342D01*
X167183115Y-102440162D01*
X167150847Y-102398829D01*
X167108470Y-102345044D01*
X167057347Y-102280506D01*
X166998841Y-102206918D01*
X166934314Y-102125978D01*
X166865131Y-102039388D01*
X166792653Y-101948848D01*
X166718246Y-101856060D01*
X166658517Y-101781702D01*
X165647511Y-101781702D01*
X165641602Y-101794659D01*
X165627272Y-101816908D01*
X165626225Y-101818391D01*
X165607438Y-101848544D01*
X165587791Y-101885375D01*
X165583892Y-101893511D01*
X165580356Y-101901940D01*
X165577230Y-101912059D01*
X165574486Y-101925260D01*
X165572092Y-101942938D01*
X165570019Y-101966484D01*
X165568235Y-101997293D01*
X165566712Y-102036757D01*
X165565419Y-102086269D01*
X165564326Y-102147223D01*
X165563403Y-102221011D01*
X165562619Y-102309028D01*
X165561945Y-102412665D01*
X165561350Y-102533316D01*
X165560805Y-102672374D01*
X165560279Y-102831232D01*
X165559745Y-103010089D01*
X165559206Y-103195207D01*
X165558772Y-103359145D01*
X165558509Y-103503303D01*
X165558484Y-103629079D01*
X165558765Y-103737871D01*
X165559419Y-103831077D01*
X165560514Y-103910097D01*
X165562118Y-103976328D01*
X165564297Y-104031170D01*
X165567119Y-104076021D01*
X165570651Y-104112278D01*
X165574961Y-104141341D01*
X165580117Y-104164609D01*
X165586185Y-104183479D01*
X165593233Y-104199351D01*
X165601329Y-104213622D01*
X165610540Y-104227691D01*
X165619040Y-104240158D01*
X165636176Y-104266452D01*
X165646322Y-104284037D01*
X165647511Y-104287257D01*
X165636604Y-104288334D01*
X165605411Y-104289335D01*
X165556223Y-104290235D01*
X165491333Y-104291010D01*
X165413030Y-104291637D01*
X165323607Y-104292091D01*
X165225356Y-104292349D01*
X165156445Y-104292400D01*
X165051452Y-104292180D01*
X164954610Y-104291548D01*
X164868107Y-104290549D01*
X164794132Y-104289227D01*
X164734874Y-104287626D01*
X164692520Y-104285791D01*
X164669260Y-104283765D01*
X164665378Y-104282493D01*
X164673076Y-104267591D01*
X164681074Y-104259560D01*
X164694246Y-104242434D01*
X164711485Y-104212183D01*
X164723407Y-104187622D01*
X164750045Y-104128711D01*
X164753120Y-102951845D01*
X164756195Y-101774978D01*
X165201853Y-101774978D01*
X165299670Y-101775142D01*
X165390064Y-101775611D01*
X165470630Y-101776347D01*
X165538962Y-101777316D01*
X165592656Y-101778480D01*
X165629305Y-101779803D01*
X165646504Y-101781249D01*
X165647511Y-101781702D01*
X166658517Y-101781702D01*
X166643270Y-101762722D01*
X166569090Y-101670537D01*
X166497069Y-101581204D01*
X166428569Y-101496424D01*
X166364955Y-101417898D01*
X166307588Y-101347326D01*
X166257833Y-101286409D01*
X166217052Y-101236847D01*
X166199888Y-101216178D01*
X166113596Y-101115516D01*
X166036997Y-101032259D01*
X165968183Y-100964438D01*
X165905248Y-100910089D01*
X165895867Y-100902722D01*
X165856356Y-100872117D01*
X166988116Y-100871867D01*
X166982827Y-100919844D01*
X166986130Y-100977188D01*
X167007661Y-101045463D01*
X167047635Y-101125212D01*
X167092943Y-101197495D01*
X167109161Y-101220140D01*
X167137214Y-101257696D01*
X167175430Y-101308021D01*
X167222137Y-101368973D01*
X167275661Y-101438411D01*
X167334331Y-101514194D01*
X167396475Y-101594180D01*
X167460421Y-101676228D01*
X167524495Y-101758196D01*
X167587027Y-101837943D01*
X167646343Y-101913327D01*
X167700771Y-101982207D01*
X167748639Y-102042442D01*
X167788275Y-102091889D01*
X167818006Y-102128408D01*
X167836161Y-102149858D01*
X167839220Y-102153156D01*
X167842079Y-102145149D01*
X167844293Y-102114855D01*
X167845857Y-102062556D01*
X167846767Y-101988531D01*
X167847020Y-101893063D01*
X167846613Y-101776434D01*
X167845704Y-101656445D01*
X167844382Y-101524333D01*
X167842857Y-101412594D01*
X167840881Y-101319025D01*
X167838206Y-101241419D01*
X167834582Y-101177574D01*
X167829761Y-101125283D01*
X167823494Y-101082344D01*
X167815532Y-101046551D01*
X167805627Y-101015700D01*
X167793531Y-100987586D01*
X167778993Y-100960005D01*
X167764311Y-100934966D01*
X167726314Y-100871867D01*
X168786197Y-100871867D01*
X169089034Y-100871867D01*
X169089001Y-100865617D01*
X169088195Y-100763544D01*
X169087170Y-100674633D01*
X169085900Y-100597941D01*
X169084360Y-100532527D01*
X169082524Y-100477449D01*
X169080367Y-100431765D01*
X169077863Y-100394534D01*
X169074987Y-100364813D01*
X169071713Y-100341662D01*
X169068015Y-100324139D01*
X169063869Y-100311301D01*
X169059247Y-100302208D01*
X169054126Y-100295918D01*
X169048478Y-100291488D01*
X169042279Y-100287978D01*
X169035504Y-100284445D01*
X169029508Y-100280876D01*
X169024275Y-100278300D01*
X169016099Y-100275972D01*
X169003886Y-100273878D01*
X168986541Y-100272007D01*
X168962969Y-100270347D01*
X168932077Y-100268884D01*
X168892768Y-100267608D01*
X168843950Y-100266504D01*
X168784527Y-100265561D01*
X168713404Y-100264767D01*
X168629488Y-100264109D01*
X168531683Y-100263575D01*
X168418894Y-100263153D01*
X168290029Y-100262829D01*
X168143991Y-100262592D01*
X167979686Y-100262430D01*
X167796020Y-100262330D01*
X167591897Y-100262280D01*
X167380753Y-100262267D01*
X165760400Y-100262267D01*
X165760400Y-100359054D01*
X165760400Y-100359054D01*
G37*
X165760400Y-100359054D02*
X165749535Y-100472993D01*
X165717918Y-100580616D01*
X165667015Y-100679615D01*
X165598293Y-100767684D01*
X165513219Y-100842516D01*
X165416232Y-100900384D01*
X165309964Y-100940005D01*
X165202950Y-100958573D01*
X165097300Y-100957434D01*
X164995125Y-100937930D01*
X164898534Y-100901406D01*
X164809638Y-100849205D01*
X164730546Y-100782673D01*
X164663369Y-100703152D01*
X164610217Y-100611987D01*
X164573199Y-100510523D01*
X164554427Y-100400102D01*
X164552489Y-100350206D01*
X164552489Y-100262267D01*
X164500560Y-100262267D01*
X164464253Y-100265111D01*
X164437355Y-100276911D01*
X164410249Y-100300649D01*
X164371867Y-100339031D01*
X164371867Y-102530602D01*
X164371876Y-102792739D01*
X164371908Y-103033241D01*
X164371972Y-103253048D01*
X164372076Y-103453101D01*
X164372227Y-103634344D01*
X164372434Y-103797716D01*
X164372706Y-103944160D01*
X164373050Y-104074617D01*
X164373474Y-104190029D01*
X164373987Y-104291338D01*
X164374597Y-104379484D01*
X164375312Y-104455410D01*
X164376140Y-104520057D01*
X164377089Y-104574367D01*
X164378167Y-104619280D01*
X164379383Y-104655740D01*
X164380745Y-104684687D01*
X164382261Y-104707063D01*
X164383938Y-104723809D01*
X164385786Y-104735868D01*
X164387813Y-104744180D01*
X164390025Y-104749687D01*
X164391108Y-104751537D01*
X164395271Y-104758549D01*
X164398805Y-104764996D01*
X164402635Y-104770900D01*
X164407682Y-104776286D01*
X164414871Y-104781178D01*
X164425123Y-104785598D01*
X164439364Y-104789572D01*
X164458514Y-104793121D01*
X164483499Y-104796270D01*
X164515240Y-104799042D01*
X164554662Y-104801461D01*
X164602686Y-104803551D01*
X164660237Y-104805335D01*
X164728237Y-104806837D01*
X164807610Y-104808080D01*
X164899279Y-104809089D01*
X165004166Y-104809885D01*
X165123196Y-104810494D01*
X165257290Y-104810939D01*
X165407373Y-104811243D01*
X165574367Y-104811430D01*
X165759196Y-104811524D01*
X165962783Y-104811548D01*
X166186050Y-104811525D01*
X166429922Y-104811480D01*
X166695321Y-104811437D01*
X166733704Y-104811432D01*
X167000682Y-104811389D01*
X167246002Y-104811318D01*
X167470583Y-104811213D01*
X167675345Y-104811066D01*
X167861206Y-104810869D01*
X168029088Y-104810616D01*
X168179908Y-104810300D01*
X168314587Y-104809913D01*
X168434044Y-104809447D01*
X168539199Y-104808897D01*
X168630971Y-104808253D01*
X168710279Y-104807511D01*
X168778043Y-104806661D01*
X168835182Y-104805697D01*
X168882617Y-104804611D01*
X168921266Y-104803397D01*
X168952049Y-104802047D01*
X168975885Y-104800555D01*
X168993694Y-104798911D01*
X169006395Y-104797111D01*
X169014908Y-104795145D01*
X169019266Y-104793477D01*
X169027728Y-104789906D01*
X169035497Y-104787270D01*
X169042602Y-104784634D01*
X169049073Y-104781062D01*
X169054939Y-104775621D01*
X169060229Y-104767375D01*
X169064974Y-104755390D01*
X169069202Y-104738731D01*
X169072943Y-104716463D01*
X169076227Y-104687652D01*
X169079083Y-104651363D01*
X169081540Y-104606661D01*
X169083629Y-104552611D01*
X169085378Y-104488279D01*
X169086817Y-104412730D01*
X169087976Y-104325030D01*
X169088883Y-104224243D01*
X169089569Y-104109434D01*
X169090063Y-103979670D01*
X169090395Y-103834015D01*
X169090593Y-103671535D01*
X169090687Y-103491295D01*
X169090708Y-103292360D01*
X169090685Y-103073796D01*
X169090646Y-102834668D01*
X169090622Y-102574040D01*
X169090622Y-102531889D01*
X169090636Y-102268992D01*
X169090661Y-102027732D01*
X169090671Y-101807165D01*
X169090642Y-101606352D01*
X169090548Y-101424349D01*
X169090362Y-101260216D01*
X169090059Y-101113011D01*
X169089614Y-100981792D01*
X169089034Y-100871867D01*
X168786197Y-100871867D01*
X168746407Y-100929711D01*
X168735236Y-100945479D01*
X168725166Y-100959441D01*
X168716138Y-100972784D01*
X168708097Y-100986693D01*
X168700986Y-101002356D01*
X168694747Y-101020958D01*
X168689325Y-101043686D01*
X168684662Y-101071727D01*
X168680701Y-101106267D01*
X168677385Y-101148492D01*
X168674659Y-101199589D01*
X168672464Y-101260744D01*
X168670745Y-101333144D01*
X168669444Y-101417975D01*
X168668505Y-101516422D01*
X168667870Y-101629674D01*
X168667484Y-101758916D01*
X168667288Y-101905334D01*
X168667227Y-102070116D01*
X168667243Y-102254447D01*
X168667280Y-102459513D01*
X168667289Y-102582133D01*
X168667265Y-102799082D01*
X168667231Y-102994642D01*
X168667243Y-103169999D01*
X168667358Y-103326341D01*
X168667630Y-103464857D01*
X168668118Y-103586734D01*
X168668876Y-103693160D01*
X168669962Y-103785322D01*
X168671431Y-103864409D01*
X168673340Y-103931608D01*
X168675744Y-103988107D01*
X168678701Y-104035093D01*
X168682266Y-104073755D01*
X168686495Y-104105280D01*
X168691446Y-104130855D01*
X168697173Y-104151670D01*
X168703733Y-104168911D01*
X168711183Y-104183765D01*
X168719579Y-104197422D01*
X168728976Y-104211069D01*
X168739432Y-104225893D01*
X168745523Y-104234783D01*
X168784296Y-104292400D01*
X168252732Y-104292400D01*
X168129483Y-104292365D01*
X168026987Y-104292215D01*
X167943420Y-104291878D01*
X167876956Y-104291286D01*
X167825771Y-104290367D01*
X167788041Y-104289051D01*
X167761940Y-104287269D01*
X167745644Y-104284951D01*
X167737328Y-104282026D01*
X167735168Y-104278424D01*
X167737339Y-104274075D01*
X167738535Y-104272645D01*
X167763685Y-104235573D01*
X167789583Y-104182772D01*
X167813192Y-104120770D01*
X167821461Y-104094357D01*
X167826078Y-104076416D01*
X167829979Y-104055355D01*
X167833248Y-104029089D01*
X167835966Y-103995532D01*
X167838215Y-103952599D01*
X167840077Y-103898204D01*
X167841636Y-103830262D01*
X167842972Y-103746688D01*
X167844169Y-103645395D01*
X167845308Y-103524300D01*
X167845685Y-103479600D01*
X167846702Y-103354449D01*
X167847460Y-103250082D01*
X167847903Y-103164707D01*
X167847970Y-103096533D01*
X167847605Y-103043765D01*
X167846748Y-103004614D01*
X167845341Y-102977285D01*
X167843325Y-102959986D01*
X167840643Y-102950926D01*
X167837236Y-102948312D01*
X167833044Y-102950351D01*
X167828571Y-102954667D01*
X167818216Y-102967602D01*
X167796158Y-102996676D01*
X167763957Y-103039759D01*
X167723174Y-103094718D01*
X167675370Y-103159423D01*
X167622105Y-103231742D01*
X167564940Y-103309544D01*
X167505437Y-103390698D01*
X167445155Y-103473072D01*
X167385655Y-103554536D01*
X167328498Y-103632957D01*
X167275245Y-103706204D01*
X167227457Y-103772147D01*
X167186693Y-103828654D01*
X167154516Y-103873593D01*
X167132485Y-103904834D01*
X167127917Y-103911466D01*
X167104996Y-103948369D01*
X167078188Y-103996359D01*
X167052789Y-104045897D01*
X167049568Y-104052577D01*
X167027890Y-104100772D01*
X167015304Y-104138334D01*
X167009574Y-104174160D01*
X167008456Y-104216200D01*
X167009090Y-104292400D01*
X165854651Y-104292400D01*
X165945815Y-104198669D01*
X165992612Y-104148775D01*
X166042899Y-104092295D01*
X166088944Y-104038026D01*
X166109369Y-104012673D01*
X166139807Y-103973128D01*
X166179862Y-103919916D01*
X166228361Y-103854667D01*
X166284135Y-103779011D01*
X166346011Y-103694577D01*
X166412819Y-103602994D01*
X166483387Y-103505892D01*
X166556545Y-103404901D01*
X166631121Y-103301650D01*
X166705944Y-103197768D01*
X166779843Y-103094885D01*
X166851646Y-102994631D01*
X166920184Y-102898636D01*
X166984284Y-102808527D01*
X167042775Y-102725936D01*
X167094486Y-102652492D01*
X167138247Y-102589824D01*
X167172885Y-102539561D01*
X167197230Y-102503334D01*
X167210111Y-102482771D01*
X167211869Y-102478668D01*
X167203910Y-102467342D01*
X167183115Y-102440162D01*
X167150847Y-102398829D01*
X167108470Y-102345044D01*
X167057347Y-102280506D01*
X166998841Y-102206918D01*
X166934314Y-102125978D01*
X166865131Y-102039388D01*
X166792653Y-101948848D01*
X166718246Y-101856060D01*
X166658517Y-101781702D01*
X165647511Y-101781702D01*
X165641602Y-101794659D01*
X165627272Y-101816908D01*
X165626225Y-101818391D01*
X165607438Y-101848544D01*
X165587791Y-101885375D01*
X165583892Y-101893511D01*
X165580356Y-101901940D01*
X165577230Y-101912059D01*
X165574486Y-101925260D01*
X165572092Y-101942938D01*
X165570019Y-101966484D01*
X165568235Y-101997293D01*
X165566712Y-102036757D01*
X165565419Y-102086269D01*
X165564326Y-102147223D01*
X165563403Y-102221011D01*
X165562619Y-102309028D01*
X165561945Y-102412665D01*
X165561350Y-102533316D01*
X165560805Y-102672374D01*
X165560279Y-102831232D01*
X165559745Y-103010089D01*
X165559206Y-103195207D01*
X165558772Y-103359145D01*
X165558509Y-103503303D01*
X165558484Y-103629079D01*
X165558765Y-103737871D01*
X165559419Y-103831077D01*
X165560514Y-103910097D01*
X165562118Y-103976328D01*
X165564297Y-104031170D01*
X165567119Y-104076021D01*
X165570651Y-104112278D01*
X165574961Y-104141341D01*
X165580117Y-104164609D01*
X165586185Y-104183479D01*
X165593233Y-104199351D01*
X165601329Y-104213622D01*
X165610540Y-104227691D01*
X165619040Y-104240158D01*
X165636176Y-104266452D01*
X165646322Y-104284037D01*
X165647511Y-104287257D01*
X165636604Y-104288334D01*
X165605411Y-104289335D01*
X165556223Y-104290235D01*
X165491333Y-104291010D01*
X165413030Y-104291637D01*
X165323607Y-104292091D01*
X165225356Y-104292349D01*
X165156445Y-104292400D01*
X165051452Y-104292180D01*
X164954610Y-104291548D01*
X164868107Y-104290549D01*
X164794132Y-104289227D01*
X164734874Y-104287626D01*
X164692520Y-104285791D01*
X164669260Y-104283765D01*
X164665378Y-104282493D01*
X164673076Y-104267591D01*
X164681074Y-104259560D01*
X164694246Y-104242434D01*
X164711485Y-104212183D01*
X164723407Y-104187622D01*
X164750045Y-104128711D01*
X164753120Y-102951845D01*
X164756195Y-101774978D01*
X165201853Y-101774978D01*
X165299670Y-101775142D01*
X165390064Y-101775611D01*
X165470630Y-101776347D01*
X165538962Y-101777316D01*
X165592656Y-101778480D01*
X165629305Y-101779803D01*
X165646504Y-101781249D01*
X165647511Y-101781702D01*
X166658517Y-101781702D01*
X166643270Y-101762722D01*
X166569090Y-101670537D01*
X166497069Y-101581204D01*
X166428569Y-101496424D01*
X166364955Y-101417898D01*
X166307588Y-101347326D01*
X166257833Y-101286409D01*
X166217052Y-101236847D01*
X166199888Y-101216178D01*
X166113596Y-101115516D01*
X166036997Y-101032259D01*
X165968183Y-100964438D01*
X165905248Y-100910089D01*
X165895867Y-100902722D01*
X165856356Y-100872117D01*
X166988116Y-100871867D01*
X166982827Y-100919844D01*
X166986130Y-100977188D01*
X167007661Y-101045463D01*
X167047635Y-101125212D01*
X167092943Y-101197495D01*
X167109161Y-101220140D01*
X167137214Y-101257696D01*
X167175430Y-101308021D01*
X167222137Y-101368973D01*
X167275661Y-101438411D01*
X167334331Y-101514194D01*
X167396475Y-101594180D01*
X167460421Y-101676228D01*
X167524495Y-101758196D01*
X167587027Y-101837943D01*
X167646343Y-101913327D01*
X167700771Y-101982207D01*
X167748639Y-102042442D01*
X167788275Y-102091889D01*
X167818006Y-102128408D01*
X167836161Y-102149858D01*
X167839220Y-102153156D01*
X167842079Y-102145149D01*
X167844293Y-102114855D01*
X167845857Y-102062556D01*
X167846767Y-101988531D01*
X167847020Y-101893063D01*
X167846613Y-101776434D01*
X167845704Y-101656445D01*
X167844382Y-101524333D01*
X167842857Y-101412594D01*
X167840881Y-101319025D01*
X167838206Y-101241419D01*
X167834582Y-101177574D01*
X167829761Y-101125283D01*
X167823494Y-101082344D01*
X167815532Y-101046551D01*
X167805627Y-101015700D01*
X167793531Y-100987586D01*
X167778993Y-100960005D01*
X167764311Y-100934966D01*
X167726314Y-100871867D01*
X168786197Y-100871867D01*
X169089034Y-100871867D01*
X169089001Y-100865617D01*
X169088195Y-100763544D01*
X169087170Y-100674633D01*
X169085900Y-100597941D01*
X169084360Y-100532527D01*
X169082524Y-100477449D01*
X169080367Y-100431765D01*
X169077863Y-100394534D01*
X169074987Y-100364813D01*
X169071713Y-100341662D01*
X169068015Y-100324139D01*
X169063869Y-100311301D01*
X169059247Y-100302208D01*
X169054126Y-100295918D01*
X169048478Y-100291488D01*
X169042279Y-100287978D01*
X169035504Y-100284445D01*
X169029508Y-100280876D01*
X169024275Y-100278300D01*
X169016099Y-100275972D01*
X169003886Y-100273878D01*
X168986541Y-100272007D01*
X168962969Y-100270347D01*
X168932077Y-100268884D01*
X168892768Y-100267608D01*
X168843950Y-100266504D01*
X168784527Y-100265561D01*
X168713404Y-100264767D01*
X168629488Y-100264109D01*
X168531683Y-100263575D01*
X168418894Y-100263153D01*
X168290029Y-100262829D01*
X168143991Y-100262592D01*
X167979686Y-100262430D01*
X167796020Y-100262330D01*
X167591897Y-100262280D01*
X167380753Y-100262267D01*
X165760400Y-100262267D01*
X165760400Y-100359054D01*
G36*
X162485571Y-100819071D02*
G01*
X162325430Y-100840245D01*
X162161490Y-100880385D01*
X161991687Y-100939889D01*
X161813957Y-101019154D01*
X161802690Y-101024699D01*
X161744995Y-101052725D01*
X161693448Y-101076802D01*
X161651809Y-101095249D01*
X161623838Y-101106386D01*
X161614267Y-101108933D01*
X161595050Y-101113941D01*
X161590439Y-101118147D01*
X161595542Y-101128580D01*
X161611582Y-101154868D01*
X161636712Y-101194257D01*
X161669086Y-101243991D01*
X161706857Y-101301315D01*
X161748178Y-101363476D01*
X161791202Y-101427718D01*
X161834083Y-101491285D01*
X161874974Y-101551425D01*
X161912029Y-101605380D01*
X161943400Y-101650397D01*
X161967241Y-101683721D01*
X161981706Y-101702597D01*
X161983691Y-101704787D01*
X161993809Y-101700138D01*
X162016150Y-101682962D01*
X162046720Y-101656440D01*
X162062464Y-101641964D01*
X162158953Y-101566682D01*
X162265664Y-101511241D01*
X162381168Y-101476141D01*
X162504038Y-101461880D01*
X162573439Y-101463051D01*
X162694577Y-101480212D01*
X162803795Y-101516094D01*
X162901418Y-101570959D01*
X162987772Y-101645070D01*
X163063185Y-101738688D01*
X163127982Y-101852076D01*
X163165399Y-101938667D01*
X163209252Y-102074366D01*
X163241572Y-102221850D01*
X163262443Y-102377314D01*
X163271949Y-102536956D01*
X163270173Y-102696973D01*
X163257197Y-102853561D01*
X163233106Y-103002918D01*
X163197982Y-103141240D01*
X163151908Y-103264724D01*
X163135627Y-103298978D01*
X163067380Y-103413064D01*
X162986921Y-103509557D01*
X162895430Y-103587670D01*
X162794089Y-103646617D01*
X162684080Y-103685612D01*
X162566585Y-103703868D01*
X162525117Y-103705211D01*
X162403559Y-103694290D01*
X162283122Y-103661474D01*
X162165334Y-103607439D01*
X162051723Y-103532865D01*
X161960315Y-103454539D01*
X161913785Y-103410008D01*
X161732517Y-103707271D01*
X161687420Y-103781433D01*
X161646181Y-103849646D01*
X161610265Y-103909459D01*
X161581134Y-103958420D01*
X161560250Y-103994079D01*
X161549076Y-104013984D01*
X161547625Y-104017079D01*
X161555854Y-104026718D01*
X161581433Y-104043999D01*
X161621127Y-104067283D01*
X161671703Y-104094934D01*
X161729926Y-104125315D01*
X161792563Y-104156790D01*
X161856379Y-104187722D01*
X161918140Y-104216473D01*
X161974612Y-104241408D01*
X162022562Y-104260889D01*
X162046014Y-104269318D01*
X162179779Y-104307133D01*
X162317673Y-104332136D01*
X162465378Y-104345140D01*
X162592167Y-104347468D01*
X162660122Y-104346373D01*
X162725723Y-104344275D01*
X162783153Y-104341434D01*
X162826597Y-104338106D01*
X162840702Y-104336422D01*
X162979716Y-104307587D01*
X163121243Y-104262468D01*
X163258725Y-104203750D01*
X163385606Y-104134120D01*
X163463111Y-104081441D01*
X163590519Y-103973239D01*
X163708822Y-103846671D01*
X163815828Y-103704866D01*
X163909348Y-103550951D01*
X163987190Y-103388053D01*
X164031044Y-103270756D01*
X164081292Y-103087128D01*
X164114791Y-102892581D01*
X164131551Y-102691325D01*
X164131584Y-102487568D01*
X164114899Y-102285521D01*
X164081507Y-102089392D01*
X164031420Y-101903391D01*
X164027603Y-101891803D01*
X163964719Y-101729750D01*
X163887972Y-101581832D01*
X163794758Y-101443865D01*
X163682473Y-101311661D01*
X163638608Y-101266399D01*
X163502466Y-101142457D01*
X163362509Y-101039915D01*
X163216589Y-100957656D01*
X163062558Y-100894564D01*
X162898268Y-100849523D01*
X162802711Y-100832033D01*
X162643977Y-100816466D01*
X162485571Y-100819071D01*
X162485571Y-100819071D01*
G37*
X162485571Y-100819071D02*
X162325430Y-100840245D01*
X162161490Y-100880385D01*
X161991687Y-100939889D01*
X161813957Y-101019154D01*
X161802690Y-101024699D01*
X161744995Y-101052725D01*
X161693448Y-101076802D01*
X161651809Y-101095249D01*
X161623838Y-101106386D01*
X161614267Y-101108933D01*
X161595050Y-101113941D01*
X161590439Y-101118147D01*
X161595542Y-101128580D01*
X161611582Y-101154868D01*
X161636712Y-101194257D01*
X161669086Y-101243991D01*
X161706857Y-101301315D01*
X161748178Y-101363476D01*
X161791202Y-101427718D01*
X161834083Y-101491285D01*
X161874974Y-101551425D01*
X161912029Y-101605380D01*
X161943400Y-101650397D01*
X161967241Y-101683721D01*
X161981706Y-101702597D01*
X161983691Y-101704787D01*
X161993809Y-101700138D01*
X162016150Y-101682962D01*
X162046720Y-101656440D01*
X162062464Y-101641964D01*
X162158953Y-101566682D01*
X162265664Y-101511241D01*
X162381168Y-101476141D01*
X162504038Y-101461880D01*
X162573439Y-101463051D01*
X162694577Y-101480212D01*
X162803795Y-101516094D01*
X162901418Y-101570959D01*
X162987772Y-101645070D01*
X163063185Y-101738688D01*
X163127982Y-101852076D01*
X163165399Y-101938667D01*
X163209252Y-102074366D01*
X163241572Y-102221850D01*
X163262443Y-102377314D01*
X163271949Y-102536956D01*
X163270173Y-102696973D01*
X163257197Y-102853561D01*
X163233106Y-103002918D01*
X163197982Y-103141240D01*
X163151908Y-103264724D01*
X163135627Y-103298978D01*
X163067380Y-103413064D01*
X162986921Y-103509557D01*
X162895430Y-103587670D01*
X162794089Y-103646617D01*
X162684080Y-103685612D01*
X162566585Y-103703868D01*
X162525117Y-103705211D01*
X162403559Y-103694290D01*
X162283122Y-103661474D01*
X162165334Y-103607439D01*
X162051723Y-103532865D01*
X161960315Y-103454539D01*
X161913785Y-103410008D01*
X161732517Y-103707271D01*
X161687420Y-103781433D01*
X161646181Y-103849646D01*
X161610265Y-103909459D01*
X161581134Y-103958420D01*
X161560250Y-103994079D01*
X161549076Y-104013984D01*
X161547625Y-104017079D01*
X161555854Y-104026718D01*
X161581433Y-104043999D01*
X161621127Y-104067283D01*
X161671703Y-104094934D01*
X161729926Y-104125315D01*
X161792563Y-104156790D01*
X161856379Y-104187722D01*
X161918140Y-104216473D01*
X161974612Y-104241408D01*
X162022562Y-104260889D01*
X162046014Y-104269318D01*
X162179779Y-104307133D01*
X162317673Y-104332136D01*
X162465378Y-104345140D01*
X162592167Y-104347468D01*
X162660122Y-104346373D01*
X162725723Y-104344275D01*
X162783153Y-104341434D01*
X162826597Y-104338106D01*
X162840702Y-104336422D01*
X162979716Y-104307587D01*
X163121243Y-104262468D01*
X163258725Y-104203750D01*
X163385606Y-104134120D01*
X163463111Y-104081441D01*
X163590519Y-103973239D01*
X163708822Y-103846671D01*
X163815828Y-103704866D01*
X163909348Y-103550951D01*
X163987190Y-103388053D01*
X164031044Y-103270756D01*
X164081292Y-103087128D01*
X164114791Y-102892581D01*
X164131551Y-102691325D01*
X164131584Y-102487568D01*
X164114899Y-102285521D01*
X164081507Y-102089392D01*
X164031420Y-101903391D01*
X164027603Y-101891803D01*
X163964719Y-101729750D01*
X163887972Y-101581832D01*
X163794758Y-101443865D01*
X163682473Y-101311661D01*
X163638608Y-101266399D01*
X163502466Y-101142457D01*
X163362509Y-101039915D01*
X163216589Y-100957656D01*
X163062558Y-100894564D01*
X162898268Y-100849523D01*
X162802711Y-100832033D01*
X162643977Y-100816466D01*
X162485571Y-100819071D01*
G36*
X160140426Y-101736552D02*
G01*
X159988508Y-101756567D01*
X159853244Y-101790202D01*
X159733761Y-101837725D01*
X159629185Y-101899405D01*
X159551576Y-101962965D01*
X159482735Y-102037099D01*
X159428994Y-102116871D01*
X159386090Y-102209091D01*
X159370616Y-102252161D01*
X159357756Y-102291142D01*
X159346554Y-102327289D01*
X159336880Y-102362434D01*
X159328604Y-102398410D01*
X159321597Y-102437050D01*
X159315728Y-102480185D01*
X159310869Y-102529649D01*
X159306890Y-102587273D01*
X159303660Y-102654891D01*
X159301051Y-102734334D01*
X159298933Y-102827436D01*
X159297176Y-102936027D01*
X159295651Y-103061942D01*
X159294228Y-103207012D01*
X159292975Y-103349778D01*
X159291649Y-103505968D01*
X159290444Y-103641239D01*
X159289234Y-103757246D01*
X159287894Y-103855645D01*
X159286300Y-103938093D01*
X159284325Y-104006246D01*
X159281844Y-104061760D01*
X159278731Y-104106292D01*
X159274862Y-104141498D01*
X159270111Y-104169034D01*
X159264352Y-104190556D01*
X159257461Y-104207722D01*
X159249311Y-104222186D01*
X159239777Y-104235606D01*
X159228734Y-104249638D01*
X159224434Y-104255071D01*
X159208614Y-104277910D01*
X159201578Y-104293463D01*
X159201556Y-104293922D01*
X159212433Y-104296121D01*
X159243418Y-104298147D01*
X159292043Y-104299942D01*
X159355837Y-104301451D01*
X159432331Y-104302616D01*
X159519056Y-104303380D01*
X159613543Y-104303686D01*
X159624450Y-104303689D01*
X160047343Y-104303689D01*
X160050605Y-104207622D01*
X160053867Y-104111556D01*
X160115956Y-104162543D01*
X160213286Y-104230057D01*
X160323187Y-104284749D01*
X160409651Y-104314978D01*
X160478722Y-104329666D01*
X160562075Y-104339659D01*
X160651841Y-104344646D01*
X160740155Y-104344313D01*
X160819149Y-104338351D01*
X160855378Y-104332638D01*
X160995397Y-104294776D01*
X161121822Y-104239932D01*
X161233740Y-104168924D01*
X161330238Y-104082568D01*
X161410400Y-103981679D01*
X161473313Y-103867076D01*
X161517688Y-103740984D01*
X161530022Y-103684401D01*
X161537632Y-103622202D01*
X161541261Y-103547363D01*
X161541755Y-103513467D01*
X161541690Y-103510282D01*
X160781752Y-103510282D01*
X160772459Y-103585333D01*
X160744272Y-103649160D01*
X160695803Y-103704798D01*
X160690746Y-103709211D01*
X160642452Y-103744037D01*
X160590743Y-103766620D01*
X160530011Y-103778540D01*
X160454648Y-103781383D01*
X160436541Y-103780978D01*
X160382722Y-103778325D01*
X160342692Y-103772909D01*
X160307676Y-103762745D01*
X160268897Y-103745850D01*
X160258255Y-103740672D01*
X160197604Y-103704844D01*
X160150785Y-103662212D01*
X160138048Y-103646973D01*
X160093378Y-103590462D01*
X160093378Y-103394586D01*
X160093914Y-103315939D01*
X160095604Y-103257988D01*
X160098572Y-103218875D01*
X160102943Y-103196741D01*
X160107028Y-103190274D01*
X160122953Y-103187111D01*
X160156736Y-103184488D01*
X160203660Y-103182655D01*
X160259007Y-103181857D01*
X160267894Y-103181842D01*
X160388670Y-103187096D01*
X160491340Y-103203263D01*
X160577894Y-103230961D01*
X160650319Y-103270808D01*
X160705249Y-103317758D01*
X160749796Y-103375645D01*
X160774520Y-103438693D01*
X160781752Y-103510282D01*
X161541690Y-103510282D01*
X161539822Y-103419712D01*
X161531478Y-103340812D01*
X161515232Y-103269590D01*
X161489595Y-103198864D01*
X161465599Y-103146493D01*
X161406980Y-103051196D01*
X161328883Y-102963170D01*
X161233685Y-102884017D01*
X161123762Y-102815340D01*
X161001490Y-102758741D01*
X160869245Y-102715821D01*
X160804578Y-102700882D01*
X160668396Y-102678777D01*
X160519951Y-102664194D01*
X160368495Y-102657813D01*
X160241936Y-102659445D01*
X160080050Y-102666224D01*
X160087470Y-102607245D01*
X160106762Y-102508092D01*
X160137896Y-102427372D01*
X160181731Y-102364466D01*
X160239129Y-102318756D01*
X160310952Y-102289622D01*
X160398059Y-102276447D01*
X160501314Y-102278611D01*
X160539289Y-102282612D01*
X160680480Y-102307780D01*
X160817293Y-102348814D01*
X160911822Y-102386815D01*
X160956982Y-102406190D01*
X160995415Y-102421760D01*
X161021766Y-102431405D01*
X161029454Y-102433452D01*
X161039198Y-102424374D01*
X161055917Y-102395405D01*
X161079768Y-102346217D01*
X161110907Y-102276484D01*
X161149493Y-102185879D01*
X161156090Y-102170089D01*
X161186147Y-102097772D01*
X161213126Y-102032425D01*
X161235864Y-101976906D01*
X161253194Y-101934072D01*
X161263952Y-101906781D01*
X161267059Y-101897942D01*
X161257060Y-101893187D01*
X161230783Y-101887910D01*
X161202511Y-101884231D01*
X161172354Y-101879474D01*
X161124567Y-101870028D01*
X161063388Y-101856820D01*
X160993054Y-101840776D01*
X160917806Y-101822820D01*
X160889245Y-101815797D01*
X160784184Y-101790209D01*
X160696520Y-101770147D01*
X160621932Y-101754969D01*
X160556097Y-101744035D01*
X160494693Y-101736704D01*
X160433398Y-101732335D01*
X160367890Y-101730287D01*
X160309872Y-101729889D01*
X160140426Y-101736552D01*
X160140426Y-101736552D01*
G37*
X160140426Y-101736552D02*
X159988508Y-101756567D01*
X159853244Y-101790202D01*
X159733761Y-101837725D01*
X159629185Y-101899405D01*
X159551576Y-101962965D01*
X159482735Y-102037099D01*
X159428994Y-102116871D01*
X159386090Y-102209091D01*
X159370616Y-102252161D01*
X159357756Y-102291142D01*
X159346554Y-102327289D01*
X159336880Y-102362434D01*
X159328604Y-102398410D01*
X159321597Y-102437050D01*
X159315728Y-102480185D01*
X159310869Y-102529649D01*
X159306890Y-102587273D01*
X159303660Y-102654891D01*
X159301051Y-102734334D01*
X159298933Y-102827436D01*
X159297176Y-102936027D01*
X159295651Y-103061942D01*
X159294228Y-103207012D01*
X159292975Y-103349778D01*
X159291649Y-103505968D01*
X159290444Y-103641239D01*
X159289234Y-103757246D01*
X159287894Y-103855645D01*
X159286300Y-103938093D01*
X159284325Y-104006246D01*
X159281844Y-104061760D01*
X159278731Y-104106292D01*
X159274862Y-104141498D01*
X159270111Y-104169034D01*
X159264352Y-104190556D01*
X159257461Y-104207722D01*
X159249311Y-104222186D01*
X159239777Y-104235606D01*
X159228734Y-104249638D01*
X159224434Y-104255071D01*
X159208614Y-104277910D01*
X159201578Y-104293463D01*
X159201556Y-104293922D01*
X159212433Y-104296121D01*
X159243418Y-104298147D01*
X159292043Y-104299942D01*
X159355837Y-104301451D01*
X159432331Y-104302616D01*
X159519056Y-104303380D01*
X159613543Y-104303686D01*
X159624450Y-104303689D01*
X160047343Y-104303689D01*
X160050605Y-104207622D01*
X160053867Y-104111556D01*
X160115956Y-104162543D01*
X160213286Y-104230057D01*
X160323187Y-104284749D01*
X160409651Y-104314978D01*
X160478722Y-104329666D01*
X160562075Y-104339659D01*
X160651841Y-104344646D01*
X160740155Y-104344313D01*
X160819149Y-104338351D01*
X160855378Y-104332638D01*
X160995397Y-104294776D01*
X161121822Y-104239932D01*
X161233740Y-104168924D01*
X161330238Y-104082568D01*
X161410400Y-103981679D01*
X161473313Y-103867076D01*
X161517688Y-103740984D01*
X161530022Y-103684401D01*
X161537632Y-103622202D01*
X161541261Y-103547363D01*
X161541755Y-103513467D01*
X161541690Y-103510282D01*
X160781752Y-103510282D01*
X160772459Y-103585333D01*
X160744272Y-103649160D01*
X160695803Y-103704798D01*
X160690746Y-103709211D01*
X160642452Y-103744037D01*
X160590743Y-103766620D01*
X160530011Y-103778540D01*
X160454648Y-103781383D01*
X160436541Y-103780978D01*
X160382722Y-103778325D01*
X160342692Y-103772909D01*
X160307676Y-103762745D01*
X160268897Y-103745850D01*
X160258255Y-103740672D01*
X160197604Y-103704844D01*
X160150785Y-103662212D01*
X160138048Y-103646973D01*
X160093378Y-103590462D01*
X160093378Y-103394586D01*
X160093914Y-103315939D01*
X160095604Y-103257988D01*
X160098572Y-103218875D01*
X160102943Y-103196741D01*
X160107028Y-103190274D01*
X160122953Y-103187111D01*
X160156736Y-103184488D01*
X160203660Y-103182655D01*
X160259007Y-103181857D01*
X160267894Y-103181842D01*
X160388670Y-103187096D01*
X160491340Y-103203263D01*
X160577894Y-103230961D01*
X160650319Y-103270808D01*
X160705249Y-103317758D01*
X160749796Y-103375645D01*
X160774520Y-103438693D01*
X160781752Y-103510282D01*
X161541690Y-103510282D01*
X161539822Y-103419712D01*
X161531478Y-103340812D01*
X161515232Y-103269590D01*
X161489595Y-103198864D01*
X161465599Y-103146493D01*
X161406980Y-103051196D01*
X161328883Y-102963170D01*
X161233685Y-102884017D01*
X161123762Y-102815340D01*
X161001490Y-102758741D01*
X160869245Y-102715821D01*
X160804578Y-102700882D01*
X160668396Y-102678777D01*
X160519951Y-102664194D01*
X160368495Y-102657813D01*
X160241936Y-102659445D01*
X160080050Y-102666224D01*
X160087470Y-102607245D01*
X160106762Y-102508092D01*
X160137896Y-102427372D01*
X160181731Y-102364466D01*
X160239129Y-102318756D01*
X160310952Y-102289622D01*
X160398059Y-102276447D01*
X160501314Y-102278611D01*
X160539289Y-102282612D01*
X160680480Y-102307780D01*
X160817293Y-102348814D01*
X160911822Y-102386815D01*
X160956982Y-102406190D01*
X160995415Y-102421760D01*
X161021766Y-102431405D01*
X161029454Y-102433452D01*
X161039198Y-102424374D01*
X161055917Y-102395405D01*
X161079768Y-102346217D01*
X161110907Y-102276484D01*
X161149493Y-102185879D01*
X161156090Y-102170089D01*
X161186147Y-102097772D01*
X161213126Y-102032425D01*
X161235864Y-101976906D01*
X161253194Y-101934072D01*
X161263952Y-101906781D01*
X161267059Y-101897942D01*
X161257060Y-101893187D01*
X161230783Y-101887910D01*
X161202511Y-101884231D01*
X161172354Y-101879474D01*
X161124567Y-101870028D01*
X161063388Y-101856820D01*
X160993054Y-101840776D01*
X160917806Y-101822820D01*
X160889245Y-101815797D01*
X160784184Y-101790209D01*
X160696520Y-101770147D01*
X160621932Y-101754969D01*
X160556097Y-101744035D01*
X160494693Y-101736704D01*
X160433398Y-101732335D01*
X160367890Y-101730287D01*
X160309872Y-101729889D01*
X160140426Y-101736552D01*
G36*
X156627493Y-102342245D02*
G01*
X156627474Y-102576662D01*
X156627448Y-102789603D01*
X156627375Y-102982168D01*
X156627218Y-103155459D01*
X156626936Y-103310576D01*
X156626491Y-103448620D01*
X156625844Y-103570692D01*
X156624955Y-103677894D01*
X156623787Y-103771326D01*
X156622299Y-103852090D01*
X156620454Y-103921286D01*
X156618211Y-103980015D01*
X156615531Y-104029379D01*
X156612377Y-104070478D01*
X156608708Y-104104413D01*
X156604487Y-104132286D01*
X156599673Y-104155198D01*
X156594227Y-104174249D01*
X156588112Y-104190540D01*
X156581288Y-104205173D01*
X156573715Y-104219249D01*
X156565355Y-104233868D01*
X156560161Y-104242974D01*
X156525896Y-104303689D01*
X157384045Y-104303689D01*
X157384045Y-104207733D01*
X157384776Y-104164370D01*
X157386728Y-104131205D01*
X157389537Y-104113424D01*
X157390779Y-104111778D01*
X157402201Y-104118662D01*
X157424916Y-104136505D01*
X157447615Y-104155879D01*
X157502200Y-104196614D01*
X157571679Y-104237617D01*
X157648730Y-104275123D01*
X157726035Y-104305364D01*
X157756887Y-104315012D01*
X157825384Y-104329578D01*
X157908236Y-104339539D01*
X157997629Y-104344583D01*
X158085752Y-104344396D01*
X158164793Y-104338666D01*
X158202489Y-104332858D01*
X158340586Y-104294797D01*
X158467887Y-104237073D01*
X158583708Y-104160211D01*
X158687363Y-104064739D01*
X158778167Y-103951179D01*
X158844969Y-103840381D01*
X158899836Y-103723625D01*
X158941837Y-103604276D01*
X158971833Y-103478283D01*
X158990689Y-103341594D01*
X158999268Y-103190158D01*
X158999994Y-103112711D01*
X158997900Y-103055934D01*
X158168783Y-103055934D01*
X158168576Y-103149002D01*
X158165663Y-103236692D01*
X158160000Y-103313772D01*
X158151545Y-103375009D01*
X158148962Y-103387350D01*
X158117160Y-103494633D01*
X158075502Y-103581658D01*
X158023637Y-103648642D01*
X157961219Y-103695805D01*
X157887900Y-103723365D01*
X157803331Y-103731541D01*
X157707165Y-103720551D01*
X157643689Y-103704829D01*
X157594546Y-103686639D01*
X157540417Y-103660791D01*
X157499756Y-103637089D01*
X157429200Y-103590721D01*
X157429200Y-102440530D01*
X157496608Y-102396962D01*
X157575133Y-102356040D01*
X157659319Y-102329389D01*
X157744443Y-102317465D01*
X157825784Y-102320722D01*
X157898620Y-102339615D01*
X157930574Y-102355184D01*
X157988499Y-102398181D01*
X158037456Y-102454953D01*
X158078610Y-102527575D01*
X158113126Y-102618121D01*
X158142167Y-102728666D01*
X158143448Y-102734533D01*
X158153619Y-102796788D01*
X158161261Y-102874594D01*
X158166330Y-102962720D01*
X158168783Y-103055934D01*
X158997900Y-103055934D01*
X158992143Y-102899895D01*
X158970198Y-102704059D01*
X158934214Y-102525332D01*
X158884241Y-102363845D01*
X158820332Y-102219726D01*
X158742538Y-102093106D01*
X158650911Y-101984115D01*
X158545503Y-101892883D01*
X158500338Y-101861932D01*
X158399389Y-101805785D01*
X158296099Y-101766174D01*
X158186011Y-101742014D01*
X158064670Y-101732219D01*
X157972164Y-101733265D01*
X157842510Y-101744231D01*
X157729916Y-101766046D01*
X157631125Y-101799714D01*
X157542879Y-101846236D01*
X157494014Y-101880448D01*
X157464647Y-101902362D01*
X157442957Y-101917333D01*
X157434747Y-101921733D01*
X157433132Y-101910904D01*
X157431841Y-101880251D01*
X157430862Y-101832526D01*
X157430183Y-101770479D01*
X157429790Y-101696862D01*
X157429670Y-101614427D01*
X157429812Y-101525925D01*
X157430203Y-101434107D01*
X157430829Y-101341724D01*
X157431680Y-101251528D01*
X157432740Y-101166271D01*
X157433999Y-101088703D01*
X157435444Y-101021576D01*
X157437062Y-100967641D01*
X157438839Y-100929650D01*
X157439331Y-100922667D01*
X157446908Y-100852251D01*
X157458469Y-100797102D01*
X157476208Y-100749981D01*
X157502318Y-100703647D01*
X157508585Y-100694067D01*
X157533017Y-100657378D01*
X156627689Y-100657378D01*
X156627493Y-102342245D01*
X156627493Y-102342245D01*
G37*
X156627493Y-102342245D02*
X156627474Y-102576662D01*
X156627448Y-102789603D01*
X156627375Y-102982168D01*
X156627218Y-103155459D01*
X156626936Y-103310576D01*
X156626491Y-103448620D01*
X156625844Y-103570692D01*
X156624955Y-103677894D01*
X156623787Y-103771326D01*
X156622299Y-103852090D01*
X156620454Y-103921286D01*
X156618211Y-103980015D01*
X156615531Y-104029379D01*
X156612377Y-104070478D01*
X156608708Y-104104413D01*
X156604487Y-104132286D01*
X156599673Y-104155198D01*
X156594227Y-104174249D01*
X156588112Y-104190540D01*
X156581288Y-104205173D01*
X156573715Y-104219249D01*
X156565355Y-104233868D01*
X156560161Y-104242974D01*
X156525896Y-104303689D01*
X157384045Y-104303689D01*
X157384045Y-104207733D01*
X157384776Y-104164370D01*
X157386728Y-104131205D01*
X157389537Y-104113424D01*
X157390779Y-104111778D01*
X157402201Y-104118662D01*
X157424916Y-104136505D01*
X157447615Y-104155879D01*
X157502200Y-104196614D01*
X157571679Y-104237617D01*
X157648730Y-104275123D01*
X157726035Y-104305364D01*
X157756887Y-104315012D01*
X157825384Y-104329578D01*
X157908236Y-104339539D01*
X157997629Y-104344583D01*
X158085752Y-104344396D01*
X158164793Y-104338666D01*
X158202489Y-104332858D01*
X158340586Y-104294797D01*
X158467887Y-104237073D01*
X158583708Y-104160211D01*
X158687363Y-104064739D01*
X158778167Y-103951179D01*
X158844969Y-103840381D01*
X158899836Y-103723625D01*
X158941837Y-103604276D01*
X158971833Y-103478283D01*
X158990689Y-103341594D01*
X158999268Y-103190158D01*
X158999994Y-103112711D01*
X158997900Y-103055934D01*
X158168783Y-103055934D01*
X158168576Y-103149002D01*
X158165663Y-103236692D01*
X158160000Y-103313772D01*
X158151545Y-103375009D01*
X158148962Y-103387350D01*
X158117160Y-103494633D01*
X158075502Y-103581658D01*
X158023637Y-103648642D01*
X157961219Y-103695805D01*
X157887900Y-103723365D01*
X157803331Y-103731541D01*
X157707165Y-103720551D01*
X157643689Y-103704829D01*
X157594546Y-103686639D01*
X157540417Y-103660791D01*
X157499756Y-103637089D01*
X157429200Y-103590721D01*
X157429200Y-102440530D01*
X157496608Y-102396962D01*
X157575133Y-102356040D01*
X157659319Y-102329389D01*
X157744443Y-102317465D01*
X157825784Y-102320722D01*
X157898620Y-102339615D01*
X157930574Y-102355184D01*
X157988499Y-102398181D01*
X158037456Y-102454953D01*
X158078610Y-102527575D01*
X158113126Y-102618121D01*
X158142167Y-102728666D01*
X158143448Y-102734533D01*
X158153619Y-102796788D01*
X158161261Y-102874594D01*
X158166330Y-102962720D01*
X158168783Y-103055934D01*
X158997900Y-103055934D01*
X158992143Y-102899895D01*
X158970198Y-102704059D01*
X158934214Y-102525332D01*
X158884241Y-102363845D01*
X158820332Y-102219726D01*
X158742538Y-102093106D01*
X158650911Y-101984115D01*
X158545503Y-101892883D01*
X158500338Y-101861932D01*
X158399389Y-101805785D01*
X158296099Y-101766174D01*
X158186011Y-101742014D01*
X158064670Y-101732219D01*
X157972164Y-101733265D01*
X157842510Y-101744231D01*
X157729916Y-101766046D01*
X157631125Y-101799714D01*
X157542879Y-101846236D01*
X157494014Y-101880448D01*
X157464647Y-101902362D01*
X157442957Y-101917333D01*
X157434747Y-101921733D01*
X157433132Y-101910904D01*
X157431841Y-101880251D01*
X157430862Y-101832526D01*
X157430183Y-101770479D01*
X157429790Y-101696862D01*
X157429670Y-101614427D01*
X157429812Y-101525925D01*
X157430203Y-101434107D01*
X157430829Y-101341724D01*
X157431680Y-101251528D01*
X157432740Y-101166271D01*
X157433999Y-101088703D01*
X157435444Y-101021576D01*
X157437062Y-100967641D01*
X157438839Y-100929650D01*
X157439331Y-100922667D01*
X157446908Y-100852251D01*
X157458469Y-100797102D01*
X157476208Y-100749981D01*
X157502318Y-100703647D01*
X157508585Y-100694067D01*
X157533017Y-100657378D01*
X156627689Y-100657378D01*
X156627493Y-102342245D01*
G36*
X165087043Y-99896571D02*
G01*
X164990768Y-99920809D01*
X164904184Y-99963641D01*
X164829373Y-100023419D01*
X164768418Y-100098494D01*
X164723399Y-100187220D01*
X164697136Y-100283530D01*
X164691286Y-100380795D01*
X164706140Y-100474654D01*
X164739840Y-100562511D01*
X164790528Y-100641770D01*
X164856345Y-100709836D01*
X164935434Y-100764112D01*
X165025934Y-100802002D01*
X165077200Y-100814426D01*
X165121698Y-100821947D01*
X165155999Y-100824919D01*
X165188960Y-100823094D01*
X165229434Y-100816225D01*
X165262531Y-100809250D01*
X165355947Y-100777741D01*
X165439619Y-100726617D01*
X165511665Y-100657429D01*
X165570200Y-100571728D01*
X165584148Y-100544489D01*
X165600586Y-100508122D01*
X165610894Y-100477582D01*
X165616460Y-100445450D01*
X165618669Y-100404307D01*
X165618948Y-100358222D01*
X165614861Y-100273865D01*
X165601446Y-100204586D01*
X165576256Y-100143961D01*
X165536846Y-100085567D01*
X165498298Y-100041302D01*
X165426406Y-99975484D01*
X165351313Y-99930053D01*
X165268562Y-99902850D01*
X165190928Y-99892576D01*
X165087043Y-99896571D01*
X165087043Y-99896571D01*
G37*
X165087043Y-99896571D02*
X164990768Y-99920809D01*
X164904184Y-99963641D01*
X164829373Y-100023419D01*
X164768418Y-100098494D01*
X164723399Y-100187220D01*
X164697136Y-100283530D01*
X164691286Y-100380795D01*
X164706140Y-100474654D01*
X164739840Y-100562511D01*
X164790528Y-100641770D01*
X164856345Y-100709836D01*
X164935434Y-100764112D01*
X165025934Y-100802002D01*
X165077200Y-100814426D01*
X165121698Y-100821947D01*
X165155999Y-100824919D01*
X165188960Y-100823094D01*
X165229434Y-100816225D01*
X165262531Y-100809250D01*
X165355947Y-100777741D01*
X165439619Y-100726617D01*
X165511665Y-100657429D01*
X165570200Y-100571728D01*
X165584148Y-100544489D01*
X165600586Y-100508122D01*
X165610894Y-100477582D01*
X165616460Y-100445450D01*
X165618669Y-100404307D01*
X165618948Y-100358222D01*
X165614861Y-100273865D01*
X165601446Y-100204586D01*
X165576256Y-100143961D01*
X165536846Y-100085567D01*
X165498298Y-100041302D01*
X165426406Y-99975484D01*
X165351313Y-99930053D01*
X165268562Y-99902850D01*
X165190928Y-99892576D01*
X165087043Y-99896571D01*
G36*
X143497256Y-111901918D02*
G01*
X143441799Y-111929568D01*
X143392852Y-111980480D01*
X143379371Y-111999338D01*
X143364686Y-112024015D01*
X143355158Y-112050816D01*
X143349707Y-112086587D01*
X143347253Y-112138169D01*
X143346714Y-112206267D01*
X143349148Y-112299588D01*
X143357606Y-112369657D01*
X143373826Y-112421931D01*
X143399546Y-112461869D01*
X143436503Y-112494929D01*
X143439218Y-112496886D01*
X143475640Y-112516908D01*
X143519498Y-112526815D01*
X143575276Y-112529257D01*
X143665952Y-112529257D01*
X143665990Y-112617283D01*
X143666834Y-112666308D01*
X143671976Y-112695065D01*
X143685413Y-112712311D01*
X143711142Y-112726808D01*
X143717321Y-112729769D01*
X143746236Y-112743648D01*
X143768624Y-112752414D01*
X143785271Y-112753171D01*
X143796964Y-112743023D01*
X143804490Y-112719073D01*
X143808634Y-112678426D01*
X143810185Y-112618186D01*
X143809929Y-112535455D01*
X143808651Y-112427339D01*
X143808252Y-112395000D01*
X143806815Y-112283524D01*
X143805528Y-112210603D01*
X143666029Y-112210603D01*
X143665245Y-112272499D01*
X143661760Y-112312997D01*
X143653876Y-112339708D01*
X143639895Y-112360244D01*
X143630403Y-112370260D01*
X143591596Y-112399567D01*
X143557237Y-112401952D01*
X143521784Y-112377750D01*
X143520886Y-112376857D01*
X143506461Y-112358153D01*
X143497687Y-112332732D01*
X143493261Y-112293584D01*
X143491882Y-112233697D01*
X143491857Y-112220430D01*
X143495188Y-112137901D01*
X143506031Y-112080691D01*
X143525660Y-112045766D01*
X143555350Y-112030094D01*
X143572509Y-112028514D01*
X143613234Y-112035926D01*
X143641168Y-112060330D01*
X143657983Y-112104980D01*
X143665350Y-112173130D01*
X143666029Y-112210603D01*
X143805528Y-112210603D01*
X143805292Y-112197245D01*
X143803323Y-112132333D01*
X143800550Y-112084958D01*
X143796612Y-112051290D01*
X143791151Y-112027498D01*
X143783808Y-112009753D01*
X143774223Y-111994224D01*
X143770113Y-111988381D01*
X143715595Y-111933185D01*
X143646664Y-111901890D01*
X143566928Y-111893165D01*
X143497256Y-111901918D01*
X143497256Y-111901918D01*
G37*
X143497256Y-111901918D02*
X143441799Y-111929568D01*
X143392852Y-111980480D01*
X143379371Y-111999338D01*
X143364686Y-112024015D01*
X143355158Y-112050816D01*
X143349707Y-112086587D01*
X143347253Y-112138169D01*
X143346714Y-112206267D01*
X143349148Y-112299588D01*
X143357606Y-112369657D01*
X143373826Y-112421931D01*
X143399546Y-112461869D01*
X143436503Y-112494929D01*
X143439218Y-112496886D01*
X143475640Y-112516908D01*
X143519498Y-112526815D01*
X143575276Y-112529257D01*
X143665952Y-112529257D01*
X143665990Y-112617283D01*
X143666834Y-112666308D01*
X143671976Y-112695065D01*
X143685413Y-112712311D01*
X143711142Y-112726808D01*
X143717321Y-112729769D01*
X143746236Y-112743648D01*
X143768624Y-112752414D01*
X143785271Y-112753171D01*
X143796964Y-112743023D01*
X143804490Y-112719073D01*
X143808634Y-112678426D01*
X143810185Y-112618186D01*
X143809929Y-112535455D01*
X143808651Y-112427339D01*
X143808252Y-112395000D01*
X143806815Y-112283524D01*
X143805528Y-112210603D01*
X143666029Y-112210603D01*
X143665245Y-112272499D01*
X143661760Y-112312997D01*
X143653876Y-112339708D01*
X143639895Y-112360244D01*
X143630403Y-112370260D01*
X143591596Y-112399567D01*
X143557237Y-112401952D01*
X143521784Y-112377750D01*
X143520886Y-112376857D01*
X143506461Y-112358153D01*
X143497687Y-112332732D01*
X143493261Y-112293584D01*
X143491882Y-112233697D01*
X143491857Y-112220430D01*
X143495188Y-112137901D01*
X143506031Y-112080691D01*
X143525660Y-112045766D01*
X143555350Y-112030094D01*
X143572509Y-112028514D01*
X143613234Y-112035926D01*
X143641168Y-112060330D01*
X143657983Y-112104980D01*
X143665350Y-112173130D01*
X143666029Y-112210603D01*
X143805528Y-112210603D01*
X143805292Y-112197245D01*
X143803323Y-112132333D01*
X143800550Y-112084958D01*
X143796612Y-112051290D01*
X143791151Y-112027498D01*
X143783808Y-112009753D01*
X143774223Y-111994224D01*
X143770113Y-111988381D01*
X143715595Y-111933185D01*
X143646664Y-111901890D01*
X143566928Y-111893165D01*
X143497256Y-111901918D01*
G36*
X142380907Y-111909780D02*
G01*
X142334328Y-111936723D01*
X142301943Y-111963466D01*
X142278258Y-111991484D01*
X142261941Y-112025748D01*
X142251661Y-112071227D01*
X142246086Y-112132892D01*
X142243884Y-112215711D01*
X142243629Y-112275246D01*
X142243629Y-112494391D01*
X142305314Y-112522044D01*
X142367000Y-112549697D01*
X142374257Y-112309670D01*
X142377256Y-112220028D01*
X142380402Y-112154962D01*
X142384299Y-112110026D01*
X142389553Y-112080770D01*
X142396769Y-112062748D01*
X142406550Y-112051511D01*
X142409688Y-112049079D01*
X142457239Y-112030083D01*
X142505303Y-112037600D01*
X142533914Y-112057543D01*
X142545553Y-112071675D01*
X142553609Y-112090220D01*
X142558729Y-112118334D01*
X142561559Y-112161173D01*
X142562744Y-112223895D01*
X142562943Y-112289261D01*
X142562982Y-112371268D01*
X142564386Y-112429316D01*
X142569086Y-112468465D01*
X142579013Y-112493780D01*
X142596097Y-112510323D01*
X142622268Y-112523156D01*
X142657225Y-112536491D01*
X142695404Y-112551007D01*
X142690859Y-112293389D01*
X142689029Y-112200519D01*
X142686888Y-112131889D01*
X142683819Y-112082711D01*
X142679206Y-112048198D01*
X142672432Y-112023562D01*
X142662881Y-112004016D01*
X142651366Y-111986770D01*
X142595810Y-111931680D01*
X142528020Y-111899822D01*
X142454287Y-111892191D01*
X142380907Y-111909780D01*
X142380907Y-111909780D01*
G37*
X142380907Y-111909780D02*
X142334328Y-111936723D01*
X142301943Y-111963466D01*
X142278258Y-111991484D01*
X142261941Y-112025748D01*
X142251661Y-112071227D01*
X142246086Y-112132892D01*
X142243884Y-112215711D01*
X142243629Y-112275246D01*
X142243629Y-112494391D01*
X142305314Y-112522044D01*
X142367000Y-112549697D01*
X142374257Y-112309670D01*
X142377256Y-112220028D01*
X142380402Y-112154962D01*
X142384299Y-112110026D01*
X142389553Y-112080770D01*
X142396769Y-112062748D01*
X142406550Y-112051511D01*
X142409688Y-112049079D01*
X142457239Y-112030083D01*
X142505303Y-112037600D01*
X142533914Y-112057543D01*
X142545553Y-112071675D01*
X142553609Y-112090220D01*
X142558729Y-112118334D01*
X142561559Y-112161173D01*
X142562744Y-112223895D01*
X142562943Y-112289261D01*
X142562982Y-112371268D01*
X142564386Y-112429316D01*
X142569086Y-112468465D01*
X142579013Y-112493780D01*
X142596097Y-112510323D01*
X142622268Y-112523156D01*
X142657225Y-112536491D01*
X142695404Y-112551007D01*
X142690859Y-112293389D01*
X142689029Y-112200519D01*
X142686888Y-112131889D01*
X142683819Y-112082711D01*
X142679206Y-112048198D01*
X142672432Y-112023562D01*
X142662881Y-112004016D01*
X142651366Y-111986770D01*
X142595810Y-111931680D01*
X142528020Y-111899822D01*
X142454287Y-111892191D01*
X142380907Y-111909780D01*
G36*
X144055885Y-111903962D02*
G01*
X143987855Y-111939733D01*
X143937649Y-111997301D01*
X143919815Y-112034312D01*
X143905937Y-112089882D01*
X143898833Y-112160096D01*
X143898160Y-112236727D01*
X143903573Y-112311552D01*
X143914730Y-112376342D01*
X143931286Y-112422873D01*
X143936374Y-112430887D01*
X143996645Y-112490707D01*
X144068231Y-112526535D01*
X144145908Y-112537020D01*
X144224452Y-112520810D01*
X144246311Y-112511092D01*
X144288878Y-112481143D01*
X144326237Y-112441433D01*
X144329768Y-112436397D01*
X144344119Y-112412124D01*
X144353606Y-112386178D01*
X144359210Y-112352022D01*
X144361914Y-112303119D01*
X144362701Y-112232935D01*
X144362714Y-112217200D01*
X144362678Y-112212192D01*
X144217571Y-112212192D01*
X144216727Y-112278430D01*
X144213404Y-112322386D01*
X144206417Y-112350779D01*
X144194584Y-112370325D01*
X144188543Y-112376857D01*
X144153814Y-112401680D01*
X144120097Y-112400548D01*
X144086005Y-112379016D01*
X144065671Y-112356029D01*
X144053629Y-112322478D01*
X144046866Y-112269569D01*
X144046402Y-112263399D01*
X144045248Y-112167513D01*
X144057312Y-112096299D01*
X144082430Y-112050194D01*
X144120440Y-112029635D01*
X144134008Y-112028514D01*
X144169636Y-112034152D01*
X144194006Y-112053686D01*
X144208907Y-112091042D01*
X144216125Y-112150150D01*
X144217571Y-112212192D01*
X144362678Y-112212192D01*
X144362174Y-112142413D01*
X144359904Y-112090159D01*
X144354932Y-112053949D01*
X144346287Y-112027299D01*
X144332995Y-112003722D01*
X144330057Y-111999338D01*
X144280687Y-111940249D01*
X144226891Y-111905947D01*
X144161398Y-111892331D01*
X144139158Y-111891665D01*
X144055885Y-111903962D01*
X144055885Y-111903962D01*
G37*
X144055885Y-111903962D02*
X143987855Y-111939733D01*
X143937649Y-111997301D01*
X143919815Y-112034312D01*
X143905937Y-112089882D01*
X143898833Y-112160096D01*
X143898160Y-112236727D01*
X143903573Y-112311552D01*
X143914730Y-112376342D01*
X143931286Y-112422873D01*
X143936374Y-112430887D01*
X143996645Y-112490707D01*
X144068231Y-112526535D01*
X144145908Y-112537020D01*
X144224452Y-112520810D01*
X144246311Y-112511092D01*
X144288878Y-112481143D01*
X144326237Y-112441433D01*
X144329768Y-112436397D01*
X144344119Y-112412124D01*
X144353606Y-112386178D01*
X144359210Y-112352022D01*
X144361914Y-112303119D01*
X144362701Y-112232935D01*
X144362714Y-112217200D01*
X144362678Y-112212192D01*
X144217571Y-112212192D01*
X144216727Y-112278430D01*
X144213404Y-112322386D01*
X144206417Y-112350779D01*
X144194584Y-112370325D01*
X144188543Y-112376857D01*
X144153814Y-112401680D01*
X144120097Y-112400548D01*
X144086005Y-112379016D01*
X144065671Y-112356029D01*
X144053629Y-112322478D01*
X144046866Y-112269569D01*
X144046402Y-112263399D01*
X144045248Y-112167513D01*
X144057312Y-112096299D01*
X144082430Y-112050194D01*
X144120440Y-112029635D01*
X144134008Y-112028514D01*
X144169636Y-112034152D01*
X144194006Y-112053686D01*
X144208907Y-112091042D01*
X144216125Y-112150150D01*
X144217571Y-112212192D01*
X144362678Y-112212192D01*
X144362174Y-112142413D01*
X144359904Y-112090159D01*
X144354932Y-112053949D01*
X144346287Y-112027299D01*
X144332995Y-112003722D01*
X144330057Y-111999338D01*
X144280687Y-111940249D01*
X144226891Y-111905947D01*
X144161398Y-111892331D01*
X144139158Y-111891665D01*
X144055885Y-111903962D01*
G36*
X142928697Y-111913239D02*
G01*
X142871473Y-111951735D01*
X142827251Y-112007335D01*
X142800833Y-112078086D01*
X142795490Y-112130162D01*
X142796097Y-112151893D01*
X142801178Y-112168531D01*
X142815145Y-112183437D01*
X142842411Y-112199973D01*
X142887388Y-112221498D01*
X142954489Y-112251374D01*
X142954829Y-112251524D01*
X143016593Y-112279813D01*
X143067241Y-112304933D01*
X143101596Y-112324179D01*
X143114482Y-112334848D01*
X143114486Y-112334934D01*
X143103128Y-112358166D01*
X143076569Y-112383774D01*
X143046077Y-112402221D01*
X143030630Y-112405886D01*
X142988485Y-112393212D01*
X142952192Y-112361471D01*
X142934483Y-112326572D01*
X142917448Y-112300845D01*
X142884078Y-112271546D01*
X142844851Y-112246235D01*
X142810244Y-112232471D01*
X142803007Y-112231714D01*
X142794861Y-112244160D01*
X142794370Y-112275972D01*
X142800357Y-112318866D01*
X142811643Y-112364558D01*
X142827050Y-112404761D01*
X142827829Y-112406322D01*
X142874196Y-112471062D01*
X142934289Y-112515097D01*
X143002535Y-112536711D01*
X143073362Y-112534185D01*
X143141196Y-112505804D01*
X143144212Y-112503808D01*
X143197573Y-112455448D01*
X143232660Y-112392352D01*
X143252078Y-112309387D01*
X143254684Y-112286078D01*
X143259299Y-112176055D01*
X143253767Y-112124748D01*
X143114486Y-112124748D01*
X143112676Y-112156753D01*
X143102778Y-112166093D01*
X143078102Y-112159105D01*
X143039205Y-112142587D01*
X142995725Y-112121881D01*
X142994644Y-112121333D01*
X142957791Y-112101949D01*
X142943000Y-112089013D01*
X142946647Y-112075451D01*
X142962005Y-112057632D01*
X143001077Y-112031845D01*
X143043154Y-112029950D01*
X143080897Y-112048717D01*
X143106966Y-112084915D01*
X143114486Y-112124748D01*
X143253767Y-112124748D01*
X143249806Y-112088027D01*
X143225450Y-112018212D01*
X143191544Y-111969302D01*
X143130347Y-111919878D01*
X143062937Y-111895359D01*
X142994120Y-111893797D01*
X142928697Y-111913239D01*
X142928697Y-111913239D01*
G37*
X142928697Y-111913239D02*
X142871473Y-111951735D01*
X142827251Y-112007335D01*
X142800833Y-112078086D01*
X142795490Y-112130162D01*
X142796097Y-112151893D01*
X142801178Y-112168531D01*
X142815145Y-112183437D01*
X142842411Y-112199973D01*
X142887388Y-112221498D01*
X142954489Y-112251374D01*
X142954829Y-112251524D01*
X143016593Y-112279813D01*
X143067241Y-112304933D01*
X143101596Y-112324179D01*
X143114482Y-112334848D01*
X143114486Y-112334934D01*
X143103128Y-112358166D01*
X143076569Y-112383774D01*
X143046077Y-112402221D01*
X143030630Y-112405886D01*
X142988485Y-112393212D01*
X142952192Y-112361471D01*
X142934483Y-112326572D01*
X142917448Y-112300845D01*
X142884078Y-112271546D01*
X142844851Y-112246235D01*
X142810244Y-112232471D01*
X142803007Y-112231714D01*
X142794861Y-112244160D01*
X142794370Y-112275972D01*
X142800357Y-112318866D01*
X142811643Y-112364558D01*
X142827050Y-112404761D01*
X142827829Y-112406322D01*
X142874196Y-112471062D01*
X142934289Y-112515097D01*
X143002535Y-112536711D01*
X143073362Y-112534185D01*
X143141196Y-112505804D01*
X143144212Y-112503808D01*
X143197573Y-112455448D01*
X143232660Y-112392352D01*
X143252078Y-112309387D01*
X143254684Y-112286078D01*
X143259299Y-112176055D01*
X143253767Y-112124748D01*
X143114486Y-112124748D01*
X143112676Y-112156753D01*
X143102778Y-112166093D01*
X143078102Y-112159105D01*
X143039205Y-112142587D01*
X142995725Y-112121881D01*
X142994644Y-112121333D01*
X142957791Y-112101949D01*
X142943000Y-112089013D01*
X142946647Y-112075451D01*
X142962005Y-112057632D01*
X143001077Y-112031845D01*
X143043154Y-112029950D01*
X143080897Y-112048717D01*
X143106966Y-112084915D01*
X143114486Y-112124748D01*
X143253767Y-112124748D01*
X143249806Y-112088027D01*
X143225450Y-112018212D01*
X143191544Y-111969302D01*
X143130347Y-111919878D01*
X143062937Y-111895359D01*
X142994120Y-111893797D01*
X142928697Y-111913239D01*
G36*
X141721114Y-111833289D02*
G01*
X141716861Y-111892613D01*
X141711975Y-111927572D01*
X141705205Y-111942820D01*
X141695298Y-111943015D01*
X141692086Y-111941195D01*
X141649356Y-111928015D01*
X141593773Y-111928785D01*
X141537263Y-111942333D01*
X141501918Y-111959861D01*
X141465679Y-111987861D01*
X141439187Y-112019549D01*
X141421001Y-112059813D01*
X141409678Y-112113543D01*
X141403778Y-112185626D01*
X141401857Y-112280951D01*
X141401823Y-112299237D01*
X141401800Y-112504646D01*
X141447509Y-112520580D01*
X141479973Y-112531420D01*
X141497785Y-112536468D01*
X141498309Y-112536514D01*
X141500063Y-112522828D01*
X141501556Y-112485076D01*
X141502674Y-112428224D01*
X141503303Y-112357234D01*
X141503400Y-112314073D01*
X141503602Y-112228973D01*
X141504642Y-112167981D01*
X141507169Y-112126177D01*
X141511836Y-112098642D01*
X141519293Y-112080456D01*
X141530189Y-112066698D01*
X141536993Y-112060073D01*
X141583728Y-112033375D01*
X141634728Y-112031375D01*
X141680999Y-112053955D01*
X141689556Y-112062107D01*
X141702107Y-112077436D01*
X141710812Y-112095618D01*
X141716369Y-112121909D01*
X141719474Y-112161562D01*
X141720824Y-112219832D01*
X141721114Y-112300173D01*
X141721114Y-112504646D01*
X141766823Y-112520580D01*
X141799287Y-112531420D01*
X141817099Y-112536468D01*
X141817623Y-112536514D01*
X141818963Y-112522623D01*
X141820172Y-112483439D01*
X141821199Y-112422700D01*
X141821998Y-112344141D01*
X141822519Y-112251498D01*
X141822714Y-112148509D01*
X141822714Y-111751342D01*
X141775543Y-111731444D01*
X141728371Y-111711547D01*
X141721114Y-111833289D01*
X141721114Y-111833289D01*
G37*
X141721114Y-111833289D02*
X141716861Y-111892613D01*
X141711975Y-111927572D01*
X141705205Y-111942820D01*
X141695298Y-111943015D01*
X141692086Y-111941195D01*
X141649356Y-111928015D01*
X141593773Y-111928785D01*
X141537263Y-111942333D01*
X141501918Y-111959861D01*
X141465679Y-111987861D01*
X141439187Y-112019549D01*
X141421001Y-112059813D01*
X141409678Y-112113543D01*
X141403778Y-112185626D01*
X141401857Y-112280951D01*
X141401823Y-112299237D01*
X141401800Y-112504646D01*
X141447509Y-112520580D01*
X141479973Y-112531420D01*
X141497785Y-112536468D01*
X141498309Y-112536514D01*
X141500063Y-112522828D01*
X141501556Y-112485076D01*
X141502674Y-112428224D01*
X141503303Y-112357234D01*
X141503400Y-112314073D01*
X141503602Y-112228973D01*
X141504642Y-112167981D01*
X141507169Y-112126177D01*
X141511836Y-112098642D01*
X141519293Y-112080456D01*
X141530189Y-112066698D01*
X141536993Y-112060073D01*
X141583728Y-112033375D01*
X141634728Y-112031375D01*
X141680999Y-112053955D01*
X141689556Y-112062107D01*
X141702107Y-112077436D01*
X141710812Y-112095618D01*
X141716369Y-112121909D01*
X141719474Y-112161562D01*
X141720824Y-112219832D01*
X141721114Y-112300173D01*
X141721114Y-112504646D01*
X141766823Y-112520580D01*
X141799287Y-112531420D01*
X141817099Y-112536468D01*
X141817623Y-112536514D01*
X141818963Y-112522623D01*
X141820172Y-112483439D01*
X141821199Y-112422700D01*
X141821998Y-112344141D01*
X141822519Y-112251498D01*
X141822714Y-112148509D01*
X141822714Y-111751342D01*
X141775543Y-111731444D01*
X141728371Y-111711547D01*
X141721114Y-111833289D01*
G36*
X141057256Y-111932968D02*
G01*
X141000384Y-111954087D01*
X140999733Y-111954493D01*
X140964560Y-111980380D01*
X140938593Y-112010633D01*
X140920330Y-112050058D01*
X140908268Y-112103462D01*
X140900904Y-112175651D01*
X140896736Y-112271432D01*
X140896371Y-112285078D01*
X140891124Y-112490842D01*
X140935284Y-112513678D01*
X140967237Y-112529110D01*
X140986530Y-112536423D01*
X140987422Y-112536514D01*
X140990761Y-112523022D01*
X140993413Y-112486626D01*
X140995044Y-112433452D01*
X140995400Y-112390393D01*
X140995408Y-112320641D01*
X140998597Y-112276837D01*
X141009712Y-112255944D01*
X141033499Y-112254925D01*
X141074704Y-112270741D01*
X141136914Y-112299815D01*
X141182659Y-112323963D01*
X141206187Y-112344913D01*
X141213104Y-112367747D01*
X141213114Y-112368877D01*
X141201701Y-112408212D01*
X141167908Y-112429462D01*
X141116191Y-112432539D01*
X141078939Y-112432006D01*
X141059297Y-112442735D01*
X141047048Y-112468505D01*
X141039998Y-112501337D01*
X141050158Y-112519966D01*
X141053983Y-112522632D01*
X141089999Y-112533340D01*
X141140434Y-112534856D01*
X141192374Y-112527759D01*
X141229178Y-112514788D01*
X141280062Y-112471585D01*
X141308986Y-112411446D01*
X141314714Y-112364462D01*
X141310343Y-112322082D01*
X141294525Y-112287488D01*
X141263203Y-112256763D01*
X141212322Y-112225990D01*
X141137824Y-112191252D01*
X141133286Y-112189288D01*
X141066179Y-112158287D01*
X141024768Y-112132862D01*
X141007019Y-112110014D01*
X141010893Y-112086745D01*
X141034357Y-112060056D01*
X141041373Y-112053914D01*
X141088370Y-112030100D01*
X141137067Y-112031103D01*
X141179478Y-112054451D01*
X141207616Y-112097675D01*
X141210231Y-112106160D01*
X141235692Y-112147308D01*
X141267999Y-112167128D01*
X141314714Y-112186770D01*
X141314714Y-112135950D01*
X141300504Y-112062082D01*
X141258325Y-111994327D01*
X141236376Y-111971661D01*
X141186483Y-111942569D01*
X141123033Y-111929400D01*
X141057256Y-111932968D01*
X141057256Y-111932968D01*
G37*
X141057256Y-111932968D02*
X141000384Y-111954087D01*
X140999733Y-111954493D01*
X140964560Y-111980380D01*
X140938593Y-112010633D01*
X140920330Y-112050058D01*
X140908268Y-112103462D01*
X140900904Y-112175651D01*
X140896736Y-112271432D01*
X140896371Y-112285078D01*
X140891124Y-112490842D01*
X140935284Y-112513678D01*
X140967237Y-112529110D01*
X140986530Y-112536423D01*
X140987422Y-112536514D01*
X140990761Y-112523022D01*
X140993413Y-112486626D01*
X140995044Y-112433452D01*
X140995400Y-112390393D01*
X140995408Y-112320641D01*
X140998597Y-112276837D01*
X141009712Y-112255944D01*
X141033499Y-112254925D01*
X141074704Y-112270741D01*
X141136914Y-112299815D01*
X141182659Y-112323963D01*
X141206187Y-112344913D01*
X141213104Y-112367747D01*
X141213114Y-112368877D01*
X141201701Y-112408212D01*
X141167908Y-112429462D01*
X141116191Y-112432539D01*
X141078939Y-112432006D01*
X141059297Y-112442735D01*
X141047048Y-112468505D01*
X141039998Y-112501337D01*
X141050158Y-112519966D01*
X141053983Y-112522632D01*
X141089999Y-112533340D01*
X141140434Y-112534856D01*
X141192374Y-112527759D01*
X141229178Y-112514788D01*
X141280062Y-112471585D01*
X141308986Y-112411446D01*
X141314714Y-112364462D01*
X141310343Y-112322082D01*
X141294525Y-112287488D01*
X141263203Y-112256763D01*
X141212322Y-112225990D01*
X141137824Y-112191252D01*
X141133286Y-112189288D01*
X141066179Y-112158287D01*
X141024768Y-112132862D01*
X141007019Y-112110014D01*
X141010893Y-112086745D01*
X141034357Y-112060056D01*
X141041373Y-112053914D01*
X141088370Y-112030100D01*
X141137067Y-112031103D01*
X141179478Y-112054451D01*
X141207616Y-112097675D01*
X141210231Y-112106160D01*
X141235692Y-112147308D01*
X141267999Y-112167128D01*
X141314714Y-112186770D01*
X141314714Y-112135950D01*
X141300504Y-112062082D01*
X141258325Y-111994327D01*
X141236376Y-111971661D01*
X141186483Y-111942569D01*
X141123033Y-111929400D01*
X141057256Y-111932968D01*
G36*
X140567074Y-111931755D02*
G01*
X140501142Y-111956084D01*
X140447727Y-111999117D01*
X140426836Y-112029409D01*
X140404061Y-112084994D01*
X140404534Y-112125186D01*
X140428438Y-112152217D01*
X140437283Y-112156813D01*
X140475470Y-112171144D01*
X140494972Y-112167472D01*
X140501578Y-112143407D01*
X140501914Y-112130114D01*
X140514008Y-112081210D01*
X140545529Y-112046999D01*
X140589341Y-112030476D01*
X140638305Y-112034634D01*
X140678106Y-112056227D01*
X140691550Y-112068544D01*
X140701079Y-112083487D01*
X140707515Y-112106075D01*
X140711683Y-112141328D01*
X140714403Y-112194266D01*
X140716498Y-112269907D01*
X140717040Y-112293857D01*
X140719019Y-112375790D01*
X140721269Y-112433455D01*
X140724643Y-112471608D01*
X140729994Y-112495004D01*
X140738176Y-112508398D01*
X140750041Y-112516545D01*
X140757638Y-112520144D01*
X140789898Y-112532452D01*
X140808889Y-112536514D01*
X140815164Y-112522948D01*
X140818994Y-112481934D01*
X140820400Y-112412999D01*
X140819402Y-112315669D01*
X140819092Y-112300657D01*
X140816899Y-112211859D01*
X140814307Y-112147019D01*
X140810618Y-112101067D01*
X140805136Y-112068935D01*
X140797165Y-112045553D01*
X140786007Y-112025852D01*
X140780170Y-112017410D01*
X140746704Y-111980057D01*
X140709273Y-111951003D01*
X140704691Y-111948467D01*
X140637574Y-111928443D01*
X140567074Y-111931755D01*
X140567074Y-111931755D01*
G37*
X140567074Y-111931755D02*
X140501142Y-111956084D01*
X140447727Y-111999117D01*
X140426836Y-112029409D01*
X140404061Y-112084994D01*
X140404534Y-112125186D01*
X140428438Y-112152217D01*
X140437283Y-112156813D01*
X140475470Y-112171144D01*
X140494972Y-112167472D01*
X140501578Y-112143407D01*
X140501914Y-112130114D01*
X140514008Y-112081210D01*
X140545529Y-112046999D01*
X140589341Y-112030476D01*
X140638305Y-112034634D01*
X140678106Y-112056227D01*
X140691550Y-112068544D01*
X140701079Y-112083487D01*
X140707515Y-112106075D01*
X140711683Y-112141328D01*
X140714403Y-112194266D01*
X140716498Y-112269907D01*
X140717040Y-112293857D01*
X140719019Y-112375790D01*
X140721269Y-112433455D01*
X140724643Y-112471608D01*
X140729994Y-112495004D01*
X140738176Y-112508398D01*
X140750041Y-112516545D01*
X140757638Y-112520144D01*
X140789898Y-112532452D01*
X140808889Y-112536514D01*
X140815164Y-112522948D01*
X140818994Y-112481934D01*
X140820400Y-112412999D01*
X140819402Y-112315669D01*
X140819092Y-112300657D01*
X140816899Y-112211859D01*
X140814307Y-112147019D01*
X140810618Y-112101067D01*
X140805136Y-112068935D01*
X140797165Y-112045553D01*
X140786007Y-112025852D01*
X140780170Y-112017410D01*
X140746704Y-111980057D01*
X140709273Y-111951003D01*
X140704691Y-111948467D01*
X140637574Y-111928443D01*
X140567074Y-111931755D01*
G36*
X139906883Y-112047358D02*
G01*
X139907067Y-112155837D01*
X139907781Y-112239287D01*
X139909325Y-112301704D01*
X139911999Y-112347085D01*
X139916106Y-112379429D01*
X139921945Y-112402733D01*
X139929818Y-112420995D01*
X139935779Y-112431418D01*
X139985145Y-112487945D01*
X140047736Y-112523377D01*
X140116987Y-112536090D01*
X140186332Y-112524463D01*
X140227625Y-112503568D01*
X140270975Y-112467422D01*
X140300519Y-112423276D01*
X140318345Y-112365462D01*
X140326537Y-112288313D01*
X140327698Y-112231714D01*
X140327542Y-112227647D01*
X140226143Y-112227647D01*
X140225524Y-112292550D01*
X140222686Y-112335514D01*
X140216160Y-112363622D01*
X140204477Y-112383953D01*
X140190517Y-112399288D01*
X140143635Y-112428890D01*
X140093299Y-112431419D01*
X140045724Y-112406705D01*
X140042021Y-112403356D01*
X140026217Y-112385935D01*
X140016307Y-112365209D01*
X140010942Y-112334362D01*
X140008772Y-112286577D01*
X140008429Y-112233748D01*
X140009173Y-112167381D01*
X140012252Y-112123106D01*
X140018939Y-112094009D01*
X140030504Y-112073173D01*
X140039987Y-112062107D01*
X140084040Y-112034198D01*
X140134776Y-112030843D01*
X140183204Y-112052159D01*
X140192550Y-112060073D01*
X140208460Y-112077647D01*
X140218390Y-112098587D01*
X140223722Y-112129782D01*
X140225837Y-112178122D01*
X140226143Y-112227647D01*
X140327542Y-112227647D01*
X140324190Y-112140568D01*
X140312274Y-112072086D01*
X140289865Y-112020600D01*
X140254876Y-111980443D01*
X140227625Y-111959861D01*
X140178093Y-111937625D01*
X140120684Y-111927304D01*
X140067318Y-111930067D01*
X140037457Y-111941212D01*
X140025739Y-111944383D01*
X140017963Y-111932557D01*
X140012535Y-111900866D01*
X140008429Y-111852593D01*
X140003933Y-111798829D01*
X139997687Y-111766482D01*
X139986324Y-111747985D01*
X139966472Y-111735770D01*
X139954000Y-111730362D01*
X139906829Y-111710601D01*
X139906883Y-112047358D01*
X139906883Y-112047358D01*
G37*
X139906883Y-112047358D02*
X139907067Y-112155837D01*
X139907781Y-112239287D01*
X139909325Y-112301704D01*
X139911999Y-112347085D01*
X139916106Y-112379429D01*
X139921945Y-112402733D01*
X139929818Y-112420995D01*
X139935779Y-112431418D01*
X139985145Y-112487945D01*
X140047736Y-112523377D01*
X140116987Y-112536090D01*
X140186332Y-112524463D01*
X140227625Y-112503568D01*
X140270975Y-112467422D01*
X140300519Y-112423276D01*
X140318345Y-112365462D01*
X140326537Y-112288313D01*
X140327698Y-112231714D01*
X140327542Y-112227647D01*
X140226143Y-112227647D01*
X140225524Y-112292550D01*
X140222686Y-112335514D01*
X140216160Y-112363622D01*
X140204477Y-112383953D01*
X140190517Y-112399288D01*
X140143635Y-112428890D01*
X140093299Y-112431419D01*
X140045724Y-112406705D01*
X140042021Y-112403356D01*
X140026217Y-112385935D01*
X140016307Y-112365209D01*
X140010942Y-112334362D01*
X140008772Y-112286577D01*
X140008429Y-112233748D01*
X140009173Y-112167381D01*
X140012252Y-112123106D01*
X140018939Y-112094009D01*
X140030504Y-112073173D01*
X140039987Y-112062107D01*
X140084040Y-112034198D01*
X140134776Y-112030843D01*
X140183204Y-112052159D01*
X140192550Y-112060073D01*
X140208460Y-112077647D01*
X140218390Y-112098587D01*
X140223722Y-112129782D01*
X140225837Y-112178122D01*
X140226143Y-112227647D01*
X140327542Y-112227647D01*
X140324190Y-112140568D01*
X140312274Y-112072086D01*
X140289865Y-112020600D01*
X140254876Y-111980443D01*
X140227625Y-111959861D01*
X140178093Y-111937625D01*
X140120684Y-111927304D01*
X140067318Y-111930067D01*
X140037457Y-111941212D01*
X140025739Y-111944383D01*
X140017963Y-111932557D01*
X140012535Y-111900866D01*
X140008429Y-111852593D01*
X140003933Y-111798829D01*
X139997687Y-111766482D01*
X139986324Y-111747985D01*
X139966472Y-111735770D01*
X139954000Y-111730362D01*
X139906829Y-111710601D01*
X139906883Y-112047358D01*
G36*
X139317167Y-111940663D02*
G01*
X139314952Y-111978850D01*
X139313216Y-112036886D01*
X139312101Y-112110180D01*
X139311743Y-112187055D01*
X139311743Y-112447196D01*
X139357674Y-112493127D01*
X139389325Y-112521429D01*
X139417110Y-112532893D01*
X139455085Y-112532168D01*
X139470160Y-112530321D01*
X139517274Y-112524948D01*
X139556244Y-112521869D01*
X139565743Y-112521585D01*
X139597767Y-112523445D01*
X139643568Y-112528114D01*
X139661326Y-112530321D01*
X139704943Y-112533735D01*
X139734255Y-112526320D01*
X139763320Y-112503427D01*
X139773812Y-112493127D01*
X139819743Y-112447196D01*
X139819743Y-111960602D01*
X139782774Y-111943758D01*
X139750941Y-111931282D01*
X139732317Y-111926914D01*
X139727542Y-111940718D01*
X139723079Y-111979286D01*
X139719225Y-112038356D01*
X139716278Y-112113663D01*
X139714857Y-112177286D01*
X139710886Y-112427657D01*
X139676241Y-112432556D01*
X139644732Y-112429131D01*
X139629292Y-112418041D01*
X139624977Y-112397308D01*
X139621292Y-112353145D01*
X139618531Y-112291146D01*
X139616988Y-112216909D01*
X139616765Y-112178706D01*
X139616543Y-111958783D01*
X139570834Y-111942849D01*
X139538482Y-111932015D01*
X139520885Y-111926962D01*
X139520377Y-111926914D01*
X139518612Y-111940648D01*
X139516671Y-111978730D01*
X139514718Y-112036482D01*
X139512916Y-112109227D01*
X139511657Y-112177286D01*
X139507686Y-112427657D01*
X139420600Y-112427657D01*
X139416604Y-112199240D01*
X139412608Y-111970822D01*
X139370153Y-111948868D01*
X139338808Y-111933793D01*
X139320256Y-111926951D01*
X139319721Y-111926914D01*
X139317167Y-111940663D01*
X139317167Y-111940663D01*
G37*
X139317167Y-111940663D02*
X139314952Y-111978850D01*
X139313216Y-112036886D01*
X139312101Y-112110180D01*
X139311743Y-112187055D01*
X139311743Y-112447196D01*
X139357674Y-112493127D01*
X139389325Y-112521429D01*
X139417110Y-112532893D01*
X139455085Y-112532168D01*
X139470160Y-112530321D01*
X139517274Y-112524948D01*
X139556244Y-112521869D01*
X139565743Y-112521585D01*
X139597767Y-112523445D01*
X139643568Y-112528114D01*
X139661326Y-112530321D01*
X139704943Y-112533735D01*
X139734255Y-112526320D01*
X139763320Y-112503427D01*
X139773812Y-112493127D01*
X139819743Y-112447196D01*
X139819743Y-111960602D01*
X139782774Y-111943758D01*
X139750941Y-111931282D01*
X139732317Y-111926914D01*
X139727542Y-111940718D01*
X139723079Y-111979286D01*
X139719225Y-112038356D01*
X139716278Y-112113663D01*
X139714857Y-112177286D01*
X139710886Y-112427657D01*
X139676241Y-112432556D01*
X139644732Y-112429131D01*
X139629292Y-112418041D01*
X139624977Y-112397308D01*
X139621292Y-112353145D01*
X139618531Y-112291146D01*
X139616988Y-112216909D01*
X139616765Y-112178706D01*
X139616543Y-111958783D01*
X139570834Y-111942849D01*
X139538482Y-111932015D01*
X139520885Y-111926962D01*
X139520377Y-111926914D01*
X139518612Y-111940648D01*
X139516671Y-111978730D01*
X139514718Y-112036482D01*
X139512916Y-112109227D01*
X139511657Y-112177286D01*
X139507686Y-112427657D01*
X139420600Y-112427657D01*
X139416604Y-112199240D01*
X139412608Y-111970822D01*
X139370153Y-111948868D01*
X139338808Y-111933793D01*
X139320256Y-111926951D01*
X139319721Y-111926914D01*
X139317167Y-111940663D01*
G36*
X138952124Y-111938335D02*
G01*
X138910333Y-111957344D01*
X138877531Y-111980378D01*
X138853497Y-112006133D01*
X138836903Y-112039358D01*
X138826423Y-112084800D01*
X138820729Y-112147207D01*
X138818493Y-112231327D01*
X138818257Y-112286721D01*
X138818257Y-112502826D01*
X138855226Y-112519670D01*
X138884344Y-112531981D01*
X138898769Y-112536514D01*
X138901528Y-112523025D01*
X138903718Y-112486653D01*
X138905058Y-112433542D01*
X138905343Y-112391372D01*
X138906566Y-112330447D01*
X138909864Y-112282115D01*
X138914679Y-112252518D01*
X138918504Y-112246229D01*
X138944217Y-112252652D01*
X138984582Y-112269125D01*
X139031321Y-112291458D01*
X139076155Y-112315457D01*
X139110807Y-112336930D01*
X139126998Y-112351685D01*
X139127062Y-112351845D01*
X139125670Y-112379152D01*
X139113182Y-112405219D01*
X139091257Y-112426392D01*
X139059257Y-112433474D01*
X139031908Y-112432649D01*
X138993174Y-112432042D01*
X138972842Y-112441116D01*
X138960631Y-112465092D01*
X138959091Y-112469613D01*
X138953797Y-112503806D01*
X138967953Y-112524568D01*
X139004852Y-112534462D01*
X139044711Y-112536292D01*
X139116438Y-112522727D01*
X139153568Y-112503355D01*
X139199424Y-112457845D01*
X139223744Y-112401983D01*
X139225927Y-112342957D01*
X139205371Y-112287953D01*
X139174451Y-112253486D01*
X139143580Y-112234189D01*
X139095058Y-112209759D01*
X139038515Y-112184985D01*
X139029090Y-112181199D01*
X138966981Y-112153791D01*
X138931178Y-112129634D01*
X138919663Y-112105619D01*
X138930420Y-112078635D01*
X138948886Y-112057543D01*
X138992531Y-112031572D01*
X139040554Y-112029624D01*
X139084594Y-112049637D01*
X139116291Y-112089551D01*
X139120451Y-112099848D01*
X139144673Y-112137724D01*
X139180035Y-112165842D01*
X139224657Y-112188917D01*
X139224657Y-112123485D01*
X139222031Y-112083506D01*
X139210770Y-112051997D01*
X139185801Y-112018378D01*
X139161831Y-111992484D01*
X139124559Y-111955817D01*
X139095599Y-111936121D01*
X139064495Y-111928220D01*
X139029287Y-111926914D01*
X138952124Y-111938335D01*
X138952124Y-111938335D01*
G37*
X138952124Y-111938335D02*
X138910333Y-111957344D01*
X138877531Y-111980378D01*
X138853497Y-112006133D01*
X138836903Y-112039358D01*
X138826423Y-112084800D01*
X138820729Y-112147207D01*
X138818493Y-112231327D01*
X138818257Y-112286721D01*
X138818257Y-112502826D01*
X138855226Y-112519670D01*
X138884344Y-112531981D01*
X138898769Y-112536514D01*
X138901528Y-112523025D01*
X138903718Y-112486653D01*
X138905058Y-112433542D01*
X138905343Y-112391372D01*
X138906566Y-112330447D01*
X138909864Y-112282115D01*
X138914679Y-112252518D01*
X138918504Y-112246229D01*
X138944217Y-112252652D01*
X138984582Y-112269125D01*
X139031321Y-112291458D01*
X139076155Y-112315457D01*
X139110807Y-112336930D01*
X139126998Y-112351685D01*
X139127062Y-112351845D01*
X139125670Y-112379152D01*
X139113182Y-112405219D01*
X139091257Y-112426392D01*
X139059257Y-112433474D01*
X139031908Y-112432649D01*
X138993174Y-112432042D01*
X138972842Y-112441116D01*
X138960631Y-112465092D01*
X138959091Y-112469613D01*
X138953797Y-112503806D01*
X138967953Y-112524568D01*
X139004852Y-112534462D01*
X139044711Y-112536292D01*
X139116438Y-112522727D01*
X139153568Y-112503355D01*
X139199424Y-112457845D01*
X139223744Y-112401983D01*
X139225927Y-112342957D01*
X139205371Y-112287953D01*
X139174451Y-112253486D01*
X139143580Y-112234189D01*
X139095058Y-112209759D01*
X139038515Y-112184985D01*
X139029090Y-112181199D01*
X138966981Y-112153791D01*
X138931178Y-112129634D01*
X138919663Y-112105619D01*
X138930420Y-112078635D01*
X138948886Y-112057543D01*
X138992531Y-112031572D01*
X139040554Y-112029624D01*
X139084594Y-112049637D01*
X139116291Y-112089551D01*
X139120451Y-112099848D01*
X139144673Y-112137724D01*
X139180035Y-112165842D01*
X139224657Y-112188917D01*
X139224657Y-112123485D01*
X139222031Y-112083506D01*
X139210770Y-112051997D01*
X139185801Y-112018378D01*
X139161831Y-111992484D01*
X139124559Y-111955817D01*
X139095599Y-111936121D01*
X139064495Y-111928220D01*
X139029287Y-111926914D01*
X138952124Y-111938335D01*
G36*
X138444400Y-111940752D02*
G01*
X138427052Y-111948334D01*
X138385644Y-111981128D01*
X138350235Y-112028547D01*
X138328336Y-112079151D01*
X138324771Y-112104098D01*
X138336721Y-112138927D01*
X138362933Y-112157357D01*
X138391036Y-112168516D01*
X138403905Y-112170572D01*
X138410171Y-112155649D01*
X138422544Y-112123175D01*
X138427972Y-112108502D01*
X138458410Y-112057744D01*
X138502480Y-112032427D01*
X138558990Y-112033206D01*
X138563175Y-112034203D01*
X138593345Y-112048507D01*
X138615524Y-112076393D01*
X138630673Y-112121287D01*
X138639750Y-112186615D01*
X138643714Y-112275804D01*
X138644086Y-112323261D01*
X138644270Y-112398071D01*
X138645478Y-112449069D01*
X138648691Y-112481471D01*
X138654891Y-112500495D01*
X138665060Y-112511356D01*
X138680181Y-112519272D01*
X138681054Y-112519670D01*
X138710172Y-112531981D01*
X138724597Y-112536514D01*
X138726814Y-112522809D01*
X138728711Y-112484925D01*
X138730153Y-112427715D01*
X138731002Y-112356027D01*
X138731171Y-112303565D01*
X138730308Y-112202047D01*
X138726930Y-112125032D01*
X138719858Y-112068023D01*
X138707912Y-112026526D01*
X138689910Y-111996043D01*
X138664673Y-111972080D01*
X138639753Y-111955355D01*
X138579829Y-111933097D01*
X138510089Y-111928076D01*
X138444400Y-111940752D01*
X138444400Y-111940752D01*
G37*
X138444400Y-111940752D02*
X138427052Y-111948334D01*
X138385644Y-111981128D01*
X138350235Y-112028547D01*
X138328336Y-112079151D01*
X138324771Y-112104098D01*
X138336721Y-112138927D01*
X138362933Y-112157357D01*
X138391036Y-112168516D01*
X138403905Y-112170572D01*
X138410171Y-112155649D01*
X138422544Y-112123175D01*
X138427972Y-112108502D01*
X138458410Y-112057744D01*
X138502480Y-112032427D01*
X138558990Y-112033206D01*
X138563175Y-112034203D01*
X138593345Y-112048507D01*
X138615524Y-112076393D01*
X138630673Y-112121287D01*
X138639750Y-112186615D01*
X138643714Y-112275804D01*
X138644086Y-112323261D01*
X138644270Y-112398071D01*
X138645478Y-112449069D01*
X138648691Y-112481471D01*
X138654891Y-112500495D01*
X138665060Y-112511356D01*
X138680181Y-112519272D01*
X138681054Y-112519670D01*
X138710172Y-112531981D01*
X138724597Y-112536514D01*
X138726814Y-112522809D01*
X138728711Y-112484925D01*
X138730153Y-112427715D01*
X138731002Y-112356027D01*
X138731171Y-112303565D01*
X138730308Y-112202047D01*
X138726930Y-112125032D01*
X138719858Y-112068023D01*
X138707912Y-112026526D01*
X138689910Y-111996043D01*
X138664673Y-111972080D01*
X138639753Y-111955355D01*
X138579829Y-111933097D01*
X138510089Y-111928076D01*
X138444400Y-111940752D01*
G36*
X137943405Y-111948966D02*
G01*
X137885979Y-111986497D01*
X137858281Y-112020096D01*
X137836338Y-112081064D01*
X137834595Y-112129308D01*
X137838543Y-112193816D01*
X137987314Y-112258934D01*
X138059651Y-112292202D01*
X138106916Y-112318964D01*
X138131493Y-112342144D01*
X138135763Y-112364667D01*
X138122111Y-112389455D01*
X138107057Y-112405886D01*
X138063254Y-112432235D01*
X138015611Y-112434081D01*
X137971855Y-112413546D01*
X137939711Y-112372752D01*
X137933962Y-112358347D01*
X137906424Y-112313356D01*
X137874742Y-112294182D01*
X137831286Y-112277779D01*
X137831286Y-112339966D01*
X137835128Y-112382283D01*
X137850177Y-112417969D01*
X137881720Y-112458943D01*
X137886408Y-112464267D01*
X137921494Y-112500720D01*
X137951653Y-112520283D01*
X137989385Y-112529283D01*
X138020665Y-112532230D01*
X138076615Y-112532965D01*
X138116445Y-112523660D01*
X138141292Y-112509846D01*
X138180344Y-112479467D01*
X138207375Y-112446613D01*
X138224483Y-112405294D01*
X138233762Y-112349521D01*
X138237307Y-112273305D01*
X138237590Y-112234622D01*
X138236628Y-112188247D01*
X138148993Y-112188247D01*
X138147977Y-112213126D01*
X138145444Y-112217200D01*
X138128726Y-112211665D01*
X138092751Y-112197017D01*
X138044669Y-112176190D01*
X138034614Y-112171714D01*
X137973848Y-112140814D01*
X137940368Y-112113657D01*
X137933010Y-112088220D01*
X137950609Y-112062481D01*
X137965144Y-112051109D01*
X138017590Y-112028364D01*
X138066678Y-112032122D01*
X138107773Y-112059884D01*
X138136242Y-112109152D01*
X138145369Y-112148257D01*
X138148993Y-112188247D01*
X138236628Y-112188247D01*
X138235715Y-112144249D01*
X138228804Y-112077384D01*
X138215116Y-112028695D01*
X138192904Y-111992849D01*
X138160426Y-111964513D01*
X138146267Y-111955355D01*
X138081947Y-111931507D01*
X138011527Y-111930006D01*
X137943405Y-111948966D01*
X137943405Y-111948966D01*
G37*
X137943405Y-111948966D02*
X137885979Y-111986497D01*
X137858281Y-112020096D01*
X137836338Y-112081064D01*
X137834595Y-112129308D01*
X137838543Y-112193816D01*
X137987314Y-112258934D01*
X138059651Y-112292202D01*
X138106916Y-112318964D01*
X138131493Y-112342144D01*
X138135763Y-112364667D01*
X138122111Y-112389455D01*
X138107057Y-112405886D01*
X138063254Y-112432235D01*
X138015611Y-112434081D01*
X137971855Y-112413546D01*
X137939711Y-112372752D01*
X137933962Y-112358347D01*
X137906424Y-112313356D01*
X137874742Y-112294182D01*
X137831286Y-112277779D01*
X137831286Y-112339966D01*
X137835128Y-112382283D01*
X137850177Y-112417969D01*
X137881720Y-112458943D01*
X137886408Y-112464267D01*
X137921494Y-112500720D01*
X137951653Y-112520283D01*
X137989385Y-112529283D01*
X138020665Y-112532230D01*
X138076615Y-112532965D01*
X138116445Y-112523660D01*
X138141292Y-112509846D01*
X138180344Y-112479467D01*
X138207375Y-112446613D01*
X138224483Y-112405294D01*
X138233762Y-112349521D01*
X138237307Y-112273305D01*
X138237590Y-112234622D01*
X138236628Y-112188247D01*
X138148993Y-112188247D01*
X138147977Y-112213126D01*
X138145444Y-112217200D01*
X138128726Y-112211665D01*
X138092751Y-112197017D01*
X138044669Y-112176190D01*
X138034614Y-112171714D01*
X137973848Y-112140814D01*
X137940368Y-112113657D01*
X137933010Y-112088220D01*
X137950609Y-112062481D01*
X137965144Y-112051109D01*
X138017590Y-112028364D01*
X138066678Y-112032122D01*
X138107773Y-112059884D01*
X138136242Y-112109152D01*
X138145369Y-112148257D01*
X138148993Y-112188247D01*
X138236628Y-112188247D01*
X138235715Y-112144249D01*
X138228804Y-112077384D01*
X138215116Y-112028695D01*
X138192904Y-111992849D01*
X138160426Y-111964513D01*
X138146267Y-111955355D01*
X138081947Y-111931507D01*
X138011527Y-111930006D01*
X137943405Y-111948966D01*
G36*
X140993090Y-107224348D02*
G01*
X140914546Y-107224778D01*
X140857702Y-107225942D01*
X140818895Y-107228207D01*
X140794462Y-107231940D01*
X140780738Y-107237506D01*
X140774060Y-107245273D01*
X140770764Y-107255605D01*
X140770444Y-107256943D01*
X140765438Y-107281079D01*
X140756171Y-107328701D01*
X140743608Y-107394741D01*
X140728713Y-107474128D01*
X140712449Y-107561796D01*
X140711881Y-107564875D01*
X140695590Y-107650789D01*
X140680348Y-107726696D01*
X140667139Y-107788045D01*
X140656946Y-107830282D01*
X140650752Y-107848855D01*
X140650457Y-107849184D01*
X140632212Y-107858253D01*
X140594595Y-107873367D01*
X140545729Y-107891262D01*
X140545457Y-107891358D01*
X140483907Y-107914493D01*
X140411343Y-107943965D01*
X140342943Y-107973597D01*
X140339706Y-107975062D01*
X140228298Y-108025626D01*
X139981601Y-107857160D01*
X139905923Y-107805803D01*
X139837369Y-107759889D01*
X139779912Y-107722030D01*
X139737524Y-107694837D01*
X139714175Y-107680921D01*
X139711958Y-107679889D01*
X139694990Y-107684484D01*
X139663299Y-107706655D01*
X139615648Y-107747447D01*
X139550802Y-107807905D01*
X139484603Y-107872227D01*
X139420786Y-107935612D01*
X139363671Y-107993451D01*
X139316695Y-108042175D01*
X139283297Y-108078210D01*
X139266915Y-108097984D01*
X139266306Y-108099002D01*
X139264495Y-108112572D01*
X139271317Y-108134733D01*
X139288460Y-108168478D01*
X139317607Y-108216800D01*
X139360445Y-108282692D01*
X139417552Y-108367517D01*
X139468234Y-108442177D01*
X139513539Y-108509140D01*
X139550850Y-108564516D01*
X139577548Y-108604420D01*
X139591015Y-108624962D01*
X139591863Y-108626356D01*
X139590219Y-108646038D01*
X139577755Y-108684293D01*
X139556952Y-108733889D01*
X139549538Y-108749728D01*
X139517186Y-108820290D01*
X139482672Y-108900353D01*
X139454635Y-108969629D01*
X139434432Y-109021045D01*
X139418385Y-109060119D01*
X139409112Y-109080541D01*
X139407959Y-109082114D01*
X139390904Y-109084721D01*
X139350702Y-109091863D01*
X139292698Y-109102523D01*
X139222237Y-109115685D01*
X139144665Y-109130333D01*
X139065328Y-109145449D01*
X138989569Y-109160018D01*
X138922736Y-109173022D01*
X138870172Y-109183445D01*
X138837224Y-109190270D01*
X138829143Y-109192199D01*
X138820795Y-109196962D01*
X138814494Y-109207718D01*
X138809955Y-109228098D01*
X138806896Y-109261734D01*
X138805033Y-109312255D01*
X138804082Y-109383292D01*
X138803760Y-109478476D01*
X138803743Y-109517492D01*
X138803743Y-109834799D01*
X138879943Y-109849839D01*
X138922337Y-109857995D01*
X138985600Y-109869899D01*
X139062038Y-109884116D01*
X139143957Y-109899210D01*
X139166600Y-109903355D01*
X139242194Y-109918053D01*
X139308047Y-109932505D01*
X139358634Y-109945375D01*
X139388426Y-109955322D01*
X139393388Y-109958287D01*
X139405574Y-109979283D01*
X139423047Y-110019967D01*
X139442423Y-110072322D01*
X139446266Y-110083600D01*
X139471661Y-110153523D01*
X139503183Y-110232418D01*
X139534031Y-110303266D01*
X139534183Y-110303595D01*
X139585553Y-110414733D01*
X139416601Y-110663253D01*
X139247648Y-110911772D01*
X139464571Y-111129058D01*
X139530181Y-111193726D01*
X139590021Y-111250733D01*
X139640733Y-111297033D01*
X139678954Y-111329584D01*
X139701325Y-111345343D01*
X139704534Y-111346343D01*
X139723374Y-111338469D01*
X139761820Y-111316578D01*
X139815670Y-111283267D01*
X139880724Y-111241131D01*
X139951060Y-111193943D01*
X140022445Y-111145810D01*
X140086092Y-111103928D01*
X140137959Y-111070871D01*
X140174005Y-111049218D01*
X140190133Y-111041543D01*
X140209811Y-111048037D01*
X140247125Y-111065150D01*
X140294379Y-111089326D01*
X140299388Y-111092013D01*
X140363023Y-111123927D01*
X140406659Y-111139579D01*
X140433798Y-111139745D01*
X140447943Y-111125204D01*
X140448025Y-111125000D01*
X140455095Y-111107779D01*
X140471958Y-111066899D01*
X140497305Y-111005525D01*
X140529829Y-110926819D01*
X140568222Y-110833947D01*
X140611178Y-110730072D01*
X140652778Y-110629502D01*
X140698496Y-110518516D01*
X140740474Y-110415703D01*
X140777452Y-110324215D01*
X140808173Y-110247201D01*
X140831378Y-110187815D01*
X140845810Y-110149209D01*
X140850257Y-110134800D01*
X140839104Y-110118272D01*
X140809931Y-110091930D01*
X140771029Y-110062887D01*
X140660243Y-109971039D01*
X140573649Y-109865759D01*
X140512284Y-109749266D01*
X140477185Y-109623776D01*
X140469392Y-109491507D01*
X140475057Y-109430457D01*
X140505922Y-109303795D01*
X140559080Y-109191941D01*
X140631233Y-109096001D01*
X140719083Y-109017076D01*
X140819335Y-108956270D01*
X140928690Y-108914687D01*
X141043853Y-108893428D01*
X141161525Y-108893599D01*
X141278410Y-108916301D01*
X141391211Y-108962638D01*
X141496631Y-109033713D01*
X141540632Y-109073911D01*
X141625021Y-109177129D01*
X141683778Y-109289925D01*
X141717296Y-109409010D01*
X141725965Y-109531095D01*
X141710177Y-109652893D01*
X141670322Y-109771116D01*
X141606793Y-109882475D01*
X141519979Y-109983684D01*
X141422971Y-110062887D01*
X141382563Y-110093162D01*
X141354018Y-110119219D01*
X141343743Y-110134825D01*
X141349123Y-110151843D01*
X141364425Y-110192500D01*
X141388388Y-110253642D01*
X141419756Y-110332119D01*
X141457268Y-110424780D01*
X141499667Y-110528472D01*
X141541337Y-110629526D01*
X141587310Y-110740607D01*
X141629893Y-110843541D01*
X141667779Y-110935165D01*
X141699660Y-111012316D01*
X141724229Y-111071831D01*
X141740180Y-111110544D01*
X141746090Y-111125000D01*
X141760052Y-111139685D01*
X141787060Y-111139642D01*
X141830587Y-111124099D01*
X141894110Y-111092284D01*
X141894612Y-111092013D01*
X141942440Y-111067323D01*
X141981103Y-111049338D01*
X142002905Y-111041614D01*
X142003867Y-111041543D01*
X142020279Y-111049378D01*
X142056513Y-111071165D01*
X142108526Y-111104328D01*
X142172275Y-111146291D01*
X142242940Y-111193943D01*
X142314884Y-111242191D01*
X142379726Y-111284151D01*
X142433265Y-111317227D01*
X142471303Y-111338821D01*
X142489467Y-111346343D01*
X142506192Y-111336457D01*
X142539820Y-111308826D01*
X142586990Y-111266495D01*
X142644342Y-111212505D01*
X142708516Y-111149899D01*
X142729503Y-111128983D01*
X142946501Y-110911623D01*
X142781332Y-110669220D01*
X142731136Y-110594781D01*
X142687081Y-110527972D01*
X142651638Y-110472665D01*
X142627281Y-110432729D01*
X142616478Y-110412036D01*
X142616162Y-110410563D01*
X142621857Y-110391058D01*
X142637174Y-110351822D01*
X142659463Y-110299430D01*
X142675107Y-110264355D01*
X142704359Y-110197201D01*
X142731906Y-110129358D01*
X142753263Y-110072034D01*
X142759065Y-110054572D01*
X142775548Y-110007938D01*
X142791660Y-109971905D01*
X142800510Y-109958287D01*
X142820040Y-109949952D01*
X142862666Y-109938137D01*
X142922855Y-109924181D01*
X142995078Y-109909422D01*
X143027400Y-109903355D01*
X143109478Y-109888273D01*
X143188205Y-109873669D01*
X143255891Y-109860980D01*
X143304840Y-109851642D01*
X143314057Y-109849839D01*
X143390257Y-109834799D01*
X143390257Y-109517492D01*
X143390086Y-109413154D01*
X143389384Y-109334213D01*
X143387866Y-109277038D01*
X143385251Y-109237999D01*
X143381254Y-109213465D01*
X143375591Y-109199805D01*
X143367980Y-109193389D01*
X143364857Y-109192199D01*
X143346022Y-109187980D01*
X143304412Y-109179562D01*
X143245370Y-109167961D01*
X143174243Y-109154195D01*
X143096375Y-109139280D01*
X143017113Y-109124232D01*
X142941802Y-109110069D01*
X142875787Y-109097806D01*
X142824413Y-109088461D01*
X142793025Y-109083050D01*
X142786041Y-109082114D01*
X142779715Y-109069596D01*
X142765710Y-109036246D01*
X142746645Y-108988377D01*
X142739366Y-108969629D01*
X142710004Y-108897195D01*
X142675429Y-108817170D01*
X142644463Y-108749728D01*
X142621677Y-108698159D01*
X142606518Y-108655785D01*
X142601458Y-108629834D01*
X142602264Y-108626356D01*
X142612959Y-108609936D01*
X142637380Y-108573417D01*
X142672905Y-108520687D01*
X142716913Y-108455635D01*
X142766783Y-108382151D01*
X142776644Y-108367645D01*
X142834508Y-108281704D01*
X142877044Y-108216261D01*
X142905946Y-108168304D01*
X142922910Y-108134820D01*
X142929633Y-108112795D01*
X142927810Y-108099217D01*
X142927764Y-108099131D01*
X142913414Y-108081297D01*
X142881677Y-108046817D01*
X142835990Y-107999268D01*
X142779796Y-107942222D01*
X142716532Y-107879255D01*
X142709398Y-107872227D01*
X142629670Y-107795020D01*
X142568143Y-107738330D01*
X142523579Y-107701110D01*
X142494743Y-107682315D01*
X142482042Y-107679889D01*
X142463506Y-107690471D01*
X142425039Y-107714916D01*
X142370614Y-107750612D01*
X142304202Y-107794947D01*
X142229775Y-107845311D01*
X142212399Y-107857160D01*
X141965703Y-108025626D01*
X141854294Y-107975062D01*
X141786543Y-107945595D01*
X141713817Y-107915959D01*
X141651297Y-107892330D01*
X141648543Y-107891358D01*
X141599640Y-107873457D01*
X141561943Y-107858320D01*
X141543575Y-107849210D01*
X141543544Y-107849184D01*
X141537715Y-107832717D01*
X141527808Y-107792219D01*
X141514805Y-107732242D01*
X141499691Y-107657340D01*
X141483448Y-107572064D01*
X141482119Y-107564875D01*
X141465825Y-107477014D01*
X141450867Y-107397260D01*
X141438209Y-107330681D01*
X141428814Y-107282347D01*
X141423646Y-107257325D01*
X141423556Y-107256943D01*
X141420411Y-107246299D01*
X141414296Y-107238262D01*
X141401547Y-107232467D01*
X141378500Y-107228547D01*
X141341491Y-107226135D01*
X141286856Y-107224865D01*
X141210933Y-107224371D01*
X141110056Y-107224286D01*
X141097000Y-107224286D01*
X140993090Y-107224348D01*
X140993090Y-107224348D01*
G37*
X140993090Y-107224348D02*
X140914546Y-107224778D01*
X140857702Y-107225942D01*
X140818895Y-107228207D01*
X140794462Y-107231940D01*
X140780738Y-107237506D01*
X140774060Y-107245273D01*
X140770764Y-107255605D01*
X140770444Y-107256943D01*
X140765438Y-107281079D01*
X140756171Y-107328701D01*
X140743608Y-107394741D01*
X140728713Y-107474128D01*
X140712449Y-107561796D01*
X140711881Y-107564875D01*
X140695590Y-107650789D01*
X140680348Y-107726696D01*
X140667139Y-107788045D01*
X140656946Y-107830282D01*
X140650752Y-107848855D01*
X140650457Y-107849184D01*
X140632212Y-107858253D01*
X140594595Y-107873367D01*
X140545729Y-107891262D01*
X140545457Y-107891358D01*
X140483907Y-107914493D01*
X140411343Y-107943965D01*
X140342943Y-107973597D01*
X140339706Y-107975062D01*
X140228298Y-108025626D01*
X139981601Y-107857160D01*
X139905923Y-107805803D01*
X139837369Y-107759889D01*
X139779912Y-107722030D01*
X139737524Y-107694837D01*
X139714175Y-107680921D01*
X139711958Y-107679889D01*
X139694990Y-107684484D01*
X139663299Y-107706655D01*
X139615648Y-107747447D01*
X139550802Y-107807905D01*
X139484603Y-107872227D01*
X139420786Y-107935612D01*
X139363671Y-107993451D01*
X139316695Y-108042175D01*
X139283297Y-108078210D01*
X139266915Y-108097984D01*
X139266306Y-108099002D01*
X139264495Y-108112572D01*
X139271317Y-108134733D01*
X139288460Y-108168478D01*
X139317607Y-108216800D01*
X139360445Y-108282692D01*
X139417552Y-108367517D01*
X139468234Y-108442177D01*
X139513539Y-108509140D01*
X139550850Y-108564516D01*
X139577548Y-108604420D01*
X139591015Y-108624962D01*
X139591863Y-108626356D01*
X139590219Y-108646038D01*
X139577755Y-108684293D01*
X139556952Y-108733889D01*
X139549538Y-108749728D01*
X139517186Y-108820290D01*
X139482672Y-108900353D01*
X139454635Y-108969629D01*
X139434432Y-109021045D01*
X139418385Y-109060119D01*
X139409112Y-109080541D01*
X139407959Y-109082114D01*
X139390904Y-109084721D01*
X139350702Y-109091863D01*
X139292698Y-109102523D01*
X139222237Y-109115685D01*
X139144665Y-109130333D01*
X139065328Y-109145449D01*
X138989569Y-109160018D01*
X138922736Y-109173022D01*
X138870172Y-109183445D01*
X138837224Y-109190270D01*
X138829143Y-109192199D01*
X138820795Y-109196962D01*
X138814494Y-109207718D01*
X138809955Y-109228098D01*
X138806896Y-109261734D01*
X138805033Y-109312255D01*
X138804082Y-109383292D01*
X138803760Y-109478476D01*
X138803743Y-109517492D01*
X138803743Y-109834799D01*
X138879943Y-109849839D01*
X138922337Y-109857995D01*
X138985600Y-109869899D01*
X139062038Y-109884116D01*
X139143957Y-109899210D01*
X139166600Y-109903355D01*
X139242194Y-109918053D01*
X139308047Y-109932505D01*
X139358634Y-109945375D01*
X139388426Y-109955322D01*
X139393388Y-109958287D01*
X139405574Y-109979283D01*
X139423047Y-110019967D01*
X139442423Y-110072322D01*
X139446266Y-110083600D01*
X139471661Y-110153523D01*
X139503183Y-110232418D01*
X139534031Y-110303266D01*
X139534183Y-110303595D01*
X139585553Y-110414733D01*
X139416601Y-110663253D01*
X139247648Y-110911772D01*
X139464571Y-111129058D01*
X139530181Y-111193726D01*
X139590021Y-111250733D01*
X139640733Y-111297033D01*
X139678954Y-111329584D01*
X139701325Y-111345343D01*
X139704534Y-111346343D01*
X139723374Y-111338469D01*
X139761820Y-111316578D01*
X139815670Y-111283267D01*
X139880724Y-111241131D01*
X139951060Y-111193943D01*
X140022445Y-111145810D01*
X140086092Y-111103928D01*
X140137959Y-111070871D01*
X140174005Y-111049218D01*
X140190133Y-111041543D01*
X140209811Y-111048037D01*
X140247125Y-111065150D01*
X140294379Y-111089326D01*
X140299388Y-111092013D01*
X140363023Y-111123927D01*
X140406659Y-111139579D01*
X140433798Y-111139745D01*
X140447943Y-111125204D01*
X140448025Y-111125000D01*
X140455095Y-111107779D01*
X140471958Y-111066899D01*
X140497305Y-111005525D01*
X140529829Y-110926819D01*
X140568222Y-110833947D01*
X140611178Y-110730072D01*
X140652778Y-110629502D01*
X140698496Y-110518516D01*
X140740474Y-110415703D01*
X140777452Y-110324215D01*
X140808173Y-110247201D01*
X140831378Y-110187815D01*
X140845810Y-110149209D01*
X140850257Y-110134800D01*
X140839104Y-110118272D01*
X140809931Y-110091930D01*
X140771029Y-110062887D01*
X140660243Y-109971039D01*
X140573649Y-109865759D01*
X140512284Y-109749266D01*
X140477185Y-109623776D01*
X140469392Y-109491507D01*
X140475057Y-109430457D01*
X140505922Y-109303795D01*
X140559080Y-109191941D01*
X140631233Y-109096001D01*
X140719083Y-109017076D01*
X140819335Y-108956270D01*
X140928690Y-108914687D01*
X141043853Y-108893428D01*
X141161525Y-108893599D01*
X141278410Y-108916301D01*
X141391211Y-108962638D01*
X141496631Y-109033713D01*
X141540632Y-109073911D01*
X141625021Y-109177129D01*
X141683778Y-109289925D01*
X141717296Y-109409010D01*
X141725965Y-109531095D01*
X141710177Y-109652893D01*
X141670322Y-109771116D01*
X141606793Y-109882475D01*
X141519979Y-109983684D01*
X141422971Y-110062887D01*
X141382563Y-110093162D01*
X141354018Y-110119219D01*
X141343743Y-110134825D01*
X141349123Y-110151843D01*
X141364425Y-110192500D01*
X141388388Y-110253642D01*
X141419756Y-110332119D01*
X141457268Y-110424780D01*
X141499667Y-110528472D01*
X141541337Y-110629526D01*
X141587310Y-110740607D01*
X141629893Y-110843541D01*
X141667779Y-110935165D01*
X141699660Y-111012316D01*
X141724229Y-111071831D01*
X141740180Y-111110544D01*
X141746090Y-111125000D01*
X141760052Y-111139685D01*
X141787060Y-111139642D01*
X141830587Y-111124099D01*
X141894110Y-111092284D01*
X141894612Y-111092013D01*
X141942440Y-111067323D01*
X141981103Y-111049338D01*
X142002905Y-111041614D01*
X142003867Y-111041543D01*
X142020279Y-111049378D01*
X142056513Y-111071165D01*
X142108526Y-111104328D01*
X142172275Y-111146291D01*
X142242940Y-111193943D01*
X142314884Y-111242191D01*
X142379726Y-111284151D01*
X142433265Y-111317227D01*
X142471303Y-111338821D01*
X142489467Y-111346343D01*
X142506192Y-111336457D01*
X142539820Y-111308826D01*
X142586990Y-111266495D01*
X142644342Y-111212505D01*
X142708516Y-111149899D01*
X142729503Y-111128983D01*
X142946501Y-110911623D01*
X142781332Y-110669220D01*
X142731136Y-110594781D01*
X142687081Y-110527972D01*
X142651638Y-110472665D01*
X142627281Y-110432729D01*
X142616478Y-110412036D01*
X142616162Y-110410563D01*
X142621857Y-110391058D01*
X142637174Y-110351822D01*
X142659463Y-110299430D01*
X142675107Y-110264355D01*
X142704359Y-110197201D01*
X142731906Y-110129358D01*
X142753263Y-110072034D01*
X142759065Y-110054572D01*
X142775548Y-110007938D01*
X142791660Y-109971905D01*
X142800510Y-109958287D01*
X142820040Y-109949952D01*
X142862666Y-109938137D01*
X142922855Y-109924181D01*
X142995078Y-109909422D01*
X143027400Y-109903355D01*
X143109478Y-109888273D01*
X143188205Y-109873669D01*
X143255891Y-109860980D01*
X143304840Y-109851642D01*
X143314057Y-109849839D01*
X143390257Y-109834799D01*
X143390257Y-109517492D01*
X143390086Y-109413154D01*
X143389384Y-109334213D01*
X143387866Y-109277038D01*
X143385251Y-109237999D01*
X143381254Y-109213465D01*
X143375591Y-109199805D01*
X143367980Y-109193389D01*
X143364857Y-109192199D01*
X143346022Y-109187980D01*
X143304412Y-109179562D01*
X143245370Y-109167961D01*
X143174243Y-109154195D01*
X143096375Y-109139280D01*
X143017113Y-109124232D01*
X142941802Y-109110069D01*
X142875787Y-109097806D01*
X142824413Y-109088461D01*
X142793025Y-109083050D01*
X142786041Y-109082114D01*
X142779715Y-109069596D01*
X142765710Y-109036246D01*
X142746645Y-108988377D01*
X142739366Y-108969629D01*
X142710004Y-108897195D01*
X142675429Y-108817170D01*
X142644463Y-108749728D01*
X142621677Y-108698159D01*
X142606518Y-108655785D01*
X142601458Y-108629834D01*
X142602264Y-108626356D01*
X142612959Y-108609936D01*
X142637380Y-108573417D01*
X142672905Y-108520687D01*
X142716913Y-108455635D01*
X142766783Y-108382151D01*
X142776644Y-108367645D01*
X142834508Y-108281704D01*
X142877044Y-108216261D01*
X142905946Y-108168304D01*
X142922910Y-108134820D01*
X142929633Y-108112795D01*
X142927810Y-108099217D01*
X142927764Y-108099131D01*
X142913414Y-108081297D01*
X142881677Y-108046817D01*
X142835990Y-107999268D01*
X142779796Y-107942222D01*
X142716532Y-107879255D01*
X142709398Y-107872227D01*
X142629670Y-107795020D01*
X142568143Y-107738330D01*
X142523579Y-107701110D01*
X142494743Y-107682315D01*
X142482042Y-107679889D01*
X142463506Y-107690471D01*
X142425039Y-107714916D01*
X142370614Y-107750612D01*
X142304202Y-107794947D01*
X142229775Y-107845311D01*
X142212399Y-107857160D01*
X141965703Y-108025626D01*
X141854294Y-107975062D01*
X141786543Y-107945595D01*
X141713817Y-107915959D01*
X141651297Y-107892330D01*
X141648543Y-107891358D01*
X141599640Y-107873457D01*
X141561943Y-107858320D01*
X141543575Y-107849210D01*
X141543544Y-107849184D01*
X141537715Y-107832717D01*
X141527808Y-107792219D01*
X141514805Y-107732242D01*
X141499691Y-107657340D01*
X141483448Y-107572064D01*
X141482119Y-107564875D01*
X141465825Y-107477014D01*
X141450867Y-107397260D01*
X141438209Y-107330681D01*
X141428814Y-107282347D01*
X141423646Y-107257325D01*
X141423556Y-107256943D01*
X141420411Y-107246299D01*
X141414296Y-107238262D01*
X141401547Y-107232467D01*
X141378500Y-107228547D01*
X141341491Y-107226135D01*
X141286856Y-107224865D01*
X141210933Y-107224371D01*
X141110056Y-107224286D01*
X141097000Y-107224286D01*
X140993090Y-107224348D01*
M02*
