G04 #@! TF.GenerationSoftware,KiCad,Pcbnew,(5.1.4)-1*
G04 #@! TF.CreationDate,2020-06-19T15:30:03+02:00*
G04 #@! TF.ProjectId,S-VHS ZX Spectrum Rev. C,532d5648-5320-45a5-9820-537065637472,rev?*
G04 #@! TF.SameCoordinates,Original*
G04 #@! TF.FileFunction,Copper,L1,Top*
G04 #@! TF.FilePolarity,Positive*
%FSLAX46Y46*%
G04 Gerber Fmt 4.6, Leading zero omitted, Abs format (unit mm)*
G04 Created by KiCad (PCBNEW (5.1.4)-1) date 2020-06-19 15:30:03*
%MOMM*%
%LPD*%
G04 APERTURE LIST*
%ADD10R,1.300000X1.500000*%
%ADD11R,1.500000X1.250000*%
%ADD12R,0.450000X1.500000*%
%ADD13C,5.600000*%
%ADD14R,1.250000X1.500000*%
%ADD15R,3.500000X1.600000*%
%ADD16C,1.500000*%
%ADD17C,3.465000*%
%ADD18C,2.499360*%
%ADD19R,1.500000X2.000000*%
%ADD20R,3.800000X2.000000*%
%ADD21R,1.143000X0.508000*%
%ADD22C,0.600000*%
%ADD23C,0.800000*%
%ADD24C,1.200000*%
%ADD25C,0.507800*%
G04 APERTURE END LIST*
D10*
X154940000Y-101045000D03*
X154940000Y-98345000D03*
D11*
X169779000Y-102743000D03*
X167279000Y-102743000D03*
D12*
X167767000Y-95571000D03*
X168417000Y-98231000D03*
X167117000Y-98231000D03*
D10*
X172085000Y-108886000D03*
X172085000Y-111586000D03*
D13*
X138938000Y-102489000D03*
X176950000Y-102489000D03*
D11*
X167279000Y-104902000D03*
X169779000Y-104902000D03*
D14*
X166116000Y-89682000D03*
X166116000Y-92182000D03*
D11*
X162921000Y-102743000D03*
X160421000Y-102743000D03*
D15*
X176309000Y-89789000D03*
X170909000Y-89789000D03*
D16*
X141133000Y-93535000D03*
X147933000Y-93535000D03*
X141133000Y-96035000D03*
X147933000Y-96035000D03*
D17*
X137783000Y-90535000D03*
X144533000Y-89735000D03*
X151283000Y-90535000D03*
D18*
X146431000Y-100965000D03*
X146304000Y-105918000D03*
X146304000Y-111506000D03*
D10*
X174371000Y-111586000D03*
X174371000Y-108886000D03*
X169799000Y-111586000D03*
X169799000Y-108886000D03*
X157099000Y-101045000D03*
X157099000Y-98345000D03*
D19*
X157085000Y-94082000D03*
X161685000Y-94082000D03*
X159385000Y-94082000D03*
D20*
X159385000Y-87782000D03*
D21*
X164846000Y-109093000D03*
X164846000Y-107823000D03*
X164846000Y-106553000D03*
X164846000Y-105283000D03*
X158496000Y-105283000D03*
X158496000Y-106553000D03*
X158496000Y-107823000D03*
X158496000Y-109093000D03*
D22*
X162921000Y-101517700D03*
X157324200Y-106486200D03*
X168548700Y-111586000D03*
X167341300Y-92182000D03*
X155734700Y-94082000D03*
X165314200Y-104014300D03*
X166428200Y-106979700D03*
X169611200Y-101541200D03*
X176309000Y-91189300D03*
X172543400Y-107420200D03*
X167403500Y-99648500D03*
X167955800Y-89920500D03*
X155896900Y-99695000D03*
D23*
X162921000Y-102743000D02*
X162921000Y-101517700D01*
X157324200Y-106486200D02*
X157324200Y-106553000D01*
X157324200Y-105283000D02*
X157324200Y-106486200D01*
X169799000Y-111586000D02*
X168548700Y-111586000D01*
X166116000Y-92182000D02*
X167341300Y-92182000D01*
X158496000Y-106553000D02*
X157324200Y-106553000D01*
X158496000Y-105283000D02*
X157324200Y-105283000D01*
X172085000Y-111586000D02*
X169799000Y-111586000D01*
X157085000Y-94082000D02*
X155734700Y-94082000D01*
X165314200Y-104014300D02*
X166391300Y-104014300D01*
X166391300Y-104014300D02*
X167279000Y-104902000D01*
X166017800Y-109093000D02*
X168983500Y-106127300D01*
X168983500Y-106127300D02*
X169779000Y-106127300D01*
X169779000Y-104902000D02*
X169779000Y-106127300D01*
X164846000Y-109093000D02*
X166017800Y-109093000D01*
X169779000Y-102743000D02*
X169779000Y-101709000D01*
X169779000Y-101709000D02*
X169611200Y-101541200D01*
X166428200Y-106979700D02*
X165584900Y-107823000D01*
X165584900Y-107823000D02*
X164846000Y-107823000D01*
X168536600Y-100260100D02*
X167279000Y-101517700D01*
X168417000Y-99461700D02*
X168536600Y-99581300D01*
X168536600Y-99581300D02*
X168536600Y-100260100D01*
X169799000Y-108886000D02*
X171142500Y-107542500D01*
X171142500Y-107542500D02*
X171142500Y-101584700D01*
X171142500Y-101584700D02*
X169817900Y-100260100D01*
X169817900Y-100260100D02*
X168536600Y-100260100D01*
X167279000Y-102743000D02*
X167279000Y-101517700D01*
X168417000Y-98231000D02*
X168417000Y-99461700D01*
D24*
X160421000Y-102743000D02*
X160421000Y-104168300D01*
X164846000Y-105283000D02*
X161535700Y-105283000D01*
X161535700Y-105283000D02*
X160421000Y-104168300D01*
X160421000Y-102743000D02*
X160421000Y-101317700D01*
X167767000Y-95571000D02*
X166167700Y-95571000D01*
X166167700Y-95571000D02*
X160421000Y-101317700D01*
X168647600Y-95758600D02*
X168460000Y-95571000D01*
X168460000Y-95571000D02*
X167767000Y-95571000D01*
X168647600Y-95758600D02*
X173262300Y-100373300D01*
X173262300Y-100373300D02*
X173262300Y-105927600D01*
X173262300Y-105927600D02*
X174371000Y-107036300D01*
X174371000Y-107036300D02*
X174371000Y-108886000D01*
X168647600Y-95758600D02*
X173461000Y-90945200D01*
X173461000Y-90945200D02*
X173461000Y-88651000D01*
X173461000Y-88651000D02*
X172592000Y-87782000D01*
X172592000Y-87782000D02*
X159385000Y-87782000D01*
D23*
X176309000Y-89789000D02*
X176309000Y-91189300D01*
X172085000Y-108886000D02*
X172543400Y-108427600D01*
X172543400Y-108427600D02*
X172543400Y-107420200D01*
X174371000Y-111586000D02*
X174371000Y-111172000D01*
X174371000Y-111172000D02*
X172085000Y-108886000D01*
X167117000Y-98231000D02*
X167117000Y-99581300D01*
X167403500Y-99648500D02*
X167336300Y-99581300D01*
X167336300Y-99581300D02*
X167117000Y-99581300D01*
X168558700Y-89789000D02*
X168427200Y-89920500D01*
X168427200Y-89920500D02*
X167955800Y-89920500D01*
X170909000Y-89789000D02*
X168558700Y-89789000D01*
X155896900Y-99695000D02*
X154940000Y-98738100D01*
X154940000Y-98738100D02*
X154940000Y-98345000D01*
X157099000Y-101045000D02*
X158349300Y-101045000D01*
X158349300Y-101045000D02*
X158349300Y-97319300D01*
X158349300Y-97319300D02*
X157001700Y-95971700D01*
X157001700Y-95971700D02*
X147996300Y-95971700D01*
X147996300Y-95971700D02*
X147933000Y-96035000D01*
D24*
X166116000Y-89682000D02*
X164690700Y-89682000D01*
X164690700Y-89682000D02*
X164690700Y-91100500D01*
X164690700Y-91100500D02*
X162715700Y-93075500D01*
X162715700Y-93075500D02*
X162715700Y-93075600D01*
X162715700Y-93075600D02*
X162478900Y-93075600D01*
X162478900Y-93075600D02*
X161685000Y-92281700D01*
X161685000Y-94082000D02*
X161685000Y-92281700D01*
X146304000Y-111506000D02*
X144209200Y-109411200D01*
X144209200Y-109411200D02*
X144209200Y-94993300D01*
X144209200Y-94993300D02*
X147225300Y-91977200D01*
X147225300Y-91977200D02*
X148658100Y-91977200D01*
X148658100Y-91977200D02*
X149760900Y-93080000D01*
X149760900Y-93080000D02*
X153017500Y-93080000D01*
X153017500Y-93080000D02*
X153815800Y-92281700D01*
X153815800Y-92281700D02*
X161685000Y-92281700D01*
D23*
X157938900Y-108823400D02*
X158226400Y-108823400D01*
X158226400Y-108823400D02*
X158496000Y-109093000D01*
D25*
X157324000Y-108345700D02*
X157461200Y-108345700D01*
X157461200Y-108345700D02*
X157938900Y-108823400D01*
D23*
X154940000Y-101045000D02*
X154940000Y-105961700D01*
X154940000Y-105961700D02*
X157324000Y-108345700D01*
X158496000Y-107823000D02*
X159667800Y-107823000D01*
X159667800Y-107823000D02*
X159667800Y-109626300D01*
X159667800Y-109626300D02*
X159174600Y-110119500D01*
X159174600Y-110119500D02*
X157655100Y-110119500D01*
X157655100Y-110119500D02*
X153599300Y-106063700D01*
X153599300Y-106063700D02*
X153599300Y-97375600D01*
X153599300Y-97375600D02*
X153980300Y-96994600D01*
X153980300Y-96994600D02*
X155859000Y-96994600D01*
X155859000Y-96994600D02*
X157099000Y-98234600D01*
X157099000Y-98234600D02*
X157099000Y-98345000D01*
M02*
