G04 #@! TF.GenerationSoftware,KiCad,Pcbnew,(5.1.4)-1*
G04 #@! TF.CreationDate,2020-06-19T15:30:03+02:00*
G04 #@! TF.ProjectId,S-VHS ZX Spectrum Rev. C,532d5648-5320-45a5-9820-537065637472,rev?*
G04 #@! TF.SameCoordinates,Original*
G04 #@! TF.FileFunction,Legend,Top*
G04 #@! TF.FilePolarity,Positive*
%FSLAX46Y46*%
G04 Gerber Fmt 4.6, Leading zero omitted, Abs format (unit mm)*
G04 Created by KiCad (PCBNEW (5.1.4)-1) date 2020-06-19 15:30:03*
%MOMM*%
%LPD*%
G04 APERTURE LIST*
%ADD10C,0.200000*%
%ADD11C,0.120000*%
%ADD12C,0.100000*%
%ADD13C,0.150000*%
G04 APERTURE END LIST*
D10*
X165074571Y-110597904D02*
X164617428Y-110597904D01*
X164846000Y-110597904D02*
X164846000Y-109797904D01*
X164769809Y-109912190D01*
X164693619Y-109988380D01*
X164617428Y-110026476D01*
X152604047Y-112756904D02*
X152604047Y-111956904D01*
X152794523Y-111956904D01*
X152908809Y-111995000D01*
X152985000Y-112071190D01*
X153023095Y-112147380D01*
X153061190Y-112299761D01*
X153061190Y-112414047D01*
X153023095Y-112566428D01*
X152985000Y-112642619D01*
X152908809Y-112718809D01*
X152794523Y-112756904D01*
X152604047Y-112756904D01*
X153708809Y-112718809D02*
X153632619Y-112756904D01*
X153480238Y-112756904D01*
X153404047Y-112718809D01*
X153365952Y-112642619D01*
X153365952Y-112337857D01*
X153404047Y-112261666D01*
X153480238Y-112223571D01*
X153632619Y-112223571D01*
X153708809Y-112261666D01*
X153746904Y-112337857D01*
X153746904Y-112414047D01*
X153365952Y-112490238D01*
X154051666Y-112718809D02*
X154127857Y-112756904D01*
X154280238Y-112756904D01*
X154356428Y-112718809D01*
X154394523Y-112642619D01*
X154394523Y-112604523D01*
X154356428Y-112528333D01*
X154280238Y-112490238D01*
X154165952Y-112490238D01*
X154089761Y-112452142D01*
X154051666Y-112375952D01*
X154051666Y-112337857D01*
X154089761Y-112261666D01*
X154165952Y-112223571D01*
X154280238Y-112223571D01*
X154356428Y-112261666D01*
X154737380Y-112756904D02*
X154737380Y-112223571D01*
X154737380Y-111956904D02*
X154699285Y-111995000D01*
X154737380Y-112033095D01*
X154775476Y-111995000D01*
X154737380Y-111956904D01*
X154737380Y-112033095D01*
X155461190Y-112223571D02*
X155461190Y-112871190D01*
X155423095Y-112947380D01*
X155385000Y-112985476D01*
X155308809Y-113023571D01*
X155194523Y-113023571D01*
X155118333Y-112985476D01*
X155461190Y-112718809D02*
X155385000Y-112756904D01*
X155232619Y-112756904D01*
X155156428Y-112718809D01*
X155118333Y-112680714D01*
X155080238Y-112604523D01*
X155080238Y-112375952D01*
X155118333Y-112299761D01*
X155156428Y-112261666D01*
X155232619Y-112223571D01*
X155385000Y-112223571D01*
X155461190Y-112261666D01*
X155842142Y-112223571D02*
X155842142Y-112756904D01*
X155842142Y-112299761D02*
X155880238Y-112261666D01*
X155956428Y-112223571D01*
X156070714Y-112223571D01*
X156146904Y-112261666D01*
X156185000Y-112337857D01*
X156185000Y-112756904D01*
X157175476Y-112756904D02*
X157175476Y-111956904D01*
X157175476Y-112261666D02*
X157251666Y-112223571D01*
X157404047Y-112223571D01*
X157480238Y-112261666D01*
X157518333Y-112299761D01*
X157556428Y-112375952D01*
X157556428Y-112604523D01*
X157518333Y-112680714D01*
X157480238Y-112718809D01*
X157404047Y-112756904D01*
X157251666Y-112756904D01*
X157175476Y-112718809D01*
X157823095Y-112223571D02*
X158013571Y-112756904D01*
X158204047Y-112223571D02*
X158013571Y-112756904D01*
X157937380Y-112947380D01*
X157899285Y-112985476D01*
X157823095Y-113023571D01*
X159575476Y-112756904D02*
X159308809Y-112375952D01*
X159118333Y-112756904D02*
X159118333Y-111956904D01*
X159423095Y-111956904D01*
X159499285Y-111995000D01*
X159537380Y-112033095D01*
X159575476Y-112109285D01*
X159575476Y-112223571D01*
X159537380Y-112299761D01*
X159499285Y-112337857D01*
X159423095Y-112375952D01*
X159118333Y-112375952D01*
X160223095Y-112718809D02*
X160146904Y-112756904D01*
X159994523Y-112756904D01*
X159918333Y-112718809D01*
X159880238Y-112642619D01*
X159880238Y-112337857D01*
X159918333Y-112261666D01*
X159994523Y-112223571D01*
X160146904Y-112223571D01*
X160223095Y-112261666D01*
X160261190Y-112337857D01*
X160261190Y-112414047D01*
X159880238Y-112490238D01*
X160946904Y-112756904D02*
X160946904Y-111956904D01*
X160946904Y-112718809D02*
X160870714Y-112756904D01*
X160718333Y-112756904D01*
X160642142Y-112718809D01*
X160604047Y-112680714D01*
X160565952Y-112604523D01*
X160565952Y-112375952D01*
X160604047Y-112299761D01*
X160642142Y-112261666D01*
X160718333Y-112223571D01*
X160870714Y-112223571D01*
X160946904Y-112261666D01*
X161327857Y-112756904D02*
X161327857Y-111956904D01*
X161670714Y-112756904D02*
X161670714Y-112337857D01*
X161632619Y-112261666D01*
X161556428Y-112223571D01*
X161442142Y-112223571D01*
X161365952Y-112261666D01*
X161327857Y-112299761D01*
X162394523Y-112756904D02*
X162394523Y-112337857D01*
X162356428Y-112261666D01*
X162280238Y-112223571D01*
X162127857Y-112223571D01*
X162051666Y-112261666D01*
X162394523Y-112718809D02*
X162318333Y-112756904D01*
X162127857Y-112756904D01*
X162051666Y-112718809D01*
X162013571Y-112642619D01*
X162013571Y-112566428D01*
X162051666Y-112490238D01*
X162127857Y-112452142D01*
X162318333Y-112452142D01*
X162394523Y-112414047D01*
X162699285Y-112223571D02*
X162851666Y-112756904D01*
X163004047Y-112375952D01*
X163156428Y-112756904D01*
X163308809Y-112223571D01*
X163613571Y-112756904D02*
X163613571Y-111956904D01*
X163689761Y-112452142D02*
X163918333Y-112756904D01*
X163918333Y-112223571D02*
X163613571Y-112528333D01*
X164604047Y-111956904D02*
X164451666Y-111956904D01*
X164375476Y-111995000D01*
X164337380Y-112033095D01*
X164261190Y-112147380D01*
X164223095Y-112299761D01*
X164223095Y-112604523D01*
X164261190Y-112680714D01*
X164299285Y-112718809D01*
X164375476Y-112756904D01*
X164527857Y-112756904D01*
X164604047Y-112718809D01*
X164642142Y-112680714D01*
X164680238Y-112604523D01*
X164680238Y-112414047D01*
X164642142Y-112337857D01*
X164604047Y-112299761D01*
X164527857Y-112261666D01*
X164375476Y-112261666D01*
X164299285Y-112299761D01*
X164261190Y-112337857D01*
X164223095Y-112414047D01*
X165365952Y-111956904D02*
X165213571Y-111956904D01*
X165137380Y-111995000D01*
X165099285Y-112033095D01*
X165023095Y-112147380D01*
X164985000Y-112299761D01*
X164985000Y-112604523D01*
X165023095Y-112680714D01*
X165061190Y-112718809D01*
X165137380Y-112756904D01*
X165289761Y-112756904D01*
X165365952Y-112718809D01*
X165404047Y-112680714D01*
X165442142Y-112604523D01*
X165442142Y-112414047D01*
X165404047Y-112337857D01*
X165365952Y-112299761D01*
X165289761Y-112261666D01*
X165137380Y-112261666D01*
X165061190Y-112299761D01*
X165023095Y-112337857D01*
X164985000Y-112414047D01*
X165899285Y-112299761D02*
X165823095Y-112261666D01*
X165785000Y-112223571D01*
X165746904Y-112147380D01*
X165746904Y-112109285D01*
X165785000Y-112033095D01*
X165823095Y-111995000D01*
X165899285Y-111956904D01*
X166051666Y-111956904D01*
X166127857Y-111995000D01*
X166165952Y-112033095D01*
X166204047Y-112109285D01*
X166204047Y-112147380D01*
X166165952Y-112223571D01*
X166127857Y-112261666D01*
X166051666Y-112299761D01*
X165899285Y-112299761D01*
X165823095Y-112337857D01*
X165785000Y-112375952D01*
X165746904Y-112452142D01*
X165746904Y-112604523D01*
X165785000Y-112680714D01*
X165823095Y-112718809D01*
X165899285Y-112756904D01*
X166051666Y-112756904D01*
X166127857Y-112718809D01*
X166165952Y-112680714D01*
X166204047Y-112604523D01*
X166204047Y-112452142D01*
X166165952Y-112375952D01*
X166127857Y-112337857D01*
X166051666Y-112299761D01*
D11*
X155820000Y-99095000D02*
X155820000Y-100295000D01*
X154060000Y-100295000D02*
X154060000Y-99095000D01*
X168029000Y-103593000D02*
X169029000Y-103593000D01*
X169029000Y-101893000D02*
X168029000Y-101893000D01*
X168927000Y-97576000D02*
X168927000Y-96166000D01*
X166607000Y-96166000D02*
X166607000Y-98901000D01*
X166597000Y-96166000D02*
X167267000Y-96166000D01*
X168267000Y-96166000D02*
X168927000Y-96166000D01*
X171205000Y-110836000D02*
X171205000Y-109636000D01*
X172965000Y-109636000D02*
X172965000Y-110836000D01*
X169029000Y-104052000D02*
X168029000Y-104052000D01*
X168029000Y-105752000D02*
X169029000Y-105752000D01*
X166966000Y-91432000D02*
X166966000Y-90432000D01*
X165266000Y-90432000D02*
X165266000Y-91432000D01*
X161171000Y-103593000D02*
X162171000Y-103593000D01*
X162171000Y-101893000D02*
X161171000Y-101893000D01*
X171069000Y-86489000D02*
X176909000Y-86489000D01*
X170309000Y-87249000D02*
X171069000Y-86489000D01*
X171069000Y-93089000D02*
X170309000Y-92329000D01*
X176909000Y-93089000D02*
X171069000Y-93089000D01*
X170309000Y-87249000D02*
X170309000Y-88669000D01*
X170309000Y-92329000D02*
X170309000Y-90909000D01*
X176909000Y-86489000D02*
X176909000Y-88669000D01*
X176909000Y-93089000D02*
X176909000Y-90909000D01*
D12*
X137533000Y-88235000D02*
X137533000Y-84235000D01*
X137533000Y-84235000D02*
X151533000Y-84235000D01*
X151533000Y-84235000D02*
X151533000Y-88235000D01*
X137533000Y-92735000D02*
X137533000Y-97135000D01*
X137533000Y-97135000D02*
X151533000Y-97135000D01*
X151533000Y-97135000D02*
X151533000Y-92735000D01*
D10*
X137133000Y-93535000D02*
X137133000Y-93535000D01*
X136933000Y-93535000D02*
X136933000Y-93535000D01*
X136933000Y-93535000D02*
G75*
G02X137133000Y-93535000I100000J0D01*
G01*
X137133000Y-93535000D02*
G75*
G02X136933000Y-93535000I-100000J0D01*
G01*
D11*
X175251000Y-109636000D02*
X175251000Y-110836000D01*
X173491000Y-110836000D02*
X173491000Y-109636000D01*
X170679000Y-109636000D02*
X170679000Y-110836000D01*
X168919000Y-110836000D02*
X168919000Y-109636000D01*
X157979000Y-99095000D02*
X157979000Y-100295000D01*
X156219000Y-100295000D02*
X156219000Y-99095000D01*
X155975000Y-95032000D02*
X155975000Y-89022000D01*
X162795000Y-92782000D02*
X162795000Y-89022000D01*
X155975000Y-89022000D02*
X157235000Y-89022000D01*
X162795000Y-89022000D02*
X161535000Y-89022000D01*
D13*
X162179000Y-109220000D02*
X162179000Y-109728000D01*
X160909000Y-109220000D02*
X162179000Y-109220000D01*
X160909000Y-109728000D02*
X160909000Y-109220000D01*
X163957000Y-109728000D02*
X159385000Y-109728000D01*
X163957000Y-104648000D02*
X163957000Y-109728000D01*
X159385000Y-104648000D02*
X163957000Y-104648000D01*
X159385000Y-109728000D02*
X159385000Y-104648000D01*
X154519333Y-97099380D02*
X154186000Y-96623190D01*
X153947904Y-97099380D02*
X153947904Y-96099380D01*
X154328857Y-96099380D01*
X154424095Y-96147000D01*
X154471714Y-96194619D01*
X154519333Y-96289857D01*
X154519333Y-96432714D01*
X154471714Y-96527952D01*
X154424095Y-96575571D01*
X154328857Y-96623190D01*
X153947904Y-96623190D01*
X155376476Y-96432714D02*
X155376476Y-97099380D01*
X155138380Y-96051761D02*
X154900285Y-96766047D01*
X155519333Y-96766047D01*
X168235333Y-101195142D02*
X168187714Y-101242761D01*
X168044857Y-101290380D01*
X167949619Y-101290380D01*
X167806761Y-101242761D01*
X167711523Y-101147523D01*
X167663904Y-101052285D01*
X167616285Y-100861809D01*
X167616285Y-100718952D01*
X167663904Y-100528476D01*
X167711523Y-100433238D01*
X167806761Y-100338000D01*
X167949619Y-100290380D01*
X168044857Y-100290380D01*
X168187714Y-100338000D01*
X168235333Y-100385619D01*
X168616285Y-100385619D02*
X168663904Y-100338000D01*
X168759142Y-100290380D01*
X168997238Y-100290380D01*
X169092476Y-100338000D01*
X169140095Y-100385619D01*
X169187714Y-100480857D01*
X169187714Y-100576095D01*
X169140095Y-100718952D01*
X168568666Y-101290380D01*
X169187714Y-101290380D01*
X170084761Y-97448619D02*
X169989523Y-97401000D01*
X169894285Y-97305761D01*
X169751428Y-97162904D01*
X169656190Y-97115285D01*
X169560952Y-97115285D01*
X169608571Y-97353380D02*
X169513333Y-97305761D01*
X169418095Y-97210523D01*
X169370476Y-97020047D01*
X169370476Y-96686714D01*
X169418095Y-96496238D01*
X169513333Y-96401000D01*
X169608571Y-96353380D01*
X169799047Y-96353380D01*
X169894285Y-96401000D01*
X169989523Y-96496238D01*
X170037142Y-96686714D01*
X170037142Y-97020047D01*
X169989523Y-97210523D01*
X169894285Y-97305761D01*
X169799047Y-97353380D01*
X169608571Y-97353380D01*
X170989523Y-97353380D02*
X170418095Y-97353380D01*
X170703809Y-97353380D02*
X170703809Y-96353380D01*
X170608571Y-96496238D01*
X170513333Y-96591476D01*
X170418095Y-96639095D01*
X171791333Y-107386380D02*
X171458000Y-106910190D01*
X171219904Y-107386380D02*
X171219904Y-106386380D01*
X171600857Y-106386380D01*
X171696095Y-106434000D01*
X171743714Y-106481619D01*
X171791333Y-106576857D01*
X171791333Y-106719714D01*
X171743714Y-106814952D01*
X171696095Y-106862571D01*
X171600857Y-106910190D01*
X171219904Y-106910190D01*
X172172285Y-106481619D02*
X172219904Y-106434000D01*
X172315142Y-106386380D01*
X172553238Y-106386380D01*
X172648476Y-106434000D01*
X172696095Y-106481619D01*
X172743714Y-106576857D01*
X172743714Y-106672095D01*
X172696095Y-106814952D01*
X172124666Y-107386380D01*
X172743714Y-107386380D01*
X168362333Y-106910142D02*
X168314714Y-106957761D01*
X168171857Y-107005380D01*
X168076619Y-107005380D01*
X167933761Y-106957761D01*
X167838523Y-106862523D01*
X167790904Y-106767285D01*
X167743285Y-106576809D01*
X167743285Y-106433952D01*
X167790904Y-106243476D01*
X167838523Y-106148238D01*
X167933761Y-106053000D01*
X168076619Y-106005380D01*
X168171857Y-106005380D01*
X168314714Y-106053000D01*
X168362333Y-106100619D01*
X169314714Y-107005380D02*
X168743285Y-107005380D01*
X169029000Y-107005380D02*
X169029000Y-106005380D01*
X168933761Y-106148238D01*
X168838523Y-106243476D01*
X168743285Y-106291095D01*
X164568142Y-90971666D02*
X164615761Y-91019285D01*
X164663380Y-91162142D01*
X164663380Y-91257380D01*
X164615761Y-91400238D01*
X164520523Y-91495476D01*
X164425285Y-91543095D01*
X164234809Y-91590714D01*
X164091952Y-91590714D01*
X163901476Y-91543095D01*
X163806238Y-91495476D01*
X163711000Y-91400238D01*
X163663380Y-91257380D01*
X163663380Y-91162142D01*
X163711000Y-91019285D01*
X163758619Y-90971666D01*
X163663380Y-90638333D02*
X163663380Y-90019285D01*
X164044333Y-90352619D01*
X164044333Y-90209761D01*
X164091952Y-90114523D01*
X164139571Y-90066904D01*
X164234809Y-90019285D01*
X164472904Y-90019285D01*
X164568142Y-90066904D01*
X164615761Y-90114523D01*
X164663380Y-90209761D01*
X164663380Y-90495476D01*
X164615761Y-90590714D01*
X164568142Y-90638333D01*
X161504333Y-101350142D02*
X161456714Y-101397761D01*
X161313857Y-101445380D01*
X161218619Y-101445380D01*
X161075761Y-101397761D01*
X160980523Y-101302523D01*
X160932904Y-101207285D01*
X160885285Y-101016809D01*
X160885285Y-100873952D01*
X160932904Y-100683476D01*
X160980523Y-100588238D01*
X161075761Y-100493000D01*
X161218619Y-100445380D01*
X161313857Y-100445380D01*
X161456714Y-100493000D01*
X161504333Y-100540619D01*
X162361476Y-100778714D02*
X162361476Y-101445380D01*
X162123380Y-100397761D02*
X161885285Y-101112047D01*
X162504333Y-101112047D01*
X172966142Y-94706142D02*
X172918523Y-94753761D01*
X172775666Y-94801380D01*
X172680428Y-94801380D01*
X172537571Y-94753761D01*
X172442333Y-94658523D01*
X172394714Y-94563285D01*
X172347095Y-94372809D01*
X172347095Y-94229952D01*
X172394714Y-94039476D01*
X172442333Y-93944238D01*
X172537571Y-93849000D01*
X172680428Y-93801380D01*
X172775666Y-93801380D01*
X172918523Y-93849000D01*
X172966142Y-93896619D01*
X173823285Y-93801380D02*
X173632809Y-93801380D01*
X173537571Y-93849000D01*
X173489952Y-93896619D01*
X173394714Y-94039476D01*
X173347095Y-94229952D01*
X173347095Y-94610904D01*
X173394714Y-94706142D01*
X173442333Y-94753761D01*
X173537571Y-94801380D01*
X173728047Y-94801380D01*
X173823285Y-94753761D01*
X173870904Y-94706142D01*
X173918523Y-94610904D01*
X173918523Y-94372809D01*
X173870904Y-94277571D01*
X173823285Y-94229952D01*
X173728047Y-94182333D01*
X173537571Y-94182333D01*
X173442333Y-94229952D01*
X173394714Y-94277571D01*
X173347095Y-94372809D01*
X174823285Y-93801380D02*
X174347095Y-93801380D01*
X174299476Y-94277571D01*
X174347095Y-94229952D01*
X174442333Y-94182333D01*
X174680428Y-94182333D01*
X174775666Y-94229952D01*
X174823285Y-94277571D01*
X174870904Y-94372809D01*
X174870904Y-94610904D01*
X174823285Y-94706142D01*
X174775666Y-94753761D01*
X174680428Y-94801380D01*
X174442333Y-94801380D01*
X174347095Y-94753761D01*
X174299476Y-94706142D01*
X168948047Y-92870428D02*
X169709952Y-92870428D01*
X169329000Y-93251380D02*
X169329000Y-92489476D01*
X144280238Y-99004380D02*
X143804047Y-99004380D01*
X143804047Y-98004380D01*
X145042142Y-98337714D02*
X145042142Y-99004380D01*
X144613571Y-98337714D02*
X144613571Y-98861523D01*
X144661190Y-98956761D01*
X144756428Y-99004380D01*
X144899285Y-99004380D01*
X144994523Y-98956761D01*
X145042142Y-98909142D01*
X145518333Y-99004380D02*
X145518333Y-98337714D01*
X145518333Y-98432952D02*
X145565952Y-98385333D01*
X145661190Y-98337714D01*
X145804047Y-98337714D01*
X145899285Y-98385333D01*
X145946904Y-98480571D01*
X145946904Y-99004380D01*
X145946904Y-98480571D02*
X145994523Y-98385333D01*
X146089761Y-98337714D01*
X146232619Y-98337714D01*
X146327857Y-98385333D01*
X146375476Y-98480571D01*
X146375476Y-99004380D01*
X147280238Y-99004380D02*
X147280238Y-98480571D01*
X147232619Y-98385333D01*
X147137380Y-98337714D01*
X146946904Y-98337714D01*
X146851666Y-98385333D01*
X147280238Y-98956761D02*
X147185000Y-99004380D01*
X146946904Y-99004380D01*
X146851666Y-98956761D01*
X146804047Y-98861523D01*
X146804047Y-98766285D01*
X146851666Y-98671047D01*
X146946904Y-98623428D01*
X147185000Y-98623428D01*
X147280238Y-98575809D01*
X148518333Y-99004380D02*
X148518333Y-98004380D01*
X148994523Y-99004380D02*
X148994523Y-98004380D01*
X149565952Y-99004380D01*
X149565952Y-98004380D01*
X143518333Y-103862142D02*
X143470714Y-103909761D01*
X143327857Y-103957380D01*
X143232619Y-103957380D01*
X143089761Y-103909761D01*
X142994523Y-103814523D01*
X142946904Y-103719285D01*
X142899285Y-103528809D01*
X142899285Y-103385952D01*
X142946904Y-103195476D01*
X142994523Y-103100238D01*
X143089761Y-103005000D01*
X143232619Y-102957380D01*
X143327857Y-102957380D01*
X143470714Y-103005000D01*
X143518333Y-103052619D01*
X143946904Y-103957380D02*
X143946904Y-102957380D01*
X144375476Y-103957380D02*
X144375476Y-103433571D01*
X144327857Y-103338333D01*
X144232619Y-103290714D01*
X144089761Y-103290714D01*
X143994523Y-103338333D01*
X143946904Y-103385952D01*
X144851666Y-103957380D02*
X144851666Y-103290714D01*
X144851666Y-103481190D02*
X144899285Y-103385952D01*
X144946904Y-103338333D01*
X145042142Y-103290714D01*
X145137380Y-103290714D01*
X145613571Y-103957380D02*
X145518333Y-103909761D01*
X145470714Y-103862142D01*
X145423095Y-103766904D01*
X145423095Y-103481190D01*
X145470714Y-103385952D01*
X145518333Y-103338333D01*
X145613571Y-103290714D01*
X145756428Y-103290714D01*
X145851666Y-103338333D01*
X145899285Y-103385952D01*
X145946904Y-103481190D01*
X145946904Y-103766904D01*
X145899285Y-103862142D01*
X145851666Y-103909761D01*
X145756428Y-103957380D01*
X145613571Y-103957380D01*
X146375476Y-103957380D02*
X146375476Y-103290714D01*
X146375476Y-103385952D02*
X146423095Y-103338333D01*
X146518333Y-103290714D01*
X146661190Y-103290714D01*
X146756428Y-103338333D01*
X146804047Y-103433571D01*
X146804047Y-103957380D01*
X146804047Y-103433571D02*
X146851666Y-103338333D01*
X146946904Y-103290714D01*
X147089761Y-103290714D01*
X147185000Y-103338333D01*
X147232619Y-103433571D01*
X147232619Y-103957380D01*
X148137380Y-103957380D02*
X148137380Y-103433571D01*
X148089761Y-103338333D01*
X147994523Y-103290714D01*
X147804047Y-103290714D01*
X147708809Y-103338333D01*
X148137380Y-103909761D02*
X148042142Y-103957380D01*
X147804047Y-103957380D01*
X147708809Y-103909761D01*
X147661190Y-103814523D01*
X147661190Y-103719285D01*
X147708809Y-103624047D01*
X147804047Y-103576428D01*
X148042142Y-103576428D01*
X148137380Y-103528809D01*
X149375476Y-103957380D02*
X149375476Y-102957380D01*
X149851666Y-103957380D02*
X149851666Y-102957380D01*
X150423095Y-103957380D01*
X150423095Y-102957380D01*
X142875476Y-108783428D02*
X143637380Y-108783428D01*
X143256428Y-109164380D02*
X143256428Y-108402476D01*
X144589761Y-108164380D02*
X144113571Y-108164380D01*
X144065952Y-108640571D01*
X144113571Y-108592952D01*
X144208809Y-108545333D01*
X144446904Y-108545333D01*
X144542142Y-108592952D01*
X144589761Y-108640571D01*
X144637380Y-108735809D01*
X144637380Y-108973904D01*
X144589761Y-109069142D01*
X144542142Y-109116761D01*
X144446904Y-109164380D01*
X144208809Y-109164380D01*
X144113571Y-109116761D01*
X144065952Y-109069142D01*
X145685000Y-108164380D02*
X146018333Y-109164380D01*
X146351666Y-108164380D01*
X146827857Y-109164380D02*
X146732619Y-109116761D01*
X146685000Y-109069142D01*
X146637380Y-108973904D01*
X146637380Y-108688190D01*
X146685000Y-108592952D01*
X146732619Y-108545333D01*
X146827857Y-108497714D01*
X146970714Y-108497714D01*
X147065952Y-108545333D01*
X147113571Y-108592952D01*
X147161190Y-108688190D01*
X147161190Y-108973904D01*
X147113571Y-109069142D01*
X147065952Y-109116761D01*
X146970714Y-109164380D01*
X146827857Y-109164380D01*
X147732619Y-109164380D02*
X147637380Y-109116761D01*
X147589761Y-109021523D01*
X147589761Y-108164380D01*
X147970714Y-108497714D02*
X148351666Y-108497714D01*
X148113571Y-108164380D02*
X148113571Y-109021523D01*
X148161190Y-109116761D01*
X148256428Y-109164380D01*
X148351666Y-109164380D01*
X149446904Y-109164380D02*
X149446904Y-108164380D01*
X149923095Y-109164380D02*
X149923095Y-108164380D01*
X150494523Y-109164380D01*
X150494523Y-108164380D01*
X174077333Y-107386380D02*
X173744000Y-106910190D01*
X173505904Y-107386380D02*
X173505904Y-106386380D01*
X173886857Y-106386380D01*
X173982095Y-106434000D01*
X174029714Y-106481619D01*
X174077333Y-106576857D01*
X174077333Y-106719714D01*
X174029714Y-106814952D01*
X173982095Y-106862571D01*
X173886857Y-106910190D01*
X173505904Y-106910190D01*
X175029714Y-107386380D02*
X174458285Y-107386380D01*
X174744000Y-107386380D02*
X174744000Y-106386380D01*
X174648761Y-106529238D01*
X174553523Y-106624476D01*
X174458285Y-106672095D01*
X167473333Y-110561380D02*
X167140000Y-110085190D01*
X166901904Y-110561380D02*
X166901904Y-109561380D01*
X167282857Y-109561380D01*
X167378095Y-109609000D01*
X167425714Y-109656619D01*
X167473333Y-109751857D01*
X167473333Y-109894714D01*
X167425714Y-109989952D01*
X167378095Y-110037571D01*
X167282857Y-110085190D01*
X166901904Y-110085190D01*
X167806666Y-109561380D02*
X168425714Y-109561380D01*
X168092380Y-109942333D01*
X168235238Y-109942333D01*
X168330476Y-109989952D01*
X168378095Y-110037571D01*
X168425714Y-110132809D01*
X168425714Y-110370904D01*
X168378095Y-110466142D01*
X168330476Y-110513761D01*
X168235238Y-110561380D01*
X167949523Y-110561380D01*
X167854285Y-110513761D01*
X167806666Y-110466142D01*
X157059333Y-97099380D02*
X156726000Y-96623190D01*
X156487904Y-97099380D02*
X156487904Y-96099380D01*
X156868857Y-96099380D01*
X156964095Y-96147000D01*
X157011714Y-96194619D01*
X157059333Y-96289857D01*
X157059333Y-96432714D01*
X157011714Y-96527952D01*
X156964095Y-96575571D01*
X156868857Y-96623190D01*
X156487904Y-96623190D01*
X157964095Y-96099380D02*
X157487904Y-96099380D01*
X157440285Y-96575571D01*
X157487904Y-96527952D01*
X157583142Y-96480333D01*
X157821238Y-96480333D01*
X157916476Y-96527952D01*
X157964095Y-96575571D01*
X158011714Y-96670809D01*
X158011714Y-96908904D01*
X157964095Y-97004142D01*
X157916476Y-97051761D01*
X157821238Y-97099380D01*
X157583142Y-97099380D01*
X157487904Y-97051761D01*
X157440285Y-97004142D01*
X155337380Y-92051047D02*
X154861190Y-92384380D01*
X155337380Y-92622476D02*
X154337380Y-92622476D01*
X154337380Y-92241523D01*
X154385000Y-92146285D01*
X154432619Y-92098666D01*
X154527857Y-92051047D01*
X154670714Y-92051047D01*
X154765952Y-92098666D01*
X154813571Y-92146285D01*
X154861190Y-92241523D01*
X154861190Y-92622476D01*
X154813571Y-91622476D02*
X154813571Y-91289142D01*
X155337380Y-91146285D02*
X155337380Y-91622476D01*
X154337380Y-91622476D01*
X154337380Y-91146285D01*
X154385000Y-90193904D02*
X154337380Y-90289142D01*
X154337380Y-90432000D01*
X154385000Y-90574857D01*
X154480238Y-90670095D01*
X154575476Y-90717714D01*
X154765952Y-90765333D01*
X154908809Y-90765333D01*
X155099285Y-90717714D01*
X155194523Y-90670095D01*
X155289761Y-90574857D01*
X155337380Y-90432000D01*
X155337380Y-90336761D01*
X155289761Y-90193904D01*
X155242142Y-90146285D01*
X154908809Y-90146285D01*
X154908809Y-90336761D01*
X155337380Y-89193904D02*
X155337380Y-89765333D01*
X155337380Y-89479619D02*
X154337380Y-89479619D01*
X154480238Y-89574857D01*
X154575476Y-89670095D01*
X154623095Y-89765333D01*
X159853380Y-107949904D02*
X160662904Y-107949904D01*
X160758142Y-107902285D01*
X160805761Y-107854666D01*
X160853380Y-107759428D01*
X160853380Y-107568952D01*
X160805761Y-107473714D01*
X160758142Y-107426095D01*
X160662904Y-107378476D01*
X159853380Y-107378476D01*
X160853380Y-106378476D02*
X160853380Y-106949904D01*
X160853380Y-106664190D02*
X159853380Y-106664190D01*
X159996238Y-106759428D01*
X160091476Y-106854666D01*
X160139095Y-106949904D01*
M02*
