M48
; DRILL file {KiCad (5.1.4)-1} date 4-11-2020 22:21:57
; FORMAT={-:-/ absolute / inch / decimal}
; #@! TF.CreationDate,2020-11-04T22:21:57+01:00
; #@! TF.GenerationSoftware,Kicad,Pcbnew,(5.1.4)-1
; #@! TF.FileFunction,Plated,1,4,PTH
FMAT,2
INCH
T1C0.0157
T2C0.0315
T3C0.0394
T4C0.0394
T5C0.0909
T6C0.1260
%
G90
G05
T1
X5.94Y-3.895
X6.01Y-3.79
X6.225Y-4.04
X6.25Y-3.77
X6.39Y-4.16
X6.395Y-3.82
X6.465Y-4.165
X6.475Y-3.74
X6.54Y-3.84
X6.64Y-4.115
X6.735Y-4.115
T2
X6.5314Y-4.0114
X6.745Y-3.79
X6.79Y-4.18
T3
X5.55Y-3.7
X5.55Y-3.7984
X5.8177Y-3.7
X5.8177Y-3.7984
T4
X5.75Y-4.4
X5.75Y-4.2
X5.75Y-4.0
T5
X5.4181Y-3.5819
X5.6839Y-3.5504
X5.9496Y-3.5819
T6
X6.9665Y-4.035
X5.47Y-4.035
T0
M30
