G04 #@! TF.GenerationSoftware,KiCad,Pcbnew,(5.1.4)-1*
G04 #@! TF.CreationDate,2020-11-04T22:22:00+01:00*
G04 #@! TF.ProjectId,S-VHS ZX Spectrum Rev. D,532d5648-5320-45a5-9820-537065637472,rev?*
G04 #@! TF.SameCoordinates,Original*
G04 #@! TF.FileFunction,Copper,L3,Inr*
G04 #@! TF.FilePolarity,Positive*
%FSLAX46Y46*%
G04 Gerber Fmt 4.6, Leading zero omitted, Abs format (unit mm)*
G04 Created by KiCad (PCBNEW (5.1.4)-1) date 2020-11-04 22:22:00*
%MOMM*%
%LPD*%
G04 APERTURE LIST*
%ADD10C,5.600000*%
%ADD11C,1.500000*%
%ADD12C,3.465000*%
%ADD13C,2.499360*%
%ADD14C,0.600000*%
%ADD15C,1.200000*%
%ADD16C,0.254000*%
G04 APERTURE END LIST*
D10*
X138938000Y-102489000D03*
X176950000Y-102489000D03*
D11*
X140970000Y-93980000D03*
X147770000Y-93980000D03*
X140970000Y-96480000D03*
X147770000Y-96480000D03*
D12*
X137620000Y-90980000D03*
X144370000Y-90180000D03*
X151120000Y-90980000D03*
D13*
X146050000Y-111760000D03*
X146050000Y-101600000D03*
X146050000Y-106680000D03*
D14*
X158115000Y-102616000D03*
X162433000Y-97028000D03*
X164465000Y-94996000D03*
X166116000Y-97536000D03*
X164211000Y-105791000D03*
X171069000Y-104521000D03*
X162306000Y-105664000D03*
X168656000Y-104521000D03*
X152654000Y-96266000D03*
X158750000Y-95758000D03*
X150876000Y-98933000D03*
D15*
X171323000Y-96266000D03*
X172466000Y-106172000D03*
X165896500Y-101888500D03*
D16*
G36*
X152629000Y-85184580D02*
G01*
X152625807Y-85217000D01*
X152638550Y-85346383D01*
X152676290Y-85470793D01*
X152737575Y-85585450D01*
X152820052Y-85685948D01*
X152920550Y-85768425D01*
X153035207Y-85829710D01*
X153159617Y-85867450D01*
X153289000Y-85880193D01*
X153321419Y-85877000D01*
X178918000Y-85877000D01*
X178918001Y-99686069D01*
X178874692Y-99623823D01*
X178278741Y-99303388D01*
X177631727Y-99105374D01*
X176958516Y-99037390D01*
X176284977Y-99102051D01*
X175636994Y-99296870D01*
X175039470Y-99614361D01*
X175025308Y-99623823D01*
X174713124Y-100072519D01*
X176950000Y-102309395D01*
X176964143Y-102295253D01*
X177143748Y-102474858D01*
X177129605Y-102489000D01*
X177143748Y-102503143D01*
X176964143Y-102682748D01*
X176950000Y-102668605D01*
X174713124Y-104905481D01*
X175025308Y-105354177D01*
X175621259Y-105674612D01*
X176268273Y-105872626D01*
X176941484Y-105940610D01*
X177615023Y-105875949D01*
X178263006Y-105681130D01*
X178860530Y-105363639D01*
X178874692Y-105354177D01*
X178918001Y-105291930D01*
X178918001Y-113386000D01*
X147008854Y-113386000D01*
X147251413Y-113223926D01*
X147513926Y-112961413D01*
X147720182Y-112652731D01*
X147862253Y-112309741D01*
X147934680Y-111945625D01*
X147934680Y-111574375D01*
X147862253Y-111210259D01*
X147720182Y-110867269D01*
X147513926Y-110558587D01*
X147251413Y-110296074D01*
X146942731Y-110089818D01*
X146599741Y-109947747D01*
X146235625Y-109875320D01*
X145864375Y-109875320D01*
X145500259Y-109947747D01*
X145157269Y-110089818D01*
X144848587Y-110296074D01*
X144586074Y-110558587D01*
X144379818Y-110867269D01*
X144237747Y-111210259D01*
X144165320Y-111574375D01*
X144165320Y-111945625D01*
X144237747Y-112309741D01*
X144379818Y-112652731D01*
X144586074Y-112961413D01*
X144848587Y-113223926D01*
X145091146Y-113386000D01*
X137248430Y-113386000D01*
X136549281Y-106494375D01*
X144165320Y-106494375D01*
X144165320Y-106865625D01*
X144237747Y-107229741D01*
X144379818Y-107572731D01*
X144586074Y-107881413D01*
X144848587Y-108143926D01*
X145157269Y-108350182D01*
X145500259Y-108492253D01*
X145864375Y-108564680D01*
X146235625Y-108564680D01*
X146599741Y-108492253D01*
X146942731Y-108350182D01*
X147251413Y-108143926D01*
X147513926Y-107881413D01*
X147720182Y-107572731D01*
X147862253Y-107229741D01*
X147934680Y-106865625D01*
X147934680Y-106494375D01*
X147862253Y-106130259D01*
X147720182Y-105787269D01*
X147576284Y-105571911D01*
X161371000Y-105571911D01*
X161371000Y-105756089D01*
X161406932Y-105936729D01*
X161477414Y-106106889D01*
X161579738Y-106260028D01*
X161709972Y-106390262D01*
X161863111Y-106492586D01*
X162033271Y-106563068D01*
X162213911Y-106599000D01*
X162398089Y-106599000D01*
X162578729Y-106563068D01*
X162748889Y-106492586D01*
X162902028Y-106390262D01*
X163032262Y-106260028D01*
X163134586Y-106106889D01*
X163205068Y-105936729D01*
X163241000Y-105756089D01*
X163241000Y-105571911D01*
X163205068Y-105391271D01*
X163134586Y-105221111D01*
X163032262Y-105067972D01*
X162902028Y-104937738D01*
X162748889Y-104835414D01*
X162578729Y-104764932D01*
X162398089Y-104729000D01*
X162213911Y-104729000D01*
X162033271Y-104764932D01*
X161863111Y-104835414D01*
X161709972Y-104937738D01*
X161579738Y-105067972D01*
X161477414Y-105221111D01*
X161406932Y-105391271D01*
X161371000Y-105571911D01*
X147576284Y-105571911D01*
X147513926Y-105478587D01*
X147251413Y-105216074D01*
X146942731Y-105009818D01*
X146599741Y-104867747D01*
X146235625Y-104795320D01*
X145864375Y-104795320D01*
X145500259Y-104867747D01*
X145157269Y-105009818D01*
X144848587Y-105216074D01*
X144586074Y-105478587D01*
X144379818Y-105787269D01*
X144237747Y-106130259D01*
X144165320Y-106494375D01*
X136549281Y-106494375D01*
X136423000Y-105249613D01*
X136423000Y-104905481D01*
X136701124Y-104905481D01*
X137013308Y-105354177D01*
X137609259Y-105674612D01*
X138256273Y-105872626D01*
X138929484Y-105940610D01*
X139603023Y-105875949D01*
X140251006Y-105681130D01*
X140848530Y-105363639D01*
X140862692Y-105354177D01*
X141174876Y-104905481D01*
X138938000Y-102668605D01*
X136701124Y-104905481D01*
X136423000Y-104905481D01*
X136423000Y-104657331D01*
X136521519Y-104725876D01*
X138758395Y-102489000D01*
X139117605Y-102489000D01*
X141354481Y-104725876D01*
X141781303Y-104428911D01*
X167721000Y-104428911D01*
X167721000Y-104613089D01*
X167756932Y-104793729D01*
X167827414Y-104963889D01*
X167929738Y-105117028D01*
X168059972Y-105247262D01*
X168213111Y-105349586D01*
X168383271Y-105420068D01*
X168563911Y-105456000D01*
X168748089Y-105456000D01*
X168928729Y-105420068D01*
X169098889Y-105349586D01*
X169252028Y-105247262D01*
X169382262Y-105117028D01*
X169484586Y-104963889D01*
X169555068Y-104793729D01*
X169591000Y-104613089D01*
X169591000Y-104428911D01*
X170134000Y-104428911D01*
X170134000Y-104613089D01*
X170169932Y-104793729D01*
X170240414Y-104963889D01*
X170342738Y-105117028D01*
X170472972Y-105247262D01*
X170626111Y-105349586D01*
X170796271Y-105420068D01*
X170976911Y-105456000D01*
X171161089Y-105456000D01*
X171341729Y-105420068D01*
X171511889Y-105349586D01*
X171602211Y-105289235D01*
X171506713Y-105384733D01*
X171371557Y-105587008D01*
X171278460Y-105811764D01*
X171231000Y-106050363D01*
X171231000Y-106293637D01*
X171278460Y-106532236D01*
X171371557Y-106756992D01*
X171506713Y-106959267D01*
X171678733Y-107131287D01*
X171881008Y-107266443D01*
X172105764Y-107359540D01*
X172344363Y-107407000D01*
X172587637Y-107407000D01*
X172826236Y-107359540D01*
X173050992Y-107266443D01*
X173253267Y-107131287D01*
X173425287Y-106959267D01*
X173560443Y-106756992D01*
X173653540Y-106532236D01*
X173701000Y-106293637D01*
X173701000Y-106050363D01*
X173653540Y-105811764D01*
X173560443Y-105587008D01*
X173425287Y-105384733D01*
X173253267Y-105212713D01*
X173050992Y-105077557D01*
X172826236Y-104984460D01*
X172587637Y-104937000D01*
X172344363Y-104937000D01*
X172105764Y-104984460D01*
X171881008Y-105077557D01*
X171741550Y-105170740D01*
X171795262Y-105117028D01*
X171897586Y-104963889D01*
X171968068Y-104793729D01*
X172004000Y-104613089D01*
X172004000Y-104428911D01*
X171968068Y-104248271D01*
X171897586Y-104078111D01*
X171795262Y-103924972D01*
X171665028Y-103794738D01*
X171511889Y-103692414D01*
X171341729Y-103621932D01*
X171161089Y-103586000D01*
X170976911Y-103586000D01*
X170796271Y-103621932D01*
X170626111Y-103692414D01*
X170472972Y-103794738D01*
X170342738Y-103924972D01*
X170240414Y-104078111D01*
X170169932Y-104248271D01*
X170134000Y-104428911D01*
X169591000Y-104428911D01*
X169555068Y-104248271D01*
X169484586Y-104078111D01*
X169382262Y-103924972D01*
X169252028Y-103794738D01*
X169098889Y-103692414D01*
X168928729Y-103621932D01*
X168748089Y-103586000D01*
X168563911Y-103586000D01*
X168383271Y-103621932D01*
X168213111Y-103692414D01*
X168059972Y-103794738D01*
X167929738Y-103924972D01*
X167827414Y-104078111D01*
X167756932Y-104248271D01*
X167721000Y-104428911D01*
X141781303Y-104428911D01*
X141803177Y-104413692D01*
X142123612Y-103817741D01*
X142321626Y-103170727D01*
X142389610Y-102497516D01*
X142324949Y-101823977D01*
X142201801Y-101414375D01*
X144165320Y-101414375D01*
X144165320Y-101785625D01*
X144237747Y-102149741D01*
X144379818Y-102492731D01*
X144586074Y-102801413D01*
X144848587Y-103063926D01*
X145157269Y-103270182D01*
X145500259Y-103412253D01*
X145864375Y-103484680D01*
X146235625Y-103484680D01*
X146599741Y-103412253D01*
X146942731Y-103270182D01*
X147251413Y-103063926D01*
X147513926Y-102801413D01*
X147720182Y-102492731D01*
X147862253Y-102149741D01*
X147934680Y-101785625D01*
X147934680Y-101766863D01*
X164661500Y-101766863D01*
X164661500Y-102010137D01*
X164708960Y-102248736D01*
X164802057Y-102473492D01*
X164937213Y-102675767D01*
X165109233Y-102847787D01*
X165311508Y-102982943D01*
X165536264Y-103076040D01*
X165774863Y-103123500D01*
X166018137Y-103123500D01*
X166256736Y-103076040D01*
X166481492Y-102982943D01*
X166683767Y-102847787D01*
X166855787Y-102675767D01*
X166986271Y-102480484D01*
X173498390Y-102480484D01*
X173563051Y-103154023D01*
X173757870Y-103802006D01*
X174075361Y-104399530D01*
X174084823Y-104413692D01*
X174533519Y-104725876D01*
X176770395Y-102489000D01*
X174533519Y-100252124D01*
X174084823Y-100564308D01*
X173764388Y-101160259D01*
X173566374Y-101807273D01*
X173498390Y-102480484D01*
X166986271Y-102480484D01*
X166990943Y-102473492D01*
X167084040Y-102248736D01*
X167131500Y-102010137D01*
X167131500Y-101766863D01*
X167084040Y-101528264D01*
X166990943Y-101303508D01*
X166855787Y-101101233D01*
X166683767Y-100929213D01*
X166481492Y-100794057D01*
X166256736Y-100700960D01*
X166018137Y-100653500D01*
X165774863Y-100653500D01*
X165536264Y-100700960D01*
X165311508Y-100794057D01*
X165109233Y-100929213D01*
X164937213Y-101101233D01*
X164802057Y-101303508D01*
X164708960Y-101528264D01*
X164661500Y-101766863D01*
X147934680Y-101766863D01*
X147934680Y-101414375D01*
X147862253Y-101050259D01*
X147720182Y-100707269D01*
X147513926Y-100398587D01*
X147251413Y-100136074D01*
X146942731Y-99929818D01*
X146599741Y-99787747D01*
X146235625Y-99715320D01*
X145864375Y-99715320D01*
X145500259Y-99787747D01*
X145157269Y-99929818D01*
X144848587Y-100136074D01*
X144586074Y-100398587D01*
X144379818Y-100707269D01*
X144237747Y-101050259D01*
X144165320Y-101414375D01*
X142201801Y-101414375D01*
X142130130Y-101175994D01*
X141812639Y-100578470D01*
X141803177Y-100564308D01*
X141354481Y-100252124D01*
X139117605Y-102489000D01*
X138758395Y-102489000D01*
X136521519Y-100252124D01*
X136423000Y-100320669D01*
X136423000Y-100072519D01*
X136701124Y-100072519D01*
X138938000Y-102309395D01*
X141174876Y-100072519D01*
X140862692Y-99623823D01*
X140266741Y-99303388D01*
X139619727Y-99105374D01*
X138946516Y-99037390D01*
X138272977Y-99102051D01*
X137624994Y-99296870D01*
X137027470Y-99614361D01*
X137013308Y-99623823D01*
X136701124Y-100072519D01*
X136423000Y-100072519D01*
X136423000Y-98840911D01*
X149941000Y-98840911D01*
X149941000Y-99025089D01*
X149976932Y-99205729D01*
X150047414Y-99375889D01*
X150149738Y-99529028D01*
X150279972Y-99659262D01*
X150433111Y-99761586D01*
X150603271Y-99832068D01*
X150783911Y-99868000D01*
X150968089Y-99868000D01*
X151148729Y-99832068D01*
X151318889Y-99761586D01*
X151472028Y-99659262D01*
X151602262Y-99529028D01*
X151704586Y-99375889D01*
X151775068Y-99205729D01*
X151811000Y-99025089D01*
X151811000Y-98840911D01*
X151775068Y-98660271D01*
X151704586Y-98490111D01*
X151602262Y-98336972D01*
X151472028Y-98206738D01*
X151318889Y-98104414D01*
X151148729Y-98033932D01*
X150968089Y-97998000D01*
X150783911Y-97998000D01*
X150603271Y-98033932D01*
X150433111Y-98104414D01*
X150279972Y-98206738D01*
X150149738Y-98336972D01*
X150047414Y-98490111D01*
X149976932Y-98660271D01*
X149941000Y-98840911D01*
X136423000Y-98840911D01*
X136423000Y-96343589D01*
X139585000Y-96343589D01*
X139585000Y-96616411D01*
X139638225Y-96883989D01*
X139742629Y-97136043D01*
X139894201Y-97362886D01*
X140087114Y-97555799D01*
X140313957Y-97707371D01*
X140566011Y-97811775D01*
X140833589Y-97865000D01*
X141106411Y-97865000D01*
X141373989Y-97811775D01*
X141626043Y-97707371D01*
X141852886Y-97555799D01*
X142045799Y-97362886D01*
X142197371Y-97136043D01*
X142301775Y-96883989D01*
X142355000Y-96616411D01*
X142355000Y-96343589D01*
X146385000Y-96343589D01*
X146385000Y-96616411D01*
X146438225Y-96883989D01*
X146542629Y-97136043D01*
X146694201Y-97362886D01*
X146887114Y-97555799D01*
X147113957Y-97707371D01*
X147366011Y-97811775D01*
X147633589Y-97865000D01*
X147906411Y-97865000D01*
X148173989Y-97811775D01*
X148426043Y-97707371D01*
X148652886Y-97555799D01*
X148845799Y-97362886D01*
X148997371Y-97136043D01*
X149101775Y-96883989D01*
X149155000Y-96616411D01*
X149155000Y-96343589D01*
X149121249Y-96173911D01*
X151719000Y-96173911D01*
X151719000Y-96358089D01*
X151754932Y-96538729D01*
X151825414Y-96708889D01*
X151927738Y-96862028D01*
X152057972Y-96992262D01*
X152211111Y-97094586D01*
X152381271Y-97165068D01*
X152561911Y-97201000D01*
X152746089Y-97201000D01*
X152926729Y-97165068D01*
X153096889Y-97094586D01*
X153250028Y-96992262D01*
X153380262Y-96862028D01*
X153482586Y-96708889D01*
X153553068Y-96538729D01*
X153589000Y-96358089D01*
X153589000Y-96173911D01*
X153553068Y-95993271D01*
X153482586Y-95823111D01*
X153380262Y-95669972D01*
X153376201Y-95665911D01*
X157815000Y-95665911D01*
X157815000Y-95850089D01*
X157850932Y-96030729D01*
X157921414Y-96200889D01*
X158023738Y-96354028D01*
X158153972Y-96484262D01*
X158307111Y-96586586D01*
X158477271Y-96657068D01*
X158657911Y-96693000D01*
X158842089Y-96693000D01*
X159022729Y-96657068D01*
X159192889Y-96586586D01*
X159346028Y-96484262D01*
X159476262Y-96354028D01*
X159578586Y-96200889D01*
X159601999Y-96144363D01*
X170088000Y-96144363D01*
X170088000Y-96387637D01*
X170135460Y-96626236D01*
X170228557Y-96850992D01*
X170363713Y-97053267D01*
X170535733Y-97225287D01*
X170738008Y-97360443D01*
X170962764Y-97453540D01*
X171201363Y-97501000D01*
X171444637Y-97501000D01*
X171683236Y-97453540D01*
X171907992Y-97360443D01*
X172110267Y-97225287D01*
X172282287Y-97053267D01*
X172417443Y-96850992D01*
X172510540Y-96626236D01*
X172558000Y-96387637D01*
X172558000Y-96144363D01*
X172510540Y-95905764D01*
X172417443Y-95681008D01*
X172282287Y-95478733D01*
X172110267Y-95306713D01*
X171907992Y-95171557D01*
X171683236Y-95078460D01*
X171444637Y-95031000D01*
X171201363Y-95031000D01*
X170962764Y-95078460D01*
X170738008Y-95171557D01*
X170535733Y-95306713D01*
X170363713Y-95478733D01*
X170228557Y-95681008D01*
X170135460Y-95905764D01*
X170088000Y-96144363D01*
X159601999Y-96144363D01*
X159649068Y-96030729D01*
X159685000Y-95850089D01*
X159685000Y-95665911D01*
X159649068Y-95485271D01*
X159578586Y-95315111D01*
X159476262Y-95161972D01*
X159346028Y-95031738D01*
X159192889Y-94929414D01*
X159022729Y-94858932D01*
X158842089Y-94823000D01*
X158657911Y-94823000D01*
X158477271Y-94858932D01*
X158307111Y-94929414D01*
X158153972Y-95031738D01*
X158023738Y-95161972D01*
X157921414Y-95315111D01*
X157850932Y-95485271D01*
X157815000Y-95665911D01*
X153376201Y-95665911D01*
X153250028Y-95539738D01*
X153096889Y-95437414D01*
X152926729Y-95366932D01*
X152746089Y-95331000D01*
X152561911Y-95331000D01*
X152381271Y-95366932D01*
X152211111Y-95437414D01*
X152057972Y-95539738D01*
X151927738Y-95669972D01*
X151825414Y-95823111D01*
X151754932Y-95993271D01*
X151719000Y-96173911D01*
X149121249Y-96173911D01*
X149101775Y-96076011D01*
X148997371Y-95823957D01*
X148845799Y-95597114D01*
X148652886Y-95404201D01*
X148426043Y-95252629D01*
X148376574Y-95232139D01*
X148481863Y-95175860D01*
X148547388Y-94936993D01*
X147770000Y-94159605D01*
X146992612Y-94936993D01*
X147058137Y-95175860D01*
X147171201Y-95228918D01*
X147113957Y-95252629D01*
X146887114Y-95404201D01*
X146694201Y-95597114D01*
X146542629Y-95823957D01*
X146438225Y-96076011D01*
X146385000Y-96343589D01*
X142355000Y-96343589D01*
X142301775Y-96076011D01*
X142197371Y-95823957D01*
X142045799Y-95597114D01*
X141852886Y-95404201D01*
X141626043Y-95252629D01*
X141576574Y-95232139D01*
X141681863Y-95175860D01*
X141747388Y-94936993D01*
X140970000Y-94159605D01*
X140192612Y-94936993D01*
X140258137Y-95175860D01*
X140371201Y-95228918D01*
X140313957Y-95252629D01*
X140087114Y-95404201D01*
X139894201Y-95597114D01*
X139742629Y-95823957D01*
X139638225Y-96076011D01*
X139585000Y-96343589D01*
X136423000Y-96343589D01*
X136423000Y-94052492D01*
X139580188Y-94052492D01*
X139621035Y-94322238D01*
X139713723Y-94578832D01*
X139774140Y-94691863D01*
X140013007Y-94757388D01*
X140790395Y-93980000D01*
X141149605Y-93980000D01*
X141926993Y-94757388D01*
X142165860Y-94691863D01*
X142281760Y-94444884D01*
X142347250Y-94180040D01*
X142353129Y-94052492D01*
X146380188Y-94052492D01*
X146421035Y-94322238D01*
X146513723Y-94578832D01*
X146574140Y-94691863D01*
X146813007Y-94757388D01*
X147590395Y-93980000D01*
X147949605Y-93980000D01*
X148726993Y-94757388D01*
X148965860Y-94691863D01*
X149081760Y-94444884D01*
X149147250Y-94180040D01*
X149159812Y-93907508D01*
X149118965Y-93637762D01*
X149026277Y-93381168D01*
X148965860Y-93268137D01*
X148726993Y-93202612D01*
X147949605Y-93980000D01*
X147590395Y-93980000D01*
X146813007Y-93202612D01*
X146574140Y-93268137D01*
X146458240Y-93515116D01*
X146392750Y-93779960D01*
X146380188Y-94052492D01*
X142353129Y-94052492D01*
X142359812Y-93907508D01*
X142318965Y-93637762D01*
X142226277Y-93381168D01*
X142165860Y-93268137D01*
X141926993Y-93202612D01*
X141149605Y-93980000D01*
X140790395Y-93980000D01*
X140013007Y-93202612D01*
X139774140Y-93268137D01*
X139658240Y-93515116D01*
X139592750Y-93779960D01*
X139580188Y-94052492D01*
X136423000Y-94052492D01*
X136423000Y-93027558D01*
X136498568Y-93078051D01*
X136929426Y-93256518D01*
X137386822Y-93347500D01*
X137853178Y-93347500D01*
X138310574Y-93256518D01*
X138741432Y-93078051D01*
X138823811Y-93023007D01*
X140192612Y-93023007D01*
X140970000Y-93800395D01*
X141747388Y-93023007D01*
X146992612Y-93023007D01*
X147770000Y-93800395D01*
X148547388Y-93023007D01*
X148481863Y-92784140D01*
X148234884Y-92668240D01*
X147970040Y-92602750D01*
X147697508Y-92590188D01*
X147427762Y-92631035D01*
X147171168Y-92723723D01*
X147058137Y-92784140D01*
X146992612Y-93023007D01*
X141747388Y-93023007D01*
X141681863Y-92784140D01*
X141434884Y-92668240D01*
X141170040Y-92602750D01*
X140897508Y-92590188D01*
X140627762Y-92631035D01*
X140371168Y-92723723D01*
X140258137Y-92784140D01*
X140192612Y-93023007D01*
X138823811Y-93023007D01*
X139129193Y-92818957D01*
X139458957Y-92489193D01*
X139718051Y-92101432D01*
X139896518Y-91670574D01*
X139987500Y-91213178D01*
X139987500Y-90746822D01*
X139896518Y-90289426D01*
X139754607Y-89946822D01*
X142002500Y-89946822D01*
X142002500Y-90413178D01*
X142093482Y-90870574D01*
X142271949Y-91301432D01*
X142531043Y-91689193D01*
X142860807Y-92018957D01*
X143248568Y-92278051D01*
X143679426Y-92456518D01*
X144136822Y-92547500D01*
X144603178Y-92547500D01*
X145060574Y-92456518D01*
X145491432Y-92278051D01*
X145879193Y-92018957D01*
X146208957Y-91689193D01*
X146468051Y-91301432D01*
X146646518Y-90870574D01*
X146671133Y-90746822D01*
X148752500Y-90746822D01*
X148752500Y-91213178D01*
X148843482Y-91670574D01*
X149021949Y-92101432D01*
X149281043Y-92489193D01*
X149610807Y-92818957D01*
X149998568Y-93078051D01*
X150429426Y-93256518D01*
X150886822Y-93347500D01*
X151353178Y-93347500D01*
X151810574Y-93256518D01*
X152241432Y-93078051D01*
X152629193Y-92818957D01*
X152958957Y-92489193D01*
X153218051Y-92101432D01*
X153396518Y-91670574D01*
X153487500Y-91213178D01*
X153487500Y-90746822D01*
X153396518Y-90289426D01*
X153218051Y-89858568D01*
X152958957Y-89470807D01*
X152629193Y-89141043D01*
X152241432Y-88881949D01*
X151810574Y-88703482D01*
X151353178Y-88612500D01*
X150886822Y-88612500D01*
X150429426Y-88703482D01*
X149998568Y-88881949D01*
X149610807Y-89141043D01*
X149281043Y-89470807D01*
X149021949Y-89858568D01*
X148843482Y-90289426D01*
X148752500Y-90746822D01*
X146671133Y-90746822D01*
X146737500Y-90413178D01*
X146737500Y-89946822D01*
X146646518Y-89489426D01*
X146468051Y-89058568D01*
X146208957Y-88670807D01*
X145879193Y-88341043D01*
X145491432Y-88081949D01*
X145060574Y-87903482D01*
X144603178Y-87812500D01*
X144136822Y-87812500D01*
X143679426Y-87903482D01*
X143248568Y-88081949D01*
X142860807Y-88341043D01*
X142531043Y-88670807D01*
X142271949Y-89058568D01*
X142093482Y-89489426D01*
X142002500Y-89946822D01*
X139754607Y-89946822D01*
X139718051Y-89858568D01*
X139458957Y-89470807D01*
X139129193Y-89141043D01*
X138741432Y-88881949D01*
X138310574Y-88703482D01*
X137853178Y-88612500D01*
X137386822Y-88612500D01*
X136929426Y-88703482D01*
X136498568Y-88881949D01*
X136423000Y-88932442D01*
X136423000Y-84480000D01*
X152629001Y-84480000D01*
X152629000Y-85184580D01*
X152629000Y-85184580D01*
G37*
X152629000Y-85184580D02*
X152625807Y-85217000D01*
X152638550Y-85346383D01*
X152676290Y-85470793D01*
X152737575Y-85585450D01*
X152820052Y-85685948D01*
X152920550Y-85768425D01*
X153035207Y-85829710D01*
X153159617Y-85867450D01*
X153289000Y-85880193D01*
X153321419Y-85877000D01*
X178918000Y-85877000D01*
X178918001Y-99686069D01*
X178874692Y-99623823D01*
X178278741Y-99303388D01*
X177631727Y-99105374D01*
X176958516Y-99037390D01*
X176284977Y-99102051D01*
X175636994Y-99296870D01*
X175039470Y-99614361D01*
X175025308Y-99623823D01*
X174713124Y-100072519D01*
X176950000Y-102309395D01*
X176964143Y-102295253D01*
X177143748Y-102474858D01*
X177129605Y-102489000D01*
X177143748Y-102503143D01*
X176964143Y-102682748D01*
X176950000Y-102668605D01*
X174713124Y-104905481D01*
X175025308Y-105354177D01*
X175621259Y-105674612D01*
X176268273Y-105872626D01*
X176941484Y-105940610D01*
X177615023Y-105875949D01*
X178263006Y-105681130D01*
X178860530Y-105363639D01*
X178874692Y-105354177D01*
X178918001Y-105291930D01*
X178918001Y-113386000D01*
X147008854Y-113386000D01*
X147251413Y-113223926D01*
X147513926Y-112961413D01*
X147720182Y-112652731D01*
X147862253Y-112309741D01*
X147934680Y-111945625D01*
X147934680Y-111574375D01*
X147862253Y-111210259D01*
X147720182Y-110867269D01*
X147513926Y-110558587D01*
X147251413Y-110296074D01*
X146942731Y-110089818D01*
X146599741Y-109947747D01*
X146235625Y-109875320D01*
X145864375Y-109875320D01*
X145500259Y-109947747D01*
X145157269Y-110089818D01*
X144848587Y-110296074D01*
X144586074Y-110558587D01*
X144379818Y-110867269D01*
X144237747Y-111210259D01*
X144165320Y-111574375D01*
X144165320Y-111945625D01*
X144237747Y-112309741D01*
X144379818Y-112652731D01*
X144586074Y-112961413D01*
X144848587Y-113223926D01*
X145091146Y-113386000D01*
X137248430Y-113386000D01*
X136549281Y-106494375D01*
X144165320Y-106494375D01*
X144165320Y-106865625D01*
X144237747Y-107229741D01*
X144379818Y-107572731D01*
X144586074Y-107881413D01*
X144848587Y-108143926D01*
X145157269Y-108350182D01*
X145500259Y-108492253D01*
X145864375Y-108564680D01*
X146235625Y-108564680D01*
X146599741Y-108492253D01*
X146942731Y-108350182D01*
X147251413Y-108143926D01*
X147513926Y-107881413D01*
X147720182Y-107572731D01*
X147862253Y-107229741D01*
X147934680Y-106865625D01*
X147934680Y-106494375D01*
X147862253Y-106130259D01*
X147720182Y-105787269D01*
X147576284Y-105571911D01*
X161371000Y-105571911D01*
X161371000Y-105756089D01*
X161406932Y-105936729D01*
X161477414Y-106106889D01*
X161579738Y-106260028D01*
X161709972Y-106390262D01*
X161863111Y-106492586D01*
X162033271Y-106563068D01*
X162213911Y-106599000D01*
X162398089Y-106599000D01*
X162578729Y-106563068D01*
X162748889Y-106492586D01*
X162902028Y-106390262D01*
X163032262Y-106260028D01*
X163134586Y-106106889D01*
X163205068Y-105936729D01*
X163241000Y-105756089D01*
X163241000Y-105571911D01*
X163205068Y-105391271D01*
X163134586Y-105221111D01*
X163032262Y-105067972D01*
X162902028Y-104937738D01*
X162748889Y-104835414D01*
X162578729Y-104764932D01*
X162398089Y-104729000D01*
X162213911Y-104729000D01*
X162033271Y-104764932D01*
X161863111Y-104835414D01*
X161709972Y-104937738D01*
X161579738Y-105067972D01*
X161477414Y-105221111D01*
X161406932Y-105391271D01*
X161371000Y-105571911D01*
X147576284Y-105571911D01*
X147513926Y-105478587D01*
X147251413Y-105216074D01*
X146942731Y-105009818D01*
X146599741Y-104867747D01*
X146235625Y-104795320D01*
X145864375Y-104795320D01*
X145500259Y-104867747D01*
X145157269Y-105009818D01*
X144848587Y-105216074D01*
X144586074Y-105478587D01*
X144379818Y-105787269D01*
X144237747Y-106130259D01*
X144165320Y-106494375D01*
X136549281Y-106494375D01*
X136423000Y-105249613D01*
X136423000Y-104905481D01*
X136701124Y-104905481D01*
X137013308Y-105354177D01*
X137609259Y-105674612D01*
X138256273Y-105872626D01*
X138929484Y-105940610D01*
X139603023Y-105875949D01*
X140251006Y-105681130D01*
X140848530Y-105363639D01*
X140862692Y-105354177D01*
X141174876Y-104905481D01*
X138938000Y-102668605D01*
X136701124Y-104905481D01*
X136423000Y-104905481D01*
X136423000Y-104657331D01*
X136521519Y-104725876D01*
X138758395Y-102489000D01*
X139117605Y-102489000D01*
X141354481Y-104725876D01*
X141781303Y-104428911D01*
X167721000Y-104428911D01*
X167721000Y-104613089D01*
X167756932Y-104793729D01*
X167827414Y-104963889D01*
X167929738Y-105117028D01*
X168059972Y-105247262D01*
X168213111Y-105349586D01*
X168383271Y-105420068D01*
X168563911Y-105456000D01*
X168748089Y-105456000D01*
X168928729Y-105420068D01*
X169098889Y-105349586D01*
X169252028Y-105247262D01*
X169382262Y-105117028D01*
X169484586Y-104963889D01*
X169555068Y-104793729D01*
X169591000Y-104613089D01*
X169591000Y-104428911D01*
X170134000Y-104428911D01*
X170134000Y-104613089D01*
X170169932Y-104793729D01*
X170240414Y-104963889D01*
X170342738Y-105117028D01*
X170472972Y-105247262D01*
X170626111Y-105349586D01*
X170796271Y-105420068D01*
X170976911Y-105456000D01*
X171161089Y-105456000D01*
X171341729Y-105420068D01*
X171511889Y-105349586D01*
X171602211Y-105289235D01*
X171506713Y-105384733D01*
X171371557Y-105587008D01*
X171278460Y-105811764D01*
X171231000Y-106050363D01*
X171231000Y-106293637D01*
X171278460Y-106532236D01*
X171371557Y-106756992D01*
X171506713Y-106959267D01*
X171678733Y-107131287D01*
X171881008Y-107266443D01*
X172105764Y-107359540D01*
X172344363Y-107407000D01*
X172587637Y-107407000D01*
X172826236Y-107359540D01*
X173050992Y-107266443D01*
X173253267Y-107131287D01*
X173425287Y-106959267D01*
X173560443Y-106756992D01*
X173653540Y-106532236D01*
X173701000Y-106293637D01*
X173701000Y-106050363D01*
X173653540Y-105811764D01*
X173560443Y-105587008D01*
X173425287Y-105384733D01*
X173253267Y-105212713D01*
X173050992Y-105077557D01*
X172826236Y-104984460D01*
X172587637Y-104937000D01*
X172344363Y-104937000D01*
X172105764Y-104984460D01*
X171881008Y-105077557D01*
X171741550Y-105170740D01*
X171795262Y-105117028D01*
X171897586Y-104963889D01*
X171968068Y-104793729D01*
X172004000Y-104613089D01*
X172004000Y-104428911D01*
X171968068Y-104248271D01*
X171897586Y-104078111D01*
X171795262Y-103924972D01*
X171665028Y-103794738D01*
X171511889Y-103692414D01*
X171341729Y-103621932D01*
X171161089Y-103586000D01*
X170976911Y-103586000D01*
X170796271Y-103621932D01*
X170626111Y-103692414D01*
X170472972Y-103794738D01*
X170342738Y-103924972D01*
X170240414Y-104078111D01*
X170169932Y-104248271D01*
X170134000Y-104428911D01*
X169591000Y-104428911D01*
X169555068Y-104248271D01*
X169484586Y-104078111D01*
X169382262Y-103924972D01*
X169252028Y-103794738D01*
X169098889Y-103692414D01*
X168928729Y-103621932D01*
X168748089Y-103586000D01*
X168563911Y-103586000D01*
X168383271Y-103621932D01*
X168213111Y-103692414D01*
X168059972Y-103794738D01*
X167929738Y-103924972D01*
X167827414Y-104078111D01*
X167756932Y-104248271D01*
X167721000Y-104428911D01*
X141781303Y-104428911D01*
X141803177Y-104413692D01*
X142123612Y-103817741D01*
X142321626Y-103170727D01*
X142389610Y-102497516D01*
X142324949Y-101823977D01*
X142201801Y-101414375D01*
X144165320Y-101414375D01*
X144165320Y-101785625D01*
X144237747Y-102149741D01*
X144379818Y-102492731D01*
X144586074Y-102801413D01*
X144848587Y-103063926D01*
X145157269Y-103270182D01*
X145500259Y-103412253D01*
X145864375Y-103484680D01*
X146235625Y-103484680D01*
X146599741Y-103412253D01*
X146942731Y-103270182D01*
X147251413Y-103063926D01*
X147513926Y-102801413D01*
X147720182Y-102492731D01*
X147862253Y-102149741D01*
X147934680Y-101785625D01*
X147934680Y-101766863D01*
X164661500Y-101766863D01*
X164661500Y-102010137D01*
X164708960Y-102248736D01*
X164802057Y-102473492D01*
X164937213Y-102675767D01*
X165109233Y-102847787D01*
X165311508Y-102982943D01*
X165536264Y-103076040D01*
X165774863Y-103123500D01*
X166018137Y-103123500D01*
X166256736Y-103076040D01*
X166481492Y-102982943D01*
X166683767Y-102847787D01*
X166855787Y-102675767D01*
X166986271Y-102480484D01*
X173498390Y-102480484D01*
X173563051Y-103154023D01*
X173757870Y-103802006D01*
X174075361Y-104399530D01*
X174084823Y-104413692D01*
X174533519Y-104725876D01*
X176770395Y-102489000D01*
X174533519Y-100252124D01*
X174084823Y-100564308D01*
X173764388Y-101160259D01*
X173566374Y-101807273D01*
X173498390Y-102480484D01*
X166986271Y-102480484D01*
X166990943Y-102473492D01*
X167084040Y-102248736D01*
X167131500Y-102010137D01*
X167131500Y-101766863D01*
X167084040Y-101528264D01*
X166990943Y-101303508D01*
X166855787Y-101101233D01*
X166683767Y-100929213D01*
X166481492Y-100794057D01*
X166256736Y-100700960D01*
X166018137Y-100653500D01*
X165774863Y-100653500D01*
X165536264Y-100700960D01*
X165311508Y-100794057D01*
X165109233Y-100929213D01*
X164937213Y-101101233D01*
X164802057Y-101303508D01*
X164708960Y-101528264D01*
X164661500Y-101766863D01*
X147934680Y-101766863D01*
X147934680Y-101414375D01*
X147862253Y-101050259D01*
X147720182Y-100707269D01*
X147513926Y-100398587D01*
X147251413Y-100136074D01*
X146942731Y-99929818D01*
X146599741Y-99787747D01*
X146235625Y-99715320D01*
X145864375Y-99715320D01*
X145500259Y-99787747D01*
X145157269Y-99929818D01*
X144848587Y-100136074D01*
X144586074Y-100398587D01*
X144379818Y-100707269D01*
X144237747Y-101050259D01*
X144165320Y-101414375D01*
X142201801Y-101414375D01*
X142130130Y-101175994D01*
X141812639Y-100578470D01*
X141803177Y-100564308D01*
X141354481Y-100252124D01*
X139117605Y-102489000D01*
X138758395Y-102489000D01*
X136521519Y-100252124D01*
X136423000Y-100320669D01*
X136423000Y-100072519D01*
X136701124Y-100072519D01*
X138938000Y-102309395D01*
X141174876Y-100072519D01*
X140862692Y-99623823D01*
X140266741Y-99303388D01*
X139619727Y-99105374D01*
X138946516Y-99037390D01*
X138272977Y-99102051D01*
X137624994Y-99296870D01*
X137027470Y-99614361D01*
X137013308Y-99623823D01*
X136701124Y-100072519D01*
X136423000Y-100072519D01*
X136423000Y-98840911D01*
X149941000Y-98840911D01*
X149941000Y-99025089D01*
X149976932Y-99205729D01*
X150047414Y-99375889D01*
X150149738Y-99529028D01*
X150279972Y-99659262D01*
X150433111Y-99761586D01*
X150603271Y-99832068D01*
X150783911Y-99868000D01*
X150968089Y-99868000D01*
X151148729Y-99832068D01*
X151318889Y-99761586D01*
X151472028Y-99659262D01*
X151602262Y-99529028D01*
X151704586Y-99375889D01*
X151775068Y-99205729D01*
X151811000Y-99025089D01*
X151811000Y-98840911D01*
X151775068Y-98660271D01*
X151704586Y-98490111D01*
X151602262Y-98336972D01*
X151472028Y-98206738D01*
X151318889Y-98104414D01*
X151148729Y-98033932D01*
X150968089Y-97998000D01*
X150783911Y-97998000D01*
X150603271Y-98033932D01*
X150433111Y-98104414D01*
X150279972Y-98206738D01*
X150149738Y-98336972D01*
X150047414Y-98490111D01*
X149976932Y-98660271D01*
X149941000Y-98840911D01*
X136423000Y-98840911D01*
X136423000Y-96343589D01*
X139585000Y-96343589D01*
X139585000Y-96616411D01*
X139638225Y-96883989D01*
X139742629Y-97136043D01*
X139894201Y-97362886D01*
X140087114Y-97555799D01*
X140313957Y-97707371D01*
X140566011Y-97811775D01*
X140833589Y-97865000D01*
X141106411Y-97865000D01*
X141373989Y-97811775D01*
X141626043Y-97707371D01*
X141852886Y-97555799D01*
X142045799Y-97362886D01*
X142197371Y-97136043D01*
X142301775Y-96883989D01*
X142355000Y-96616411D01*
X142355000Y-96343589D01*
X146385000Y-96343589D01*
X146385000Y-96616411D01*
X146438225Y-96883989D01*
X146542629Y-97136043D01*
X146694201Y-97362886D01*
X146887114Y-97555799D01*
X147113957Y-97707371D01*
X147366011Y-97811775D01*
X147633589Y-97865000D01*
X147906411Y-97865000D01*
X148173989Y-97811775D01*
X148426043Y-97707371D01*
X148652886Y-97555799D01*
X148845799Y-97362886D01*
X148997371Y-97136043D01*
X149101775Y-96883989D01*
X149155000Y-96616411D01*
X149155000Y-96343589D01*
X149121249Y-96173911D01*
X151719000Y-96173911D01*
X151719000Y-96358089D01*
X151754932Y-96538729D01*
X151825414Y-96708889D01*
X151927738Y-96862028D01*
X152057972Y-96992262D01*
X152211111Y-97094586D01*
X152381271Y-97165068D01*
X152561911Y-97201000D01*
X152746089Y-97201000D01*
X152926729Y-97165068D01*
X153096889Y-97094586D01*
X153250028Y-96992262D01*
X153380262Y-96862028D01*
X153482586Y-96708889D01*
X153553068Y-96538729D01*
X153589000Y-96358089D01*
X153589000Y-96173911D01*
X153553068Y-95993271D01*
X153482586Y-95823111D01*
X153380262Y-95669972D01*
X153376201Y-95665911D01*
X157815000Y-95665911D01*
X157815000Y-95850089D01*
X157850932Y-96030729D01*
X157921414Y-96200889D01*
X158023738Y-96354028D01*
X158153972Y-96484262D01*
X158307111Y-96586586D01*
X158477271Y-96657068D01*
X158657911Y-96693000D01*
X158842089Y-96693000D01*
X159022729Y-96657068D01*
X159192889Y-96586586D01*
X159346028Y-96484262D01*
X159476262Y-96354028D01*
X159578586Y-96200889D01*
X159601999Y-96144363D01*
X170088000Y-96144363D01*
X170088000Y-96387637D01*
X170135460Y-96626236D01*
X170228557Y-96850992D01*
X170363713Y-97053267D01*
X170535733Y-97225287D01*
X170738008Y-97360443D01*
X170962764Y-97453540D01*
X171201363Y-97501000D01*
X171444637Y-97501000D01*
X171683236Y-97453540D01*
X171907992Y-97360443D01*
X172110267Y-97225287D01*
X172282287Y-97053267D01*
X172417443Y-96850992D01*
X172510540Y-96626236D01*
X172558000Y-96387637D01*
X172558000Y-96144363D01*
X172510540Y-95905764D01*
X172417443Y-95681008D01*
X172282287Y-95478733D01*
X172110267Y-95306713D01*
X171907992Y-95171557D01*
X171683236Y-95078460D01*
X171444637Y-95031000D01*
X171201363Y-95031000D01*
X170962764Y-95078460D01*
X170738008Y-95171557D01*
X170535733Y-95306713D01*
X170363713Y-95478733D01*
X170228557Y-95681008D01*
X170135460Y-95905764D01*
X170088000Y-96144363D01*
X159601999Y-96144363D01*
X159649068Y-96030729D01*
X159685000Y-95850089D01*
X159685000Y-95665911D01*
X159649068Y-95485271D01*
X159578586Y-95315111D01*
X159476262Y-95161972D01*
X159346028Y-95031738D01*
X159192889Y-94929414D01*
X159022729Y-94858932D01*
X158842089Y-94823000D01*
X158657911Y-94823000D01*
X158477271Y-94858932D01*
X158307111Y-94929414D01*
X158153972Y-95031738D01*
X158023738Y-95161972D01*
X157921414Y-95315111D01*
X157850932Y-95485271D01*
X157815000Y-95665911D01*
X153376201Y-95665911D01*
X153250028Y-95539738D01*
X153096889Y-95437414D01*
X152926729Y-95366932D01*
X152746089Y-95331000D01*
X152561911Y-95331000D01*
X152381271Y-95366932D01*
X152211111Y-95437414D01*
X152057972Y-95539738D01*
X151927738Y-95669972D01*
X151825414Y-95823111D01*
X151754932Y-95993271D01*
X151719000Y-96173911D01*
X149121249Y-96173911D01*
X149101775Y-96076011D01*
X148997371Y-95823957D01*
X148845799Y-95597114D01*
X148652886Y-95404201D01*
X148426043Y-95252629D01*
X148376574Y-95232139D01*
X148481863Y-95175860D01*
X148547388Y-94936993D01*
X147770000Y-94159605D01*
X146992612Y-94936993D01*
X147058137Y-95175860D01*
X147171201Y-95228918D01*
X147113957Y-95252629D01*
X146887114Y-95404201D01*
X146694201Y-95597114D01*
X146542629Y-95823957D01*
X146438225Y-96076011D01*
X146385000Y-96343589D01*
X142355000Y-96343589D01*
X142301775Y-96076011D01*
X142197371Y-95823957D01*
X142045799Y-95597114D01*
X141852886Y-95404201D01*
X141626043Y-95252629D01*
X141576574Y-95232139D01*
X141681863Y-95175860D01*
X141747388Y-94936993D01*
X140970000Y-94159605D01*
X140192612Y-94936993D01*
X140258137Y-95175860D01*
X140371201Y-95228918D01*
X140313957Y-95252629D01*
X140087114Y-95404201D01*
X139894201Y-95597114D01*
X139742629Y-95823957D01*
X139638225Y-96076011D01*
X139585000Y-96343589D01*
X136423000Y-96343589D01*
X136423000Y-94052492D01*
X139580188Y-94052492D01*
X139621035Y-94322238D01*
X139713723Y-94578832D01*
X139774140Y-94691863D01*
X140013007Y-94757388D01*
X140790395Y-93980000D01*
X141149605Y-93980000D01*
X141926993Y-94757388D01*
X142165860Y-94691863D01*
X142281760Y-94444884D01*
X142347250Y-94180040D01*
X142353129Y-94052492D01*
X146380188Y-94052492D01*
X146421035Y-94322238D01*
X146513723Y-94578832D01*
X146574140Y-94691863D01*
X146813007Y-94757388D01*
X147590395Y-93980000D01*
X147949605Y-93980000D01*
X148726993Y-94757388D01*
X148965860Y-94691863D01*
X149081760Y-94444884D01*
X149147250Y-94180040D01*
X149159812Y-93907508D01*
X149118965Y-93637762D01*
X149026277Y-93381168D01*
X148965860Y-93268137D01*
X148726993Y-93202612D01*
X147949605Y-93980000D01*
X147590395Y-93980000D01*
X146813007Y-93202612D01*
X146574140Y-93268137D01*
X146458240Y-93515116D01*
X146392750Y-93779960D01*
X146380188Y-94052492D01*
X142353129Y-94052492D01*
X142359812Y-93907508D01*
X142318965Y-93637762D01*
X142226277Y-93381168D01*
X142165860Y-93268137D01*
X141926993Y-93202612D01*
X141149605Y-93980000D01*
X140790395Y-93980000D01*
X140013007Y-93202612D01*
X139774140Y-93268137D01*
X139658240Y-93515116D01*
X139592750Y-93779960D01*
X139580188Y-94052492D01*
X136423000Y-94052492D01*
X136423000Y-93027558D01*
X136498568Y-93078051D01*
X136929426Y-93256518D01*
X137386822Y-93347500D01*
X137853178Y-93347500D01*
X138310574Y-93256518D01*
X138741432Y-93078051D01*
X138823811Y-93023007D01*
X140192612Y-93023007D01*
X140970000Y-93800395D01*
X141747388Y-93023007D01*
X146992612Y-93023007D01*
X147770000Y-93800395D01*
X148547388Y-93023007D01*
X148481863Y-92784140D01*
X148234884Y-92668240D01*
X147970040Y-92602750D01*
X147697508Y-92590188D01*
X147427762Y-92631035D01*
X147171168Y-92723723D01*
X147058137Y-92784140D01*
X146992612Y-93023007D01*
X141747388Y-93023007D01*
X141681863Y-92784140D01*
X141434884Y-92668240D01*
X141170040Y-92602750D01*
X140897508Y-92590188D01*
X140627762Y-92631035D01*
X140371168Y-92723723D01*
X140258137Y-92784140D01*
X140192612Y-93023007D01*
X138823811Y-93023007D01*
X139129193Y-92818957D01*
X139458957Y-92489193D01*
X139718051Y-92101432D01*
X139896518Y-91670574D01*
X139987500Y-91213178D01*
X139987500Y-90746822D01*
X139896518Y-90289426D01*
X139754607Y-89946822D01*
X142002500Y-89946822D01*
X142002500Y-90413178D01*
X142093482Y-90870574D01*
X142271949Y-91301432D01*
X142531043Y-91689193D01*
X142860807Y-92018957D01*
X143248568Y-92278051D01*
X143679426Y-92456518D01*
X144136822Y-92547500D01*
X144603178Y-92547500D01*
X145060574Y-92456518D01*
X145491432Y-92278051D01*
X145879193Y-92018957D01*
X146208957Y-91689193D01*
X146468051Y-91301432D01*
X146646518Y-90870574D01*
X146671133Y-90746822D01*
X148752500Y-90746822D01*
X148752500Y-91213178D01*
X148843482Y-91670574D01*
X149021949Y-92101432D01*
X149281043Y-92489193D01*
X149610807Y-92818957D01*
X149998568Y-93078051D01*
X150429426Y-93256518D01*
X150886822Y-93347500D01*
X151353178Y-93347500D01*
X151810574Y-93256518D01*
X152241432Y-93078051D01*
X152629193Y-92818957D01*
X152958957Y-92489193D01*
X153218051Y-92101432D01*
X153396518Y-91670574D01*
X153487500Y-91213178D01*
X153487500Y-90746822D01*
X153396518Y-90289426D01*
X153218051Y-89858568D01*
X152958957Y-89470807D01*
X152629193Y-89141043D01*
X152241432Y-88881949D01*
X151810574Y-88703482D01*
X151353178Y-88612500D01*
X150886822Y-88612500D01*
X150429426Y-88703482D01*
X149998568Y-88881949D01*
X149610807Y-89141043D01*
X149281043Y-89470807D01*
X149021949Y-89858568D01*
X148843482Y-90289426D01*
X148752500Y-90746822D01*
X146671133Y-90746822D01*
X146737500Y-90413178D01*
X146737500Y-89946822D01*
X146646518Y-89489426D01*
X146468051Y-89058568D01*
X146208957Y-88670807D01*
X145879193Y-88341043D01*
X145491432Y-88081949D01*
X145060574Y-87903482D01*
X144603178Y-87812500D01*
X144136822Y-87812500D01*
X143679426Y-87903482D01*
X143248568Y-88081949D01*
X142860807Y-88341043D01*
X142531043Y-88670807D01*
X142271949Y-89058568D01*
X142093482Y-89489426D01*
X142002500Y-89946822D01*
X139754607Y-89946822D01*
X139718051Y-89858568D01*
X139458957Y-89470807D01*
X139129193Y-89141043D01*
X138741432Y-88881949D01*
X138310574Y-88703482D01*
X137853178Y-88612500D01*
X137386822Y-88612500D01*
X136929426Y-88703482D01*
X136498568Y-88881949D01*
X136423000Y-88932442D01*
X136423000Y-84480000D01*
X152629001Y-84480000D01*
X152629000Y-85184580D01*
M02*
