M48
; DRILL file {KiCad (5.1.4)-1} date 22-5-2020 23:55:20
; FORMAT={-:-/ absolute / inch / decimal}
; #@! TF.CreationDate,2020-05-22T23:55:20+02:00
; #@! TF.GenerationSoftware,Kicad,Pcbnew,(5.1.4)-1
; #@! TF.FileFunction,Plated,1,2,PTH
FMAT,2
INCH
T1C0.0236
T2C0.0315
T3C0.0394
T4C0.0394
T5C0.0909
T6C0.1260
%
G90
G05
T1
X5.94Y-4.18
X5.99Y-4.18
X6.04Y-4.18
X6.2Y-3.58
X6.25Y-3.58
X6.3Y-3.58
X6.48Y-3.58
X6.53Y-3.58
X6.58Y-3.58
T2
X6.8Y-3.595
X6.8984Y-3.595
X6.185Y-4.3
X6.685Y-4.3
X6.185Y-4.09
X6.685Y-4.09
X6.185Y-3.88
X6.685Y-3.88
T3
X5.5606Y-3.6813
X5.5606Y-3.7797
X5.8283Y-3.6813
X5.8283Y-3.7797
T4
X5.765Y-4.025
X5.765Y-4.19
X5.765Y-4.35
T5
X5.4287Y-3.5631
X5.6945Y-3.5317
X5.9602Y-3.5631
T6
X5.47Y-4.035
X6.9665Y-4.035
T0
M30
