G04 #@! TF.GenerationSoftware,KiCad,Pcbnew,(5.1.4)-1*
G04 #@! TF.CreationDate,2020-05-22T23:55:23+02:00*
G04 #@! TF.ProjectId,S-VHS ZX Spectrum,532d5648-5320-45a5-9820-537065637472,rev?*
G04 #@! TF.SameCoordinates,Original*
G04 #@! TF.FileFunction,Soldermask,Top*
G04 #@! TF.FilePolarity,Negative*
%FSLAX46Y46*%
G04 Gerber Fmt 4.6, Leading zero omitted, Abs format (unit mm)*
G04 Created by KiCad (PCBNEW (5.1.4)-1) date 2020-05-22 23:55:23*
%MOMM*%
%LPD*%
G04 APERTURE LIST*
%ADD10C,0.150000*%
G04 APERTURE END LIST*
D10*
G36*
X146810393Y-109239304D02*
G01*
X147047101Y-109337352D01*
X147047103Y-109337353D01*
X147260135Y-109479696D01*
X147441304Y-109660865D01*
X147509201Y-109762481D01*
X147583648Y-109873899D01*
X147681696Y-110110607D01*
X147731680Y-110361893D01*
X147731680Y-110618107D01*
X147681696Y-110869393D01*
X147583648Y-111106101D01*
X147583647Y-111106103D01*
X147441304Y-111319135D01*
X147260135Y-111500304D01*
X147047103Y-111642647D01*
X147047102Y-111642648D01*
X147047101Y-111642648D01*
X146810393Y-111740696D01*
X146559107Y-111790680D01*
X146302893Y-111790680D01*
X146051607Y-111740696D01*
X145814899Y-111642648D01*
X145814898Y-111642648D01*
X145814897Y-111642647D01*
X145601865Y-111500304D01*
X145420696Y-111319135D01*
X145278353Y-111106103D01*
X145278352Y-111106101D01*
X145180304Y-110869393D01*
X145130320Y-110618107D01*
X145130320Y-110361893D01*
X145180304Y-110110607D01*
X145278352Y-109873899D01*
X145352799Y-109762481D01*
X145420696Y-109660865D01*
X145601865Y-109479696D01*
X145814897Y-109337353D01*
X145814899Y-109337352D01*
X146051607Y-109239304D01*
X146302893Y-109189320D01*
X146559107Y-109189320D01*
X146810393Y-109239304D01*
X146810393Y-109239304D01*
G37*
G36*
X169965823Y-108381313D02*
G01*
X170126242Y-108429976D01*
X170193361Y-108465852D01*
X170274078Y-108508996D01*
X170403659Y-108615341D01*
X170510004Y-108744922D01*
X170510005Y-108744924D01*
X170589024Y-108892758D01*
X170637687Y-109053177D01*
X170654117Y-109220000D01*
X170637687Y-109386823D01*
X170589024Y-109547242D01*
X170548477Y-109623100D01*
X170510004Y-109695078D01*
X170403659Y-109824659D01*
X170274078Y-109931004D01*
X170274076Y-109931005D01*
X170126242Y-110010024D01*
X169965823Y-110058687D01*
X169840804Y-110071000D01*
X169757196Y-110071000D01*
X169632177Y-110058687D01*
X169471758Y-110010024D01*
X169323924Y-109931005D01*
X169323922Y-109931004D01*
X169194341Y-109824659D01*
X169087996Y-109695078D01*
X169049523Y-109623100D01*
X169008976Y-109547242D01*
X168960313Y-109386823D01*
X168943883Y-109220000D01*
X168960313Y-109053177D01*
X169008976Y-108892758D01*
X169087995Y-108744924D01*
X169087996Y-108744922D01*
X169194341Y-108615341D01*
X169323922Y-108508996D01*
X169404639Y-108465852D01*
X169471758Y-108429976D01*
X169632177Y-108381313D01*
X169757196Y-108369000D01*
X169840804Y-108369000D01*
X169965823Y-108381313D01*
X169965823Y-108381313D01*
G37*
G36*
X157347228Y-108401703D02*
G01*
X157502100Y-108465853D01*
X157641481Y-108558985D01*
X157760015Y-108677519D01*
X157853147Y-108816900D01*
X157917297Y-108971772D01*
X157950000Y-109136184D01*
X157950000Y-109303816D01*
X157917297Y-109468228D01*
X157853147Y-109623100D01*
X157760015Y-109762481D01*
X157641481Y-109881015D01*
X157502100Y-109974147D01*
X157347228Y-110038297D01*
X157182816Y-110071000D01*
X157015184Y-110071000D01*
X156850772Y-110038297D01*
X156695900Y-109974147D01*
X156556519Y-109881015D01*
X156437985Y-109762481D01*
X156344853Y-109623100D01*
X156280703Y-109468228D01*
X156248000Y-109303816D01*
X156248000Y-109136184D01*
X156280703Y-108971772D01*
X156344853Y-108816900D01*
X156437985Y-108677519D01*
X156556519Y-108558985D01*
X156695900Y-108465853D01*
X156850772Y-108401703D01*
X157015184Y-108369000D01*
X157182816Y-108369000D01*
X157347228Y-108401703D01*
X157347228Y-108401703D01*
G37*
G36*
X146810393Y-105175304D02*
G01*
X147047101Y-105273352D01*
X147047103Y-105273353D01*
X147260135Y-105415696D01*
X147441304Y-105596865D01*
X147559519Y-105773787D01*
X147583648Y-105809899D01*
X147681696Y-106046607D01*
X147731680Y-106297893D01*
X147731680Y-106554107D01*
X147681696Y-106805393D01*
X147583648Y-107042101D01*
X147583647Y-107042103D01*
X147441304Y-107255135D01*
X147260135Y-107436304D01*
X147047103Y-107578647D01*
X147047102Y-107578648D01*
X147047101Y-107578648D01*
X146810393Y-107676696D01*
X146559107Y-107726680D01*
X146302893Y-107726680D01*
X146051607Y-107676696D01*
X145814899Y-107578648D01*
X145814898Y-107578648D01*
X145814897Y-107578647D01*
X145601865Y-107436304D01*
X145420696Y-107255135D01*
X145278353Y-107042103D01*
X145278352Y-107042101D01*
X145180304Y-106805393D01*
X145130320Y-106554107D01*
X145130320Y-106297893D01*
X145180304Y-106046607D01*
X145278352Y-105809899D01*
X145302481Y-105773787D01*
X145420696Y-105596865D01*
X145601865Y-105415696D01*
X145814897Y-105273353D01*
X145814899Y-105273352D01*
X146051607Y-105175304D01*
X146302893Y-105125320D01*
X146559107Y-105125320D01*
X146810393Y-105175304D01*
X146810393Y-105175304D01*
G37*
G36*
X152244213Y-105378249D02*
G01*
X152338652Y-105406897D01*
X152425687Y-105453418D01*
X152501975Y-105516025D01*
X152564582Y-105592313D01*
X152611103Y-105679348D01*
X152639751Y-105773787D01*
X152647000Y-105847388D01*
X152647000Y-106496612D01*
X152639751Y-106570213D01*
X152611103Y-106664652D01*
X152564582Y-106751687D01*
X152501975Y-106827975D01*
X152425687Y-106890582D01*
X152338651Y-106937103D01*
X152244212Y-106965751D01*
X152146000Y-106975424D01*
X152047787Y-106965751D01*
X151953348Y-106937103D01*
X151866313Y-106890582D01*
X151790025Y-106827975D01*
X151727418Y-106751687D01*
X151680897Y-106664651D01*
X151652249Y-106570212D01*
X151645000Y-106496611D01*
X151645000Y-105847398D01*
X151652250Y-105773789D01*
X151652250Y-105773787D01*
X151680898Y-105679348D01*
X151727419Y-105592313D01*
X151790026Y-105516025D01*
X151866314Y-105453418D01*
X151953349Y-105406897D01*
X152047788Y-105378249D01*
X152146000Y-105368576D01*
X152244213Y-105378249D01*
X152244213Y-105378249D01*
G37*
G36*
X153514213Y-105378249D02*
G01*
X153608652Y-105406897D01*
X153695687Y-105453418D01*
X153771975Y-105516025D01*
X153834582Y-105592313D01*
X153881103Y-105679348D01*
X153909751Y-105773787D01*
X153917000Y-105847388D01*
X153917000Y-106496612D01*
X153909751Y-106570213D01*
X153881103Y-106664652D01*
X153834582Y-106751687D01*
X153771975Y-106827975D01*
X153695687Y-106890582D01*
X153608651Y-106937103D01*
X153514212Y-106965751D01*
X153416000Y-106975424D01*
X153317787Y-106965751D01*
X153223348Y-106937103D01*
X153136313Y-106890582D01*
X153060025Y-106827975D01*
X152997418Y-106751687D01*
X152950897Y-106664651D01*
X152922249Y-106570212D01*
X152915000Y-106496611D01*
X152915000Y-105847398D01*
X152922250Y-105773789D01*
X152922250Y-105773787D01*
X152950898Y-105679348D01*
X152997419Y-105592313D01*
X153060026Y-105516025D01*
X153136314Y-105453418D01*
X153223349Y-105406897D01*
X153317788Y-105378249D01*
X153416000Y-105368576D01*
X153514213Y-105378249D01*
X153514213Y-105378249D01*
G37*
G36*
X151377000Y-106973000D02*
G01*
X150375000Y-106973000D01*
X150375000Y-105371000D01*
X151377000Y-105371000D01*
X151377000Y-106973000D01*
X151377000Y-106973000D01*
G37*
G36*
X177506202Y-99692781D02*
G01*
X177781606Y-99747562D01*
X178300455Y-99962476D01*
X178767407Y-100274484D01*
X179164516Y-100671593D01*
X179476524Y-101138545D01*
X179691438Y-101657394D01*
X179801000Y-102208201D01*
X179801000Y-102769799D01*
X179691438Y-103320606D01*
X179476524Y-103839455D01*
X179279562Y-104134229D01*
X179164517Y-104306406D01*
X178767406Y-104703517D01*
X178717295Y-104737000D01*
X178300455Y-105015524D01*
X177781606Y-105230438D01*
X177565862Y-105273352D01*
X177230800Y-105340000D01*
X176669200Y-105340000D01*
X176334138Y-105273352D01*
X176118394Y-105230438D01*
X175599545Y-105015524D01*
X175182705Y-104737000D01*
X175132594Y-104703517D01*
X174735483Y-104306406D01*
X174620438Y-104134229D01*
X174423476Y-103839455D01*
X174208562Y-103320606D01*
X174099000Y-102769799D01*
X174099000Y-102208201D01*
X174208562Y-101657394D01*
X174423476Y-101138545D01*
X174735484Y-100671593D01*
X175132593Y-100274484D01*
X175599545Y-99962476D01*
X176118394Y-99747562D01*
X176669200Y-99638000D01*
X177230800Y-99638000D01*
X177506202Y-99692781D01*
X177506202Y-99692781D01*
G37*
G36*
X139494202Y-99692781D02*
G01*
X139769606Y-99747562D01*
X140288455Y-99962476D01*
X140755407Y-100274484D01*
X141152516Y-100671593D01*
X141464524Y-101138545D01*
X141679438Y-101657394D01*
X141789000Y-102208201D01*
X141789000Y-102769799D01*
X141679438Y-103320606D01*
X141464524Y-103839455D01*
X141267562Y-104134229D01*
X141152517Y-104306406D01*
X140755406Y-104703517D01*
X140705295Y-104737000D01*
X140288455Y-105015524D01*
X139769606Y-105230438D01*
X139553862Y-105273352D01*
X139218800Y-105340000D01*
X138657200Y-105340000D01*
X138322138Y-105273352D01*
X138106394Y-105230438D01*
X137587545Y-105015524D01*
X137170705Y-104737000D01*
X137120594Y-104703517D01*
X136723483Y-104306406D01*
X136608438Y-104134229D01*
X136411476Y-103839455D01*
X136196562Y-103320606D01*
X136087000Y-102769799D01*
X136087000Y-102208201D01*
X136196562Y-101657394D01*
X136411476Y-101138545D01*
X136723484Y-100671593D01*
X137120593Y-100274484D01*
X137587545Y-99962476D01*
X138106394Y-99747562D01*
X138657200Y-99638000D01*
X139218800Y-99638000D01*
X139494202Y-99692781D01*
X139494202Y-99692781D01*
G37*
G36*
X157347228Y-103067703D02*
G01*
X157502100Y-103131853D01*
X157641481Y-103224985D01*
X157760015Y-103343519D01*
X157853147Y-103482900D01*
X157917297Y-103637772D01*
X157950000Y-103802184D01*
X157950000Y-103969816D01*
X157917297Y-104134228D01*
X157853147Y-104289100D01*
X157760015Y-104428481D01*
X157641481Y-104547015D01*
X157502100Y-104640147D01*
X157347228Y-104704297D01*
X157182816Y-104737000D01*
X157015184Y-104737000D01*
X156850772Y-104704297D01*
X156695900Y-104640147D01*
X156556519Y-104547015D01*
X156437985Y-104428481D01*
X156344853Y-104289100D01*
X156280703Y-104134228D01*
X156248000Y-103969816D01*
X156248000Y-103802184D01*
X156280703Y-103637772D01*
X156344853Y-103482900D01*
X156437985Y-103343519D01*
X156556519Y-103224985D01*
X156695900Y-103131853D01*
X156850772Y-103067703D01*
X157015184Y-103035000D01*
X157182816Y-103035000D01*
X157347228Y-103067703D01*
X157347228Y-103067703D01*
G37*
G36*
X169965823Y-103047313D02*
G01*
X170126242Y-103095976D01*
X170193361Y-103131852D01*
X170274078Y-103174996D01*
X170403659Y-103281341D01*
X170510004Y-103410922D01*
X170510005Y-103410924D01*
X170589024Y-103558758D01*
X170637687Y-103719177D01*
X170654117Y-103886000D01*
X170637687Y-104052823D01*
X170589024Y-104213242D01*
X170548477Y-104289100D01*
X170510004Y-104361078D01*
X170403659Y-104490659D01*
X170274078Y-104597004D01*
X170274076Y-104597005D01*
X170126242Y-104676024D01*
X169965823Y-104724687D01*
X169840804Y-104737000D01*
X169757196Y-104737000D01*
X169632177Y-104724687D01*
X169471758Y-104676024D01*
X169323924Y-104597005D01*
X169323922Y-104597004D01*
X169194341Y-104490659D01*
X169087996Y-104361078D01*
X169049523Y-104289100D01*
X169008976Y-104213242D01*
X168960313Y-104052823D01*
X168943883Y-103886000D01*
X168960313Y-103719177D01*
X169008976Y-103558758D01*
X169087995Y-103410924D01*
X169087996Y-103410922D01*
X169194341Y-103281341D01*
X169323922Y-103174996D01*
X169404639Y-103131852D01*
X169471758Y-103095976D01*
X169632177Y-103047313D01*
X169757196Y-103035000D01*
X169840804Y-103035000D01*
X169965823Y-103047313D01*
X169965823Y-103047313D01*
G37*
G36*
X146810393Y-100984304D02*
G01*
X147047101Y-101082352D01*
X147047103Y-101082353D01*
X147260135Y-101224696D01*
X147441304Y-101405865D01*
X147583647Y-101618897D01*
X147583648Y-101618899D01*
X147681696Y-101855607D01*
X147731680Y-102106893D01*
X147731680Y-102363107D01*
X147681696Y-102614393D01*
X147617324Y-102769800D01*
X147583647Y-102851103D01*
X147441304Y-103064135D01*
X147260135Y-103245304D01*
X147047103Y-103387647D01*
X147047102Y-103387648D01*
X147047101Y-103387648D01*
X146810393Y-103485696D01*
X146559107Y-103535680D01*
X146302893Y-103535680D01*
X146051607Y-103485696D01*
X145814899Y-103387648D01*
X145814898Y-103387648D01*
X145814897Y-103387647D01*
X145601865Y-103245304D01*
X145420696Y-103064135D01*
X145278353Y-102851103D01*
X145244676Y-102769800D01*
X145180304Y-102614393D01*
X145130320Y-102363107D01*
X145130320Y-102106893D01*
X145180304Y-101855607D01*
X145278352Y-101618899D01*
X145278353Y-101618897D01*
X145420696Y-101405865D01*
X145601865Y-101224696D01*
X145814897Y-101082353D01*
X145814899Y-101082352D01*
X146051607Y-100984304D01*
X146302893Y-100934320D01*
X146559107Y-100934320D01*
X146810393Y-100984304D01*
X146810393Y-100984304D01*
G37*
G36*
X169965823Y-97713313D02*
G01*
X170126242Y-97761976D01*
X170193361Y-97797852D01*
X170274078Y-97840996D01*
X170403659Y-97947341D01*
X170510004Y-98076922D01*
X170510005Y-98076924D01*
X170589024Y-98224758D01*
X170637687Y-98385177D01*
X170654117Y-98552000D01*
X170637687Y-98718823D01*
X170589024Y-98879242D01*
X170548477Y-98955100D01*
X170510004Y-99027078D01*
X170403659Y-99156659D01*
X170274078Y-99263004D01*
X170274076Y-99263005D01*
X170126242Y-99342024D01*
X169965823Y-99390687D01*
X169840804Y-99403000D01*
X169757196Y-99403000D01*
X169632177Y-99390687D01*
X169471758Y-99342024D01*
X169323924Y-99263005D01*
X169323922Y-99263004D01*
X169194341Y-99156659D01*
X169087996Y-99027078D01*
X169049523Y-98955100D01*
X169008976Y-98879242D01*
X168960313Y-98718823D01*
X168943883Y-98552000D01*
X168960313Y-98385177D01*
X169008976Y-98224758D01*
X169087995Y-98076924D01*
X169087996Y-98076922D01*
X169194341Y-97947341D01*
X169323922Y-97840996D01*
X169404639Y-97797852D01*
X169471758Y-97761976D01*
X169632177Y-97713313D01*
X169757196Y-97701000D01*
X169840804Y-97701000D01*
X169965823Y-97713313D01*
X169965823Y-97713313D01*
G37*
G36*
X157347228Y-97733703D02*
G01*
X157502100Y-97797853D01*
X157641481Y-97890985D01*
X157760015Y-98009519D01*
X157853147Y-98148900D01*
X157917297Y-98303772D01*
X157950000Y-98468184D01*
X157950000Y-98635816D01*
X157917297Y-98800228D01*
X157853147Y-98955100D01*
X157760015Y-99094481D01*
X157641481Y-99213015D01*
X157502100Y-99306147D01*
X157347228Y-99370297D01*
X157182816Y-99403000D01*
X157015184Y-99403000D01*
X156850772Y-99370297D01*
X156695900Y-99306147D01*
X156556519Y-99213015D01*
X156437985Y-99094481D01*
X156344853Y-98955100D01*
X156280703Y-98800228D01*
X156248000Y-98635816D01*
X156248000Y-98468184D01*
X156280703Y-98303772D01*
X156344853Y-98148900D01*
X156437985Y-98009519D01*
X156556519Y-97890985D01*
X156695900Y-97797853D01*
X156850772Y-97733703D01*
X157015184Y-97701000D01*
X157182816Y-97701000D01*
X157347228Y-97733703D01*
X157347228Y-97733703D01*
G37*
G36*
X141473642Y-95233781D02*
G01*
X141619414Y-95294162D01*
X141619416Y-95294163D01*
X141750608Y-95381822D01*
X141862178Y-95493392D01*
X141949837Y-95624584D01*
X141949838Y-95624586D01*
X142010219Y-95770358D01*
X142041000Y-95925107D01*
X142041000Y-96082893D01*
X142010219Y-96237642D01*
X141949838Y-96383414D01*
X141949837Y-96383416D01*
X141862178Y-96514608D01*
X141750608Y-96626178D01*
X141619416Y-96713837D01*
X141619415Y-96713838D01*
X141619414Y-96713838D01*
X141473642Y-96774219D01*
X141318893Y-96805000D01*
X141161107Y-96805000D01*
X141006358Y-96774219D01*
X140860586Y-96713838D01*
X140860585Y-96713838D01*
X140860584Y-96713837D01*
X140729392Y-96626178D01*
X140617822Y-96514608D01*
X140530163Y-96383416D01*
X140530162Y-96383414D01*
X140469781Y-96237642D01*
X140439000Y-96082893D01*
X140439000Y-95925107D01*
X140469781Y-95770358D01*
X140530162Y-95624586D01*
X140530163Y-95624584D01*
X140617822Y-95493392D01*
X140729392Y-95381822D01*
X140860584Y-95294163D01*
X140860586Y-95294162D01*
X141006358Y-95233781D01*
X141161107Y-95203000D01*
X141318893Y-95203000D01*
X141473642Y-95233781D01*
X141473642Y-95233781D01*
G37*
G36*
X148273642Y-95233781D02*
G01*
X148419414Y-95294162D01*
X148419416Y-95294163D01*
X148550608Y-95381822D01*
X148662178Y-95493392D01*
X148749837Y-95624584D01*
X148749838Y-95624586D01*
X148810219Y-95770358D01*
X148841000Y-95925107D01*
X148841000Y-96082893D01*
X148810219Y-96237642D01*
X148749838Y-96383414D01*
X148749837Y-96383416D01*
X148662178Y-96514608D01*
X148550608Y-96626178D01*
X148419416Y-96713837D01*
X148419415Y-96713838D01*
X148419414Y-96713838D01*
X148273642Y-96774219D01*
X148118893Y-96805000D01*
X147961107Y-96805000D01*
X147806358Y-96774219D01*
X147660586Y-96713838D01*
X147660585Y-96713838D01*
X147660584Y-96713837D01*
X147529392Y-96626178D01*
X147417822Y-96514608D01*
X147330163Y-96383416D01*
X147330162Y-96383414D01*
X147269781Y-96237642D01*
X147239000Y-96082893D01*
X147239000Y-95925107D01*
X147269781Y-95770358D01*
X147330162Y-95624586D01*
X147330163Y-95624584D01*
X147417822Y-95493392D01*
X147529392Y-95381822D01*
X147660584Y-95294163D01*
X147660586Y-95294162D01*
X147806358Y-95233781D01*
X147961107Y-95203000D01*
X148118893Y-95203000D01*
X148273642Y-95233781D01*
X148273642Y-95233781D01*
G37*
G36*
X141473642Y-92733781D02*
G01*
X141619414Y-92794162D01*
X141619416Y-92794163D01*
X141750608Y-92881822D01*
X141862178Y-92993392D01*
X141949837Y-93124584D01*
X141949838Y-93124586D01*
X142010219Y-93270358D01*
X142041000Y-93425107D01*
X142041000Y-93582893D01*
X142010219Y-93737642D01*
X141949838Y-93883414D01*
X141949837Y-93883416D01*
X141862178Y-94014608D01*
X141750608Y-94126178D01*
X141619416Y-94213837D01*
X141619415Y-94213838D01*
X141619414Y-94213838D01*
X141473642Y-94274219D01*
X141318893Y-94305000D01*
X141161107Y-94305000D01*
X141006358Y-94274219D01*
X140860586Y-94213838D01*
X140860585Y-94213838D01*
X140860584Y-94213837D01*
X140729392Y-94126178D01*
X140617822Y-94014608D01*
X140530163Y-93883416D01*
X140530162Y-93883414D01*
X140469781Y-93737642D01*
X140439000Y-93582893D01*
X140439000Y-93425107D01*
X140469781Y-93270358D01*
X140530162Y-93124586D01*
X140530163Y-93124584D01*
X140617822Y-92993392D01*
X140729392Y-92881822D01*
X140860584Y-92794163D01*
X140860586Y-92794162D01*
X141006358Y-92733781D01*
X141161107Y-92703000D01*
X141318893Y-92703000D01*
X141473642Y-92733781D01*
X141473642Y-92733781D01*
G37*
G36*
X148273642Y-92733781D02*
G01*
X148419414Y-92794162D01*
X148419416Y-92794163D01*
X148550608Y-92881822D01*
X148662178Y-92993392D01*
X148749837Y-93124584D01*
X148749838Y-93124586D01*
X148810219Y-93270358D01*
X148841000Y-93425107D01*
X148841000Y-93582893D01*
X148810219Y-93737642D01*
X148749838Y-93883414D01*
X148749837Y-93883416D01*
X148662178Y-94014608D01*
X148550608Y-94126178D01*
X148419416Y-94213837D01*
X148419415Y-94213838D01*
X148419414Y-94213838D01*
X148273642Y-94274219D01*
X148118893Y-94305000D01*
X147961107Y-94305000D01*
X147806358Y-94274219D01*
X147660586Y-94213838D01*
X147660585Y-94213838D01*
X147660584Y-94213837D01*
X147529392Y-94126178D01*
X147417822Y-94014608D01*
X147330163Y-93883416D01*
X147330162Y-93883414D01*
X147269781Y-93737642D01*
X147239000Y-93582893D01*
X147239000Y-93425107D01*
X147269781Y-93270358D01*
X147330162Y-93124586D01*
X147330163Y-93124584D01*
X147417822Y-92993392D01*
X147529392Y-92881822D01*
X147660584Y-92794163D01*
X147660586Y-92794162D01*
X147806358Y-92733781D01*
X147961107Y-92703000D01*
X148118893Y-92703000D01*
X148273642Y-92733781D01*
X148273642Y-92733781D01*
G37*
G36*
X138295372Y-88766193D02*
G01*
X138410228Y-88789039D01*
X138734804Y-88923482D01*
X139026915Y-89118665D01*
X139275335Y-89367085D01*
X139470518Y-89659196D01*
X139561836Y-89879659D01*
X139604961Y-89983773D01*
X139673500Y-90328339D01*
X139673500Y-90679661D01*
X139641424Y-90840915D01*
X139604961Y-91024228D01*
X139470518Y-91348804D01*
X139275335Y-91640915D01*
X139026915Y-91889335D01*
X138734804Y-92084518D01*
X138410228Y-92218961D01*
X138295372Y-92241807D01*
X138065661Y-92287500D01*
X137714339Y-92287500D01*
X137484628Y-92241807D01*
X137369772Y-92218961D01*
X137045196Y-92084518D01*
X136753085Y-91889335D01*
X136504665Y-91640915D01*
X136309482Y-91348804D01*
X136175039Y-91024228D01*
X136138576Y-90840915D01*
X136106500Y-90679661D01*
X136106500Y-90328339D01*
X136175039Y-89983773D01*
X136218164Y-89879659D01*
X136309482Y-89659196D01*
X136504665Y-89367085D01*
X136753085Y-89118665D01*
X137045196Y-88923482D01*
X137369772Y-88789039D01*
X137484628Y-88766193D01*
X137714339Y-88720500D01*
X138065661Y-88720500D01*
X138295372Y-88766193D01*
X138295372Y-88766193D01*
G37*
G36*
X151795372Y-88766193D02*
G01*
X151910228Y-88789039D01*
X152234804Y-88923482D01*
X152526915Y-89118665D01*
X152775335Y-89367085D01*
X152970518Y-89659196D01*
X153061836Y-89879659D01*
X153104961Y-89983773D01*
X153173500Y-90328339D01*
X153173500Y-90679661D01*
X153141424Y-90840915D01*
X153104961Y-91024228D01*
X152970518Y-91348804D01*
X152775335Y-91640915D01*
X152526915Y-91889335D01*
X152234804Y-92084518D01*
X151910228Y-92218961D01*
X151795372Y-92241807D01*
X151565661Y-92287500D01*
X151214339Y-92287500D01*
X150984628Y-92241807D01*
X150869772Y-92218961D01*
X150545196Y-92084518D01*
X150253085Y-91889335D01*
X150004665Y-91640915D01*
X149809482Y-91348804D01*
X149675039Y-91024228D01*
X149638576Y-90840915D01*
X149606500Y-90679661D01*
X149606500Y-90328339D01*
X149675039Y-89983773D01*
X149718164Y-89879659D01*
X149809482Y-89659196D01*
X150004665Y-89367085D01*
X150253085Y-89118665D01*
X150545196Y-88923482D01*
X150869772Y-88789039D01*
X150984628Y-88766193D01*
X151214339Y-88720500D01*
X151565661Y-88720500D01*
X151795372Y-88766193D01*
X151795372Y-88766193D01*
G37*
G36*
X175468228Y-90494703D02*
G01*
X175623100Y-90558853D01*
X175762481Y-90651985D01*
X175881015Y-90770519D01*
X175974147Y-90909900D01*
X176038297Y-91064772D01*
X176071000Y-91229184D01*
X176071000Y-91396816D01*
X176038297Y-91561228D01*
X175974147Y-91716100D01*
X175881015Y-91855481D01*
X175762481Y-91974015D01*
X175623100Y-92067147D01*
X175468228Y-92131297D01*
X175303816Y-92164000D01*
X175136184Y-92164000D01*
X174971772Y-92131297D01*
X174816900Y-92067147D01*
X174677519Y-91974015D01*
X174558985Y-91855481D01*
X174465853Y-91716100D01*
X174401703Y-91561228D01*
X174369000Y-91396816D01*
X174369000Y-91229184D01*
X174401703Y-91064772D01*
X174465853Y-90909900D01*
X174558985Y-90770519D01*
X174677519Y-90651985D01*
X174816900Y-90558853D01*
X174971772Y-90494703D01*
X175136184Y-90462000D01*
X175303816Y-90462000D01*
X175468228Y-90494703D01*
X175468228Y-90494703D01*
G37*
G36*
X173571000Y-92164000D02*
G01*
X171869000Y-92164000D01*
X171869000Y-90462000D01*
X173571000Y-90462000D01*
X173571000Y-92164000D01*
X173571000Y-92164000D01*
G37*
G36*
X158848213Y-90138249D02*
G01*
X158942652Y-90166897D01*
X159029687Y-90213418D01*
X159105975Y-90276025D01*
X159168582Y-90352313D01*
X159215103Y-90439348D01*
X159243751Y-90533787D01*
X159251000Y-90607388D01*
X159251000Y-91256612D01*
X159243751Y-91330213D01*
X159215103Y-91424652D01*
X159168582Y-91511687D01*
X159105975Y-91587975D01*
X159029687Y-91650582D01*
X158942651Y-91697103D01*
X158848212Y-91725751D01*
X158750000Y-91735424D01*
X158651787Y-91725751D01*
X158557348Y-91697103D01*
X158470313Y-91650582D01*
X158394025Y-91587975D01*
X158331418Y-91511687D01*
X158284897Y-91424651D01*
X158256249Y-91330212D01*
X158249000Y-91256611D01*
X158249000Y-90607398D01*
X158256250Y-90533789D01*
X158256250Y-90533787D01*
X158284898Y-90439348D01*
X158331419Y-90352313D01*
X158394026Y-90276025D01*
X158470314Y-90213418D01*
X158557349Y-90166897D01*
X158651788Y-90138249D01*
X158750000Y-90128576D01*
X158848213Y-90138249D01*
X158848213Y-90138249D01*
G37*
G36*
X160118213Y-90138249D02*
G01*
X160212652Y-90166897D01*
X160299687Y-90213418D01*
X160375975Y-90276025D01*
X160438582Y-90352313D01*
X160485103Y-90439348D01*
X160513751Y-90533787D01*
X160521000Y-90607388D01*
X160521000Y-91256612D01*
X160513751Y-91330213D01*
X160485103Y-91424652D01*
X160438582Y-91511687D01*
X160375975Y-91587975D01*
X160299687Y-91650582D01*
X160212651Y-91697103D01*
X160118212Y-91725751D01*
X160020000Y-91735424D01*
X159921787Y-91725751D01*
X159827348Y-91697103D01*
X159740313Y-91650582D01*
X159664025Y-91587975D01*
X159601418Y-91511687D01*
X159554897Y-91424651D01*
X159526249Y-91330212D01*
X159519000Y-91256611D01*
X159519000Y-90607398D01*
X159526250Y-90533789D01*
X159526250Y-90533787D01*
X159554898Y-90439348D01*
X159601419Y-90352313D01*
X159664026Y-90276025D01*
X159740314Y-90213418D01*
X159827349Y-90166897D01*
X159921788Y-90138249D01*
X160020000Y-90128576D01*
X160118213Y-90138249D01*
X160118213Y-90138249D01*
G37*
G36*
X167230213Y-90138249D02*
G01*
X167324652Y-90166897D01*
X167411687Y-90213418D01*
X167487975Y-90276025D01*
X167550582Y-90352313D01*
X167597103Y-90439348D01*
X167625751Y-90533787D01*
X167633000Y-90607388D01*
X167633000Y-91256612D01*
X167625751Y-91330213D01*
X167597103Y-91424652D01*
X167550582Y-91511687D01*
X167487975Y-91587975D01*
X167411687Y-91650582D01*
X167324651Y-91697103D01*
X167230212Y-91725751D01*
X167132000Y-91735424D01*
X167033787Y-91725751D01*
X166939348Y-91697103D01*
X166852313Y-91650582D01*
X166776025Y-91587975D01*
X166713418Y-91511687D01*
X166666897Y-91424651D01*
X166638249Y-91330212D01*
X166631000Y-91256611D01*
X166631000Y-90607398D01*
X166638250Y-90533789D01*
X166638250Y-90533787D01*
X166666898Y-90439348D01*
X166713419Y-90352313D01*
X166776026Y-90276025D01*
X166852314Y-90213418D01*
X166939349Y-90166897D01*
X167033788Y-90138249D01*
X167132000Y-90128576D01*
X167230213Y-90138249D01*
X167230213Y-90138249D01*
G37*
G36*
X165960213Y-90138249D02*
G01*
X166054652Y-90166897D01*
X166141687Y-90213418D01*
X166217975Y-90276025D01*
X166280582Y-90352313D01*
X166327103Y-90439348D01*
X166355751Y-90533787D01*
X166363000Y-90607388D01*
X166363000Y-91256612D01*
X166355751Y-91330213D01*
X166327103Y-91424652D01*
X166280582Y-91511687D01*
X166217975Y-91587975D01*
X166141687Y-91650582D01*
X166054651Y-91697103D01*
X165960212Y-91725751D01*
X165862000Y-91735424D01*
X165763787Y-91725751D01*
X165669348Y-91697103D01*
X165582313Y-91650582D01*
X165506025Y-91587975D01*
X165443418Y-91511687D01*
X165396897Y-91424651D01*
X165368249Y-91330212D01*
X165361000Y-91256611D01*
X165361000Y-90607398D01*
X165368250Y-90533789D01*
X165368250Y-90533787D01*
X165396898Y-90439348D01*
X165443419Y-90352313D01*
X165506026Y-90276025D01*
X165582314Y-90213418D01*
X165669349Y-90166897D01*
X165763788Y-90138249D01*
X165862000Y-90128576D01*
X165960213Y-90138249D01*
X165960213Y-90138249D01*
G37*
G36*
X165093000Y-91733000D02*
G01*
X164091000Y-91733000D01*
X164091000Y-90131000D01*
X165093000Y-90131000D01*
X165093000Y-91733000D01*
X165093000Y-91733000D01*
G37*
G36*
X157981000Y-91733000D02*
G01*
X156979000Y-91733000D01*
X156979000Y-90131000D01*
X157981000Y-90131000D01*
X157981000Y-91733000D01*
X157981000Y-91733000D01*
G37*
G36*
X145045372Y-87966193D02*
G01*
X145160228Y-87989039D01*
X145484804Y-88123482D01*
X145776915Y-88318665D01*
X146025335Y-88567085D01*
X146220518Y-88859196D01*
X146354961Y-89183772D01*
X146354961Y-89183773D01*
X146423500Y-89528339D01*
X146423500Y-89879661D01*
X146377807Y-90109372D01*
X146354961Y-90224228D01*
X146220518Y-90548804D01*
X146025335Y-90840915D01*
X145776915Y-91089335D01*
X145484804Y-91284518D01*
X145160228Y-91418961D01*
X145131632Y-91424649D01*
X144815661Y-91487500D01*
X144464339Y-91487500D01*
X144148368Y-91424649D01*
X144119772Y-91418961D01*
X143795196Y-91284518D01*
X143503085Y-91089335D01*
X143254665Y-90840915D01*
X143059482Y-90548804D01*
X142925039Y-90224228D01*
X142902193Y-90109372D01*
X142856500Y-89879661D01*
X142856500Y-89528339D01*
X142925039Y-89183773D01*
X142925039Y-89183772D01*
X143059482Y-88859196D01*
X143254665Y-88567085D01*
X143503085Y-88318665D01*
X143795196Y-88123482D01*
X144119772Y-87989039D01*
X144234628Y-87966193D01*
X144464339Y-87920500D01*
X144815661Y-87920500D01*
X145045372Y-87966193D01*
X145045372Y-87966193D01*
G37*
M02*
