G04 #@! TF.GenerationSoftware,KiCad,Pcbnew,(5.1.4)-1*
G04 #@! TF.CreationDate,2020-05-22T23:55:23+02:00*
G04 #@! TF.ProjectId,S-VHS ZX Spectrum,532d5648-5320-45a5-9820-537065637472,rev?*
G04 #@! TF.SameCoordinates,Original*
G04 #@! TF.FileFunction,Copper,L2,Bot*
G04 #@! TF.FilePolarity,Positive*
%FSLAX46Y46*%
G04 Gerber Fmt 4.6, Leading zero omitted, Abs format (unit mm)*
G04 Created by KiCad (PCBNEW (5.1.4)-1) date 2020-05-22 23:55:23*
%MOMM*%
%LPD*%
G04 APERTURE LIST*
%ADD10C,1.500000*%
%ADD11C,3.465000*%
%ADD12R,1.600000X1.600000*%
%ADD13C,1.600000*%
%ADD14O,1.600000X1.600000*%
%ADD15C,5.600000*%
%ADD16C,2.499360*%
%ADD17R,0.900000X1.500000*%
%ADD18O,0.900000X1.500000*%
%ADD19C,0.250000*%
%ADD20C,0.254000*%
G04 APERTURE END LIST*
D10*
X141240000Y-93504000D03*
X148040000Y-93504000D03*
X141240000Y-96004000D03*
X148040000Y-96004000D03*
D11*
X137890000Y-90504000D03*
X144640000Y-89704000D03*
X151390000Y-90504000D03*
D12*
X172720000Y-91313000D03*
D13*
X175220000Y-91313000D03*
X157099000Y-103886000D03*
D14*
X169799000Y-103886000D03*
D15*
X138938000Y-102489000D03*
X176950000Y-102489000D03*
D16*
X146431000Y-102235000D03*
X146431000Y-106426000D03*
X146431000Y-110490000D03*
D17*
X150876000Y-106172000D03*
D18*
X153416000Y-106172000D03*
X152146000Y-106172000D03*
X158750000Y-90932000D03*
X160020000Y-90932000D03*
D17*
X157480000Y-90932000D03*
X164592000Y-90932000D03*
D18*
X167132000Y-90932000D03*
X165862000Y-90932000D03*
D14*
X169799000Y-98552000D03*
D13*
X157099000Y-98552000D03*
D14*
X169799000Y-109220000D03*
D13*
X157099000Y-109220000D03*
D19*
X175347000Y-91497700D02*
X175347000Y-90805000D01*
X157099000Y-103886000D02*
X158750000Y-102235000D01*
X158750000Y-102235000D02*
X158750000Y-90932000D01*
X175347000Y-93004000D02*
X175347000Y-90805000D01*
X169799000Y-98552000D02*
X175347000Y-93004000D01*
X172847000Y-90805000D02*
X171721700Y-90805000D01*
X146431000Y-106426000D02*
X155717600Y-97139400D01*
X155717600Y-97139400D02*
X155717600Y-90960700D01*
X155717600Y-90960700D02*
X157315400Y-89362900D01*
X157315400Y-89362900D02*
X168628600Y-89362900D01*
X170578700Y-91313000D02*
X172720000Y-91313000D01*
X168628600Y-89362900D02*
X170578700Y-91313000D01*
X169799000Y-103886000D02*
X169799000Y-109220000D01*
X146979340Y-93504000D02*
X141240000Y-93504000D01*
X148040000Y-93504000D02*
X146979340Y-93504000D01*
X150876000Y-106172000D02*
X150100700Y-106172000D01*
X150100700Y-106172000D02*
X150100700Y-106820300D01*
X150100700Y-106820300D02*
X146431000Y-110490000D01*
X157099000Y-98552000D02*
X150876000Y-104775000D01*
X150876000Y-104775000D02*
X150876000Y-106172000D01*
X157480000Y-90932000D02*
X157480000Y-98171000D01*
X157480000Y-98171000D02*
X157099000Y-98552000D01*
X157099000Y-109220000D02*
X160020000Y-106299000D01*
X160020000Y-106299000D02*
X160020000Y-90932000D01*
X160020000Y-90932000D02*
X160795300Y-90932000D01*
X160795300Y-90932000D02*
X161870600Y-89856700D01*
X161870600Y-89856700D02*
X165481000Y-89856700D01*
X165481000Y-90932000D02*
X165481000Y-89856700D01*
D20*
G36*
X152629000Y-85184580D02*
G01*
X152625807Y-85217000D01*
X152638550Y-85346383D01*
X152676290Y-85470793D01*
X152737575Y-85585450D01*
X152820052Y-85685948D01*
X152920550Y-85768425D01*
X153035207Y-85829710D01*
X153159617Y-85867450D01*
X153289000Y-85880193D01*
X153321419Y-85877000D01*
X178918000Y-85877000D01*
X178918001Y-99672737D01*
X178577082Y-99444943D01*
X177951952Y-99186006D01*
X177288318Y-99054000D01*
X176611682Y-99054000D01*
X175948048Y-99186006D01*
X175322918Y-99444943D01*
X174760315Y-99820862D01*
X174281862Y-100299315D01*
X173905943Y-100861918D01*
X173647006Y-101487048D01*
X173515000Y-102150682D01*
X173515000Y-102827318D01*
X173647006Y-103490952D01*
X173905943Y-104116082D01*
X174281862Y-104678685D01*
X174760315Y-105157138D01*
X175322918Y-105533057D01*
X175948048Y-105791994D01*
X176611682Y-105924000D01*
X177288318Y-105924000D01*
X177951952Y-105791994D01*
X178577082Y-105533057D01*
X178918001Y-105305263D01*
X178918001Y-113386000D01*
X137248430Y-113386000D01*
X137087875Y-111803377D01*
X145297229Y-111803377D01*
X145423104Y-112093315D01*
X145755262Y-112259139D01*
X146113387Y-112356975D01*
X146483719Y-112383065D01*
X146852025Y-112336405D01*
X147204151Y-112218789D01*
X147438896Y-112093315D01*
X147564771Y-111803377D01*
X146431000Y-110669605D01*
X145297229Y-111803377D01*
X137087875Y-111803377D01*
X136959982Y-110542719D01*
X144537935Y-110542719D01*
X144584595Y-110911025D01*
X144702211Y-111263151D01*
X144827685Y-111497896D01*
X145117623Y-111623771D01*
X146251395Y-110490000D01*
X146610605Y-110490000D01*
X147744377Y-111623771D01*
X148034315Y-111497896D01*
X148200139Y-111165738D01*
X148297975Y-110807613D01*
X148324065Y-110437281D01*
X148277405Y-110068975D01*
X148159789Y-109716849D01*
X148034315Y-109482104D01*
X147744377Y-109356229D01*
X146610605Y-110490000D01*
X146251395Y-110490000D01*
X145117623Y-109356229D01*
X144827685Y-109482104D01*
X144661861Y-109814262D01*
X144564025Y-110172387D01*
X144537935Y-110542719D01*
X136959982Y-110542719D01*
X136821393Y-109176623D01*
X145297229Y-109176623D01*
X146431000Y-110310395D01*
X147564771Y-109176623D01*
X147438896Y-108886685D01*
X147106738Y-108720861D01*
X146748613Y-108623025D01*
X146378281Y-108596935D01*
X146009975Y-108643595D01*
X145657849Y-108761211D01*
X145423104Y-108886685D01*
X145297229Y-109176623D01*
X136821393Y-109176623D01*
X136560079Y-106600825D01*
X136549478Y-106240375D01*
X144546320Y-106240375D01*
X144546320Y-106611625D01*
X144618747Y-106975741D01*
X144760818Y-107318731D01*
X144967074Y-107627413D01*
X145229587Y-107889926D01*
X145538269Y-108096182D01*
X145881259Y-108238253D01*
X146245375Y-108310680D01*
X146616625Y-108310680D01*
X146980741Y-108238253D01*
X147323731Y-108096182D01*
X147632413Y-107889926D01*
X147894926Y-107627413D01*
X148101182Y-107318731D01*
X148243253Y-106975741D01*
X148253942Y-106922000D01*
X149787928Y-106922000D01*
X149800188Y-107046482D01*
X149836498Y-107166180D01*
X149895463Y-107276494D01*
X149974815Y-107373185D01*
X150071506Y-107452537D01*
X150181820Y-107511502D01*
X150301518Y-107547812D01*
X150426000Y-107560072D01*
X150590250Y-107557000D01*
X150749000Y-107398250D01*
X150749000Y-106299000D01*
X149949750Y-106299000D01*
X149791000Y-106457750D01*
X149787928Y-106922000D01*
X148253942Y-106922000D01*
X148315680Y-106611625D01*
X148315680Y-106240375D01*
X148243253Y-105876259D01*
X148188274Y-105743527D01*
X148509801Y-105422000D01*
X149787928Y-105422000D01*
X149791000Y-105886250D01*
X149949750Y-106045000D01*
X150749000Y-106045000D01*
X150749000Y-104945750D01*
X151003000Y-104945750D01*
X151003000Y-106045000D01*
X151023000Y-106045000D01*
X151023000Y-106299000D01*
X151003000Y-106299000D01*
X151003000Y-107398250D01*
X151161750Y-107557000D01*
X151326000Y-107560072D01*
X151450482Y-107547812D01*
X151570180Y-107511502D01*
X151679640Y-107452993D01*
X151728780Y-107479259D01*
X151933303Y-107541300D01*
X152146000Y-107562249D01*
X152358696Y-107541300D01*
X152563219Y-107479259D01*
X152751710Y-107378509D01*
X152781000Y-107354471D01*
X152810290Y-107378509D01*
X152998780Y-107479259D01*
X153203303Y-107541300D01*
X153416000Y-107562249D01*
X153628696Y-107541300D01*
X153833219Y-107479259D01*
X154021710Y-107378509D01*
X154186922Y-107242922D01*
X154322509Y-107077710D01*
X154423259Y-106889220D01*
X154485300Y-106684697D01*
X154501000Y-106525294D01*
X154501000Y-105818707D01*
X154485300Y-105659304D01*
X154423259Y-105454781D01*
X154322509Y-105266290D01*
X154186922Y-105101078D01*
X154021710Y-104965491D01*
X153833220Y-104864741D01*
X153628697Y-104802700D01*
X153416000Y-104781751D01*
X153203304Y-104802700D01*
X152998781Y-104864741D01*
X152810291Y-104965491D01*
X152781001Y-104989529D01*
X152751710Y-104965491D01*
X152563220Y-104864741D01*
X152358697Y-104802700D01*
X152146000Y-104781751D01*
X151933304Y-104802700D01*
X151728781Y-104864741D01*
X151679641Y-104891007D01*
X151570180Y-104832498D01*
X151450482Y-104796188D01*
X151326000Y-104783928D01*
X151161750Y-104787000D01*
X151003000Y-104945750D01*
X150749000Y-104945750D01*
X150590250Y-104787000D01*
X150426000Y-104783928D01*
X150301518Y-104796188D01*
X150181820Y-104832498D01*
X150071506Y-104891463D01*
X149974815Y-104970815D01*
X149895463Y-105067506D01*
X149836498Y-105177820D01*
X149800188Y-105297518D01*
X149787928Y-105422000D01*
X148509801Y-105422000D01*
X155699823Y-98231979D01*
X155672700Y-98340184D01*
X155658783Y-98622512D01*
X155700213Y-98902130D01*
X155795397Y-99168292D01*
X155862329Y-99293514D01*
X156106298Y-99365097D01*
X156919395Y-98552000D01*
X156905253Y-98537858D01*
X157084858Y-98358253D01*
X157099000Y-98372395D01*
X157113143Y-98358253D01*
X157292748Y-98537858D01*
X157278605Y-98552000D01*
X157292748Y-98566143D01*
X157113143Y-98745748D01*
X157099000Y-98731605D01*
X156285903Y-99544702D01*
X156357486Y-99788671D01*
X156612996Y-99909571D01*
X156887184Y-99978300D01*
X157169512Y-99992217D01*
X157449130Y-99950787D01*
X157715292Y-99855603D01*
X157840514Y-99788671D01*
X157912097Y-99544704D01*
X157990000Y-99622607D01*
X157990000Y-101920198D01*
X157422886Y-102487312D01*
X157240335Y-102451000D01*
X156957665Y-102451000D01*
X156680426Y-102506147D01*
X156419273Y-102614320D01*
X156184241Y-102771363D01*
X155984363Y-102971241D01*
X155827320Y-103206273D01*
X155719147Y-103467426D01*
X155664000Y-103744665D01*
X155664000Y-104027335D01*
X155719147Y-104304574D01*
X155827320Y-104565727D01*
X155984363Y-104800759D01*
X156184241Y-105000637D01*
X156419273Y-105157680D01*
X156680426Y-105265853D01*
X156957665Y-105321000D01*
X157240335Y-105321000D01*
X157517574Y-105265853D01*
X157778727Y-105157680D01*
X158013759Y-105000637D01*
X158213637Y-104800759D01*
X158370680Y-104565727D01*
X158478853Y-104304574D01*
X158534000Y-104027335D01*
X158534000Y-103744665D01*
X158497688Y-103562114D01*
X159260000Y-102799802D01*
X159260000Y-105984198D01*
X157422886Y-107821312D01*
X157240335Y-107785000D01*
X156957665Y-107785000D01*
X156680426Y-107840147D01*
X156419273Y-107948320D01*
X156184241Y-108105363D01*
X155984363Y-108305241D01*
X155827320Y-108540273D01*
X155719147Y-108801426D01*
X155664000Y-109078665D01*
X155664000Y-109361335D01*
X155719147Y-109638574D01*
X155827320Y-109899727D01*
X155984363Y-110134759D01*
X156184241Y-110334637D01*
X156419273Y-110491680D01*
X156680426Y-110599853D01*
X156957665Y-110655000D01*
X157240335Y-110655000D01*
X157517574Y-110599853D01*
X157778727Y-110491680D01*
X158013759Y-110334637D01*
X158213637Y-110134759D01*
X158370680Y-109899727D01*
X158478853Y-109638574D01*
X158534000Y-109361335D01*
X158534000Y-109078665D01*
X158497688Y-108896114D01*
X160531004Y-106862798D01*
X160560001Y-106839001D01*
X160654974Y-106723276D01*
X160725546Y-106591247D01*
X160769003Y-106447986D01*
X160780000Y-106336333D01*
X160780000Y-106336323D01*
X160783676Y-106299000D01*
X160780000Y-106261677D01*
X160780000Y-103886000D01*
X168357057Y-103886000D01*
X168384764Y-104167309D01*
X168466818Y-104437808D01*
X168600068Y-104687101D01*
X168779392Y-104905608D01*
X168997899Y-105084932D01*
X169039000Y-105106901D01*
X169039001Y-107999099D01*
X168997899Y-108021068D01*
X168779392Y-108200392D01*
X168600068Y-108418899D01*
X168466818Y-108668192D01*
X168384764Y-108938691D01*
X168357057Y-109220000D01*
X168384764Y-109501309D01*
X168466818Y-109771808D01*
X168600068Y-110021101D01*
X168779392Y-110239608D01*
X168997899Y-110418932D01*
X169247192Y-110552182D01*
X169517691Y-110634236D01*
X169728508Y-110655000D01*
X169869492Y-110655000D01*
X170080309Y-110634236D01*
X170350808Y-110552182D01*
X170600101Y-110418932D01*
X170818608Y-110239608D01*
X170997932Y-110021101D01*
X171131182Y-109771808D01*
X171213236Y-109501309D01*
X171240943Y-109220000D01*
X171213236Y-108938691D01*
X171131182Y-108668192D01*
X170997932Y-108418899D01*
X170818608Y-108200392D01*
X170600101Y-108021068D01*
X170559000Y-107999099D01*
X170559000Y-105106901D01*
X170600101Y-105084932D01*
X170818608Y-104905608D01*
X170997932Y-104687101D01*
X171131182Y-104437808D01*
X171213236Y-104167309D01*
X171240943Y-103886000D01*
X171213236Y-103604691D01*
X171131182Y-103334192D01*
X170997932Y-103084899D01*
X170818608Y-102866392D01*
X170600101Y-102687068D01*
X170350808Y-102553818D01*
X170080309Y-102471764D01*
X169869492Y-102451000D01*
X169728508Y-102451000D01*
X169517691Y-102471764D01*
X169247192Y-102553818D01*
X168997899Y-102687068D01*
X168779392Y-102866392D01*
X168600068Y-103084899D01*
X168466818Y-103334192D01*
X168384764Y-103604691D01*
X168357057Y-103886000D01*
X160780000Y-103886000D01*
X160780000Y-92011886D01*
X160790922Y-92002922D01*
X160926509Y-91837710D01*
X161009738Y-91682000D01*
X163503928Y-91682000D01*
X163516188Y-91806482D01*
X163552498Y-91926180D01*
X163611463Y-92036494D01*
X163690815Y-92133185D01*
X163787506Y-92212537D01*
X163897820Y-92271502D01*
X164017518Y-92307812D01*
X164142000Y-92320072D01*
X164306250Y-92317000D01*
X164465000Y-92158250D01*
X164465000Y-91059000D01*
X163665750Y-91059000D01*
X163507000Y-91217750D01*
X163503928Y-91682000D01*
X161009738Y-91682000D01*
X161023040Y-91657114D01*
X161087547Y-91637546D01*
X161219576Y-91566974D01*
X161335301Y-91472001D01*
X161359104Y-91442998D01*
X162185402Y-90616700D01*
X163506804Y-90616700D01*
X163507000Y-90646250D01*
X163665750Y-90805000D01*
X164465000Y-90805000D01*
X164465000Y-90785000D01*
X164719000Y-90785000D01*
X164719000Y-90805000D01*
X164721000Y-90805000D01*
X164721000Y-90969332D01*
X164729832Y-91059000D01*
X164719000Y-91059000D01*
X164719000Y-92158250D01*
X164877750Y-92317000D01*
X165042000Y-92320072D01*
X165166482Y-92307812D01*
X165286180Y-92271502D01*
X165395640Y-92212993D01*
X165444780Y-92239259D01*
X165649303Y-92301300D01*
X165862000Y-92322249D01*
X166074696Y-92301300D01*
X166279219Y-92239259D01*
X166467710Y-92138509D01*
X166497000Y-92114471D01*
X166526290Y-92138509D01*
X166714780Y-92239259D01*
X166919303Y-92301300D01*
X167132000Y-92322249D01*
X167344696Y-92301300D01*
X167549219Y-92239259D01*
X167737710Y-92138509D01*
X167902922Y-92002922D01*
X168038509Y-91837710D01*
X168139259Y-91649220D01*
X168201300Y-91444697D01*
X168217000Y-91285294D01*
X168217000Y-90578707D01*
X168201300Y-90419304D01*
X168139259Y-90214781D01*
X168090148Y-90122900D01*
X168313799Y-90122900D01*
X170014901Y-91824003D01*
X170038699Y-91853001D01*
X170154424Y-91947974D01*
X170286453Y-92018546D01*
X170429714Y-92062003D01*
X170541367Y-92073000D01*
X170541377Y-92073000D01*
X170578700Y-92076676D01*
X170616023Y-92073000D01*
X171281928Y-92073000D01*
X171281928Y-92113000D01*
X171294188Y-92237482D01*
X171330498Y-92357180D01*
X171389463Y-92467494D01*
X171468815Y-92564185D01*
X171565506Y-92643537D01*
X171675820Y-92702502D01*
X171795518Y-92738812D01*
X171920000Y-92751072D01*
X173520000Y-92751072D01*
X173644482Y-92738812D01*
X173764180Y-92702502D01*
X173874494Y-92643537D01*
X173971185Y-92564185D01*
X174050537Y-92467494D01*
X174109502Y-92357180D01*
X174138661Y-92261057D01*
X174305241Y-92427637D01*
X174540273Y-92584680D01*
X174587000Y-92604035D01*
X174587000Y-92689198D01*
X170124906Y-97151292D01*
X170080309Y-97137764D01*
X169869492Y-97117000D01*
X169728508Y-97117000D01*
X169517691Y-97137764D01*
X169247192Y-97219818D01*
X168997899Y-97353068D01*
X168779392Y-97532392D01*
X168600068Y-97750899D01*
X168466818Y-98000192D01*
X168384764Y-98270691D01*
X168357057Y-98552000D01*
X168384764Y-98833309D01*
X168466818Y-99103808D01*
X168600068Y-99353101D01*
X168779392Y-99571608D01*
X168997899Y-99750932D01*
X169247192Y-99884182D01*
X169517691Y-99966236D01*
X169728508Y-99987000D01*
X169869492Y-99987000D01*
X170080309Y-99966236D01*
X170350808Y-99884182D01*
X170600101Y-99750932D01*
X170818608Y-99571608D01*
X170997932Y-99353101D01*
X171131182Y-99103808D01*
X171213236Y-98833309D01*
X171240943Y-98552000D01*
X171213236Y-98270691D01*
X171199708Y-98226094D01*
X175858004Y-93567798D01*
X175887001Y-93544001D01*
X175981974Y-93428276D01*
X176052546Y-93296247D01*
X176096003Y-93152986D01*
X176107000Y-93041333D01*
X176107000Y-93041323D01*
X176110676Y-93004000D01*
X176107000Y-92966677D01*
X176107000Y-92446185D01*
X176134759Y-92427637D01*
X176334637Y-92227759D01*
X176491680Y-91992727D01*
X176599853Y-91731574D01*
X176655000Y-91454335D01*
X176655000Y-91171665D01*
X176599853Y-90894426D01*
X176491680Y-90633273D01*
X176334637Y-90398241D01*
X176134759Y-90198363D01*
X175899727Y-90041320D01*
X175638574Y-89933147D01*
X175361335Y-89878000D01*
X175078665Y-89878000D01*
X174801426Y-89933147D01*
X174540273Y-90041320D01*
X174305241Y-90198363D01*
X174138661Y-90364943D01*
X174109502Y-90268820D01*
X174050537Y-90158506D01*
X173971185Y-90061815D01*
X173874494Y-89982463D01*
X173764180Y-89923498D01*
X173644482Y-89887188D01*
X173520000Y-89874928D01*
X171920000Y-89874928D01*
X171795518Y-89887188D01*
X171675820Y-89923498D01*
X171565506Y-89982463D01*
X171468815Y-90061815D01*
X171440734Y-90096032D01*
X171429453Y-90099454D01*
X171297424Y-90170026D01*
X171181699Y-90264999D01*
X171086726Y-90380724D01*
X171016154Y-90512753D01*
X171003945Y-90553000D01*
X170893502Y-90553000D01*
X169192404Y-88851903D01*
X169168601Y-88822899D01*
X169052876Y-88727926D01*
X168920847Y-88657354D01*
X168777586Y-88613897D01*
X168665933Y-88602900D01*
X168665922Y-88602900D01*
X168628600Y-88599224D01*
X168591278Y-88602900D01*
X157352722Y-88602900D01*
X157315399Y-88599224D01*
X157278076Y-88602900D01*
X157278067Y-88602900D01*
X157166414Y-88613897D01*
X157023153Y-88657354D01*
X156891124Y-88727926D01*
X156891122Y-88727927D01*
X156891123Y-88727927D01*
X156804396Y-88799101D01*
X156804392Y-88799105D01*
X156775399Y-88822899D01*
X156751605Y-88851892D01*
X155206598Y-90396901D01*
X155177600Y-90420699D01*
X155153802Y-90449697D01*
X155153801Y-90449698D01*
X155082626Y-90536424D01*
X155012054Y-90668454D01*
X154991208Y-90737178D01*
X154968598Y-90811714D01*
X154960428Y-90894667D01*
X154953924Y-90960700D01*
X154957601Y-90998032D01*
X154957600Y-96824598D01*
X147113473Y-104668726D01*
X146980741Y-104613747D01*
X146616625Y-104541320D01*
X146245375Y-104541320D01*
X145881259Y-104613747D01*
X145538269Y-104755818D01*
X145229587Y-104962074D01*
X144967074Y-105224587D01*
X144760818Y-105533269D01*
X144618747Y-105876259D01*
X144546320Y-106240375D01*
X136549478Y-106240375D01*
X136510627Y-104919450D01*
X136748315Y-105157138D01*
X137310918Y-105533057D01*
X137936048Y-105791994D01*
X138599682Y-105924000D01*
X139276318Y-105924000D01*
X139939952Y-105791994D01*
X140565082Y-105533057D01*
X141127685Y-105157138D01*
X141606138Y-104678685D01*
X141982057Y-104116082D01*
X142240994Y-103490952D01*
X142373000Y-102827318D01*
X142373000Y-102150682D01*
X142352849Y-102049375D01*
X144546320Y-102049375D01*
X144546320Y-102420625D01*
X144618747Y-102784741D01*
X144760818Y-103127731D01*
X144967074Y-103436413D01*
X145229587Y-103698926D01*
X145538269Y-103905182D01*
X145881259Y-104047253D01*
X146245375Y-104119680D01*
X146616625Y-104119680D01*
X146980741Y-104047253D01*
X147323731Y-103905182D01*
X147632413Y-103698926D01*
X147894926Y-103436413D01*
X148101182Y-103127731D01*
X148243253Y-102784741D01*
X148315680Y-102420625D01*
X148315680Y-102049375D01*
X148243253Y-101685259D01*
X148101182Y-101342269D01*
X147894926Y-101033587D01*
X147632413Y-100771074D01*
X147323731Y-100564818D01*
X146980741Y-100422747D01*
X146616625Y-100350320D01*
X146245375Y-100350320D01*
X145881259Y-100422747D01*
X145538269Y-100564818D01*
X145229587Y-100771074D01*
X144967074Y-101033587D01*
X144760818Y-101342269D01*
X144618747Y-101685259D01*
X144546320Y-102049375D01*
X142352849Y-102049375D01*
X142240994Y-101487048D01*
X141982057Y-100861918D01*
X141606138Y-100299315D01*
X141127685Y-99820862D01*
X140565082Y-99444943D01*
X139939952Y-99186006D01*
X139276318Y-99054000D01*
X138599682Y-99054000D01*
X137936048Y-99186006D01*
X137310918Y-99444943D01*
X136748315Y-99820862D01*
X136423000Y-100146177D01*
X136423000Y-93367589D01*
X139855000Y-93367589D01*
X139855000Y-93640411D01*
X139908225Y-93907989D01*
X140012629Y-94160043D01*
X140164201Y-94386886D01*
X140357114Y-94579799D01*
X140583957Y-94731371D01*
X140638588Y-94754000D01*
X140583957Y-94776629D01*
X140357114Y-94928201D01*
X140164201Y-95121114D01*
X140012629Y-95347957D01*
X139908225Y-95600011D01*
X139855000Y-95867589D01*
X139855000Y-96140411D01*
X139908225Y-96407989D01*
X140012629Y-96660043D01*
X140164201Y-96886886D01*
X140357114Y-97079799D01*
X140583957Y-97231371D01*
X140836011Y-97335775D01*
X141103589Y-97389000D01*
X141376411Y-97389000D01*
X141643989Y-97335775D01*
X141896043Y-97231371D01*
X142122886Y-97079799D01*
X142315799Y-96886886D01*
X142467371Y-96660043D01*
X142571775Y-96407989D01*
X142625000Y-96140411D01*
X142625000Y-95867589D01*
X142571775Y-95600011D01*
X142467371Y-95347957D01*
X142315799Y-95121114D01*
X142122886Y-94928201D01*
X141896043Y-94776629D01*
X141841412Y-94754000D01*
X141896043Y-94731371D01*
X142122886Y-94579799D01*
X142315799Y-94386886D01*
X142397909Y-94264000D01*
X146882091Y-94264000D01*
X146964201Y-94386886D01*
X147157114Y-94579799D01*
X147383957Y-94731371D01*
X147438588Y-94754000D01*
X147383957Y-94776629D01*
X147157114Y-94928201D01*
X146964201Y-95121114D01*
X146812629Y-95347957D01*
X146708225Y-95600011D01*
X146655000Y-95867589D01*
X146655000Y-96140411D01*
X146708225Y-96407989D01*
X146812629Y-96660043D01*
X146964201Y-96886886D01*
X147157114Y-97079799D01*
X147383957Y-97231371D01*
X147636011Y-97335775D01*
X147903589Y-97389000D01*
X148176411Y-97389000D01*
X148443989Y-97335775D01*
X148696043Y-97231371D01*
X148922886Y-97079799D01*
X149115799Y-96886886D01*
X149267371Y-96660043D01*
X149371775Y-96407989D01*
X149425000Y-96140411D01*
X149425000Y-95867589D01*
X149371775Y-95600011D01*
X149267371Y-95347957D01*
X149115799Y-95121114D01*
X148922886Y-94928201D01*
X148696043Y-94776629D01*
X148641412Y-94754000D01*
X148696043Y-94731371D01*
X148922886Y-94579799D01*
X149115799Y-94386886D01*
X149267371Y-94160043D01*
X149371775Y-93907989D01*
X149425000Y-93640411D01*
X149425000Y-93367589D01*
X149371775Y-93100011D01*
X149267371Y-92847957D01*
X149115799Y-92621114D01*
X148922886Y-92428201D01*
X148696043Y-92276629D01*
X148443989Y-92172225D01*
X148176411Y-92119000D01*
X147903589Y-92119000D01*
X147636011Y-92172225D01*
X147383957Y-92276629D01*
X147157114Y-92428201D01*
X146964201Y-92621114D01*
X146882091Y-92744000D01*
X142397909Y-92744000D01*
X142315799Y-92621114D01*
X142122886Y-92428201D01*
X141896043Y-92276629D01*
X141643989Y-92172225D01*
X141376411Y-92119000D01*
X141103589Y-92119000D01*
X140836011Y-92172225D01*
X140583957Y-92276629D01*
X140357114Y-92428201D01*
X140164201Y-92621114D01*
X140012629Y-92847957D01*
X139908225Y-93100011D01*
X139855000Y-93367589D01*
X136423000Y-93367589D01*
X136423000Y-92371150D01*
X136768568Y-92602051D01*
X137199426Y-92780518D01*
X137656822Y-92871500D01*
X138123178Y-92871500D01*
X138580574Y-92780518D01*
X139011432Y-92602051D01*
X139399193Y-92342957D01*
X139728957Y-92013193D01*
X139988051Y-91625432D01*
X140166518Y-91194574D01*
X140257500Y-90737178D01*
X140257500Y-90270822D01*
X140166518Y-89813426D01*
X140024607Y-89470822D01*
X142272500Y-89470822D01*
X142272500Y-89937178D01*
X142363482Y-90394574D01*
X142541949Y-90825432D01*
X142801043Y-91213193D01*
X143130807Y-91542957D01*
X143518568Y-91802051D01*
X143949426Y-91980518D01*
X144406822Y-92071500D01*
X144873178Y-92071500D01*
X145330574Y-91980518D01*
X145761432Y-91802051D01*
X146149193Y-91542957D01*
X146478957Y-91213193D01*
X146738051Y-90825432D01*
X146916518Y-90394574D01*
X146941133Y-90270822D01*
X149022500Y-90270822D01*
X149022500Y-90737178D01*
X149113482Y-91194574D01*
X149291949Y-91625432D01*
X149551043Y-92013193D01*
X149880807Y-92342957D01*
X150268568Y-92602051D01*
X150699426Y-92780518D01*
X151156822Y-92871500D01*
X151623178Y-92871500D01*
X152080574Y-92780518D01*
X152511432Y-92602051D01*
X152899193Y-92342957D01*
X153228957Y-92013193D01*
X153488051Y-91625432D01*
X153666518Y-91194574D01*
X153757500Y-90737178D01*
X153757500Y-90270822D01*
X153666518Y-89813426D01*
X153488051Y-89382568D01*
X153228957Y-88994807D01*
X152899193Y-88665043D01*
X152511432Y-88405949D01*
X152080574Y-88227482D01*
X151623178Y-88136500D01*
X151156822Y-88136500D01*
X150699426Y-88227482D01*
X150268568Y-88405949D01*
X149880807Y-88665043D01*
X149551043Y-88994807D01*
X149291949Y-89382568D01*
X149113482Y-89813426D01*
X149022500Y-90270822D01*
X146941133Y-90270822D01*
X147007500Y-89937178D01*
X147007500Y-89470822D01*
X146916518Y-89013426D01*
X146738051Y-88582568D01*
X146478957Y-88194807D01*
X146149193Y-87865043D01*
X145761432Y-87605949D01*
X145330574Y-87427482D01*
X144873178Y-87336500D01*
X144406822Y-87336500D01*
X143949426Y-87427482D01*
X143518568Y-87605949D01*
X143130807Y-87865043D01*
X142801043Y-88194807D01*
X142541949Y-88582568D01*
X142363482Y-89013426D01*
X142272500Y-89470822D01*
X140024607Y-89470822D01*
X139988051Y-89382568D01*
X139728957Y-88994807D01*
X139399193Y-88665043D01*
X139011432Y-88405949D01*
X138580574Y-88227482D01*
X138123178Y-88136500D01*
X137656822Y-88136500D01*
X137199426Y-88227482D01*
X136768568Y-88405949D01*
X136423000Y-88636850D01*
X136423000Y-84480000D01*
X152629001Y-84480000D01*
X152629000Y-85184580D01*
X152629000Y-85184580D01*
G37*
X152629000Y-85184580D02*
X152625807Y-85217000D01*
X152638550Y-85346383D01*
X152676290Y-85470793D01*
X152737575Y-85585450D01*
X152820052Y-85685948D01*
X152920550Y-85768425D01*
X153035207Y-85829710D01*
X153159617Y-85867450D01*
X153289000Y-85880193D01*
X153321419Y-85877000D01*
X178918000Y-85877000D01*
X178918001Y-99672737D01*
X178577082Y-99444943D01*
X177951952Y-99186006D01*
X177288318Y-99054000D01*
X176611682Y-99054000D01*
X175948048Y-99186006D01*
X175322918Y-99444943D01*
X174760315Y-99820862D01*
X174281862Y-100299315D01*
X173905943Y-100861918D01*
X173647006Y-101487048D01*
X173515000Y-102150682D01*
X173515000Y-102827318D01*
X173647006Y-103490952D01*
X173905943Y-104116082D01*
X174281862Y-104678685D01*
X174760315Y-105157138D01*
X175322918Y-105533057D01*
X175948048Y-105791994D01*
X176611682Y-105924000D01*
X177288318Y-105924000D01*
X177951952Y-105791994D01*
X178577082Y-105533057D01*
X178918001Y-105305263D01*
X178918001Y-113386000D01*
X137248430Y-113386000D01*
X137087875Y-111803377D01*
X145297229Y-111803377D01*
X145423104Y-112093315D01*
X145755262Y-112259139D01*
X146113387Y-112356975D01*
X146483719Y-112383065D01*
X146852025Y-112336405D01*
X147204151Y-112218789D01*
X147438896Y-112093315D01*
X147564771Y-111803377D01*
X146431000Y-110669605D01*
X145297229Y-111803377D01*
X137087875Y-111803377D01*
X136959982Y-110542719D01*
X144537935Y-110542719D01*
X144584595Y-110911025D01*
X144702211Y-111263151D01*
X144827685Y-111497896D01*
X145117623Y-111623771D01*
X146251395Y-110490000D01*
X146610605Y-110490000D01*
X147744377Y-111623771D01*
X148034315Y-111497896D01*
X148200139Y-111165738D01*
X148297975Y-110807613D01*
X148324065Y-110437281D01*
X148277405Y-110068975D01*
X148159789Y-109716849D01*
X148034315Y-109482104D01*
X147744377Y-109356229D01*
X146610605Y-110490000D01*
X146251395Y-110490000D01*
X145117623Y-109356229D01*
X144827685Y-109482104D01*
X144661861Y-109814262D01*
X144564025Y-110172387D01*
X144537935Y-110542719D01*
X136959982Y-110542719D01*
X136821393Y-109176623D01*
X145297229Y-109176623D01*
X146431000Y-110310395D01*
X147564771Y-109176623D01*
X147438896Y-108886685D01*
X147106738Y-108720861D01*
X146748613Y-108623025D01*
X146378281Y-108596935D01*
X146009975Y-108643595D01*
X145657849Y-108761211D01*
X145423104Y-108886685D01*
X145297229Y-109176623D01*
X136821393Y-109176623D01*
X136560079Y-106600825D01*
X136549478Y-106240375D01*
X144546320Y-106240375D01*
X144546320Y-106611625D01*
X144618747Y-106975741D01*
X144760818Y-107318731D01*
X144967074Y-107627413D01*
X145229587Y-107889926D01*
X145538269Y-108096182D01*
X145881259Y-108238253D01*
X146245375Y-108310680D01*
X146616625Y-108310680D01*
X146980741Y-108238253D01*
X147323731Y-108096182D01*
X147632413Y-107889926D01*
X147894926Y-107627413D01*
X148101182Y-107318731D01*
X148243253Y-106975741D01*
X148253942Y-106922000D01*
X149787928Y-106922000D01*
X149800188Y-107046482D01*
X149836498Y-107166180D01*
X149895463Y-107276494D01*
X149974815Y-107373185D01*
X150071506Y-107452537D01*
X150181820Y-107511502D01*
X150301518Y-107547812D01*
X150426000Y-107560072D01*
X150590250Y-107557000D01*
X150749000Y-107398250D01*
X150749000Y-106299000D01*
X149949750Y-106299000D01*
X149791000Y-106457750D01*
X149787928Y-106922000D01*
X148253942Y-106922000D01*
X148315680Y-106611625D01*
X148315680Y-106240375D01*
X148243253Y-105876259D01*
X148188274Y-105743527D01*
X148509801Y-105422000D01*
X149787928Y-105422000D01*
X149791000Y-105886250D01*
X149949750Y-106045000D01*
X150749000Y-106045000D01*
X150749000Y-104945750D01*
X151003000Y-104945750D01*
X151003000Y-106045000D01*
X151023000Y-106045000D01*
X151023000Y-106299000D01*
X151003000Y-106299000D01*
X151003000Y-107398250D01*
X151161750Y-107557000D01*
X151326000Y-107560072D01*
X151450482Y-107547812D01*
X151570180Y-107511502D01*
X151679640Y-107452993D01*
X151728780Y-107479259D01*
X151933303Y-107541300D01*
X152146000Y-107562249D01*
X152358696Y-107541300D01*
X152563219Y-107479259D01*
X152751710Y-107378509D01*
X152781000Y-107354471D01*
X152810290Y-107378509D01*
X152998780Y-107479259D01*
X153203303Y-107541300D01*
X153416000Y-107562249D01*
X153628696Y-107541300D01*
X153833219Y-107479259D01*
X154021710Y-107378509D01*
X154186922Y-107242922D01*
X154322509Y-107077710D01*
X154423259Y-106889220D01*
X154485300Y-106684697D01*
X154501000Y-106525294D01*
X154501000Y-105818707D01*
X154485300Y-105659304D01*
X154423259Y-105454781D01*
X154322509Y-105266290D01*
X154186922Y-105101078D01*
X154021710Y-104965491D01*
X153833220Y-104864741D01*
X153628697Y-104802700D01*
X153416000Y-104781751D01*
X153203304Y-104802700D01*
X152998781Y-104864741D01*
X152810291Y-104965491D01*
X152781001Y-104989529D01*
X152751710Y-104965491D01*
X152563220Y-104864741D01*
X152358697Y-104802700D01*
X152146000Y-104781751D01*
X151933304Y-104802700D01*
X151728781Y-104864741D01*
X151679641Y-104891007D01*
X151570180Y-104832498D01*
X151450482Y-104796188D01*
X151326000Y-104783928D01*
X151161750Y-104787000D01*
X151003000Y-104945750D01*
X150749000Y-104945750D01*
X150590250Y-104787000D01*
X150426000Y-104783928D01*
X150301518Y-104796188D01*
X150181820Y-104832498D01*
X150071506Y-104891463D01*
X149974815Y-104970815D01*
X149895463Y-105067506D01*
X149836498Y-105177820D01*
X149800188Y-105297518D01*
X149787928Y-105422000D01*
X148509801Y-105422000D01*
X155699823Y-98231979D01*
X155672700Y-98340184D01*
X155658783Y-98622512D01*
X155700213Y-98902130D01*
X155795397Y-99168292D01*
X155862329Y-99293514D01*
X156106298Y-99365097D01*
X156919395Y-98552000D01*
X156905253Y-98537858D01*
X157084858Y-98358253D01*
X157099000Y-98372395D01*
X157113143Y-98358253D01*
X157292748Y-98537858D01*
X157278605Y-98552000D01*
X157292748Y-98566143D01*
X157113143Y-98745748D01*
X157099000Y-98731605D01*
X156285903Y-99544702D01*
X156357486Y-99788671D01*
X156612996Y-99909571D01*
X156887184Y-99978300D01*
X157169512Y-99992217D01*
X157449130Y-99950787D01*
X157715292Y-99855603D01*
X157840514Y-99788671D01*
X157912097Y-99544704D01*
X157990000Y-99622607D01*
X157990000Y-101920198D01*
X157422886Y-102487312D01*
X157240335Y-102451000D01*
X156957665Y-102451000D01*
X156680426Y-102506147D01*
X156419273Y-102614320D01*
X156184241Y-102771363D01*
X155984363Y-102971241D01*
X155827320Y-103206273D01*
X155719147Y-103467426D01*
X155664000Y-103744665D01*
X155664000Y-104027335D01*
X155719147Y-104304574D01*
X155827320Y-104565727D01*
X155984363Y-104800759D01*
X156184241Y-105000637D01*
X156419273Y-105157680D01*
X156680426Y-105265853D01*
X156957665Y-105321000D01*
X157240335Y-105321000D01*
X157517574Y-105265853D01*
X157778727Y-105157680D01*
X158013759Y-105000637D01*
X158213637Y-104800759D01*
X158370680Y-104565727D01*
X158478853Y-104304574D01*
X158534000Y-104027335D01*
X158534000Y-103744665D01*
X158497688Y-103562114D01*
X159260000Y-102799802D01*
X159260000Y-105984198D01*
X157422886Y-107821312D01*
X157240335Y-107785000D01*
X156957665Y-107785000D01*
X156680426Y-107840147D01*
X156419273Y-107948320D01*
X156184241Y-108105363D01*
X155984363Y-108305241D01*
X155827320Y-108540273D01*
X155719147Y-108801426D01*
X155664000Y-109078665D01*
X155664000Y-109361335D01*
X155719147Y-109638574D01*
X155827320Y-109899727D01*
X155984363Y-110134759D01*
X156184241Y-110334637D01*
X156419273Y-110491680D01*
X156680426Y-110599853D01*
X156957665Y-110655000D01*
X157240335Y-110655000D01*
X157517574Y-110599853D01*
X157778727Y-110491680D01*
X158013759Y-110334637D01*
X158213637Y-110134759D01*
X158370680Y-109899727D01*
X158478853Y-109638574D01*
X158534000Y-109361335D01*
X158534000Y-109078665D01*
X158497688Y-108896114D01*
X160531004Y-106862798D01*
X160560001Y-106839001D01*
X160654974Y-106723276D01*
X160725546Y-106591247D01*
X160769003Y-106447986D01*
X160780000Y-106336333D01*
X160780000Y-106336323D01*
X160783676Y-106299000D01*
X160780000Y-106261677D01*
X160780000Y-103886000D01*
X168357057Y-103886000D01*
X168384764Y-104167309D01*
X168466818Y-104437808D01*
X168600068Y-104687101D01*
X168779392Y-104905608D01*
X168997899Y-105084932D01*
X169039000Y-105106901D01*
X169039001Y-107999099D01*
X168997899Y-108021068D01*
X168779392Y-108200392D01*
X168600068Y-108418899D01*
X168466818Y-108668192D01*
X168384764Y-108938691D01*
X168357057Y-109220000D01*
X168384764Y-109501309D01*
X168466818Y-109771808D01*
X168600068Y-110021101D01*
X168779392Y-110239608D01*
X168997899Y-110418932D01*
X169247192Y-110552182D01*
X169517691Y-110634236D01*
X169728508Y-110655000D01*
X169869492Y-110655000D01*
X170080309Y-110634236D01*
X170350808Y-110552182D01*
X170600101Y-110418932D01*
X170818608Y-110239608D01*
X170997932Y-110021101D01*
X171131182Y-109771808D01*
X171213236Y-109501309D01*
X171240943Y-109220000D01*
X171213236Y-108938691D01*
X171131182Y-108668192D01*
X170997932Y-108418899D01*
X170818608Y-108200392D01*
X170600101Y-108021068D01*
X170559000Y-107999099D01*
X170559000Y-105106901D01*
X170600101Y-105084932D01*
X170818608Y-104905608D01*
X170997932Y-104687101D01*
X171131182Y-104437808D01*
X171213236Y-104167309D01*
X171240943Y-103886000D01*
X171213236Y-103604691D01*
X171131182Y-103334192D01*
X170997932Y-103084899D01*
X170818608Y-102866392D01*
X170600101Y-102687068D01*
X170350808Y-102553818D01*
X170080309Y-102471764D01*
X169869492Y-102451000D01*
X169728508Y-102451000D01*
X169517691Y-102471764D01*
X169247192Y-102553818D01*
X168997899Y-102687068D01*
X168779392Y-102866392D01*
X168600068Y-103084899D01*
X168466818Y-103334192D01*
X168384764Y-103604691D01*
X168357057Y-103886000D01*
X160780000Y-103886000D01*
X160780000Y-92011886D01*
X160790922Y-92002922D01*
X160926509Y-91837710D01*
X161009738Y-91682000D01*
X163503928Y-91682000D01*
X163516188Y-91806482D01*
X163552498Y-91926180D01*
X163611463Y-92036494D01*
X163690815Y-92133185D01*
X163787506Y-92212537D01*
X163897820Y-92271502D01*
X164017518Y-92307812D01*
X164142000Y-92320072D01*
X164306250Y-92317000D01*
X164465000Y-92158250D01*
X164465000Y-91059000D01*
X163665750Y-91059000D01*
X163507000Y-91217750D01*
X163503928Y-91682000D01*
X161009738Y-91682000D01*
X161023040Y-91657114D01*
X161087547Y-91637546D01*
X161219576Y-91566974D01*
X161335301Y-91472001D01*
X161359104Y-91442998D01*
X162185402Y-90616700D01*
X163506804Y-90616700D01*
X163507000Y-90646250D01*
X163665750Y-90805000D01*
X164465000Y-90805000D01*
X164465000Y-90785000D01*
X164719000Y-90785000D01*
X164719000Y-90805000D01*
X164721000Y-90805000D01*
X164721000Y-90969332D01*
X164729832Y-91059000D01*
X164719000Y-91059000D01*
X164719000Y-92158250D01*
X164877750Y-92317000D01*
X165042000Y-92320072D01*
X165166482Y-92307812D01*
X165286180Y-92271502D01*
X165395640Y-92212993D01*
X165444780Y-92239259D01*
X165649303Y-92301300D01*
X165862000Y-92322249D01*
X166074696Y-92301300D01*
X166279219Y-92239259D01*
X166467710Y-92138509D01*
X166497000Y-92114471D01*
X166526290Y-92138509D01*
X166714780Y-92239259D01*
X166919303Y-92301300D01*
X167132000Y-92322249D01*
X167344696Y-92301300D01*
X167549219Y-92239259D01*
X167737710Y-92138509D01*
X167902922Y-92002922D01*
X168038509Y-91837710D01*
X168139259Y-91649220D01*
X168201300Y-91444697D01*
X168217000Y-91285294D01*
X168217000Y-90578707D01*
X168201300Y-90419304D01*
X168139259Y-90214781D01*
X168090148Y-90122900D01*
X168313799Y-90122900D01*
X170014901Y-91824003D01*
X170038699Y-91853001D01*
X170154424Y-91947974D01*
X170286453Y-92018546D01*
X170429714Y-92062003D01*
X170541367Y-92073000D01*
X170541377Y-92073000D01*
X170578700Y-92076676D01*
X170616023Y-92073000D01*
X171281928Y-92073000D01*
X171281928Y-92113000D01*
X171294188Y-92237482D01*
X171330498Y-92357180D01*
X171389463Y-92467494D01*
X171468815Y-92564185D01*
X171565506Y-92643537D01*
X171675820Y-92702502D01*
X171795518Y-92738812D01*
X171920000Y-92751072D01*
X173520000Y-92751072D01*
X173644482Y-92738812D01*
X173764180Y-92702502D01*
X173874494Y-92643537D01*
X173971185Y-92564185D01*
X174050537Y-92467494D01*
X174109502Y-92357180D01*
X174138661Y-92261057D01*
X174305241Y-92427637D01*
X174540273Y-92584680D01*
X174587000Y-92604035D01*
X174587000Y-92689198D01*
X170124906Y-97151292D01*
X170080309Y-97137764D01*
X169869492Y-97117000D01*
X169728508Y-97117000D01*
X169517691Y-97137764D01*
X169247192Y-97219818D01*
X168997899Y-97353068D01*
X168779392Y-97532392D01*
X168600068Y-97750899D01*
X168466818Y-98000192D01*
X168384764Y-98270691D01*
X168357057Y-98552000D01*
X168384764Y-98833309D01*
X168466818Y-99103808D01*
X168600068Y-99353101D01*
X168779392Y-99571608D01*
X168997899Y-99750932D01*
X169247192Y-99884182D01*
X169517691Y-99966236D01*
X169728508Y-99987000D01*
X169869492Y-99987000D01*
X170080309Y-99966236D01*
X170350808Y-99884182D01*
X170600101Y-99750932D01*
X170818608Y-99571608D01*
X170997932Y-99353101D01*
X171131182Y-99103808D01*
X171213236Y-98833309D01*
X171240943Y-98552000D01*
X171213236Y-98270691D01*
X171199708Y-98226094D01*
X175858004Y-93567798D01*
X175887001Y-93544001D01*
X175981974Y-93428276D01*
X176052546Y-93296247D01*
X176096003Y-93152986D01*
X176107000Y-93041333D01*
X176107000Y-93041323D01*
X176110676Y-93004000D01*
X176107000Y-92966677D01*
X176107000Y-92446185D01*
X176134759Y-92427637D01*
X176334637Y-92227759D01*
X176491680Y-91992727D01*
X176599853Y-91731574D01*
X176655000Y-91454335D01*
X176655000Y-91171665D01*
X176599853Y-90894426D01*
X176491680Y-90633273D01*
X176334637Y-90398241D01*
X176134759Y-90198363D01*
X175899727Y-90041320D01*
X175638574Y-89933147D01*
X175361335Y-89878000D01*
X175078665Y-89878000D01*
X174801426Y-89933147D01*
X174540273Y-90041320D01*
X174305241Y-90198363D01*
X174138661Y-90364943D01*
X174109502Y-90268820D01*
X174050537Y-90158506D01*
X173971185Y-90061815D01*
X173874494Y-89982463D01*
X173764180Y-89923498D01*
X173644482Y-89887188D01*
X173520000Y-89874928D01*
X171920000Y-89874928D01*
X171795518Y-89887188D01*
X171675820Y-89923498D01*
X171565506Y-89982463D01*
X171468815Y-90061815D01*
X171440734Y-90096032D01*
X171429453Y-90099454D01*
X171297424Y-90170026D01*
X171181699Y-90264999D01*
X171086726Y-90380724D01*
X171016154Y-90512753D01*
X171003945Y-90553000D01*
X170893502Y-90553000D01*
X169192404Y-88851903D01*
X169168601Y-88822899D01*
X169052876Y-88727926D01*
X168920847Y-88657354D01*
X168777586Y-88613897D01*
X168665933Y-88602900D01*
X168665922Y-88602900D01*
X168628600Y-88599224D01*
X168591278Y-88602900D01*
X157352722Y-88602900D01*
X157315399Y-88599224D01*
X157278076Y-88602900D01*
X157278067Y-88602900D01*
X157166414Y-88613897D01*
X157023153Y-88657354D01*
X156891124Y-88727926D01*
X156891122Y-88727927D01*
X156891123Y-88727927D01*
X156804396Y-88799101D01*
X156804392Y-88799105D01*
X156775399Y-88822899D01*
X156751605Y-88851892D01*
X155206598Y-90396901D01*
X155177600Y-90420699D01*
X155153802Y-90449697D01*
X155153801Y-90449698D01*
X155082626Y-90536424D01*
X155012054Y-90668454D01*
X154991208Y-90737178D01*
X154968598Y-90811714D01*
X154960428Y-90894667D01*
X154953924Y-90960700D01*
X154957601Y-90998032D01*
X154957600Y-96824598D01*
X147113473Y-104668726D01*
X146980741Y-104613747D01*
X146616625Y-104541320D01*
X146245375Y-104541320D01*
X145881259Y-104613747D01*
X145538269Y-104755818D01*
X145229587Y-104962074D01*
X144967074Y-105224587D01*
X144760818Y-105533269D01*
X144618747Y-105876259D01*
X144546320Y-106240375D01*
X136549478Y-106240375D01*
X136510627Y-104919450D01*
X136748315Y-105157138D01*
X137310918Y-105533057D01*
X137936048Y-105791994D01*
X138599682Y-105924000D01*
X139276318Y-105924000D01*
X139939952Y-105791994D01*
X140565082Y-105533057D01*
X141127685Y-105157138D01*
X141606138Y-104678685D01*
X141982057Y-104116082D01*
X142240994Y-103490952D01*
X142373000Y-102827318D01*
X142373000Y-102150682D01*
X142352849Y-102049375D01*
X144546320Y-102049375D01*
X144546320Y-102420625D01*
X144618747Y-102784741D01*
X144760818Y-103127731D01*
X144967074Y-103436413D01*
X145229587Y-103698926D01*
X145538269Y-103905182D01*
X145881259Y-104047253D01*
X146245375Y-104119680D01*
X146616625Y-104119680D01*
X146980741Y-104047253D01*
X147323731Y-103905182D01*
X147632413Y-103698926D01*
X147894926Y-103436413D01*
X148101182Y-103127731D01*
X148243253Y-102784741D01*
X148315680Y-102420625D01*
X148315680Y-102049375D01*
X148243253Y-101685259D01*
X148101182Y-101342269D01*
X147894926Y-101033587D01*
X147632413Y-100771074D01*
X147323731Y-100564818D01*
X146980741Y-100422747D01*
X146616625Y-100350320D01*
X146245375Y-100350320D01*
X145881259Y-100422747D01*
X145538269Y-100564818D01*
X145229587Y-100771074D01*
X144967074Y-101033587D01*
X144760818Y-101342269D01*
X144618747Y-101685259D01*
X144546320Y-102049375D01*
X142352849Y-102049375D01*
X142240994Y-101487048D01*
X141982057Y-100861918D01*
X141606138Y-100299315D01*
X141127685Y-99820862D01*
X140565082Y-99444943D01*
X139939952Y-99186006D01*
X139276318Y-99054000D01*
X138599682Y-99054000D01*
X137936048Y-99186006D01*
X137310918Y-99444943D01*
X136748315Y-99820862D01*
X136423000Y-100146177D01*
X136423000Y-93367589D01*
X139855000Y-93367589D01*
X139855000Y-93640411D01*
X139908225Y-93907989D01*
X140012629Y-94160043D01*
X140164201Y-94386886D01*
X140357114Y-94579799D01*
X140583957Y-94731371D01*
X140638588Y-94754000D01*
X140583957Y-94776629D01*
X140357114Y-94928201D01*
X140164201Y-95121114D01*
X140012629Y-95347957D01*
X139908225Y-95600011D01*
X139855000Y-95867589D01*
X139855000Y-96140411D01*
X139908225Y-96407989D01*
X140012629Y-96660043D01*
X140164201Y-96886886D01*
X140357114Y-97079799D01*
X140583957Y-97231371D01*
X140836011Y-97335775D01*
X141103589Y-97389000D01*
X141376411Y-97389000D01*
X141643989Y-97335775D01*
X141896043Y-97231371D01*
X142122886Y-97079799D01*
X142315799Y-96886886D01*
X142467371Y-96660043D01*
X142571775Y-96407989D01*
X142625000Y-96140411D01*
X142625000Y-95867589D01*
X142571775Y-95600011D01*
X142467371Y-95347957D01*
X142315799Y-95121114D01*
X142122886Y-94928201D01*
X141896043Y-94776629D01*
X141841412Y-94754000D01*
X141896043Y-94731371D01*
X142122886Y-94579799D01*
X142315799Y-94386886D01*
X142397909Y-94264000D01*
X146882091Y-94264000D01*
X146964201Y-94386886D01*
X147157114Y-94579799D01*
X147383957Y-94731371D01*
X147438588Y-94754000D01*
X147383957Y-94776629D01*
X147157114Y-94928201D01*
X146964201Y-95121114D01*
X146812629Y-95347957D01*
X146708225Y-95600011D01*
X146655000Y-95867589D01*
X146655000Y-96140411D01*
X146708225Y-96407989D01*
X146812629Y-96660043D01*
X146964201Y-96886886D01*
X147157114Y-97079799D01*
X147383957Y-97231371D01*
X147636011Y-97335775D01*
X147903589Y-97389000D01*
X148176411Y-97389000D01*
X148443989Y-97335775D01*
X148696043Y-97231371D01*
X148922886Y-97079799D01*
X149115799Y-96886886D01*
X149267371Y-96660043D01*
X149371775Y-96407989D01*
X149425000Y-96140411D01*
X149425000Y-95867589D01*
X149371775Y-95600011D01*
X149267371Y-95347957D01*
X149115799Y-95121114D01*
X148922886Y-94928201D01*
X148696043Y-94776629D01*
X148641412Y-94754000D01*
X148696043Y-94731371D01*
X148922886Y-94579799D01*
X149115799Y-94386886D01*
X149267371Y-94160043D01*
X149371775Y-93907989D01*
X149425000Y-93640411D01*
X149425000Y-93367589D01*
X149371775Y-93100011D01*
X149267371Y-92847957D01*
X149115799Y-92621114D01*
X148922886Y-92428201D01*
X148696043Y-92276629D01*
X148443989Y-92172225D01*
X148176411Y-92119000D01*
X147903589Y-92119000D01*
X147636011Y-92172225D01*
X147383957Y-92276629D01*
X147157114Y-92428201D01*
X146964201Y-92621114D01*
X146882091Y-92744000D01*
X142397909Y-92744000D01*
X142315799Y-92621114D01*
X142122886Y-92428201D01*
X141896043Y-92276629D01*
X141643989Y-92172225D01*
X141376411Y-92119000D01*
X141103589Y-92119000D01*
X140836011Y-92172225D01*
X140583957Y-92276629D01*
X140357114Y-92428201D01*
X140164201Y-92621114D01*
X140012629Y-92847957D01*
X139908225Y-93100011D01*
X139855000Y-93367589D01*
X136423000Y-93367589D01*
X136423000Y-92371150D01*
X136768568Y-92602051D01*
X137199426Y-92780518D01*
X137656822Y-92871500D01*
X138123178Y-92871500D01*
X138580574Y-92780518D01*
X139011432Y-92602051D01*
X139399193Y-92342957D01*
X139728957Y-92013193D01*
X139988051Y-91625432D01*
X140166518Y-91194574D01*
X140257500Y-90737178D01*
X140257500Y-90270822D01*
X140166518Y-89813426D01*
X140024607Y-89470822D01*
X142272500Y-89470822D01*
X142272500Y-89937178D01*
X142363482Y-90394574D01*
X142541949Y-90825432D01*
X142801043Y-91213193D01*
X143130807Y-91542957D01*
X143518568Y-91802051D01*
X143949426Y-91980518D01*
X144406822Y-92071500D01*
X144873178Y-92071500D01*
X145330574Y-91980518D01*
X145761432Y-91802051D01*
X146149193Y-91542957D01*
X146478957Y-91213193D01*
X146738051Y-90825432D01*
X146916518Y-90394574D01*
X146941133Y-90270822D01*
X149022500Y-90270822D01*
X149022500Y-90737178D01*
X149113482Y-91194574D01*
X149291949Y-91625432D01*
X149551043Y-92013193D01*
X149880807Y-92342957D01*
X150268568Y-92602051D01*
X150699426Y-92780518D01*
X151156822Y-92871500D01*
X151623178Y-92871500D01*
X152080574Y-92780518D01*
X152511432Y-92602051D01*
X152899193Y-92342957D01*
X153228957Y-92013193D01*
X153488051Y-91625432D01*
X153666518Y-91194574D01*
X153757500Y-90737178D01*
X153757500Y-90270822D01*
X153666518Y-89813426D01*
X153488051Y-89382568D01*
X153228957Y-88994807D01*
X152899193Y-88665043D01*
X152511432Y-88405949D01*
X152080574Y-88227482D01*
X151623178Y-88136500D01*
X151156822Y-88136500D01*
X150699426Y-88227482D01*
X150268568Y-88405949D01*
X149880807Y-88665043D01*
X149551043Y-88994807D01*
X149291949Y-89382568D01*
X149113482Y-89813426D01*
X149022500Y-90270822D01*
X146941133Y-90270822D01*
X147007500Y-89937178D01*
X147007500Y-89470822D01*
X146916518Y-89013426D01*
X146738051Y-88582568D01*
X146478957Y-88194807D01*
X146149193Y-87865043D01*
X145761432Y-87605949D01*
X145330574Y-87427482D01*
X144873178Y-87336500D01*
X144406822Y-87336500D01*
X143949426Y-87427482D01*
X143518568Y-87605949D01*
X143130807Y-87865043D01*
X142801043Y-88194807D01*
X142541949Y-88582568D01*
X142363482Y-89013426D01*
X142272500Y-89470822D01*
X140024607Y-89470822D01*
X139988051Y-89382568D01*
X139728957Y-88994807D01*
X139399193Y-88665043D01*
X139011432Y-88405949D01*
X138580574Y-88227482D01*
X138123178Y-88136500D01*
X137656822Y-88136500D01*
X137199426Y-88227482D01*
X136768568Y-88405949D01*
X136423000Y-88636850D01*
X136423000Y-84480000D01*
X152629001Y-84480000D01*
X152629000Y-85184580D01*
G36*
X157607000Y-90805000D02*
G01*
X157627000Y-90805000D01*
X157627000Y-91059000D01*
X157607000Y-91059000D01*
X157607000Y-92158250D01*
X157765750Y-92317000D01*
X157930000Y-92320072D01*
X157990001Y-92314163D01*
X157990000Y-97481393D01*
X157912097Y-97559296D01*
X157840514Y-97315329D01*
X157585004Y-97194429D01*
X157310816Y-97125700D01*
X157028488Y-97111783D01*
X156748870Y-97153213D01*
X156482708Y-97248397D01*
X156469866Y-97255261D01*
X156477600Y-97176733D01*
X156477600Y-97176725D01*
X156481276Y-97139400D01*
X156477600Y-97102075D01*
X156477600Y-91995592D01*
X156499463Y-92036494D01*
X156578815Y-92133185D01*
X156675506Y-92212537D01*
X156785820Y-92271502D01*
X156905518Y-92307812D01*
X157030000Y-92320072D01*
X157194250Y-92317000D01*
X157353000Y-92158250D01*
X157353000Y-91059000D01*
X157333000Y-91059000D01*
X157333000Y-90805000D01*
X157353000Y-90805000D01*
X157353000Y-90785000D01*
X157607000Y-90785000D01*
X157607000Y-90805000D01*
X157607000Y-90805000D01*
G37*
X157607000Y-90805000D02*
X157627000Y-90805000D01*
X157627000Y-91059000D01*
X157607000Y-91059000D01*
X157607000Y-92158250D01*
X157765750Y-92317000D01*
X157930000Y-92320072D01*
X157990001Y-92314163D01*
X157990000Y-97481393D01*
X157912097Y-97559296D01*
X157840514Y-97315329D01*
X157585004Y-97194429D01*
X157310816Y-97125700D01*
X157028488Y-97111783D01*
X156748870Y-97153213D01*
X156482708Y-97248397D01*
X156469866Y-97255261D01*
X156477600Y-97176733D01*
X156477600Y-97176725D01*
X156481276Y-97139400D01*
X156477600Y-97102075D01*
X156477600Y-91995592D01*
X156499463Y-92036494D01*
X156578815Y-92133185D01*
X156675506Y-92212537D01*
X156785820Y-92271502D01*
X156905518Y-92307812D01*
X157030000Y-92320072D01*
X157194250Y-92317000D01*
X157353000Y-92158250D01*
X157353000Y-91059000D01*
X157333000Y-91059000D01*
X157333000Y-90805000D01*
X157353000Y-90805000D01*
X157353000Y-90785000D01*
X157607000Y-90785000D01*
X157607000Y-90805000D01*
M02*
