G04 #@! TF.GenerationSoftware,KiCad,Pcbnew,(6.0.10)*
G04 #@! TF.CreationDate,2023-01-19T02:18:08+01:00*
G04 #@! TF.ProjectId,S-VHS ZX Spectrum Rev. D,532d5648-5320-45a5-9820-537065637472,rev?*
G04 #@! TF.SameCoordinates,Original*
G04 #@! TF.FileFunction,Soldermask,Bot*
G04 #@! TF.FilePolarity,Negative*
%FSLAX46Y46*%
G04 Gerber Fmt 4.6, Leading zero omitted, Abs format (unit mm)*
G04 Created by KiCad (PCBNEW (6.0.10)) date 2023-01-19 02:18:08*
%MOMM*%
%LPD*%
G01*
G04 APERTURE LIST*
G04 Aperture macros list*
%AMRoundRect*
0 Rectangle with rounded corners*
0 $1 Rounding radius*
0 $2 $3 $4 $5 $6 $7 $8 $9 X,Y pos of 4 corners*
0 Add a 4 corners polygon primitive as box body*
4,1,4,$2,$3,$4,$5,$6,$7,$8,$9,$2,$3,0*
0 Add four circle primitives for the rounded corners*
1,1,$1+$1,$2,$3*
1,1,$1+$1,$4,$5*
1,1,$1+$1,$6,$7*
1,1,$1+$1,$8,$9*
0 Add four rect primitives between the rounded corners*
20,1,$1+$1,$2,$3,$4,$5,0*
20,1,$1+$1,$4,$5,$6,$7,0*
20,1,$1+$1,$6,$7,$8,$9,0*
20,1,$1+$1,$8,$9,$2,$3,0*%
G04 Aperture macros list end*
G04 #@! TA.AperFunction,Profile*
%ADD10C,0.050000*%
G04 #@! TD*
%ADD11C,5.702000*%
%ADD12C,1.602000*%
%ADD13C,3.567000*%
%ADD14RoundRect,0.301000X0.725000X-0.600000X0.725000X0.600000X-0.725000X0.600000X-0.725000X-0.600000X0*%
%ADD15O,2.052000X1.802000*%
G04 APERTURE END LIST*
D10*
X135763000Y-105283000D02*
X136652000Y-114046000D01*
X179578000Y-85217000D02*
X179578000Y-114046000D01*
X135763000Y-83820000D02*
X135763000Y-105283000D01*
X179578000Y-85217000D02*
X153289000Y-85217000D01*
X153289000Y-83820000D02*
X135763000Y-83820000D01*
X179578000Y-114046000D02*
X136652000Y-114046000D01*
X153289000Y-85217000D02*
X153289000Y-83820000D01*
X135763000Y-105283000D02*
X136652000Y-114046000D01*
X179578000Y-85217000D02*
X179578000Y-114046000D01*
X135763000Y-83820000D02*
X135763000Y-105283000D01*
X179578000Y-85217000D02*
X153289000Y-85217000D01*
X153289000Y-83820000D02*
X135763000Y-83820000D01*
X179578000Y-114046000D02*
X136652000Y-114046000D01*
X153289000Y-85217000D02*
X153289000Y-83820000D01*
D11*
X176739000Y-102489000D03*
X138700000Y-102489000D03*
D12*
X140970000Y-93980000D03*
X147770000Y-93980000D03*
X140970000Y-96480000D03*
X147770000Y-96480000D03*
D13*
X137620000Y-90980000D03*
X144370000Y-90180000D03*
X151120000Y-90980000D03*
D14*
X145760000Y-109530000D03*
D15*
X145760000Y-107030000D03*
X145760000Y-104530000D03*
M02*
