G04 #@! TF.GenerationSoftware,KiCad,Pcbnew,(6.0.10)*
G04 #@! TF.CreationDate,2023-01-19T02:18:08+01:00*
G04 #@! TF.ProjectId,S-VHS ZX Spectrum Rev. D,532d5648-5320-45a5-9820-537065637472,rev?*
G04 #@! TF.SameCoordinates,Original*
G04 #@! TF.FileFunction,Legend,Top*
G04 #@! TF.FilePolarity,Positive*
%FSLAX46Y46*%
G04 Gerber Fmt 4.6, Leading zero omitted, Abs format (unit mm)*
G04 Created by KiCad (PCBNEW (6.0.10)) date 2023-01-19 02:18:08*
%MOMM*%
%LPD*%
G01*
G04 APERTURE LIST*
G04 #@! TA.AperFunction,Profile*
%ADD10C,0.050000*%
G04 #@! TD*
%ADD11C,0.150000*%
%ADD12C,0.200000*%
%ADD13C,0.254000*%
%ADD14C,0.120000*%
%ADD15C,0.100000*%
%ADD16C,1.500000*%
%ADD17C,3.465000*%
G04 APERTURE END LIST*
D10*
X135763000Y-105283000D02*
X136652000Y-114046000D01*
X179578000Y-85217000D02*
X179578000Y-114046000D01*
X135763000Y-83820000D02*
X135763000Y-105283000D01*
X179578000Y-85217000D02*
X153289000Y-85217000D01*
X153289000Y-83820000D02*
X135763000Y-83820000D01*
X179578000Y-114046000D02*
X136652000Y-114046000D01*
X153289000Y-85217000D02*
X153289000Y-83820000D01*
D11*
X149242857Y-103971428D02*
X148957142Y-103971428D01*
X148957142Y-103371428D01*
X149700000Y-103571428D02*
X149700000Y-103971428D01*
X149442857Y-103571428D02*
X149442857Y-103885714D01*
X149471428Y-103942857D01*
X149528571Y-103971428D01*
X149614285Y-103971428D01*
X149671428Y-103942857D01*
X149700000Y-103914285D01*
X149985714Y-103971428D02*
X149985714Y-103571428D01*
X149985714Y-103628571D02*
X150014285Y-103600000D01*
X150071428Y-103571428D01*
X150157142Y-103571428D01*
X150214285Y-103600000D01*
X150242857Y-103657142D01*
X150242857Y-103971428D01*
X150242857Y-103657142D02*
X150271428Y-103600000D01*
X150328571Y-103571428D01*
X150414285Y-103571428D01*
X150471428Y-103600000D01*
X150500000Y-103657142D01*
X150500000Y-103971428D01*
X151042857Y-103971428D02*
X151042857Y-103657142D01*
X151014285Y-103600000D01*
X150957142Y-103571428D01*
X150842857Y-103571428D01*
X150785714Y-103600000D01*
X151042857Y-103942857D02*
X150985714Y-103971428D01*
X150842857Y-103971428D01*
X150785714Y-103942857D01*
X150757142Y-103885714D01*
X150757142Y-103828571D01*
X150785714Y-103771428D01*
X150842857Y-103742857D01*
X150985714Y-103742857D01*
X151042857Y-103714285D01*
X149365714Y-109774285D02*
X149337142Y-109802857D01*
X149251428Y-109831428D01*
X149194285Y-109831428D01*
X149108571Y-109802857D01*
X149051428Y-109745714D01*
X149022857Y-109688571D01*
X148994285Y-109574285D01*
X148994285Y-109488571D01*
X149022857Y-109374285D01*
X149051428Y-109317142D01*
X149108571Y-109260000D01*
X149194285Y-109231428D01*
X149251428Y-109231428D01*
X149337142Y-109260000D01*
X149365714Y-109288571D01*
X149622857Y-109831428D02*
X149622857Y-109231428D01*
X149880000Y-109831428D02*
X149880000Y-109517142D01*
X149851428Y-109460000D01*
X149794285Y-109431428D01*
X149708571Y-109431428D01*
X149651428Y-109460000D01*
X149622857Y-109488571D01*
X150165714Y-109831428D02*
X150165714Y-109431428D01*
X150165714Y-109545714D02*
X150194285Y-109488571D01*
X150222857Y-109460000D01*
X150280000Y-109431428D01*
X150337142Y-109431428D01*
X150622857Y-109831428D02*
X150565714Y-109802857D01*
X150537142Y-109774285D01*
X150508571Y-109717142D01*
X150508571Y-109545714D01*
X150537142Y-109488571D01*
X150565714Y-109460000D01*
X150622857Y-109431428D01*
X150708571Y-109431428D01*
X150765714Y-109460000D01*
X150794285Y-109488571D01*
X150822857Y-109545714D01*
X150822857Y-109717142D01*
X150794285Y-109774285D01*
X150765714Y-109802857D01*
X150708571Y-109831428D01*
X150622857Y-109831428D01*
X151080000Y-109831428D02*
X151080000Y-109431428D01*
X151080000Y-109488571D02*
X151108571Y-109460000D01*
X151165714Y-109431428D01*
X151251428Y-109431428D01*
X151308571Y-109460000D01*
X151337142Y-109517142D01*
X151337142Y-109831428D01*
X151337142Y-109517142D02*
X151365714Y-109460000D01*
X151422857Y-109431428D01*
X151508571Y-109431428D01*
X151565714Y-109460000D01*
X151594285Y-109517142D01*
X151594285Y-109831428D01*
X152137142Y-109831428D02*
X152137142Y-109517142D01*
X152108571Y-109460000D01*
X152051428Y-109431428D01*
X151937142Y-109431428D01*
X151880000Y-109460000D01*
X152137142Y-109802857D02*
X152080000Y-109831428D01*
X151937142Y-109831428D01*
X151880000Y-109802857D01*
X151851428Y-109745714D01*
X151851428Y-109688571D01*
X151880000Y-109631428D01*
X151937142Y-109602857D01*
X152080000Y-109602857D01*
X152137142Y-109574285D01*
X148710000Y-107092857D02*
X149167142Y-107092857D01*
X148938571Y-107321428D02*
X148938571Y-106864285D01*
X149738571Y-106721428D02*
X149452857Y-106721428D01*
X149424285Y-107007142D01*
X149452857Y-106978571D01*
X149510000Y-106950000D01*
X149652857Y-106950000D01*
X149710000Y-106978571D01*
X149738571Y-107007142D01*
X149767142Y-107064285D01*
X149767142Y-107207142D01*
X149738571Y-107264285D01*
X149710000Y-107292857D01*
X149652857Y-107321428D01*
X149510000Y-107321428D01*
X149452857Y-107292857D01*
X149424285Y-107264285D01*
X150395714Y-106721428D02*
X150595714Y-107321428D01*
X150795714Y-106721428D01*
X151081428Y-107321428D02*
X151024285Y-107292857D01*
X150995714Y-107264285D01*
X150967142Y-107207142D01*
X150967142Y-107035714D01*
X150995714Y-106978571D01*
X151024285Y-106950000D01*
X151081428Y-106921428D01*
X151167142Y-106921428D01*
X151224285Y-106950000D01*
X151252857Y-106978571D01*
X151281428Y-107035714D01*
X151281428Y-107207142D01*
X151252857Y-107264285D01*
X151224285Y-107292857D01*
X151167142Y-107321428D01*
X151081428Y-107321428D01*
X151624285Y-107321428D02*
X151567142Y-107292857D01*
X151538571Y-107235714D01*
X151538571Y-106721428D01*
X151767142Y-106921428D02*
X151995714Y-106921428D01*
X151852857Y-106721428D02*
X151852857Y-107235714D01*
X151881428Y-107292857D01*
X151938571Y-107321428D01*
X151995714Y-107321428D01*
D12*
X150883333Y-113391904D02*
X150883333Y-112591904D01*
X151073809Y-112591904D01*
X151188095Y-112630000D01*
X151264285Y-112706190D01*
X151302380Y-112782380D01*
X151340476Y-112934761D01*
X151340476Y-113049047D01*
X151302380Y-113201428D01*
X151264285Y-113277619D01*
X151188095Y-113353809D01*
X151073809Y-113391904D01*
X150883333Y-113391904D01*
X151988095Y-113353809D02*
X151911904Y-113391904D01*
X151759523Y-113391904D01*
X151683333Y-113353809D01*
X151645238Y-113277619D01*
X151645238Y-112972857D01*
X151683333Y-112896666D01*
X151759523Y-112858571D01*
X151911904Y-112858571D01*
X151988095Y-112896666D01*
X152026190Y-112972857D01*
X152026190Y-113049047D01*
X151645238Y-113125238D01*
X152330952Y-113353809D02*
X152407142Y-113391904D01*
X152559523Y-113391904D01*
X152635714Y-113353809D01*
X152673809Y-113277619D01*
X152673809Y-113239523D01*
X152635714Y-113163333D01*
X152559523Y-113125238D01*
X152445238Y-113125238D01*
X152369047Y-113087142D01*
X152330952Y-113010952D01*
X152330952Y-112972857D01*
X152369047Y-112896666D01*
X152445238Y-112858571D01*
X152559523Y-112858571D01*
X152635714Y-112896666D01*
X153016666Y-113391904D02*
X153016666Y-112858571D01*
X153016666Y-112591904D02*
X152978571Y-112630000D01*
X153016666Y-112668095D01*
X153054761Y-112630000D01*
X153016666Y-112591904D01*
X153016666Y-112668095D01*
X153740476Y-112858571D02*
X153740476Y-113506190D01*
X153702380Y-113582380D01*
X153664285Y-113620476D01*
X153588095Y-113658571D01*
X153473809Y-113658571D01*
X153397619Y-113620476D01*
X153740476Y-113353809D02*
X153664285Y-113391904D01*
X153511904Y-113391904D01*
X153435714Y-113353809D01*
X153397619Y-113315714D01*
X153359523Y-113239523D01*
X153359523Y-113010952D01*
X153397619Y-112934761D01*
X153435714Y-112896666D01*
X153511904Y-112858571D01*
X153664285Y-112858571D01*
X153740476Y-112896666D01*
X154121428Y-112858571D02*
X154121428Y-113391904D01*
X154121428Y-112934761D02*
X154159523Y-112896666D01*
X154235714Y-112858571D01*
X154350000Y-112858571D01*
X154426190Y-112896666D01*
X154464285Y-112972857D01*
X154464285Y-113391904D01*
X155454761Y-113391904D02*
X155454761Y-112591904D01*
X155454761Y-112896666D02*
X155530952Y-112858571D01*
X155683333Y-112858571D01*
X155759523Y-112896666D01*
X155797619Y-112934761D01*
X155835714Y-113010952D01*
X155835714Y-113239523D01*
X155797619Y-113315714D01*
X155759523Y-113353809D01*
X155683333Y-113391904D01*
X155530952Y-113391904D01*
X155454761Y-113353809D01*
X156102380Y-112858571D02*
X156292857Y-113391904D01*
X156483333Y-112858571D02*
X156292857Y-113391904D01*
X156216666Y-113582380D01*
X156178571Y-113620476D01*
X156102380Y-113658571D01*
X157854761Y-113391904D02*
X157588095Y-113010952D01*
X157397619Y-113391904D02*
X157397619Y-112591904D01*
X157702380Y-112591904D01*
X157778571Y-112630000D01*
X157816666Y-112668095D01*
X157854761Y-112744285D01*
X157854761Y-112858571D01*
X157816666Y-112934761D01*
X157778571Y-112972857D01*
X157702380Y-113010952D01*
X157397619Y-113010952D01*
X158502380Y-113353809D02*
X158426190Y-113391904D01*
X158273809Y-113391904D01*
X158197619Y-113353809D01*
X158159523Y-113277619D01*
X158159523Y-112972857D01*
X158197619Y-112896666D01*
X158273809Y-112858571D01*
X158426190Y-112858571D01*
X158502380Y-112896666D01*
X158540476Y-112972857D01*
X158540476Y-113049047D01*
X158159523Y-113125238D01*
X158769047Y-112858571D02*
X159073809Y-112858571D01*
X158883333Y-112591904D02*
X158883333Y-113277619D01*
X158921428Y-113353809D01*
X158997619Y-113391904D01*
X159073809Y-113391904D01*
X159340476Y-113391904D02*
X159340476Y-112858571D01*
X159340476Y-113010952D02*
X159378571Y-112934761D01*
X159416666Y-112896666D01*
X159492857Y-112858571D01*
X159569047Y-112858571D01*
X159950000Y-113391904D02*
X159873809Y-113353809D01*
X159835714Y-113315714D01*
X159797619Y-113239523D01*
X159797619Y-113010952D01*
X159835714Y-112934761D01*
X159873809Y-112896666D01*
X159950000Y-112858571D01*
X160064285Y-112858571D01*
X160140476Y-112896666D01*
X160178571Y-112934761D01*
X160216666Y-113010952D01*
X160216666Y-113239523D01*
X160178571Y-113315714D01*
X160140476Y-113353809D01*
X160064285Y-113391904D01*
X159950000Y-113391904D01*
X160521428Y-113163333D02*
X160902380Y-113163333D01*
X160445238Y-113391904D02*
X160711904Y-112591904D01*
X160978571Y-113391904D01*
X161588095Y-113391904D02*
X161588095Y-112591904D01*
X161588095Y-113353809D02*
X161511904Y-113391904D01*
X161359523Y-113391904D01*
X161283333Y-113353809D01*
X161245238Y-113315714D01*
X161207142Y-113239523D01*
X161207142Y-113010952D01*
X161245238Y-112934761D01*
X161283333Y-112896666D01*
X161359523Y-112858571D01*
X161511904Y-112858571D01*
X161588095Y-112896666D01*
X161892857Y-112858571D02*
X162083333Y-113391904D01*
X162273809Y-112858571D01*
X162883333Y-113353809D02*
X162807142Y-113391904D01*
X162654761Y-113391904D01*
X162578571Y-113353809D01*
X162540476Y-113277619D01*
X162540476Y-112972857D01*
X162578571Y-112896666D01*
X162654761Y-112858571D01*
X162807142Y-112858571D01*
X162883333Y-112896666D01*
X162921428Y-112972857D01*
X162921428Y-113049047D01*
X162540476Y-113125238D01*
X163264285Y-112858571D02*
X163264285Y-113391904D01*
X163264285Y-112934761D02*
X163302380Y-112896666D01*
X163378571Y-112858571D01*
X163492857Y-112858571D01*
X163569047Y-112896666D01*
X163607142Y-112972857D01*
X163607142Y-113391904D01*
X163873809Y-112858571D02*
X164178571Y-112858571D01*
X163988095Y-112591904D02*
X163988095Y-113277619D01*
X164026190Y-113353809D01*
X164102380Y-113391904D01*
X164178571Y-113391904D01*
X164788095Y-112858571D02*
X164788095Y-113391904D01*
X164445238Y-112858571D02*
X164445238Y-113277619D01*
X164483333Y-113353809D01*
X164559523Y-113391904D01*
X164673809Y-113391904D01*
X164750000Y-113353809D01*
X164788095Y-113315714D01*
X165169047Y-113391904D02*
X165169047Y-112858571D01*
X165169047Y-113010952D02*
X165207142Y-112934761D01*
X165245238Y-112896666D01*
X165321428Y-112858571D01*
X165397619Y-112858571D01*
X165969047Y-113353809D02*
X165892857Y-113391904D01*
X165740476Y-113391904D01*
X165664285Y-113353809D01*
X165626190Y-113277619D01*
X165626190Y-112972857D01*
X165664285Y-112896666D01*
X165740476Y-112858571D01*
X165892857Y-112858571D01*
X165969047Y-112896666D01*
X166007142Y-112972857D01*
X166007142Y-113049047D01*
X165626190Y-113125238D01*
X166311904Y-113353809D02*
X166388095Y-113391904D01*
X166540476Y-113391904D01*
X166616666Y-113353809D01*
X166654761Y-113277619D01*
X166654761Y-113239523D01*
X166616666Y-113163333D01*
X166540476Y-113125238D01*
X166426190Y-113125238D01*
X166350000Y-113087142D01*
X166311904Y-113010952D01*
X166311904Y-112972857D01*
X166350000Y-112896666D01*
X166426190Y-112858571D01*
X166540476Y-112858571D01*
X166616666Y-112896666D01*
D11*
X163657142Y-98096666D02*
X163704761Y-98144285D01*
X163752380Y-98287142D01*
X163752380Y-98382380D01*
X163704761Y-98525238D01*
X163609523Y-98620476D01*
X163514285Y-98668095D01*
X163323809Y-98715714D01*
X163180952Y-98715714D01*
X162990476Y-98668095D01*
X162895238Y-98620476D01*
X162800000Y-98525238D01*
X162752380Y-98382380D01*
X162752380Y-98287142D01*
X162800000Y-98144285D01*
X162847619Y-98096666D01*
X162752380Y-97763333D02*
X162752380Y-97144285D01*
X163133333Y-97477619D01*
X163133333Y-97334761D01*
X163180952Y-97239523D01*
X163228571Y-97191904D01*
X163323809Y-97144285D01*
X163561904Y-97144285D01*
X163657142Y-97191904D01*
X163704761Y-97239523D01*
X163752380Y-97334761D01*
X163752380Y-97620476D01*
X163704761Y-97715714D01*
X163657142Y-97763333D01*
X173297142Y-95117142D02*
X173249523Y-95164761D01*
X173106666Y-95212380D01*
X173011428Y-95212380D01*
X172868571Y-95164761D01*
X172773333Y-95069523D01*
X172725714Y-94974285D01*
X172678095Y-94783809D01*
X172678095Y-94640952D01*
X172725714Y-94450476D01*
X172773333Y-94355238D01*
X172868571Y-94260000D01*
X173011428Y-94212380D01*
X173106666Y-94212380D01*
X173249523Y-94260000D01*
X173297142Y-94307619D01*
X174154285Y-94212380D02*
X173963809Y-94212380D01*
X173868571Y-94260000D01*
X173820952Y-94307619D01*
X173725714Y-94450476D01*
X173678095Y-94640952D01*
X173678095Y-95021904D01*
X173725714Y-95117142D01*
X173773333Y-95164761D01*
X173868571Y-95212380D01*
X174059047Y-95212380D01*
X174154285Y-95164761D01*
X174201904Y-95117142D01*
X174249523Y-95021904D01*
X174249523Y-94783809D01*
X174201904Y-94688571D01*
X174154285Y-94640952D01*
X174059047Y-94593333D01*
X173868571Y-94593333D01*
X173773333Y-94640952D01*
X173725714Y-94688571D01*
X173678095Y-94783809D01*
X175154285Y-94212380D02*
X174678095Y-94212380D01*
X174630476Y-94688571D01*
X174678095Y-94640952D01*
X174773333Y-94593333D01*
X175011428Y-94593333D01*
X175106666Y-94640952D01*
X175154285Y-94688571D01*
X175201904Y-94783809D01*
X175201904Y-95021904D01*
X175154285Y-95117142D01*
X175106666Y-95164761D01*
X175011428Y-95212380D01*
X174773333Y-95212380D01*
X174678095Y-95164761D01*
X174630476Y-95117142D01*
D13*
X143946666Y-85664523D02*
X143946666Y-86571666D01*
X143886190Y-86753095D01*
X143765238Y-86874047D01*
X143583809Y-86934523D01*
X143462857Y-86934523D01*
X145216666Y-86934523D02*
X144490952Y-86934523D01*
X144853809Y-86934523D02*
X144853809Y-85664523D01*
X144732857Y-85845952D01*
X144611904Y-85966904D01*
X144490952Y-86027380D01*
D11*
X168982380Y-109593666D02*
X168506190Y-109927000D01*
X168982380Y-110165095D02*
X167982380Y-110165095D01*
X167982380Y-109784142D01*
X168030000Y-109688904D01*
X168077619Y-109641285D01*
X168172857Y-109593666D01*
X168315714Y-109593666D01*
X168410952Y-109641285D01*
X168458571Y-109688904D01*
X168506190Y-109784142D01*
X168506190Y-110165095D01*
X168077619Y-109212714D02*
X168030000Y-109165095D01*
X167982380Y-109069857D01*
X167982380Y-108831761D01*
X168030000Y-108736523D01*
X168077619Y-108688904D01*
X168172857Y-108641285D01*
X168268095Y-108641285D01*
X168410952Y-108688904D01*
X168982380Y-109260333D01*
X168982380Y-108641285D01*
X158512380Y-90023666D02*
X158036190Y-90357000D01*
X158512380Y-90595095D02*
X157512380Y-90595095D01*
X157512380Y-90214142D01*
X157560000Y-90118904D01*
X157607619Y-90071285D01*
X157702857Y-90023666D01*
X157845714Y-90023666D01*
X157940952Y-90071285D01*
X157988571Y-90118904D01*
X158036190Y-90214142D01*
X158036190Y-90595095D01*
X157845714Y-89166523D02*
X158512380Y-89166523D01*
X157464761Y-89404619D02*
X158179047Y-89642714D01*
X158179047Y-89023666D01*
X162261380Y-90023666D02*
X161785190Y-90357000D01*
X162261380Y-90595095D02*
X161261380Y-90595095D01*
X161261380Y-90214142D01*
X161309000Y-90118904D01*
X161356619Y-90071285D01*
X161451857Y-90023666D01*
X161594714Y-90023666D01*
X161689952Y-90071285D01*
X161737571Y-90118904D01*
X161785190Y-90214142D01*
X161785190Y-90595095D01*
X161261380Y-89118904D02*
X161261380Y-89595095D01*
X161737571Y-89642714D01*
X161689952Y-89595095D01*
X161642333Y-89499857D01*
X161642333Y-89261761D01*
X161689952Y-89166523D01*
X161737571Y-89118904D01*
X161832809Y-89071285D01*
X162070904Y-89071285D01*
X162166142Y-89118904D01*
X162213761Y-89166523D01*
X162261380Y-89261761D01*
X162261380Y-89499857D01*
X162213761Y-89595095D01*
X162166142Y-89642714D01*
X154952380Y-98551904D02*
X155761904Y-98551904D01*
X155857142Y-98504285D01*
X155904761Y-98456666D01*
X155952380Y-98361428D01*
X155952380Y-98170952D01*
X155904761Y-98075714D01*
X155857142Y-98028095D01*
X155761904Y-97980476D01*
X154952380Y-97980476D01*
X155952380Y-96980476D02*
X155952380Y-97551904D01*
X155952380Y-97266190D02*
X154952380Y-97266190D01*
X155095238Y-97361428D01*
X155190476Y-97456666D01*
X155238095Y-97551904D01*
X156497142Y-105956666D02*
X156544761Y-106004285D01*
X156592380Y-106147142D01*
X156592380Y-106242380D01*
X156544761Y-106385238D01*
X156449523Y-106480476D01*
X156354285Y-106528095D01*
X156163809Y-106575714D01*
X156020952Y-106575714D01*
X155830476Y-106528095D01*
X155735238Y-106480476D01*
X155640000Y-106385238D01*
X155592380Y-106242380D01*
X155592380Y-106147142D01*
X155640000Y-106004285D01*
X155687619Y-105956666D01*
X156592380Y-105004285D02*
X156592380Y-105575714D01*
X156592380Y-105290000D02*
X155592380Y-105290000D01*
X155735238Y-105385238D01*
X155830476Y-105480476D01*
X155878095Y-105575714D01*
X162457142Y-106046666D02*
X162504761Y-106094285D01*
X162552380Y-106237142D01*
X162552380Y-106332380D01*
X162504761Y-106475238D01*
X162409523Y-106570476D01*
X162314285Y-106618095D01*
X162123809Y-106665714D01*
X161980952Y-106665714D01*
X161790476Y-106618095D01*
X161695238Y-106570476D01*
X161600000Y-106475238D01*
X161552380Y-106332380D01*
X161552380Y-106237142D01*
X161600000Y-106094285D01*
X161647619Y-106046666D01*
X161647619Y-105665714D02*
X161600000Y-105618095D01*
X161552380Y-105522857D01*
X161552380Y-105284761D01*
X161600000Y-105189523D01*
X161647619Y-105141904D01*
X161742857Y-105094285D01*
X161838095Y-105094285D01*
X161980952Y-105141904D01*
X162552380Y-105713333D01*
X162552380Y-105094285D01*
X158783333Y-109882380D02*
X158450000Y-109406190D01*
X158211904Y-109882380D02*
X158211904Y-108882380D01*
X158592857Y-108882380D01*
X158688095Y-108930000D01*
X158735714Y-108977619D01*
X158783333Y-109072857D01*
X158783333Y-109215714D01*
X158735714Y-109310952D01*
X158688095Y-109358571D01*
X158592857Y-109406190D01*
X158211904Y-109406190D01*
X159735714Y-109882380D02*
X159164285Y-109882380D01*
X159450000Y-109882380D02*
X159450000Y-108882380D01*
X159354761Y-109025238D01*
X159259523Y-109120476D01*
X159164285Y-109168095D01*
X170174761Y-96627619D02*
X170079523Y-96580000D01*
X169984285Y-96484761D01*
X169841428Y-96341904D01*
X169746190Y-96294285D01*
X169650952Y-96294285D01*
X169698571Y-96532380D02*
X169603333Y-96484761D01*
X169508095Y-96389523D01*
X169460476Y-96199047D01*
X169460476Y-95865714D01*
X169508095Y-95675238D01*
X169603333Y-95580000D01*
X169698571Y-95532380D01*
X169889047Y-95532380D01*
X169984285Y-95580000D01*
X170079523Y-95675238D01*
X170127142Y-95865714D01*
X170127142Y-96199047D01*
X170079523Y-96389523D01*
X169984285Y-96484761D01*
X169889047Y-96532380D01*
X169698571Y-96532380D01*
X171079523Y-96532380D02*
X170508095Y-96532380D01*
X170793809Y-96532380D02*
X170793809Y-95532380D01*
X170698571Y-95675238D01*
X170603333Y-95770476D01*
X170508095Y-95818095D01*
X176219380Y-109593666D02*
X175743190Y-109927000D01*
X176219380Y-110165095D02*
X175219380Y-110165095D01*
X175219380Y-109784142D01*
X175267000Y-109688904D01*
X175314619Y-109641285D01*
X175409857Y-109593666D01*
X175552714Y-109593666D01*
X175647952Y-109641285D01*
X175695571Y-109688904D01*
X175743190Y-109784142D01*
X175743190Y-110165095D01*
X175219380Y-109260333D02*
X175219380Y-108641285D01*
X175600333Y-108974619D01*
X175600333Y-108831761D01*
X175647952Y-108736523D01*
X175695571Y-108688904D01*
X175790809Y-108641285D01*
X176028904Y-108641285D01*
X176124142Y-108688904D01*
X176171761Y-108736523D01*
X176219380Y-108831761D01*
X176219380Y-109117476D01*
X176171761Y-109212714D01*
X176124142Y-109260333D01*
X142412380Y-107363333D02*
X143126666Y-107363333D01*
X143269523Y-107410952D01*
X143364761Y-107506190D01*
X143412380Y-107649047D01*
X143412380Y-107744285D01*
X142507619Y-106934761D02*
X142460000Y-106887142D01*
X142412380Y-106791904D01*
X142412380Y-106553809D01*
X142460000Y-106458571D01*
X142507619Y-106410952D01*
X142602857Y-106363333D01*
X142698095Y-106363333D01*
X142840952Y-106410952D01*
X143412380Y-106982380D01*
X143412380Y-106363333D01*
D14*
X165715000Y-98191252D02*
X165715000Y-97668748D01*
X164245000Y-98191252D02*
X164245000Y-97668748D01*
X169552500Y-88322500D02*
X170340000Y-88322500D01*
X170580000Y-87824437D02*
X170580000Y-89110000D01*
X170580000Y-92515563D02*
X171644437Y-93580000D01*
X170580000Y-87824437D02*
X171644437Y-86760000D01*
X177400000Y-86760000D02*
X177400000Y-89110000D01*
X170580000Y-92515563D02*
X170580000Y-91230000D01*
X171644437Y-93580000D02*
X177400000Y-93580000D01*
X177400000Y-93580000D02*
X177400000Y-91230000D01*
X169946250Y-87928750D02*
X169946250Y-88716250D01*
X171644437Y-86760000D02*
X177400000Y-86760000D01*
D12*
X136770000Y-93980000D02*
X136770000Y-93980000D01*
X136970000Y-93980000D02*
X136970000Y-93980000D01*
D15*
X151370000Y-84680000D02*
X151370000Y-88680000D01*
X137370000Y-97580000D02*
X151370000Y-97580000D01*
X137370000Y-88680000D02*
X137370000Y-84680000D01*
X137370000Y-84680000D02*
X151370000Y-84680000D01*
X137370000Y-93180000D02*
X137370000Y-97580000D01*
X151370000Y-97580000D02*
X151370000Y-93180000D01*
D12*
X136770000Y-93980000D02*
G75*
G03*
X136970000Y-93980000I100000J0D01*
G01*
X136970000Y-93980000D02*
G75*
G03*
X136770000Y-93980000I-100000J0D01*
G01*
D14*
X169445000Y-109654064D02*
X169445000Y-109199936D01*
X170915000Y-109654064D02*
X170915000Y-109199936D01*
X158975000Y-90084064D02*
X158975000Y-89629936D01*
X160445000Y-90084064D02*
X160445000Y-89629936D01*
X162724000Y-90084064D02*
X162724000Y-89629936D01*
X164194000Y-90084064D02*
X164194000Y-89629936D01*
X161460000Y-97790000D02*
X161460000Y-99740000D01*
X156340000Y-97790000D02*
X156340000Y-95840000D01*
X161460000Y-97790000D02*
X161460000Y-95840000D01*
X156340000Y-97790000D02*
X156340000Y-101240000D01*
X157145000Y-105618748D02*
X157145000Y-106141252D01*
X158615000Y-105618748D02*
X158615000Y-106141252D01*
X161155000Y-105618748D02*
X161155000Y-106141252D01*
X159685000Y-105618748D02*
X159685000Y-106141252D01*
X159220064Y-110513000D02*
X158765936Y-110513000D01*
X159220064Y-111983000D02*
X158765936Y-111983000D01*
X172165000Y-97070000D02*
X169430000Y-97070000D01*
X172165000Y-98730000D02*
X172165000Y-99390000D01*
X172165000Y-97060000D02*
X172165000Y-97730000D01*
X170755000Y-99390000D02*
X172165000Y-99390000D01*
X173382000Y-109199936D02*
X173382000Y-109654064D01*
X174852000Y-109199936D02*
X174852000Y-109654064D01*
X144550000Y-102420000D02*
X145760000Y-102420000D01*
X146570000Y-102920000D02*
X148070000Y-102920000D01*
X148070000Y-112140000D02*
X148070000Y-101920000D01*
X146570000Y-112140000D02*
X146570000Y-111140000D01*
X148070000Y-101920000D02*
X144050000Y-101920000D01*
X148370000Y-112440000D02*
X148370000Y-109940000D01*
X146570000Y-101920000D02*
X146570000Y-102920000D01*
X144050000Y-112140000D02*
X148070000Y-112140000D01*
X146570000Y-111140000D02*
X148070000Y-111140000D01*
X145760000Y-112140000D02*
X145760000Y-111640000D01*
X145760000Y-111640000D02*
X144550000Y-111640000D01*
X144050000Y-101920000D02*
X144050000Y-112140000D01*
X145870000Y-112440000D02*
X148370000Y-112440000D01*
X144550000Y-111640000D02*
X144550000Y-102420000D01*
X145760000Y-102420000D02*
X145760000Y-101920000D01*
D16*
X140970000Y-93980000D03*
X147770000Y-93980000D03*
X140970000Y-96480000D03*
X147770000Y-96480000D03*
D17*
X137620000Y-90980000D03*
X144370000Y-90180000D03*
X151120000Y-90980000D03*
M02*
