G04 #@! TF.GenerationSoftware,KiCad,Pcbnew,(6.0.10)*
G04 #@! TF.CreationDate,2023-01-19T02:18:08+01:00*
G04 #@! TF.ProjectId,S-VHS ZX Spectrum Rev. D,532d5648-5320-45a5-9820-537065637472,rev?*
G04 #@! TF.SameCoordinates,Original*
G04 #@! TF.FileFunction,Legend,Bot*
G04 #@! TF.FilePolarity,Positive*
%FSLAX46Y46*%
G04 Gerber Fmt 4.6, Leading zero omitted, Abs format (unit mm)*
G04 Created by KiCad (PCBNEW (6.0.10)) date 2023-01-19 02:18:08*
%MOMM*%
%LPD*%
G01*
G04 APERTURE LIST*
G04 #@! TA.AperFunction,Profile*
%ADD10C,0.050000*%
G04 #@! TD*
%ADD11C,0.200000*%
%ADD12C,0.010000*%
G04 APERTURE END LIST*
D10*
X135763000Y-105283000D02*
X136652000Y-114046000D01*
X179578000Y-85217000D02*
X179578000Y-114046000D01*
X135763000Y-83820000D02*
X135763000Y-105283000D01*
X179578000Y-85217000D02*
X153289000Y-85217000D01*
X153289000Y-83820000D02*
X135763000Y-83820000D01*
X179578000Y-114046000D02*
X136652000Y-114046000D01*
X153289000Y-85217000D02*
X153289000Y-83820000D01*
D11*
X177671190Y-109670904D02*
X177137857Y-109670904D01*
X177671190Y-110470904D01*
X177137857Y-110470904D01*
X176909285Y-109670904D02*
X176375952Y-110470904D01*
X176375952Y-109670904D02*
X176909285Y-110470904D01*
X175499761Y-110432809D02*
X175385476Y-110470904D01*
X175195000Y-110470904D01*
X175118809Y-110432809D01*
X175080714Y-110394714D01*
X175042619Y-110318523D01*
X175042619Y-110242333D01*
X175080714Y-110166142D01*
X175118809Y-110128047D01*
X175195000Y-110089952D01*
X175347380Y-110051857D01*
X175423571Y-110013761D01*
X175461666Y-109975666D01*
X175499761Y-109899476D01*
X175499761Y-109823285D01*
X175461666Y-109747095D01*
X175423571Y-109709000D01*
X175347380Y-109670904D01*
X175156904Y-109670904D01*
X175042619Y-109709000D01*
X174699761Y-109937571D02*
X174699761Y-110737571D01*
X174699761Y-109975666D02*
X174623571Y-109937571D01*
X174471190Y-109937571D01*
X174395000Y-109975666D01*
X174356904Y-110013761D01*
X174318809Y-110089952D01*
X174318809Y-110318523D01*
X174356904Y-110394714D01*
X174395000Y-110432809D01*
X174471190Y-110470904D01*
X174623571Y-110470904D01*
X174699761Y-110432809D01*
X173671190Y-110432809D02*
X173747380Y-110470904D01*
X173899761Y-110470904D01*
X173975952Y-110432809D01*
X174014047Y-110356619D01*
X174014047Y-110051857D01*
X173975952Y-109975666D01*
X173899761Y-109937571D01*
X173747380Y-109937571D01*
X173671190Y-109975666D01*
X173633095Y-110051857D01*
X173633095Y-110128047D01*
X174014047Y-110204238D01*
X172947380Y-110432809D02*
X173023571Y-110470904D01*
X173175952Y-110470904D01*
X173252142Y-110432809D01*
X173290238Y-110394714D01*
X173328333Y-110318523D01*
X173328333Y-110089952D01*
X173290238Y-110013761D01*
X173252142Y-109975666D01*
X173175952Y-109937571D01*
X173023571Y-109937571D01*
X172947380Y-109975666D01*
X172718809Y-109937571D02*
X172414047Y-109937571D01*
X172604523Y-109670904D02*
X172604523Y-110356619D01*
X172566428Y-110432809D01*
X172490238Y-110470904D01*
X172414047Y-110470904D01*
X172147380Y-110470904D02*
X172147380Y-109937571D01*
X172147380Y-110089952D02*
X172109285Y-110013761D01*
X172071190Y-109975666D01*
X171995000Y-109937571D01*
X171918809Y-109937571D01*
X171309285Y-109937571D02*
X171309285Y-110470904D01*
X171652142Y-109937571D02*
X171652142Y-110356619D01*
X171614047Y-110432809D01*
X171537857Y-110470904D01*
X171423571Y-110470904D01*
X171347380Y-110432809D01*
X171309285Y-110394714D01*
X170928333Y-110470904D02*
X170928333Y-109937571D01*
X170928333Y-110013761D02*
X170890238Y-109975666D01*
X170814047Y-109937571D01*
X170699761Y-109937571D01*
X170623571Y-109975666D01*
X170585476Y-110051857D01*
X170585476Y-110470904D01*
X170585476Y-110051857D02*
X170547380Y-109975666D01*
X170471190Y-109937571D01*
X170356904Y-109937571D01*
X170280714Y-109975666D01*
X170242619Y-110051857D01*
X170242619Y-110470904D01*
X169290238Y-110432809D02*
X169175952Y-110470904D01*
X168985476Y-110470904D01*
X168909285Y-110432809D01*
X168871190Y-110394714D01*
X168833095Y-110318523D01*
X168833095Y-110242333D01*
X168871190Y-110166142D01*
X168909285Y-110128047D01*
X168985476Y-110089952D01*
X169137857Y-110051857D01*
X169214047Y-110013761D01*
X169252142Y-109975666D01*
X169290238Y-109899476D01*
X169290238Y-109823285D01*
X169252142Y-109747095D01*
X169214047Y-109709000D01*
X169137857Y-109670904D01*
X168947380Y-109670904D01*
X168833095Y-109709000D01*
X168490238Y-110166142D02*
X167880714Y-110166142D01*
X167614047Y-109670904D02*
X167347380Y-110470904D01*
X167080714Y-109670904D01*
X166814047Y-110470904D02*
X166814047Y-109937571D01*
X166814047Y-109670904D02*
X166852142Y-109709000D01*
X166814047Y-109747095D01*
X166775952Y-109709000D01*
X166814047Y-109670904D01*
X166814047Y-109747095D01*
X166090238Y-110470904D02*
X166090238Y-109670904D01*
X166090238Y-110432809D02*
X166166428Y-110470904D01*
X166318809Y-110470904D01*
X166395000Y-110432809D01*
X166433095Y-110394714D01*
X166471190Y-110318523D01*
X166471190Y-110089952D01*
X166433095Y-110013761D01*
X166395000Y-109975666D01*
X166318809Y-109937571D01*
X166166428Y-109937571D01*
X166090238Y-109975666D01*
X165404523Y-110432809D02*
X165480714Y-110470904D01*
X165633095Y-110470904D01*
X165709285Y-110432809D01*
X165747380Y-110356619D01*
X165747380Y-110051857D01*
X165709285Y-109975666D01*
X165633095Y-109937571D01*
X165480714Y-109937571D01*
X165404523Y-109975666D01*
X165366428Y-110051857D01*
X165366428Y-110128047D01*
X165747380Y-110204238D01*
X164909285Y-110470904D02*
X164985476Y-110432809D01*
X165023571Y-110394714D01*
X165061666Y-110318523D01*
X165061666Y-110089952D01*
X165023571Y-110013761D01*
X164985476Y-109975666D01*
X164909285Y-109937571D01*
X164795000Y-109937571D01*
X164718809Y-109975666D01*
X164680714Y-110013761D01*
X164642619Y-110089952D01*
X164642619Y-110318523D01*
X164680714Y-110394714D01*
X164718809Y-110432809D01*
X164795000Y-110470904D01*
X164909285Y-110470904D01*
X163690238Y-110470904D02*
X163690238Y-109670904D01*
X163423571Y-110242333D01*
X163156904Y-109670904D01*
X163156904Y-110470904D01*
X162661666Y-110470904D02*
X162737857Y-110432809D01*
X162775952Y-110394714D01*
X162814047Y-110318523D01*
X162814047Y-110089952D01*
X162775952Y-110013761D01*
X162737857Y-109975666D01*
X162661666Y-109937571D01*
X162547380Y-109937571D01*
X162471190Y-109975666D01*
X162433095Y-110013761D01*
X162395000Y-110089952D01*
X162395000Y-110318523D01*
X162433095Y-110394714D01*
X162471190Y-110432809D01*
X162547380Y-110470904D01*
X162661666Y-110470904D01*
X161709285Y-110470904D02*
X161709285Y-109670904D01*
X161709285Y-110432809D02*
X161785476Y-110470904D01*
X161937857Y-110470904D01*
X162014047Y-110432809D01*
X162052142Y-110394714D01*
X162090238Y-110318523D01*
X162090238Y-110089952D01*
X162052142Y-110013761D01*
X162014047Y-109975666D01*
X161937857Y-109937571D01*
X161785476Y-109937571D01*
X161709285Y-109975666D01*
X161328333Y-110470904D02*
X161328333Y-109937571D01*
X161328333Y-109670904D02*
X161366428Y-109709000D01*
X161328333Y-109747095D01*
X161290238Y-109709000D01*
X161328333Y-109670904D01*
X161328333Y-109747095D01*
X161061666Y-109937571D02*
X160756904Y-109937571D01*
X160947380Y-110470904D02*
X160947380Y-109785190D01*
X160909285Y-109709000D01*
X160833095Y-109670904D01*
X160756904Y-109670904D01*
X160490238Y-110470904D02*
X160490238Y-109937571D01*
X160490238Y-109670904D02*
X160528333Y-109709000D01*
X160490238Y-109747095D01*
X160452142Y-109709000D01*
X160490238Y-109670904D01*
X160490238Y-109747095D01*
X159766428Y-110432809D02*
X159842619Y-110470904D01*
X159995000Y-110470904D01*
X160071190Y-110432809D01*
X160109285Y-110394714D01*
X160147380Y-110318523D01*
X160147380Y-110089952D01*
X160109285Y-110013761D01*
X160071190Y-109975666D01*
X159995000Y-109937571D01*
X159842619Y-109937571D01*
X159766428Y-109975666D01*
X159080714Y-110470904D02*
X159080714Y-110051857D01*
X159118809Y-109975666D01*
X159195000Y-109937571D01*
X159347380Y-109937571D01*
X159423571Y-109975666D01*
X159080714Y-110432809D02*
X159156904Y-110470904D01*
X159347380Y-110470904D01*
X159423571Y-110432809D01*
X159461666Y-110356619D01*
X159461666Y-110280428D01*
X159423571Y-110204238D01*
X159347380Y-110166142D01*
X159156904Y-110166142D01*
X159080714Y-110128047D01*
X158814047Y-109937571D02*
X158509285Y-109937571D01*
X158699761Y-109670904D02*
X158699761Y-110356619D01*
X158661666Y-110432809D01*
X158585476Y-110470904D01*
X158509285Y-110470904D01*
X158242619Y-110470904D02*
X158242619Y-109937571D01*
X158242619Y-109670904D02*
X158280714Y-109709000D01*
X158242619Y-109747095D01*
X158204523Y-109709000D01*
X158242619Y-109670904D01*
X158242619Y-109747095D01*
X157747380Y-110470904D02*
X157823571Y-110432809D01*
X157861666Y-110394714D01*
X157899761Y-110318523D01*
X157899761Y-110089952D01*
X157861666Y-110013761D01*
X157823571Y-109975666D01*
X157747380Y-109937571D01*
X157633095Y-109937571D01*
X157556904Y-109975666D01*
X157518809Y-110013761D01*
X157480714Y-110089952D01*
X157480714Y-110318523D01*
X157518809Y-110394714D01*
X157556904Y-110432809D01*
X157633095Y-110470904D01*
X157747380Y-110470904D01*
X157137857Y-109937571D02*
X157137857Y-110470904D01*
X157137857Y-110013761D02*
X157099761Y-109975666D01*
X157023571Y-109937571D01*
X156909285Y-109937571D01*
X156833095Y-109975666D01*
X156795000Y-110051857D01*
X156795000Y-110470904D01*
X155804523Y-110166142D02*
X155195000Y-110166142D01*
X153747380Y-110470904D02*
X154014047Y-110089952D01*
X154204523Y-110470904D02*
X154204523Y-109670904D01*
X153899761Y-109670904D01*
X153823571Y-109709000D01*
X153785476Y-109747095D01*
X153747380Y-109823285D01*
X153747380Y-109937571D01*
X153785476Y-110013761D01*
X153823571Y-110051857D01*
X153899761Y-110089952D01*
X154204523Y-110089952D01*
X153099761Y-110432809D02*
X153175952Y-110470904D01*
X153328333Y-110470904D01*
X153404523Y-110432809D01*
X153442619Y-110356619D01*
X153442619Y-110051857D01*
X153404523Y-109975666D01*
X153328333Y-109937571D01*
X153175952Y-109937571D01*
X153099761Y-109975666D01*
X153061666Y-110051857D01*
X153061666Y-110128047D01*
X153442619Y-110204238D01*
X152795000Y-109937571D02*
X152604523Y-110470904D01*
X152414047Y-109937571D01*
X152109285Y-110394714D02*
X152071190Y-110432809D01*
X152109285Y-110470904D01*
X152147380Y-110432809D01*
X152109285Y-110394714D01*
X152109285Y-110470904D01*
X151118809Y-110470904D02*
X151118809Y-109670904D01*
X150928333Y-109670904D01*
X150814047Y-109709000D01*
X150737857Y-109785190D01*
X150699761Y-109861380D01*
X150661666Y-110013761D01*
X150661666Y-110128047D01*
X150699761Y-110280428D01*
X150737857Y-110356619D01*
X150814047Y-110432809D01*
X150928333Y-110470904D01*
X151118809Y-110470904D01*
X150166428Y-109670904D02*
X150090238Y-109670904D01*
X150014047Y-109709000D01*
X149975952Y-109747095D01*
X149937857Y-109823285D01*
X149899761Y-109975666D01*
X149899761Y-110166142D01*
X149937857Y-110318523D01*
X149975952Y-110394714D01*
X150014047Y-110432809D01*
X150090238Y-110470904D01*
X150166428Y-110470904D01*
X150242619Y-110432809D01*
X150280714Y-110394714D01*
X150318809Y-110318523D01*
X150356904Y-110166142D01*
X150356904Y-109975666D01*
X150318809Y-109823285D01*
X150280714Y-109747095D01*
X150242619Y-109709000D01*
X150166428Y-109670904D01*
X149556904Y-110394714D02*
X149518809Y-110432809D01*
X149556904Y-110470904D01*
X149595000Y-110432809D01*
X149556904Y-110394714D01*
X149556904Y-110470904D01*
X148756904Y-110470904D02*
X149214047Y-110470904D01*
X148985476Y-110470904D02*
X148985476Y-109670904D01*
X149061666Y-109785190D01*
X149137857Y-109861380D01*
X149214047Y-109899476D01*
G36*
X163238543Y-102079444D02*
G01*
X163285714Y-102099342D01*
X163285714Y-102496509D01*
X163285519Y-102599498D01*
X163284998Y-102692141D01*
X163284199Y-102770700D01*
X163283172Y-102831439D01*
X163281963Y-102870623D01*
X163280623Y-102884514D01*
X163280099Y-102884468D01*
X163262287Y-102879420D01*
X163229823Y-102868580D01*
X163184114Y-102852646D01*
X163184114Y-102648173D01*
X163183824Y-102567832D01*
X163182474Y-102509562D01*
X163179369Y-102469909D01*
X163173812Y-102443618D01*
X163165107Y-102425436D01*
X163152556Y-102410107D01*
X163143999Y-102401955D01*
X163097728Y-102379375D01*
X163046728Y-102381375D01*
X162999993Y-102408073D01*
X162993189Y-102414698D01*
X162982293Y-102428456D01*
X162974836Y-102446642D01*
X162970169Y-102474177D01*
X162967642Y-102515981D01*
X162966602Y-102576973D01*
X162966400Y-102662073D01*
X162966303Y-102705234D01*
X162965674Y-102776224D01*
X162964556Y-102833076D01*
X162963063Y-102870828D01*
X162961309Y-102884514D01*
X162960785Y-102884468D01*
X162942973Y-102879420D01*
X162910509Y-102868580D01*
X162864800Y-102852646D01*
X162864823Y-102647237D01*
X162864857Y-102628951D01*
X162866778Y-102533626D01*
X162872678Y-102461543D01*
X162884001Y-102407813D01*
X162902187Y-102367549D01*
X162928679Y-102335861D01*
X162964918Y-102307861D01*
X163000263Y-102290333D01*
X163056773Y-102276785D01*
X163112356Y-102276015D01*
X163155086Y-102289195D01*
X163158298Y-102291015D01*
X163168205Y-102290820D01*
X163174975Y-102275572D01*
X163179861Y-102240613D01*
X163184114Y-102181289D01*
X163191371Y-102059547D01*
X163238543Y-102079444D01*
G37*
D12*
X163238543Y-102079444D02*
X163285714Y-102099342D01*
X163285714Y-102496509D01*
X163285519Y-102599498D01*
X163284998Y-102692141D01*
X163284199Y-102770700D01*
X163283172Y-102831439D01*
X163281963Y-102870623D01*
X163280623Y-102884514D01*
X163280099Y-102884468D01*
X163262287Y-102879420D01*
X163229823Y-102868580D01*
X163184114Y-102852646D01*
X163184114Y-102648173D01*
X163183824Y-102567832D01*
X163182474Y-102509562D01*
X163179369Y-102469909D01*
X163173812Y-102443618D01*
X163165107Y-102425436D01*
X163152556Y-102410107D01*
X163143999Y-102401955D01*
X163097728Y-102379375D01*
X163046728Y-102381375D01*
X162999993Y-102408073D01*
X162993189Y-102414698D01*
X162982293Y-102428456D01*
X162974836Y-102446642D01*
X162970169Y-102474177D01*
X162967642Y-102515981D01*
X162966602Y-102576973D01*
X162966400Y-102662073D01*
X162966303Y-102705234D01*
X162965674Y-102776224D01*
X162964556Y-102833076D01*
X162963063Y-102870828D01*
X162961309Y-102884514D01*
X162960785Y-102884468D01*
X162942973Y-102879420D01*
X162910509Y-102868580D01*
X162864800Y-102852646D01*
X162864823Y-102647237D01*
X162864857Y-102628951D01*
X162866778Y-102533626D01*
X162872678Y-102461543D01*
X162884001Y-102407813D01*
X162902187Y-102367549D01*
X162928679Y-102335861D01*
X162964918Y-102307861D01*
X163000263Y-102290333D01*
X163056773Y-102276785D01*
X163112356Y-102276015D01*
X163155086Y-102289195D01*
X163158298Y-102291015D01*
X163168205Y-102290820D01*
X163174975Y-102275572D01*
X163179861Y-102240613D01*
X163184114Y-102181289D01*
X163191371Y-102059547D01*
X163238543Y-102079444D01*
G36*
X162167691Y-102296467D02*
G01*
X162172273Y-102299003D01*
X162209704Y-102328057D01*
X162243170Y-102365410D01*
X162249007Y-102373852D01*
X162260165Y-102393553D01*
X162268136Y-102416935D01*
X162273618Y-102449067D01*
X162277307Y-102495019D01*
X162279899Y-102559859D01*
X162282092Y-102648657D01*
X162282402Y-102663669D01*
X162283400Y-102760999D01*
X162281994Y-102829934D01*
X162278164Y-102870948D01*
X162271889Y-102884514D01*
X162252898Y-102880452D01*
X162220638Y-102868144D01*
X162213041Y-102864545D01*
X162201176Y-102856398D01*
X162192994Y-102843004D01*
X162187643Y-102819608D01*
X162184269Y-102781455D01*
X162182019Y-102723790D01*
X162180040Y-102641857D01*
X162179498Y-102617907D01*
X162177403Y-102542266D01*
X162174683Y-102489328D01*
X162170515Y-102454075D01*
X162164079Y-102431487D01*
X162154550Y-102416544D01*
X162141106Y-102404227D01*
X162101305Y-102382634D01*
X162052341Y-102378476D01*
X162008529Y-102394999D01*
X161977008Y-102429210D01*
X161964914Y-102478114D01*
X161964578Y-102491407D01*
X161957972Y-102515472D01*
X161938470Y-102519144D01*
X161900283Y-102504813D01*
X161891438Y-102500217D01*
X161867534Y-102473186D01*
X161867061Y-102432994D01*
X161889836Y-102377409D01*
X161910727Y-102347117D01*
X161964142Y-102304084D01*
X162030074Y-102279755D01*
X162100574Y-102276443D01*
X162167691Y-102296467D01*
G37*
X162167691Y-102296467D02*
X162172273Y-102299003D01*
X162209704Y-102328057D01*
X162243170Y-102365410D01*
X162249007Y-102373852D01*
X162260165Y-102393553D01*
X162268136Y-102416935D01*
X162273618Y-102449067D01*
X162277307Y-102495019D01*
X162279899Y-102559859D01*
X162282092Y-102648657D01*
X162282402Y-102663669D01*
X162283400Y-102760999D01*
X162281994Y-102829934D01*
X162278164Y-102870948D01*
X162271889Y-102884514D01*
X162252898Y-102880452D01*
X162220638Y-102868144D01*
X162213041Y-102864545D01*
X162201176Y-102856398D01*
X162192994Y-102843004D01*
X162187643Y-102819608D01*
X162184269Y-102781455D01*
X162182019Y-102723790D01*
X162180040Y-102641857D01*
X162179498Y-102617907D01*
X162177403Y-102542266D01*
X162174683Y-102489328D01*
X162170515Y-102454075D01*
X162164079Y-102431487D01*
X162154550Y-102416544D01*
X162141106Y-102404227D01*
X162101305Y-102382634D01*
X162052341Y-102378476D01*
X162008529Y-102394999D01*
X161977008Y-102429210D01*
X161964914Y-102478114D01*
X161964578Y-102491407D01*
X161957972Y-102515472D01*
X161938470Y-102519144D01*
X161900283Y-102504813D01*
X161891438Y-102500217D01*
X161867534Y-102473186D01*
X161867061Y-102432994D01*
X161889836Y-102377409D01*
X161910727Y-102347117D01*
X161964142Y-102304084D01*
X162030074Y-102279755D01*
X162100574Y-102276443D01*
X162167691Y-102296467D01*
G36*
X159700307Y-102621305D02*
G01*
X159696762Y-102697521D01*
X159687483Y-102753294D01*
X159670375Y-102794613D01*
X159643344Y-102827467D01*
X159604292Y-102857846D01*
X159579445Y-102871660D01*
X159539615Y-102880965D01*
X159483665Y-102880230D01*
X159452385Y-102877283D01*
X159414653Y-102868283D01*
X159384494Y-102848720D01*
X159349408Y-102812267D01*
X159344720Y-102806943D01*
X159313177Y-102765969D01*
X159298128Y-102730283D01*
X159294286Y-102687966D01*
X159294286Y-102625779D01*
X159337742Y-102642182D01*
X159369424Y-102661356D01*
X159396962Y-102706347D01*
X159402711Y-102720752D01*
X159434855Y-102761546D01*
X159478611Y-102782081D01*
X159526254Y-102780235D01*
X159570057Y-102753886D01*
X159585111Y-102737455D01*
X159598763Y-102712667D01*
X159594493Y-102690144D01*
X159569916Y-102666964D01*
X159522651Y-102640202D01*
X159450314Y-102606934D01*
X159301543Y-102541816D01*
X159297595Y-102477308D01*
X159299079Y-102436220D01*
X159396010Y-102436220D01*
X159403368Y-102461657D01*
X159436848Y-102488814D01*
X159497614Y-102519714D01*
X159507669Y-102524190D01*
X159555751Y-102545017D01*
X159591726Y-102559665D01*
X159608444Y-102565200D01*
X159610977Y-102561126D01*
X159611993Y-102536247D01*
X159608369Y-102496257D01*
X159599242Y-102457152D01*
X159570773Y-102407884D01*
X159529678Y-102380122D01*
X159480590Y-102376364D01*
X159428144Y-102399109D01*
X159413609Y-102410481D01*
X159396010Y-102436220D01*
X159299079Y-102436220D01*
X159299338Y-102429064D01*
X159321281Y-102368096D01*
X159348979Y-102334497D01*
X159406405Y-102296966D01*
X159474527Y-102278006D01*
X159544947Y-102279507D01*
X159609267Y-102303355D01*
X159623426Y-102312513D01*
X159655904Y-102340849D01*
X159678116Y-102376695D01*
X159691804Y-102425384D01*
X159698715Y-102492249D01*
X159699628Y-102536247D01*
X159700590Y-102582622D01*
X159700307Y-102621305D01*
G37*
X159700307Y-102621305D02*
X159696762Y-102697521D01*
X159687483Y-102753294D01*
X159670375Y-102794613D01*
X159643344Y-102827467D01*
X159604292Y-102857846D01*
X159579445Y-102871660D01*
X159539615Y-102880965D01*
X159483665Y-102880230D01*
X159452385Y-102877283D01*
X159414653Y-102868283D01*
X159384494Y-102848720D01*
X159349408Y-102812267D01*
X159344720Y-102806943D01*
X159313177Y-102765969D01*
X159298128Y-102730283D01*
X159294286Y-102687966D01*
X159294286Y-102625779D01*
X159337742Y-102642182D01*
X159369424Y-102661356D01*
X159396962Y-102706347D01*
X159402711Y-102720752D01*
X159434855Y-102761546D01*
X159478611Y-102782081D01*
X159526254Y-102780235D01*
X159570057Y-102753886D01*
X159585111Y-102737455D01*
X159598763Y-102712667D01*
X159594493Y-102690144D01*
X159569916Y-102666964D01*
X159522651Y-102640202D01*
X159450314Y-102606934D01*
X159301543Y-102541816D01*
X159297595Y-102477308D01*
X159299079Y-102436220D01*
X159396010Y-102436220D01*
X159403368Y-102461657D01*
X159436848Y-102488814D01*
X159497614Y-102519714D01*
X159507669Y-102524190D01*
X159555751Y-102545017D01*
X159591726Y-102559665D01*
X159608444Y-102565200D01*
X159610977Y-102561126D01*
X159611993Y-102536247D01*
X159608369Y-102496257D01*
X159599242Y-102457152D01*
X159570773Y-102407884D01*
X159529678Y-102380122D01*
X159480590Y-102376364D01*
X159428144Y-102399109D01*
X159413609Y-102410481D01*
X159396010Y-102436220D01*
X159299079Y-102436220D01*
X159299338Y-102429064D01*
X159321281Y-102368096D01*
X159348979Y-102334497D01*
X159406405Y-102296966D01*
X159474527Y-102278006D01*
X159544947Y-102279507D01*
X159609267Y-102303355D01*
X159623426Y-102312513D01*
X159655904Y-102340849D01*
X159678116Y-102376695D01*
X159691804Y-102425384D01*
X159698715Y-102492249D01*
X159699628Y-102536247D01*
X159700590Y-102582622D01*
X159700307Y-102621305D01*
G36*
X163991020Y-102247822D02*
G01*
X164058810Y-102279680D01*
X164114366Y-102334770D01*
X164125881Y-102352016D01*
X164135432Y-102371562D01*
X164142206Y-102396198D01*
X164146819Y-102430711D01*
X164149888Y-102479889D01*
X164152029Y-102548519D01*
X164153859Y-102641389D01*
X164158404Y-102899007D01*
X164120225Y-102884491D01*
X164085268Y-102871156D01*
X164059097Y-102858323D01*
X164042013Y-102841780D01*
X164032086Y-102816465D01*
X164027386Y-102777316D01*
X164025982Y-102719268D01*
X164025943Y-102637261D01*
X164025744Y-102571895D01*
X164024559Y-102509173D01*
X164021729Y-102466334D01*
X164016609Y-102438220D01*
X164008553Y-102419675D01*
X163996914Y-102405543D01*
X163968303Y-102385600D01*
X163920239Y-102378083D01*
X163872688Y-102397079D01*
X163869550Y-102399511D01*
X163859769Y-102410748D01*
X163852553Y-102428770D01*
X163847299Y-102458026D01*
X163843402Y-102502962D01*
X163840256Y-102568028D01*
X163837257Y-102657670D01*
X163830000Y-102897697D01*
X163768314Y-102870044D01*
X163706629Y-102842391D01*
X163706629Y-102623246D01*
X163706884Y-102563711D01*
X163709086Y-102480892D01*
X163714661Y-102419227D01*
X163724941Y-102373748D01*
X163741258Y-102339484D01*
X163764943Y-102311466D01*
X163797328Y-102284723D01*
X163843907Y-102257780D01*
X163917287Y-102240191D01*
X163991020Y-102247822D01*
G37*
X163991020Y-102247822D02*
X164058810Y-102279680D01*
X164114366Y-102334770D01*
X164125881Y-102352016D01*
X164135432Y-102371562D01*
X164142206Y-102396198D01*
X164146819Y-102430711D01*
X164149888Y-102479889D01*
X164152029Y-102548519D01*
X164153859Y-102641389D01*
X164158404Y-102899007D01*
X164120225Y-102884491D01*
X164085268Y-102871156D01*
X164059097Y-102858323D01*
X164042013Y-102841780D01*
X164032086Y-102816465D01*
X164027386Y-102777316D01*
X164025982Y-102719268D01*
X164025943Y-102637261D01*
X164025744Y-102571895D01*
X164024559Y-102509173D01*
X164021729Y-102466334D01*
X164016609Y-102438220D01*
X164008553Y-102419675D01*
X163996914Y-102405543D01*
X163968303Y-102385600D01*
X163920239Y-102378083D01*
X163872688Y-102397079D01*
X163869550Y-102399511D01*
X163859769Y-102410748D01*
X163852553Y-102428770D01*
X163847299Y-102458026D01*
X163843402Y-102502962D01*
X163840256Y-102568028D01*
X163837257Y-102657670D01*
X163830000Y-102897697D01*
X163768314Y-102870044D01*
X163706629Y-102842391D01*
X163706629Y-102623246D01*
X163706884Y-102563711D01*
X163709086Y-102480892D01*
X163714661Y-102419227D01*
X163724941Y-102373748D01*
X163741258Y-102339484D01*
X163764943Y-102311466D01*
X163797328Y-102284723D01*
X163843907Y-102257780D01*
X163917287Y-102240191D01*
X163991020Y-102247822D01*
G36*
X164717684Y-102634078D02*
G01*
X164715078Y-102657387D01*
X164695660Y-102740352D01*
X164660573Y-102803448D01*
X164607212Y-102851808D01*
X164604196Y-102853804D01*
X164536362Y-102882185D01*
X164465535Y-102884711D01*
X164397289Y-102863097D01*
X164337196Y-102819062D01*
X164290829Y-102754322D01*
X164290050Y-102752761D01*
X164274643Y-102712558D01*
X164263357Y-102666866D01*
X164257370Y-102623972D01*
X164257861Y-102592160D01*
X164266007Y-102579714D01*
X164273244Y-102580471D01*
X164307851Y-102594235D01*
X164347078Y-102619546D01*
X164380448Y-102648845D01*
X164397483Y-102674572D01*
X164415192Y-102709471D01*
X164451485Y-102741212D01*
X164493630Y-102753886D01*
X164509077Y-102750221D01*
X164539569Y-102731774D01*
X164566128Y-102706166D01*
X164577486Y-102682934D01*
X164577482Y-102682848D01*
X164564596Y-102672179D01*
X164530241Y-102652933D01*
X164479593Y-102627813D01*
X164417829Y-102599524D01*
X164417489Y-102599374D01*
X164350388Y-102569498D01*
X164305411Y-102547973D01*
X164278145Y-102531437D01*
X164264178Y-102516531D01*
X164259097Y-102499893D01*
X164258490Y-102478162D01*
X164262712Y-102437013D01*
X164406000Y-102437013D01*
X164420791Y-102449949D01*
X164457644Y-102469333D01*
X164458725Y-102469881D01*
X164502205Y-102490587D01*
X164541102Y-102507105D01*
X164565778Y-102514093D01*
X164575676Y-102504753D01*
X164577486Y-102472748D01*
X164569966Y-102432915D01*
X164543897Y-102396717D01*
X164506154Y-102377950D01*
X164464077Y-102379845D01*
X164425005Y-102405632D01*
X164409647Y-102423451D01*
X164406000Y-102437013D01*
X164262712Y-102437013D01*
X164263833Y-102426086D01*
X164290251Y-102355335D01*
X164334473Y-102299735D01*
X164391697Y-102261239D01*
X164457120Y-102241797D01*
X164525937Y-102243359D01*
X164593347Y-102267878D01*
X164654544Y-102317302D01*
X164688450Y-102366212D01*
X164712806Y-102436027D01*
X164716767Y-102472748D01*
X164722299Y-102524055D01*
X164717684Y-102634078D01*
G37*
X164717684Y-102634078D02*
X164715078Y-102657387D01*
X164695660Y-102740352D01*
X164660573Y-102803448D01*
X164607212Y-102851808D01*
X164604196Y-102853804D01*
X164536362Y-102882185D01*
X164465535Y-102884711D01*
X164397289Y-102863097D01*
X164337196Y-102819062D01*
X164290829Y-102754322D01*
X164290050Y-102752761D01*
X164274643Y-102712558D01*
X164263357Y-102666866D01*
X164257370Y-102623972D01*
X164257861Y-102592160D01*
X164266007Y-102579714D01*
X164273244Y-102580471D01*
X164307851Y-102594235D01*
X164347078Y-102619546D01*
X164380448Y-102648845D01*
X164397483Y-102674572D01*
X164415192Y-102709471D01*
X164451485Y-102741212D01*
X164493630Y-102753886D01*
X164509077Y-102750221D01*
X164539569Y-102731774D01*
X164566128Y-102706166D01*
X164577486Y-102682934D01*
X164577482Y-102682848D01*
X164564596Y-102672179D01*
X164530241Y-102652933D01*
X164479593Y-102627813D01*
X164417829Y-102599524D01*
X164417489Y-102599374D01*
X164350388Y-102569498D01*
X164305411Y-102547973D01*
X164278145Y-102531437D01*
X164264178Y-102516531D01*
X164259097Y-102499893D01*
X164258490Y-102478162D01*
X164262712Y-102437013D01*
X164406000Y-102437013D01*
X164420791Y-102449949D01*
X164457644Y-102469333D01*
X164458725Y-102469881D01*
X164502205Y-102490587D01*
X164541102Y-102507105D01*
X164565778Y-102514093D01*
X164575676Y-102504753D01*
X164577486Y-102472748D01*
X164569966Y-102432915D01*
X164543897Y-102396717D01*
X164506154Y-102377950D01*
X164464077Y-102379845D01*
X164425005Y-102405632D01*
X164409647Y-102423451D01*
X164406000Y-102437013D01*
X164262712Y-102437013D01*
X164263833Y-102426086D01*
X164290251Y-102355335D01*
X164334473Y-102299735D01*
X164391697Y-102261239D01*
X164457120Y-102241797D01*
X164525937Y-102243359D01*
X164593347Y-102267878D01*
X164654544Y-102317302D01*
X164688450Y-102366212D01*
X164712806Y-102436027D01*
X164716767Y-102472748D01*
X164722299Y-102524055D01*
X164717684Y-102634078D01*
G36*
X162649483Y-102290569D02*
G01*
X162699376Y-102319661D01*
X162721325Y-102342327D01*
X162763504Y-102410082D01*
X162777714Y-102483950D01*
X162777714Y-102534770D01*
X162730999Y-102515128D01*
X162698692Y-102495308D01*
X162673231Y-102454160D01*
X162670616Y-102445675D01*
X162642478Y-102402451D01*
X162600067Y-102379103D01*
X162551370Y-102378100D01*
X162504373Y-102401914D01*
X162497357Y-102408056D01*
X162473893Y-102434745D01*
X162470019Y-102458014D01*
X162487768Y-102480862D01*
X162529179Y-102506287D01*
X162596286Y-102537288D01*
X162600824Y-102539252D01*
X162675322Y-102573990D01*
X162726203Y-102604763D01*
X162757525Y-102635488D01*
X162773343Y-102670082D01*
X162777714Y-102712462D01*
X162771986Y-102759446D01*
X162743062Y-102819585D01*
X162692178Y-102862788D01*
X162655374Y-102875759D01*
X162603434Y-102882856D01*
X162552999Y-102881340D01*
X162516983Y-102870632D01*
X162513158Y-102867966D01*
X162502998Y-102849337D01*
X162510048Y-102816505D01*
X162522297Y-102790735D01*
X162541939Y-102780006D01*
X162579191Y-102780539D01*
X162630908Y-102777462D01*
X162664701Y-102756212D01*
X162676114Y-102716877D01*
X162676104Y-102715747D01*
X162669187Y-102692913D01*
X162645659Y-102671963D01*
X162599914Y-102647815D01*
X162537704Y-102618741D01*
X162496499Y-102602925D01*
X162472712Y-102603944D01*
X162461597Y-102624837D01*
X162458408Y-102668641D01*
X162458400Y-102738393D01*
X162458044Y-102781452D01*
X162456413Y-102834626D01*
X162453761Y-102871022D01*
X162450422Y-102884514D01*
X162449530Y-102884423D01*
X162430237Y-102877110D01*
X162398284Y-102861678D01*
X162354124Y-102838842D01*
X162359371Y-102633078D01*
X162359736Y-102619432D01*
X162363904Y-102523651D01*
X162371268Y-102451462D01*
X162383330Y-102398058D01*
X162401593Y-102358633D01*
X162427560Y-102328380D01*
X162462733Y-102302493D01*
X162463384Y-102302087D01*
X162520256Y-102280968D01*
X162586033Y-102277400D01*
X162649483Y-102290569D01*
G37*
X162649483Y-102290569D02*
X162699376Y-102319661D01*
X162721325Y-102342327D01*
X162763504Y-102410082D01*
X162777714Y-102483950D01*
X162777714Y-102534770D01*
X162730999Y-102515128D01*
X162698692Y-102495308D01*
X162673231Y-102454160D01*
X162670616Y-102445675D01*
X162642478Y-102402451D01*
X162600067Y-102379103D01*
X162551370Y-102378100D01*
X162504373Y-102401914D01*
X162497357Y-102408056D01*
X162473893Y-102434745D01*
X162470019Y-102458014D01*
X162487768Y-102480862D01*
X162529179Y-102506287D01*
X162596286Y-102537288D01*
X162600824Y-102539252D01*
X162675322Y-102573990D01*
X162726203Y-102604763D01*
X162757525Y-102635488D01*
X162773343Y-102670082D01*
X162777714Y-102712462D01*
X162771986Y-102759446D01*
X162743062Y-102819585D01*
X162692178Y-102862788D01*
X162655374Y-102875759D01*
X162603434Y-102882856D01*
X162552999Y-102881340D01*
X162516983Y-102870632D01*
X162513158Y-102867966D01*
X162502998Y-102849337D01*
X162510048Y-102816505D01*
X162522297Y-102790735D01*
X162541939Y-102780006D01*
X162579191Y-102780539D01*
X162630908Y-102777462D01*
X162664701Y-102756212D01*
X162676114Y-102716877D01*
X162676104Y-102715747D01*
X162669187Y-102692913D01*
X162645659Y-102671963D01*
X162599914Y-102647815D01*
X162537704Y-102618741D01*
X162496499Y-102602925D01*
X162472712Y-102603944D01*
X162461597Y-102624837D01*
X162458408Y-102668641D01*
X162458400Y-102738393D01*
X162458044Y-102781452D01*
X162456413Y-102834626D01*
X162453761Y-102871022D01*
X162450422Y-102884514D01*
X162449530Y-102884423D01*
X162430237Y-102877110D01*
X162398284Y-102861678D01*
X162354124Y-102838842D01*
X162359371Y-102633078D01*
X162359736Y-102619432D01*
X162363904Y-102523651D01*
X162371268Y-102451462D01*
X162383330Y-102398058D01*
X162401593Y-102358633D01*
X162427560Y-102328380D01*
X162462733Y-102302493D01*
X162463384Y-102302087D01*
X162520256Y-102280968D01*
X162586033Y-102277400D01*
X162649483Y-102290569D01*
G36*
X160042829Y-102281097D02*
G01*
X160102753Y-102303355D01*
X160127673Y-102320080D01*
X160152910Y-102344043D01*
X160170912Y-102374526D01*
X160182858Y-102416023D01*
X160189930Y-102473032D01*
X160193308Y-102550047D01*
X160194171Y-102651565D01*
X160194002Y-102704027D01*
X160193153Y-102775715D01*
X160191711Y-102832925D01*
X160189814Y-102870809D01*
X160187597Y-102884514D01*
X160173172Y-102879981D01*
X160144054Y-102867670D01*
X160143181Y-102867272D01*
X160128060Y-102859356D01*
X160117891Y-102848495D01*
X160111691Y-102829471D01*
X160108478Y-102797069D01*
X160107270Y-102746071D01*
X160107086Y-102671261D01*
X160106714Y-102623804D01*
X160102750Y-102534615D01*
X160093673Y-102469287D01*
X160078524Y-102424393D01*
X160056345Y-102396507D01*
X160026175Y-102382203D01*
X160021990Y-102381206D01*
X159965480Y-102380427D01*
X159921410Y-102405744D01*
X159890972Y-102456502D01*
X159885544Y-102471175D01*
X159873171Y-102503649D01*
X159866905Y-102518572D01*
X159854036Y-102516516D01*
X159825933Y-102505357D01*
X159799721Y-102486927D01*
X159787771Y-102452098D01*
X159791336Y-102427151D01*
X159813235Y-102376547D01*
X159848644Y-102329128D01*
X159890052Y-102296334D01*
X159907400Y-102288752D01*
X159973089Y-102276076D01*
X160042829Y-102281097D01*
G37*
X160042829Y-102281097D02*
X160102753Y-102303355D01*
X160127673Y-102320080D01*
X160152910Y-102344043D01*
X160170912Y-102374526D01*
X160182858Y-102416023D01*
X160189930Y-102473032D01*
X160193308Y-102550047D01*
X160194171Y-102651565D01*
X160194002Y-102704027D01*
X160193153Y-102775715D01*
X160191711Y-102832925D01*
X160189814Y-102870809D01*
X160187597Y-102884514D01*
X160173172Y-102879981D01*
X160144054Y-102867670D01*
X160143181Y-102867272D01*
X160128060Y-102859356D01*
X160117891Y-102848495D01*
X160111691Y-102829471D01*
X160108478Y-102797069D01*
X160107270Y-102746071D01*
X160107086Y-102671261D01*
X160106714Y-102623804D01*
X160102750Y-102534615D01*
X160093673Y-102469287D01*
X160078524Y-102424393D01*
X160056345Y-102396507D01*
X160026175Y-102382203D01*
X160021990Y-102381206D01*
X159965480Y-102380427D01*
X159921410Y-102405744D01*
X159890972Y-102456502D01*
X159885544Y-102471175D01*
X159873171Y-102503649D01*
X159866905Y-102518572D01*
X159854036Y-102516516D01*
X159825933Y-102505357D01*
X159799721Y-102486927D01*
X159787771Y-102452098D01*
X159791336Y-102427151D01*
X159813235Y-102376547D01*
X159848644Y-102329128D01*
X159890052Y-102296334D01*
X159907400Y-102288752D01*
X159973089Y-102276076D01*
X160042829Y-102281097D01*
G36*
X162673933Y-97572371D02*
G01*
X162749856Y-97572865D01*
X162804491Y-97574135D01*
X162841500Y-97576547D01*
X162864547Y-97580467D01*
X162877296Y-97586262D01*
X162883411Y-97594299D01*
X162886556Y-97604943D01*
X162886646Y-97605325D01*
X162891814Y-97630347D01*
X162901209Y-97678681D01*
X162913867Y-97745260D01*
X162928825Y-97825014D01*
X162945119Y-97912875D01*
X162946448Y-97920064D01*
X162962691Y-98005340D01*
X162977805Y-98080242D01*
X162990808Y-98140219D01*
X163000715Y-98180717D01*
X163006544Y-98197184D01*
X163006575Y-98197210D01*
X163024943Y-98206320D01*
X163062640Y-98221457D01*
X163111543Y-98239358D01*
X163114297Y-98240330D01*
X163176817Y-98263959D01*
X163249543Y-98293595D01*
X163317294Y-98323062D01*
X163428703Y-98373626D01*
X163675399Y-98205160D01*
X163692775Y-98193311D01*
X163767202Y-98142947D01*
X163833614Y-98098612D01*
X163888039Y-98062916D01*
X163926506Y-98038471D01*
X163945042Y-98027889D01*
X163957743Y-98030315D01*
X163986579Y-98049110D01*
X164031143Y-98086330D01*
X164092670Y-98143020D01*
X164172398Y-98220227D01*
X164179532Y-98227255D01*
X164242796Y-98290222D01*
X164298990Y-98347268D01*
X164344677Y-98394817D01*
X164376414Y-98429297D01*
X164390764Y-98447131D01*
X164390810Y-98447217D01*
X164392633Y-98460795D01*
X164385910Y-98482820D01*
X164368946Y-98516304D01*
X164340044Y-98564261D01*
X164297508Y-98629704D01*
X164239644Y-98715645D01*
X164229783Y-98730151D01*
X164179913Y-98803635D01*
X164135905Y-98868687D01*
X164100380Y-98921417D01*
X164075959Y-98957936D01*
X164065264Y-98974356D01*
X164064458Y-98977834D01*
X164069518Y-99003785D01*
X164084677Y-99046159D01*
X164107463Y-99097728D01*
X164138429Y-99165170D01*
X164173004Y-99245195D01*
X164202366Y-99317629D01*
X164209645Y-99336377D01*
X164228710Y-99384246D01*
X164242715Y-99417596D01*
X164249041Y-99430114D01*
X164256025Y-99431050D01*
X164287413Y-99436461D01*
X164338787Y-99445806D01*
X164404802Y-99458069D01*
X164480113Y-99472232D01*
X164559375Y-99487280D01*
X164637243Y-99502195D01*
X164708370Y-99515961D01*
X164767412Y-99527562D01*
X164809022Y-99535980D01*
X164827857Y-99540199D01*
X164830980Y-99541389D01*
X164838591Y-99547805D01*
X164844254Y-99561465D01*
X164848251Y-99585999D01*
X164850866Y-99625038D01*
X164852384Y-99682213D01*
X164853086Y-99761154D01*
X164853257Y-99865492D01*
X164853257Y-100182799D01*
X164777057Y-100197839D01*
X164767840Y-100199642D01*
X164718891Y-100208980D01*
X164651205Y-100221669D01*
X164572478Y-100236273D01*
X164490400Y-100251355D01*
X164458078Y-100257422D01*
X164385855Y-100272181D01*
X164325666Y-100286137D01*
X164283040Y-100297952D01*
X164263510Y-100306287D01*
X164254660Y-100319905D01*
X164238548Y-100355938D01*
X164222065Y-100402572D01*
X164216263Y-100420034D01*
X164194906Y-100477358D01*
X164167359Y-100545201D01*
X164138107Y-100612355D01*
X164122463Y-100647430D01*
X164100174Y-100699822D01*
X164084857Y-100739058D01*
X164079162Y-100758563D01*
X164079478Y-100760036D01*
X164090281Y-100780729D01*
X164114638Y-100820665D01*
X164150081Y-100875972D01*
X164194136Y-100942781D01*
X164244332Y-101017220D01*
X164409501Y-101259623D01*
X164192503Y-101476983D01*
X164171516Y-101497899D01*
X164107342Y-101560505D01*
X164049990Y-101614495D01*
X164002820Y-101656826D01*
X163969192Y-101684457D01*
X163952467Y-101694343D01*
X163934303Y-101686821D01*
X163896265Y-101665227D01*
X163842726Y-101632151D01*
X163777884Y-101590191D01*
X163705940Y-101541943D01*
X163635275Y-101494291D01*
X163571526Y-101452328D01*
X163519513Y-101419165D01*
X163483279Y-101397378D01*
X163466867Y-101389543D01*
X163465905Y-101389614D01*
X163444103Y-101397338D01*
X163405440Y-101415323D01*
X163357612Y-101440013D01*
X163357110Y-101440284D01*
X163293587Y-101472099D01*
X163250060Y-101487642D01*
X163223052Y-101487685D01*
X163209090Y-101473000D01*
X163203180Y-101458544D01*
X163187229Y-101419831D01*
X163162660Y-101360316D01*
X163130779Y-101283165D01*
X163092893Y-101191541D01*
X163050310Y-101088607D01*
X163004337Y-100977526D01*
X162962667Y-100876472D01*
X162920268Y-100772780D01*
X162882756Y-100680119D01*
X162851388Y-100601642D01*
X162827425Y-100540500D01*
X162812123Y-100499843D01*
X162806743Y-100482825D01*
X162817018Y-100467219D01*
X162845563Y-100441162D01*
X162885971Y-100410887D01*
X162982979Y-100331684D01*
X163069793Y-100230475D01*
X163133322Y-100119116D01*
X163173177Y-100000893D01*
X163188965Y-99879095D01*
X163180296Y-99757010D01*
X163146778Y-99637925D01*
X163088021Y-99525129D01*
X163003632Y-99421911D01*
X162959631Y-99381713D01*
X162854211Y-99310638D01*
X162741410Y-99264301D01*
X162624525Y-99241599D01*
X162506853Y-99241428D01*
X162391690Y-99262687D01*
X162282335Y-99304270D01*
X162182083Y-99365076D01*
X162094233Y-99444001D01*
X162022080Y-99539941D01*
X161968922Y-99651795D01*
X161938057Y-99778457D01*
X161932392Y-99839507D01*
X161940185Y-99971776D01*
X161975284Y-100097266D01*
X162036649Y-100213759D01*
X162123243Y-100319039D01*
X162234029Y-100410887D01*
X162272931Y-100439930D01*
X162302104Y-100466272D01*
X162313257Y-100482800D01*
X162308810Y-100497209D01*
X162294378Y-100535815D01*
X162271173Y-100595201D01*
X162240452Y-100672215D01*
X162203474Y-100763703D01*
X162161496Y-100866516D01*
X162115778Y-100977502D01*
X162074178Y-101078072D01*
X162031222Y-101181947D01*
X161992829Y-101274819D01*
X161960305Y-101353525D01*
X161934958Y-101414899D01*
X161918095Y-101455779D01*
X161911025Y-101473000D01*
X161910943Y-101473204D01*
X161896798Y-101487745D01*
X161869659Y-101487579D01*
X161826023Y-101471927D01*
X161762388Y-101440013D01*
X161757379Y-101437326D01*
X161710125Y-101413150D01*
X161672811Y-101396037D01*
X161653133Y-101389543D01*
X161637005Y-101397218D01*
X161600959Y-101418871D01*
X161549092Y-101451928D01*
X161485445Y-101493810D01*
X161414060Y-101541943D01*
X161343724Y-101589131D01*
X161278670Y-101631267D01*
X161224820Y-101664578D01*
X161186374Y-101686469D01*
X161167534Y-101694343D01*
X161164325Y-101693343D01*
X161141954Y-101677584D01*
X161103733Y-101645033D01*
X161053021Y-101598733D01*
X160993181Y-101541726D01*
X160927571Y-101477058D01*
X160710648Y-101259772D01*
X160879601Y-101011253D01*
X161048553Y-100762733D01*
X160997183Y-100651595D01*
X160997031Y-100651266D01*
X160966183Y-100580418D01*
X160934661Y-100501523D01*
X160909266Y-100431600D01*
X160905423Y-100420322D01*
X160886047Y-100367967D01*
X160868574Y-100327283D01*
X160856388Y-100306287D01*
X160851426Y-100303322D01*
X160821634Y-100293375D01*
X160771047Y-100280505D01*
X160705194Y-100266053D01*
X160629600Y-100251355D01*
X160606957Y-100247210D01*
X160525038Y-100232116D01*
X160448600Y-100217899D01*
X160385337Y-100205995D01*
X160342943Y-100197839D01*
X160266743Y-100182799D01*
X160266743Y-99865492D01*
X160266760Y-99826476D01*
X160267082Y-99731292D01*
X160268033Y-99660255D01*
X160269896Y-99609734D01*
X160272955Y-99576098D01*
X160277494Y-99555718D01*
X160283795Y-99544962D01*
X160292143Y-99540199D01*
X160300224Y-99538270D01*
X160333172Y-99531445D01*
X160385736Y-99521022D01*
X160452569Y-99508018D01*
X160528328Y-99493449D01*
X160607665Y-99478333D01*
X160685237Y-99463685D01*
X160755698Y-99450523D01*
X160813702Y-99439863D01*
X160853904Y-99432721D01*
X160870959Y-99430114D01*
X160872112Y-99428541D01*
X160881385Y-99408119D01*
X160897432Y-99369045D01*
X160917635Y-99317629D01*
X160945672Y-99248353D01*
X160980186Y-99168290D01*
X161012538Y-99097728D01*
X161019952Y-99081889D01*
X161040755Y-99032293D01*
X161053219Y-98994038D01*
X161054863Y-98974356D01*
X161054015Y-98972962D01*
X161040548Y-98952420D01*
X161013850Y-98912516D01*
X160976539Y-98857140D01*
X160931234Y-98790177D01*
X160880552Y-98715517D01*
X160823445Y-98630692D01*
X160780607Y-98564800D01*
X160751460Y-98516478D01*
X160734317Y-98482733D01*
X160727495Y-98460572D01*
X160729306Y-98447002D01*
X160729915Y-98445984D01*
X160746297Y-98426210D01*
X160779695Y-98390175D01*
X160826671Y-98341451D01*
X160883786Y-98283612D01*
X160947603Y-98220227D01*
X161013802Y-98155905D01*
X161078648Y-98095447D01*
X161126299Y-98054655D01*
X161157990Y-98032484D01*
X161174958Y-98027889D01*
X161177175Y-98028921D01*
X161200524Y-98042837D01*
X161242912Y-98070030D01*
X161300369Y-98107889D01*
X161368923Y-98153803D01*
X161444601Y-98205160D01*
X161691298Y-98373626D01*
X161802706Y-98323062D01*
X161805943Y-98321597D01*
X161874343Y-98291965D01*
X161946907Y-98262493D01*
X162008457Y-98239358D01*
X162008729Y-98239262D01*
X162057595Y-98221367D01*
X162095212Y-98206253D01*
X162113457Y-98197184D01*
X162113752Y-98196855D01*
X162119946Y-98178282D01*
X162130139Y-98136045D01*
X162143348Y-98074696D01*
X162158590Y-97998789D01*
X162174881Y-97912875D01*
X162175449Y-97909796D01*
X162191713Y-97822128D01*
X162206608Y-97742741D01*
X162219171Y-97676701D01*
X162228438Y-97629079D01*
X162233444Y-97604943D01*
X162233764Y-97603605D01*
X162237060Y-97593273D01*
X162243738Y-97585506D01*
X162257462Y-97579940D01*
X162281895Y-97576207D01*
X162320702Y-97573942D01*
X162377546Y-97572778D01*
X162456090Y-97572348D01*
X162560000Y-97572286D01*
X162573056Y-97572286D01*
X162673933Y-97572371D01*
G37*
X162673933Y-97572371D02*
X162749856Y-97572865D01*
X162804491Y-97574135D01*
X162841500Y-97576547D01*
X162864547Y-97580467D01*
X162877296Y-97586262D01*
X162883411Y-97594299D01*
X162886556Y-97604943D01*
X162886646Y-97605325D01*
X162891814Y-97630347D01*
X162901209Y-97678681D01*
X162913867Y-97745260D01*
X162928825Y-97825014D01*
X162945119Y-97912875D01*
X162946448Y-97920064D01*
X162962691Y-98005340D01*
X162977805Y-98080242D01*
X162990808Y-98140219D01*
X163000715Y-98180717D01*
X163006544Y-98197184D01*
X163006575Y-98197210D01*
X163024943Y-98206320D01*
X163062640Y-98221457D01*
X163111543Y-98239358D01*
X163114297Y-98240330D01*
X163176817Y-98263959D01*
X163249543Y-98293595D01*
X163317294Y-98323062D01*
X163428703Y-98373626D01*
X163675399Y-98205160D01*
X163692775Y-98193311D01*
X163767202Y-98142947D01*
X163833614Y-98098612D01*
X163888039Y-98062916D01*
X163926506Y-98038471D01*
X163945042Y-98027889D01*
X163957743Y-98030315D01*
X163986579Y-98049110D01*
X164031143Y-98086330D01*
X164092670Y-98143020D01*
X164172398Y-98220227D01*
X164179532Y-98227255D01*
X164242796Y-98290222D01*
X164298990Y-98347268D01*
X164344677Y-98394817D01*
X164376414Y-98429297D01*
X164390764Y-98447131D01*
X164390810Y-98447217D01*
X164392633Y-98460795D01*
X164385910Y-98482820D01*
X164368946Y-98516304D01*
X164340044Y-98564261D01*
X164297508Y-98629704D01*
X164239644Y-98715645D01*
X164229783Y-98730151D01*
X164179913Y-98803635D01*
X164135905Y-98868687D01*
X164100380Y-98921417D01*
X164075959Y-98957936D01*
X164065264Y-98974356D01*
X164064458Y-98977834D01*
X164069518Y-99003785D01*
X164084677Y-99046159D01*
X164107463Y-99097728D01*
X164138429Y-99165170D01*
X164173004Y-99245195D01*
X164202366Y-99317629D01*
X164209645Y-99336377D01*
X164228710Y-99384246D01*
X164242715Y-99417596D01*
X164249041Y-99430114D01*
X164256025Y-99431050D01*
X164287413Y-99436461D01*
X164338787Y-99445806D01*
X164404802Y-99458069D01*
X164480113Y-99472232D01*
X164559375Y-99487280D01*
X164637243Y-99502195D01*
X164708370Y-99515961D01*
X164767412Y-99527562D01*
X164809022Y-99535980D01*
X164827857Y-99540199D01*
X164830980Y-99541389D01*
X164838591Y-99547805D01*
X164844254Y-99561465D01*
X164848251Y-99585999D01*
X164850866Y-99625038D01*
X164852384Y-99682213D01*
X164853086Y-99761154D01*
X164853257Y-99865492D01*
X164853257Y-100182799D01*
X164777057Y-100197839D01*
X164767840Y-100199642D01*
X164718891Y-100208980D01*
X164651205Y-100221669D01*
X164572478Y-100236273D01*
X164490400Y-100251355D01*
X164458078Y-100257422D01*
X164385855Y-100272181D01*
X164325666Y-100286137D01*
X164283040Y-100297952D01*
X164263510Y-100306287D01*
X164254660Y-100319905D01*
X164238548Y-100355938D01*
X164222065Y-100402572D01*
X164216263Y-100420034D01*
X164194906Y-100477358D01*
X164167359Y-100545201D01*
X164138107Y-100612355D01*
X164122463Y-100647430D01*
X164100174Y-100699822D01*
X164084857Y-100739058D01*
X164079162Y-100758563D01*
X164079478Y-100760036D01*
X164090281Y-100780729D01*
X164114638Y-100820665D01*
X164150081Y-100875972D01*
X164194136Y-100942781D01*
X164244332Y-101017220D01*
X164409501Y-101259623D01*
X164192503Y-101476983D01*
X164171516Y-101497899D01*
X164107342Y-101560505D01*
X164049990Y-101614495D01*
X164002820Y-101656826D01*
X163969192Y-101684457D01*
X163952467Y-101694343D01*
X163934303Y-101686821D01*
X163896265Y-101665227D01*
X163842726Y-101632151D01*
X163777884Y-101590191D01*
X163705940Y-101541943D01*
X163635275Y-101494291D01*
X163571526Y-101452328D01*
X163519513Y-101419165D01*
X163483279Y-101397378D01*
X163466867Y-101389543D01*
X163465905Y-101389614D01*
X163444103Y-101397338D01*
X163405440Y-101415323D01*
X163357612Y-101440013D01*
X163357110Y-101440284D01*
X163293587Y-101472099D01*
X163250060Y-101487642D01*
X163223052Y-101487685D01*
X163209090Y-101473000D01*
X163203180Y-101458544D01*
X163187229Y-101419831D01*
X163162660Y-101360316D01*
X163130779Y-101283165D01*
X163092893Y-101191541D01*
X163050310Y-101088607D01*
X163004337Y-100977526D01*
X162962667Y-100876472D01*
X162920268Y-100772780D01*
X162882756Y-100680119D01*
X162851388Y-100601642D01*
X162827425Y-100540500D01*
X162812123Y-100499843D01*
X162806743Y-100482825D01*
X162817018Y-100467219D01*
X162845563Y-100441162D01*
X162885971Y-100410887D01*
X162982979Y-100331684D01*
X163069793Y-100230475D01*
X163133322Y-100119116D01*
X163173177Y-100000893D01*
X163188965Y-99879095D01*
X163180296Y-99757010D01*
X163146778Y-99637925D01*
X163088021Y-99525129D01*
X163003632Y-99421911D01*
X162959631Y-99381713D01*
X162854211Y-99310638D01*
X162741410Y-99264301D01*
X162624525Y-99241599D01*
X162506853Y-99241428D01*
X162391690Y-99262687D01*
X162282335Y-99304270D01*
X162182083Y-99365076D01*
X162094233Y-99444001D01*
X162022080Y-99539941D01*
X161968922Y-99651795D01*
X161938057Y-99778457D01*
X161932392Y-99839507D01*
X161940185Y-99971776D01*
X161975284Y-100097266D01*
X162036649Y-100213759D01*
X162123243Y-100319039D01*
X162234029Y-100410887D01*
X162272931Y-100439930D01*
X162302104Y-100466272D01*
X162313257Y-100482800D01*
X162308810Y-100497209D01*
X162294378Y-100535815D01*
X162271173Y-100595201D01*
X162240452Y-100672215D01*
X162203474Y-100763703D01*
X162161496Y-100866516D01*
X162115778Y-100977502D01*
X162074178Y-101078072D01*
X162031222Y-101181947D01*
X161992829Y-101274819D01*
X161960305Y-101353525D01*
X161934958Y-101414899D01*
X161918095Y-101455779D01*
X161911025Y-101473000D01*
X161910943Y-101473204D01*
X161896798Y-101487745D01*
X161869659Y-101487579D01*
X161826023Y-101471927D01*
X161762388Y-101440013D01*
X161757379Y-101437326D01*
X161710125Y-101413150D01*
X161672811Y-101396037D01*
X161653133Y-101389543D01*
X161637005Y-101397218D01*
X161600959Y-101418871D01*
X161549092Y-101451928D01*
X161485445Y-101493810D01*
X161414060Y-101541943D01*
X161343724Y-101589131D01*
X161278670Y-101631267D01*
X161224820Y-101664578D01*
X161186374Y-101686469D01*
X161167534Y-101694343D01*
X161164325Y-101693343D01*
X161141954Y-101677584D01*
X161103733Y-101645033D01*
X161053021Y-101598733D01*
X160993181Y-101541726D01*
X160927571Y-101477058D01*
X160710648Y-101259772D01*
X160879601Y-101011253D01*
X161048553Y-100762733D01*
X160997183Y-100651595D01*
X160997031Y-100651266D01*
X160966183Y-100580418D01*
X160934661Y-100501523D01*
X160909266Y-100431600D01*
X160905423Y-100420322D01*
X160886047Y-100367967D01*
X160868574Y-100327283D01*
X160856388Y-100306287D01*
X160851426Y-100303322D01*
X160821634Y-100293375D01*
X160771047Y-100280505D01*
X160705194Y-100266053D01*
X160629600Y-100251355D01*
X160606957Y-100247210D01*
X160525038Y-100232116D01*
X160448600Y-100217899D01*
X160385337Y-100205995D01*
X160342943Y-100197839D01*
X160266743Y-100182799D01*
X160266743Y-99865492D01*
X160266760Y-99826476D01*
X160267082Y-99731292D01*
X160268033Y-99660255D01*
X160269896Y-99609734D01*
X160272955Y-99576098D01*
X160277494Y-99555718D01*
X160283795Y-99544962D01*
X160292143Y-99540199D01*
X160300224Y-99538270D01*
X160333172Y-99531445D01*
X160385736Y-99521022D01*
X160452569Y-99508018D01*
X160528328Y-99493449D01*
X160607665Y-99478333D01*
X160685237Y-99463685D01*
X160755698Y-99450523D01*
X160813702Y-99439863D01*
X160853904Y-99432721D01*
X160870959Y-99430114D01*
X160872112Y-99428541D01*
X160881385Y-99408119D01*
X160897432Y-99369045D01*
X160917635Y-99317629D01*
X160945672Y-99248353D01*
X160980186Y-99168290D01*
X161012538Y-99097728D01*
X161019952Y-99081889D01*
X161040755Y-99032293D01*
X161053219Y-98994038D01*
X161054863Y-98974356D01*
X161054015Y-98972962D01*
X161040548Y-98952420D01*
X161013850Y-98912516D01*
X160976539Y-98857140D01*
X160931234Y-98790177D01*
X160880552Y-98715517D01*
X160823445Y-98630692D01*
X160780607Y-98564800D01*
X160751460Y-98516478D01*
X160734317Y-98482733D01*
X160727495Y-98460572D01*
X160729306Y-98447002D01*
X160729915Y-98445984D01*
X160746297Y-98426210D01*
X160779695Y-98390175D01*
X160826671Y-98341451D01*
X160883786Y-98283612D01*
X160947603Y-98220227D01*
X161013802Y-98155905D01*
X161078648Y-98095447D01*
X161126299Y-98054655D01*
X161157990Y-98032484D01*
X161174958Y-98027889D01*
X161177175Y-98028921D01*
X161200524Y-98042837D01*
X161242912Y-98070030D01*
X161300369Y-98107889D01*
X161368923Y-98153803D01*
X161444601Y-98205160D01*
X161691298Y-98373626D01*
X161802706Y-98323062D01*
X161805943Y-98321597D01*
X161874343Y-98291965D01*
X161946907Y-98262493D01*
X162008457Y-98239358D01*
X162008729Y-98239262D01*
X162057595Y-98221367D01*
X162095212Y-98206253D01*
X162113457Y-98197184D01*
X162113752Y-98196855D01*
X162119946Y-98178282D01*
X162130139Y-98136045D01*
X162143348Y-98074696D01*
X162158590Y-97998789D01*
X162174881Y-97912875D01*
X162175449Y-97909796D01*
X162191713Y-97822128D01*
X162206608Y-97742741D01*
X162219171Y-97676701D01*
X162228438Y-97629079D01*
X162233444Y-97604943D01*
X162233764Y-97603605D01*
X162237060Y-97593273D01*
X162243738Y-97585506D01*
X162257462Y-97579940D01*
X162281895Y-97576207D01*
X162320702Y-97573942D01*
X162377546Y-97572778D01*
X162456090Y-97572348D01*
X162560000Y-97572286D01*
X162573056Y-97572286D01*
X162673933Y-97572371D01*
G36*
X161789537Y-102636313D02*
G01*
X161781345Y-102713462D01*
X161763519Y-102771276D01*
X161733975Y-102815422D01*
X161690625Y-102851568D01*
X161649332Y-102872463D01*
X161579987Y-102884090D01*
X161510736Y-102871377D01*
X161448145Y-102835945D01*
X161398779Y-102779418D01*
X161392818Y-102768995D01*
X161384945Y-102750733D01*
X161379106Y-102727429D01*
X161374999Y-102695085D01*
X161372325Y-102649704D01*
X161370781Y-102587287D01*
X161370734Y-102581748D01*
X161471429Y-102581748D01*
X161471772Y-102634577D01*
X161473942Y-102682362D01*
X161479307Y-102713209D01*
X161489217Y-102733935D01*
X161505021Y-102751356D01*
X161508724Y-102754705D01*
X161556299Y-102779419D01*
X161606635Y-102776890D01*
X161653517Y-102747288D01*
X161667477Y-102731953D01*
X161679160Y-102711622D01*
X161685686Y-102683514D01*
X161688524Y-102640550D01*
X161689143Y-102575647D01*
X161688837Y-102526122D01*
X161686722Y-102477782D01*
X161681390Y-102446587D01*
X161671460Y-102425647D01*
X161655550Y-102408073D01*
X161646204Y-102400159D01*
X161597776Y-102378843D01*
X161547040Y-102382198D01*
X161502987Y-102410107D01*
X161493504Y-102421173D01*
X161481939Y-102442009D01*
X161475252Y-102471106D01*
X161472173Y-102515381D01*
X161471429Y-102581748D01*
X161370734Y-102581748D01*
X161370067Y-102503837D01*
X161369883Y-102395358D01*
X161369829Y-102058601D01*
X161417000Y-102078362D01*
X161429472Y-102083770D01*
X161449324Y-102095985D01*
X161460687Y-102114482D01*
X161466933Y-102146829D01*
X161471429Y-102200593D01*
X161475535Y-102248866D01*
X161480963Y-102280557D01*
X161488739Y-102292383D01*
X161500457Y-102289212D01*
X161530318Y-102278067D01*
X161583684Y-102275304D01*
X161641093Y-102285625D01*
X161690625Y-102307861D01*
X161717876Y-102328443D01*
X161752865Y-102368600D01*
X161775274Y-102420086D01*
X161787190Y-102488568D01*
X161790542Y-102575647D01*
X161790698Y-102579714D01*
X161789537Y-102636313D01*
G37*
X161789537Y-102636313D02*
X161781345Y-102713462D01*
X161763519Y-102771276D01*
X161733975Y-102815422D01*
X161690625Y-102851568D01*
X161649332Y-102872463D01*
X161579987Y-102884090D01*
X161510736Y-102871377D01*
X161448145Y-102835945D01*
X161398779Y-102779418D01*
X161392818Y-102768995D01*
X161384945Y-102750733D01*
X161379106Y-102727429D01*
X161374999Y-102695085D01*
X161372325Y-102649704D01*
X161370781Y-102587287D01*
X161370734Y-102581748D01*
X161471429Y-102581748D01*
X161471772Y-102634577D01*
X161473942Y-102682362D01*
X161479307Y-102713209D01*
X161489217Y-102733935D01*
X161505021Y-102751356D01*
X161508724Y-102754705D01*
X161556299Y-102779419D01*
X161606635Y-102776890D01*
X161653517Y-102747288D01*
X161667477Y-102731953D01*
X161679160Y-102711622D01*
X161685686Y-102683514D01*
X161688524Y-102640550D01*
X161689143Y-102575647D01*
X161688837Y-102526122D01*
X161686722Y-102477782D01*
X161681390Y-102446587D01*
X161671460Y-102425647D01*
X161655550Y-102408073D01*
X161646204Y-102400159D01*
X161597776Y-102378843D01*
X161547040Y-102382198D01*
X161502987Y-102410107D01*
X161493504Y-102421173D01*
X161481939Y-102442009D01*
X161475252Y-102471106D01*
X161472173Y-102515381D01*
X161471429Y-102581748D01*
X161370734Y-102581748D01*
X161370067Y-102503837D01*
X161369883Y-102395358D01*
X161369829Y-102058601D01*
X161417000Y-102078362D01*
X161429472Y-102083770D01*
X161449324Y-102095985D01*
X161460687Y-102114482D01*
X161466933Y-102146829D01*
X161471429Y-102200593D01*
X161475535Y-102248866D01*
X161480963Y-102280557D01*
X161488739Y-102292383D01*
X161500457Y-102289212D01*
X161530318Y-102278067D01*
X161583684Y-102275304D01*
X161641093Y-102285625D01*
X161690625Y-102307861D01*
X161717876Y-102328443D01*
X161752865Y-102368600D01*
X161775274Y-102420086D01*
X161787190Y-102488568D01*
X161790542Y-102575647D01*
X161790698Y-102579714D01*
X161789537Y-102636313D01*
G36*
X165271252Y-102743000D02*
G01*
X165271651Y-102775339D01*
X165272929Y-102883455D01*
X165273185Y-102966186D01*
X165271634Y-103026426D01*
X165267490Y-103067073D01*
X165259964Y-103091023D01*
X165248271Y-103101171D01*
X165231624Y-103100414D01*
X165209236Y-103091648D01*
X165180321Y-103077769D01*
X165174142Y-103074808D01*
X165148413Y-103060311D01*
X165134976Y-103043065D01*
X165129834Y-103014308D01*
X165128990Y-102965283D01*
X165128952Y-102877257D01*
X165038276Y-102877257D01*
X164982498Y-102874815D01*
X164938640Y-102864908D01*
X164902218Y-102844886D01*
X164899503Y-102842929D01*
X164862546Y-102809869D01*
X164836826Y-102769931D01*
X164820606Y-102717657D01*
X164812148Y-102647588D01*
X164810083Y-102568430D01*
X164954857Y-102568430D01*
X164954882Y-102581697D01*
X164956261Y-102641584D01*
X164960687Y-102680732D01*
X164969461Y-102706153D01*
X164983886Y-102724857D01*
X164984784Y-102725750D01*
X165020237Y-102749952D01*
X165054596Y-102747567D01*
X165093403Y-102718260D01*
X165102895Y-102708244D01*
X165116876Y-102687708D01*
X165124760Y-102660997D01*
X165128245Y-102620499D01*
X165129029Y-102558603D01*
X165128350Y-102521130D01*
X165120983Y-102452980D01*
X165104168Y-102408330D01*
X165076234Y-102383926D01*
X165035509Y-102376514D01*
X165018350Y-102378094D01*
X164988660Y-102393766D01*
X164969031Y-102428691D01*
X164958188Y-102485901D01*
X164954857Y-102568430D01*
X164810083Y-102568430D01*
X164809714Y-102554267D01*
X164810253Y-102486169D01*
X164812707Y-102434587D01*
X164818158Y-102398816D01*
X164827686Y-102372015D01*
X164842371Y-102347338D01*
X164855852Y-102328480D01*
X164904799Y-102277568D01*
X164960256Y-102249918D01*
X165029928Y-102241165D01*
X165109664Y-102249890D01*
X165178595Y-102281185D01*
X165233113Y-102336381D01*
X165237223Y-102342224D01*
X165246808Y-102357753D01*
X165254151Y-102375498D01*
X165259612Y-102399290D01*
X165263550Y-102432958D01*
X165266323Y-102480333D01*
X165268292Y-102545245D01*
X165268528Y-102558603D01*
X165269815Y-102631524D01*
X165271252Y-102743000D01*
G37*
X165271252Y-102743000D02*
X165271651Y-102775339D01*
X165272929Y-102883455D01*
X165273185Y-102966186D01*
X165271634Y-103026426D01*
X165267490Y-103067073D01*
X165259964Y-103091023D01*
X165248271Y-103101171D01*
X165231624Y-103100414D01*
X165209236Y-103091648D01*
X165180321Y-103077769D01*
X165174142Y-103074808D01*
X165148413Y-103060311D01*
X165134976Y-103043065D01*
X165129834Y-103014308D01*
X165128990Y-102965283D01*
X165128952Y-102877257D01*
X165038276Y-102877257D01*
X164982498Y-102874815D01*
X164938640Y-102864908D01*
X164902218Y-102844886D01*
X164899503Y-102842929D01*
X164862546Y-102809869D01*
X164836826Y-102769931D01*
X164820606Y-102717657D01*
X164812148Y-102647588D01*
X164810083Y-102568430D01*
X164954857Y-102568430D01*
X164954882Y-102581697D01*
X164956261Y-102641584D01*
X164960687Y-102680732D01*
X164969461Y-102706153D01*
X164983886Y-102724857D01*
X164984784Y-102725750D01*
X165020237Y-102749952D01*
X165054596Y-102747567D01*
X165093403Y-102718260D01*
X165102895Y-102708244D01*
X165116876Y-102687708D01*
X165124760Y-102660997D01*
X165128245Y-102620499D01*
X165129029Y-102558603D01*
X165128350Y-102521130D01*
X165120983Y-102452980D01*
X165104168Y-102408330D01*
X165076234Y-102383926D01*
X165035509Y-102376514D01*
X165018350Y-102378094D01*
X164988660Y-102393766D01*
X164969031Y-102428691D01*
X164958188Y-102485901D01*
X164954857Y-102568430D01*
X164810083Y-102568430D01*
X164809714Y-102554267D01*
X164810253Y-102486169D01*
X164812707Y-102434587D01*
X164818158Y-102398816D01*
X164827686Y-102372015D01*
X164842371Y-102347338D01*
X164855852Y-102328480D01*
X164904799Y-102277568D01*
X164960256Y-102249918D01*
X165029928Y-102241165D01*
X165109664Y-102249890D01*
X165178595Y-102281185D01*
X165233113Y-102336381D01*
X165237223Y-102342224D01*
X165246808Y-102357753D01*
X165254151Y-102375498D01*
X165259612Y-102399290D01*
X165263550Y-102432958D01*
X165266323Y-102480333D01*
X165268292Y-102545245D01*
X165268528Y-102558603D01*
X165269815Y-102631524D01*
X165271252Y-102743000D01*
G36*
X165825701Y-102580935D02*
G01*
X165824914Y-102651119D01*
X165822210Y-102700022D01*
X165816606Y-102734178D01*
X165807119Y-102760124D01*
X165792768Y-102784397D01*
X165789237Y-102789433D01*
X165751878Y-102829143D01*
X165709311Y-102859092D01*
X165687452Y-102868810D01*
X165608908Y-102885020D01*
X165531231Y-102874535D01*
X165459645Y-102838707D01*
X165399374Y-102778887D01*
X165394286Y-102770873D01*
X165377730Y-102724342D01*
X165366573Y-102659552D01*
X165361160Y-102584727D01*
X165361768Y-102515513D01*
X165508248Y-102515513D01*
X165509402Y-102611399D01*
X165509866Y-102617569D01*
X165516629Y-102670478D01*
X165528671Y-102704029D01*
X165549005Y-102727016D01*
X165583097Y-102748548D01*
X165616814Y-102749680D01*
X165651543Y-102724857D01*
X165657584Y-102718325D01*
X165669417Y-102698779D01*
X165676404Y-102670386D01*
X165679727Y-102626430D01*
X165680571Y-102560192D01*
X165679125Y-102498150D01*
X165671907Y-102439042D01*
X165657006Y-102401686D01*
X165632636Y-102382152D01*
X165597008Y-102376514D01*
X165583440Y-102377635D01*
X165545430Y-102398194D01*
X165520312Y-102444299D01*
X165508248Y-102515513D01*
X165361768Y-102515513D01*
X165361833Y-102508096D01*
X165368937Y-102437882D01*
X165382815Y-102382312D01*
X165400649Y-102345301D01*
X165450855Y-102287733D01*
X165518885Y-102251962D01*
X165602158Y-102239665D01*
X165624398Y-102240331D01*
X165689891Y-102253947D01*
X165743687Y-102288249D01*
X165793057Y-102347338D01*
X165795995Y-102351722D01*
X165809287Y-102375299D01*
X165817932Y-102401949D01*
X165822904Y-102438159D01*
X165825174Y-102490413D01*
X165825678Y-102560192D01*
X165825714Y-102565200D01*
X165825701Y-102580935D01*
G37*
X165825701Y-102580935D02*
X165824914Y-102651119D01*
X165822210Y-102700022D01*
X165816606Y-102734178D01*
X165807119Y-102760124D01*
X165792768Y-102784397D01*
X165789237Y-102789433D01*
X165751878Y-102829143D01*
X165709311Y-102859092D01*
X165687452Y-102868810D01*
X165608908Y-102885020D01*
X165531231Y-102874535D01*
X165459645Y-102838707D01*
X165399374Y-102778887D01*
X165394286Y-102770873D01*
X165377730Y-102724342D01*
X165366573Y-102659552D01*
X165361160Y-102584727D01*
X165361768Y-102515513D01*
X165508248Y-102515513D01*
X165509402Y-102611399D01*
X165509866Y-102617569D01*
X165516629Y-102670478D01*
X165528671Y-102704029D01*
X165549005Y-102727016D01*
X165583097Y-102748548D01*
X165616814Y-102749680D01*
X165651543Y-102724857D01*
X165657584Y-102718325D01*
X165669417Y-102698779D01*
X165676404Y-102670386D01*
X165679727Y-102626430D01*
X165680571Y-102560192D01*
X165679125Y-102498150D01*
X165671907Y-102439042D01*
X165657006Y-102401686D01*
X165632636Y-102382152D01*
X165597008Y-102376514D01*
X165583440Y-102377635D01*
X165545430Y-102398194D01*
X165520312Y-102444299D01*
X165508248Y-102515513D01*
X165361768Y-102515513D01*
X165361833Y-102508096D01*
X165368937Y-102437882D01*
X165382815Y-102382312D01*
X165400649Y-102345301D01*
X165450855Y-102287733D01*
X165518885Y-102251962D01*
X165602158Y-102239665D01*
X165624398Y-102240331D01*
X165689891Y-102253947D01*
X165743687Y-102288249D01*
X165793057Y-102347338D01*
X165795995Y-102351722D01*
X165809287Y-102375299D01*
X165817932Y-102401949D01*
X165822904Y-102438159D01*
X165825174Y-102490413D01*
X165825678Y-102560192D01*
X165825714Y-102565200D01*
X165825701Y-102580935D01*
G36*
X160527495Y-102276220D02*
G01*
X160558599Y-102284121D01*
X160587559Y-102303817D01*
X160624831Y-102340484D01*
X160648801Y-102366378D01*
X160673770Y-102399997D01*
X160685031Y-102431506D01*
X160687657Y-102471485D01*
X160687657Y-102536917D01*
X160643035Y-102513842D01*
X160607673Y-102485724D01*
X160583451Y-102447848D01*
X160579291Y-102437551D01*
X160547594Y-102397637D01*
X160503554Y-102377624D01*
X160455531Y-102379572D01*
X160411886Y-102405543D01*
X160393420Y-102426635D01*
X160382663Y-102453619D01*
X160394178Y-102477634D01*
X160429981Y-102501791D01*
X160492090Y-102529199D01*
X160501515Y-102532985D01*
X160558058Y-102557759D01*
X160606580Y-102582189D01*
X160637451Y-102601486D01*
X160668371Y-102635953D01*
X160688927Y-102690957D01*
X160686744Y-102749983D01*
X160662424Y-102805845D01*
X160616568Y-102851355D01*
X160579438Y-102870727D01*
X160507711Y-102884292D01*
X160467852Y-102882462D01*
X160430953Y-102872568D01*
X160416797Y-102851806D01*
X160422091Y-102817613D01*
X160423631Y-102813092D01*
X160435842Y-102789116D01*
X160456174Y-102780042D01*
X160494908Y-102780649D01*
X160522257Y-102781474D01*
X160554257Y-102774392D01*
X160576182Y-102753219D01*
X160588670Y-102727152D01*
X160590062Y-102699845D01*
X160589998Y-102699685D01*
X160573807Y-102684930D01*
X160539155Y-102663457D01*
X160494321Y-102639458D01*
X160447582Y-102617125D01*
X160407217Y-102600652D01*
X160381504Y-102594229D01*
X160377679Y-102600518D01*
X160372864Y-102630115D01*
X160369566Y-102678447D01*
X160368343Y-102739372D01*
X160368058Y-102781542D01*
X160366718Y-102834653D01*
X160364528Y-102871025D01*
X160361769Y-102884514D01*
X160347344Y-102879981D01*
X160318226Y-102867670D01*
X160281257Y-102850826D01*
X160281257Y-102634721D01*
X160281493Y-102579327D01*
X160283729Y-102495207D01*
X160289423Y-102432800D01*
X160299903Y-102387358D01*
X160316497Y-102354133D01*
X160340531Y-102328378D01*
X160373333Y-102305344D01*
X160415124Y-102286335D01*
X160492287Y-102274914D01*
X160527495Y-102276220D01*
G37*
X160527495Y-102276220D02*
X160558599Y-102284121D01*
X160587559Y-102303817D01*
X160624831Y-102340484D01*
X160648801Y-102366378D01*
X160673770Y-102399997D01*
X160685031Y-102431506D01*
X160687657Y-102471485D01*
X160687657Y-102536917D01*
X160643035Y-102513842D01*
X160607673Y-102485724D01*
X160583451Y-102447848D01*
X160579291Y-102437551D01*
X160547594Y-102397637D01*
X160503554Y-102377624D01*
X160455531Y-102379572D01*
X160411886Y-102405543D01*
X160393420Y-102426635D01*
X160382663Y-102453619D01*
X160394178Y-102477634D01*
X160429981Y-102501791D01*
X160492090Y-102529199D01*
X160501515Y-102532985D01*
X160558058Y-102557759D01*
X160606580Y-102582189D01*
X160637451Y-102601486D01*
X160668371Y-102635953D01*
X160688927Y-102690957D01*
X160686744Y-102749983D01*
X160662424Y-102805845D01*
X160616568Y-102851355D01*
X160579438Y-102870727D01*
X160507711Y-102884292D01*
X160467852Y-102882462D01*
X160430953Y-102872568D01*
X160416797Y-102851806D01*
X160422091Y-102817613D01*
X160423631Y-102813092D01*
X160435842Y-102789116D01*
X160456174Y-102780042D01*
X160494908Y-102780649D01*
X160522257Y-102781474D01*
X160554257Y-102774392D01*
X160576182Y-102753219D01*
X160588670Y-102727152D01*
X160590062Y-102699845D01*
X160589998Y-102699685D01*
X160573807Y-102684930D01*
X160539155Y-102663457D01*
X160494321Y-102639458D01*
X160447582Y-102617125D01*
X160407217Y-102600652D01*
X160381504Y-102594229D01*
X160377679Y-102600518D01*
X160372864Y-102630115D01*
X160369566Y-102678447D01*
X160368343Y-102739372D01*
X160368058Y-102781542D01*
X160366718Y-102834653D01*
X160364528Y-102871025D01*
X160361769Y-102884514D01*
X160347344Y-102879981D01*
X160318226Y-102867670D01*
X160281257Y-102850826D01*
X160281257Y-102634721D01*
X160281493Y-102579327D01*
X160283729Y-102495207D01*
X160289423Y-102432800D01*
X160299903Y-102387358D01*
X160316497Y-102354133D01*
X160340531Y-102328378D01*
X160373333Y-102305344D01*
X160415124Y-102286335D01*
X160492287Y-102274914D01*
X160527495Y-102276220D01*
G36*
X161213941Y-102279282D02*
G01*
X161245774Y-102291758D01*
X161282743Y-102308602D01*
X161282743Y-102795196D01*
X161236812Y-102841127D01*
X161226320Y-102851427D01*
X161197255Y-102874320D01*
X161167943Y-102881735D01*
X161124326Y-102878321D01*
X161106568Y-102876114D01*
X161060767Y-102871445D01*
X161028743Y-102869585D01*
X161019244Y-102869869D01*
X160980274Y-102872948D01*
X160933160Y-102878321D01*
X160918085Y-102880168D01*
X160880110Y-102880893D01*
X160852325Y-102869429D01*
X160820674Y-102841127D01*
X160774743Y-102795196D01*
X160774743Y-102535055D01*
X160775101Y-102458180D01*
X160776216Y-102384886D01*
X160777952Y-102326850D01*
X160780167Y-102288663D01*
X160782721Y-102274914D01*
X160783256Y-102274951D01*
X160801808Y-102281793D01*
X160833153Y-102296868D01*
X160875608Y-102318822D01*
X160879604Y-102547240D01*
X160883600Y-102775657D01*
X160970686Y-102775657D01*
X160974657Y-102525286D01*
X160975916Y-102457227D01*
X160977718Y-102384482D01*
X160979671Y-102326730D01*
X160981612Y-102288648D01*
X160983377Y-102274914D01*
X160983885Y-102274962D01*
X161001482Y-102280015D01*
X161033834Y-102290849D01*
X161079543Y-102306783D01*
X161079765Y-102526706D01*
X161079988Y-102564909D01*
X161081531Y-102639146D01*
X161084292Y-102701145D01*
X161087977Y-102745308D01*
X161092292Y-102766041D01*
X161107732Y-102777131D01*
X161139241Y-102780556D01*
X161173886Y-102775657D01*
X161177857Y-102525286D01*
X161179278Y-102461663D01*
X161182225Y-102386356D01*
X161186079Y-102327286D01*
X161190542Y-102288718D01*
X161195317Y-102274914D01*
X161213941Y-102279282D01*
G37*
X161213941Y-102279282D02*
X161245774Y-102291758D01*
X161282743Y-102308602D01*
X161282743Y-102795196D01*
X161236812Y-102841127D01*
X161226320Y-102851427D01*
X161197255Y-102874320D01*
X161167943Y-102881735D01*
X161124326Y-102878321D01*
X161106568Y-102876114D01*
X161060767Y-102871445D01*
X161028743Y-102869585D01*
X161019244Y-102869869D01*
X160980274Y-102872948D01*
X160933160Y-102878321D01*
X160918085Y-102880168D01*
X160880110Y-102880893D01*
X160852325Y-102869429D01*
X160820674Y-102841127D01*
X160774743Y-102795196D01*
X160774743Y-102535055D01*
X160775101Y-102458180D01*
X160776216Y-102384886D01*
X160777952Y-102326850D01*
X160780167Y-102288663D01*
X160782721Y-102274914D01*
X160783256Y-102274951D01*
X160801808Y-102281793D01*
X160833153Y-102296868D01*
X160875608Y-102318822D01*
X160879604Y-102547240D01*
X160883600Y-102775657D01*
X160970686Y-102775657D01*
X160974657Y-102525286D01*
X160975916Y-102457227D01*
X160977718Y-102384482D01*
X160979671Y-102326730D01*
X160981612Y-102288648D01*
X160983377Y-102274914D01*
X160983885Y-102274962D01*
X161001482Y-102280015D01*
X161033834Y-102290849D01*
X161079543Y-102306783D01*
X161079765Y-102526706D01*
X161079988Y-102564909D01*
X161081531Y-102639146D01*
X161084292Y-102701145D01*
X161087977Y-102745308D01*
X161092292Y-102766041D01*
X161107732Y-102777131D01*
X161139241Y-102780556D01*
X161173886Y-102775657D01*
X161177857Y-102525286D01*
X161179278Y-102461663D01*
X161182225Y-102386356D01*
X161186079Y-102327286D01*
X161190542Y-102288718D01*
X161195317Y-102274914D01*
X161213941Y-102279282D01*
G36*
X167416734Y-94979083D02*
G01*
X167493831Y-94979275D01*
X167552777Y-94979860D01*
X167596364Y-94981051D01*
X167627383Y-94983064D01*
X167648625Y-94986112D01*
X167662882Y-94990409D01*
X167672945Y-94996172D01*
X167681606Y-95003612D01*
X167683391Y-95005293D01*
X167690635Y-95012832D01*
X167696277Y-95021850D01*
X167700517Y-95034984D01*
X167703556Y-95054872D01*
X167705594Y-95084151D01*
X167706830Y-95125458D01*
X167707465Y-95181431D01*
X167707700Y-95254707D01*
X167707734Y-95347923D01*
X167707697Y-95420713D01*
X167707448Y-95498889D01*
X167706812Y-95559103D01*
X167705615Y-95603982D01*
X167703684Y-95636152D01*
X167700846Y-95658239D01*
X167696927Y-95672870D01*
X167691755Y-95682670D01*
X167685156Y-95690267D01*
X167681822Y-95693444D01*
X167673300Y-95699554D01*
X167661298Y-95704229D01*
X167643087Y-95707659D01*
X167615940Y-95710036D01*
X167577129Y-95711552D01*
X167523924Y-95712398D01*
X167453598Y-95712765D01*
X167363422Y-95712845D01*
X167321314Y-95712833D01*
X167240167Y-95712651D01*
X167177675Y-95712098D01*
X167131109Y-95710982D01*
X167097741Y-95709113D01*
X167074844Y-95706298D01*
X167059688Y-95702346D01*
X167049546Y-95697066D01*
X167041689Y-95690267D01*
X167026963Y-95668667D01*
X167019111Y-95639467D01*
X167024610Y-95615560D01*
X167041689Y-95588667D01*
X167046668Y-95584059D01*
X167056443Y-95577772D01*
X167070559Y-95573146D01*
X167092054Y-95569930D01*
X167123968Y-95567870D01*
X167169342Y-95566712D01*
X167231213Y-95566202D01*
X167312622Y-95566089D01*
X167560978Y-95566089D01*
X167560978Y-95408045D01*
X167399801Y-95408045D01*
X167363983Y-95407899D01*
X167298359Y-95406176D01*
X167251118Y-95401741D01*
X167219383Y-95393637D01*
X167200277Y-95380906D01*
X167190923Y-95362592D01*
X167188445Y-95337738D01*
X167189242Y-95317482D01*
X167194494Y-95295656D01*
X167207288Y-95280304D01*
X167230628Y-95270309D01*
X167267517Y-95264553D01*
X167320959Y-95261919D01*
X167393958Y-95261289D01*
X167562105Y-95261289D01*
X167558719Y-95196378D01*
X167555334Y-95131467D01*
X167307617Y-95128418D01*
X167245026Y-95127539D01*
X167176565Y-95126095D01*
X167125661Y-95124164D01*
X167089408Y-95121514D01*
X167064901Y-95117910D01*
X167049235Y-95113121D01*
X167039506Y-95106913D01*
X167033491Y-95100510D01*
X167020482Y-95068828D01*
X167024043Y-95033142D01*
X167043818Y-95002084D01*
X167047069Y-94999161D01*
X167056049Y-94992810D01*
X167068153Y-94987957D01*
X167086159Y-94984403D01*
X167112847Y-94981946D01*
X167150997Y-94980385D01*
X167203386Y-94979518D01*
X167272794Y-94979146D01*
X167362001Y-94979067D01*
X167416734Y-94979083D01*
G37*
X167416734Y-94979083D02*
X167493831Y-94979275D01*
X167552777Y-94979860D01*
X167596364Y-94981051D01*
X167627383Y-94983064D01*
X167648625Y-94986112D01*
X167662882Y-94990409D01*
X167672945Y-94996172D01*
X167681606Y-95003612D01*
X167683391Y-95005293D01*
X167690635Y-95012832D01*
X167696277Y-95021850D01*
X167700517Y-95034984D01*
X167703556Y-95054872D01*
X167705594Y-95084151D01*
X167706830Y-95125458D01*
X167707465Y-95181431D01*
X167707700Y-95254707D01*
X167707734Y-95347923D01*
X167707697Y-95420713D01*
X167707448Y-95498889D01*
X167706812Y-95559103D01*
X167705615Y-95603982D01*
X167703684Y-95636152D01*
X167700846Y-95658239D01*
X167696927Y-95672870D01*
X167691755Y-95682670D01*
X167685156Y-95690267D01*
X167681822Y-95693444D01*
X167673300Y-95699554D01*
X167661298Y-95704229D01*
X167643087Y-95707659D01*
X167615940Y-95710036D01*
X167577129Y-95711552D01*
X167523924Y-95712398D01*
X167453598Y-95712765D01*
X167363422Y-95712845D01*
X167321314Y-95712833D01*
X167240167Y-95712651D01*
X167177675Y-95712098D01*
X167131109Y-95710982D01*
X167097741Y-95709113D01*
X167074844Y-95706298D01*
X167059688Y-95702346D01*
X167049546Y-95697066D01*
X167041689Y-95690267D01*
X167026963Y-95668667D01*
X167019111Y-95639467D01*
X167024610Y-95615560D01*
X167041689Y-95588667D01*
X167046668Y-95584059D01*
X167056443Y-95577772D01*
X167070559Y-95573146D01*
X167092054Y-95569930D01*
X167123968Y-95567870D01*
X167169342Y-95566712D01*
X167231213Y-95566202D01*
X167312622Y-95566089D01*
X167560978Y-95566089D01*
X167560978Y-95408045D01*
X167399801Y-95408045D01*
X167363983Y-95407899D01*
X167298359Y-95406176D01*
X167251118Y-95401741D01*
X167219383Y-95393637D01*
X167200277Y-95380906D01*
X167190923Y-95362592D01*
X167188445Y-95337738D01*
X167189242Y-95317482D01*
X167194494Y-95295656D01*
X167207288Y-95280304D01*
X167230628Y-95270309D01*
X167267517Y-95264553D01*
X167320959Y-95261919D01*
X167393958Y-95261289D01*
X167562105Y-95261289D01*
X167558719Y-95196378D01*
X167555334Y-95131467D01*
X167307617Y-95128418D01*
X167245026Y-95127539D01*
X167176565Y-95126095D01*
X167125661Y-95124164D01*
X167089408Y-95121514D01*
X167064901Y-95117910D01*
X167049235Y-95113121D01*
X167039506Y-95106913D01*
X167033491Y-95100510D01*
X167020482Y-95068828D01*
X167024043Y-95033142D01*
X167043818Y-95002084D01*
X167047069Y-94999161D01*
X167056049Y-94992810D01*
X167068153Y-94987957D01*
X167086159Y-94984403D01*
X167112847Y-94981946D01*
X167150997Y-94980385D01*
X167203386Y-94979518D01*
X167272794Y-94979146D01*
X167362001Y-94979067D01*
X167416734Y-94979083D01*
G36*
X165546137Y-94983463D02*
G01*
X165580291Y-95006776D01*
X165608000Y-95034485D01*
X165608000Y-95347537D01*
X165607959Y-95431567D01*
X165607701Y-95505789D01*
X165607030Y-95562541D01*
X165605752Y-95604512D01*
X165603673Y-95634389D01*
X165600599Y-95654861D01*
X165596334Y-95668614D01*
X165590684Y-95678337D01*
X165583455Y-95686717D01*
X165551991Y-95708181D01*
X165516826Y-95709947D01*
X165483822Y-95690267D01*
X165478516Y-95684398D01*
X165473066Y-95675314D01*
X165468900Y-95661973D01*
X165465846Y-95641757D01*
X165463732Y-95612049D01*
X165462386Y-95570232D01*
X165461638Y-95513689D01*
X165461314Y-95439802D01*
X165461245Y-95345956D01*
X165461284Y-95270294D01*
X165461539Y-95192385D01*
X165462183Y-95132375D01*
X165463387Y-95087648D01*
X165465324Y-95055585D01*
X165468164Y-95033571D01*
X165472079Y-95018987D01*
X165477242Y-95009218D01*
X165483822Y-95001645D01*
X165513006Y-94982623D01*
X165546137Y-94983463D01*
G37*
X165546137Y-94983463D02*
X165580291Y-95006776D01*
X165608000Y-95034485D01*
X165608000Y-95347537D01*
X165607959Y-95431567D01*
X165607701Y-95505789D01*
X165607030Y-95562541D01*
X165605752Y-95604512D01*
X165603673Y-95634389D01*
X165600599Y-95654861D01*
X165596334Y-95668614D01*
X165590684Y-95678337D01*
X165583455Y-95686717D01*
X165551991Y-95708181D01*
X165516826Y-95709947D01*
X165483822Y-95690267D01*
X165478516Y-95684398D01*
X165473066Y-95675314D01*
X165468900Y-95661973D01*
X165465846Y-95641757D01*
X165463732Y-95612049D01*
X165462386Y-95570232D01*
X165461638Y-95513689D01*
X165461314Y-95439802D01*
X165461245Y-95345956D01*
X165461284Y-95270294D01*
X165461539Y-95192385D01*
X165462183Y-95132375D01*
X165463387Y-95087648D01*
X165465324Y-95055585D01*
X165468164Y-95033571D01*
X165472079Y-95018987D01*
X165477242Y-95009218D01*
X165483822Y-95001645D01*
X165513006Y-94982623D01*
X165546137Y-94983463D01*
G36*
X161743163Y-95623175D02*
G01*
X161740235Y-95646095D01*
X161736158Y-95661897D01*
X161730743Y-95673319D01*
X161723803Y-95683100D01*
X161700406Y-95712845D01*
X161534714Y-95712251D01*
X161499918Y-95711953D01*
X161401435Y-95708522D01*
X161320473Y-95700839D01*
X161253379Y-95688282D01*
X161196496Y-95670227D01*
X161146169Y-95646052D01*
X161142810Y-95644135D01*
X161084998Y-95607417D01*
X161042644Y-95570451D01*
X161009828Y-95526966D01*
X160980628Y-95470689D01*
X160976346Y-95461073D01*
X160953769Y-95397887D01*
X160948034Y-95352333D01*
X161097279Y-95352333D01*
X161102892Y-95377061D01*
X161108618Y-95392939D01*
X161141548Y-95452847D01*
X161188886Y-95498600D01*
X161252652Y-95531736D01*
X161334861Y-95553790D01*
X161337655Y-95554292D01*
X161383940Y-95560255D01*
X161440336Y-95564483D01*
X161495274Y-95566089D01*
X161589156Y-95566089D01*
X161589156Y-95125822D01*
X161501667Y-95126270D01*
X161434747Y-95128746D01*
X161342349Y-95139998D01*
X161263034Y-95159537D01*
X161201060Y-95186511D01*
X161170120Y-95207240D01*
X161142000Y-95237006D01*
X161118660Y-95279434D01*
X161111533Y-95295400D01*
X161099709Y-95327902D01*
X161097279Y-95352333D01*
X160948034Y-95352333D01*
X160946797Y-95342509D01*
X160955399Y-95287483D01*
X160979541Y-95225351D01*
X160980337Y-95223658D01*
X161020788Y-95154236D01*
X161071473Y-95097638D01*
X161134198Y-95053070D01*
X161210774Y-95019741D01*
X161303009Y-94996861D01*
X161412712Y-94983636D01*
X161541691Y-94979275D01*
X161545263Y-94979270D01*
X161605283Y-94979410D01*
X161647214Y-94980446D01*
X161675328Y-94983040D01*
X161693897Y-94987853D01*
X161707194Y-94995544D01*
X161719491Y-95006776D01*
X161747200Y-95034485D01*
X161747200Y-95343920D01*
X161747175Y-95405526D01*
X161746950Y-95484311D01*
X161746332Y-95545021D01*
X161745775Y-95566089D01*
X161745133Y-95590396D01*
X161743163Y-95623175D01*
G37*
X161743163Y-95623175D02*
X161740235Y-95646095D01*
X161736158Y-95661897D01*
X161730743Y-95673319D01*
X161723803Y-95683100D01*
X161700406Y-95712845D01*
X161534714Y-95712251D01*
X161499918Y-95711953D01*
X161401435Y-95708522D01*
X161320473Y-95700839D01*
X161253379Y-95688282D01*
X161196496Y-95670227D01*
X161146169Y-95646052D01*
X161142810Y-95644135D01*
X161084998Y-95607417D01*
X161042644Y-95570451D01*
X161009828Y-95526966D01*
X160980628Y-95470689D01*
X160976346Y-95461073D01*
X160953769Y-95397887D01*
X160948034Y-95352333D01*
X161097279Y-95352333D01*
X161102892Y-95377061D01*
X161108618Y-95392939D01*
X161141548Y-95452847D01*
X161188886Y-95498600D01*
X161252652Y-95531736D01*
X161334861Y-95553790D01*
X161337655Y-95554292D01*
X161383940Y-95560255D01*
X161440336Y-95564483D01*
X161495274Y-95566089D01*
X161589156Y-95566089D01*
X161589156Y-95125822D01*
X161501667Y-95126270D01*
X161434747Y-95128746D01*
X161342349Y-95139998D01*
X161263034Y-95159537D01*
X161201060Y-95186511D01*
X161170120Y-95207240D01*
X161142000Y-95237006D01*
X161118660Y-95279434D01*
X161111533Y-95295400D01*
X161099709Y-95327902D01*
X161097279Y-95352333D01*
X160948034Y-95352333D01*
X160946797Y-95342509D01*
X160955399Y-95287483D01*
X160979541Y-95225351D01*
X160980337Y-95223658D01*
X161020788Y-95154236D01*
X161071473Y-95097638D01*
X161134198Y-95053070D01*
X161210774Y-95019741D01*
X161303009Y-94996861D01*
X161412712Y-94983636D01*
X161541691Y-94979275D01*
X161545263Y-94979270D01*
X161605283Y-94979410D01*
X161647214Y-94980446D01*
X161675328Y-94983040D01*
X161693897Y-94987853D01*
X161707194Y-94995544D01*
X161719491Y-95006776D01*
X161747200Y-95034485D01*
X161747200Y-95343920D01*
X161747175Y-95405526D01*
X161746950Y-95484311D01*
X161746332Y-95545021D01*
X161745775Y-95566089D01*
X161745133Y-95590396D01*
X161743163Y-95623175D01*
G36*
X158415406Y-94984949D02*
G01*
X158441127Y-95000647D01*
X158467778Y-95022227D01*
X158467778Y-95669684D01*
X158441127Y-95691264D01*
X158409767Y-95708739D01*
X158373966Y-95709575D01*
X158342528Y-95689082D01*
X158338652Y-95684416D01*
X158333186Y-95674949D01*
X158328979Y-95661267D01*
X158325867Y-95640748D01*
X158323687Y-95610768D01*
X158322276Y-95568704D01*
X158321471Y-95511932D01*
X158321107Y-95437830D01*
X158321022Y-95343773D01*
X158321022Y-95022227D01*
X158347673Y-95000647D01*
X158371386Y-94985877D01*
X158394400Y-94979067D01*
X158415406Y-94984949D01*
G37*
X158415406Y-94984949D02*
X158441127Y-95000647D01*
X158467778Y-95022227D01*
X158467778Y-95669684D01*
X158441127Y-95691264D01*
X158409767Y-95708739D01*
X158373966Y-95709575D01*
X158342528Y-95689082D01*
X158338652Y-95684416D01*
X158333186Y-95674949D01*
X158328979Y-95661267D01*
X158325867Y-95640748D01*
X158323687Y-95610768D01*
X158322276Y-95568704D01*
X158321471Y-95511932D01*
X158321107Y-95437830D01*
X158321022Y-95343773D01*
X158321022Y-95022227D01*
X158347673Y-95000647D01*
X158371386Y-94985877D01*
X158394400Y-94979067D01*
X158415406Y-94984949D01*
G36*
X162739803Y-95008811D02*
G01*
X162744752Y-95015495D01*
X162750596Y-95026066D01*
X162755057Y-95040153D01*
X162758321Y-95060478D01*
X162760574Y-95089765D01*
X162762002Y-95130737D01*
X162762792Y-95186117D01*
X162763129Y-95258628D01*
X162763200Y-95350994D01*
X162763171Y-95416911D01*
X162762939Y-95495228D01*
X162762319Y-95555496D01*
X162761126Y-95600393D01*
X162759179Y-95632602D01*
X162756294Y-95654800D01*
X162752288Y-95669669D01*
X162746979Y-95679889D01*
X162740183Y-95688138D01*
X162735668Y-95692795D01*
X162727438Y-95699282D01*
X162716078Y-95704194D01*
X162698810Y-95707749D01*
X162672855Y-95710167D01*
X162635436Y-95711667D01*
X162583773Y-95712467D01*
X162515089Y-95712787D01*
X162426606Y-95712845D01*
X162406931Y-95712838D01*
X162319906Y-95712572D01*
X162252254Y-95711806D01*
X162201299Y-95710392D01*
X162164367Y-95708180D01*
X162138783Y-95705022D01*
X162121871Y-95700769D01*
X162110957Y-95695271D01*
X162100464Y-95685285D01*
X162087203Y-95654168D01*
X162088386Y-95618280D01*
X162104550Y-95586733D01*
X162106739Y-95584457D01*
X162115427Y-95578189D01*
X162128769Y-95573523D01*
X162149752Y-95570227D01*
X162181363Y-95568068D01*
X162226590Y-95566814D01*
X162288420Y-95566231D01*
X162369839Y-95566089D01*
X162616445Y-95566089D01*
X162616445Y-95408045D01*
X162454006Y-95408045D01*
X162418338Y-95407964D01*
X162362568Y-95407167D01*
X162323430Y-95405162D01*
X162296976Y-95401521D01*
X162279259Y-95395812D01*
X162266329Y-95387607D01*
X162262686Y-95384423D01*
X162244278Y-95353448D01*
X162243644Y-95317112D01*
X162261183Y-95283493D01*
X162261245Y-95283424D01*
X162270916Y-95274798D01*
X162284209Y-95268742D01*
X162304917Y-95264811D01*
X162336828Y-95262556D01*
X162383734Y-95261531D01*
X162449424Y-95261289D01*
X162617571Y-95261289D01*
X162614186Y-95196378D01*
X162610800Y-95131467D01*
X162368723Y-95128414D01*
X162343707Y-95128086D01*
X162262087Y-95126606D01*
X162199768Y-95124222D01*
X162154154Y-95120227D01*
X162122652Y-95113913D01*
X162102667Y-95104574D01*
X162091604Y-95091503D01*
X162086869Y-95073992D01*
X162085867Y-95051335D01*
X162085873Y-95048970D01*
X162087027Y-95028939D01*
X162091824Y-95013146D01*
X162102632Y-95001090D01*
X162121817Y-94992267D01*
X162151745Y-94986175D01*
X162194783Y-94982311D01*
X162253299Y-94980174D01*
X162329657Y-94979260D01*
X162426226Y-94979067D01*
X162716406Y-94979067D01*
X162739803Y-95008811D01*
G37*
X162739803Y-95008811D02*
X162744752Y-95015495D01*
X162750596Y-95026066D01*
X162755057Y-95040153D01*
X162758321Y-95060478D01*
X162760574Y-95089765D01*
X162762002Y-95130737D01*
X162762792Y-95186117D01*
X162763129Y-95258628D01*
X162763200Y-95350994D01*
X162763171Y-95416911D01*
X162762939Y-95495228D01*
X162762319Y-95555496D01*
X162761126Y-95600393D01*
X162759179Y-95632602D01*
X162756294Y-95654800D01*
X162752288Y-95669669D01*
X162746979Y-95679889D01*
X162740183Y-95688138D01*
X162735668Y-95692795D01*
X162727438Y-95699282D01*
X162716078Y-95704194D01*
X162698810Y-95707749D01*
X162672855Y-95710167D01*
X162635436Y-95711667D01*
X162583773Y-95712467D01*
X162515089Y-95712787D01*
X162426606Y-95712845D01*
X162406931Y-95712838D01*
X162319906Y-95712572D01*
X162252254Y-95711806D01*
X162201299Y-95710392D01*
X162164367Y-95708180D01*
X162138783Y-95705022D01*
X162121871Y-95700769D01*
X162110957Y-95695271D01*
X162100464Y-95685285D01*
X162087203Y-95654168D01*
X162088386Y-95618280D01*
X162104550Y-95586733D01*
X162106739Y-95584457D01*
X162115427Y-95578189D01*
X162128769Y-95573523D01*
X162149752Y-95570227D01*
X162181363Y-95568068D01*
X162226590Y-95566814D01*
X162288420Y-95566231D01*
X162369839Y-95566089D01*
X162616445Y-95566089D01*
X162616445Y-95408045D01*
X162454006Y-95408045D01*
X162418338Y-95407964D01*
X162362568Y-95407167D01*
X162323430Y-95405162D01*
X162296976Y-95401521D01*
X162279259Y-95395812D01*
X162266329Y-95387607D01*
X162262686Y-95384423D01*
X162244278Y-95353448D01*
X162243644Y-95317112D01*
X162261183Y-95283493D01*
X162261245Y-95283424D01*
X162270916Y-95274798D01*
X162284209Y-95268742D01*
X162304917Y-95264811D01*
X162336828Y-95262556D01*
X162383734Y-95261531D01*
X162449424Y-95261289D01*
X162617571Y-95261289D01*
X162614186Y-95196378D01*
X162610800Y-95131467D01*
X162368723Y-95128414D01*
X162343707Y-95128086D01*
X162262087Y-95126606D01*
X162199768Y-95124222D01*
X162154154Y-95120227D01*
X162122652Y-95113913D01*
X162102667Y-95104574D01*
X162091604Y-95091503D01*
X162086869Y-95073992D01*
X162085867Y-95051335D01*
X162085873Y-95048970D01*
X162087027Y-95028939D01*
X162091824Y-95013146D01*
X162102632Y-95001090D01*
X162121817Y-94992267D01*
X162151745Y-94986175D01*
X162194783Y-94982311D01*
X162253299Y-94980174D01*
X162329657Y-94979260D01*
X162426226Y-94979067D01*
X162716406Y-94979067D01*
X162739803Y-95008811D01*
G36*
X168836059Y-90953011D02*
G01*
X168836362Y-91100216D01*
X168836548Y-91264349D01*
X168836642Y-91446352D01*
X168836671Y-91647165D01*
X168836661Y-91867732D01*
X168836636Y-92108992D01*
X168836622Y-92371889D01*
X168836622Y-92414040D01*
X168836646Y-92674668D01*
X168836685Y-92913796D01*
X168836708Y-93132360D01*
X168836687Y-93331295D01*
X168836593Y-93511535D01*
X168836395Y-93674015D01*
X168836063Y-93819670D01*
X168835569Y-93949434D01*
X168834883Y-94064243D01*
X168833976Y-94165030D01*
X168832817Y-94252730D01*
X168831378Y-94328279D01*
X168829629Y-94392611D01*
X168827540Y-94446661D01*
X168825083Y-94491363D01*
X168822227Y-94527652D01*
X168818943Y-94556463D01*
X168815202Y-94578731D01*
X168810974Y-94595390D01*
X168806229Y-94607375D01*
X168800939Y-94615621D01*
X168795073Y-94621062D01*
X168788602Y-94624634D01*
X168781497Y-94627270D01*
X168773728Y-94629906D01*
X168765266Y-94633477D01*
X168760908Y-94635145D01*
X168752395Y-94637111D01*
X168739694Y-94638911D01*
X168721885Y-94640555D01*
X168698049Y-94642047D01*
X168667266Y-94643397D01*
X168628617Y-94644611D01*
X168581182Y-94645697D01*
X168524043Y-94646661D01*
X168456279Y-94647511D01*
X168376971Y-94648253D01*
X168285199Y-94648897D01*
X168180044Y-94649447D01*
X168060587Y-94649913D01*
X167925908Y-94650300D01*
X167775088Y-94650616D01*
X167607206Y-94650869D01*
X167421345Y-94651066D01*
X167216583Y-94651213D01*
X166992002Y-94651318D01*
X166746682Y-94651389D01*
X166479704Y-94651432D01*
X166441321Y-94651437D01*
X166175922Y-94651480D01*
X165932050Y-94651525D01*
X165708783Y-94651548D01*
X165505196Y-94651524D01*
X165320367Y-94651430D01*
X165153373Y-94651243D01*
X165003290Y-94650939D01*
X164869196Y-94650494D01*
X164750166Y-94649885D01*
X164645279Y-94649089D01*
X164553610Y-94648080D01*
X164474237Y-94646837D01*
X164406237Y-94645335D01*
X164348686Y-94643551D01*
X164300662Y-94641461D01*
X164261240Y-94639042D01*
X164229499Y-94636270D01*
X164204514Y-94633121D01*
X164185364Y-94629572D01*
X164171123Y-94625598D01*
X164160871Y-94621178D01*
X164153682Y-94616286D01*
X164148635Y-94610900D01*
X164144805Y-94604996D01*
X164141271Y-94598549D01*
X164137108Y-94591537D01*
X164136025Y-94589687D01*
X164133813Y-94584180D01*
X164131786Y-94575868D01*
X164129938Y-94563809D01*
X164128261Y-94547063D01*
X164126745Y-94524687D01*
X164125383Y-94495740D01*
X164124167Y-94459280D01*
X164123089Y-94414367D01*
X164122140Y-94360057D01*
X164121312Y-94295410D01*
X164120597Y-94219484D01*
X164119987Y-94131338D01*
X164119942Y-94122493D01*
X164411378Y-94122493D01*
X164415260Y-94123765D01*
X164438520Y-94125791D01*
X164480874Y-94127626D01*
X164540132Y-94129227D01*
X164614107Y-94130549D01*
X164700610Y-94131548D01*
X164797452Y-94132180D01*
X164902445Y-94132400D01*
X165600651Y-94132400D01*
X166755090Y-94132400D01*
X166754456Y-94056200D01*
X166755574Y-94014160D01*
X166761304Y-93978334D01*
X166773890Y-93940772D01*
X166795568Y-93892577D01*
X166798789Y-93885897D01*
X166824188Y-93836359D01*
X166850996Y-93788369D01*
X166873917Y-93751466D01*
X166878485Y-93744834D01*
X166900516Y-93713593D01*
X166932693Y-93668654D01*
X166973457Y-93612147D01*
X167021245Y-93546204D01*
X167074498Y-93472957D01*
X167131655Y-93394536D01*
X167191155Y-93313072D01*
X167251437Y-93230698D01*
X167310940Y-93149544D01*
X167368105Y-93071742D01*
X167421370Y-92999423D01*
X167469174Y-92934718D01*
X167509957Y-92879759D01*
X167542158Y-92836676D01*
X167564216Y-92807602D01*
X167574571Y-92794667D01*
X167579044Y-92790351D01*
X167583236Y-92788312D01*
X167586643Y-92790926D01*
X167589325Y-92799986D01*
X167591341Y-92817285D01*
X167592748Y-92844614D01*
X167593605Y-92883765D01*
X167593970Y-92936533D01*
X167593903Y-93004707D01*
X167593460Y-93090082D01*
X167592702Y-93194449D01*
X167591685Y-93319600D01*
X167591308Y-93364300D01*
X167590169Y-93485395D01*
X167588972Y-93586688D01*
X167587636Y-93670262D01*
X167586077Y-93738204D01*
X167584215Y-93792599D01*
X167581966Y-93835532D01*
X167579248Y-93869089D01*
X167575979Y-93895355D01*
X167572078Y-93916416D01*
X167567461Y-93934357D01*
X167559192Y-93960770D01*
X167535583Y-94022772D01*
X167509685Y-94075573D01*
X167484535Y-94112645D01*
X167483339Y-94114075D01*
X167481168Y-94118424D01*
X167483328Y-94122026D01*
X167491644Y-94124951D01*
X167507940Y-94127269D01*
X167534041Y-94129051D01*
X167571771Y-94130367D01*
X167622956Y-94131286D01*
X167689420Y-94131878D01*
X167772987Y-94132215D01*
X167875483Y-94132365D01*
X167998732Y-94132400D01*
X168530296Y-94132400D01*
X168491523Y-94074783D01*
X168485432Y-94065893D01*
X168474976Y-94051069D01*
X168465579Y-94037422D01*
X168457183Y-94023765D01*
X168449733Y-94008911D01*
X168443173Y-93991670D01*
X168437446Y-93970855D01*
X168432495Y-93945280D01*
X168428266Y-93913755D01*
X168424701Y-93875093D01*
X168421744Y-93828107D01*
X168419340Y-93771608D01*
X168417431Y-93704409D01*
X168415962Y-93625322D01*
X168414876Y-93533160D01*
X168414118Y-93426734D01*
X168413630Y-93304857D01*
X168413358Y-93166341D01*
X168413243Y-93009999D01*
X168413231Y-92834642D01*
X168413265Y-92639082D01*
X168413289Y-92422133D01*
X168413280Y-92299513D01*
X168413243Y-92094447D01*
X168413227Y-91910116D01*
X168413288Y-91745334D01*
X168413484Y-91598916D01*
X168413870Y-91469674D01*
X168414505Y-91356422D01*
X168415444Y-91257975D01*
X168416745Y-91173144D01*
X168418464Y-91100744D01*
X168420659Y-91039589D01*
X168423385Y-90988492D01*
X168426701Y-90946267D01*
X168430662Y-90911727D01*
X168435325Y-90883686D01*
X168440747Y-90860958D01*
X168446986Y-90842356D01*
X168454097Y-90826693D01*
X168462138Y-90812784D01*
X168471166Y-90799441D01*
X168481236Y-90785479D01*
X168492407Y-90769711D01*
X168532197Y-90711867D01*
X167472314Y-90711867D01*
X167510311Y-90774966D01*
X167524993Y-90800005D01*
X167539531Y-90827586D01*
X167551627Y-90855700D01*
X167561532Y-90886551D01*
X167569494Y-90922344D01*
X167575761Y-90965283D01*
X167580582Y-91017574D01*
X167584206Y-91081419D01*
X167586881Y-91159025D01*
X167588857Y-91252594D01*
X167590382Y-91364333D01*
X167591704Y-91496445D01*
X167592613Y-91616434D01*
X167593020Y-91733063D01*
X167592767Y-91828531D01*
X167591857Y-91902556D01*
X167590293Y-91954855D01*
X167588079Y-91985149D01*
X167585220Y-91993156D01*
X167582161Y-91989858D01*
X167564006Y-91968408D01*
X167534275Y-91931889D01*
X167494639Y-91882442D01*
X167446771Y-91822207D01*
X167392343Y-91753327D01*
X167333027Y-91677943D01*
X167270495Y-91598196D01*
X167206421Y-91516228D01*
X167142475Y-91434180D01*
X167080331Y-91354194D01*
X167021661Y-91278411D01*
X166968137Y-91208973D01*
X166921430Y-91148021D01*
X166883214Y-91097696D01*
X166855161Y-91060140D01*
X166838943Y-91037495D01*
X166793635Y-90965212D01*
X166753661Y-90885463D01*
X166732130Y-90817188D01*
X166728827Y-90759844D01*
X166734116Y-90711867D01*
X165602356Y-90712117D01*
X165641867Y-90742722D01*
X165651248Y-90750089D01*
X165714183Y-90804438D01*
X165782997Y-90872259D01*
X165859596Y-90955516D01*
X165945888Y-91056178D01*
X165963052Y-91076847D01*
X166003833Y-91126409D01*
X166053588Y-91187326D01*
X166110955Y-91257898D01*
X166174569Y-91336424D01*
X166243069Y-91421204D01*
X166315090Y-91510537D01*
X166389270Y-91602722D01*
X166404517Y-91621702D01*
X166464246Y-91696060D01*
X166538653Y-91788848D01*
X166611131Y-91879388D01*
X166680314Y-91965978D01*
X166744841Y-92046918D01*
X166803347Y-92120506D01*
X166854470Y-92185044D01*
X166896847Y-92238829D01*
X166929115Y-92280162D01*
X166949910Y-92307342D01*
X166957869Y-92318668D01*
X166956111Y-92322771D01*
X166943230Y-92343334D01*
X166918885Y-92379561D01*
X166884247Y-92429824D01*
X166840486Y-92492492D01*
X166788775Y-92565936D01*
X166730284Y-92648527D01*
X166666184Y-92738636D01*
X166597646Y-92834631D01*
X166525843Y-92934885D01*
X166451944Y-93037768D01*
X166377121Y-93141650D01*
X166302545Y-93244901D01*
X166229387Y-93345892D01*
X166158819Y-93442994D01*
X166092011Y-93534577D01*
X166030135Y-93619011D01*
X165974361Y-93694667D01*
X165925862Y-93759916D01*
X165885807Y-93813128D01*
X165855369Y-93852673D01*
X165834944Y-93878026D01*
X165788899Y-93932295D01*
X165738612Y-93988775D01*
X165691815Y-94038669D01*
X165600651Y-94132400D01*
X164902445Y-94132400D01*
X164971356Y-94132349D01*
X165069607Y-94132091D01*
X165159030Y-94131637D01*
X165237333Y-94131010D01*
X165302223Y-94130235D01*
X165351411Y-94129335D01*
X165382604Y-94128334D01*
X165393511Y-94127257D01*
X165392322Y-94124037D01*
X165382176Y-94106452D01*
X165365040Y-94080158D01*
X165356540Y-94067691D01*
X165347329Y-94053622D01*
X165339233Y-94039351D01*
X165332185Y-94023479D01*
X165326117Y-94004609D01*
X165320961Y-93981341D01*
X165316651Y-93952278D01*
X165313119Y-93916021D01*
X165310297Y-93871170D01*
X165308118Y-93816328D01*
X165306514Y-93750097D01*
X165305419Y-93671077D01*
X165304765Y-93577871D01*
X165304484Y-93469079D01*
X165304509Y-93343303D01*
X165304772Y-93199145D01*
X165305206Y-93035207D01*
X165305745Y-92850089D01*
X165306279Y-92671232D01*
X165306805Y-92512374D01*
X165307350Y-92373316D01*
X165307945Y-92252665D01*
X165308619Y-92149028D01*
X165309403Y-92061011D01*
X165310326Y-91987223D01*
X165311419Y-91926269D01*
X165312712Y-91876757D01*
X165314235Y-91837293D01*
X165316019Y-91806484D01*
X165318092Y-91782938D01*
X165320486Y-91765260D01*
X165323230Y-91752059D01*
X165326356Y-91741940D01*
X165329892Y-91733511D01*
X165333791Y-91725375D01*
X165353438Y-91688544D01*
X165372225Y-91658391D01*
X165373272Y-91656908D01*
X165387602Y-91634659D01*
X165393511Y-91621702D01*
X165392504Y-91621249D01*
X165375305Y-91619803D01*
X165338656Y-91618480D01*
X165284962Y-91617316D01*
X165216630Y-91616347D01*
X165136064Y-91615611D01*
X165045670Y-91615142D01*
X164947853Y-91614978D01*
X164502195Y-91614978D01*
X164499120Y-92791845D01*
X164496045Y-93968711D01*
X164469407Y-94027622D01*
X164457485Y-94052183D01*
X164440246Y-94082434D01*
X164427074Y-94099560D01*
X164419076Y-94107591D01*
X164411378Y-94122493D01*
X164119942Y-94122493D01*
X164119474Y-94030029D01*
X164119050Y-93914617D01*
X164118706Y-93784160D01*
X164118434Y-93637716D01*
X164118227Y-93474344D01*
X164118076Y-93293101D01*
X164117972Y-93093048D01*
X164117908Y-92873241D01*
X164117876Y-92632739D01*
X164117867Y-92370602D01*
X164117867Y-90179031D01*
X164156249Y-90140649D01*
X164183355Y-90116911D01*
X164210253Y-90105111D01*
X164246560Y-90102267D01*
X164298489Y-90102267D01*
X164298489Y-90190206D01*
X164300427Y-90240102D01*
X164319199Y-90350523D01*
X164356217Y-90451987D01*
X164409369Y-90543152D01*
X164476546Y-90622673D01*
X164555638Y-90689205D01*
X164644534Y-90741406D01*
X164741125Y-90777930D01*
X164843300Y-90797434D01*
X164948950Y-90798573D01*
X165055964Y-90780005D01*
X165162232Y-90740384D01*
X165259219Y-90682516D01*
X165344293Y-90607684D01*
X165413015Y-90519615D01*
X165463918Y-90420616D01*
X165495535Y-90312993D01*
X165506400Y-90199054D01*
X165506400Y-90102267D01*
X167126753Y-90102267D01*
X167337897Y-90102280D01*
X167542020Y-90102330D01*
X167725686Y-90102430D01*
X167889991Y-90102592D01*
X168036029Y-90102829D01*
X168164894Y-90103153D01*
X168277683Y-90103575D01*
X168375488Y-90104109D01*
X168459404Y-90104767D01*
X168530527Y-90105561D01*
X168589950Y-90106504D01*
X168638768Y-90107608D01*
X168678077Y-90108884D01*
X168708969Y-90110347D01*
X168732541Y-90112007D01*
X168749886Y-90113878D01*
X168762099Y-90115972D01*
X168770275Y-90118300D01*
X168775508Y-90120876D01*
X168781504Y-90124445D01*
X168788279Y-90127978D01*
X168794478Y-90131488D01*
X168800126Y-90135918D01*
X168805247Y-90142208D01*
X168809869Y-90151301D01*
X168814015Y-90164139D01*
X168817713Y-90181662D01*
X168820987Y-90204813D01*
X168823863Y-90234534D01*
X168826367Y-90271765D01*
X168828524Y-90317449D01*
X168830360Y-90372527D01*
X168831900Y-90437941D01*
X168833170Y-90514633D01*
X168834195Y-90603544D01*
X168835001Y-90705617D01*
X168835034Y-90711867D01*
X168835614Y-90821792D01*
X168836059Y-90953011D01*
G37*
X168836059Y-90953011D02*
X168836362Y-91100216D01*
X168836548Y-91264349D01*
X168836642Y-91446352D01*
X168836671Y-91647165D01*
X168836661Y-91867732D01*
X168836636Y-92108992D01*
X168836622Y-92371889D01*
X168836622Y-92414040D01*
X168836646Y-92674668D01*
X168836685Y-92913796D01*
X168836708Y-93132360D01*
X168836687Y-93331295D01*
X168836593Y-93511535D01*
X168836395Y-93674015D01*
X168836063Y-93819670D01*
X168835569Y-93949434D01*
X168834883Y-94064243D01*
X168833976Y-94165030D01*
X168832817Y-94252730D01*
X168831378Y-94328279D01*
X168829629Y-94392611D01*
X168827540Y-94446661D01*
X168825083Y-94491363D01*
X168822227Y-94527652D01*
X168818943Y-94556463D01*
X168815202Y-94578731D01*
X168810974Y-94595390D01*
X168806229Y-94607375D01*
X168800939Y-94615621D01*
X168795073Y-94621062D01*
X168788602Y-94624634D01*
X168781497Y-94627270D01*
X168773728Y-94629906D01*
X168765266Y-94633477D01*
X168760908Y-94635145D01*
X168752395Y-94637111D01*
X168739694Y-94638911D01*
X168721885Y-94640555D01*
X168698049Y-94642047D01*
X168667266Y-94643397D01*
X168628617Y-94644611D01*
X168581182Y-94645697D01*
X168524043Y-94646661D01*
X168456279Y-94647511D01*
X168376971Y-94648253D01*
X168285199Y-94648897D01*
X168180044Y-94649447D01*
X168060587Y-94649913D01*
X167925908Y-94650300D01*
X167775088Y-94650616D01*
X167607206Y-94650869D01*
X167421345Y-94651066D01*
X167216583Y-94651213D01*
X166992002Y-94651318D01*
X166746682Y-94651389D01*
X166479704Y-94651432D01*
X166441321Y-94651437D01*
X166175922Y-94651480D01*
X165932050Y-94651525D01*
X165708783Y-94651548D01*
X165505196Y-94651524D01*
X165320367Y-94651430D01*
X165153373Y-94651243D01*
X165003290Y-94650939D01*
X164869196Y-94650494D01*
X164750166Y-94649885D01*
X164645279Y-94649089D01*
X164553610Y-94648080D01*
X164474237Y-94646837D01*
X164406237Y-94645335D01*
X164348686Y-94643551D01*
X164300662Y-94641461D01*
X164261240Y-94639042D01*
X164229499Y-94636270D01*
X164204514Y-94633121D01*
X164185364Y-94629572D01*
X164171123Y-94625598D01*
X164160871Y-94621178D01*
X164153682Y-94616286D01*
X164148635Y-94610900D01*
X164144805Y-94604996D01*
X164141271Y-94598549D01*
X164137108Y-94591537D01*
X164136025Y-94589687D01*
X164133813Y-94584180D01*
X164131786Y-94575868D01*
X164129938Y-94563809D01*
X164128261Y-94547063D01*
X164126745Y-94524687D01*
X164125383Y-94495740D01*
X164124167Y-94459280D01*
X164123089Y-94414367D01*
X164122140Y-94360057D01*
X164121312Y-94295410D01*
X164120597Y-94219484D01*
X164119987Y-94131338D01*
X164119942Y-94122493D01*
X164411378Y-94122493D01*
X164415260Y-94123765D01*
X164438520Y-94125791D01*
X164480874Y-94127626D01*
X164540132Y-94129227D01*
X164614107Y-94130549D01*
X164700610Y-94131548D01*
X164797452Y-94132180D01*
X164902445Y-94132400D01*
X165600651Y-94132400D01*
X166755090Y-94132400D01*
X166754456Y-94056200D01*
X166755574Y-94014160D01*
X166761304Y-93978334D01*
X166773890Y-93940772D01*
X166795568Y-93892577D01*
X166798789Y-93885897D01*
X166824188Y-93836359D01*
X166850996Y-93788369D01*
X166873917Y-93751466D01*
X166878485Y-93744834D01*
X166900516Y-93713593D01*
X166932693Y-93668654D01*
X166973457Y-93612147D01*
X167021245Y-93546204D01*
X167074498Y-93472957D01*
X167131655Y-93394536D01*
X167191155Y-93313072D01*
X167251437Y-93230698D01*
X167310940Y-93149544D01*
X167368105Y-93071742D01*
X167421370Y-92999423D01*
X167469174Y-92934718D01*
X167509957Y-92879759D01*
X167542158Y-92836676D01*
X167564216Y-92807602D01*
X167574571Y-92794667D01*
X167579044Y-92790351D01*
X167583236Y-92788312D01*
X167586643Y-92790926D01*
X167589325Y-92799986D01*
X167591341Y-92817285D01*
X167592748Y-92844614D01*
X167593605Y-92883765D01*
X167593970Y-92936533D01*
X167593903Y-93004707D01*
X167593460Y-93090082D01*
X167592702Y-93194449D01*
X167591685Y-93319600D01*
X167591308Y-93364300D01*
X167590169Y-93485395D01*
X167588972Y-93586688D01*
X167587636Y-93670262D01*
X167586077Y-93738204D01*
X167584215Y-93792599D01*
X167581966Y-93835532D01*
X167579248Y-93869089D01*
X167575979Y-93895355D01*
X167572078Y-93916416D01*
X167567461Y-93934357D01*
X167559192Y-93960770D01*
X167535583Y-94022772D01*
X167509685Y-94075573D01*
X167484535Y-94112645D01*
X167483339Y-94114075D01*
X167481168Y-94118424D01*
X167483328Y-94122026D01*
X167491644Y-94124951D01*
X167507940Y-94127269D01*
X167534041Y-94129051D01*
X167571771Y-94130367D01*
X167622956Y-94131286D01*
X167689420Y-94131878D01*
X167772987Y-94132215D01*
X167875483Y-94132365D01*
X167998732Y-94132400D01*
X168530296Y-94132400D01*
X168491523Y-94074783D01*
X168485432Y-94065893D01*
X168474976Y-94051069D01*
X168465579Y-94037422D01*
X168457183Y-94023765D01*
X168449733Y-94008911D01*
X168443173Y-93991670D01*
X168437446Y-93970855D01*
X168432495Y-93945280D01*
X168428266Y-93913755D01*
X168424701Y-93875093D01*
X168421744Y-93828107D01*
X168419340Y-93771608D01*
X168417431Y-93704409D01*
X168415962Y-93625322D01*
X168414876Y-93533160D01*
X168414118Y-93426734D01*
X168413630Y-93304857D01*
X168413358Y-93166341D01*
X168413243Y-93009999D01*
X168413231Y-92834642D01*
X168413265Y-92639082D01*
X168413289Y-92422133D01*
X168413280Y-92299513D01*
X168413243Y-92094447D01*
X168413227Y-91910116D01*
X168413288Y-91745334D01*
X168413484Y-91598916D01*
X168413870Y-91469674D01*
X168414505Y-91356422D01*
X168415444Y-91257975D01*
X168416745Y-91173144D01*
X168418464Y-91100744D01*
X168420659Y-91039589D01*
X168423385Y-90988492D01*
X168426701Y-90946267D01*
X168430662Y-90911727D01*
X168435325Y-90883686D01*
X168440747Y-90860958D01*
X168446986Y-90842356D01*
X168454097Y-90826693D01*
X168462138Y-90812784D01*
X168471166Y-90799441D01*
X168481236Y-90785479D01*
X168492407Y-90769711D01*
X168532197Y-90711867D01*
X167472314Y-90711867D01*
X167510311Y-90774966D01*
X167524993Y-90800005D01*
X167539531Y-90827586D01*
X167551627Y-90855700D01*
X167561532Y-90886551D01*
X167569494Y-90922344D01*
X167575761Y-90965283D01*
X167580582Y-91017574D01*
X167584206Y-91081419D01*
X167586881Y-91159025D01*
X167588857Y-91252594D01*
X167590382Y-91364333D01*
X167591704Y-91496445D01*
X167592613Y-91616434D01*
X167593020Y-91733063D01*
X167592767Y-91828531D01*
X167591857Y-91902556D01*
X167590293Y-91954855D01*
X167588079Y-91985149D01*
X167585220Y-91993156D01*
X167582161Y-91989858D01*
X167564006Y-91968408D01*
X167534275Y-91931889D01*
X167494639Y-91882442D01*
X167446771Y-91822207D01*
X167392343Y-91753327D01*
X167333027Y-91677943D01*
X167270495Y-91598196D01*
X167206421Y-91516228D01*
X167142475Y-91434180D01*
X167080331Y-91354194D01*
X167021661Y-91278411D01*
X166968137Y-91208973D01*
X166921430Y-91148021D01*
X166883214Y-91097696D01*
X166855161Y-91060140D01*
X166838943Y-91037495D01*
X166793635Y-90965212D01*
X166753661Y-90885463D01*
X166732130Y-90817188D01*
X166728827Y-90759844D01*
X166734116Y-90711867D01*
X165602356Y-90712117D01*
X165641867Y-90742722D01*
X165651248Y-90750089D01*
X165714183Y-90804438D01*
X165782997Y-90872259D01*
X165859596Y-90955516D01*
X165945888Y-91056178D01*
X165963052Y-91076847D01*
X166003833Y-91126409D01*
X166053588Y-91187326D01*
X166110955Y-91257898D01*
X166174569Y-91336424D01*
X166243069Y-91421204D01*
X166315090Y-91510537D01*
X166389270Y-91602722D01*
X166404517Y-91621702D01*
X166464246Y-91696060D01*
X166538653Y-91788848D01*
X166611131Y-91879388D01*
X166680314Y-91965978D01*
X166744841Y-92046918D01*
X166803347Y-92120506D01*
X166854470Y-92185044D01*
X166896847Y-92238829D01*
X166929115Y-92280162D01*
X166949910Y-92307342D01*
X166957869Y-92318668D01*
X166956111Y-92322771D01*
X166943230Y-92343334D01*
X166918885Y-92379561D01*
X166884247Y-92429824D01*
X166840486Y-92492492D01*
X166788775Y-92565936D01*
X166730284Y-92648527D01*
X166666184Y-92738636D01*
X166597646Y-92834631D01*
X166525843Y-92934885D01*
X166451944Y-93037768D01*
X166377121Y-93141650D01*
X166302545Y-93244901D01*
X166229387Y-93345892D01*
X166158819Y-93442994D01*
X166092011Y-93534577D01*
X166030135Y-93619011D01*
X165974361Y-93694667D01*
X165925862Y-93759916D01*
X165885807Y-93813128D01*
X165855369Y-93852673D01*
X165834944Y-93878026D01*
X165788899Y-93932295D01*
X165738612Y-93988775D01*
X165691815Y-94038669D01*
X165600651Y-94132400D01*
X164902445Y-94132400D01*
X164971356Y-94132349D01*
X165069607Y-94132091D01*
X165159030Y-94131637D01*
X165237333Y-94131010D01*
X165302223Y-94130235D01*
X165351411Y-94129335D01*
X165382604Y-94128334D01*
X165393511Y-94127257D01*
X165392322Y-94124037D01*
X165382176Y-94106452D01*
X165365040Y-94080158D01*
X165356540Y-94067691D01*
X165347329Y-94053622D01*
X165339233Y-94039351D01*
X165332185Y-94023479D01*
X165326117Y-94004609D01*
X165320961Y-93981341D01*
X165316651Y-93952278D01*
X165313119Y-93916021D01*
X165310297Y-93871170D01*
X165308118Y-93816328D01*
X165306514Y-93750097D01*
X165305419Y-93671077D01*
X165304765Y-93577871D01*
X165304484Y-93469079D01*
X165304509Y-93343303D01*
X165304772Y-93199145D01*
X165305206Y-93035207D01*
X165305745Y-92850089D01*
X165306279Y-92671232D01*
X165306805Y-92512374D01*
X165307350Y-92373316D01*
X165307945Y-92252665D01*
X165308619Y-92149028D01*
X165309403Y-92061011D01*
X165310326Y-91987223D01*
X165311419Y-91926269D01*
X165312712Y-91876757D01*
X165314235Y-91837293D01*
X165316019Y-91806484D01*
X165318092Y-91782938D01*
X165320486Y-91765260D01*
X165323230Y-91752059D01*
X165326356Y-91741940D01*
X165329892Y-91733511D01*
X165333791Y-91725375D01*
X165353438Y-91688544D01*
X165372225Y-91658391D01*
X165373272Y-91656908D01*
X165387602Y-91634659D01*
X165393511Y-91621702D01*
X165392504Y-91621249D01*
X165375305Y-91619803D01*
X165338656Y-91618480D01*
X165284962Y-91617316D01*
X165216630Y-91616347D01*
X165136064Y-91615611D01*
X165045670Y-91615142D01*
X164947853Y-91614978D01*
X164502195Y-91614978D01*
X164499120Y-92791845D01*
X164496045Y-93968711D01*
X164469407Y-94027622D01*
X164457485Y-94052183D01*
X164440246Y-94082434D01*
X164427074Y-94099560D01*
X164419076Y-94107591D01*
X164411378Y-94122493D01*
X164119942Y-94122493D01*
X164119474Y-94030029D01*
X164119050Y-93914617D01*
X164118706Y-93784160D01*
X164118434Y-93637716D01*
X164118227Y-93474344D01*
X164118076Y-93293101D01*
X164117972Y-93093048D01*
X164117908Y-92873241D01*
X164117876Y-92632739D01*
X164117867Y-92370602D01*
X164117867Y-90179031D01*
X164156249Y-90140649D01*
X164183355Y-90116911D01*
X164210253Y-90105111D01*
X164246560Y-90102267D01*
X164298489Y-90102267D01*
X164298489Y-90190206D01*
X164300427Y-90240102D01*
X164319199Y-90350523D01*
X164356217Y-90451987D01*
X164409369Y-90543152D01*
X164476546Y-90622673D01*
X164555638Y-90689205D01*
X164644534Y-90741406D01*
X164741125Y-90777930D01*
X164843300Y-90797434D01*
X164948950Y-90798573D01*
X165055964Y-90780005D01*
X165162232Y-90740384D01*
X165259219Y-90682516D01*
X165344293Y-90607684D01*
X165413015Y-90519615D01*
X165463918Y-90420616D01*
X165495535Y-90312993D01*
X165506400Y-90199054D01*
X165506400Y-90102267D01*
X167126753Y-90102267D01*
X167337897Y-90102280D01*
X167542020Y-90102330D01*
X167725686Y-90102430D01*
X167889991Y-90102592D01*
X168036029Y-90102829D01*
X168164894Y-90103153D01*
X168277683Y-90103575D01*
X168375488Y-90104109D01*
X168459404Y-90104767D01*
X168530527Y-90105561D01*
X168589950Y-90106504D01*
X168638768Y-90107608D01*
X168678077Y-90108884D01*
X168708969Y-90110347D01*
X168732541Y-90112007D01*
X168749886Y-90113878D01*
X168762099Y-90115972D01*
X168770275Y-90118300D01*
X168775508Y-90120876D01*
X168781504Y-90124445D01*
X168788279Y-90127978D01*
X168794478Y-90131488D01*
X168800126Y-90135918D01*
X168805247Y-90142208D01*
X168809869Y-90151301D01*
X168814015Y-90164139D01*
X168817713Y-90181662D01*
X168820987Y-90204813D01*
X168823863Y-90234534D01*
X168826367Y-90271765D01*
X168828524Y-90317449D01*
X168830360Y-90372527D01*
X168831900Y-90437941D01*
X168833170Y-90514633D01*
X168834195Y-90603544D01*
X168835001Y-90705617D01*
X168835034Y-90711867D01*
X168835614Y-90821792D01*
X168836059Y-90953011D01*
G36*
X162548711Y-90672033D02*
G01*
X162644268Y-90689523D01*
X162808558Y-90734564D01*
X162962589Y-90797656D01*
X163108509Y-90879915D01*
X163248466Y-90982457D01*
X163384608Y-91106399D01*
X163428473Y-91151661D01*
X163540758Y-91283865D01*
X163633972Y-91421832D01*
X163710719Y-91569750D01*
X163773603Y-91731803D01*
X163777420Y-91743391D01*
X163827507Y-91929392D01*
X163860899Y-92125521D01*
X163877584Y-92327568D01*
X163877551Y-92531325D01*
X163860791Y-92732581D01*
X163827292Y-92927128D01*
X163777044Y-93110756D01*
X163733190Y-93228053D01*
X163655348Y-93390951D01*
X163561828Y-93544866D01*
X163454822Y-93686671D01*
X163336519Y-93813239D01*
X163209111Y-93921441D01*
X163131606Y-93974120D01*
X163004725Y-94043750D01*
X162867243Y-94102468D01*
X162725716Y-94147587D01*
X162586702Y-94176422D01*
X162572597Y-94178106D01*
X162529153Y-94181434D01*
X162471723Y-94184275D01*
X162406122Y-94186373D01*
X162338167Y-94187468D01*
X162211378Y-94185140D01*
X162063673Y-94172136D01*
X161925779Y-94147133D01*
X161792014Y-94109318D01*
X161768562Y-94100889D01*
X161720612Y-94081408D01*
X161664140Y-94056473D01*
X161602379Y-94027722D01*
X161538563Y-93996790D01*
X161475926Y-93965315D01*
X161417703Y-93934934D01*
X161367127Y-93907283D01*
X161327433Y-93883999D01*
X161301854Y-93866718D01*
X161293625Y-93857079D01*
X161295076Y-93853984D01*
X161306250Y-93834079D01*
X161327134Y-93798420D01*
X161356265Y-93749459D01*
X161392181Y-93689646D01*
X161433420Y-93621433D01*
X161478517Y-93547271D01*
X161659785Y-93250008D01*
X161706315Y-93294539D01*
X161797723Y-93372865D01*
X161911334Y-93447439D01*
X162029122Y-93501474D01*
X162149559Y-93534290D01*
X162271117Y-93545211D01*
X162312585Y-93543868D01*
X162430080Y-93525612D01*
X162540089Y-93486617D01*
X162641430Y-93427670D01*
X162732921Y-93349557D01*
X162813380Y-93253064D01*
X162881627Y-93138978D01*
X162897908Y-93104724D01*
X162943982Y-92981240D01*
X162979106Y-92842918D01*
X163003197Y-92693561D01*
X163016173Y-92536973D01*
X163017949Y-92376956D01*
X163008443Y-92217314D01*
X162987572Y-92061850D01*
X162955252Y-91914366D01*
X162911399Y-91778667D01*
X162873982Y-91692076D01*
X162809185Y-91578688D01*
X162733772Y-91485070D01*
X162647418Y-91410959D01*
X162549795Y-91356094D01*
X162440577Y-91320212D01*
X162319439Y-91303051D01*
X162250038Y-91301880D01*
X162127168Y-91316141D01*
X162011664Y-91351241D01*
X161904953Y-91406682D01*
X161808464Y-91481964D01*
X161792720Y-91496440D01*
X161762150Y-91522962D01*
X161739809Y-91540138D01*
X161729691Y-91544787D01*
X161727706Y-91542597D01*
X161713241Y-91523721D01*
X161689400Y-91490397D01*
X161658029Y-91445380D01*
X161620974Y-91391425D01*
X161580083Y-91331285D01*
X161537202Y-91267718D01*
X161494178Y-91203476D01*
X161452857Y-91141315D01*
X161415086Y-91083991D01*
X161382712Y-91034257D01*
X161357582Y-90994868D01*
X161341542Y-90968580D01*
X161336439Y-90958147D01*
X161341050Y-90953941D01*
X161360267Y-90948933D01*
X161369838Y-90946386D01*
X161397809Y-90935249D01*
X161439448Y-90916802D01*
X161490995Y-90892725D01*
X161548690Y-90864699D01*
X161559957Y-90859154D01*
X161737687Y-90779889D01*
X161907490Y-90720385D01*
X162071430Y-90680245D01*
X162231571Y-90659071D01*
X162389977Y-90656466D01*
X162548711Y-90672033D01*
G37*
X162548711Y-90672033D02*
X162644268Y-90689523D01*
X162808558Y-90734564D01*
X162962589Y-90797656D01*
X163108509Y-90879915D01*
X163248466Y-90982457D01*
X163384608Y-91106399D01*
X163428473Y-91151661D01*
X163540758Y-91283865D01*
X163633972Y-91421832D01*
X163710719Y-91569750D01*
X163773603Y-91731803D01*
X163777420Y-91743391D01*
X163827507Y-91929392D01*
X163860899Y-92125521D01*
X163877584Y-92327568D01*
X163877551Y-92531325D01*
X163860791Y-92732581D01*
X163827292Y-92927128D01*
X163777044Y-93110756D01*
X163733190Y-93228053D01*
X163655348Y-93390951D01*
X163561828Y-93544866D01*
X163454822Y-93686671D01*
X163336519Y-93813239D01*
X163209111Y-93921441D01*
X163131606Y-93974120D01*
X163004725Y-94043750D01*
X162867243Y-94102468D01*
X162725716Y-94147587D01*
X162586702Y-94176422D01*
X162572597Y-94178106D01*
X162529153Y-94181434D01*
X162471723Y-94184275D01*
X162406122Y-94186373D01*
X162338167Y-94187468D01*
X162211378Y-94185140D01*
X162063673Y-94172136D01*
X161925779Y-94147133D01*
X161792014Y-94109318D01*
X161768562Y-94100889D01*
X161720612Y-94081408D01*
X161664140Y-94056473D01*
X161602379Y-94027722D01*
X161538563Y-93996790D01*
X161475926Y-93965315D01*
X161417703Y-93934934D01*
X161367127Y-93907283D01*
X161327433Y-93883999D01*
X161301854Y-93866718D01*
X161293625Y-93857079D01*
X161295076Y-93853984D01*
X161306250Y-93834079D01*
X161327134Y-93798420D01*
X161356265Y-93749459D01*
X161392181Y-93689646D01*
X161433420Y-93621433D01*
X161478517Y-93547271D01*
X161659785Y-93250008D01*
X161706315Y-93294539D01*
X161797723Y-93372865D01*
X161911334Y-93447439D01*
X162029122Y-93501474D01*
X162149559Y-93534290D01*
X162271117Y-93545211D01*
X162312585Y-93543868D01*
X162430080Y-93525612D01*
X162540089Y-93486617D01*
X162641430Y-93427670D01*
X162732921Y-93349557D01*
X162813380Y-93253064D01*
X162881627Y-93138978D01*
X162897908Y-93104724D01*
X162943982Y-92981240D01*
X162979106Y-92842918D01*
X163003197Y-92693561D01*
X163016173Y-92536973D01*
X163017949Y-92376956D01*
X163008443Y-92217314D01*
X162987572Y-92061850D01*
X162955252Y-91914366D01*
X162911399Y-91778667D01*
X162873982Y-91692076D01*
X162809185Y-91578688D01*
X162733772Y-91485070D01*
X162647418Y-91410959D01*
X162549795Y-91356094D01*
X162440577Y-91320212D01*
X162319439Y-91303051D01*
X162250038Y-91301880D01*
X162127168Y-91316141D01*
X162011664Y-91351241D01*
X161904953Y-91406682D01*
X161808464Y-91481964D01*
X161792720Y-91496440D01*
X161762150Y-91522962D01*
X161739809Y-91540138D01*
X161729691Y-91544787D01*
X161727706Y-91542597D01*
X161713241Y-91523721D01*
X161689400Y-91490397D01*
X161658029Y-91445380D01*
X161620974Y-91391425D01*
X161580083Y-91331285D01*
X161537202Y-91267718D01*
X161494178Y-91203476D01*
X161452857Y-91141315D01*
X161415086Y-91083991D01*
X161382712Y-91034257D01*
X161357582Y-90994868D01*
X161341542Y-90968580D01*
X161336439Y-90958147D01*
X161341050Y-90953941D01*
X161360267Y-90948933D01*
X161369838Y-90946386D01*
X161397809Y-90935249D01*
X161439448Y-90916802D01*
X161490995Y-90892725D01*
X161548690Y-90864699D01*
X161559957Y-90859154D01*
X161737687Y-90779889D01*
X161907490Y-90720385D01*
X162071430Y-90680245D01*
X162231571Y-90659071D01*
X162389977Y-90656466D01*
X162548711Y-90672033D01*
G36*
X164689150Y-94984179D02*
G01*
X164795157Y-95000494D01*
X164888969Y-95028545D01*
X164967765Y-95067452D01*
X165028719Y-95116334D01*
X165054789Y-95149195D01*
X165084297Y-95198394D01*
X165109568Y-95252252D01*
X165127218Y-95303419D01*
X165133858Y-95344544D01*
X165132298Y-95364259D01*
X165119357Y-95415592D01*
X165096194Y-95472118D01*
X165066302Y-95526035D01*
X165033173Y-95569539D01*
X165022977Y-95579887D01*
X164955892Y-95631662D01*
X164875766Y-95671554D01*
X164789556Y-95695956D01*
X164734592Y-95704068D01*
X164641139Y-95710673D01*
X164551358Y-95708586D01*
X164468869Y-95698340D01*
X164397286Y-95680470D01*
X164340228Y-95655508D01*
X164301311Y-95623988D01*
X164299936Y-95622012D01*
X164292848Y-95596786D01*
X164288609Y-95549535D01*
X164287200Y-95480071D01*
X164288060Y-95417838D01*
X164292780Y-95370456D01*
X164304470Y-95338353D01*
X164326239Y-95318800D01*
X164361198Y-95309070D01*
X164412456Y-95306433D01*
X164483123Y-95308161D01*
X164531743Y-95311173D01*
X164581939Y-95319366D01*
X164614433Y-95333419D01*
X164631892Y-95354654D01*
X164636983Y-95384394D01*
X164636877Y-95388936D01*
X164628175Y-95423730D01*
X164604165Y-95447147D01*
X164562900Y-95460347D01*
X164502431Y-95464489D01*
X164433956Y-95464489D01*
X164433956Y-95502841D01*
X164434006Y-95511976D01*
X164436227Y-95529227D01*
X164445494Y-95539521D01*
X164466875Y-95546459D01*
X164505436Y-95553641D01*
X164510910Y-95554575D01*
X164607860Y-95564478D01*
X164697852Y-95561559D01*
X164778760Y-95546829D01*
X164848459Y-95521299D01*
X164904824Y-95485978D01*
X164945729Y-95441879D01*
X164969051Y-95390012D01*
X164972663Y-95331388D01*
X164967145Y-95302494D01*
X164940461Y-95246604D01*
X164894273Y-95200945D01*
X164829291Y-95166108D01*
X164746229Y-95142690D01*
X164721555Y-95138241D01*
X164632226Y-95127742D01*
X164552419Y-95128971D01*
X164474326Y-95141906D01*
X164439183Y-95148696D01*
X164393745Y-95149713D01*
X164362430Y-95137182D01*
X164342277Y-95110395D01*
X164335893Y-95082148D01*
X164345379Y-95050924D01*
X164354708Y-95037499D01*
X164388943Y-95013967D01*
X164441565Y-94996095D01*
X164510081Y-94984599D01*
X164592000Y-94980192D01*
X164689150Y-94984179D01*
G37*
X164689150Y-94984179D02*
X164795157Y-95000494D01*
X164888969Y-95028545D01*
X164967765Y-95067452D01*
X165028719Y-95116334D01*
X165054789Y-95149195D01*
X165084297Y-95198394D01*
X165109568Y-95252252D01*
X165127218Y-95303419D01*
X165133858Y-95344544D01*
X165132298Y-95364259D01*
X165119357Y-95415592D01*
X165096194Y-95472118D01*
X165066302Y-95526035D01*
X165033173Y-95569539D01*
X165022977Y-95579887D01*
X164955892Y-95631662D01*
X164875766Y-95671554D01*
X164789556Y-95695956D01*
X164734592Y-95704068D01*
X164641139Y-95710673D01*
X164551358Y-95708586D01*
X164468869Y-95698340D01*
X164397286Y-95680470D01*
X164340228Y-95655508D01*
X164301311Y-95623988D01*
X164299936Y-95622012D01*
X164292848Y-95596786D01*
X164288609Y-95549535D01*
X164287200Y-95480071D01*
X164288060Y-95417838D01*
X164292780Y-95370456D01*
X164304470Y-95338353D01*
X164326239Y-95318800D01*
X164361198Y-95309070D01*
X164412456Y-95306433D01*
X164483123Y-95308161D01*
X164531743Y-95311173D01*
X164581939Y-95319366D01*
X164614433Y-95333419D01*
X164631892Y-95354654D01*
X164636983Y-95384394D01*
X164636877Y-95388936D01*
X164628175Y-95423730D01*
X164604165Y-95447147D01*
X164562900Y-95460347D01*
X164502431Y-95464489D01*
X164433956Y-95464489D01*
X164433956Y-95502841D01*
X164434006Y-95511976D01*
X164436227Y-95529227D01*
X164445494Y-95539521D01*
X164466875Y-95546459D01*
X164505436Y-95553641D01*
X164510910Y-95554575D01*
X164607860Y-95564478D01*
X164697852Y-95561559D01*
X164778760Y-95546829D01*
X164848459Y-95521299D01*
X164904824Y-95485978D01*
X164945729Y-95441879D01*
X164969051Y-95390012D01*
X164972663Y-95331388D01*
X164967145Y-95302494D01*
X164940461Y-95246604D01*
X164894273Y-95200945D01*
X164829291Y-95166108D01*
X164746229Y-95142690D01*
X164721555Y-95138241D01*
X164632226Y-95127742D01*
X164552419Y-95128971D01*
X164474326Y-95141906D01*
X164439183Y-95148696D01*
X164393745Y-95149713D01*
X164362430Y-95137182D01*
X164342277Y-95110395D01*
X164335893Y-95082148D01*
X164345379Y-95050924D01*
X164354708Y-95037499D01*
X164388943Y-95013967D01*
X164441565Y-94996095D01*
X164510081Y-94984599D01*
X164592000Y-94980192D01*
X164689150Y-94984179D01*
G36*
X165014562Y-89742850D02*
G01*
X165097313Y-89770053D01*
X165172406Y-89815484D01*
X165244298Y-89881302D01*
X165282846Y-89925567D01*
X165322256Y-89983961D01*
X165347446Y-90044586D01*
X165360861Y-90113865D01*
X165364948Y-90198222D01*
X165364669Y-90244307D01*
X165362460Y-90285450D01*
X165356894Y-90317582D01*
X165346586Y-90348122D01*
X165330148Y-90384489D01*
X165316200Y-90411728D01*
X165257665Y-90497429D01*
X165185619Y-90566617D01*
X165101947Y-90617741D01*
X165008531Y-90649250D01*
X164975434Y-90656225D01*
X164934960Y-90663094D01*
X164901999Y-90664919D01*
X164867698Y-90661947D01*
X164823200Y-90654426D01*
X164771934Y-90642002D01*
X164681434Y-90604112D01*
X164602345Y-90549836D01*
X164536528Y-90481770D01*
X164485840Y-90402511D01*
X164452140Y-90314654D01*
X164437286Y-90220795D01*
X164443136Y-90123530D01*
X164469399Y-90027220D01*
X164514418Y-89938494D01*
X164575373Y-89863419D01*
X164650184Y-89803641D01*
X164736768Y-89760809D01*
X164833043Y-89736571D01*
X164936928Y-89732576D01*
X165014562Y-89742850D01*
G37*
X165014562Y-89742850D02*
X165097313Y-89770053D01*
X165172406Y-89815484D01*
X165244298Y-89881302D01*
X165282846Y-89925567D01*
X165322256Y-89983961D01*
X165347446Y-90044586D01*
X165360861Y-90113865D01*
X165364948Y-90198222D01*
X165364669Y-90244307D01*
X165362460Y-90285450D01*
X165356894Y-90317582D01*
X165346586Y-90348122D01*
X165330148Y-90384489D01*
X165316200Y-90411728D01*
X165257665Y-90497429D01*
X165185619Y-90566617D01*
X165101947Y-90617741D01*
X165008531Y-90649250D01*
X164975434Y-90656225D01*
X164934960Y-90663094D01*
X164901999Y-90664919D01*
X164867698Y-90661947D01*
X164823200Y-90654426D01*
X164771934Y-90642002D01*
X164681434Y-90604112D01*
X164602345Y-90549836D01*
X164536528Y-90481770D01*
X164485840Y-90402511D01*
X164452140Y-90314654D01*
X164437286Y-90220795D01*
X164443136Y-90123530D01*
X164469399Y-90027220D01*
X164514418Y-89938494D01*
X164575373Y-89863419D01*
X164650184Y-89803641D01*
X164736768Y-89760809D01*
X164833043Y-89736571D01*
X164936928Y-89732576D01*
X165014562Y-89742850D01*
G36*
X161287261Y-93387363D02*
G01*
X161283632Y-93462202D01*
X161276022Y-93524401D01*
X161263688Y-93580984D01*
X161219313Y-93707076D01*
X161156400Y-93821679D01*
X161076238Y-93922568D01*
X160979740Y-94008924D01*
X160867822Y-94079932D01*
X160741397Y-94134776D01*
X160601378Y-94172638D01*
X160565149Y-94178351D01*
X160486155Y-94184313D01*
X160397841Y-94184646D01*
X160308075Y-94179659D01*
X160224722Y-94169666D01*
X160155651Y-94154978D01*
X160069187Y-94124749D01*
X159959286Y-94070057D01*
X159861956Y-94002543D01*
X159799867Y-93951556D01*
X159796605Y-94047622D01*
X159793343Y-94143689D01*
X159370450Y-94143689D01*
X159359543Y-94143686D01*
X159265056Y-94143380D01*
X159178331Y-94142616D01*
X159101837Y-94141451D01*
X159038043Y-94139942D01*
X158989418Y-94138147D01*
X158958433Y-94136121D01*
X158947556Y-94133922D01*
X158947578Y-94133463D01*
X158954614Y-94117910D01*
X158970434Y-94095071D01*
X158974734Y-94089638D01*
X158985777Y-94075606D01*
X158995311Y-94062186D01*
X159003461Y-94047722D01*
X159010352Y-94030556D01*
X159016111Y-94009034D01*
X159020862Y-93981498D01*
X159024731Y-93946292D01*
X159027844Y-93901760D01*
X159030325Y-93846246D01*
X159032300Y-93778093D01*
X159033894Y-93695645D01*
X159035234Y-93597246D01*
X159036444Y-93481239D01*
X159036896Y-93430462D01*
X159839378Y-93430462D01*
X159884048Y-93486973D01*
X159896785Y-93502212D01*
X159943604Y-93544844D01*
X160004255Y-93580672D01*
X160014897Y-93585850D01*
X160053676Y-93602745D01*
X160088692Y-93612909D01*
X160128722Y-93618325D01*
X160182541Y-93620978D01*
X160200648Y-93621383D01*
X160276011Y-93618540D01*
X160336743Y-93606620D01*
X160388452Y-93584037D01*
X160436746Y-93549211D01*
X160441803Y-93544798D01*
X160490272Y-93489160D01*
X160518459Y-93425333D01*
X160527752Y-93350282D01*
X160520520Y-93278693D01*
X160495796Y-93215645D01*
X160451249Y-93157758D01*
X160396319Y-93110808D01*
X160323894Y-93070961D01*
X160237340Y-93043263D01*
X160134670Y-93027096D01*
X160013894Y-93021842D01*
X160005007Y-93021857D01*
X159949660Y-93022655D01*
X159902736Y-93024488D01*
X159868953Y-93027111D01*
X159853028Y-93030274D01*
X159848943Y-93036741D01*
X159844572Y-93058875D01*
X159841604Y-93097988D01*
X159839914Y-93155939D01*
X159839378Y-93234586D01*
X159839378Y-93430462D01*
X159036896Y-93430462D01*
X159037649Y-93345968D01*
X159038975Y-93189778D01*
X159040228Y-93047012D01*
X159041651Y-92901942D01*
X159043176Y-92776027D01*
X159044933Y-92667436D01*
X159047051Y-92574334D01*
X159049660Y-92494891D01*
X159052890Y-92427273D01*
X159056869Y-92369649D01*
X159061728Y-92320185D01*
X159067597Y-92277050D01*
X159074604Y-92238410D01*
X159082880Y-92202434D01*
X159092554Y-92167289D01*
X159103756Y-92131142D01*
X159116616Y-92092161D01*
X159132090Y-92049091D01*
X159174994Y-91956871D01*
X159228735Y-91877099D01*
X159297576Y-91802965D01*
X159375185Y-91739405D01*
X159479761Y-91677725D01*
X159599244Y-91630202D01*
X159734508Y-91596567D01*
X159886426Y-91576552D01*
X160055872Y-91569889D01*
X160113890Y-91570287D01*
X160179398Y-91572335D01*
X160240693Y-91576704D01*
X160302097Y-91584035D01*
X160367932Y-91594969D01*
X160442520Y-91610147D01*
X160530184Y-91630209D01*
X160635245Y-91655797D01*
X160663806Y-91662820D01*
X160739054Y-91680776D01*
X160809388Y-91696820D01*
X160870567Y-91710028D01*
X160918354Y-91719474D01*
X160948511Y-91724231D01*
X160976783Y-91727910D01*
X161003060Y-91733187D01*
X161013059Y-91737942D01*
X161009952Y-91746781D01*
X160999194Y-91774072D01*
X160981864Y-91816906D01*
X160959126Y-91872425D01*
X160932147Y-91937772D01*
X160902090Y-92010089D01*
X160895493Y-92025879D01*
X160856907Y-92116484D01*
X160825768Y-92186217D01*
X160801917Y-92235405D01*
X160785198Y-92264374D01*
X160775454Y-92273452D01*
X160767766Y-92271405D01*
X160741415Y-92261760D01*
X160702982Y-92246190D01*
X160657822Y-92226815D01*
X160563293Y-92188814D01*
X160426480Y-92147780D01*
X160285289Y-92122612D01*
X160247314Y-92118611D01*
X160144059Y-92116447D01*
X160056952Y-92129622D01*
X159985129Y-92158756D01*
X159927731Y-92204466D01*
X159883896Y-92267372D01*
X159852762Y-92348092D01*
X159833470Y-92447245D01*
X159826050Y-92506224D01*
X159987936Y-92499445D01*
X160114495Y-92497813D01*
X160265951Y-92504194D01*
X160414396Y-92518777D01*
X160550578Y-92540882D01*
X160615245Y-92555821D01*
X160747490Y-92598741D01*
X160869762Y-92655340D01*
X160979685Y-92724017D01*
X161074883Y-92803170D01*
X161152980Y-92891196D01*
X161211599Y-92986493D01*
X161235595Y-93038864D01*
X161261232Y-93109590D01*
X161277478Y-93180812D01*
X161285822Y-93259712D01*
X161287690Y-93350282D01*
X161287755Y-93353467D01*
X161287261Y-93387363D01*
G37*
X161287261Y-93387363D02*
X161283632Y-93462202D01*
X161276022Y-93524401D01*
X161263688Y-93580984D01*
X161219313Y-93707076D01*
X161156400Y-93821679D01*
X161076238Y-93922568D01*
X160979740Y-94008924D01*
X160867822Y-94079932D01*
X160741397Y-94134776D01*
X160601378Y-94172638D01*
X160565149Y-94178351D01*
X160486155Y-94184313D01*
X160397841Y-94184646D01*
X160308075Y-94179659D01*
X160224722Y-94169666D01*
X160155651Y-94154978D01*
X160069187Y-94124749D01*
X159959286Y-94070057D01*
X159861956Y-94002543D01*
X159799867Y-93951556D01*
X159796605Y-94047622D01*
X159793343Y-94143689D01*
X159370450Y-94143689D01*
X159359543Y-94143686D01*
X159265056Y-94143380D01*
X159178331Y-94142616D01*
X159101837Y-94141451D01*
X159038043Y-94139942D01*
X158989418Y-94138147D01*
X158958433Y-94136121D01*
X158947556Y-94133922D01*
X158947578Y-94133463D01*
X158954614Y-94117910D01*
X158970434Y-94095071D01*
X158974734Y-94089638D01*
X158985777Y-94075606D01*
X158995311Y-94062186D01*
X159003461Y-94047722D01*
X159010352Y-94030556D01*
X159016111Y-94009034D01*
X159020862Y-93981498D01*
X159024731Y-93946292D01*
X159027844Y-93901760D01*
X159030325Y-93846246D01*
X159032300Y-93778093D01*
X159033894Y-93695645D01*
X159035234Y-93597246D01*
X159036444Y-93481239D01*
X159036896Y-93430462D01*
X159839378Y-93430462D01*
X159884048Y-93486973D01*
X159896785Y-93502212D01*
X159943604Y-93544844D01*
X160004255Y-93580672D01*
X160014897Y-93585850D01*
X160053676Y-93602745D01*
X160088692Y-93612909D01*
X160128722Y-93618325D01*
X160182541Y-93620978D01*
X160200648Y-93621383D01*
X160276011Y-93618540D01*
X160336743Y-93606620D01*
X160388452Y-93584037D01*
X160436746Y-93549211D01*
X160441803Y-93544798D01*
X160490272Y-93489160D01*
X160518459Y-93425333D01*
X160527752Y-93350282D01*
X160520520Y-93278693D01*
X160495796Y-93215645D01*
X160451249Y-93157758D01*
X160396319Y-93110808D01*
X160323894Y-93070961D01*
X160237340Y-93043263D01*
X160134670Y-93027096D01*
X160013894Y-93021842D01*
X160005007Y-93021857D01*
X159949660Y-93022655D01*
X159902736Y-93024488D01*
X159868953Y-93027111D01*
X159853028Y-93030274D01*
X159848943Y-93036741D01*
X159844572Y-93058875D01*
X159841604Y-93097988D01*
X159839914Y-93155939D01*
X159839378Y-93234586D01*
X159839378Y-93430462D01*
X159036896Y-93430462D01*
X159037649Y-93345968D01*
X159038975Y-93189778D01*
X159040228Y-93047012D01*
X159041651Y-92901942D01*
X159043176Y-92776027D01*
X159044933Y-92667436D01*
X159047051Y-92574334D01*
X159049660Y-92494891D01*
X159052890Y-92427273D01*
X159056869Y-92369649D01*
X159061728Y-92320185D01*
X159067597Y-92277050D01*
X159074604Y-92238410D01*
X159082880Y-92202434D01*
X159092554Y-92167289D01*
X159103756Y-92131142D01*
X159116616Y-92092161D01*
X159132090Y-92049091D01*
X159174994Y-91956871D01*
X159228735Y-91877099D01*
X159297576Y-91802965D01*
X159375185Y-91739405D01*
X159479761Y-91677725D01*
X159599244Y-91630202D01*
X159734508Y-91596567D01*
X159886426Y-91576552D01*
X160055872Y-91569889D01*
X160113890Y-91570287D01*
X160179398Y-91572335D01*
X160240693Y-91576704D01*
X160302097Y-91584035D01*
X160367932Y-91594969D01*
X160442520Y-91610147D01*
X160530184Y-91630209D01*
X160635245Y-91655797D01*
X160663806Y-91662820D01*
X160739054Y-91680776D01*
X160809388Y-91696820D01*
X160870567Y-91710028D01*
X160918354Y-91719474D01*
X160948511Y-91724231D01*
X160976783Y-91727910D01*
X161003060Y-91733187D01*
X161013059Y-91737942D01*
X161009952Y-91746781D01*
X160999194Y-91774072D01*
X160981864Y-91816906D01*
X160959126Y-91872425D01*
X160932147Y-91937772D01*
X160902090Y-92010089D01*
X160895493Y-92025879D01*
X160856907Y-92116484D01*
X160825768Y-92186217D01*
X160801917Y-92235405D01*
X160785198Y-92264374D01*
X160775454Y-92273452D01*
X160767766Y-92271405D01*
X160741415Y-92261760D01*
X160702982Y-92246190D01*
X160657822Y-92226815D01*
X160563293Y-92188814D01*
X160426480Y-92147780D01*
X160285289Y-92122612D01*
X160247314Y-92118611D01*
X160144059Y-92116447D01*
X160056952Y-92129622D01*
X159985129Y-92158756D01*
X159927731Y-92204466D01*
X159883896Y-92267372D01*
X159852762Y-92348092D01*
X159833470Y-92447245D01*
X159826050Y-92506224D01*
X159987936Y-92499445D01*
X160114495Y-92497813D01*
X160265951Y-92504194D01*
X160414396Y-92518777D01*
X160550578Y-92540882D01*
X160615245Y-92555821D01*
X160747490Y-92598741D01*
X160869762Y-92655340D01*
X160979685Y-92724017D01*
X161074883Y-92803170D01*
X161152980Y-92891196D01*
X161211599Y-92986493D01*
X161235595Y-93038864D01*
X161261232Y-93109590D01*
X161277478Y-93180812D01*
X161285822Y-93259712D01*
X161287690Y-93350282D01*
X161287755Y-93353467D01*
X161287261Y-93387363D01*
G36*
X166400853Y-94979936D02*
G01*
X166467100Y-94985366D01*
X166522400Y-94994964D01*
X166573283Y-95009825D01*
X166644595Y-95042958D01*
X166695752Y-95085640D01*
X166726575Y-95137705D01*
X166736889Y-95198983D01*
X166735952Y-95230232D01*
X166730160Y-95255029D01*
X166715353Y-95276699D01*
X166687380Y-95304049D01*
X166679402Y-95311378D01*
X166655692Y-95332281D01*
X166633298Y-95349251D01*
X166609265Y-95363205D01*
X166580637Y-95375056D01*
X166544460Y-95385720D01*
X166497780Y-95396111D01*
X166437641Y-95407146D01*
X166361090Y-95419738D01*
X166265171Y-95434804D01*
X166246808Y-95437838D01*
X166184478Y-95451458D01*
X166139260Y-95467192D01*
X166112976Y-95484263D01*
X166107447Y-95501897D01*
X166110068Y-95506168D01*
X166128000Y-95521233D01*
X166156126Y-95537867D01*
X166168926Y-95543857D01*
X166190224Y-95551050D01*
X166216610Y-95555827D01*
X166252454Y-95558646D01*
X166302128Y-95559964D01*
X166370000Y-95560237D01*
X166387785Y-95560164D01*
X166455406Y-95559053D01*
X166520345Y-95556828D01*
X166575970Y-95553762D01*
X166615651Y-95550127D01*
X166651162Y-95546059D01*
X166680415Y-95545276D01*
X166699315Y-95549876D01*
X166714429Y-95560551D01*
X166718085Y-95564144D01*
X166734427Y-95595918D01*
X166733107Y-95631572D01*
X166714150Y-95662190D01*
X166693780Y-95673796D01*
X166657796Y-95686491D01*
X166615372Y-95696541D01*
X166611922Y-95697140D01*
X166569252Y-95702356D01*
X166511866Y-95706730D01*
X166446849Y-95709818D01*
X166381289Y-95711177D01*
X166365057Y-95711218D01*
X166266744Y-95708741D01*
X166186692Y-95700735D01*
X166121513Y-95686203D01*
X166067817Y-95664149D01*
X166022216Y-95633576D01*
X165981323Y-95593486D01*
X165961202Y-95567259D01*
X165949576Y-95537712D01*
X165946667Y-95497995D01*
X165946808Y-95486026D01*
X165950681Y-95453345D01*
X165963065Y-95426819D01*
X165988230Y-95395971D01*
X166009442Y-95373831D01*
X166035838Y-95351285D01*
X166065555Y-95332917D01*
X166101785Y-95317661D01*
X166147717Y-95304449D01*
X166206544Y-95292214D01*
X166281456Y-95279889D01*
X166375645Y-95266406D01*
X166420957Y-95259396D01*
X166488911Y-95244837D01*
X166538047Y-95228337D01*
X166567614Y-95210439D01*
X166576864Y-95191685D01*
X166565048Y-95172615D01*
X166531416Y-95153771D01*
X166528370Y-95152557D01*
X166482011Y-95140479D01*
X166419361Y-95132279D01*
X166345927Y-95128119D01*
X166267217Y-95128161D01*
X166188739Y-95132569D01*
X166116000Y-95141505D01*
X166112073Y-95142154D01*
X166063257Y-95149861D01*
X166031005Y-95153473D01*
X166010008Y-95152876D01*
X165994954Y-95147954D01*
X165980534Y-95138596D01*
X165979364Y-95137725D01*
X165954847Y-95107351D01*
X165950054Y-95071850D01*
X165965860Y-95037269D01*
X165970406Y-95032813D01*
X166000020Y-95017673D01*
X166047002Y-95004550D01*
X166107306Y-94993750D01*
X166176888Y-94985581D01*
X166251703Y-94980351D01*
X166327706Y-94978367D01*
X166400853Y-94979936D01*
G37*
X166400853Y-94979936D02*
X166467100Y-94985366D01*
X166522400Y-94994964D01*
X166573283Y-95009825D01*
X166644595Y-95042958D01*
X166695752Y-95085640D01*
X166726575Y-95137705D01*
X166736889Y-95198983D01*
X166735952Y-95230232D01*
X166730160Y-95255029D01*
X166715353Y-95276699D01*
X166687380Y-95304049D01*
X166679402Y-95311378D01*
X166655692Y-95332281D01*
X166633298Y-95349251D01*
X166609265Y-95363205D01*
X166580637Y-95375056D01*
X166544460Y-95385720D01*
X166497780Y-95396111D01*
X166437641Y-95407146D01*
X166361090Y-95419738D01*
X166265171Y-95434804D01*
X166246808Y-95437838D01*
X166184478Y-95451458D01*
X166139260Y-95467192D01*
X166112976Y-95484263D01*
X166107447Y-95501897D01*
X166110068Y-95506168D01*
X166128000Y-95521233D01*
X166156126Y-95537867D01*
X166168926Y-95543857D01*
X166190224Y-95551050D01*
X166216610Y-95555827D01*
X166252454Y-95558646D01*
X166302128Y-95559964D01*
X166370000Y-95560237D01*
X166387785Y-95560164D01*
X166455406Y-95559053D01*
X166520345Y-95556828D01*
X166575970Y-95553762D01*
X166615651Y-95550127D01*
X166651162Y-95546059D01*
X166680415Y-95545276D01*
X166699315Y-95549876D01*
X166714429Y-95560551D01*
X166718085Y-95564144D01*
X166734427Y-95595918D01*
X166733107Y-95631572D01*
X166714150Y-95662190D01*
X166693780Y-95673796D01*
X166657796Y-95686491D01*
X166615372Y-95696541D01*
X166611922Y-95697140D01*
X166569252Y-95702356D01*
X166511866Y-95706730D01*
X166446849Y-95709818D01*
X166381289Y-95711177D01*
X166365057Y-95711218D01*
X166266744Y-95708741D01*
X166186692Y-95700735D01*
X166121513Y-95686203D01*
X166067817Y-95664149D01*
X166022216Y-95633576D01*
X165981323Y-95593486D01*
X165961202Y-95567259D01*
X165949576Y-95537712D01*
X165946667Y-95497995D01*
X165946808Y-95486026D01*
X165950681Y-95453345D01*
X165963065Y-95426819D01*
X165988230Y-95395971D01*
X166009442Y-95373831D01*
X166035838Y-95351285D01*
X166065555Y-95332917D01*
X166101785Y-95317661D01*
X166147717Y-95304449D01*
X166206544Y-95292214D01*
X166281456Y-95279889D01*
X166375645Y-95266406D01*
X166420957Y-95259396D01*
X166488911Y-95244837D01*
X166538047Y-95228337D01*
X166567614Y-95210439D01*
X166576864Y-95191685D01*
X166565048Y-95172615D01*
X166531416Y-95153771D01*
X166528370Y-95152557D01*
X166482011Y-95140479D01*
X166419361Y-95132279D01*
X166345927Y-95128119D01*
X166267217Y-95128161D01*
X166188739Y-95132569D01*
X166116000Y-95141505D01*
X166112073Y-95142154D01*
X166063257Y-95149861D01*
X166031005Y-95153473D01*
X166010008Y-95152876D01*
X165994954Y-95147954D01*
X165980534Y-95138596D01*
X165979364Y-95137725D01*
X165954847Y-95107351D01*
X165950054Y-95071850D01*
X165965860Y-95037269D01*
X165970406Y-95032813D01*
X166000020Y-95017673D01*
X166047002Y-95004550D01*
X166107306Y-94993750D01*
X166176888Y-94985581D01*
X166251703Y-94980351D01*
X166327706Y-94978367D01*
X166400853Y-94979936D01*
G36*
X157715767Y-94979068D02*
G01*
X157809890Y-94979158D01*
X157884405Y-94979498D01*
X157941811Y-94980239D01*
X157984611Y-94981535D01*
X158015304Y-94983537D01*
X158036391Y-94986396D01*
X158050373Y-94990266D01*
X158059750Y-94995298D01*
X158067022Y-95001645D01*
X158085828Y-95034362D01*
X158087275Y-95071939D01*
X158070917Y-95105178D01*
X158069557Y-95106631D01*
X158058354Y-95114992D01*
X158041252Y-95120547D01*
X158014082Y-95123840D01*
X157972678Y-95125418D01*
X157912873Y-95125822D01*
X157773511Y-95125822D01*
X157773511Y-95389589D01*
X157773436Y-95465417D01*
X157773028Y-95532083D01*
X157772046Y-95581867D01*
X157770250Y-95617784D01*
X157767399Y-95642850D01*
X157763253Y-95660081D01*
X157757571Y-95672492D01*
X157750114Y-95683100D01*
X157747824Y-95685906D01*
X157716646Y-95708548D01*
X157682266Y-95710112D01*
X157649334Y-95690267D01*
X157642355Y-95682191D01*
X157636883Y-95671593D01*
X157632863Y-95655749D01*
X157630072Y-95631773D01*
X157628288Y-95596774D01*
X157627289Y-95547864D01*
X157626852Y-95482154D01*
X157626756Y-95396756D01*
X157626756Y-95125822D01*
X157480820Y-95125822D01*
X157469720Y-95125821D01*
X157413202Y-95125596D01*
X157374358Y-95124457D01*
X157348965Y-95121657D01*
X157332804Y-95116450D01*
X157321652Y-95108089D01*
X157311289Y-95095826D01*
X157295441Y-95065138D01*
X157298543Y-95031358D01*
X157324187Y-94998822D01*
X157329129Y-94995105D01*
X157339338Y-94990269D01*
X157354764Y-94986506D01*
X157377886Y-94983683D01*
X157411183Y-94981670D01*
X157457137Y-94980333D01*
X157518228Y-94979542D01*
X157596935Y-94979163D01*
X157695740Y-94979067D01*
X157715767Y-94979068D01*
G37*
X157715767Y-94979068D02*
X157809890Y-94979158D01*
X157884405Y-94979498D01*
X157941811Y-94980239D01*
X157984611Y-94981535D01*
X158015304Y-94983537D01*
X158036391Y-94986396D01*
X158050373Y-94990266D01*
X158059750Y-94995298D01*
X158067022Y-95001645D01*
X158085828Y-95034362D01*
X158087275Y-95071939D01*
X158070917Y-95105178D01*
X158069557Y-95106631D01*
X158058354Y-95114992D01*
X158041252Y-95120547D01*
X158014082Y-95123840D01*
X157972678Y-95125418D01*
X157912873Y-95125822D01*
X157773511Y-95125822D01*
X157773511Y-95389589D01*
X157773436Y-95465417D01*
X157773028Y-95532083D01*
X157772046Y-95581867D01*
X157770250Y-95617784D01*
X157767399Y-95642850D01*
X157763253Y-95660081D01*
X157757571Y-95672492D01*
X157750114Y-95683100D01*
X157747824Y-95685906D01*
X157716646Y-95708548D01*
X157682266Y-95710112D01*
X157649334Y-95690267D01*
X157642355Y-95682191D01*
X157636883Y-95671593D01*
X157632863Y-95655749D01*
X157630072Y-95631773D01*
X157628288Y-95596774D01*
X157627289Y-95547864D01*
X157626852Y-95482154D01*
X157626756Y-95396756D01*
X157626756Y-95125822D01*
X157480820Y-95125822D01*
X157469720Y-95125821D01*
X157413202Y-95125596D01*
X157374358Y-95124457D01*
X157348965Y-95121657D01*
X157332804Y-95116450D01*
X157321652Y-95108089D01*
X157311289Y-95095826D01*
X157295441Y-95065138D01*
X157298543Y-95031358D01*
X157324187Y-94998822D01*
X157329129Y-94995105D01*
X157339338Y-94990269D01*
X157354764Y-94986506D01*
X157377886Y-94983683D01*
X157411183Y-94981670D01*
X157457137Y-94980333D01*
X157518228Y-94979542D01*
X157596935Y-94979163D01*
X157695740Y-94979067D01*
X157715767Y-94979068D01*
G36*
X158745268Y-93030158D02*
G01*
X158736689Y-93181594D01*
X158717833Y-93318283D01*
X158687837Y-93444276D01*
X158645836Y-93563625D01*
X158590969Y-93680381D01*
X158524167Y-93791179D01*
X158433363Y-93904739D01*
X158329708Y-94000211D01*
X158213887Y-94077073D01*
X158086586Y-94134797D01*
X157948489Y-94172858D01*
X157910793Y-94178666D01*
X157831752Y-94184396D01*
X157743629Y-94184583D01*
X157654236Y-94179539D01*
X157571384Y-94169578D01*
X157502887Y-94155012D01*
X157472035Y-94145364D01*
X157394730Y-94115123D01*
X157317679Y-94077617D01*
X157248200Y-94036614D01*
X157193615Y-93995879D01*
X157170916Y-93976505D01*
X157148201Y-93958662D01*
X157136779Y-93951778D01*
X157135537Y-93953424D01*
X157132728Y-93971205D01*
X157130776Y-94004370D01*
X157130045Y-94047733D01*
X157130045Y-94143689D01*
X156271896Y-94143689D01*
X156306161Y-94082974D01*
X156311355Y-94073868D01*
X156319715Y-94059249D01*
X156327288Y-94045173D01*
X156334112Y-94030540D01*
X156340227Y-94014249D01*
X156345673Y-93995198D01*
X156350487Y-93972286D01*
X156354708Y-93944413D01*
X156358377Y-93910478D01*
X156361531Y-93869379D01*
X156364211Y-93820015D01*
X156366454Y-93761286D01*
X156368299Y-93692090D01*
X156369787Y-93611326D01*
X156370955Y-93517894D01*
X156371678Y-93430721D01*
X157175200Y-93430721D01*
X157245756Y-93477089D01*
X157286417Y-93500791D01*
X157340546Y-93526639D01*
X157389689Y-93544829D01*
X157453165Y-93560551D01*
X157549331Y-93571541D01*
X157633900Y-93563365D01*
X157707219Y-93535805D01*
X157769637Y-93488642D01*
X157821502Y-93421658D01*
X157863160Y-93334633D01*
X157894962Y-93227350D01*
X157897545Y-93215009D01*
X157906000Y-93153772D01*
X157911663Y-93076692D01*
X157914576Y-92989002D01*
X157914783Y-92895934D01*
X157912330Y-92802720D01*
X157907261Y-92714594D01*
X157899619Y-92636788D01*
X157889448Y-92574533D01*
X157888167Y-92568666D01*
X157859126Y-92458121D01*
X157824610Y-92367575D01*
X157783456Y-92294953D01*
X157734499Y-92238181D01*
X157676574Y-92195184D01*
X157644620Y-92179615D01*
X157571784Y-92160722D01*
X157490443Y-92157465D01*
X157405319Y-92169389D01*
X157321133Y-92196040D01*
X157242608Y-92236962D01*
X157175200Y-92280530D01*
X157175200Y-93430721D01*
X156371678Y-93430721D01*
X156371844Y-93410692D01*
X156372491Y-93288620D01*
X156372936Y-93150576D01*
X156373218Y-92995459D01*
X156373375Y-92822168D01*
X156373448Y-92629603D01*
X156373474Y-92416662D01*
X156373493Y-92182245D01*
X156373689Y-90497378D01*
X157279017Y-90497378D01*
X157254585Y-90534067D01*
X157248318Y-90543647D01*
X157222208Y-90589981D01*
X157204469Y-90637102D01*
X157192908Y-90692251D01*
X157185331Y-90762667D01*
X157184839Y-90769650D01*
X157183062Y-90807641D01*
X157181444Y-90861576D01*
X157179999Y-90928703D01*
X157178740Y-91006271D01*
X157177680Y-91091528D01*
X157176829Y-91181724D01*
X157176203Y-91274107D01*
X157175812Y-91365925D01*
X157175670Y-91454427D01*
X157175790Y-91536862D01*
X157176183Y-91610479D01*
X157176862Y-91672526D01*
X157177841Y-91720251D01*
X157179132Y-91750904D01*
X157180747Y-91761733D01*
X157188957Y-91757333D01*
X157210647Y-91742362D01*
X157240014Y-91720448D01*
X157288879Y-91686236D01*
X157377125Y-91639714D01*
X157475916Y-91606046D01*
X157588510Y-91584231D01*
X157718164Y-91573265D01*
X157810670Y-91572219D01*
X157932011Y-91582014D01*
X158042099Y-91606174D01*
X158145389Y-91645785D01*
X158246338Y-91701932D01*
X158291503Y-91732883D01*
X158396911Y-91824115D01*
X158488538Y-91933106D01*
X158566332Y-92059726D01*
X158630241Y-92203845D01*
X158680214Y-92365332D01*
X158716198Y-92544059D01*
X158738143Y-92739895D01*
X158743900Y-92895934D01*
X158745994Y-92952711D01*
X158745268Y-93030158D01*
G37*
X158745268Y-93030158D02*
X158736689Y-93181594D01*
X158717833Y-93318283D01*
X158687837Y-93444276D01*
X158645836Y-93563625D01*
X158590969Y-93680381D01*
X158524167Y-93791179D01*
X158433363Y-93904739D01*
X158329708Y-94000211D01*
X158213887Y-94077073D01*
X158086586Y-94134797D01*
X157948489Y-94172858D01*
X157910793Y-94178666D01*
X157831752Y-94184396D01*
X157743629Y-94184583D01*
X157654236Y-94179539D01*
X157571384Y-94169578D01*
X157502887Y-94155012D01*
X157472035Y-94145364D01*
X157394730Y-94115123D01*
X157317679Y-94077617D01*
X157248200Y-94036614D01*
X157193615Y-93995879D01*
X157170916Y-93976505D01*
X157148201Y-93958662D01*
X157136779Y-93951778D01*
X157135537Y-93953424D01*
X157132728Y-93971205D01*
X157130776Y-94004370D01*
X157130045Y-94047733D01*
X157130045Y-94143689D01*
X156271896Y-94143689D01*
X156306161Y-94082974D01*
X156311355Y-94073868D01*
X156319715Y-94059249D01*
X156327288Y-94045173D01*
X156334112Y-94030540D01*
X156340227Y-94014249D01*
X156345673Y-93995198D01*
X156350487Y-93972286D01*
X156354708Y-93944413D01*
X156358377Y-93910478D01*
X156361531Y-93869379D01*
X156364211Y-93820015D01*
X156366454Y-93761286D01*
X156368299Y-93692090D01*
X156369787Y-93611326D01*
X156370955Y-93517894D01*
X156371678Y-93430721D01*
X157175200Y-93430721D01*
X157245756Y-93477089D01*
X157286417Y-93500791D01*
X157340546Y-93526639D01*
X157389689Y-93544829D01*
X157453165Y-93560551D01*
X157549331Y-93571541D01*
X157633900Y-93563365D01*
X157707219Y-93535805D01*
X157769637Y-93488642D01*
X157821502Y-93421658D01*
X157863160Y-93334633D01*
X157894962Y-93227350D01*
X157897545Y-93215009D01*
X157906000Y-93153772D01*
X157911663Y-93076692D01*
X157914576Y-92989002D01*
X157914783Y-92895934D01*
X157912330Y-92802720D01*
X157907261Y-92714594D01*
X157899619Y-92636788D01*
X157889448Y-92574533D01*
X157888167Y-92568666D01*
X157859126Y-92458121D01*
X157824610Y-92367575D01*
X157783456Y-92294953D01*
X157734499Y-92238181D01*
X157676574Y-92195184D01*
X157644620Y-92179615D01*
X157571784Y-92160722D01*
X157490443Y-92157465D01*
X157405319Y-92169389D01*
X157321133Y-92196040D01*
X157242608Y-92236962D01*
X157175200Y-92280530D01*
X157175200Y-93430721D01*
X156371678Y-93430721D01*
X156371844Y-93410692D01*
X156372491Y-93288620D01*
X156372936Y-93150576D01*
X156373218Y-92995459D01*
X156373375Y-92822168D01*
X156373448Y-92629603D01*
X156373474Y-92416662D01*
X156373493Y-92182245D01*
X156373689Y-90497378D01*
X157279017Y-90497378D01*
X157254585Y-90534067D01*
X157248318Y-90543647D01*
X157222208Y-90589981D01*
X157204469Y-90637102D01*
X157192908Y-90692251D01*
X157185331Y-90762667D01*
X157184839Y-90769650D01*
X157183062Y-90807641D01*
X157181444Y-90861576D01*
X157179999Y-90928703D01*
X157178740Y-91006271D01*
X157177680Y-91091528D01*
X157176829Y-91181724D01*
X157176203Y-91274107D01*
X157175812Y-91365925D01*
X157175670Y-91454427D01*
X157175790Y-91536862D01*
X157176183Y-91610479D01*
X157176862Y-91672526D01*
X157177841Y-91720251D01*
X157179132Y-91750904D01*
X157180747Y-91761733D01*
X157188957Y-91757333D01*
X157210647Y-91742362D01*
X157240014Y-91720448D01*
X157288879Y-91686236D01*
X157377125Y-91639714D01*
X157475916Y-91606046D01*
X157588510Y-91584231D01*
X157718164Y-91573265D01*
X157810670Y-91572219D01*
X157932011Y-91582014D01*
X158042099Y-91606174D01*
X158145389Y-91645785D01*
X158246338Y-91701932D01*
X158291503Y-91732883D01*
X158396911Y-91824115D01*
X158488538Y-91933106D01*
X158566332Y-92059726D01*
X158630241Y-92203845D01*
X158680214Y-92365332D01*
X158716198Y-92544059D01*
X158738143Y-92739895D01*
X158743900Y-92895934D01*
X158745994Y-92952711D01*
X158745268Y-93030158D01*
G36*
X158849702Y-94988478D02*
G01*
X158867663Y-95006989D01*
X158888263Y-95038071D01*
X158913095Y-95083756D01*
X158943750Y-95146078D01*
X158981820Y-95227071D01*
X158996454Y-95258454D01*
X159026203Y-95321638D01*
X159052297Y-95376244D01*
X159073292Y-95419290D01*
X159087739Y-95447793D01*
X159094191Y-95458770D01*
X159095550Y-95458189D01*
X159105542Y-95444242D01*
X159122833Y-95414704D01*
X159145430Y-95373087D01*
X159171338Y-95322903D01*
X159187311Y-95291414D01*
X159216261Y-95236061D01*
X159238749Y-95197044D01*
X159256965Y-95171566D01*
X159273096Y-95156831D01*
X159289330Y-95150042D01*
X159307857Y-95148400D01*
X159318360Y-95148875D01*
X159334476Y-95153082D01*
X159349790Y-95163946D01*
X159366388Y-95184219D01*
X159386357Y-95216654D01*
X159411783Y-95264004D01*
X159444752Y-95329022D01*
X159454485Y-95348277D01*
X159478943Y-95394946D01*
X159499178Y-95431109D01*
X159513311Y-95453497D01*
X159519460Y-95458845D01*
X159520827Y-95455573D01*
X159530202Y-95434664D01*
X159547062Y-95397725D01*
X159569979Y-95347874D01*
X159597520Y-95288226D01*
X159628255Y-95221898D01*
X159654970Y-95164677D01*
X159684593Y-95102688D01*
X159707664Y-95056949D01*
X159725643Y-95024908D01*
X159739990Y-95004014D01*
X159752166Y-94991718D01*
X159763632Y-94985466D01*
X159773042Y-94982574D01*
X159798147Y-94982425D01*
X159825290Y-94997768D01*
X159826590Y-94998753D01*
X159848674Y-95021388D01*
X159859723Y-95043613D01*
X159859769Y-95044253D01*
X159855228Y-95061915D01*
X159842364Y-95096481D01*
X159822605Y-95144826D01*
X159797381Y-95203825D01*
X159768119Y-95270355D01*
X159736250Y-95341291D01*
X159703201Y-95413507D01*
X159670401Y-95483880D01*
X159639280Y-95549285D01*
X159611265Y-95606597D01*
X159587786Y-95652692D01*
X159570272Y-95684446D01*
X159560151Y-95698733D01*
X159525743Y-95712102D01*
X159484046Y-95705741D01*
X159478681Y-95701044D01*
X159462852Y-95678893D01*
X159440650Y-95642132D01*
X159414233Y-95594415D01*
X159385760Y-95539393D01*
X159305986Y-95380150D01*
X159232799Y-95526742D01*
X159223103Y-95546032D01*
X159196125Y-95598380D01*
X159172096Y-95643170D01*
X159153332Y-95676154D01*
X159142146Y-95693089D01*
X159141000Y-95694332D01*
X159112879Y-95709619D01*
X159077817Y-95711302D01*
X159046776Y-95698733D01*
X159044350Y-95695884D01*
X159032090Y-95675259D01*
X159012352Y-95637708D01*
X158986448Y-95585880D01*
X158955685Y-95522423D01*
X158921375Y-95449985D01*
X158884825Y-95371216D01*
X158864585Y-95327093D01*
X158827812Y-95246365D01*
X158799355Y-95182687D01*
X158778331Y-95133752D01*
X158763854Y-95097257D01*
X158755039Y-95070895D01*
X158751004Y-95052361D01*
X158750862Y-95039352D01*
X158753730Y-95029561D01*
X158768387Y-95008678D01*
X158794990Y-94988377D01*
X158795745Y-94988035D01*
X158815335Y-94981034D01*
X158832790Y-94980504D01*
X158849702Y-94988478D01*
G37*
X158849702Y-94988478D02*
X158867663Y-95006989D01*
X158888263Y-95038071D01*
X158913095Y-95083756D01*
X158943750Y-95146078D01*
X158981820Y-95227071D01*
X158996454Y-95258454D01*
X159026203Y-95321638D01*
X159052297Y-95376244D01*
X159073292Y-95419290D01*
X159087739Y-95447793D01*
X159094191Y-95458770D01*
X159095550Y-95458189D01*
X159105542Y-95444242D01*
X159122833Y-95414704D01*
X159145430Y-95373087D01*
X159171338Y-95322903D01*
X159187311Y-95291414D01*
X159216261Y-95236061D01*
X159238749Y-95197044D01*
X159256965Y-95171566D01*
X159273096Y-95156831D01*
X159289330Y-95150042D01*
X159307857Y-95148400D01*
X159318360Y-95148875D01*
X159334476Y-95153082D01*
X159349790Y-95163946D01*
X159366388Y-95184219D01*
X159386357Y-95216654D01*
X159411783Y-95264004D01*
X159444752Y-95329022D01*
X159454485Y-95348277D01*
X159478943Y-95394946D01*
X159499178Y-95431109D01*
X159513311Y-95453497D01*
X159519460Y-95458845D01*
X159520827Y-95455573D01*
X159530202Y-95434664D01*
X159547062Y-95397725D01*
X159569979Y-95347874D01*
X159597520Y-95288226D01*
X159628255Y-95221898D01*
X159654970Y-95164677D01*
X159684593Y-95102688D01*
X159707664Y-95056949D01*
X159725643Y-95024908D01*
X159739990Y-95004014D01*
X159752166Y-94991718D01*
X159763632Y-94985466D01*
X159773042Y-94982574D01*
X159798147Y-94982425D01*
X159825290Y-94997768D01*
X159826590Y-94998753D01*
X159848674Y-95021388D01*
X159859723Y-95043613D01*
X159859769Y-95044253D01*
X159855228Y-95061915D01*
X159842364Y-95096481D01*
X159822605Y-95144826D01*
X159797381Y-95203825D01*
X159768119Y-95270355D01*
X159736250Y-95341291D01*
X159703201Y-95413507D01*
X159670401Y-95483880D01*
X159639280Y-95549285D01*
X159611265Y-95606597D01*
X159587786Y-95652692D01*
X159570272Y-95684446D01*
X159560151Y-95698733D01*
X159525743Y-95712102D01*
X159484046Y-95705741D01*
X159478681Y-95701044D01*
X159462852Y-95678893D01*
X159440650Y-95642132D01*
X159414233Y-95594415D01*
X159385760Y-95539393D01*
X159305986Y-95380150D01*
X159232799Y-95526742D01*
X159223103Y-95546032D01*
X159196125Y-95598380D01*
X159172096Y-95643170D01*
X159153332Y-95676154D01*
X159142146Y-95693089D01*
X159141000Y-95694332D01*
X159112879Y-95709619D01*
X159077817Y-95711302D01*
X159046776Y-95698733D01*
X159044350Y-95695884D01*
X159032090Y-95675259D01*
X159012352Y-95637708D01*
X158986448Y-95585880D01*
X158955685Y-95522423D01*
X158921375Y-95449985D01*
X158884825Y-95371216D01*
X158864585Y-95327093D01*
X158827812Y-95246365D01*
X158799355Y-95182687D01*
X158778331Y-95133752D01*
X158763854Y-95097257D01*
X158755039Y-95070895D01*
X158751004Y-95052361D01*
X158750862Y-95039352D01*
X158753730Y-95029561D01*
X158768387Y-95008678D01*
X158794990Y-94988377D01*
X158795745Y-94988035D01*
X158815335Y-94981034D01*
X158832790Y-94980504D01*
X158849702Y-94988478D01*
G36*
X168836870Y-95245041D02*
G01*
X168836622Y-95345956D01*
X168836583Y-95421617D01*
X168836328Y-95499526D01*
X168835684Y-95559536D01*
X168834480Y-95604264D01*
X168832543Y-95636326D01*
X168829703Y-95658340D01*
X168825788Y-95672924D01*
X168820626Y-95682694D01*
X168814045Y-95690267D01*
X168807077Y-95696501D01*
X168794079Y-95703801D01*
X168774931Y-95708554D01*
X168745528Y-95711292D01*
X168701762Y-95712545D01*
X168639528Y-95712845D01*
X168590582Y-95712469D01*
X168483722Y-95708041D01*
X168394494Y-95697953D01*
X168319696Y-95681365D01*
X168256125Y-95657435D01*
X168200579Y-95625321D01*
X168149854Y-95584182D01*
X168143866Y-95578330D01*
X168106999Y-95529821D01*
X168075899Y-95469013D01*
X168054417Y-95404769D01*
X168049136Y-95366026D01*
X168196353Y-95366026D01*
X168214635Y-95416961D01*
X168244305Y-95462878D01*
X168291002Y-95505287D01*
X168352392Y-95535090D01*
X168431538Y-95554226D01*
X168433028Y-95554464D01*
X168481999Y-95560256D01*
X168540693Y-95564396D01*
X168596734Y-95566004D01*
X168689867Y-95566089D01*
X168689867Y-95125822D01*
X168613667Y-95125808D01*
X168610639Y-95125817D01*
X168559519Y-95127782D01*
X168499416Y-95132507D01*
X168442708Y-95139035D01*
X168392750Y-95148331D01*
X168317998Y-95174600D01*
X168260489Y-95213899D01*
X168218988Y-95266933D01*
X168197771Y-95318200D01*
X168196353Y-95366026D01*
X168049136Y-95366026D01*
X168046400Y-95345956D01*
X168047679Y-95324739D01*
X168059991Y-95267323D01*
X168082520Y-95207413D01*
X168111750Y-95153363D01*
X168144167Y-95113532D01*
X168163708Y-95096510D01*
X168218420Y-95057322D01*
X168278723Y-95027193D01*
X168347919Y-95005232D01*
X168429311Y-94990550D01*
X168526200Y-94982259D01*
X168641889Y-94979467D01*
X168681371Y-94979066D01*
X168727082Y-94978653D01*
X168762883Y-94980457D01*
X168789974Y-94986739D01*
X168809556Y-94999759D01*
X168822830Y-95021778D01*
X168830998Y-95055055D01*
X168835260Y-95101851D01*
X168835857Y-95125822D01*
X168836817Y-95164427D01*
X168836870Y-95245041D01*
G37*
X168836870Y-95245041D02*
X168836622Y-95345956D01*
X168836583Y-95421617D01*
X168836328Y-95499526D01*
X168835684Y-95559536D01*
X168834480Y-95604264D01*
X168832543Y-95636326D01*
X168829703Y-95658340D01*
X168825788Y-95672924D01*
X168820626Y-95682694D01*
X168814045Y-95690267D01*
X168807077Y-95696501D01*
X168794079Y-95703801D01*
X168774931Y-95708554D01*
X168745528Y-95711292D01*
X168701762Y-95712545D01*
X168639528Y-95712845D01*
X168590582Y-95712469D01*
X168483722Y-95708041D01*
X168394494Y-95697953D01*
X168319696Y-95681365D01*
X168256125Y-95657435D01*
X168200579Y-95625321D01*
X168149854Y-95584182D01*
X168143866Y-95578330D01*
X168106999Y-95529821D01*
X168075899Y-95469013D01*
X168054417Y-95404769D01*
X168049136Y-95366026D01*
X168196353Y-95366026D01*
X168214635Y-95416961D01*
X168244305Y-95462878D01*
X168291002Y-95505287D01*
X168352392Y-95535090D01*
X168431538Y-95554226D01*
X168433028Y-95554464D01*
X168481999Y-95560256D01*
X168540693Y-95564396D01*
X168596734Y-95566004D01*
X168689867Y-95566089D01*
X168689867Y-95125822D01*
X168613667Y-95125808D01*
X168610639Y-95125817D01*
X168559519Y-95127782D01*
X168499416Y-95132507D01*
X168442708Y-95139035D01*
X168392750Y-95148331D01*
X168317998Y-95174600D01*
X168260489Y-95213899D01*
X168218988Y-95266933D01*
X168197771Y-95318200D01*
X168196353Y-95366026D01*
X168049136Y-95366026D01*
X168046400Y-95345956D01*
X168047679Y-95324739D01*
X168059991Y-95267323D01*
X168082520Y-95207413D01*
X168111750Y-95153363D01*
X168144167Y-95113532D01*
X168163708Y-95096510D01*
X168218420Y-95057322D01*
X168278723Y-95027193D01*
X168347919Y-95005232D01*
X168429311Y-94990550D01*
X168526200Y-94982259D01*
X168641889Y-94979467D01*
X168681371Y-94979066D01*
X168727082Y-94978653D01*
X168762883Y-94980457D01*
X168789974Y-94986739D01*
X168809556Y-94999759D01*
X168822830Y-95021778D01*
X168830998Y-95055055D01*
X168835260Y-95101851D01*
X168835857Y-95125822D01*
X168836817Y-95164427D01*
X168836870Y-95245041D01*
G36*
X163891893Y-94977892D02*
G01*
X163903301Y-94984029D01*
X163913850Y-94994691D01*
X163925136Y-95008811D01*
X163929589Y-95014772D01*
X163935588Y-95025268D01*
X163940167Y-95039093D01*
X163943519Y-95058998D01*
X163945833Y-95087732D01*
X163947301Y-95128045D01*
X163948113Y-95182687D01*
X163948460Y-95254407D01*
X163948534Y-95345956D01*
X163948511Y-95404486D01*
X163948292Y-95483573D01*
X163947683Y-95544516D01*
X163946492Y-95590062D01*
X163944529Y-95622963D01*
X163941603Y-95645968D01*
X163937523Y-95661826D01*
X163932097Y-95673286D01*
X163925136Y-95683100D01*
X163894708Y-95707493D01*
X163859765Y-95710372D01*
X163822784Y-95691282D01*
X163818600Y-95687807D01*
X163810424Y-95679279D01*
X163804364Y-95667728D01*
X163799981Y-95649896D01*
X163796839Y-95622524D01*
X163794502Y-95582354D01*
X163792531Y-95526128D01*
X163790489Y-95450589D01*
X163784845Y-95231458D01*
X163519556Y-95472099D01*
X163445722Y-95538875D01*
X163380542Y-95596991D01*
X163328348Y-95641949D01*
X163287273Y-95674871D01*
X163255455Y-95696879D01*
X163231026Y-95709094D01*
X163212124Y-95712639D01*
X163196883Y-95708636D01*
X163183439Y-95698207D01*
X163169927Y-95682474D01*
X163163682Y-95673991D01*
X163158050Y-95663413D01*
X163153839Y-95649255D01*
X163150887Y-95628803D01*
X163149032Y-95599342D01*
X163148113Y-95558161D01*
X163147968Y-95502544D01*
X163148435Y-95429779D01*
X163149352Y-95337151D01*
X163152667Y-95022199D01*
X163179318Y-95000633D01*
X163205383Y-94984441D01*
X163238241Y-94981670D01*
X163272772Y-95000623D01*
X163277084Y-95004208D01*
X163285216Y-95012737D01*
X163291245Y-95024329D01*
X163295606Y-95042235D01*
X163298734Y-95069706D01*
X163301063Y-95109994D01*
X163303029Y-95166351D01*
X163305067Y-95242029D01*
X163310711Y-95461878D01*
X163491334Y-95298084D01*
X163578072Y-95219451D01*
X163653843Y-95151058D01*
X163715980Y-95095708D01*
X163766078Y-95052338D01*
X163805735Y-95019881D01*
X163836548Y-94997273D01*
X163860114Y-94983448D01*
X163878030Y-94977343D01*
X163891893Y-94977892D01*
G37*
X163891893Y-94977892D02*
X163903301Y-94984029D01*
X163913850Y-94994691D01*
X163925136Y-95008811D01*
X163929589Y-95014772D01*
X163935588Y-95025268D01*
X163940167Y-95039093D01*
X163943519Y-95058998D01*
X163945833Y-95087732D01*
X163947301Y-95128045D01*
X163948113Y-95182687D01*
X163948460Y-95254407D01*
X163948534Y-95345956D01*
X163948511Y-95404486D01*
X163948292Y-95483573D01*
X163947683Y-95544516D01*
X163946492Y-95590062D01*
X163944529Y-95622963D01*
X163941603Y-95645968D01*
X163937523Y-95661826D01*
X163932097Y-95673286D01*
X163925136Y-95683100D01*
X163894708Y-95707493D01*
X163859765Y-95710372D01*
X163822784Y-95691282D01*
X163818600Y-95687807D01*
X163810424Y-95679279D01*
X163804364Y-95667728D01*
X163799981Y-95649896D01*
X163796839Y-95622524D01*
X163794502Y-95582354D01*
X163792531Y-95526128D01*
X163790489Y-95450589D01*
X163784845Y-95231458D01*
X163519556Y-95472099D01*
X163445722Y-95538875D01*
X163380542Y-95596991D01*
X163328348Y-95641949D01*
X163287273Y-95674871D01*
X163255455Y-95696879D01*
X163231026Y-95709094D01*
X163212124Y-95712639D01*
X163196883Y-95708636D01*
X163183439Y-95698207D01*
X163169927Y-95682474D01*
X163163682Y-95673991D01*
X163158050Y-95663413D01*
X163153839Y-95649255D01*
X163150887Y-95628803D01*
X163149032Y-95599342D01*
X163148113Y-95558161D01*
X163147968Y-95502544D01*
X163148435Y-95429779D01*
X163149352Y-95337151D01*
X163152667Y-95022199D01*
X163179318Y-95000633D01*
X163205383Y-94984441D01*
X163238241Y-94981670D01*
X163272772Y-95000623D01*
X163277084Y-95004208D01*
X163285216Y-95012737D01*
X163291245Y-95024329D01*
X163295606Y-95042235D01*
X163298734Y-95069706D01*
X163301063Y-95109994D01*
X163303029Y-95166351D01*
X163305067Y-95242029D01*
X163310711Y-95461878D01*
X163491334Y-95298084D01*
X163578072Y-95219451D01*
X163653843Y-95151058D01*
X163715980Y-95095708D01*
X163766078Y-95052338D01*
X163805735Y-95019881D01*
X163836548Y-94997273D01*
X163860114Y-94983448D01*
X163878030Y-94977343D01*
X163891893Y-94977892D01*
G36*
X157039734Y-95001645D02*
G01*
X157045366Y-95007835D01*
X157050456Y-95016041D01*
X157054543Y-95027817D01*
X157057721Y-95045276D01*
X157060087Y-95070530D01*
X157061738Y-95105690D01*
X157062769Y-95152869D01*
X157063277Y-95214177D01*
X157063359Y-95291727D01*
X157063109Y-95387631D01*
X157062625Y-95504000D01*
X157062557Y-95518175D01*
X157061971Y-95579937D01*
X157060648Y-95623620D01*
X157058103Y-95653001D01*
X157053848Y-95671855D01*
X157047396Y-95683959D01*
X157038262Y-95693089D01*
X157004804Y-95710506D01*
X156969856Y-95707604D01*
X156938953Y-95683100D01*
X156929944Y-95669897D01*
X156922492Y-95651361D01*
X156918124Y-95625333D01*
X156916069Y-95586787D01*
X156915556Y-95530700D01*
X156915556Y-95408045D01*
X156418845Y-95408045D01*
X156418845Y-95542871D01*
X156418772Y-95578662D01*
X156418009Y-95624992D01*
X156415833Y-95655526D01*
X156411536Y-95674557D01*
X156404412Y-95686374D01*
X156393755Y-95695271D01*
X156361504Y-95710341D01*
X156326217Y-95707673D01*
X156295486Y-95683100D01*
X156290831Y-95676845D01*
X156284895Y-95666321D01*
X156280364Y-95652391D01*
X156277048Y-95632317D01*
X156274759Y-95603360D01*
X156273308Y-95562780D01*
X156272505Y-95507840D01*
X156272162Y-95435799D01*
X156272089Y-95343920D01*
X156272089Y-95034485D01*
X156299798Y-95006776D01*
X156331177Y-94984533D01*
X156364406Y-94981844D01*
X156396267Y-95001645D01*
X156404553Y-95011415D01*
X156411965Y-95027307D01*
X156416302Y-95051275D01*
X156418338Y-95088148D01*
X156418845Y-95142756D01*
X156418845Y-95261289D01*
X156915556Y-95261289D01*
X156915556Y-95145776D01*
X156915994Y-95094078D01*
X156917958Y-95059554D01*
X156922474Y-95036978D01*
X156930567Y-95021126D01*
X156943265Y-95006776D01*
X156974643Y-94984533D01*
X157007872Y-94981844D01*
X157039734Y-95001645D01*
G37*
X157039734Y-95001645D02*
X157045366Y-95007835D01*
X157050456Y-95016041D01*
X157054543Y-95027817D01*
X157057721Y-95045276D01*
X157060087Y-95070530D01*
X157061738Y-95105690D01*
X157062769Y-95152869D01*
X157063277Y-95214177D01*
X157063359Y-95291727D01*
X157063109Y-95387631D01*
X157062625Y-95504000D01*
X157062557Y-95518175D01*
X157061971Y-95579937D01*
X157060648Y-95623620D01*
X157058103Y-95653001D01*
X157053848Y-95671855D01*
X157047396Y-95683959D01*
X157038262Y-95693089D01*
X157004804Y-95710506D01*
X156969856Y-95707604D01*
X156938953Y-95683100D01*
X156929944Y-95669897D01*
X156922492Y-95651361D01*
X156918124Y-95625333D01*
X156916069Y-95586787D01*
X156915556Y-95530700D01*
X156915556Y-95408045D01*
X156418845Y-95408045D01*
X156418845Y-95542871D01*
X156418772Y-95578662D01*
X156418009Y-95624992D01*
X156415833Y-95655526D01*
X156411536Y-95674557D01*
X156404412Y-95686374D01*
X156393755Y-95695271D01*
X156361504Y-95710341D01*
X156326217Y-95707673D01*
X156295486Y-95683100D01*
X156290831Y-95676845D01*
X156284895Y-95666321D01*
X156280364Y-95652391D01*
X156277048Y-95632317D01*
X156274759Y-95603360D01*
X156273308Y-95562780D01*
X156272505Y-95507840D01*
X156272162Y-95435799D01*
X156272089Y-95343920D01*
X156272089Y-95034485D01*
X156299798Y-95006776D01*
X156331177Y-94984533D01*
X156364406Y-94981844D01*
X156396267Y-95001645D01*
X156404553Y-95011415D01*
X156411965Y-95027307D01*
X156416302Y-95051275D01*
X156418338Y-95088148D01*
X156418845Y-95142756D01*
X156418845Y-95261289D01*
X156915556Y-95261289D01*
X156915556Y-95145776D01*
X156915994Y-95094078D01*
X156917958Y-95059554D01*
X156922474Y-95036978D01*
X156930567Y-95021126D01*
X156943265Y-95006776D01*
X156974643Y-94984533D01*
X157007872Y-94981844D01*
X157039734Y-95001645D01*
M02*
