G04 #@! TF.GenerationSoftware,KiCad,Pcbnew,(6.0.10)*
G04 #@! TF.CreationDate,2023-01-19T02:18:08+01:00*
G04 #@! TF.ProjectId,S-VHS ZX Spectrum Rev. D,532d5648-5320-45a5-9820-537065637472,rev?*
G04 #@! TF.SameCoordinates,Original*
G04 #@! TF.FileFunction,Copper,L1,Top*
G04 #@! TF.FilePolarity,Positive*
%FSLAX46Y46*%
G04 Gerber Fmt 4.6, Leading zero omitted, Abs format (unit mm)*
G04 Created by KiCad (PCBNEW (6.0.10)) date 2023-01-19 02:18:08*
%MOMM*%
%LPD*%
G01*
G04 APERTURE LIST*
G04 Aperture macros list*
%AMRoundRect*
0 Rectangle with rounded corners*
0 $1 Rounding radius*
0 $2 $3 $4 $5 $6 $7 $8 $9 X,Y pos of 4 corners*
0 Add a 4 corners polygon primitive as box body*
4,1,4,$2,$3,$4,$5,$6,$7,$8,$9,$2,$3,0*
0 Add four circle primitives for the rounded corners*
1,1,$1+$1,$2,$3*
1,1,$1+$1,$4,$5*
1,1,$1+$1,$6,$7*
1,1,$1+$1,$8,$9*
0 Add four rect primitives between the rounded corners*
20,1,$1+$1,$2,$3,$4,$5,0*
20,1,$1+$1,$4,$5,$6,$7,0*
20,1,$1+$1,$6,$7,$8,$9,0*
20,1,$1+$1,$8,$9,$2,$3,0*%
G04 Aperture macros list end*
G04 #@! TA.AperFunction,Profile*
%ADD10C,0.050000*%
G04 #@! TD*
G04 #@! TA.AperFunction,ComponentPad*
%ADD11C,5.600000*%
G04 #@! TD*
G04 #@! TA.AperFunction,SMDPad,CuDef*
%ADD12RoundRect,0.250000X0.475000X-0.337500X0.475000X0.337500X-0.475000X0.337500X-0.475000X-0.337500X0*%
G04 #@! TD*
G04 #@! TA.AperFunction,SMDPad,CuDef*
%ADD13RoundRect,0.250000X-1.500000X-0.550000X1.500000X-0.550000X1.500000X0.550000X-1.500000X0.550000X0*%
G04 #@! TD*
G04 #@! TA.AperFunction,ComponentPad*
%ADD14C,1.500000*%
G04 #@! TD*
G04 #@! TA.AperFunction,ComponentPad*
%ADD15C,3.465000*%
G04 #@! TD*
G04 #@! TA.AperFunction,SMDPad,CuDef*
%ADD16RoundRect,0.250000X0.450000X-0.350000X0.450000X0.350000X-0.450000X0.350000X-0.450000X-0.350000X0*%
G04 #@! TD*
G04 #@! TA.AperFunction,SMDPad,CuDef*
%ADD17RoundRect,0.150000X0.150000X-0.825000X0.150000X0.825000X-0.150000X0.825000X-0.150000X-0.825000X0*%
G04 #@! TD*
G04 #@! TA.AperFunction,SMDPad,CuDef*
%ADD18RoundRect,0.250000X-0.475000X0.337500X-0.475000X-0.337500X0.475000X-0.337500X0.475000X0.337500X0*%
G04 #@! TD*
G04 #@! TA.AperFunction,SMDPad,CuDef*
%ADD19RoundRect,0.250000X0.350000X0.450000X-0.350000X0.450000X-0.350000X-0.450000X0.350000X-0.450000X0*%
G04 #@! TD*
G04 #@! TA.AperFunction,SMDPad,CuDef*
%ADD20R,1.500000X0.450000*%
G04 #@! TD*
G04 #@! TA.AperFunction,SMDPad,CuDef*
%ADD21RoundRect,0.250000X-0.450000X0.350000X-0.450000X-0.350000X0.450000X-0.350000X0.450000X0.350000X0*%
G04 #@! TD*
G04 #@! TA.AperFunction,ComponentPad*
%ADD22RoundRect,0.250000X0.725000X-0.600000X0.725000X0.600000X-0.725000X0.600000X-0.725000X-0.600000X0*%
G04 #@! TD*
G04 #@! TA.AperFunction,ComponentPad*
%ADD23O,1.950000X1.700000*%
G04 #@! TD*
G04 #@! TA.AperFunction,ViaPad*
%ADD24C,0.600000*%
G04 #@! TD*
G04 #@! TA.AperFunction,ViaPad*
%ADD25C,1.200000*%
G04 #@! TD*
G04 #@! TA.AperFunction,Conductor*
%ADD26C,0.500000*%
G04 #@! TD*
G04 APERTURE END LIST*
D10*
X135763000Y-105283000D02*
X136652000Y-114046000D01*
X179578000Y-85217000D02*
X179578000Y-114046000D01*
X135763000Y-83820000D02*
X135763000Y-105283000D01*
X179578000Y-85217000D02*
X153289000Y-85217000D01*
X153289000Y-83820000D02*
X135763000Y-83820000D01*
X179578000Y-114046000D02*
X136652000Y-114046000D01*
X153289000Y-85217000D02*
X153289000Y-83820000D01*
D11*
X176739000Y-102489000D03*
X138700000Y-102489000D03*
D12*
X164980000Y-98967500D03*
X164980000Y-96892500D03*
D13*
X171190000Y-90170000D03*
X176790000Y-90170000D03*
D14*
X140970000Y-93980000D03*
X147770000Y-93980000D03*
X140970000Y-96480000D03*
X147770000Y-96480000D03*
D15*
X137620000Y-90980000D03*
X144370000Y-90180000D03*
X151120000Y-90980000D03*
D16*
X170180000Y-110427000D03*
X170180000Y-108427000D03*
X159710000Y-90857000D03*
X159710000Y-88857000D03*
X163459000Y-90857000D03*
X163459000Y-88857000D03*
D17*
X156995000Y-100265000D03*
X158265000Y-100265000D03*
X159535000Y-100265000D03*
X160805000Y-100265000D03*
X160805000Y-95315000D03*
X159535000Y-95315000D03*
X158265000Y-95315000D03*
X156995000Y-95315000D03*
D18*
X157880000Y-104842500D03*
X157880000Y-106917500D03*
X160420000Y-104842500D03*
X160420000Y-106917500D03*
D19*
X159993000Y-111248000D03*
X157993000Y-111248000D03*
D20*
X170100000Y-97580000D03*
X170100000Y-98880000D03*
X172760000Y-98230000D03*
D21*
X174117000Y-108427000D03*
X174117000Y-110427000D03*
D22*
X145760000Y-109530000D03*
D23*
X145760000Y-107030000D03*
X145760000Y-104530000D03*
D24*
X162240000Y-102730000D03*
X159455000Y-97005000D03*
X154410000Y-110010000D03*
X164010000Y-106090000D03*
D25*
X174900000Y-97440000D03*
X166290000Y-102180000D03*
X177110000Y-109170000D03*
D26*
X164225000Y-94615000D02*
X161505000Y-94615000D01*
X159535000Y-100965000D02*
X159535000Y-102036500D01*
X164980000Y-95370000D02*
X164225000Y-94615000D01*
X165997000Y-108077000D02*
X164010000Y-106090000D01*
X165997000Y-108077000D02*
X170180000Y-108077000D01*
X159455000Y-97005000D02*
X159668528Y-97005000D01*
X160228500Y-102730000D02*
X162240000Y-102730000D01*
X155648000Y-111248000D02*
X154410000Y-110010000D01*
X157643000Y-111248000D02*
X155648000Y-111248000D01*
X159535000Y-102036500D02*
X160228500Y-102730000D01*
X160805000Y-94615000D02*
X160805000Y-95655000D01*
X161505000Y-94615000D02*
X160805000Y-95315000D01*
X160805000Y-95868528D02*
X160805000Y-95315000D01*
X164980000Y-95370000D02*
X164980000Y-96892500D01*
X159668528Y-97005000D02*
X160805000Y-95868528D01*
X160805000Y-94615000D02*
X160805000Y-94980502D01*
X157880000Y-108658000D02*
X160470000Y-111248000D01*
X155280000Y-104530000D02*
X157880000Y-107130000D01*
X157880000Y-107130000D02*
X157880000Y-108658000D01*
X145760000Y-104530000D02*
X155280000Y-104530000D01*
X156995000Y-103745000D02*
X157880000Y-104630000D01*
X156995000Y-100965000D02*
X156995000Y-103745000D01*
X158265000Y-100965000D02*
X158265000Y-102475000D01*
X158265000Y-102475000D02*
X160420000Y-104630000D01*
X160420000Y-107130000D02*
X160420000Y-107300000D01*
X171970000Y-108637000D02*
X170180000Y-110427000D01*
X162696999Y-109576999D02*
X168979999Y-109576999D01*
X170100000Y-98880000D02*
X170100000Y-105180000D01*
X170180000Y-110777000D02*
X168979999Y-109576999D01*
X170100000Y-105180000D02*
X171970000Y-107050000D01*
X160420000Y-107300000D02*
X162696999Y-109576999D01*
X171970000Y-107050000D02*
X171970000Y-108637000D01*
X143740000Y-86470000D02*
X167490000Y-86470000D01*
X139769999Y-98029999D02*
X139809999Y-98029999D01*
X139802501Y-92027601D02*
X139769999Y-92060103D01*
X143330000Y-107100000D02*
X145760000Y-109530000D01*
X143060000Y-99270000D02*
X143330000Y-99540000D01*
X139802501Y-90407499D02*
X143740000Y-86470000D01*
X139769999Y-92060103D02*
X139769999Y-98029999D01*
X141050000Y-99270000D02*
X143060000Y-99270000D01*
X167490000Y-86470000D02*
X171190000Y-90170000D01*
X139802501Y-90407499D02*
X139802501Y-92027601D01*
X143330000Y-99540000D02*
X143330000Y-107100000D01*
X139809999Y-98029999D02*
X141050000Y-99270000D01*
X147880050Y-99170000D02*
X154140000Y-99170000D01*
X154140000Y-99069950D02*
X155490000Y-97719949D01*
X147180050Y-98470000D02*
X147880050Y-99170000D01*
X154140000Y-99170000D02*
X154140000Y-99069950D01*
X140970000Y-96480000D02*
X140970000Y-97550000D01*
X155490000Y-88810000D02*
X156380000Y-87920000D01*
X140970000Y-97550000D02*
X141890000Y-98470000D01*
X141890000Y-98470000D02*
X147180050Y-98470000D01*
X156380000Y-87920000D02*
X158773000Y-87920000D01*
X158773000Y-87920000D02*
X159710000Y-88857000D01*
X155490000Y-97719949D02*
X155490000Y-88810000D01*
X148170000Y-98470000D02*
X153750000Y-98470000D01*
X154790000Y-97430000D02*
X154790000Y-88270000D01*
X162730000Y-87170000D02*
X163459000Y-87899000D01*
X154790000Y-88270000D02*
X155890000Y-87170000D01*
X155890000Y-87170000D02*
X162730000Y-87170000D01*
X163459000Y-87899000D02*
X163459000Y-88857000D01*
X153750000Y-98470000D02*
X154790000Y-97430000D01*
X147770000Y-96480000D02*
X147770000Y-98070000D01*
X147770000Y-98070000D02*
X148170000Y-98470000D01*
X163195000Y-100965000D02*
X164980000Y-99180000D01*
X174117000Y-108077000D02*
X176017000Y-108077000D01*
X164980000Y-100870000D02*
X166290000Y-102180000D01*
X176017000Y-108077000D02*
X177110000Y-109170000D01*
X164980000Y-98967500D02*
X164980000Y-100870000D01*
X172760000Y-98230000D02*
X174110000Y-98230000D01*
X160805000Y-100965000D02*
X163195000Y-100965000D01*
X164980000Y-99180000D02*
X164980000Y-98967500D01*
X174110000Y-98230000D02*
X174900000Y-97440000D01*
X163459000Y-91334000D02*
X161903000Y-92890000D01*
X161903000Y-92890000D02*
X158918500Y-92890000D01*
X158265000Y-93543500D02*
X158265000Y-95315000D01*
X158918500Y-92890000D02*
X158265000Y-93543500D01*
X171440000Y-104510000D02*
X171440000Y-98434998D01*
X171440000Y-98434998D02*
X170585002Y-97580000D01*
X171170000Y-96510000D02*
X170100000Y-97580000D01*
X176690000Y-90170000D02*
X176690000Y-93790000D01*
X176690000Y-93790000D02*
X173970000Y-96510000D01*
X170585002Y-97580000D02*
X170100000Y-97580000D01*
X171440000Y-104510000D02*
X172670000Y-105740000D01*
X172670000Y-105740000D02*
X172670000Y-108980000D01*
X173970000Y-96510000D02*
X171170000Y-96510000D01*
X172670000Y-108980000D02*
X174117000Y-110427000D01*
X156995000Y-91825000D02*
X156995000Y-95315000D01*
X159710000Y-91334000D02*
X157486000Y-91334000D01*
X157486000Y-91334000D02*
X156995000Y-91825000D01*
M02*
