G04 #@! TF.GenerationSoftware,KiCad,Pcbnew,(5.1.4)-1*
G04 #@! TF.CreationDate,2020-05-22T23:55:23+02:00*
G04 #@! TF.ProjectId,S-VHS ZX Spectrum,532d5648-5320-45a5-9820-537065637472,rev?*
G04 #@! TF.SameCoordinates,Original*
G04 #@! TF.FileFunction,Legend,Bot*
G04 #@! TF.FilePolarity,Positive*
%FSLAX46Y46*%
G04 Gerber Fmt 4.6, Leading zero omitted, Abs format (unit mm)*
G04 Created by KiCad (PCBNEW (5.1.4)-1) date 2020-05-22 23:55:23*
%MOMM*%
%LPD*%
G04 APERTURE LIST*
%ADD10C,0.150000*%
%ADD11C,0.200000*%
%ADD12C,0.010000*%
G04 APERTURE END LIST*
D10*
X177632571Y-87026714D02*
X177670666Y-87064809D01*
X177784952Y-87102904D01*
X177861142Y-87102904D01*
X177975428Y-87064809D01*
X178051619Y-86988619D01*
X178089714Y-86912428D01*
X178127809Y-86760047D01*
X178127809Y-86645761D01*
X178089714Y-86493380D01*
X178051619Y-86417190D01*
X177975428Y-86341000D01*
X177861142Y-86302904D01*
X177784952Y-86302904D01*
X177670666Y-86341000D01*
X177632571Y-86379095D01*
X177289714Y-87102904D02*
X177289714Y-86569571D01*
X177289714Y-86721952D02*
X177251619Y-86645761D01*
X177213523Y-86607666D01*
X177137333Y-86569571D01*
X177061142Y-86569571D01*
X176489714Y-87064809D02*
X176565904Y-87102904D01*
X176718285Y-87102904D01*
X176794476Y-87064809D01*
X176832571Y-86988619D01*
X176832571Y-86683857D01*
X176794476Y-86607666D01*
X176718285Y-86569571D01*
X176565904Y-86569571D01*
X176489714Y-86607666D01*
X176451619Y-86683857D01*
X176451619Y-86760047D01*
X176832571Y-86836238D01*
X175765904Y-87102904D02*
X175765904Y-86302904D01*
X175765904Y-87064809D02*
X175842095Y-87102904D01*
X175994476Y-87102904D01*
X176070666Y-87064809D01*
X176108761Y-87026714D01*
X176146857Y-86950523D01*
X176146857Y-86721952D01*
X176108761Y-86645761D01*
X176070666Y-86607666D01*
X175994476Y-86569571D01*
X175842095Y-86569571D01*
X175765904Y-86607666D01*
X175384952Y-87102904D02*
X175384952Y-86569571D01*
X175384952Y-86302904D02*
X175423047Y-86341000D01*
X175384952Y-86379095D01*
X175346857Y-86341000D01*
X175384952Y-86302904D01*
X175384952Y-86379095D01*
X175118285Y-86569571D02*
X174813523Y-86569571D01*
X175004000Y-86302904D02*
X175004000Y-86988619D01*
X174965904Y-87064809D01*
X174889714Y-87102904D01*
X174813523Y-87102904D01*
X174584952Y-87064809D02*
X174508761Y-87102904D01*
X174356380Y-87102904D01*
X174280190Y-87064809D01*
X174242095Y-86988619D01*
X174242095Y-86950523D01*
X174280190Y-86874333D01*
X174356380Y-86836238D01*
X174470666Y-86836238D01*
X174546857Y-86798142D01*
X174584952Y-86721952D01*
X174584952Y-86683857D01*
X174546857Y-86607666D01*
X174470666Y-86569571D01*
X174356380Y-86569571D01*
X174280190Y-86607666D01*
X173404000Y-86569571D02*
X173099238Y-86569571D01*
X173289714Y-86302904D02*
X173289714Y-86988619D01*
X173251619Y-87064809D01*
X173175428Y-87102904D01*
X173099238Y-87102904D01*
X172718285Y-87102904D02*
X172794476Y-87064809D01*
X172832571Y-87026714D01*
X172870666Y-86950523D01*
X172870666Y-86721952D01*
X172832571Y-86645761D01*
X172794476Y-86607666D01*
X172718285Y-86569571D01*
X172604000Y-86569571D01*
X172527809Y-86607666D01*
X172489714Y-86645761D01*
X172451619Y-86721952D01*
X172451619Y-86950523D01*
X172489714Y-87026714D01*
X172527809Y-87064809D01*
X172604000Y-87102904D01*
X172718285Y-87102904D01*
X172108761Y-87026714D02*
X172070666Y-87064809D01*
X172108761Y-87102904D01*
X172146857Y-87064809D01*
X172108761Y-87026714D01*
X172108761Y-87102904D01*
X172108761Y-86607666D02*
X172070666Y-86645761D01*
X172108761Y-86683857D01*
X172146857Y-86645761D01*
X172108761Y-86607666D01*
X172108761Y-86683857D01*
X170699238Y-87102904D02*
X171156380Y-87102904D01*
X170927809Y-87102904D02*
X170927809Y-86302904D01*
X171004000Y-86417190D01*
X171080190Y-86493380D01*
X171156380Y-86531476D01*
X170204000Y-86302904D02*
X170127809Y-86302904D01*
X170051619Y-86341000D01*
X170013523Y-86379095D01*
X169975428Y-86455285D01*
X169937333Y-86607666D01*
X169937333Y-86798142D01*
X169975428Y-86950523D01*
X170013523Y-87026714D01*
X170051619Y-87064809D01*
X170127809Y-87102904D01*
X170204000Y-87102904D01*
X170280190Y-87064809D01*
X170318285Y-87026714D01*
X170356380Y-86950523D01*
X170394476Y-86798142D01*
X170394476Y-86607666D01*
X170356380Y-86455285D01*
X170318285Y-86379095D01*
X170280190Y-86341000D01*
X170204000Y-86302904D01*
X169632571Y-86379095D02*
X169594476Y-86341000D01*
X169518285Y-86302904D01*
X169327809Y-86302904D01*
X169251619Y-86341000D01*
X169213523Y-86379095D01*
X169175428Y-86455285D01*
X169175428Y-86531476D01*
X169213523Y-86645761D01*
X169670666Y-87102904D01*
X169175428Y-87102904D01*
X168489714Y-86569571D02*
X168489714Y-87102904D01*
X168680190Y-86264809D02*
X168870666Y-86836238D01*
X168375428Y-86836238D01*
X168070666Y-87102904D02*
X168070666Y-86302904D01*
X167804000Y-86874333D01*
X167537333Y-86302904D01*
X167537333Y-87102904D01*
X167194476Y-86874333D02*
X166813523Y-86874333D01*
X167270666Y-87102904D02*
X167004000Y-86302904D01*
X166737333Y-87102904D01*
X166470666Y-87102904D02*
X166470666Y-86302904D01*
X166013523Y-87102904D02*
X166356380Y-86645761D01*
X166013523Y-86302904D02*
X166470666Y-86760047D01*
X164413523Y-87102904D02*
X164451619Y-87102904D01*
X164527809Y-87064809D01*
X164642095Y-86950523D01*
X164832571Y-86721952D01*
X164908761Y-86607666D01*
X164946857Y-86493380D01*
X164946857Y-86417190D01*
X164908761Y-86341000D01*
X164832571Y-86302904D01*
X164794476Y-86302904D01*
X164718285Y-86341000D01*
X164680190Y-86417190D01*
X164680190Y-86455285D01*
X164718285Y-86531476D01*
X164756380Y-86569571D01*
X164984952Y-86721952D01*
X165023047Y-86760047D01*
X165061142Y-86836238D01*
X165061142Y-86950523D01*
X165023047Y-87026714D01*
X164984952Y-87064809D01*
X164908761Y-87102904D01*
X164794476Y-87102904D01*
X164718285Y-87064809D01*
X164680190Y-87026714D01*
X164565904Y-86874333D01*
X164527809Y-86760047D01*
X164527809Y-86683857D01*
X163004000Y-87102904D02*
X163270666Y-86721952D01*
X163461142Y-87102904D02*
X163461142Y-86302904D01*
X163156380Y-86302904D01*
X163080190Y-86341000D01*
X163042095Y-86379095D01*
X163004000Y-86455285D01*
X163004000Y-86569571D01*
X163042095Y-86645761D01*
X163080190Y-86683857D01*
X163156380Y-86721952D01*
X163461142Y-86721952D01*
X162242095Y-86341000D02*
X162318285Y-86302904D01*
X162432571Y-86302904D01*
X162546857Y-86341000D01*
X162623047Y-86417190D01*
X162661142Y-86493380D01*
X162699238Y-86645761D01*
X162699238Y-86760047D01*
X162661142Y-86912428D01*
X162623047Y-86988619D01*
X162546857Y-87064809D01*
X162432571Y-87102904D01*
X162356380Y-87102904D01*
X162242095Y-87064809D01*
X162204000Y-87026714D01*
X162204000Y-86760047D01*
X162356380Y-86760047D01*
X161899238Y-86874333D02*
X161518285Y-86874333D01*
X161975428Y-87102904D02*
X161708761Y-86302904D01*
X161442095Y-87102904D01*
X161213523Y-86379095D02*
X161175428Y-86341000D01*
X161099238Y-86302904D01*
X160908761Y-86302904D01*
X160832571Y-86341000D01*
X160794476Y-86379095D01*
X160756380Y-86455285D01*
X160756380Y-86531476D01*
X160794476Y-86645761D01*
X161251619Y-87102904D01*
X160756380Y-87102904D01*
X160070666Y-86569571D02*
X160070666Y-87102904D01*
X160261142Y-86264809D02*
X160451619Y-86836238D01*
X159956380Y-86836238D01*
X159042095Y-87102904D02*
X159042095Y-86302904D01*
X158699238Y-87102904D02*
X158699238Y-86683857D01*
X158737333Y-86607666D01*
X158813523Y-86569571D01*
X158927809Y-86569571D01*
X159004000Y-86607666D01*
X159042095Y-86645761D01*
X158432571Y-86569571D02*
X158127809Y-86569571D01*
X158318285Y-86302904D02*
X158318285Y-86988619D01*
X158280190Y-87064809D01*
X158204000Y-87102904D01*
X158127809Y-87102904D01*
X157975428Y-86569571D02*
X157670666Y-86569571D01*
X157861142Y-86302904D02*
X157861142Y-86988619D01*
X157823047Y-87064809D01*
X157746857Y-87102904D01*
X157670666Y-87102904D01*
X157404000Y-86569571D02*
X157404000Y-87369571D01*
X157404000Y-86607666D02*
X157327809Y-86569571D01*
X157175428Y-86569571D01*
X157099238Y-86607666D01*
X157061142Y-86645761D01*
X157023047Y-86721952D01*
X157023047Y-86950523D01*
X157061142Y-87026714D01*
X157099238Y-87064809D01*
X157175428Y-87102904D01*
X157327809Y-87102904D01*
X157404000Y-87064809D01*
X156680190Y-87026714D02*
X156642095Y-87064809D01*
X156680190Y-87102904D01*
X156718285Y-87064809D01*
X156680190Y-87026714D01*
X156680190Y-87102904D01*
X156680190Y-86607666D02*
X156642095Y-86645761D01*
X156680190Y-86683857D01*
X156718285Y-86645761D01*
X156680190Y-86607666D01*
X156680190Y-86683857D01*
X155727809Y-86264809D02*
X156413523Y-87293380D01*
X154889714Y-86264809D02*
X155575428Y-87293380D01*
X154699238Y-86569571D02*
X154546857Y-87102904D01*
X154394476Y-86721952D01*
X154242095Y-87102904D01*
X154089714Y-86569571D01*
X153861142Y-86569571D02*
X153708761Y-87102904D01*
X153556380Y-86721952D01*
X153404000Y-87102904D01*
X153251619Y-86569571D01*
X153023047Y-86569571D02*
X152870666Y-87102904D01*
X152718285Y-86721952D01*
X152565904Y-87102904D01*
X152413523Y-86569571D01*
X152108761Y-87026714D02*
X152070666Y-87064809D01*
X152108761Y-87102904D01*
X152146857Y-87064809D01*
X152108761Y-87026714D01*
X152108761Y-87102904D01*
X151804000Y-86569571D02*
X151651619Y-87102904D01*
X151499238Y-86721952D01*
X151346857Y-87102904D01*
X151194476Y-86569571D01*
X150775428Y-87102904D02*
X150851619Y-87064809D01*
X150889714Y-87026714D01*
X150927809Y-86950523D01*
X150927809Y-86721952D01*
X150889714Y-86645761D01*
X150851619Y-86607666D01*
X150775428Y-86569571D01*
X150661142Y-86569571D01*
X150584952Y-86607666D01*
X150546857Y-86645761D01*
X150508761Y-86721952D01*
X150508761Y-86950523D01*
X150546857Y-87026714D01*
X150584952Y-87064809D01*
X150661142Y-87102904D01*
X150775428Y-87102904D01*
X150165904Y-87102904D02*
X150165904Y-86569571D01*
X150165904Y-86721952D02*
X150127809Y-86645761D01*
X150089714Y-86607666D01*
X150013523Y-86569571D01*
X149937333Y-86569571D01*
X149556380Y-87102904D02*
X149632571Y-87064809D01*
X149670666Y-86988619D01*
X149670666Y-86302904D01*
X148908761Y-87102904D02*
X148908761Y-86302904D01*
X148908761Y-87064809D02*
X148984952Y-87102904D01*
X149137333Y-87102904D01*
X149213523Y-87064809D01*
X149251619Y-87026714D01*
X149289714Y-86950523D01*
X149289714Y-86721952D01*
X149251619Y-86645761D01*
X149213523Y-86607666D01*
X149137333Y-86569571D01*
X148984952Y-86569571D01*
X148908761Y-86607666D01*
X148413523Y-87102904D02*
X148489714Y-87064809D01*
X148527809Y-87026714D01*
X148565904Y-86950523D01*
X148565904Y-86721952D01*
X148527809Y-86645761D01*
X148489714Y-86607666D01*
X148413523Y-86569571D01*
X148299238Y-86569571D01*
X148223047Y-86607666D01*
X148184952Y-86645761D01*
X148146857Y-86721952D01*
X148146857Y-86950523D01*
X148184952Y-87026714D01*
X148223047Y-87064809D01*
X148299238Y-87102904D01*
X148413523Y-87102904D01*
X147918285Y-86569571D02*
X147613523Y-86569571D01*
X147804000Y-87102904D02*
X147804000Y-86417190D01*
X147765904Y-86341000D01*
X147689714Y-86302904D01*
X147613523Y-86302904D01*
X147384952Y-87064809D02*
X147308761Y-87102904D01*
X147156380Y-87102904D01*
X147080190Y-87064809D01*
X147042095Y-86988619D01*
X147042095Y-86950523D01*
X147080190Y-86874333D01*
X147156380Y-86836238D01*
X147270666Y-86836238D01*
X147346857Y-86798142D01*
X147384952Y-86721952D01*
X147384952Y-86683857D01*
X147346857Y-86607666D01*
X147270666Y-86569571D01*
X147156380Y-86569571D01*
X147080190Y-86607666D01*
X146699238Y-86569571D02*
X146699238Y-87369571D01*
X146699238Y-86607666D02*
X146623047Y-86569571D01*
X146470666Y-86569571D01*
X146394476Y-86607666D01*
X146356380Y-86645761D01*
X146318285Y-86721952D01*
X146318285Y-86950523D01*
X146356380Y-87026714D01*
X146394476Y-87064809D01*
X146470666Y-87102904D01*
X146623047Y-87102904D01*
X146699238Y-87064809D01*
X145670666Y-87064809D02*
X145746857Y-87102904D01*
X145899238Y-87102904D01*
X145975428Y-87064809D01*
X146013523Y-86988619D01*
X146013523Y-86683857D01*
X145975428Y-86607666D01*
X145899238Y-86569571D01*
X145746857Y-86569571D01*
X145670666Y-86607666D01*
X145632571Y-86683857D01*
X145632571Y-86760047D01*
X146013523Y-86836238D01*
X144946857Y-87064809D02*
X145023047Y-87102904D01*
X145175428Y-87102904D01*
X145251619Y-87064809D01*
X145289714Y-87026714D01*
X145327809Y-86950523D01*
X145327809Y-86721952D01*
X145289714Y-86645761D01*
X145251619Y-86607666D01*
X145175428Y-86569571D01*
X145023047Y-86569571D01*
X144946857Y-86607666D01*
X144718285Y-86569571D02*
X144413523Y-86569571D01*
X144604000Y-86302904D02*
X144604000Y-86988619D01*
X144565904Y-87064809D01*
X144489714Y-87102904D01*
X144413523Y-87102904D01*
X144146857Y-87102904D02*
X144146857Y-86569571D01*
X144146857Y-86721952D02*
X144108761Y-86645761D01*
X144070666Y-86607666D01*
X143994476Y-86569571D01*
X143918285Y-86569571D01*
X143308761Y-86569571D02*
X143308761Y-87102904D01*
X143651619Y-86569571D02*
X143651619Y-86988619D01*
X143613523Y-87064809D01*
X143537333Y-87102904D01*
X143423047Y-87102904D01*
X143346857Y-87064809D01*
X143308761Y-87026714D01*
X142927809Y-87102904D02*
X142927809Y-86569571D01*
X142927809Y-86645761D02*
X142889714Y-86607666D01*
X142813523Y-86569571D01*
X142699238Y-86569571D01*
X142623047Y-86607666D01*
X142584952Y-86683857D01*
X142584952Y-87102904D01*
X142584952Y-86683857D02*
X142546857Y-86607666D01*
X142470666Y-86569571D01*
X142356380Y-86569571D01*
X142280190Y-86607666D01*
X142242095Y-86683857D01*
X142242095Y-87102904D01*
X141861142Y-87026714D02*
X141823047Y-87064809D01*
X141861142Y-87102904D01*
X141899238Y-87064809D01*
X141861142Y-87026714D01*
X141861142Y-87102904D01*
X141365904Y-87102904D02*
X141442095Y-87064809D01*
X141480190Y-87026714D01*
X141518285Y-86950523D01*
X141518285Y-86721952D01*
X141480190Y-86645761D01*
X141442095Y-86607666D01*
X141365904Y-86569571D01*
X141251619Y-86569571D01*
X141175428Y-86607666D01*
X141137333Y-86645761D01*
X141099238Y-86721952D01*
X141099238Y-86950523D01*
X141137333Y-87026714D01*
X141175428Y-87064809D01*
X141251619Y-87102904D01*
X141365904Y-87102904D01*
X140756380Y-87102904D02*
X140756380Y-86569571D01*
X140756380Y-86721952D02*
X140718285Y-86645761D01*
X140680190Y-86607666D01*
X140604000Y-86569571D01*
X140527809Y-86569571D01*
X139918285Y-86569571D02*
X139918285Y-87217190D01*
X139956380Y-87293380D01*
X139994476Y-87331476D01*
X140070666Y-87369571D01*
X140184952Y-87369571D01*
X140261142Y-87331476D01*
X139918285Y-87064809D02*
X139994476Y-87102904D01*
X140146857Y-87102904D01*
X140223047Y-87064809D01*
X140261142Y-87026714D01*
X140299238Y-86950523D01*
X140299238Y-86721952D01*
X140261142Y-86645761D01*
X140223047Y-86607666D01*
X140146857Y-86569571D01*
X139994476Y-86569571D01*
X139918285Y-86607666D01*
D11*
X175645666Y-111702904D02*
X175112333Y-111702904D01*
X175645666Y-112502904D01*
X175112333Y-112502904D01*
X174883761Y-111702904D02*
X174350428Y-112502904D01*
X174350428Y-111702904D02*
X174883761Y-112502904D01*
X173474238Y-112464809D02*
X173359952Y-112502904D01*
X173169476Y-112502904D01*
X173093285Y-112464809D01*
X173055190Y-112426714D01*
X173017095Y-112350523D01*
X173017095Y-112274333D01*
X173055190Y-112198142D01*
X173093285Y-112160047D01*
X173169476Y-112121952D01*
X173321857Y-112083857D01*
X173398047Y-112045761D01*
X173436142Y-112007666D01*
X173474238Y-111931476D01*
X173474238Y-111855285D01*
X173436142Y-111779095D01*
X173398047Y-111741000D01*
X173321857Y-111702904D01*
X173131380Y-111702904D01*
X173017095Y-111741000D01*
X172674238Y-111969571D02*
X172674238Y-112769571D01*
X172674238Y-112007666D02*
X172598047Y-111969571D01*
X172445666Y-111969571D01*
X172369476Y-112007666D01*
X172331380Y-112045761D01*
X172293285Y-112121952D01*
X172293285Y-112350523D01*
X172331380Y-112426714D01*
X172369476Y-112464809D01*
X172445666Y-112502904D01*
X172598047Y-112502904D01*
X172674238Y-112464809D01*
X171645666Y-112464809D02*
X171721857Y-112502904D01*
X171874238Y-112502904D01*
X171950428Y-112464809D01*
X171988523Y-112388619D01*
X171988523Y-112083857D01*
X171950428Y-112007666D01*
X171874238Y-111969571D01*
X171721857Y-111969571D01*
X171645666Y-112007666D01*
X171607571Y-112083857D01*
X171607571Y-112160047D01*
X171988523Y-112236238D01*
X170921857Y-112464809D02*
X170998047Y-112502904D01*
X171150428Y-112502904D01*
X171226619Y-112464809D01*
X171264714Y-112426714D01*
X171302809Y-112350523D01*
X171302809Y-112121952D01*
X171264714Y-112045761D01*
X171226619Y-112007666D01*
X171150428Y-111969571D01*
X170998047Y-111969571D01*
X170921857Y-112007666D01*
X170693285Y-111969571D02*
X170388523Y-111969571D01*
X170579000Y-111702904D02*
X170579000Y-112388619D01*
X170540904Y-112464809D01*
X170464714Y-112502904D01*
X170388523Y-112502904D01*
X170121857Y-112502904D02*
X170121857Y-111969571D01*
X170121857Y-112121952D02*
X170083761Y-112045761D01*
X170045666Y-112007666D01*
X169969476Y-111969571D01*
X169893285Y-111969571D01*
X169283761Y-111969571D02*
X169283761Y-112502904D01*
X169626619Y-111969571D02*
X169626619Y-112388619D01*
X169588523Y-112464809D01*
X169512333Y-112502904D01*
X169398047Y-112502904D01*
X169321857Y-112464809D01*
X169283761Y-112426714D01*
X168902809Y-112502904D02*
X168902809Y-111969571D01*
X168902809Y-112045761D02*
X168864714Y-112007666D01*
X168788523Y-111969571D01*
X168674238Y-111969571D01*
X168598047Y-112007666D01*
X168559952Y-112083857D01*
X168559952Y-112502904D01*
X168559952Y-112083857D02*
X168521857Y-112007666D01*
X168445666Y-111969571D01*
X168331380Y-111969571D01*
X168255190Y-112007666D01*
X168217095Y-112083857D01*
X168217095Y-112502904D01*
X167264714Y-112464809D02*
X167150428Y-112502904D01*
X166959952Y-112502904D01*
X166883761Y-112464809D01*
X166845666Y-112426714D01*
X166807571Y-112350523D01*
X166807571Y-112274333D01*
X166845666Y-112198142D01*
X166883761Y-112160047D01*
X166959952Y-112121952D01*
X167112333Y-112083857D01*
X167188523Y-112045761D01*
X167226619Y-112007666D01*
X167264714Y-111931476D01*
X167264714Y-111855285D01*
X167226619Y-111779095D01*
X167188523Y-111741000D01*
X167112333Y-111702904D01*
X166921857Y-111702904D01*
X166807571Y-111741000D01*
X166464714Y-112198142D02*
X165855190Y-112198142D01*
X165588523Y-111702904D02*
X165321857Y-112502904D01*
X165055190Y-111702904D01*
X164788523Y-112502904D02*
X164788523Y-111969571D01*
X164788523Y-111702904D02*
X164826619Y-111741000D01*
X164788523Y-111779095D01*
X164750428Y-111741000D01*
X164788523Y-111702904D01*
X164788523Y-111779095D01*
X164064714Y-112502904D02*
X164064714Y-111702904D01*
X164064714Y-112464809D02*
X164140904Y-112502904D01*
X164293285Y-112502904D01*
X164369476Y-112464809D01*
X164407571Y-112426714D01*
X164445666Y-112350523D01*
X164445666Y-112121952D01*
X164407571Y-112045761D01*
X164369476Y-112007666D01*
X164293285Y-111969571D01*
X164140904Y-111969571D01*
X164064714Y-112007666D01*
X163379000Y-112464809D02*
X163455190Y-112502904D01*
X163607571Y-112502904D01*
X163683761Y-112464809D01*
X163721857Y-112388619D01*
X163721857Y-112083857D01*
X163683761Y-112007666D01*
X163607571Y-111969571D01*
X163455190Y-111969571D01*
X163379000Y-112007666D01*
X163340904Y-112083857D01*
X163340904Y-112160047D01*
X163721857Y-112236238D01*
X162883761Y-112502904D02*
X162959952Y-112464809D01*
X162998047Y-112426714D01*
X163036142Y-112350523D01*
X163036142Y-112121952D01*
X162998047Y-112045761D01*
X162959952Y-112007666D01*
X162883761Y-111969571D01*
X162769476Y-111969571D01*
X162693285Y-112007666D01*
X162655190Y-112045761D01*
X162617095Y-112121952D01*
X162617095Y-112350523D01*
X162655190Y-112426714D01*
X162693285Y-112464809D01*
X162769476Y-112502904D01*
X162883761Y-112502904D01*
X161664714Y-112502904D02*
X161664714Y-111702904D01*
X161398047Y-112274333D01*
X161131380Y-111702904D01*
X161131380Y-112502904D01*
X160636142Y-112502904D02*
X160712333Y-112464809D01*
X160750428Y-112426714D01*
X160788523Y-112350523D01*
X160788523Y-112121952D01*
X160750428Y-112045761D01*
X160712333Y-112007666D01*
X160636142Y-111969571D01*
X160521857Y-111969571D01*
X160445666Y-112007666D01*
X160407571Y-112045761D01*
X160369476Y-112121952D01*
X160369476Y-112350523D01*
X160407571Y-112426714D01*
X160445666Y-112464809D01*
X160521857Y-112502904D01*
X160636142Y-112502904D01*
X159683761Y-112502904D02*
X159683761Y-111702904D01*
X159683761Y-112464809D02*
X159759952Y-112502904D01*
X159912333Y-112502904D01*
X159988523Y-112464809D01*
X160026619Y-112426714D01*
X160064714Y-112350523D01*
X160064714Y-112121952D01*
X160026619Y-112045761D01*
X159988523Y-112007666D01*
X159912333Y-111969571D01*
X159759952Y-111969571D01*
X159683761Y-112007666D01*
X159302809Y-112502904D02*
X159302809Y-111969571D01*
X159302809Y-111702904D02*
X159340904Y-111741000D01*
X159302809Y-111779095D01*
X159264714Y-111741000D01*
X159302809Y-111702904D01*
X159302809Y-111779095D01*
X159036142Y-111969571D02*
X158731380Y-111969571D01*
X158921857Y-112502904D02*
X158921857Y-111817190D01*
X158883761Y-111741000D01*
X158807571Y-111702904D01*
X158731380Y-111702904D01*
X158464714Y-112502904D02*
X158464714Y-111969571D01*
X158464714Y-111702904D02*
X158502809Y-111741000D01*
X158464714Y-111779095D01*
X158426619Y-111741000D01*
X158464714Y-111702904D01*
X158464714Y-111779095D01*
X157740904Y-112464809D02*
X157817095Y-112502904D01*
X157969476Y-112502904D01*
X158045666Y-112464809D01*
X158083761Y-112426714D01*
X158121857Y-112350523D01*
X158121857Y-112121952D01*
X158083761Y-112045761D01*
X158045666Y-112007666D01*
X157969476Y-111969571D01*
X157817095Y-111969571D01*
X157740904Y-112007666D01*
X157055190Y-112502904D02*
X157055190Y-112083857D01*
X157093285Y-112007666D01*
X157169476Y-111969571D01*
X157321857Y-111969571D01*
X157398047Y-112007666D01*
X157055190Y-112464809D02*
X157131380Y-112502904D01*
X157321857Y-112502904D01*
X157398047Y-112464809D01*
X157436142Y-112388619D01*
X157436142Y-112312428D01*
X157398047Y-112236238D01*
X157321857Y-112198142D01*
X157131380Y-112198142D01*
X157055190Y-112160047D01*
X156788523Y-111969571D02*
X156483761Y-111969571D01*
X156674238Y-111702904D02*
X156674238Y-112388619D01*
X156636142Y-112464809D01*
X156559952Y-112502904D01*
X156483761Y-112502904D01*
X156217095Y-112502904D02*
X156217095Y-111969571D01*
X156217095Y-111702904D02*
X156255190Y-111741000D01*
X156217095Y-111779095D01*
X156179000Y-111741000D01*
X156217095Y-111702904D01*
X156217095Y-111779095D01*
X155721857Y-112502904D02*
X155798047Y-112464809D01*
X155836142Y-112426714D01*
X155874238Y-112350523D01*
X155874238Y-112121952D01*
X155836142Y-112045761D01*
X155798047Y-112007666D01*
X155721857Y-111969571D01*
X155607571Y-111969571D01*
X155531380Y-112007666D01*
X155493285Y-112045761D01*
X155455190Y-112121952D01*
X155455190Y-112350523D01*
X155493285Y-112426714D01*
X155531380Y-112464809D01*
X155607571Y-112502904D01*
X155721857Y-112502904D01*
X155112333Y-111969571D02*
X155112333Y-112502904D01*
X155112333Y-112045761D02*
X155074238Y-112007666D01*
X154998047Y-111969571D01*
X154883761Y-111969571D01*
X154807571Y-112007666D01*
X154769476Y-112083857D01*
X154769476Y-112502904D01*
X153779000Y-112198142D02*
X153169476Y-112198142D01*
X151721857Y-112502904D02*
X151988523Y-112121952D01*
X152179000Y-112502904D02*
X152179000Y-111702904D01*
X151874238Y-111702904D01*
X151798047Y-111741000D01*
X151759952Y-111779095D01*
X151721857Y-111855285D01*
X151721857Y-111969571D01*
X151759952Y-112045761D01*
X151798047Y-112083857D01*
X151874238Y-112121952D01*
X152179000Y-112121952D01*
X151074238Y-112464809D02*
X151150428Y-112502904D01*
X151302809Y-112502904D01*
X151379000Y-112464809D01*
X151417095Y-112388619D01*
X151417095Y-112083857D01*
X151379000Y-112007666D01*
X151302809Y-111969571D01*
X151150428Y-111969571D01*
X151074238Y-112007666D01*
X151036142Y-112083857D01*
X151036142Y-112160047D01*
X151417095Y-112236238D01*
X150769476Y-111969571D02*
X150579000Y-112502904D01*
X150388523Y-111969571D01*
X150083761Y-112426714D02*
X150045666Y-112464809D01*
X150083761Y-112502904D01*
X150121857Y-112464809D01*
X150083761Y-112426714D01*
X150083761Y-112502904D01*
X149131380Y-112274333D02*
X148750428Y-112274333D01*
X149207571Y-112502904D02*
X148940904Y-111702904D01*
X148674238Y-112502904D01*
D12*
G36*
X143497256Y-111901918D02*
G01*
X143441799Y-111929568D01*
X143392852Y-111980480D01*
X143379371Y-111999338D01*
X143364686Y-112024015D01*
X143355158Y-112050816D01*
X143349707Y-112086587D01*
X143347253Y-112138169D01*
X143346714Y-112206267D01*
X143349148Y-112299588D01*
X143357606Y-112369657D01*
X143373826Y-112421931D01*
X143399546Y-112461869D01*
X143436503Y-112494929D01*
X143439218Y-112496886D01*
X143475640Y-112516908D01*
X143519498Y-112526815D01*
X143575276Y-112529257D01*
X143665952Y-112529257D01*
X143665990Y-112617283D01*
X143666834Y-112666308D01*
X143671976Y-112695065D01*
X143685413Y-112712311D01*
X143711142Y-112726808D01*
X143717321Y-112729769D01*
X143746236Y-112743648D01*
X143768624Y-112752414D01*
X143785271Y-112753171D01*
X143796964Y-112743023D01*
X143804490Y-112719073D01*
X143808634Y-112678426D01*
X143810185Y-112618186D01*
X143809929Y-112535455D01*
X143808651Y-112427339D01*
X143808252Y-112395000D01*
X143806815Y-112283524D01*
X143805528Y-112210603D01*
X143666029Y-112210603D01*
X143665245Y-112272499D01*
X143661760Y-112312997D01*
X143653876Y-112339708D01*
X143639895Y-112360244D01*
X143630403Y-112370260D01*
X143591596Y-112399567D01*
X143557237Y-112401952D01*
X143521784Y-112377750D01*
X143520886Y-112376857D01*
X143506461Y-112358153D01*
X143497687Y-112332732D01*
X143493261Y-112293584D01*
X143491882Y-112233697D01*
X143491857Y-112220430D01*
X143495188Y-112137901D01*
X143506031Y-112080691D01*
X143525660Y-112045766D01*
X143555350Y-112030094D01*
X143572509Y-112028514D01*
X143613234Y-112035926D01*
X143641168Y-112060330D01*
X143657983Y-112104980D01*
X143665350Y-112173130D01*
X143666029Y-112210603D01*
X143805528Y-112210603D01*
X143805292Y-112197245D01*
X143803323Y-112132333D01*
X143800550Y-112084958D01*
X143796612Y-112051290D01*
X143791151Y-112027498D01*
X143783808Y-112009753D01*
X143774223Y-111994224D01*
X143770113Y-111988381D01*
X143715595Y-111933185D01*
X143646664Y-111901890D01*
X143566928Y-111893165D01*
X143497256Y-111901918D01*
X143497256Y-111901918D01*
G37*
X143497256Y-111901918D02*
X143441799Y-111929568D01*
X143392852Y-111980480D01*
X143379371Y-111999338D01*
X143364686Y-112024015D01*
X143355158Y-112050816D01*
X143349707Y-112086587D01*
X143347253Y-112138169D01*
X143346714Y-112206267D01*
X143349148Y-112299588D01*
X143357606Y-112369657D01*
X143373826Y-112421931D01*
X143399546Y-112461869D01*
X143436503Y-112494929D01*
X143439218Y-112496886D01*
X143475640Y-112516908D01*
X143519498Y-112526815D01*
X143575276Y-112529257D01*
X143665952Y-112529257D01*
X143665990Y-112617283D01*
X143666834Y-112666308D01*
X143671976Y-112695065D01*
X143685413Y-112712311D01*
X143711142Y-112726808D01*
X143717321Y-112729769D01*
X143746236Y-112743648D01*
X143768624Y-112752414D01*
X143785271Y-112753171D01*
X143796964Y-112743023D01*
X143804490Y-112719073D01*
X143808634Y-112678426D01*
X143810185Y-112618186D01*
X143809929Y-112535455D01*
X143808651Y-112427339D01*
X143808252Y-112395000D01*
X143806815Y-112283524D01*
X143805528Y-112210603D01*
X143666029Y-112210603D01*
X143665245Y-112272499D01*
X143661760Y-112312997D01*
X143653876Y-112339708D01*
X143639895Y-112360244D01*
X143630403Y-112370260D01*
X143591596Y-112399567D01*
X143557237Y-112401952D01*
X143521784Y-112377750D01*
X143520886Y-112376857D01*
X143506461Y-112358153D01*
X143497687Y-112332732D01*
X143493261Y-112293584D01*
X143491882Y-112233697D01*
X143491857Y-112220430D01*
X143495188Y-112137901D01*
X143506031Y-112080691D01*
X143525660Y-112045766D01*
X143555350Y-112030094D01*
X143572509Y-112028514D01*
X143613234Y-112035926D01*
X143641168Y-112060330D01*
X143657983Y-112104980D01*
X143665350Y-112173130D01*
X143666029Y-112210603D01*
X143805528Y-112210603D01*
X143805292Y-112197245D01*
X143803323Y-112132333D01*
X143800550Y-112084958D01*
X143796612Y-112051290D01*
X143791151Y-112027498D01*
X143783808Y-112009753D01*
X143774223Y-111994224D01*
X143770113Y-111988381D01*
X143715595Y-111933185D01*
X143646664Y-111901890D01*
X143566928Y-111893165D01*
X143497256Y-111901918D01*
G36*
X142380907Y-111909780D02*
G01*
X142334328Y-111936723D01*
X142301943Y-111963466D01*
X142278258Y-111991484D01*
X142261941Y-112025748D01*
X142251661Y-112071227D01*
X142246086Y-112132892D01*
X142243884Y-112215711D01*
X142243629Y-112275246D01*
X142243629Y-112494391D01*
X142305314Y-112522044D01*
X142367000Y-112549697D01*
X142374257Y-112309670D01*
X142377256Y-112220028D01*
X142380402Y-112154962D01*
X142384299Y-112110026D01*
X142389553Y-112080770D01*
X142396769Y-112062748D01*
X142406550Y-112051511D01*
X142409688Y-112049079D01*
X142457239Y-112030083D01*
X142505303Y-112037600D01*
X142533914Y-112057543D01*
X142545553Y-112071675D01*
X142553609Y-112090220D01*
X142558729Y-112118334D01*
X142561559Y-112161173D01*
X142562744Y-112223895D01*
X142562943Y-112289261D01*
X142562982Y-112371268D01*
X142564386Y-112429316D01*
X142569086Y-112468465D01*
X142579013Y-112493780D01*
X142596097Y-112510323D01*
X142622268Y-112523156D01*
X142657225Y-112536491D01*
X142695404Y-112551007D01*
X142690859Y-112293389D01*
X142689029Y-112200519D01*
X142686888Y-112131889D01*
X142683819Y-112082711D01*
X142679206Y-112048198D01*
X142672432Y-112023562D01*
X142662881Y-112004016D01*
X142651366Y-111986770D01*
X142595810Y-111931680D01*
X142528020Y-111899822D01*
X142454287Y-111892191D01*
X142380907Y-111909780D01*
X142380907Y-111909780D01*
G37*
X142380907Y-111909780D02*
X142334328Y-111936723D01*
X142301943Y-111963466D01*
X142278258Y-111991484D01*
X142261941Y-112025748D01*
X142251661Y-112071227D01*
X142246086Y-112132892D01*
X142243884Y-112215711D01*
X142243629Y-112275246D01*
X142243629Y-112494391D01*
X142305314Y-112522044D01*
X142367000Y-112549697D01*
X142374257Y-112309670D01*
X142377256Y-112220028D01*
X142380402Y-112154962D01*
X142384299Y-112110026D01*
X142389553Y-112080770D01*
X142396769Y-112062748D01*
X142406550Y-112051511D01*
X142409688Y-112049079D01*
X142457239Y-112030083D01*
X142505303Y-112037600D01*
X142533914Y-112057543D01*
X142545553Y-112071675D01*
X142553609Y-112090220D01*
X142558729Y-112118334D01*
X142561559Y-112161173D01*
X142562744Y-112223895D01*
X142562943Y-112289261D01*
X142562982Y-112371268D01*
X142564386Y-112429316D01*
X142569086Y-112468465D01*
X142579013Y-112493780D01*
X142596097Y-112510323D01*
X142622268Y-112523156D01*
X142657225Y-112536491D01*
X142695404Y-112551007D01*
X142690859Y-112293389D01*
X142689029Y-112200519D01*
X142686888Y-112131889D01*
X142683819Y-112082711D01*
X142679206Y-112048198D01*
X142672432Y-112023562D01*
X142662881Y-112004016D01*
X142651366Y-111986770D01*
X142595810Y-111931680D01*
X142528020Y-111899822D01*
X142454287Y-111892191D01*
X142380907Y-111909780D01*
G36*
X144055885Y-111903962D02*
G01*
X143987855Y-111939733D01*
X143937649Y-111997301D01*
X143919815Y-112034312D01*
X143905937Y-112089882D01*
X143898833Y-112160096D01*
X143898160Y-112236727D01*
X143903573Y-112311552D01*
X143914730Y-112376342D01*
X143931286Y-112422873D01*
X143936374Y-112430887D01*
X143996645Y-112490707D01*
X144068231Y-112526535D01*
X144145908Y-112537020D01*
X144224452Y-112520810D01*
X144246311Y-112511092D01*
X144288878Y-112481143D01*
X144326237Y-112441433D01*
X144329768Y-112436397D01*
X144344119Y-112412124D01*
X144353606Y-112386178D01*
X144359210Y-112352022D01*
X144361914Y-112303119D01*
X144362701Y-112232935D01*
X144362714Y-112217200D01*
X144362678Y-112212192D01*
X144217571Y-112212192D01*
X144216727Y-112278430D01*
X144213404Y-112322386D01*
X144206417Y-112350779D01*
X144194584Y-112370325D01*
X144188543Y-112376857D01*
X144153814Y-112401680D01*
X144120097Y-112400548D01*
X144086005Y-112379016D01*
X144065671Y-112356029D01*
X144053629Y-112322478D01*
X144046866Y-112269569D01*
X144046402Y-112263399D01*
X144045248Y-112167513D01*
X144057312Y-112096299D01*
X144082430Y-112050194D01*
X144120440Y-112029635D01*
X144134008Y-112028514D01*
X144169636Y-112034152D01*
X144194006Y-112053686D01*
X144208907Y-112091042D01*
X144216125Y-112150150D01*
X144217571Y-112212192D01*
X144362678Y-112212192D01*
X144362174Y-112142413D01*
X144359904Y-112090159D01*
X144354932Y-112053949D01*
X144346287Y-112027299D01*
X144332995Y-112003722D01*
X144330057Y-111999338D01*
X144280687Y-111940249D01*
X144226891Y-111905947D01*
X144161398Y-111892331D01*
X144139158Y-111891665D01*
X144055885Y-111903962D01*
X144055885Y-111903962D01*
G37*
X144055885Y-111903962D02*
X143987855Y-111939733D01*
X143937649Y-111997301D01*
X143919815Y-112034312D01*
X143905937Y-112089882D01*
X143898833Y-112160096D01*
X143898160Y-112236727D01*
X143903573Y-112311552D01*
X143914730Y-112376342D01*
X143931286Y-112422873D01*
X143936374Y-112430887D01*
X143996645Y-112490707D01*
X144068231Y-112526535D01*
X144145908Y-112537020D01*
X144224452Y-112520810D01*
X144246311Y-112511092D01*
X144288878Y-112481143D01*
X144326237Y-112441433D01*
X144329768Y-112436397D01*
X144344119Y-112412124D01*
X144353606Y-112386178D01*
X144359210Y-112352022D01*
X144361914Y-112303119D01*
X144362701Y-112232935D01*
X144362714Y-112217200D01*
X144362678Y-112212192D01*
X144217571Y-112212192D01*
X144216727Y-112278430D01*
X144213404Y-112322386D01*
X144206417Y-112350779D01*
X144194584Y-112370325D01*
X144188543Y-112376857D01*
X144153814Y-112401680D01*
X144120097Y-112400548D01*
X144086005Y-112379016D01*
X144065671Y-112356029D01*
X144053629Y-112322478D01*
X144046866Y-112269569D01*
X144046402Y-112263399D01*
X144045248Y-112167513D01*
X144057312Y-112096299D01*
X144082430Y-112050194D01*
X144120440Y-112029635D01*
X144134008Y-112028514D01*
X144169636Y-112034152D01*
X144194006Y-112053686D01*
X144208907Y-112091042D01*
X144216125Y-112150150D01*
X144217571Y-112212192D01*
X144362678Y-112212192D01*
X144362174Y-112142413D01*
X144359904Y-112090159D01*
X144354932Y-112053949D01*
X144346287Y-112027299D01*
X144332995Y-112003722D01*
X144330057Y-111999338D01*
X144280687Y-111940249D01*
X144226891Y-111905947D01*
X144161398Y-111892331D01*
X144139158Y-111891665D01*
X144055885Y-111903962D01*
G36*
X142928697Y-111913239D02*
G01*
X142871473Y-111951735D01*
X142827251Y-112007335D01*
X142800833Y-112078086D01*
X142795490Y-112130162D01*
X142796097Y-112151893D01*
X142801178Y-112168531D01*
X142815145Y-112183437D01*
X142842411Y-112199973D01*
X142887388Y-112221498D01*
X142954489Y-112251374D01*
X142954829Y-112251524D01*
X143016593Y-112279813D01*
X143067241Y-112304933D01*
X143101596Y-112324179D01*
X143114482Y-112334848D01*
X143114486Y-112334934D01*
X143103128Y-112358166D01*
X143076569Y-112383774D01*
X143046077Y-112402221D01*
X143030630Y-112405886D01*
X142988485Y-112393212D01*
X142952192Y-112361471D01*
X142934483Y-112326572D01*
X142917448Y-112300845D01*
X142884078Y-112271546D01*
X142844851Y-112246235D01*
X142810244Y-112232471D01*
X142803007Y-112231714D01*
X142794861Y-112244160D01*
X142794370Y-112275972D01*
X142800357Y-112318866D01*
X142811643Y-112364558D01*
X142827050Y-112404761D01*
X142827829Y-112406322D01*
X142874196Y-112471062D01*
X142934289Y-112515097D01*
X143002535Y-112536711D01*
X143073362Y-112534185D01*
X143141196Y-112505804D01*
X143144212Y-112503808D01*
X143197573Y-112455448D01*
X143232660Y-112392352D01*
X143252078Y-112309387D01*
X143254684Y-112286078D01*
X143259299Y-112176055D01*
X143253767Y-112124748D01*
X143114486Y-112124748D01*
X143112676Y-112156753D01*
X143102778Y-112166093D01*
X143078102Y-112159105D01*
X143039205Y-112142587D01*
X142995725Y-112121881D01*
X142994644Y-112121333D01*
X142957791Y-112101949D01*
X142943000Y-112089013D01*
X142946647Y-112075451D01*
X142962005Y-112057632D01*
X143001077Y-112031845D01*
X143043154Y-112029950D01*
X143080897Y-112048717D01*
X143106966Y-112084915D01*
X143114486Y-112124748D01*
X143253767Y-112124748D01*
X143249806Y-112088027D01*
X143225450Y-112018212D01*
X143191544Y-111969302D01*
X143130347Y-111919878D01*
X143062937Y-111895359D01*
X142994120Y-111893797D01*
X142928697Y-111913239D01*
X142928697Y-111913239D01*
G37*
X142928697Y-111913239D02*
X142871473Y-111951735D01*
X142827251Y-112007335D01*
X142800833Y-112078086D01*
X142795490Y-112130162D01*
X142796097Y-112151893D01*
X142801178Y-112168531D01*
X142815145Y-112183437D01*
X142842411Y-112199973D01*
X142887388Y-112221498D01*
X142954489Y-112251374D01*
X142954829Y-112251524D01*
X143016593Y-112279813D01*
X143067241Y-112304933D01*
X143101596Y-112324179D01*
X143114482Y-112334848D01*
X143114486Y-112334934D01*
X143103128Y-112358166D01*
X143076569Y-112383774D01*
X143046077Y-112402221D01*
X143030630Y-112405886D01*
X142988485Y-112393212D01*
X142952192Y-112361471D01*
X142934483Y-112326572D01*
X142917448Y-112300845D01*
X142884078Y-112271546D01*
X142844851Y-112246235D01*
X142810244Y-112232471D01*
X142803007Y-112231714D01*
X142794861Y-112244160D01*
X142794370Y-112275972D01*
X142800357Y-112318866D01*
X142811643Y-112364558D01*
X142827050Y-112404761D01*
X142827829Y-112406322D01*
X142874196Y-112471062D01*
X142934289Y-112515097D01*
X143002535Y-112536711D01*
X143073362Y-112534185D01*
X143141196Y-112505804D01*
X143144212Y-112503808D01*
X143197573Y-112455448D01*
X143232660Y-112392352D01*
X143252078Y-112309387D01*
X143254684Y-112286078D01*
X143259299Y-112176055D01*
X143253767Y-112124748D01*
X143114486Y-112124748D01*
X143112676Y-112156753D01*
X143102778Y-112166093D01*
X143078102Y-112159105D01*
X143039205Y-112142587D01*
X142995725Y-112121881D01*
X142994644Y-112121333D01*
X142957791Y-112101949D01*
X142943000Y-112089013D01*
X142946647Y-112075451D01*
X142962005Y-112057632D01*
X143001077Y-112031845D01*
X143043154Y-112029950D01*
X143080897Y-112048717D01*
X143106966Y-112084915D01*
X143114486Y-112124748D01*
X143253767Y-112124748D01*
X143249806Y-112088027D01*
X143225450Y-112018212D01*
X143191544Y-111969302D01*
X143130347Y-111919878D01*
X143062937Y-111895359D01*
X142994120Y-111893797D01*
X142928697Y-111913239D01*
G36*
X141721114Y-111833289D02*
G01*
X141716861Y-111892613D01*
X141711975Y-111927572D01*
X141705205Y-111942820D01*
X141695298Y-111943015D01*
X141692086Y-111941195D01*
X141649356Y-111928015D01*
X141593773Y-111928785D01*
X141537263Y-111942333D01*
X141501918Y-111959861D01*
X141465679Y-111987861D01*
X141439187Y-112019549D01*
X141421001Y-112059813D01*
X141409678Y-112113543D01*
X141403778Y-112185626D01*
X141401857Y-112280951D01*
X141401823Y-112299237D01*
X141401800Y-112504646D01*
X141447509Y-112520580D01*
X141479973Y-112531420D01*
X141497785Y-112536468D01*
X141498309Y-112536514D01*
X141500063Y-112522828D01*
X141501556Y-112485076D01*
X141502674Y-112428224D01*
X141503303Y-112357234D01*
X141503400Y-112314073D01*
X141503602Y-112228973D01*
X141504642Y-112167981D01*
X141507169Y-112126177D01*
X141511836Y-112098642D01*
X141519293Y-112080456D01*
X141530189Y-112066698D01*
X141536993Y-112060073D01*
X141583728Y-112033375D01*
X141634728Y-112031375D01*
X141680999Y-112053955D01*
X141689556Y-112062107D01*
X141702107Y-112077436D01*
X141710812Y-112095618D01*
X141716369Y-112121909D01*
X141719474Y-112161562D01*
X141720824Y-112219832D01*
X141721114Y-112300173D01*
X141721114Y-112504646D01*
X141766823Y-112520580D01*
X141799287Y-112531420D01*
X141817099Y-112536468D01*
X141817623Y-112536514D01*
X141818963Y-112522623D01*
X141820172Y-112483439D01*
X141821199Y-112422700D01*
X141821998Y-112344141D01*
X141822519Y-112251498D01*
X141822714Y-112148509D01*
X141822714Y-111751342D01*
X141775543Y-111731444D01*
X141728371Y-111711547D01*
X141721114Y-111833289D01*
X141721114Y-111833289D01*
G37*
X141721114Y-111833289D02*
X141716861Y-111892613D01*
X141711975Y-111927572D01*
X141705205Y-111942820D01*
X141695298Y-111943015D01*
X141692086Y-111941195D01*
X141649356Y-111928015D01*
X141593773Y-111928785D01*
X141537263Y-111942333D01*
X141501918Y-111959861D01*
X141465679Y-111987861D01*
X141439187Y-112019549D01*
X141421001Y-112059813D01*
X141409678Y-112113543D01*
X141403778Y-112185626D01*
X141401857Y-112280951D01*
X141401823Y-112299237D01*
X141401800Y-112504646D01*
X141447509Y-112520580D01*
X141479973Y-112531420D01*
X141497785Y-112536468D01*
X141498309Y-112536514D01*
X141500063Y-112522828D01*
X141501556Y-112485076D01*
X141502674Y-112428224D01*
X141503303Y-112357234D01*
X141503400Y-112314073D01*
X141503602Y-112228973D01*
X141504642Y-112167981D01*
X141507169Y-112126177D01*
X141511836Y-112098642D01*
X141519293Y-112080456D01*
X141530189Y-112066698D01*
X141536993Y-112060073D01*
X141583728Y-112033375D01*
X141634728Y-112031375D01*
X141680999Y-112053955D01*
X141689556Y-112062107D01*
X141702107Y-112077436D01*
X141710812Y-112095618D01*
X141716369Y-112121909D01*
X141719474Y-112161562D01*
X141720824Y-112219832D01*
X141721114Y-112300173D01*
X141721114Y-112504646D01*
X141766823Y-112520580D01*
X141799287Y-112531420D01*
X141817099Y-112536468D01*
X141817623Y-112536514D01*
X141818963Y-112522623D01*
X141820172Y-112483439D01*
X141821199Y-112422700D01*
X141821998Y-112344141D01*
X141822519Y-112251498D01*
X141822714Y-112148509D01*
X141822714Y-111751342D01*
X141775543Y-111731444D01*
X141728371Y-111711547D01*
X141721114Y-111833289D01*
G36*
X141057256Y-111932968D02*
G01*
X141000384Y-111954087D01*
X140999733Y-111954493D01*
X140964560Y-111980380D01*
X140938593Y-112010633D01*
X140920330Y-112050058D01*
X140908268Y-112103462D01*
X140900904Y-112175651D01*
X140896736Y-112271432D01*
X140896371Y-112285078D01*
X140891124Y-112490842D01*
X140935284Y-112513678D01*
X140967237Y-112529110D01*
X140986530Y-112536423D01*
X140987422Y-112536514D01*
X140990761Y-112523022D01*
X140993413Y-112486626D01*
X140995044Y-112433452D01*
X140995400Y-112390393D01*
X140995408Y-112320641D01*
X140998597Y-112276837D01*
X141009712Y-112255944D01*
X141033499Y-112254925D01*
X141074704Y-112270741D01*
X141136914Y-112299815D01*
X141182659Y-112323963D01*
X141206187Y-112344913D01*
X141213104Y-112367747D01*
X141213114Y-112368877D01*
X141201701Y-112408212D01*
X141167908Y-112429462D01*
X141116191Y-112432539D01*
X141078939Y-112432006D01*
X141059297Y-112442735D01*
X141047048Y-112468505D01*
X141039998Y-112501337D01*
X141050158Y-112519966D01*
X141053983Y-112522632D01*
X141089999Y-112533340D01*
X141140434Y-112534856D01*
X141192374Y-112527759D01*
X141229178Y-112514788D01*
X141280062Y-112471585D01*
X141308986Y-112411446D01*
X141314714Y-112364462D01*
X141310343Y-112322082D01*
X141294525Y-112287488D01*
X141263203Y-112256763D01*
X141212322Y-112225990D01*
X141137824Y-112191252D01*
X141133286Y-112189288D01*
X141066179Y-112158287D01*
X141024768Y-112132862D01*
X141007019Y-112110014D01*
X141010893Y-112086745D01*
X141034357Y-112060056D01*
X141041373Y-112053914D01*
X141088370Y-112030100D01*
X141137067Y-112031103D01*
X141179478Y-112054451D01*
X141207616Y-112097675D01*
X141210231Y-112106160D01*
X141235692Y-112147308D01*
X141267999Y-112167128D01*
X141314714Y-112186770D01*
X141314714Y-112135950D01*
X141300504Y-112062082D01*
X141258325Y-111994327D01*
X141236376Y-111971661D01*
X141186483Y-111942569D01*
X141123033Y-111929400D01*
X141057256Y-111932968D01*
X141057256Y-111932968D01*
G37*
X141057256Y-111932968D02*
X141000384Y-111954087D01*
X140999733Y-111954493D01*
X140964560Y-111980380D01*
X140938593Y-112010633D01*
X140920330Y-112050058D01*
X140908268Y-112103462D01*
X140900904Y-112175651D01*
X140896736Y-112271432D01*
X140896371Y-112285078D01*
X140891124Y-112490842D01*
X140935284Y-112513678D01*
X140967237Y-112529110D01*
X140986530Y-112536423D01*
X140987422Y-112536514D01*
X140990761Y-112523022D01*
X140993413Y-112486626D01*
X140995044Y-112433452D01*
X140995400Y-112390393D01*
X140995408Y-112320641D01*
X140998597Y-112276837D01*
X141009712Y-112255944D01*
X141033499Y-112254925D01*
X141074704Y-112270741D01*
X141136914Y-112299815D01*
X141182659Y-112323963D01*
X141206187Y-112344913D01*
X141213104Y-112367747D01*
X141213114Y-112368877D01*
X141201701Y-112408212D01*
X141167908Y-112429462D01*
X141116191Y-112432539D01*
X141078939Y-112432006D01*
X141059297Y-112442735D01*
X141047048Y-112468505D01*
X141039998Y-112501337D01*
X141050158Y-112519966D01*
X141053983Y-112522632D01*
X141089999Y-112533340D01*
X141140434Y-112534856D01*
X141192374Y-112527759D01*
X141229178Y-112514788D01*
X141280062Y-112471585D01*
X141308986Y-112411446D01*
X141314714Y-112364462D01*
X141310343Y-112322082D01*
X141294525Y-112287488D01*
X141263203Y-112256763D01*
X141212322Y-112225990D01*
X141137824Y-112191252D01*
X141133286Y-112189288D01*
X141066179Y-112158287D01*
X141024768Y-112132862D01*
X141007019Y-112110014D01*
X141010893Y-112086745D01*
X141034357Y-112060056D01*
X141041373Y-112053914D01*
X141088370Y-112030100D01*
X141137067Y-112031103D01*
X141179478Y-112054451D01*
X141207616Y-112097675D01*
X141210231Y-112106160D01*
X141235692Y-112147308D01*
X141267999Y-112167128D01*
X141314714Y-112186770D01*
X141314714Y-112135950D01*
X141300504Y-112062082D01*
X141258325Y-111994327D01*
X141236376Y-111971661D01*
X141186483Y-111942569D01*
X141123033Y-111929400D01*
X141057256Y-111932968D01*
G36*
X140567074Y-111931755D02*
G01*
X140501142Y-111956084D01*
X140447727Y-111999117D01*
X140426836Y-112029409D01*
X140404061Y-112084994D01*
X140404534Y-112125186D01*
X140428438Y-112152217D01*
X140437283Y-112156813D01*
X140475470Y-112171144D01*
X140494972Y-112167472D01*
X140501578Y-112143407D01*
X140501914Y-112130114D01*
X140514008Y-112081210D01*
X140545529Y-112046999D01*
X140589341Y-112030476D01*
X140638305Y-112034634D01*
X140678106Y-112056227D01*
X140691550Y-112068544D01*
X140701079Y-112083487D01*
X140707515Y-112106075D01*
X140711683Y-112141328D01*
X140714403Y-112194266D01*
X140716498Y-112269907D01*
X140717040Y-112293857D01*
X140719019Y-112375790D01*
X140721269Y-112433455D01*
X140724643Y-112471608D01*
X140729994Y-112495004D01*
X140738176Y-112508398D01*
X140750041Y-112516545D01*
X140757638Y-112520144D01*
X140789898Y-112532452D01*
X140808889Y-112536514D01*
X140815164Y-112522948D01*
X140818994Y-112481934D01*
X140820400Y-112412999D01*
X140819402Y-112315669D01*
X140819092Y-112300657D01*
X140816899Y-112211859D01*
X140814307Y-112147019D01*
X140810618Y-112101067D01*
X140805136Y-112068935D01*
X140797165Y-112045553D01*
X140786007Y-112025852D01*
X140780170Y-112017410D01*
X140746704Y-111980057D01*
X140709273Y-111951003D01*
X140704691Y-111948467D01*
X140637574Y-111928443D01*
X140567074Y-111931755D01*
X140567074Y-111931755D01*
G37*
X140567074Y-111931755D02*
X140501142Y-111956084D01*
X140447727Y-111999117D01*
X140426836Y-112029409D01*
X140404061Y-112084994D01*
X140404534Y-112125186D01*
X140428438Y-112152217D01*
X140437283Y-112156813D01*
X140475470Y-112171144D01*
X140494972Y-112167472D01*
X140501578Y-112143407D01*
X140501914Y-112130114D01*
X140514008Y-112081210D01*
X140545529Y-112046999D01*
X140589341Y-112030476D01*
X140638305Y-112034634D01*
X140678106Y-112056227D01*
X140691550Y-112068544D01*
X140701079Y-112083487D01*
X140707515Y-112106075D01*
X140711683Y-112141328D01*
X140714403Y-112194266D01*
X140716498Y-112269907D01*
X140717040Y-112293857D01*
X140719019Y-112375790D01*
X140721269Y-112433455D01*
X140724643Y-112471608D01*
X140729994Y-112495004D01*
X140738176Y-112508398D01*
X140750041Y-112516545D01*
X140757638Y-112520144D01*
X140789898Y-112532452D01*
X140808889Y-112536514D01*
X140815164Y-112522948D01*
X140818994Y-112481934D01*
X140820400Y-112412999D01*
X140819402Y-112315669D01*
X140819092Y-112300657D01*
X140816899Y-112211859D01*
X140814307Y-112147019D01*
X140810618Y-112101067D01*
X140805136Y-112068935D01*
X140797165Y-112045553D01*
X140786007Y-112025852D01*
X140780170Y-112017410D01*
X140746704Y-111980057D01*
X140709273Y-111951003D01*
X140704691Y-111948467D01*
X140637574Y-111928443D01*
X140567074Y-111931755D01*
G36*
X139906883Y-112047358D02*
G01*
X139907067Y-112155837D01*
X139907781Y-112239287D01*
X139909325Y-112301704D01*
X139911999Y-112347085D01*
X139916106Y-112379429D01*
X139921945Y-112402733D01*
X139929818Y-112420995D01*
X139935779Y-112431418D01*
X139985145Y-112487945D01*
X140047736Y-112523377D01*
X140116987Y-112536090D01*
X140186332Y-112524463D01*
X140227625Y-112503568D01*
X140270975Y-112467422D01*
X140300519Y-112423276D01*
X140318345Y-112365462D01*
X140326537Y-112288313D01*
X140327698Y-112231714D01*
X140327542Y-112227647D01*
X140226143Y-112227647D01*
X140225524Y-112292550D01*
X140222686Y-112335514D01*
X140216160Y-112363622D01*
X140204477Y-112383953D01*
X140190517Y-112399288D01*
X140143635Y-112428890D01*
X140093299Y-112431419D01*
X140045724Y-112406705D01*
X140042021Y-112403356D01*
X140026217Y-112385935D01*
X140016307Y-112365209D01*
X140010942Y-112334362D01*
X140008772Y-112286577D01*
X140008429Y-112233748D01*
X140009173Y-112167381D01*
X140012252Y-112123106D01*
X140018939Y-112094009D01*
X140030504Y-112073173D01*
X140039987Y-112062107D01*
X140084040Y-112034198D01*
X140134776Y-112030843D01*
X140183204Y-112052159D01*
X140192550Y-112060073D01*
X140208460Y-112077647D01*
X140218390Y-112098587D01*
X140223722Y-112129782D01*
X140225837Y-112178122D01*
X140226143Y-112227647D01*
X140327542Y-112227647D01*
X140324190Y-112140568D01*
X140312274Y-112072086D01*
X140289865Y-112020600D01*
X140254876Y-111980443D01*
X140227625Y-111959861D01*
X140178093Y-111937625D01*
X140120684Y-111927304D01*
X140067318Y-111930067D01*
X140037457Y-111941212D01*
X140025739Y-111944383D01*
X140017963Y-111932557D01*
X140012535Y-111900866D01*
X140008429Y-111852593D01*
X140003933Y-111798829D01*
X139997687Y-111766482D01*
X139986324Y-111747985D01*
X139966472Y-111735770D01*
X139954000Y-111730362D01*
X139906829Y-111710601D01*
X139906883Y-112047358D01*
X139906883Y-112047358D01*
G37*
X139906883Y-112047358D02*
X139907067Y-112155837D01*
X139907781Y-112239287D01*
X139909325Y-112301704D01*
X139911999Y-112347085D01*
X139916106Y-112379429D01*
X139921945Y-112402733D01*
X139929818Y-112420995D01*
X139935779Y-112431418D01*
X139985145Y-112487945D01*
X140047736Y-112523377D01*
X140116987Y-112536090D01*
X140186332Y-112524463D01*
X140227625Y-112503568D01*
X140270975Y-112467422D01*
X140300519Y-112423276D01*
X140318345Y-112365462D01*
X140326537Y-112288313D01*
X140327698Y-112231714D01*
X140327542Y-112227647D01*
X140226143Y-112227647D01*
X140225524Y-112292550D01*
X140222686Y-112335514D01*
X140216160Y-112363622D01*
X140204477Y-112383953D01*
X140190517Y-112399288D01*
X140143635Y-112428890D01*
X140093299Y-112431419D01*
X140045724Y-112406705D01*
X140042021Y-112403356D01*
X140026217Y-112385935D01*
X140016307Y-112365209D01*
X140010942Y-112334362D01*
X140008772Y-112286577D01*
X140008429Y-112233748D01*
X140009173Y-112167381D01*
X140012252Y-112123106D01*
X140018939Y-112094009D01*
X140030504Y-112073173D01*
X140039987Y-112062107D01*
X140084040Y-112034198D01*
X140134776Y-112030843D01*
X140183204Y-112052159D01*
X140192550Y-112060073D01*
X140208460Y-112077647D01*
X140218390Y-112098587D01*
X140223722Y-112129782D01*
X140225837Y-112178122D01*
X140226143Y-112227647D01*
X140327542Y-112227647D01*
X140324190Y-112140568D01*
X140312274Y-112072086D01*
X140289865Y-112020600D01*
X140254876Y-111980443D01*
X140227625Y-111959861D01*
X140178093Y-111937625D01*
X140120684Y-111927304D01*
X140067318Y-111930067D01*
X140037457Y-111941212D01*
X140025739Y-111944383D01*
X140017963Y-111932557D01*
X140012535Y-111900866D01*
X140008429Y-111852593D01*
X140003933Y-111798829D01*
X139997687Y-111766482D01*
X139986324Y-111747985D01*
X139966472Y-111735770D01*
X139954000Y-111730362D01*
X139906829Y-111710601D01*
X139906883Y-112047358D01*
G36*
X139317167Y-111940663D02*
G01*
X139314952Y-111978850D01*
X139313216Y-112036886D01*
X139312101Y-112110180D01*
X139311743Y-112187055D01*
X139311743Y-112447196D01*
X139357674Y-112493127D01*
X139389325Y-112521429D01*
X139417110Y-112532893D01*
X139455085Y-112532168D01*
X139470160Y-112530321D01*
X139517274Y-112524948D01*
X139556244Y-112521869D01*
X139565743Y-112521585D01*
X139597767Y-112523445D01*
X139643568Y-112528114D01*
X139661326Y-112530321D01*
X139704943Y-112533735D01*
X139734255Y-112526320D01*
X139763320Y-112503427D01*
X139773812Y-112493127D01*
X139819743Y-112447196D01*
X139819743Y-111960602D01*
X139782774Y-111943758D01*
X139750941Y-111931282D01*
X139732317Y-111926914D01*
X139727542Y-111940718D01*
X139723079Y-111979286D01*
X139719225Y-112038356D01*
X139716278Y-112113663D01*
X139714857Y-112177286D01*
X139710886Y-112427657D01*
X139676241Y-112432556D01*
X139644732Y-112429131D01*
X139629292Y-112418041D01*
X139624977Y-112397308D01*
X139621292Y-112353145D01*
X139618531Y-112291146D01*
X139616988Y-112216909D01*
X139616765Y-112178706D01*
X139616543Y-111958783D01*
X139570834Y-111942849D01*
X139538482Y-111932015D01*
X139520885Y-111926962D01*
X139520377Y-111926914D01*
X139518612Y-111940648D01*
X139516671Y-111978730D01*
X139514718Y-112036482D01*
X139512916Y-112109227D01*
X139511657Y-112177286D01*
X139507686Y-112427657D01*
X139420600Y-112427657D01*
X139416604Y-112199240D01*
X139412608Y-111970822D01*
X139370153Y-111948868D01*
X139338808Y-111933793D01*
X139320256Y-111926951D01*
X139319721Y-111926914D01*
X139317167Y-111940663D01*
X139317167Y-111940663D01*
G37*
X139317167Y-111940663D02*
X139314952Y-111978850D01*
X139313216Y-112036886D01*
X139312101Y-112110180D01*
X139311743Y-112187055D01*
X139311743Y-112447196D01*
X139357674Y-112493127D01*
X139389325Y-112521429D01*
X139417110Y-112532893D01*
X139455085Y-112532168D01*
X139470160Y-112530321D01*
X139517274Y-112524948D01*
X139556244Y-112521869D01*
X139565743Y-112521585D01*
X139597767Y-112523445D01*
X139643568Y-112528114D01*
X139661326Y-112530321D01*
X139704943Y-112533735D01*
X139734255Y-112526320D01*
X139763320Y-112503427D01*
X139773812Y-112493127D01*
X139819743Y-112447196D01*
X139819743Y-111960602D01*
X139782774Y-111943758D01*
X139750941Y-111931282D01*
X139732317Y-111926914D01*
X139727542Y-111940718D01*
X139723079Y-111979286D01*
X139719225Y-112038356D01*
X139716278Y-112113663D01*
X139714857Y-112177286D01*
X139710886Y-112427657D01*
X139676241Y-112432556D01*
X139644732Y-112429131D01*
X139629292Y-112418041D01*
X139624977Y-112397308D01*
X139621292Y-112353145D01*
X139618531Y-112291146D01*
X139616988Y-112216909D01*
X139616765Y-112178706D01*
X139616543Y-111958783D01*
X139570834Y-111942849D01*
X139538482Y-111932015D01*
X139520885Y-111926962D01*
X139520377Y-111926914D01*
X139518612Y-111940648D01*
X139516671Y-111978730D01*
X139514718Y-112036482D01*
X139512916Y-112109227D01*
X139511657Y-112177286D01*
X139507686Y-112427657D01*
X139420600Y-112427657D01*
X139416604Y-112199240D01*
X139412608Y-111970822D01*
X139370153Y-111948868D01*
X139338808Y-111933793D01*
X139320256Y-111926951D01*
X139319721Y-111926914D01*
X139317167Y-111940663D01*
G36*
X138952124Y-111938335D02*
G01*
X138910333Y-111957344D01*
X138877531Y-111980378D01*
X138853497Y-112006133D01*
X138836903Y-112039358D01*
X138826423Y-112084800D01*
X138820729Y-112147207D01*
X138818493Y-112231327D01*
X138818257Y-112286721D01*
X138818257Y-112502826D01*
X138855226Y-112519670D01*
X138884344Y-112531981D01*
X138898769Y-112536514D01*
X138901528Y-112523025D01*
X138903718Y-112486653D01*
X138905058Y-112433542D01*
X138905343Y-112391372D01*
X138906566Y-112330447D01*
X138909864Y-112282115D01*
X138914679Y-112252518D01*
X138918504Y-112246229D01*
X138944217Y-112252652D01*
X138984582Y-112269125D01*
X139031321Y-112291458D01*
X139076155Y-112315457D01*
X139110807Y-112336930D01*
X139126998Y-112351685D01*
X139127062Y-112351845D01*
X139125670Y-112379152D01*
X139113182Y-112405219D01*
X139091257Y-112426392D01*
X139059257Y-112433474D01*
X139031908Y-112432649D01*
X138993174Y-112432042D01*
X138972842Y-112441116D01*
X138960631Y-112465092D01*
X138959091Y-112469613D01*
X138953797Y-112503806D01*
X138967953Y-112524568D01*
X139004852Y-112534462D01*
X139044711Y-112536292D01*
X139116438Y-112522727D01*
X139153568Y-112503355D01*
X139199424Y-112457845D01*
X139223744Y-112401983D01*
X139225927Y-112342957D01*
X139205371Y-112287953D01*
X139174451Y-112253486D01*
X139143580Y-112234189D01*
X139095058Y-112209759D01*
X139038515Y-112184985D01*
X139029090Y-112181199D01*
X138966981Y-112153791D01*
X138931178Y-112129634D01*
X138919663Y-112105619D01*
X138930420Y-112078635D01*
X138948886Y-112057543D01*
X138992531Y-112031572D01*
X139040554Y-112029624D01*
X139084594Y-112049637D01*
X139116291Y-112089551D01*
X139120451Y-112099848D01*
X139144673Y-112137724D01*
X139180035Y-112165842D01*
X139224657Y-112188917D01*
X139224657Y-112123485D01*
X139222031Y-112083506D01*
X139210770Y-112051997D01*
X139185801Y-112018378D01*
X139161831Y-111992484D01*
X139124559Y-111955817D01*
X139095599Y-111936121D01*
X139064495Y-111928220D01*
X139029287Y-111926914D01*
X138952124Y-111938335D01*
X138952124Y-111938335D01*
G37*
X138952124Y-111938335D02*
X138910333Y-111957344D01*
X138877531Y-111980378D01*
X138853497Y-112006133D01*
X138836903Y-112039358D01*
X138826423Y-112084800D01*
X138820729Y-112147207D01*
X138818493Y-112231327D01*
X138818257Y-112286721D01*
X138818257Y-112502826D01*
X138855226Y-112519670D01*
X138884344Y-112531981D01*
X138898769Y-112536514D01*
X138901528Y-112523025D01*
X138903718Y-112486653D01*
X138905058Y-112433542D01*
X138905343Y-112391372D01*
X138906566Y-112330447D01*
X138909864Y-112282115D01*
X138914679Y-112252518D01*
X138918504Y-112246229D01*
X138944217Y-112252652D01*
X138984582Y-112269125D01*
X139031321Y-112291458D01*
X139076155Y-112315457D01*
X139110807Y-112336930D01*
X139126998Y-112351685D01*
X139127062Y-112351845D01*
X139125670Y-112379152D01*
X139113182Y-112405219D01*
X139091257Y-112426392D01*
X139059257Y-112433474D01*
X139031908Y-112432649D01*
X138993174Y-112432042D01*
X138972842Y-112441116D01*
X138960631Y-112465092D01*
X138959091Y-112469613D01*
X138953797Y-112503806D01*
X138967953Y-112524568D01*
X139004852Y-112534462D01*
X139044711Y-112536292D01*
X139116438Y-112522727D01*
X139153568Y-112503355D01*
X139199424Y-112457845D01*
X139223744Y-112401983D01*
X139225927Y-112342957D01*
X139205371Y-112287953D01*
X139174451Y-112253486D01*
X139143580Y-112234189D01*
X139095058Y-112209759D01*
X139038515Y-112184985D01*
X139029090Y-112181199D01*
X138966981Y-112153791D01*
X138931178Y-112129634D01*
X138919663Y-112105619D01*
X138930420Y-112078635D01*
X138948886Y-112057543D01*
X138992531Y-112031572D01*
X139040554Y-112029624D01*
X139084594Y-112049637D01*
X139116291Y-112089551D01*
X139120451Y-112099848D01*
X139144673Y-112137724D01*
X139180035Y-112165842D01*
X139224657Y-112188917D01*
X139224657Y-112123485D01*
X139222031Y-112083506D01*
X139210770Y-112051997D01*
X139185801Y-112018378D01*
X139161831Y-111992484D01*
X139124559Y-111955817D01*
X139095599Y-111936121D01*
X139064495Y-111928220D01*
X139029287Y-111926914D01*
X138952124Y-111938335D01*
G36*
X138444400Y-111940752D02*
G01*
X138427052Y-111948334D01*
X138385644Y-111981128D01*
X138350235Y-112028547D01*
X138328336Y-112079151D01*
X138324771Y-112104098D01*
X138336721Y-112138927D01*
X138362933Y-112157357D01*
X138391036Y-112168516D01*
X138403905Y-112170572D01*
X138410171Y-112155649D01*
X138422544Y-112123175D01*
X138427972Y-112108502D01*
X138458410Y-112057744D01*
X138502480Y-112032427D01*
X138558990Y-112033206D01*
X138563175Y-112034203D01*
X138593345Y-112048507D01*
X138615524Y-112076393D01*
X138630673Y-112121287D01*
X138639750Y-112186615D01*
X138643714Y-112275804D01*
X138644086Y-112323261D01*
X138644270Y-112398071D01*
X138645478Y-112449069D01*
X138648691Y-112481471D01*
X138654891Y-112500495D01*
X138665060Y-112511356D01*
X138680181Y-112519272D01*
X138681054Y-112519670D01*
X138710172Y-112531981D01*
X138724597Y-112536514D01*
X138726814Y-112522809D01*
X138728711Y-112484925D01*
X138730153Y-112427715D01*
X138731002Y-112356027D01*
X138731171Y-112303565D01*
X138730308Y-112202047D01*
X138726930Y-112125032D01*
X138719858Y-112068023D01*
X138707912Y-112026526D01*
X138689910Y-111996043D01*
X138664673Y-111972080D01*
X138639753Y-111955355D01*
X138579829Y-111933097D01*
X138510089Y-111928076D01*
X138444400Y-111940752D01*
X138444400Y-111940752D01*
G37*
X138444400Y-111940752D02*
X138427052Y-111948334D01*
X138385644Y-111981128D01*
X138350235Y-112028547D01*
X138328336Y-112079151D01*
X138324771Y-112104098D01*
X138336721Y-112138927D01*
X138362933Y-112157357D01*
X138391036Y-112168516D01*
X138403905Y-112170572D01*
X138410171Y-112155649D01*
X138422544Y-112123175D01*
X138427972Y-112108502D01*
X138458410Y-112057744D01*
X138502480Y-112032427D01*
X138558990Y-112033206D01*
X138563175Y-112034203D01*
X138593345Y-112048507D01*
X138615524Y-112076393D01*
X138630673Y-112121287D01*
X138639750Y-112186615D01*
X138643714Y-112275804D01*
X138644086Y-112323261D01*
X138644270Y-112398071D01*
X138645478Y-112449069D01*
X138648691Y-112481471D01*
X138654891Y-112500495D01*
X138665060Y-112511356D01*
X138680181Y-112519272D01*
X138681054Y-112519670D01*
X138710172Y-112531981D01*
X138724597Y-112536514D01*
X138726814Y-112522809D01*
X138728711Y-112484925D01*
X138730153Y-112427715D01*
X138731002Y-112356027D01*
X138731171Y-112303565D01*
X138730308Y-112202047D01*
X138726930Y-112125032D01*
X138719858Y-112068023D01*
X138707912Y-112026526D01*
X138689910Y-111996043D01*
X138664673Y-111972080D01*
X138639753Y-111955355D01*
X138579829Y-111933097D01*
X138510089Y-111928076D01*
X138444400Y-111940752D01*
G36*
X137943405Y-111948966D02*
G01*
X137885979Y-111986497D01*
X137858281Y-112020096D01*
X137836338Y-112081064D01*
X137834595Y-112129308D01*
X137838543Y-112193816D01*
X137987314Y-112258934D01*
X138059651Y-112292202D01*
X138106916Y-112318964D01*
X138131493Y-112342144D01*
X138135763Y-112364667D01*
X138122111Y-112389455D01*
X138107057Y-112405886D01*
X138063254Y-112432235D01*
X138015611Y-112434081D01*
X137971855Y-112413546D01*
X137939711Y-112372752D01*
X137933962Y-112358347D01*
X137906424Y-112313356D01*
X137874742Y-112294182D01*
X137831286Y-112277779D01*
X137831286Y-112339966D01*
X137835128Y-112382283D01*
X137850177Y-112417969D01*
X137881720Y-112458943D01*
X137886408Y-112464267D01*
X137921494Y-112500720D01*
X137951653Y-112520283D01*
X137989385Y-112529283D01*
X138020665Y-112532230D01*
X138076615Y-112532965D01*
X138116445Y-112523660D01*
X138141292Y-112509846D01*
X138180344Y-112479467D01*
X138207375Y-112446613D01*
X138224483Y-112405294D01*
X138233762Y-112349521D01*
X138237307Y-112273305D01*
X138237590Y-112234622D01*
X138236628Y-112188247D01*
X138148993Y-112188247D01*
X138147977Y-112213126D01*
X138145444Y-112217200D01*
X138128726Y-112211665D01*
X138092751Y-112197017D01*
X138044669Y-112176190D01*
X138034614Y-112171714D01*
X137973848Y-112140814D01*
X137940368Y-112113657D01*
X137933010Y-112088220D01*
X137950609Y-112062481D01*
X137965144Y-112051109D01*
X138017590Y-112028364D01*
X138066678Y-112032122D01*
X138107773Y-112059884D01*
X138136242Y-112109152D01*
X138145369Y-112148257D01*
X138148993Y-112188247D01*
X138236628Y-112188247D01*
X138235715Y-112144249D01*
X138228804Y-112077384D01*
X138215116Y-112028695D01*
X138192904Y-111992849D01*
X138160426Y-111964513D01*
X138146267Y-111955355D01*
X138081947Y-111931507D01*
X138011527Y-111930006D01*
X137943405Y-111948966D01*
X137943405Y-111948966D01*
G37*
X137943405Y-111948966D02*
X137885979Y-111986497D01*
X137858281Y-112020096D01*
X137836338Y-112081064D01*
X137834595Y-112129308D01*
X137838543Y-112193816D01*
X137987314Y-112258934D01*
X138059651Y-112292202D01*
X138106916Y-112318964D01*
X138131493Y-112342144D01*
X138135763Y-112364667D01*
X138122111Y-112389455D01*
X138107057Y-112405886D01*
X138063254Y-112432235D01*
X138015611Y-112434081D01*
X137971855Y-112413546D01*
X137939711Y-112372752D01*
X137933962Y-112358347D01*
X137906424Y-112313356D01*
X137874742Y-112294182D01*
X137831286Y-112277779D01*
X137831286Y-112339966D01*
X137835128Y-112382283D01*
X137850177Y-112417969D01*
X137881720Y-112458943D01*
X137886408Y-112464267D01*
X137921494Y-112500720D01*
X137951653Y-112520283D01*
X137989385Y-112529283D01*
X138020665Y-112532230D01*
X138076615Y-112532965D01*
X138116445Y-112523660D01*
X138141292Y-112509846D01*
X138180344Y-112479467D01*
X138207375Y-112446613D01*
X138224483Y-112405294D01*
X138233762Y-112349521D01*
X138237307Y-112273305D01*
X138237590Y-112234622D01*
X138236628Y-112188247D01*
X138148993Y-112188247D01*
X138147977Y-112213126D01*
X138145444Y-112217200D01*
X138128726Y-112211665D01*
X138092751Y-112197017D01*
X138044669Y-112176190D01*
X138034614Y-112171714D01*
X137973848Y-112140814D01*
X137940368Y-112113657D01*
X137933010Y-112088220D01*
X137950609Y-112062481D01*
X137965144Y-112051109D01*
X138017590Y-112028364D01*
X138066678Y-112032122D01*
X138107773Y-112059884D01*
X138136242Y-112109152D01*
X138145369Y-112148257D01*
X138148993Y-112188247D01*
X138236628Y-112188247D01*
X138235715Y-112144249D01*
X138228804Y-112077384D01*
X138215116Y-112028695D01*
X138192904Y-111992849D01*
X138160426Y-111964513D01*
X138146267Y-111955355D01*
X138081947Y-111931507D01*
X138011527Y-111930006D01*
X137943405Y-111948966D01*
G36*
X140993090Y-107224348D02*
G01*
X140914546Y-107224778D01*
X140857702Y-107225942D01*
X140818895Y-107228207D01*
X140794462Y-107231940D01*
X140780738Y-107237506D01*
X140774060Y-107245273D01*
X140770764Y-107255605D01*
X140770444Y-107256943D01*
X140765438Y-107281079D01*
X140756171Y-107328701D01*
X140743608Y-107394741D01*
X140728713Y-107474128D01*
X140712449Y-107561796D01*
X140711881Y-107564875D01*
X140695590Y-107650789D01*
X140680348Y-107726696D01*
X140667139Y-107788045D01*
X140656946Y-107830282D01*
X140650752Y-107848855D01*
X140650457Y-107849184D01*
X140632212Y-107858253D01*
X140594595Y-107873367D01*
X140545729Y-107891262D01*
X140545457Y-107891358D01*
X140483907Y-107914493D01*
X140411343Y-107943965D01*
X140342943Y-107973597D01*
X140339706Y-107975062D01*
X140228298Y-108025626D01*
X139981601Y-107857160D01*
X139905923Y-107805803D01*
X139837369Y-107759889D01*
X139779912Y-107722030D01*
X139737524Y-107694837D01*
X139714175Y-107680921D01*
X139711958Y-107679889D01*
X139694990Y-107684484D01*
X139663299Y-107706655D01*
X139615648Y-107747447D01*
X139550802Y-107807905D01*
X139484603Y-107872227D01*
X139420786Y-107935612D01*
X139363671Y-107993451D01*
X139316695Y-108042175D01*
X139283297Y-108078210D01*
X139266915Y-108097984D01*
X139266306Y-108099002D01*
X139264495Y-108112572D01*
X139271317Y-108134733D01*
X139288460Y-108168478D01*
X139317607Y-108216800D01*
X139360445Y-108282692D01*
X139417552Y-108367517D01*
X139468234Y-108442177D01*
X139513539Y-108509140D01*
X139550850Y-108564516D01*
X139577548Y-108604420D01*
X139591015Y-108624962D01*
X139591863Y-108626356D01*
X139590219Y-108646038D01*
X139577755Y-108684293D01*
X139556952Y-108733889D01*
X139549538Y-108749728D01*
X139517186Y-108820290D01*
X139482672Y-108900353D01*
X139454635Y-108969629D01*
X139434432Y-109021045D01*
X139418385Y-109060119D01*
X139409112Y-109080541D01*
X139407959Y-109082114D01*
X139390904Y-109084721D01*
X139350702Y-109091863D01*
X139292698Y-109102523D01*
X139222237Y-109115685D01*
X139144665Y-109130333D01*
X139065328Y-109145449D01*
X138989569Y-109160018D01*
X138922736Y-109173022D01*
X138870172Y-109183445D01*
X138837224Y-109190270D01*
X138829143Y-109192199D01*
X138820795Y-109196962D01*
X138814494Y-109207718D01*
X138809955Y-109228098D01*
X138806896Y-109261734D01*
X138805033Y-109312255D01*
X138804082Y-109383292D01*
X138803760Y-109478476D01*
X138803743Y-109517492D01*
X138803743Y-109834799D01*
X138879943Y-109849839D01*
X138922337Y-109857995D01*
X138985600Y-109869899D01*
X139062038Y-109884116D01*
X139143957Y-109899210D01*
X139166600Y-109903355D01*
X139242194Y-109918053D01*
X139308047Y-109932505D01*
X139358634Y-109945375D01*
X139388426Y-109955322D01*
X139393388Y-109958287D01*
X139405574Y-109979283D01*
X139423047Y-110019967D01*
X139442423Y-110072322D01*
X139446266Y-110083600D01*
X139471661Y-110153523D01*
X139503183Y-110232418D01*
X139534031Y-110303266D01*
X139534183Y-110303595D01*
X139585553Y-110414733D01*
X139416601Y-110663253D01*
X139247648Y-110911772D01*
X139464571Y-111129058D01*
X139530181Y-111193726D01*
X139590021Y-111250733D01*
X139640733Y-111297033D01*
X139678954Y-111329584D01*
X139701325Y-111345343D01*
X139704534Y-111346343D01*
X139723374Y-111338469D01*
X139761820Y-111316578D01*
X139815670Y-111283267D01*
X139880724Y-111241131D01*
X139951060Y-111193943D01*
X140022445Y-111145810D01*
X140086092Y-111103928D01*
X140137959Y-111070871D01*
X140174005Y-111049218D01*
X140190133Y-111041543D01*
X140209811Y-111048037D01*
X140247125Y-111065150D01*
X140294379Y-111089326D01*
X140299388Y-111092013D01*
X140363023Y-111123927D01*
X140406659Y-111139579D01*
X140433798Y-111139745D01*
X140447943Y-111125204D01*
X140448025Y-111125000D01*
X140455095Y-111107779D01*
X140471958Y-111066899D01*
X140497305Y-111005525D01*
X140529829Y-110926819D01*
X140568222Y-110833947D01*
X140611178Y-110730072D01*
X140652778Y-110629502D01*
X140698496Y-110518516D01*
X140740474Y-110415703D01*
X140777452Y-110324215D01*
X140808173Y-110247201D01*
X140831378Y-110187815D01*
X140845810Y-110149209D01*
X140850257Y-110134800D01*
X140839104Y-110118272D01*
X140809931Y-110091930D01*
X140771029Y-110062887D01*
X140660243Y-109971039D01*
X140573649Y-109865759D01*
X140512284Y-109749266D01*
X140477185Y-109623776D01*
X140469392Y-109491507D01*
X140475057Y-109430457D01*
X140505922Y-109303795D01*
X140559080Y-109191941D01*
X140631233Y-109096001D01*
X140719083Y-109017076D01*
X140819335Y-108956270D01*
X140928690Y-108914687D01*
X141043853Y-108893428D01*
X141161525Y-108893599D01*
X141278410Y-108916301D01*
X141391211Y-108962638D01*
X141496631Y-109033713D01*
X141540632Y-109073911D01*
X141625021Y-109177129D01*
X141683778Y-109289925D01*
X141717296Y-109409010D01*
X141725965Y-109531095D01*
X141710177Y-109652893D01*
X141670322Y-109771116D01*
X141606793Y-109882475D01*
X141519979Y-109983684D01*
X141422971Y-110062887D01*
X141382563Y-110093162D01*
X141354018Y-110119219D01*
X141343743Y-110134825D01*
X141349123Y-110151843D01*
X141364425Y-110192500D01*
X141388388Y-110253642D01*
X141419756Y-110332119D01*
X141457268Y-110424780D01*
X141499667Y-110528472D01*
X141541337Y-110629526D01*
X141587310Y-110740607D01*
X141629893Y-110843541D01*
X141667779Y-110935165D01*
X141699660Y-111012316D01*
X141724229Y-111071831D01*
X141740180Y-111110544D01*
X141746090Y-111125000D01*
X141760052Y-111139685D01*
X141787060Y-111139642D01*
X141830587Y-111124099D01*
X141894110Y-111092284D01*
X141894612Y-111092013D01*
X141942440Y-111067323D01*
X141981103Y-111049338D01*
X142002905Y-111041614D01*
X142003867Y-111041543D01*
X142020279Y-111049378D01*
X142056513Y-111071165D01*
X142108526Y-111104328D01*
X142172275Y-111146291D01*
X142242940Y-111193943D01*
X142314884Y-111242191D01*
X142379726Y-111284151D01*
X142433265Y-111317227D01*
X142471303Y-111338821D01*
X142489467Y-111346343D01*
X142506192Y-111336457D01*
X142539820Y-111308826D01*
X142586990Y-111266495D01*
X142644342Y-111212505D01*
X142708516Y-111149899D01*
X142729503Y-111128983D01*
X142946501Y-110911623D01*
X142781332Y-110669220D01*
X142731136Y-110594781D01*
X142687081Y-110527972D01*
X142651638Y-110472665D01*
X142627281Y-110432729D01*
X142616478Y-110412036D01*
X142616162Y-110410563D01*
X142621857Y-110391058D01*
X142637174Y-110351822D01*
X142659463Y-110299430D01*
X142675107Y-110264355D01*
X142704359Y-110197201D01*
X142731906Y-110129358D01*
X142753263Y-110072034D01*
X142759065Y-110054572D01*
X142775548Y-110007938D01*
X142791660Y-109971905D01*
X142800510Y-109958287D01*
X142820040Y-109949952D01*
X142862666Y-109938137D01*
X142922855Y-109924181D01*
X142995078Y-109909422D01*
X143027400Y-109903355D01*
X143109478Y-109888273D01*
X143188205Y-109873669D01*
X143255891Y-109860980D01*
X143304840Y-109851642D01*
X143314057Y-109849839D01*
X143390257Y-109834799D01*
X143390257Y-109517492D01*
X143390086Y-109413154D01*
X143389384Y-109334213D01*
X143387866Y-109277038D01*
X143385251Y-109237999D01*
X143381254Y-109213465D01*
X143375591Y-109199805D01*
X143367980Y-109193389D01*
X143364857Y-109192199D01*
X143346022Y-109187980D01*
X143304412Y-109179562D01*
X143245370Y-109167961D01*
X143174243Y-109154195D01*
X143096375Y-109139280D01*
X143017113Y-109124232D01*
X142941802Y-109110069D01*
X142875787Y-109097806D01*
X142824413Y-109088461D01*
X142793025Y-109083050D01*
X142786041Y-109082114D01*
X142779715Y-109069596D01*
X142765710Y-109036246D01*
X142746645Y-108988377D01*
X142739366Y-108969629D01*
X142710004Y-108897195D01*
X142675429Y-108817170D01*
X142644463Y-108749728D01*
X142621677Y-108698159D01*
X142606518Y-108655785D01*
X142601458Y-108629834D01*
X142602264Y-108626356D01*
X142612959Y-108609936D01*
X142637380Y-108573417D01*
X142672905Y-108520687D01*
X142716913Y-108455635D01*
X142766783Y-108382151D01*
X142776644Y-108367645D01*
X142834508Y-108281704D01*
X142877044Y-108216261D01*
X142905946Y-108168304D01*
X142922910Y-108134820D01*
X142929633Y-108112795D01*
X142927810Y-108099217D01*
X142927764Y-108099131D01*
X142913414Y-108081297D01*
X142881677Y-108046817D01*
X142835990Y-107999268D01*
X142779796Y-107942222D01*
X142716532Y-107879255D01*
X142709398Y-107872227D01*
X142629670Y-107795020D01*
X142568143Y-107738330D01*
X142523579Y-107701110D01*
X142494743Y-107682315D01*
X142482042Y-107679889D01*
X142463506Y-107690471D01*
X142425039Y-107714916D01*
X142370614Y-107750612D01*
X142304202Y-107794947D01*
X142229775Y-107845311D01*
X142212399Y-107857160D01*
X141965703Y-108025626D01*
X141854294Y-107975062D01*
X141786543Y-107945595D01*
X141713817Y-107915959D01*
X141651297Y-107892330D01*
X141648543Y-107891358D01*
X141599640Y-107873457D01*
X141561943Y-107858320D01*
X141543575Y-107849210D01*
X141543544Y-107849184D01*
X141537715Y-107832717D01*
X141527808Y-107792219D01*
X141514805Y-107732242D01*
X141499691Y-107657340D01*
X141483448Y-107572064D01*
X141482119Y-107564875D01*
X141465825Y-107477014D01*
X141450867Y-107397260D01*
X141438209Y-107330681D01*
X141428814Y-107282347D01*
X141423646Y-107257325D01*
X141423556Y-107256943D01*
X141420411Y-107246299D01*
X141414296Y-107238262D01*
X141401547Y-107232467D01*
X141378500Y-107228547D01*
X141341491Y-107226135D01*
X141286856Y-107224865D01*
X141210933Y-107224371D01*
X141110056Y-107224286D01*
X141097000Y-107224286D01*
X140993090Y-107224348D01*
X140993090Y-107224348D01*
G37*
X140993090Y-107224348D02*
X140914546Y-107224778D01*
X140857702Y-107225942D01*
X140818895Y-107228207D01*
X140794462Y-107231940D01*
X140780738Y-107237506D01*
X140774060Y-107245273D01*
X140770764Y-107255605D01*
X140770444Y-107256943D01*
X140765438Y-107281079D01*
X140756171Y-107328701D01*
X140743608Y-107394741D01*
X140728713Y-107474128D01*
X140712449Y-107561796D01*
X140711881Y-107564875D01*
X140695590Y-107650789D01*
X140680348Y-107726696D01*
X140667139Y-107788045D01*
X140656946Y-107830282D01*
X140650752Y-107848855D01*
X140650457Y-107849184D01*
X140632212Y-107858253D01*
X140594595Y-107873367D01*
X140545729Y-107891262D01*
X140545457Y-107891358D01*
X140483907Y-107914493D01*
X140411343Y-107943965D01*
X140342943Y-107973597D01*
X140339706Y-107975062D01*
X140228298Y-108025626D01*
X139981601Y-107857160D01*
X139905923Y-107805803D01*
X139837369Y-107759889D01*
X139779912Y-107722030D01*
X139737524Y-107694837D01*
X139714175Y-107680921D01*
X139711958Y-107679889D01*
X139694990Y-107684484D01*
X139663299Y-107706655D01*
X139615648Y-107747447D01*
X139550802Y-107807905D01*
X139484603Y-107872227D01*
X139420786Y-107935612D01*
X139363671Y-107993451D01*
X139316695Y-108042175D01*
X139283297Y-108078210D01*
X139266915Y-108097984D01*
X139266306Y-108099002D01*
X139264495Y-108112572D01*
X139271317Y-108134733D01*
X139288460Y-108168478D01*
X139317607Y-108216800D01*
X139360445Y-108282692D01*
X139417552Y-108367517D01*
X139468234Y-108442177D01*
X139513539Y-108509140D01*
X139550850Y-108564516D01*
X139577548Y-108604420D01*
X139591015Y-108624962D01*
X139591863Y-108626356D01*
X139590219Y-108646038D01*
X139577755Y-108684293D01*
X139556952Y-108733889D01*
X139549538Y-108749728D01*
X139517186Y-108820290D01*
X139482672Y-108900353D01*
X139454635Y-108969629D01*
X139434432Y-109021045D01*
X139418385Y-109060119D01*
X139409112Y-109080541D01*
X139407959Y-109082114D01*
X139390904Y-109084721D01*
X139350702Y-109091863D01*
X139292698Y-109102523D01*
X139222237Y-109115685D01*
X139144665Y-109130333D01*
X139065328Y-109145449D01*
X138989569Y-109160018D01*
X138922736Y-109173022D01*
X138870172Y-109183445D01*
X138837224Y-109190270D01*
X138829143Y-109192199D01*
X138820795Y-109196962D01*
X138814494Y-109207718D01*
X138809955Y-109228098D01*
X138806896Y-109261734D01*
X138805033Y-109312255D01*
X138804082Y-109383292D01*
X138803760Y-109478476D01*
X138803743Y-109517492D01*
X138803743Y-109834799D01*
X138879943Y-109849839D01*
X138922337Y-109857995D01*
X138985600Y-109869899D01*
X139062038Y-109884116D01*
X139143957Y-109899210D01*
X139166600Y-109903355D01*
X139242194Y-109918053D01*
X139308047Y-109932505D01*
X139358634Y-109945375D01*
X139388426Y-109955322D01*
X139393388Y-109958287D01*
X139405574Y-109979283D01*
X139423047Y-110019967D01*
X139442423Y-110072322D01*
X139446266Y-110083600D01*
X139471661Y-110153523D01*
X139503183Y-110232418D01*
X139534031Y-110303266D01*
X139534183Y-110303595D01*
X139585553Y-110414733D01*
X139416601Y-110663253D01*
X139247648Y-110911772D01*
X139464571Y-111129058D01*
X139530181Y-111193726D01*
X139590021Y-111250733D01*
X139640733Y-111297033D01*
X139678954Y-111329584D01*
X139701325Y-111345343D01*
X139704534Y-111346343D01*
X139723374Y-111338469D01*
X139761820Y-111316578D01*
X139815670Y-111283267D01*
X139880724Y-111241131D01*
X139951060Y-111193943D01*
X140022445Y-111145810D01*
X140086092Y-111103928D01*
X140137959Y-111070871D01*
X140174005Y-111049218D01*
X140190133Y-111041543D01*
X140209811Y-111048037D01*
X140247125Y-111065150D01*
X140294379Y-111089326D01*
X140299388Y-111092013D01*
X140363023Y-111123927D01*
X140406659Y-111139579D01*
X140433798Y-111139745D01*
X140447943Y-111125204D01*
X140448025Y-111125000D01*
X140455095Y-111107779D01*
X140471958Y-111066899D01*
X140497305Y-111005525D01*
X140529829Y-110926819D01*
X140568222Y-110833947D01*
X140611178Y-110730072D01*
X140652778Y-110629502D01*
X140698496Y-110518516D01*
X140740474Y-110415703D01*
X140777452Y-110324215D01*
X140808173Y-110247201D01*
X140831378Y-110187815D01*
X140845810Y-110149209D01*
X140850257Y-110134800D01*
X140839104Y-110118272D01*
X140809931Y-110091930D01*
X140771029Y-110062887D01*
X140660243Y-109971039D01*
X140573649Y-109865759D01*
X140512284Y-109749266D01*
X140477185Y-109623776D01*
X140469392Y-109491507D01*
X140475057Y-109430457D01*
X140505922Y-109303795D01*
X140559080Y-109191941D01*
X140631233Y-109096001D01*
X140719083Y-109017076D01*
X140819335Y-108956270D01*
X140928690Y-108914687D01*
X141043853Y-108893428D01*
X141161525Y-108893599D01*
X141278410Y-108916301D01*
X141391211Y-108962638D01*
X141496631Y-109033713D01*
X141540632Y-109073911D01*
X141625021Y-109177129D01*
X141683778Y-109289925D01*
X141717296Y-109409010D01*
X141725965Y-109531095D01*
X141710177Y-109652893D01*
X141670322Y-109771116D01*
X141606793Y-109882475D01*
X141519979Y-109983684D01*
X141422971Y-110062887D01*
X141382563Y-110093162D01*
X141354018Y-110119219D01*
X141343743Y-110134825D01*
X141349123Y-110151843D01*
X141364425Y-110192500D01*
X141388388Y-110253642D01*
X141419756Y-110332119D01*
X141457268Y-110424780D01*
X141499667Y-110528472D01*
X141541337Y-110629526D01*
X141587310Y-110740607D01*
X141629893Y-110843541D01*
X141667779Y-110935165D01*
X141699660Y-111012316D01*
X141724229Y-111071831D01*
X141740180Y-111110544D01*
X141746090Y-111125000D01*
X141760052Y-111139685D01*
X141787060Y-111139642D01*
X141830587Y-111124099D01*
X141894110Y-111092284D01*
X141894612Y-111092013D01*
X141942440Y-111067323D01*
X141981103Y-111049338D01*
X142002905Y-111041614D01*
X142003867Y-111041543D01*
X142020279Y-111049378D01*
X142056513Y-111071165D01*
X142108526Y-111104328D01*
X142172275Y-111146291D01*
X142242940Y-111193943D01*
X142314884Y-111242191D01*
X142379726Y-111284151D01*
X142433265Y-111317227D01*
X142471303Y-111338821D01*
X142489467Y-111346343D01*
X142506192Y-111336457D01*
X142539820Y-111308826D01*
X142586990Y-111266495D01*
X142644342Y-111212505D01*
X142708516Y-111149899D01*
X142729503Y-111128983D01*
X142946501Y-110911623D01*
X142781332Y-110669220D01*
X142731136Y-110594781D01*
X142687081Y-110527972D01*
X142651638Y-110472665D01*
X142627281Y-110432729D01*
X142616478Y-110412036D01*
X142616162Y-110410563D01*
X142621857Y-110391058D01*
X142637174Y-110351822D01*
X142659463Y-110299430D01*
X142675107Y-110264355D01*
X142704359Y-110197201D01*
X142731906Y-110129358D01*
X142753263Y-110072034D01*
X142759065Y-110054572D01*
X142775548Y-110007938D01*
X142791660Y-109971905D01*
X142800510Y-109958287D01*
X142820040Y-109949952D01*
X142862666Y-109938137D01*
X142922855Y-109924181D01*
X142995078Y-109909422D01*
X143027400Y-109903355D01*
X143109478Y-109888273D01*
X143188205Y-109873669D01*
X143255891Y-109860980D01*
X143304840Y-109851642D01*
X143314057Y-109849839D01*
X143390257Y-109834799D01*
X143390257Y-109517492D01*
X143390086Y-109413154D01*
X143389384Y-109334213D01*
X143387866Y-109277038D01*
X143385251Y-109237999D01*
X143381254Y-109213465D01*
X143375591Y-109199805D01*
X143367980Y-109193389D01*
X143364857Y-109192199D01*
X143346022Y-109187980D01*
X143304412Y-109179562D01*
X143245370Y-109167961D01*
X143174243Y-109154195D01*
X143096375Y-109139280D01*
X143017113Y-109124232D01*
X142941802Y-109110069D01*
X142875787Y-109097806D01*
X142824413Y-109088461D01*
X142793025Y-109083050D01*
X142786041Y-109082114D01*
X142779715Y-109069596D01*
X142765710Y-109036246D01*
X142746645Y-108988377D01*
X142739366Y-108969629D01*
X142710004Y-108897195D01*
X142675429Y-108817170D01*
X142644463Y-108749728D01*
X142621677Y-108698159D01*
X142606518Y-108655785D01*
X142601458Y-108629834D01*
X142602264Y-108626356D01*
X142612959Y-108609936D01*
X142637380Y-108573417D01*
X142672905Y-108520687D01*
X142716913Y-108455635D01*
X142766783Y-108382151D01*
X142776644Y-108367645D01*
X142834508Y-108281704D01*
X142877044Y-108216261D01*
X142905946Y-108168304D01*
X142922910Y-108134820D01*
X142929633Y-108112795D01*
X142927810Y-108099217D01*
X142927764Y-108099131D01*
X142913414Y-108081297D01*
X142881677Y-108046817D01*
X142835990Y-107999268D01*
X142779796Y-107942222D01*
X142716532Y-107879255D01*
X142709398Y-107872227D01*
X142629670Y-107795020D01*
X142568143Y-107738330D01*
X142523579Y-107701110D01*
X142494743Y-107682315D01*
X142482042Y-107679889D01*
X142463506Y-107690471D01*
X142425039Y-107714916D01*
X142370614Y-107750612D01*
X142304202Y-107794947D01*
X142229775Y-107845311D01*
X142212399Y-107857160D01*
X141965703Y-108025626D01*
X141854294Y-107975062D01*
X141786543Y-107945595D01*
X141713817Y-107915959D01*
X141651297Y-107892330D01*
X141648543Y-107891358D01*
X141599640Y-107873457D01*
X141561943Y-107858320D01*
X141543575Y-107849210D01*
X141543544Y-107849184D01*
X141537715Y-107832717D01*
X141527808Y-107792219D01*
X141514805Y-107732242D01*
X141499691Y-107657340D01*
X141483448Y-107572064D01*
X141482119Y-107564875D01*
X141465825Y-107477014D01*
X141450867Y-107397260D01*
X141438209Y-107330681D01*
X141428814Y-107282347D01*
X141423646Y-107257325D01*
X141423556Y-107256943D01*
X141420411Y-107246299D01*
X141414296Y-107238262D01*
X141401547Y-107232467D01*
X141378500Y-107228547D01*
X141341491Y-107226135D01*
X141286856Y-107224865D01*
X141210933Y-107224371D01*
X141110056Y-107224286D01*
X141097000Y-107224286D01*
X140993090Y-107224348D01*
M02*
