G04 #@! TF.GenerationSoftware,KiCad,Pcbnew,(5.1.4)-1*
G04 #@! TF.CreationDate,2020-05-22T23:55:23+02:00*
G04 #@! TF.ProjectId,S-VHS ZX Spectrum,532d5648-5320-45a5-9820-537065637472,rev?*
G04 #@! TF.SameCoordinates,Original*
G04 #@! TF.FileFunction,Copper,L1,Top*
G04 #@! TF.FilePolarity,Positive*
%FSLAX46Y46*%
G04 Gerber Fmt 4.6, Leading zero omitted, Abs format (unit mm)*
G04 Created by KiCad (PCBNEW (5.1.4)-1) date 2020-05-22 23:55:23*
%MOMM*%
%LPD*%
G04 APERTURE LIST*
%ADD10C,1.500000*%
%ADD11C,3.465000*%
%ADD12R,1.600000X1.600000*%
%ADD13C,1.600000*%
%ADD14O,1.600000X1.600000*%
%ADD15C,5.600000*%
%ADD16C,2.499360*%
%ADD17R,0.900000X1.500000*%
%ADD18O,0.900000X1.500000*%
%ADD19C,0.250000*%
%ADD20C,0.254000*%
G04 APERTURE END LIST*
D10*
X141240000Y-93504000D03*
X148040000Y-93504000D03*
X141240000Y-96004000D03*
X148040000Y-96004000D03*
D11*
X137890000Y-90504000D03*
X144640000Y-89704000D03*
X151390000Y-90504000D03*
D12*
X172720000Y-91313000D03*
D13*
X175220000Y-91313000D03*
X157099000Y-103886000D03*
D14*
X169799000Y-103886000D03*
D15*
X138938000Y-102489000D03*
X176950000Y-102489000D03*
D16*
X146431000Y-102235000D03*
X146431000Y-106426000D03*
X146431000Y-110490000D03*
D17*
X150876000Y-106172000D03*
D18*
X153416000Y-106172000D03*
X152146000Y-106172000D03*
X158750000Y-90932000D03*
X160020000Y-90932000D03*
D17*
X157480000Y-90932000D03*
X164592000Y-90932000D03*
D18*
X167132000Y-90932000D03*
X165862000Y-90932000D03*
D14*
X169799000Y-98552000D03*
D13*
X157099000Y-98552000D03*
D14*
X169799000Y-109220000D03*
D13*
X157099000Y-109220000D03*
D19*
X169799000Y-98552000D02*
X168673700Y-98552000D01*
X158750000Y-90932000D02*
X158750000Y-92007300D01*
X158750000Y-92007300D02*
X162129000Y-92007300D01*
X162129000Y-92007300D02*
X168673700Y-98552000D01*
X169799000Y-103886000D02*
X168673700Y-103886000D01*
X168673700Y-103886000D02*
X160291700Y-95504000D01*
X175553000Y-103886000D02*
X176950000Y-102489000D01*
X169799000Y-103886000D02*
X175553000Y-103886000D01*
X150040000Y-95504000D02*
X148040000Y-93504000D01*
X160291700Y-95504000D02*
X150040000Y-95504000D01*
X138938000Y-95806000D02*
X141240000Y-93504000D01*
X138938000Y-102489000D02*
X138938000Y-95806000D01*
X141490001Y-96253999D02*
X141213204Y-96253999D01*
X153416000Y-105096700D02*
X153416000Y-106172000D01*
X146073299Y-97753999D02*
X153416000Y-105096700D01*
X142989999Y-97753999D02*
X141240000Y-96004000D01*
X146073299Y-97753999D02*
X142989999Y-97753999D01*
X166751000Y-89856700D02*
X166300600Y-89406300D01*
X166751000Y-90932000D02*
X166751000Y-89856700D01*
X166300600Y-89406300D02*
X153798700Y-89406300D01*
X153798700Y-89406300D02*
X152781000Y-88388600D01*
X152781000Y-88388600D02*
X149602600Y-88388600D01*
X149602600Y-88388600D02*
X146685000Y-91306200D01*
X146685000Y-94649000D02*
X148040000Y-96004000D01*
X146685000Y-91306200D02*
X146685000Y-94649000D01*
X152146000Y-106172000D02*
X152146000Y-105096700D01*
X152146000Y-105096700D02*
X149292700Y-105096700D01*
X149292700Y-105096700D02*
X146431000Y-102235000D01*
X164211000Y-90932000D02*
X163435700Y-90932000D01*
X157480000Y-90932000D02*
X157480000Y-89856700D01*
X157480000Y-89856700D02*
X162360400Y-89856700D01*
X162360400Y-89856700D02*
X163435700Y-90932000D01*
D20*
G36*
X152629000Y-85184580D02*
G01*
X152625807Y-85217000D01*
X152638550Y-85346383D01*
X152676290Y-85470793D01*
X152737575Y-85585450D01*
X152820052Y-85685948D01*
X152920550Y-85768425D01*
X153035207Y-85829710D01*
X153159617Y-85867450D01*
X153289000Y-85880193D01*
X153321419Y-85877000D01*
X178918000Y-85877000D01*
X178918001Y-99686069D01*
X178874692Y-99623823D01*
X178278741Y-99303388D01*
X177631727Y-99105374D01*
X176958516Y-99037390D01*
X176284977Y-99102051D01*
X175636994Y-99296870D01*
X175039470Y-99614361D01*
X175025308Y-99623823D01*
X174713124Y-100072519D01*
X176950000Y-102309395D01*
X176964143Y-102295253D01*
X177143748Y-102474858D01*
X177129605Y-102489000D01*
X177143748Y-102503143D01*
X176964143Y-102682748D01*
X176950000Y-102668605D01*
X174713124Y-104905481D01*
X175025308Y-105354177D01*
X175621259Y-105674612D01*
X176268273Y-105872626D01*
X176941484Y-105940610D01*
X177615023Y-105875949D01*
X178263006Y-105681130D01*
X178860530Y-105363639D01*
X178874692Y-105354177D01*
X178918001Y-105291930D01*
X178918001Y-113386000D01*
X137248430Y-113386000D01*
X136935802Y-110304375D01*
X144546320Y-110304375D01*
X144546320Y-110675625D01*
X144618747Y-111039741D01*
X144760818Y-111382731D01*
X144967074Y-111691413D01*
X145229587Y-111953926D01*
X145538269Y-112160182D01*
X145881259Y-112302253D01*
X146245375Y-112374680D01*
X146616625Y-112374680D01*
X146980741Y-112302253D01*
X147323731Y-112160182D01*
X147632413Y-111953926D01*
X147894926Y-111691413D01*
X148101182Y-111382731D01*
X148243253Y-111039741D01*
X148315680Y-110675625D01*
X148315680Y-110304375D01*
X148243253Y-109940259D01*
X148101182Y-109597269D01*
X147894926Y-109288587D01*
X147685004Y-109078665D01*
X155664000Y-109078665D01*
X155664000Y-109361335D01*
X155719147Y-109638574D01*
X155827320Y-109899727D01*
X155984363Y-110134759D01*
X156184241Y-110334637D01*
X156419273Y-110491680D01*
X156680426Y-110599853D01*
X156957665Y-110655000D01*
X157240335Y-110655000D01*
X157517574Y-110599853D01*
X157778727Y-110491680D01*
X158013759Y-110334637D01*
X158213637Y-110134759D01*
X158370680Y-109899727D01*
X158478853Y-109638574D01*
X158492684Y-109569039D01*
X168407096Y-109569039D01*
X168447754Y-109703087D01*
X168567963Y-109957420D01*
X168735481Y-110183414D01*
X168943869Y-110372385D01*
X169185119Y-110517070D01*
X169449960Y-110611909D01*
X169672000Y-110490624D01*
X169672000Y-109347000D01*
X169926000Y-109347000D01*
X169926000Y-110490624D01*
X170148040Y-110611909D01*
X170412881Y-110517070D01*
X170654131Y-110372385D01*
X170862519Y-110183414D01*
X171030037Y-109957420D01*
X171150246Y-109703087D01*
X171190904Y-109569039D01*
X171068915Y-109347000D01*
X169926000Y-109347000D01*
X169672000Y-109347000D01*
X168529085Y-109347000D01*
X168407096Y-109569039D01*
X158492684Y-109569039D01*
X158534000Y-109361335D01*
X158534000Y-109078665D01*
X158492685Y-108870961D01*
X168407096Y-108870961D01*
X168529085Y-109093000D01*
X169672000Y-109093000D01*
X169672000Y-107949376D01*
X169926000Y-107949376D01*
X169926000Y-109093000D01*
X171068915Y-109093000D01*
X171190904Y-108870961D01*
X171150246Y-108736913D01*
X171030037Y-108482580D01*
X170862519Y-108256586D01*
X170654131Y-108067615D01*
X170412881Y-107922930D01*
X170148040Y-107828091D01*
X169926000Y-107949376D01*
X169672000Y-107949376D01*
X169449960Y-107828091D01*
X169185119Y-107922930D01*
X168943869Y-108067615D01*
X168735481Y-108256586D01*
X168567963Y-108482580D01*
X168447754Y-108736913D01*
X168407096Y-108870961D01*
X158492685Y-108870961D01*
X158478853Y-108801426D01*
X158370680Y-108540273D01*
X158213637Y-108305241D01*
X158013759Y-108105363D01*
X157778727Y-107948320D01*
X157517574Y-107840147D01*
X157240335Y-107785000D01*
X156957665Y-107785000D01*
X156680426Y-107840147D01*
X156419273Y-107948320D01*
X156184241Y-108105363D01*
X155984363Y-108305241D01*
X155827320Y-108540273D01*
X155719147Y-108801426D01*
X155664000Y-109078665D01*
X147685004Y-109078665D01*
X147632413Y-109026074D01*
X147323731Y-108819818D01*
X146980741Y-108677747D01*
X146616625Y-108605320D01*
X146245375Y-108605320D01*
X145881259Y-108677747D01*
X145538269Y-108819818D01*
X145229587Y-109026074D01*
X144967074Y-109288587D01*
X144760818Y-109597269D01*
X144618747Y-109940259D01*
X144546320Y-110304375D01*
X136935802Y-110304375D01*
X136560079Y-106600825D01*
X136549478Y-106240375D01*
X144546320Y-106240375D01*
X144546320Y-106611625D01*
X144618747Y-106975741D01*
X144760818Y-107318731D01*
X144967074Y-107627413D01*
X145229587Y-107889926D01*
X145538269Y-108096182D01*
X145881259Y-108238253D01*
X146245375Y-108310680D01*
X146616625Y-108310680D01*
X146980741Y-108238253D01*
X147323731Y-108096182D01*
X147632413Y-107889926D01*
X147894926Y-107627413D01*
X148101182Y-107318731D01*
X148243253Y-106975741D01*
X148315680Y-106611625D01*
X148315680Y-106240375D01*
X148243253Y-105876259D01*
X148101182Y-105533269D01*
X147894926Y-105224587D01*
X147632413Y-104962074D01*
X147323731Y-104755818D01*
X146980741Y-104613747D01*
X146616625Y-104541320D01*
X146245375Y-104541320D01*
X145881259Y-104613747D01*
X145538269Y-104755818D01*
X145229587Y-104962074D01*
X144967074Y-105224587D01*
X144760818Y-105533269D01*
X144618747Y-105876259D01*
X144546320Y-106240375D01*
X136549478Y-106240375D01*
X136511313Y-104942773D01*
X136587574Y-105019034D01*
X136701125Y-104905483D01*
X137013308Y-105354177D01*
X137609259Y-105674612D01*
X138256273Y-105872626D01*
X138929484Y-105940610D01*
X139603023Y-105875949D01*
X140251006Y-105681130D01*
X140848530Y-105363639D01*
X140862692Y-105354177D01*
X141174876Y-104905481D01*
X138938000Y-102668605D01*
X138923858Y-102682748D01*
X138744253Y-102503143D01*
X138758395Y-102489000D01*
X139117605Y-102489000D01*
X141354481Y-104725876D01*
X141803177Y-104413692D01*
X142123612Y-103817741D01*
X142321626Y-103170727D01*
X142389610Y-102497516D01*
X142324949Y-101823977D01*
X142130130Y-101175994D01*
X141812639Y-100578470D01*
X141803177Y-100564308D01*
X141354481Y-100252124D01*
X139117605Y-102489000D01*
X138758395Y-102489000D01*
X136521519Y-100252124D01*
X136423000Y-100320669D01*
X136423000Y-100072519D01*
X136701124Y-100072519D01*
X138938000Y-102309395D01*
X141174876Y-100072519D01*
X140862692Y-99623823D01*
X140266741Y-99303388D01*
X139619727Y-99105374D01*
X138946516Y-99037390D01*
X138272977Y-99102051D01*
X137624994Y-99296870D01*
X137027470Y-99614361D01*
X137013308Y-99623823D01*
X136701124Y-100072519D01*
X136423000Y-100072519D01*
X136423000Y-95867589D01*
X139855000Y-95867589D01*
X139855000Y-96140411D01*
X139908225Y-96407989D01*
X140012629Y-96660043D01*
X140164201Y-96886886D01*
X140357114Y-97079799D01*
X140583957Y-97231371D01*
X140836011Y-97335775D01*
X141103589Y-97389000D01*
X141376411Y-97389000D01*
X141521365Y-97360167D01*
X142426199Y-98265001D01*
X142449998Y-98294000D01*
X142565723Y-98388973D01*
X142697752Y-98459545D01*
X142841013Y-98503002D01*
X142952666Y-98513999D01*
X142952675Y-98513999D01*
X142989998Y-98517675D01*
X143027321Y-98513999D01*
X145758498Y-98513999D01*
X151581198Y-104336700D01*
X149607502Y-104336700D01*
X148188274Y-102917472D01*
X148243253Y-102784741D01*
X148315680Y-102420625D01*
X148315680Y-102049375D01*
X148243253Y-101685259D01*
X148101182Y-101342269D01*
X147894926Y-101033587D01*
X147632413Y-100771074D01*
X147323731Y-100564818D01*
X146980741Y-100422747D01*
X146616625Y-100350320D01*
X146245375Y-100350320D01*
X145881259Y-100422747D01*
X145538269Y-100564818D01*
X145229587Y-100771074D01*
X144967074Y-101033587D01*
X144760818Y-101342269D01*
X144618747Y-101685259D01*
X144546320Y-102049375D01*
X144546320Y-102420625D01*
X144618747Y-102784741D01*
X144760818Y-103127731D01*
X144967074Y-103436413D01*
X145229587Y-103698926D01*
X145538269Y-103905182D01*
X145881259Y-104047253D01*
X146245375Y-104119680D01*
X146616625Y-104119680D01*
X146980741Y-104047253D01*
X147113472Y-103992274D01*
X148728901Y-105607703D01*
X148752699Y-105636701D01*
X148781697Y-105660499D01*
X148868423Y-105731674D01*
X148906353Y-105751948D01*
X149000453Y-105802246D01*
X149143714Y-105845703D01*
X149255367Y-105856700D01*
X149255377Y-105856700D01*
X149292700Y-105860376D01*
X149330023Y-105856700D01*
X149787928Y-105856700D01*
X149787928Y-106922000D01*
X149800188Y-107046482D01*
X149836498Y-107166180D01*
X149895463Y-107276494D01*
X149974815Y-107373185D01*
X150071506Y-107452537D01*
X150181820Y-107511502D01*
X150301518Y-107547812D01*
X150426000Y-107560072D01*
X151326000Y-107560072D01*
X151450482Y-107547812D01*
X151570180Y-107511502D01*
X151679640Y-107452993D01*
X151728780Y-107479259D01*
X151933303Y-107541300D01*
X152146000Y-107562249D01*
X152358696Y-107541300D01*
X152563219Y-107479259D01*
X152751710Y-107378509D01*
X152781000Y-107354471D01*
X152810290Y-107378509D01*
X152998780Y-107479259D01*
X153203303Y-107541300D01*
X153416000Y-107562249D01*
X153628696Y-107541300D01*
X153833219Y-107479259D01*
X154021710Y-107378509D01*
X154186922Y-107242922D01*
X154322509Y-107077710D01*
X154423259Y-106889220D01*
X154485300Y-106684697D01*
X154501000Y-106525294D01*
X154501000Y-105818707D01*
X154485300Y-105659304D01*
X154423259Y-105454781D01*
X154322509Y-105266290D01*
X154186922Y-105101078D01*
X154179508Y-105094993D01*
X154176000Y-105059376D01*
X154176000Y-105059367D01*
X154165003Y-104947714D01*
X154121546Y-104804453D01*
X154050974Y-104672424D01*
X153956001Y-104556699D01*
X153927004Y-104532902D01*
X153138767Y-103744665D01*
X155664000Y-103744665D01*
X155664000Y-104027335D01*
X155719147Y-104304574D01*
X155827320Y-104565727D01*
X155984363Y-104800759D01*
X156184241Y-105000637D01*
X156419273Y-105157680D01*
X156680426Y-105265853D01*
X156957665Y-105321000D01*
X157240335Y-105321000D01*
X157517574Y-105265853D01*
X157778727Y-105157680D01*
X158013759Y-105000637D01*
X158213637Y-104800759D01*
X158370680Y-104565727D01*
X158478853Y-104304574D01*
X158492684Y-104235039D01*
X168407096Y-104235039D01*
X168447754Y-104369087D01*
X168567963Y-104623420D01*
X168735481Y-104849414D01*
X168943869Y-105038385D01*
X169185119Y-105183070D01*
X169449960Y-105277909D01*
X169672000Y-105156624D01*
X169672000Y-104013000D01*
X169926000Y-104013000D01*
X169926000Y-105156624D01*
X170148040Y-105277909D01*
X170412881Y-105183070D01*
X170654131Y-105038385D01*
X170862519Y-104849414D01*
X171030037Y-104623420D01*
X171150246Y-104369087D01*
X171190904Y-104235039D01*
X171068915Y-104013000D01*
X169926000Y-104013000D01*
X169672000Y-104013000D01*
X168529085Y-104013000D01*
X168407096Y-104235039D01*
X158492684Y-104235039D01*
X158534000Y-104027335D01*
X158534000Y-103744665D01*
X158492685Y-103536961D01*
X168407096Y-103536961D01*
X168529085Y-103759000D01*
X169672000Y-103759000D01*
X169672000Y-102615376D01*
X169926000Y-102615376D01*
X169926000Y-103759000D01*
X171068915Y-103759000D01*
X171190904Y-103536961D01*
X171150246Y-103402913D01*
X171030037Y-103148580D01*
X170862519Y-102922586D01*
X170654131Y-102733615D01*
X170412881Y-102588930D01*
X170148040Y-102494091D01*
X169926000Y-102615376D01*
X169672000Y-102615376D01*
X169449960Y-102494091D01*
X169185119Y-102588930D01*
X168943869Y-102733615D01*
X168735481Y-102922586D01*
X168567963Y-103148580D01*
X168447754Y-103402913D01*
X168407096Y-103536961D01*
X158492685Y-103536961D01*
X158478853Y-103467426D01*
X158370680Y-103206273D01*
X158213637Y-102971241D01*
X158013759Y-102771363D01*
X157778727Y-102614320D01*
X157517574Y-102506147D01*
X157388560Y-102480484D01*
X173498390Y-102480484D01*
X173563051Y-103154023D01*
X173757870Y-103802006D01*
X174075361Y-104399530D01*
X174084823Y-104413692D01*
X174533519Y-104725876D01*
X176770395Y-102489000D01*
X174533519Y-100252124D01*
X174084823Y-100564308D01*
X173764388Y-101160259D01*
X173566374Y-101807273D01*
X173498390Y-102480484D01*
X157388560Y-102480484D01*
X157240335Y-102451000D01*
X156957665Y-102451000D01*
X156680426Y-102506147D01*
X156419273Y-102614320D01*
X156184241Y-102771363D01*
X155984363Y-102971241D01*
X155827320Y-103206273D01*
X155719147Y-103467426D01*
X155664000Y-103744665D01*
X153138767Y-103744665D01*
X147804767Y-98410665D01*
X155664000Y-98410665D01*
X155664000Y-98693335D01*
X155719147Y-98970574D01*
X155827320Y-99231727D01*
X155984363Y-99466759D01*
X156184241Y-99666637D01*
X156419273Y-99823680D01*
X156680426Y-99931853D01*
X156957665Y-99987000D01*
X157240335Y-99987000D01*
X157517574Y-99931853D01*
X157778727Y-99823680D01*
X158013759Y-99666637D01*
X158213637Y-99466759D01*
X158370680Y-99231727D01*
X158478853Y-98970574D01*
X158534000Y-98693335D01*
X158534000Y-98410665D01*
X158478853Y-98133426D01*
X158370680Y-97872273D01*
X158213637Y-97637241D01*
X158013759Y-97437363D01*
X157778727Y-97280320D01*
X157517574Y-97172147D01*
X157240335Y-97117000D01*
X156957665Y-97117000D01*
X156680426Y-97172147D01*
X156419273Y-97280320D01*
X156184241Y-97437363D01*
X155984363Y-97637241D01*
X155827320Y-97872273D01*
X155719147Y-98133426D01*
X155664000Y-98410665D01*
X147804767Y-98410665D01*
X146637103Y-97243002D01*
X146613300Y-97213998D01*
X146497575Y-97119025D01*
X146365546Y-97048453D01*
X146222285Y-97004996D01*
X146110632Y-96993999D01*
X146110621Y-96993999D01*
X146073299Y-96990323D01*
X146035977Y-96993999D01*
X143304801Y-96993999D01*
X142596167Y-96285365D01*
X142625000Y-96140411D01*
X142625000Y-95867589D01*
X142571775Y-95600011D01*
X142467371Y-95347957D01*
X142315799Y-95121114D01*
X142122886Y-94928201D01*
X141896043Y-94776629D01*
X141846574Y-94756139D01*
X141951863Y-94699860D01*
X142017388Y-94460993D01*
X141240000Y-93683605D01*
X140462612Y-94460993D01*
X140528137Y-94699860D01*
X140641201Y-94752918D01*
X140583957Y-94776629D01*
X140357114Y-94928201D01*
X140164201Y-95121114D01*
X140012629Y-95347957D01*
X139908225Y-95600011D01*
X139855000Y-95867589D01*
X136423000Y-95867589D01*
X136423000Y-93576492D01*
X139850188Y-93576492D01*
X139891035Y-93846238D01*
X139983723Y-94102832D01*
X140044140Y-94215863D01*
X140283007Y-94281388D01*
X141060395Y-93504000D01*
X141419605Y-93504000D01*
X142196993Y-94281388D01*
X142435860Y-94215863D01*
X142551760Y-93968884D01*
X142617250Y-93704040D01*
X142629812Y-93431508D01*
X142588965Y-93161762D01*
X142496277Y-92905168D01*
X142435860Y-92792137D01*
X142196993Y-92726612D01*
X141419605Y-93504000D01*
X141060395Y-93504000D01*
X140283007Y-92726612D01*
X140044140Y-92792137D01*
X139928240Y-93039116D01*
X139862750Y-93303960D01*
X139850188Y-93576492D01*
X136423000Y-93576492D01*
X136423000Y-92371150D01*
X136768568Y-92602051D01*
X137199426Y-92780518D01*
X137656822Y-92871500D01*
X138123178Y-92871500D01*
X138580574Y-92780518D01*
X139011432Y-92602051D01*
X139093811Y-92547007D01*
X140462612Y-92547007D01*
X141240000Y-93324395D01*
X142017388Y-92547007D01*
X141951863Y-92308140D01*
X141704884Y-92192240D01*
X141440040Y-92126750D01*
X141167508Y-92114188D01*
X140897762Y-92155035D01*
X140641168Y-92247723D01*
X140528137Y-92308140D01*
X140462612Y-92547007D01*
X139093811Y-92547007D01*
X139399193Y-92342957D01*
X139728957Y-92013193D01*
X139988051Y-91625432D01*
X140166518Y-91194574D01*
X140257500Y-90737178D01*
X140257500Y-90270822D01*
X140166518Y-89813426D01*
X140024607Y-89470822D01*
X142272500Y-89470822D01*
X142272500Y-89937178D01*
X142363482Y-90394574D01*
X142541949Y-90825432D01*
X142801043Y-91213193D01*
X143130807Y-91542957D01*
X143518568Y-91802051D01*
X143949426Y-91980518D01*
X144406822Y-92071500D01*
X144873178Y-92071500D01*
X145330574Y-91980518D01*
X145761432Y-91802051D01*
X145925000Y-91692758D01*
X145925001Y-94611668D01*
X145921324Y-94649000D01*
X145925001Y-94686333D01*
X145933895Y-94776629D01*
X145935998Y-94797985D01*
X145979454Y-94941246D01*
X146050026Y-95073276D01*
X146121201Y-95160002D01*
X146145000Y-95189001D01*
X146173998Y-95212799D01*
X146683833Y-95722635D01*
X146655000Y-95867589D01*
X146655000Y-96140411D01*
X146708225Y-96407989D01*
X146812629Y-96660043D01*
X146964201Y-96886886D01*
X147157114Y-97079799D01*
X147383957Y-97231371D01*
X147636011Y-97335775D01*
X147903589Y-97389000D01*
X148176411Y-97389000D01*
X148443989Y-97335775D01*
X148696043Y-97231371D01*
X148922886Y-97079799D01*
X149115799Y-96886886D01*
X149267371Y-96660043D01*
X149371775Y-96407989D01*
X149425000Y-96140411D01*
X149425000Y-95867589D01*
X149371775Y-95600011D01*
X149267371Y-95347957D01*
X149115799Y-95121114D01*
X148922886Y-94928201D01*
X148696043Y-94776629D01*
X148646574Y-94756139D01*
X148751863Y-94699860D01*
X148817388Y-94460993D01*
X148040000Y-93683605D01*
X148025858Y-93697748D01*
X147846253Y-93518143D01*
X147860395Y-93504000D01*
X148219605Y-93504000D01*
X148996993Y-94281388D01*
X149235860Y-94215863D01*
X149351760Y-93968884D01*
X149417250Y-93704040D01*
X149429812Y-93431508D01*
X149388965Y-93161762D01*
X149296277Y-92905168D01*
X149235860Y-92792137D01*
X148996993Y-92726612D01*
X148219605Y-93504000D01*
X147860395Y-93504000D01*
X147846253Y-93489858D01*
X148025858Y-93310253D01*
X148040000Y-93324395D01*
X148817388Y-92547007D01*
X148751863Y-92308140D01*
X148504884Y-92192240D01*
X148240040Y-92126750D01*
X147967508Y-92114188D01*
X147697762Y-92155035D01*
X147445000Y-92246339D01*
X147445000Y-91621001D01*
X149078944Y-89987058D01*
X149022500Y-90270822D01*
X149022500Y-90737178D01*
X149113482Y-91194574D01*
X149291949Y-91625432D01*
X149551043Y-92013193D01*
X149880807Y-92342957D01*
X150268568Y-92602051D01*
X150699426Y-92780518D01*
X151156822Y-92871500D01*
X151623178Y-92871500D01*
X152080574Y-92780518D01*
X152511432Y-92602051D01*
X152899193Y-92342957D01*
X153228957Y-92013193D01*
X153488051Y-91625432D01*
X153666518Y-91194574D01*
X153757500Y-90737178D01*
X153757500Y-90270822D01*
X153736216Y-90163823D01*
X153761367Y-90166300D01*
X153761376Y-90166300D01*
X153798699Y-90169976D01*
X153836022Y-90166300D01*
X156393474Y-90166300D01*
X156391928Y-90182000D01*
X156391928Y-91682000D01*
X156404188Y-91806482D01*
X156440498Y-91926180D01*
X156499463Y-92036494D01*
X156578815Y-92133185D01*
X156675506Y-92212537D01*
X156785820Y-92271502D01*
X156905518Y-92307812D01*
X157030000Y-92320072D01*
X157930000Y-92320072D01*
X158049152Y-92308337D01*
X158115026Y-92431576D01*
X158209999Y-92547301D01*
X158325724Y-92642274D01*
X158457753Y-92712846D01*
X158601014Y-92756303D01*
X158712667Y-92767300D01*
X158750000Y-92770977D01*
X158787333Y-92767300D01*
X161814199Y-92767300D01*
X168109901Y-99063003D01*
X168133699Y-99092001D01*
X168162697Y-99115799D01*
X168249424Y-99186974D01*
X168381453Y-99257546D01*
X168524714Y-99301003D01*
X168574861Y-99305942D01*
X168600068Y-99353101D01*
X168779392Y-99571608D01*
X168997899Y-99750932D01*
X169247192Y-99884182D01*
X169517691Y-99966236D01*
X169728508Y-99987000D01*
X169869492Y-99987000D01*
X170080309Y-99966236D01*
X170350808Y-99884182D01*
X170600101Y-99750932D01*
X170818608Y-99571608D01*
X170997932Y-99353101D01*
X171131182Y-99103808D01*
X171213236Y-98833309D01*
X171240943Y-98552000D01*
X171213236Y-98270691D01*
X171131182Y-98000192D01*
X170997932Y-97750899D01*
X170818608Y-97532392D01*
X170600101Y-97353068D01*
X170350808Y-97219818D01*
X170080309Y-97137764D01*
X169869492Y-97117000D01*
X169728508Y-97117000D01*
X169517691Y-97137764D01*
X169247192Y-97219818D01*
X168997899Y-97353068D01*
X168779392Y-97532392D01*
X168756630Y-97560128D01*
X162692804Y-91496303D01*
X162669001Y-91467299D01*
X162553276Y-91372326D01*
X162421247Y-91301754D01*
X162277986Y-91258297D01*
X162166333Y-91247300D01*
X162166322Y-91247300D01*
X162129000Y-91243624D01*
X162091678Y-91247300D01*
X161105000Y-91247300D01*
X161105000Y-90616700D01*
X162045599Y-90616700D01*
X162871901Y-91443003D01*
X162895699Y-91472001D01*
X163011424Y-91566974D01*
X163143453Y-91637546D01*
X163286714Y-91681003D01*
X163398367Y-91692000D01*
X163398377Y-91692000D01*
X163435700Y-91695676D01*
X163473023Y-91692000D01*
X163504913Y-91692000D01*
X163516188Y-91806482D01*
X163552498Y-91926180D01*
X163611463Y-92036494D01*
X163690815Y-92133185D01*
X163787506Y-92212537D01*
X163897820Y-92271502D01*
X164017518Y-92307812D01*
X164142000Y-92320072D01*
X165042000Y-92320072D01*
X165166482Y-92307812D01*
X165286180Y-92271502D01*
X165395640Y-92212993D01*
X165444780Y-92239259D01*
X165649303Y-92301300D01*
X165862000Y-92322249D01*
X166074696Y-92301300D01*
X166279219Y-92239259D01*
X166467710Y-92138509D01*
X166497000Y-92114471D01*
X166526290Y-92138509D01*
X166714780Y-92239259D01*
X166919303Y-92301300D01*
X167132000Y-92322249D01*
X167344696Y-92301300D01*
X167549219Y-92239259D01*
X167737710Y-92138509D01*
X167902922Y-92002922D01*
X168038509Y-91837710D01*
X168139259Y-91649220D01*
X168201300Y-91444697D01*
X168217000Y-91285294D01*
X168217000Y-90578707D01*
X168210529Y-90513000D01*
X171281928Y-90513000D01*
X171281928Y-92113000D01*
X171294188Y-92237482D01*
X171330498Y-92357180D01*
X171389463Y-92467494D01*
X171468815Y-92564185D01*
X171565506Y-92643537D01*
X171675820Y-92702502D01*
X171795518Y-92738812D01*
X171920000Y-92751072D01*
X173520000Y-92751072D01*
X173644482Y-92738812D01*
X173764180Y-92702502D01*
X173874494Y-92643537D01*
X173971185Y-92564185D01*
X174050537Y-92467494D01*
X174109502Y-92357180D01*
X174138661Y-92261057D01*
X174305241Y-92427637D01*
X174540273Y-92584680D01*
X174801426Y-92692853D01*
X175078665Y-92748000D01*
X175361335Y-92748000D01*
X175638574Y-92692853D01*
X175899727Y-92584680D01*
X176134759Y-92427637D01*
X176334637Y-92227759D01*
X176491680Y-91992727D01*
X176599853Y-91731574D01*
X176655000Y-91454335D01*
X176655000Y-91171665D01*
X176599853Y-90894426D01*
X176491680Y-90633273D01*
X176334637Y-90398241D01*
X176134759Y-90198363D01*
X175899727Y-90041320D01*
X175638574Y-89933147D01*
X175361335Y-89878000D01*
X175078665Y-89878000D01*
X174801426Y-89933147D01*
X174540273Y-90041320D01*
X174305241Y-90198363D01*
X174138661Y-90364943D01*
X174109502Y-90268820D01*
X174050537Y-90158506D01*
X173971185Y-90061815D01*
X173874494Y-89982463D01*
X173764180Y-89923498D01*
X173644482Y-89887188D01*
X173520000Y-89874928D01*
X171920000Y-89874928D01*
X171795518Y-89887188D01*
X171675820Y-89923498D01*
X171565506Y-89982463D01*
X171468815Y-90061815D01*
X171389463Y-90158506D01*
X171330498Y-90268820D01*
X171294188Y-90388518D01*
X171281928Y-90513000D01*
X168210529Y-90513000D01*
X168201300Y-90419304D01*
X168139259Y-90214781D01*
X168038509Y-90026290D01*
X167902922Y-89861078D01*
X167737710Y-89725491D01*
X167549220Y-89624741D01*
X167467295Y-89599890D01*
X167456546Y-89564453D01*
X167385974Y-89432424D01*
X167291001Y-89316699D01*
X167261997Y-89292896D01*
X166864404Y-88895303D01*
X166840601Y-88866299D01*
X166724876Y-88771326D01*
X166592847Y-88700754D01*
X166449586Y-88657297D01*
X166337933Y-88646300D01*
X166337922Y-88646300D01*
X166300600Y-88642624D01*
X166263278Y-88646300D01*
X154113502Y-88646300D01*
X153344804Y-87877602D01*
X153321001Y-87848599D01*
X153205276Y-87753626D01*
X153073247Y-87683054D01*
X152929986Y-87639597D01*
X152818333Y-87628600D01*
X152818322Y-87628600D01*
X152781000Y-87624924D01*
X152743678Y-87628600D01*
X149639922Y-87628600D01*
X149602599Y-87624924D01*
X149565276Y-87628600D01*
X149565267Y-87628600D01*
X149453614Y-87639597D01*
X149310353Y-87683054D01*
X149178324Y-87753626D01*
X149178322Y-87753627D01*
X149178323Y-87753627D01*
X149091596Y-87824801D01*
X149091592Y-87824805D01*
X149062599Y-87848599D01*
X149038805Y-87877592D01*
X147007500Y-89908898D01*
X147007500Y-89470822D01*
X146916518Y-89013426D01*
X146738051Y-88582568D01*
X146478957Y-88194807D01*
X146149193Y-87865043D01*
X145761432Y-87605949D01*
X145330574Y-87427482D01*
X144873178Y-87336500D01*
X144406822Y-87336500D01*
X143949426Y-87427482D01*
X143518568Y-87605949D01*
X143130807Y-87865043D01*
X142801043Y-88194807D01*
X142541949Y-88582568D01*
X142363482Y-89013426D01*
X142272500Y-89470822D01*
X140024607Y-89470822D01*
X139988051Y-89382568D01*
X139728957Y-88994807D01*
X139399193Y-88665043D01*
X139011432Y-88405949D01*
X138580574Y-88227482D01*
X138123178Y-88136500D01*
X137656822Y-88136500D01*
X137199426Y-88227482D01*
X136768568Y-88405949D01*
X136423000Y-88636850D01*
X136423000Y-84480000D01*
X152629001Y-84480000D01*
X152629000Y-85184580D01*
X152629000Y-85184580D01*
G37*
X152629000Y-85184580D02*
X152625807Y-85217000D01*
X152638550Y-85346383D01*
X152676290Y-85470793D01*
X152737575Y-85585450D01*
X152820052Y-85685948D01*
X152920550Y-85768425D01*
X153035207Y-85829710D01*
X153159617Y-85867450D01*
X153289000Y-85880193D01*
X153321419Y-85877000D01*
X178918000Y-85877000D01*
X178918001Y-99686069D01*
X178874692Y-99623823D01*
X178278741Y-99303388D01*
X177631727Y-99105374D01*
X176958516Y-99037390D01*
X176284977Y-99102051D01*
X175636994Y-99296870D01*
X175039470Y-99614361D01*
X175025308Y-99623823D01*
X174713124Y-100072519D01*
X176950000Y-102309395D01*
X176964143Y-102295253D01*
X177143748Y-102474858D01*
X177129605Y-102489000D01*
X177143748Y-102503143D01*
X176964143Y-102682748D01*
X176950000Y-102668605D01*
X174713124Y-104905481D01*
X175025308Y-105354177D01*
X175621259Y-105674612D01*
X176268273Y-105872626D01*
X176941484Y-105940610D01*
X177615023Y-105875949D01*
X178263006Y-105681130D01*
X178860530Y-105363639D01*
X178874692Y-105354177D01*
X178918001Y-105291930D01*
X178918001Y-113386000D01*
X137248430Y-113386000D01*
X136935802Y-110304375D01*
X144546320Y-110304375D01*
X144546320Y-110675625D01*
X144618747Y-111039741D01*
X144760818Y-111382731D01*
X144967074Y-111691413D01*
X145229587Y-111953926D01*
X145538269Y-112160182D01*
X145881259Y-112302253D01*
X146245375Y-112374680D01*
X146616625Y-112374680D01*
X146980741Y-112302253D01*
X147323731Y-112160182D01*
X147632413Y-111953926D01*
X147894926Y-111691413D01*
X148101182Y-111382731D01*
X148243253Y-111039741D01*
X148315680Y-110675625D01*
X148315680Y-110304375D01*
X148243253Y-109940259D01*
X148101182Y-109597269D01*
X147894926Y-109288587D01*
X147685004Y-109078665D01*
X155664000Y-109078665D01*
X155664000Y-109361335D01*
X155719147Y-109638574D01*
X155827320Y-109899727D01*
X155984363Y-110134759D01*
X156184241Y-110334637D01*
X156419273Y-110491680D01*
X156680426Y-110599853D01*
X156957665Y-110655000D01*
X157240335Y-110655000D01*
X157517574Y-110599853D01*
X157778727Y-110491680D01*
X158013759Y-110334637D01*
X158213637Y-110134759D01*
X158370680Y-109899727D01*
X158478853Y-109638574D01*
X158492684Y-109569039D01*
X168407096Y-109569039D01*
X168447754Y-109703087D01*
X168567963Y-109957420D01*
X168735481Y-110183414D01*
X168943869Y-110372385D01*
X169185119Y-110517070D01*
X169449960Y-110611909D01*
X169672000Y-110490624D01*
X169672000Y-109347000D01*
X169926000Y-109347000D01*
X169926000Y-110490624D01*
X170148040Y-110611909D01*
X170412881Y-110517070D01*
X170654131Y-110372385D01*
X170862519Y-110183414D01*
X171030037Y-109957420D01*
X171150246Y-109703087D01*
X171190904Y-109569039D01*
X171068915Y-109347000D01*
X169926000Y-109347000D01*
X169672000Y-109347000D01*
X168529085Y-109347000D01*
X168407096Y-109569039D01*
X158492684Y-109569039D01*
X158534000Y-109361335D01*
X158534000Y-109078665D01*
X158492685Y-108870961D01*
X168407096Y-108870961D01*
X168529085Y-109093000D01*
X169672000Y-109093000D01*
X169672000Y-107949376D01*
X169926000Y-107949376D01*
X169926000Y-109093000D01*
X171068915Y-109093000D01*
X171190904Y-108870961D01*
X171150246Y-108736913D01*
X171030037Y-108482580D01*
X170862519Y-108256586D01*
X170654131Y-108067615D01*
X170412881Y-107922930D01*
X170148040Y-107828091D01*
X169926000Y-107949376D01*
X169672000Y-107949376D01*
X169449960Y-107828091D01*
X169185119Y-107922930D01*
X168943869Y-108067615D01*
X168735481Y-108256586D01*
X168567963Y-108482580D01*
X168447754Y-108736913D01*
X168407096Y-108870961D01*
X158492685Y-108870961D01*
X158478853Y-108801426D01*
X158370680Y-108540273D01*
X158213637Y-108305241D01*
X158013759Y-108105363D01*
X157778727Y-107948320D01*
X157517574Y-107840147D01*
X157240335Y-107785000D01*
X156957665Y-107785000D01*
X156680426Y-107840147D01*
X156419273Y-107948320D01*
X156184241Y-108105363D01*
X155984363Y-108305241D01*
X155827320Y-108540273D01*
X155719147Y-108801426D01*
X155664000Y-109078665D01*
X147685004Y-109078665D01*
X147632413Y-109026074D01*
X147323731Y-108819818D01*
X146980741Y-108677747D01*
X146616625Y-108605320D01*
X146245375Y-108605320D01*
X145881259Y-108677747D01*
X145538269Y-108819818D01*
X145229587Y-109026074D01*
X144967074Y-109288587D01*
X144760818Y-109597269D01*
X144618747Y-109940259D01*
X144546320Y-110304375D01*
X136935802Y-110304375D01*
X136560079Y-106600825D01*
X136549478Y-106240375D01*
X144546320Y-106240375D01*
X144546320Y-106611625D01*
X144618747Y-106975741D01*
X144760818Y-107318731D01*
X144967074Y-107627413D01*
X145229587Y-107889926D01*
X145538269Y-108096182D01*
X145881259Y-108238253D01*
X146245375Y-108310680D01*
X146616625Y-108310680D01*
X146980741Y-108238253D01*
X147323731Y-108096182D01*
X147632413Y-107889926D01*
X147894926Y-107627413D01*
X148101182Y-107318731D01*
X148243253Y-106975741D01*
X148315680Y-106611625D01*
X148315680Y-106240375D01*
X148243253Y-105876259D01*
X148101182Y-105533269D01*
X147894926Y-105224587D01*
X147632413Y-104962074D01*
X147323731Y-104755818D01*
X146980741Y-104613747D01*
X146616625Y-104541320D01*
X146245375Y-104541320D01*
X145881259Y-104613747D01*
X145538269Y-104755818D01*
X145229587Y-104962074D01*
X144967074Y-105224587D01*
X144760818Y-105533269D01*
X144618747Y-105876259D01*
X144546320Y-106240375D01*
X136549478Y-106240375D01*
X136511313Y-104942773D01*
X136587574Y-105019034D01*
X136701125Y-104905483D01*
X137013308Y-105354177D01*
X137609259Y-105674612D01*
X138256273Y-105872626D01*
X138929484Y-105940610D01*
X139603023Y-105875949D01*
X140251006Y-105681130D01*
X140848530Y-105363639D01*
X140862692Y-105354177D01*
X141174876Y-104905481D01*
X138938000Y-102668605D01*
X138923858Y-102682748D01*
X138744253Y-102503143D01*
X138758395Y-102489000D01*
X139117605Y-102489000D01*
X141354481Y-104725876D01*
X141803177Y-104413692D01*
X142123612Y-103817741D01*
X142321626Y-103170727D01*
X142389610Y-102497516D01*
X142324949Y-101823977D01*
X142130130Y-101175994D01*
X141812639Y-100578470D01*
X141803177Y-100564308D01*
X141354481Y-100252124D01*
X139117605Y-102489000D01*
X138758395Y-102489000D01*
X136521519Y-100252124D01*
X136423000Y-100320669D01*
X136423000Y-100072519D01*
X136701124Y-100072519D01*
X138938000Y-102309395D01*
X141174876Y-100072519D01*
X140862692Y-99623823D01*
X140266741Y-99303388D01*
X139619727Y-99105374D01*
X138946516Y-99037390D01*
X138272977Y-99102051D01*
X137624994Y-99296870D01*
X137027470Y-99614361D01*
X137013308Y-99623823D01*
X136701124Y-100072519D01*
X136423000Y-100072519D01*
X136423000Y-95867589D01*
X139855000Y-95867589D01*
X139855000Y-96140411D01*
X139908225Y-96407989D01*
X140012629Y-96660043D01*
X140164201Y-96886886D01*
X140357114Y-97079799D01*
X140583957Y-97231371D01*
X140836011Y-97335775D01*
X141103589Y-97389000D01*
X141376411Y-97389000D01*
X141521365Y-97360167D01*
X142426199Y-98265001D01*
X142449998Y-98294000D01*
X142565723Y-98388973D01*
X142697752Y-98459545D01*
X142841013Y-98503002D01*
X142952666Y-98513999D01*
X142952675Y-98513999D01*
X142989998Y-98517675D01*
X143027321Y-98513999D01*
X145758498Y-98513999D01*
X151581198Y-104336700D01*
X149607502Y-104336700D01*
X148188274Y-102917472D01*
X148243253Y-102784741D01*
X148315680Y-102420625D01*
X148315680Y-102049375D01*
X148243253Y-101685259D01*
X148101182Y-101342269D01*
X147894926Y-101033587D01*
X147632413Y-100771074D01*
X147323731Y-100564818D01*
X146980741Y-100422747D01*
X146616625Y-100350320D01*
X146245375Y-100350320D01*
X145881259Y-100422747D01*
X145538269Y-100564818D01*
X145229587Y-100771074D01*
X144967074Y-101033587D01*
X144760818Y-101342269D01*
X144618747Y-101685259D01*
X144546320Y-102049375D01*
X144546320Y-102420625D01*
X144618747Y-102784741D01*
X144760818Y-103127731D01*
X144967074Y-103436413D01*
X145229587Y-103698926D01*
X145538269Y-103905182D01*
X145881259Y-104047253D01*
X146245375Y-104119680D01*
X146616625Y-104119680D01*
X146980741Y-104047253D01*
X147113472Y-103992274D01*
X148728901Y-105607703D01*
X148752699Y-105636701D01*
X148781697Y-105660499D01*
X148868423Y-105731674D01*
X148906353Y-105751948D01*
X149000453Y-105802246D01*
X149143714Y-105845703D01*
X149255367Y-105856700D01*
X149255377Y-105856700D01*
X149292700Y-105860376D01*
X149330023Y-105856700D01*
X149787928Y-105856700D01*
X149787928Y-106922000D01*
X149800188Y-107046482D01*
X149836498Y-107166180D01*
X149895463Y-107276494D01*
X149974815Y-107373185D01*
X150071506Y-107452537D01*
X150181820Y-107511502D01*
X150301518Y-107547812D01*
X150426000Y-107560072D01*
X151326000Y-107560072D01*
X151450482Y-107547812D01*
X151570180Y-107511502D01*
X151679640Y-107452993D01*
X151728780Y-107479259D01*
X151933303Y-107541300D01*
X152146000Y-107562249D01*
X152358696Y-107541300D01*
X152563219Y-107479259D01*
X152751710Y-107378509D01*
X152781000Y-107354471D01*
X152810290Y-107378509D01*
X152998780Y-107479259D01*
X153203303Y-107541300D01*
X153416000Y-107562249D01*
X153628696Y-107541300D01*
X153833219Y-107479259D01*
X154021710Y-107378509D01*
X154186922Y-107242922D01*
X154322509Y-107077710D01*
X154423259Y-106889220D01*
X154485300Y-106684697D01*
X154501000Y-106525294D01*
X154501000Y-105818707D01*
X154485300Y-105659304D01*
X154423259Y-105454781D01*
X154322509Y-105266290D01*
X154186922Y-105101078D01*
X154179508Y-105094993D01*
X154176000Y-105059376D01*
X154176000Y-105059367D01*
X154165003Y-104947714D01*
X154121546Y-104804453D01*
X154050974Y-104672424D01*
X153956001Y-104556699D01*
X153927004Y-104532902D01*
X153138767Y-103744665D01*
X155664000Y-103744665D01*
X155664000Y-104027335D01*
X155719147Y-104304574D01*
X155827320Y-104565727D01*
X155984363Y-104800759D01*
X156184241Y-105000637D01*
X156419273Y-105157680D01*
X156680426Y-105265853D01*
X156957665Y-105321000D01*
X157240335Y-105321000D01*
X157517574Y-105265853D01*
X157778727Y-105157680D01*
X158013759Y-105000637D01*
X158213637Y-104800759D01*
X158370680Y-104565727D01*
X158478853Y-104304574D01*
X158492684Y-104235039D01*
X168407096Y-104235039D01*
X168447754Y-104369087D01*
X168567963Y-104623420D01*
X168735481Y-104849414D01*
X168943869Y-105038385D01*
X169185119Y-105183070D01*
X169449960Y-105277909D01*
X169672000Y-105156624D01*
X169672000Y-104013000D01*
X169926000Y-104013000D01*
X169926000Y-105156624D01*
X170148040Y-105277909D01*
X170412881Y-105183070D01*
X170654131Y-105038385D01*
X170862519Y-104849414D01*
X171030037Y-104623420D01*
X171150246Y-104369087D01*
X171190904Y-104235039D01*
X171068915Y-104013000D01*
X169926000Y-104013000D01*
X169672000Y-104013000D01*
X168529085Y-104013000D01*
X168407096Y-104235039D01*
X158492684Y-104235039D01*
X158534000Y-104027335D01*
X158534000Y-103744665D01*
X158492685Y-103536961D01*
X168407096Y-103536961D01*
X168529085Y-103759000D01*
X169672000Y-103759000D01*
X169672000Y-102615376D01*
X169926000Y-102615376D01*
X169926000Y-103759000D01*
X171068915Y-103759000D01*
X171190904Y-103536961D01*
X171150246Y-103402913D01*
X171030037Y-103148580D01*
X170862519Y-102922586D01*
X170654131Y-102733615D01*
X170412881Y-102588930D01*
X170148040Y-102494091D01*
X169926000Y-102615376D01*
X169672000Y-102615376D01*
X169449960Y-102494091D01*
X169185119Y-102588930D01*
X168943869Y-102733615D01*
X168735481Y-102922586D01*
X168567963Y-103148580D01*
X168447754Y-103402913D01*
X168407096Y-103536961D01*
X158492685Y-103536961D01*
X158478853Y-103467426D01*
X158370680Y-103206273D01*
X158213637Y-102971241D01*
X158013759Y-102771363D01*
X157778727Y-102614320D01*
X157517574Y-102506147D01*
X157388560Y-102480484D01*
X173498390Y-102480484D01*
X173563051Y-103154023D01*
X173757870Y-103802006D01*
X174075361Y-104399530D01*
X174084823Y-104413692D01*
X174533519Y-104725876D01*
X176770395Y-102489000D01*
X174533519Y-100252124D01*
X174084823Y-100564308D01*
X173764388Y-101160259D01*
X173566374Y-101807273D01*
X173498390Y-102480484D01*
X157388560Y-102480484D01*
X157240335Y-102451000D01*
X156957665Y-102451000D01*
X156680426Y-102506147D01*
X156419273Y-102614320D01*
X156184241Y-102771363D01*
X155984363Y-102971241D01*
X155827320Y-103206273D01*
X155719147Y-103467426D01*
X155664000Y-103744665D01*
X153138767Y-103744665D01*
X147804767Y-98410665D01*
X155664000Y-98410665D01*
X155664000Y-98693335D01*
X155719147Y-98970574D01*
X155827320Y-99231727D01*
X155984363Y-99466759D01*
X156184241Y-99666637D01*
X156419273Y-99823680D01*
X156680426Y-99931853D01*
X156957665Y-99987000D01*
X157240335Y-99987000D01*
X157517574Y-99931853D01*
X157778727Y-99823680D01*
X158013759Y-99666637D01*
X158213637Y-99466759D01*
X158370680Y-99231727D01*
X158478853Y-98970574D01*
X158534000Y-98693335D01*
X158534000Y-98410665D01*
X158478853Y-98133426D01*
X158370680Y-97872273D01*
X158213637Y-97637241D01*
X158013759Y-97437363D01*
X157778727Y-97280320D01*
X157517574Y-97172147D01*
X157240335Y-97117000D01*
X156957665Y-97117000D01*
X156680426Y-97172147D01*
X156419273Y-97280320D01*
X156184241Y-97437363D01*
X155984363Y-97637241D01*
X155827320Y-97872273D01*
X155719147Y-98133426D01*
X155664000Y-98410665D01*
X147804767Y-98410665D01*
X146637103Y-97243002D01*
X146613300Y-97213998D01*
X146497575Y-97119025D01*
X146365546Y-97048453D01*
X146222285Y-97004996D01*
X146110632Y-96993999D01*
X146110621Y-96993999D01*
X146073299Y-96990323D01*
X146035977Y-96993999D01*
X143304801Y-96993999D01*
X142596167Y-96285365D01*
X142625000Y-96140411D01*
X142625000Y-95867589D01*
X142571775Y-95600011D01*
X142467371Y-95347957D01*
X142315799Y-95121114D01*
X142122886Y-94928201D01*
X141896043Y-94776629D01*
X141846574Y-94756139D01*
X141951863Y-94699860D01*
X142017388Y-94460993D01*
X141240000Y-93683605D01*
X140462612Y-94460993D01*
X140528137Y-94699860D01*
X140641201Y-94752918D01*
X140583957Y-94776629D01*
X140357114Y-94928201D01*
X140164201Y-95121114D01*
X140012629Y-95347957D01*
X139908225Y-95600011D01*
X139855000Y-95867589D01*
X136423000Y-95867589D01*
X136423000Y-93576492D01*
X139850188Y-93576492D01*
X139891035Y-93846238D01*
X139983723Y-94102832D01*
X140044140Y-94215863D01*
X140283007Y-94281388D01*
X141060395Y-93504000D01*
X141419605Y-93504000D01*
X142196993Y-94281388D01*
X142435860Y-94215863D01*
X142551760Y-93968884D01*
X142617250Y-93704040D01*
X142629812Y-93431508D01*
X142588965Y-93161762D01*
X142496277Y-92905168D01*
X142435860Y-92792137D01*
X142196993Y-92726612D01*
X141419605Y-93504000D01*
X141060395Y-93504000D01*
X140283007Y-92726612D01*
X140044140Y-92792137D01*
X139928240Y-93039116D01*
X139862750Y-93303960D01*
X139850188Y-93576492D01*
X136423000Y-93576492D01*
X136423000Y-92371150D01*
X136768568Y-92602051D01*
X137199426Y-92780518D01*
X137656822Y-92871500D01*
X138123178Y-92871500D01*
X138580574Y-92780518D01*
X139011432Y-92602051D01*
X139093811Y-92547007D01*
X140462612Y-92547007D01*
X141240000Y-93324395D01*
X142017388Y-92547007D01*
X141951863Y-92308140D01*
X141704884Y-92192240D01*
X141440040Y-92126750D01*
X141167508Y-92114188D01*
X140897762Y-92155035D01*
X140641168Y-92247723D01*
X140528137Y-92308140D01*
X140462612Y-92547007D01*
X139093811Y-92547007D01*
X139399193Y-92342957D01*
X139728957Y-92013193D01*
X139988051Y-91625432D01*
X140166518Y-91194574D01*
X140257500Y-90737178D01*
X140257500Y-90270822D01*
X140166518Y-89813426D01*
X140024607Y-89470822D01*
X142272500Y-89470822D01*
X142272500Y-89937178D01*
X142363482Y-90394574D01*
X142541949Y-90825432D01*
X142801043Y-91213193D01*
X143130807Y-91542957D01*
X143518568Y-91802051D01*
X143949426Y-91980518D01*
X144406822Y-92071500D01*
X144873178Y-92071500D01*
X145330574Y-91980518D01*
X145761432Y-91802051D01*
X145925000Y-91692758D01*
X145925001Y-94611668D01*
X145921324Y-94649000D01*
X145925001Y-94686333D01*
X145933895Y-94776629D01*
X145935998Y-94797985D01*
X145979454Y-94941246D01*
X146050026Y-95073276D01*
X146121201Y-95160002D01*
X146145000Y-95189001D01*
X146173998Y-95212799D01*
X146683833Y-95722635D01*
X146655000Y-95867589D01*
X146655000Y-96140411D01*
X146708225Y-96407989D01*
X146812629Y-96660043D01*
X146964201Y-96886886D01*
X147157114Y-97079799D01*
X147383957Y-97231371D01*
X147636011Y-97335775D01*
X147903589Y-97389000D01*
X148176411Y-97389000D01*
X148443989Y-97335775D01*
X148696043Y-97231371D01*
X148922886Y-97079799D01*
X149115799Y-96886886D01*
X149267371Y-96660043D01*
X149371775Y-96407989D01*
X149425000Y-96140411D01*
X149425000Y-95867589D01*
X149371775Y-95600011D01*
X149267371Y-95347957D01*
X149115799Y-95121114D01*
X148922886Y-94928201D01*
X148696043Y-94776629D01*
X148646574Y-94756139D01*
X148751863Y-94699860D01*
X148817388Y-94460993D01*
X148040000Y-93683605D01*
X148025858Y-93697748D01*
X147846253Y-93518143D01*
X147860395Y-93504000D01*
X148219605Y-93504000D01*
X148996993Y-94281388D01*
X149235860Y-94215863D01*
X149351760Y-93968884D01*
X149417250Y-93704040D01*
X149429812Y-93431508D01*
X149388965Y-93161762D01*
X149296277Y-92905168D01*
X149235860Y-92792137D01*
X148996993Y-92726612D01*
X148219605Y-93504000D01*
X147860395Y-93504000D01*
X147846253Y-93489858D01*
X148025858Y-93310253D01*
X148040000Y-93324395D01*
X148817388Y-92547007D01*
X148751863Y-92308140D01*
X148504884Y-92192240D01*
X148240040Y-92126750D01*
X147967508Y-92114188D01*
X147697762Y-92155035D01*
X147445000Y-92246339D01*
X147445000Y-91621001D01*
X149078944Y-89987058D01*
X149022500Y-90270822D01*
X149022500Y-90737178D01*
X149113482Y-91194574D01*
X149291949Y-91625432D01*
X149551043Y-92013193D01*
X149880807Y-92342957D01*
X150268568Y-92602051D01*
X150699426Y-92780518D01*
X151156822Y-92871500D01*
X151623178Y-92871500D01*
X152080574Y-92780518D01*
X152511432Y-92602051D01*
X152899193Y-92342957D01*
X153228957Y-92013193D01*
X153488051Y-91625432D01*
X153666518Y-91194574D01*
X153757500Y-90737178D01*
X153757500Y-90270822D01*
X153736216Y-90163823D01*
X153761367Y-90166300D01*
X153761376Y-90166300D01*
X153798699Y-90169976D01*
X153836022Y-90166300D01*
X156393474Y-90166300D01*
X156391928Y-90182000D01*
X156391928Y-91682000D01*
X156404188Y-91806482D01*
X156440498Y-91926180D01*
X156499463Y-92036494D01*
X156578815Y-92133185D01*
X156675506Y-92212537D01*
X156785820Y-92271502D01*
X156905518Y-92307812D01*
X157030000Y-92320072D01*
X157930000Y-92320072D01*
X158049152Y-92308337D01*
X158115026Y-92431576D01*
X158209999Y-92547301D01*
X158325724Y-92642274D01*
X158457753Y-92712846D01*
X158601014Y-92756303D01*
X158712667Y-92767300D01*
X158750000Y-92770977D01*
X158787333Y-92767300D01*
X161814199Y-92767300D01*
X168109901Y-99063003D01*
X168133699Y-99092001D01*
X168162697Y-99115799D01*
X168249424Y-99186974D01*
X168381453Y-99257546D01*
X168524714Y-99301003D01*
X168574861Y-99305942D01*
X168600068Y-99353101D01*
X168779392Y-99571608D01*
X168997899Y-99750932D01*
X169247192Y-99884182D01*
X169517691Y-99966236D01*
X169728508Y-99987000D01*
X169869492Y-99987000D01*
X170080309Y-99966236D01*
X170350808Y-99884182D01*
X170600101Y-99750932D01*
X170818608Y-99571608D01*
X170997932Y-99353101D01*
X171131182Y-99103808D01*
X171213236Y-98833309D01*
X171240943Y-98552000D01*
X171213236Y-98270691D01*
X171131182Y-98000192D01*
X170997932Y-97750899D01*
X170818608Y-97532392D01*
X170600101Y-97353068D01*
X170350808Y-97219818D01*
X170080309Y-97137764D01*
X169869492Y-97117000D01*
X169728508Y-97117000D01*
X169517691Y-97137764D01*
X169247192Y-97219818D01*
X168997899Y-97353068D01*
X168779392Y-97532392D01*
X168756630Y-97560128D01*
X162692804Y-91496303D01*
X162669001Y-91467299D01*
X162553276Y-91372326D01*
X162421247Y-91301754D01*
X162277986Y-91258297D01*
X162166333Y-91247300D01*
X162166322Y-91247300D01*
X162129000Y-91243624D01*
X162091678Y-91247300D01*
X161105000Y-91247300D01*
X161105000Y-90616700D01*
X162045599Y-90616700D01*
X162871901Y-91443003D01*
X162895699Y-91472001D01*
X163011424Y-91566974D01*
X163143453Y-91637546D01*
X163286714Y-91681003D01*
X163398367Y-91692000D01*
X163398377Y-91692000D01*
X163435700Y-91695676D01*
X163473023Y-91692000D01*
X163504913Y-91692000D01*
X163516188Y-91806482D01*
X163552498Y-91926180D01*
X163611463Y-92036494D01*
X163690815Y-92133185D01*
X163787506Y-92212537D01*
X163897820Y-92271502D01*
X164017518Y-92307812D01*
X164142000Y-92320072D01*
X165042000Y-92320072D01*
X165166482Y-92307812D01*
X165286180Y-92271502D01*
X165395640Y-92212993D01*
X165444780Y-92239259D01*
X165649303Y-92301300D01*
X165862000Y-92322249D01*
X166074696Y-92301300D01*
X166279219Y-92239259D01*
X166467710Y-92138509D01*
X166497000Y-92114471D01*
X166526290Y-92138509D01*
X166714780Y-92239259D01*
X166919303Y-92301300D01*
X167132000Y-92322249D01*
X167344696Y-92301300D01*
X167549219Y-92239259D01*
X167737710Y-92138509D01*
X167902922Y-92002922D01*
X168038509Y-91837710D01*
X168139259Y-91649220D01*
X168201300Y-91444697D01*
X168217000Y-91285294D01*
X168217000Y-90578707D01*
X168210529Y-90513000D01*
X171281928Y-90513000D01*
X171281928Y-92113000D01*
X171294188Y-92237482D01*
X171330498Y-92357180D01*
X171389463Y-92467494D01*
X171468815Y-92564185D01*
X171565506Y-92643537D01*
X171675820Y-92702502D01*
X171795518Y-92738812D01*
X171920000Y-92751072D01*
X173520000Y-92751072D01*
X173644482Y-92738812D01*
X173764180Y-92702502D01*
X173874494Y-92643537D01*
X173971185Y-92564185D01*
X174050537Y-92467494D01*
X174109502Y-92357180D01*
X174138661Y-92261057D01*
X174305241Y-92427637D01*
X174540273Y-92584680D01*
X174801426Y-92692853D01*
X175078665Y-92748000D01*
X175361335Y-92748000D01*
X175638574Y-92692853D01*
X175899727Y-92584680D01*
X176134759Y-92427637D01*
X176334637Y-92227759D01*
X176491680Y-91992727D01*
X176599853Y-91731574D01*
X176655000Y-91454335D01*
X176655000Y-91171665D01*
X176599853Y-90894426D01*
X176491680Y-90633273D01*
X176334637Y-90398241D01*
X176134759Y-90198363D01*
X175899727Y-90041320D01*
X175638574Y-89933147D01*
X175361335Y-89878000D01*
X175078665Y-89878000D01*
X174801426Y-89933147D01*
X174540273Y-90041320D01*
X174305241Y-90198363D01*
X174138661Y-90364943D01*
X174109502Y-90268820D01*
X174050537Y-90158506D01*
X173971185Y-90061815D01*
X173874494Y-89982463D01*
X173764180Y-89923498D01*
X173644482Y-89887188D01*
X173520000Y-89874928D01*
X171920000Y-89874928D01*
X171795518Y-89887188D01*
X171675820Y-89923498D01*
X171565506Y-89982463D01*
X171468815Y-90061815D01*
X171389463Y-90158506D01*
X171330498Y-90268820D01*
X171294188Y-90388518D01*
X171281928Y-90513000D01*
X168210529Y-90513000D01*
X168201300Y-90419304D01*
X168139259Y-90214781D01*
X168038509Y-90026290D01*
X167902922Y-89861078D01*
X167737710Y-89725491D01*
X167549220Y-89624741D01*
X167467295Y-89599890D01*
X167456546Y-89564453D01*
X167385974Y-89432424D01*
X167291001Y-89316699D01*
X167261997Y-89292896D01*
X166864404Y-88895303D01*
X166840601Y-88866299D01*
X166724876Y-88771326D01*
X166592847Y-88700754D01*
X166449586Y-88657297D01*
X166337933Y-88646300D01*
X166337922Y-88646300D01*
X166300600Y-88642624D01*
X166263278Y-88646300D01*
X154113502Y-88646300D01*
X153344804Y-87877602D01*
X153321001Y-87848599D01*
X153205276Y-87753626D01*
X153073247Y-87683054D01*
X152929986Y-87639597D01*
X152818333Y-87628600D01*
X152818322Y-87628600D01*
X152781000Y-87624924D01*
X152743678Y-87628600D01*
X149639922Y-87628600D01*
X149602599Y-87624924D01*
X149565276Y-87628600D01*
X149565267Y-87628600D01*
X149453614Y-87639597D01*
X149310353Y-87683054D01*
X149178324Y-87753626D01*
X149178322Y-87753627D01*
X149178323Y-87753627D01*
X149091596Y-87824801D01*
X149091592Y-87824805D01*
X149062599Y-87848599D01*
X149038805Y-87877592D01*
X147007500Y-89908898D01*
X147007500Y-89470822D01*
X146916518Y-89013426D01*
X146738051Y-88582568D01*
X146478957Y-88194807D01*
X146149193Y-87865043D01*
X145761432Y-87605949D01*
X145330574Y-87427482D01*
X144873178Y-87336500D01*
X144406822Y-87336500D01*
X143949426Y-87427482D01*
X143518568Y-87605949D01*
X143130807Y-87865043D01*
X142801043Y-88194807D01*
X142541949Y-88582568D01*
X142363482Y-89013426D01*
X142272500Y-89470822D01*
X140024607Y-89470822D01*
X139988051Y-89382568D01*
X139728957Y-88994807D01*
X139399193Y-88665043D01*
X139011432Y-88405949D01*
X138580574Y-88227482D01*
X138123178Y-88136500D01*
X137656822Y-88136500D01*
X137199426Y-88227482D01*
X136768568Y-88405949D01*
X136423000Y-88636850D01*
X136423000Y-84480000D01*
X152629001Y-84480000D01*
X152629000Y-85184580D01*
M02*
