G04 #@! TF.GenerationSoftware,KiCad,Pcbnew,(5.1.4)-1*
G04 #@! TF.CreationDate,2020-06-09T22:55:59+02:00*
G04 #@! TF.ProjectId,S-VHS ZX Spectrum Rev. B,532d5648-5320-45a5-9820-537065637472,rev?*
G04 #@! TF.SameCoordinates,Original*
G04 #@! TF.FileFunction,Soldermask,Bot*
G04 #@! TF.FilePolarity,Negative*
%FSLAX46Y46*%
G04 Gerber Fmt 4.6, Leading zero omitted, Abs format (unit mm)*
G04 Created by KiCad (PCBNEW (5.1.4)-1) date 2020-06-09 22:55:59*
%MOMM*%
%LPD*%
G04 APERTURE LIST*
%ADD10C,0.150000*%
G04 APERTURE END LIST*
D10*
G36*
X146810393Y-109239304D02*
G01*
X147047101Y-109337352D01*
X147047103Y-109337353D01*
X147260135Y-109479696D01*
X147441304Y-109660865D01*
X147583647Y-109873897D01*
X147583648Y-109873899D01*
X147681696Y-110110607D01*
X147731680Y-110361893D01*
X147731680Y-110618107D01*
X147681696Y-110869393D01*
X147583648Y-111106101D01*
X147583647Y-111106103D01*
X147441304Y-111319135D01*
X147260135Y-111500304D01*
X147047103Y-111642647D01*
X147047102Y-111642648D01*
X147047101Y-111642648D01*
X146810393Y-111740696D01*
X146559107Y-111790680D01*
X146302893Y-111790680D01*
X146051607Y-111740696D01*
X145814899Y-111642648D01*
X145814898Y-111642648D01*
X145814897Y-111642647D01*
X145601865Y-111500304D01*
X145420696Y-111319135D01*
X145278353Y-111106103D01*
X145278352Y-111106101D01*
X145180304Y-110869393D01*
X145130320Y-110618107D01*
X145130320Y-110361893D01*
X145180304Y-110110607D01*
X145278352Y-109873899D01*
X145278353Y-109873897D01*
X145420696Y-109660865D01*
X145601865Y-109479696D01*
X145814897Y-109337353D01*
X145814899Y-109337352D01*
X146051607Y-109239304D01*
X146302893Y-109189320D01*
X146559107Y-109189320D01*
X146810393Y-109239304D01*
X146810393Y-109239304D01*
G37*
G36*
X146810393Y-105175304D02*
G01*
X147047101Y-105273352D01*
X147047103Y-105273353D01*
X147260135Y-105415696D01*
X147441304Y-105596865D01*
X147583647Y-105809897D01*
X147583648Y-105809899D01*
X147681696Y-106046607D01*
X147731680Y-106297893D01*
X147731680Y-106554107D01*
X147681696Y-106805393D01*
X147583648Y-107042101D01*
X147583647Y-107042103D01*
X147441304Y-107255135D01*
X147260135Y-107436304D01*
X147047103Y-107578647D01*
X147047102Y-107578648D01*
X147047101Y-107578648D01*
X146810393Y-107676696D01*
X146559107Y-107726680D01*
X146302893Y-107726680D01*
X146051607Y-107676696D01*
X145814899Y-107578648D01*
X145814898Y-107578648D01*
X145814897Y-107578647D01*
X145601865Y-107436304D01*
X145420696Y-107255135D01*
X145278353Y-107042103D01*
X145278352Y-107042101D01*
X145180304Y-106805393D01*
X145130320Y-106554107D01*
X145130320Y-106297893D01*
X145180304Y-106046607D01*
X145278352Y-105809899D01*
X145278353Y-105809897D01*
X145420696Y-105596865D01*
X145601865Y-105415696D01*
X145814897Y-105273353D01*
X145814899Y-105273352D01*
X146051607Y-105175304D01*
X146302893Y-105125320D01*
X146559107Y-105125320D01*
X146810393Y-105175304D01*
X146810393Y-105175304D01*
G37*
G36*
X177506202Y-99692781D02*
G01*
X177781606Y-99747562D01*
X178300455Y-99962476D01*
X178767407Y-100274484D01*
X179164516Y-100671593D01*
X179476524Y-101138545D01*
X179691438Y-101657394D01*
X179801000Y-102208201D01*
X179801000Y-102769799D01*
X179691438Y-103320606D01*
X179476524Y-103839455D01*
X179164516Y-104306407D01*
X178767407Y-104703516D01*
X178300455Y-105015524D01*
X177781606Y-105230438D01*
X177565862Y-105273352D01*
X177230800Y-105340000D01*
X176669200Y-105340000D01*
X176334138Y-105273352D01*
X176118394Y-105230438D01*
X175599545Y-105015524D01*
X175132593Y-104703516D01*
X174735484Y-104306407D01*
X174423476Y-103839455D01*
X174208562Y-103320606D01*
X174099000Y-102769799D01*
X174099000Y-102208201D01*
X174208562Y-101657394D01*
X174423476Y-101138545D01*
X174735484Y-100671593D01*
X175132593Y-100274484D01*
X175599545Y-99962476D01*
X176118394Y-99747562D01*
X176669200Y-99638000D01*
X177230800Y-99638000D01*
X177506202Y-99692781D01*
X177506202Y-99692781D01*
G37*
G36*
X139494202Y-99692781D02*
G01*
X139769606Y-99747562D01*
X140288455Y-99962476D01*
X140755407Y-100274484D01*
X141152516Y-100671593D01*
X141464524Y-101138545D01*
X141679438Y-101657394D01*
X141789000Y-102208201D01*
X141789000Y-102769799D01*
X141679438Y-103320606D01*
X141464524Y-103839455D01*
X141152516Y-104306407D01*
X140755407Y-104703516D01*
X140288455Y-105015524D01*
X139769606Y-105230438D01*
X139553862Y-105273352D01*
X139218800Y-105340000D01*
X138657200Y-105340000D01*
X138322138Y-105273352D01*
X138106394Y-105230438D01*
X137587545Y-105015524D01*
X137120593Y-104703516D01*
X136723484Y-104306407D01*
X136411476Y-103839455D01*
X136196562Y-103320606D01*
X136087000Y-102769799D01*
X136087000Y-102208201D01*
X136196562Y-101657394D01*
X136411476Y-101138545D01*
X136723484Y-100671593D01*
X137120593Y-100274484D01*
X137587545Y-99962476D01*
X138106394Y-99747562D01*
X138657200Y-99638000D01*
X139218800Y-99638000D01*
X139494202Y-99692781D01*
X139494202Y-99692781D01*
G37*
G36*
X146810393Y-100984304D02*
G01*
X147047101Y-101082352D01*
X147047103Y-101082353D01*
X147260135Y-101224696D01*
X147441304Y-101405865D01*
X147583647Y-101618897D01*
X147583648Y-101618899D01*
X147681696Y-101855607D01*
X147731680Y-102106893D01*
X147731680Y-102363107D01*
X147681696Y-102614393D01*
X147617324Y-102769800D01*
X147583647Y-102851103D01*
X147441304Y-103064135D01*
X147260135Y-103245304D01*
X147047103Y-103387647D01*
X147047102Y-103387648D01*
X147047101Y-103387648D01*
X146810393Y-103485696D01*
X146559107Y-103535680D01*
X146302893Y-103535680D01*
X146051607Y-103485696D01*
X145814899Y-103387648D01*
X145814898Y-103387648D01*
X145814897Y-103387647D01*
X145601865Y-103245304D01*
X145420696Y-103064135D01*
X145278353Y-102851103D01*
X145244676Y-102769800D01*
X145180304Y-102614393D01*
X145130320Y-102363107D01*
X145130320Y-102106893D01*
X145180304Y-101855607D01*
X145278352Y-101618899D01*
X145278353Y-101618897D01*
X145420696Y-101405865D01*
X145601865Y-101224696D01*
X145814897Y-101082353D01*
X145814899Y-101082352D01*
X146051607Y-100984304D01*
X146302893Y-100934320D01*
X146559107Y-100934320D01*
X146810393Y-100984304D01*
X146810393Y-100984304D01*
G37*
G36*
X141457642Y-95328781D02*
G01*
X141603414Y-95389162D01*
X141603416Y-95389163D01*
X141734608Y-95476822D01*
X141846178Y-95588392D01*
X141933837Y-95719584D01*
X141933838Y-95719586D01*
X141994219Y-95865358D01*
X142025000Y-96020107D01*
X142025000Y-96177893D01*
X141994219Y-96332642D01*
X141933838Y-96478414D01*
X141933837Y-96478416D01*
X141846178Y-96609608D01*
X141734608Y-96721178D01*
X141603416Y-96808837D01*
X141603415Y-96808838D01*
X141603414Y-96808838D01*
X141457642Y-96869219D01*
X141302893Y-96900000D01*
X141145107Y-96900000D01*
X140990358Y-96869219D01*
X140844586Y-96808838D01*
X140844585Y-96808838D01*
X140844584Y-96808837D01*
X140713392Y-96721178D01*
X140601822Y-96609608D01*
X140514163Y-96478416D01*
X140514162Y-96478414D01*
X140453781Y-96332642D01*
X140423000Y-96177893D01*
X140423000Y-96020107D01*
X140453781Y-95865358D01*
X140514162Y-95719586D01*
X140514163Y-95719584D01*
X140601822Y-95588392D01*
X140713392Y-95476822D01*
X140844584Y-95389163D01*
X140844586Y-95389162D01*
X140990358Y-95328781D01*
X141145107Y-95298000D01*
X141302893Y-95298000D01*
X141457642Y-95328781D01*
X141457642Y-95328781D01*
G37*
G36*
X148257642Y-95328781D02*
G01*
X148403414Y-95389162D01*
X148403416Y-95389163D01*
X148534608Y-95476822D01*
X148646178Y-95588392D01*
X148733837Y-95719584D01*
X148733838Y-95719586D01*
X148794219Y-95865358D01*
X148825000Y-96020107D01*
X148825000Y-96177893D01*
X148794219Y-96332642D01*
X148733838Y-96478414D01*
X148733837Y-96478416D01*
X148646178Y-96609608D01*
X148534608Y-96721178D01*
X148403416Y-96808837D01*
X148403415Y-96808838D01*
X148403414Y-96808838D01*
X148257642Y-96869219D01*
X148102893Y-96900000D01*
X147945107Y-96900000D01*
X147790358Y-96869219D01*
X147644586Y-96808838D01*
X147644585Y-96808838D01*
X147644584Y-96808837D01*
X147513392Y-96721178D01*
X147401822Y-96609608D01*
X147314163Y-96478416D01*
X147314162Y-96478414D01*
X147253781Y-96332642D01*
X147223000Y-96177893D01*
X147223000Y-96020107D01*
X147253781Y-95865358D01*
X147314162Y-95719586D01*
X147314163Y-95719584D01*
X147401822Y-95588392D01*
X147513392Y-95476822D01*
X147644584Y-95389163D01*
X147644586Y-95389162D01*
X147790358Y-95328781D01*
X147945107Y-95298000D01*
X148102893Y-95298000D01*
X148257642Y-95328781D01*
X148257642Y-95328781D01*
G37*
G36*
X141457642Y-92828781D02*
G01*
X141603414Y-92889162D01*
X141603416Y-92889163D01*
X141734608Y-92976822D01*
X141846178Y-93088392D01*
X141933837Y-93219584D01*
X141933838Y-93219586D01*
X141994219Y-93365358D01*
X142025000Y-93520107D01*
X142025000Y-93677893D01*
X141994219Y-93832642D01*
X141933838Y-93978414D01*
X141933837Y-93978416D01*
X141846178Y-94109608D01*
X141734608Y-94221178D01*
X141603416Y-94308837D01*
X141603415Y-94308838D01*
X141603414Y-94308838D01*
X141457642Y-94369219D01*
X141302893Y-94400000D01*
X141145107Y-94400000D01*
X140990358Y-94369219D01*
X140844586Y-94308838D01*
X140844585Y-94308838D01*
X140844584Y-94308837D01*
X140713392Y-94221178D01*
X140601822Y-94109608D01*
X140514163Y-93978416D01*
X140514162Y-93978414D01*
X140453781Y-93832642D01*
X140423000Y-93677893D01*
X140423000Y-93520107D01*
X140453781Y-93365358D01*
X140514162Y-93219586D01*
X140514163Y-93219584D01*
X140601822Y-93088392D01*
X140713392Y-92976822D01*
X140844584Y-92889163D01*
X140844586Y-92889162D01*
X140990358Y-92828781D01*
X141145107Y-92798000D01*
X141302893Y-92798000D01*
X141457642Y-92828781D01*
X141457642Y-92828781D01*
G37*
G36*
X148257642Y-92828781D02*
G01*
X148403414Y-92889162D01*
X148403416Y-92889163D01*
X148534608Y-92976822D01*
X148646178Y-93088392D01*
X148733837Y-93219584D01*
X148733838Y-93219586D01*
X148794219Y-93365358D01*
X148825000Y-93520107D01*
X148825000Y-93677893D01*
X148794219Y-93832642D01*
X148733838Y-93978414D01*
X148733837Y-93978416D01*
X148646178Y-94109608D01*
X148534608Y-94221178D01*
X148403416Y-94308837D01*
X148403415Y-94308838D01*
X148403414Y-94308838D01*
X148257642Y-94369219D01*
X148102893Y-94400000D01*
X147945107Y-94400000D01*
X147790358Y-94369219D01*
X147644586Y-94308838D01*
X147644585Y-94308838D01*
X147644584Y-94308837D01*
X147513392Y-94221178D01*
X147401822Y-94109608D01*
X147314163Y-93978416D01*
X147314162Y-93978414D01*
X147253781Y-93832642D01*
X147223000Y-93677893D01*
X147223000Y-93520107D01*
X147253781Y-93365358D01*
X147314162Y-93219586D01*
X147314163Y-93219584D01*
X147401822Y-93088392D01*
X147513392Y-92976822D01*
X147644584Y-92889163D01*
X147644586Y-92889162D01*
X147790358Y-92828781D01*
X147945107Y-92798000D01*
X148102893Y-92798000D01*
X148257642Y-92828781D01*
X148257642Y-92828781D01*
G37*
G36*
X138279372Y-88861193D02*
G01*
X138394228Y-88884039D01*
X138718804Y-89018482D01*
X139010915Y-89213665D01*
X139259335Y-89462085D01*
X139454518Y-89754196D01*
X139545836Y-89974659D01*
X139588961Y-90078773D01*
X139657500Y-90423339D01*
X139657500Y-90774661D01*
X139625424Y-90935915D01*
X139588961Y-91119228D01*
X139454518Y-91443804D01*
X139259335Y-91735915D01*
X139010915Y-91984335D01*
X138718804Y-92179518D01*
X138394228Y-92313961D01*
X138279372Y-92336807D01*
X138049661Y-92382500D01*
X137698339Y-92382500D01*
X137468628Y-92336807D01*
X137353772Y-92313961D01*
X137029196Y-92179518D01*
X136737085Y-91984335D01*
X136488665Y-91735915D01*
X136293482Y-91443804D01*
X136159039Y-91119228D01*
X136122576Y-90935915D01*
X136090500Y-90774661D01*
X136090500Y-90423339D01*
X136159039Y-90078773D01*
X136202164Y-89974659D01*
X136293482Y-89754196D01*
X136488665Y-89462085D01*
X136737085Y-89213665D01*
X137029196Y-89018482D01*
X137353772Y-88884039D01*
X137468628Y-88861193D01*
X137698339Y-88815500D01*
X138049661Y-88815500D01*
X138279372Y-88861193D01*
X138279372Y-88861193D01*
G37*
G36*
X151779372Y-88861193D02*
G01*
X151894228Y-88884039D01*
X152218804Y-89018482D01*
X152510915Y-89213665D01*
X152759335Y-89462085D01*
X152954518Y-89754196D01*
X153045836Y-89974659D01*
X153088961Y-90078773D01*
X153157500Y-90423339D01*
X153157500Y-90774661D01*
X153125424Y-90935915D01*
X153088961Y-91119228D01*
X152954518Y-91443804D01*
X152759335Y-91735915D01*
X152510915Y-91984335D01*
X152218804Y-92179518D01*
X151894228Y-92313961D01*
X151779372Y-92336807D01*
X151549661Y-92382500D01*
X151198339Y-92382500D01*
X150968628Y-92336807D01*
X150853772Y-92313961D01*
X150529196Y-92179518D01*
X150237085Y-91984335D01*
X149988665Y-91735915D01*
X149793482Y-91443804D01*
X149659039Y-91119228D01*
X149622576Y-90935915D01*
X149590500Y-90774661D01*
X149590500Y-90423339D01*
X149659039Y-90078773D01*
X149702164Y-89974659D01*
X149793482Y-89754196D01*
X149988665Y-89462085D01*
X150237085Y-89213665D01*
X150529196Y-89018482D01*
X150853772Y-88884039D01*
X150968628Y-88861193D01*
X151198339Y-88815500D01*
X151549661Y-88815500D01*
X151779372Y-88861193D01*
X151779372Y-88861193D01*
G37*
G36*
X145029372Y-88061193D02*
G01*
X145144228Y-88084039D01*
X145468804Y-88218482D01*
X145760915Y-88413665D01*
X146009335Y-88662085D01*
X146204518Y-88954196D01*
X146338961Y-89278772D01*
X146338961Y-89278773D01*
X146407500Y-89623339D01*
X146407500Y-89974661D01*
X146361807Y-90204372D01*
X146338961Y-90319228D01*
X146204518Y-90643804D01*
X146009335Y-90935915D01*
X145760915Y-91184335D01*
X145468804Y-91379518D01*
X145144228Y-91513961D01*
X145029372Y-91536807D01*
X144799661Y-91582500D01*
X144448339Y-91582500D01*
X144218628Y-91536807D01*
X144103772Y-91513961D01*
X143779196Y-91379518D01*
X143487085Y-91184335D01*
X143238665Y-90935915D01*
X143043482Y-90643804D01*
X142909039Y-90319228D01*
X142886193Y-90204372D01*
X142840500Y-89974661D01*
X142840500Y-89623339D01*
X142909039Y-89278773D01*
X142909039Y-89278772D01*
X143043482Y-88954196D01*
X143238665Y-88662085D01*
X143487085Y-88413665D01*
X143779196Y-88218482D01*
X144103772Y-88084039D01*
X144218628Y-88061193D01*
X144448339Y-88015500D01*
X144799661Y-88015500D01*
X145029372Y-88061193D01*
X145029372Y-88061193D01*
G37*
M02*
