G04 #@! TF.GenerationSoftware,KiCad,Pcbnew,(5.1.4)-1*
G04 #@! TF.CreationDate,2020-06-09T22:55:59+02:00*
G04 #@! TF.ProjectId,S-VHS ZX Spectrum Rev. B,532d5648-5320-45a5-9820-537065637472,rev?*
G04 #@! TF.SameCoordinates,Original*
G04 #@! TF.FileFunction,Copper,L2,Bot*
G04 #@! TF.FilePolarity,Positive*
%FSLAX46Y46*%
G04 Gerber Fmt 4.6, Leading zero omitted, Abs format (unit mm)*
G04 Created by KiCad (PCBNEW (5.1.4)-1) date 2020-06-09 22:55:59*
%MOMM*%
%LPD*%
G04 APERTURE LIST*
%ADD10C,1.500000*%
%ADD11C,3.465000*%
%ADD12C,5.600000*%
%ADD13C,2.499360*%
%ADD14C,0.800000*%
%ADD15C,0.254000*%
G04 APERTURE END LIST*
D10*
X141224000Y-93599000D03*
X148024000Y-93599000D03*
X141224000Y-96099000D03*
X148024000Y-96099000D03*
D11*
X137874000Y-90599000D03*
X144624000Y-89799000D03*
X151374000Y-90599000D03*
D12*
X138938000Y-102489000D03*
X176950000Y-102489000D03*
D13*
X146431000Y-102235000D03*
X146431000Y-106426000D03*
X146431000Y-110490000D03*
D14*
X159004000Y-88548100D03*
X167101200Y-88448900D03*
X166265000Y-93733200D03*
X170895000Y-104920100D03*
D15*
G36*
X152629000Y-85184580D02*
G01*
X152625807Y-85217000D01*
X152638550Y-85346383D01*
X152676290Y-85470793D01*
X152737575Y-85585450D01*
X152820052Y-85685948D01*
X152920550Y-85768425D01*
X153035207Y-85829710D01*
X153159617Y-85867450D01*
X153289000Y-85880193D01*
X153321419Y-85877000D01*
X178918000Y-85877000D01*
X178918001Y-99686069D01*
X178874692Y-99623823D01*
X178278741Y-99303388D01*
X177631727Y-99105374D01*
X176958516Y-99037390D01*
X176284977Y-99102051D01*
X175636994Y-99296870D01*
X175039470Y-99614361D01*
X175025308Y-99623823D01*
X174713124Y-100072519D01*
X176950000Y-102309395D01*
X176964143Y-102295253D01*
X177143748Y-102474858D01*
X177129605Y-102489000D01*
X177143748Y-102503143D01*
X176964143Y-102682748D01*
X176950000Y-102668605D01*
X174713124Y-104905481D01*
X175025308Y-105354177D01*
X175621259Y-105674612D01*
X176268273Y-105872626D01*
X176941484Y-105940610D01*
X177615023Y-105875949D01*
X178263006Y-105681130D01*
X178860530Y-105363639D01*
X178874692Y-105354177D01*
X178918001Y-105291930D01*
X178918001Y-113386000D01*
X137248430Y-113386000D01*
X136935802Y-110304375D01*
X144546320Y-110304375D01*
X144546320Y-110675625D01*
X144618747Y-111039741D01*
X144760818Y-111382731D01*
X144967074Y-111691413D01*
X145229587Y-111953926D01*
X145538269Y-112160182D01*
X145881259Y-112302253D01*
X146245375Y-112374680D01*
X146616625Y-112374680D01*
X146980741Y-112302253D01*
X147323731Y-112160182D01*
X147632413Y-111953926D01*
X147894926Y-111691413D01*
X148101182Y-111382731D01*
X148243253Y-111039741D01*
X148315680Y-110675625D01*
X148315680Y-110304375D01*
X148243253Y-109940259D01*
X148101182Y-109597269D01*
X147894926Y-109288587D01*
X147632413Y-109026074D01*
X147323731Y-108819818D01*
X146980741Y-108677747D01*
X146616625Y-108605320D01*
X146245375Y-108605320D01*
X145881259Y-108677747D01*
X145538269Y-108819818D01*
X145229587Y-109026074D01*
X144967074Y-109288587D01*
X144760818Y-109597269D01*
X144618747Y-109940259D01*
X144546320Y-110304375D01*
X136935802Y-110304375D01*
X136523513Y-106240375D01*
X144546320Y-106240375D01*
X144546320Y-106611625D01*
X144618747Y-106975741D01*
X144760818Y-107318731D01*
X144967074Y-107627413D01*
X145229587Y-107889926D01*
X145538269Y-108096182D01*
X145881259Y-108238253D01*
X146245375Y-108310680D01*
X146616625Y-108310680D01*
X146980741Y-108238253D01*
X147323731Y-108096182D01*
X147632413Y-107889926D01*
X147894926Y-107627413D01*
X148101182Y-107318731D01*
X148243253Y-106975741D01*
X148315680Y-106611625D01*
X148315680Y-106240375D01*
X148243253Y-105876259D01*
X148101182Y-105533269D01*
X147894926Y-105224587D01*
X147632413Y-104962074D01*
X147323731Y-104755818D01*
X146980741Y-104613747D01*
X146616625Y-104541320D01*
X146245375Y-104541320D01*
X145881259Y-104613747D01*
X145538269Y-104755818D01*
X145229587Y-104962074D01*
X144967074Y-105224587D01*
X144760818Y-105533269D01*
X144618747Y-105876259D01*
X144546320Y-106240375D01*
X136523513Y-106240375D01*
X136423000Y-105249613D01*
X136423000Y-104905481D01*
X136701124Y-104905481D01*
X137013308Y-105354177D01*
X137609259Y-105674612D01*
X138256273Y-105872626D01*
X138929484Y-105940610D01*
X139603023Y-105875949D01*
X140251006Y-105681130D01*
X140848530Y-105363639D01*
X140862692Y-105354177D01*
X141174876Y-104905481D01*
X138938000Y-102668605D01*
X136701124Y-104905481D01*
X136423000Y-104905481D01*
X136423000Y-104657331D01*
X136521519Y-104725876D01*
X138758395Y-102489000D01*
X139117605Y-102489000D01*
X141354481Y-104725876D01*
X141803177Y-104413692D01*
X142123612Y-103817741D01*
X142321626Y-103170727D01*
X142389610Y-102497516D01*
X142346588Y-102049375D01*
X144546320Y-102049375D01*
X144546320Y-102420625D01*
X144618747Y-102784741D01*
X144760818Y-103127731D01*
X144967074Y-103436413D01*
X145229587Y-103698926D01*
X145538269Y-103905182D01*
X145881259Y-104047253D01*
X146245375Y-104119680D01*
X146616625Y-104119680D01*
X146980741Y-104047253D01*
X147323731Y-103905182D01*
X147632413Y-103698926D01*
X147894926Y-103436413D01*
X148101182Y-103127731D01*
X148243253Y-102784741D01*
X148303773Y-102480484D01*
X173498390Y-102480484D01*
X173563051Y-103154023D01*
X173757870Y-103802006D01*
X174075361Y-104399530D01*
X174084823Y-104413692D01*
X174533519Y-104725876D01*
X176770395Y-102489000D01*
X174533519Y-100252124D01*
X174084823Y-100564308D01*
X173764388Y-101160259D01*
X173566374Y-101807273D01*
X173498390Y-102480484D01*
X148303773Y-102480484D01*
X148315680Y-102420625D01*
X148315680Y-102049375D01*
X148243253Y-101685259D01*
X148101182Y-101342269D01*
X147894926Y-101033587D01*
X147632413Y-100771074D01*
X147323731Y-100564818D01*
X146980741Y-100422747D01*
X146616625Y-100350320D01*
X146245375Y-100350320D01*
X145881259Y-100422747D01*
X145538269Y-100564818D01*
X145229587Y-100771074D01*
X144967074Y-101033587D01*
X144760818Y-101342269D01*
X144618747Y-101685259D01*
X144546320Y-102049375D01*
X142346588Y-102049375D01*
X142324949Y-101823977D01*
X142130130Y-101175994D01*
X141812639Y-100578470D01*
X141803177Y-100564308D01*
X141354481Y-100252124D01*
X139117605Y-102489000D01*
X138758395Y-102489000D01*
X136521519Y-100252124D01*
X136423000Y-100320669D01*
X136423000Y-100072519D01*
X136701124Y-100072519D01*
X138938000Y-102309395D01*
X141174876Y-100072519D01*
X140862692Y-99623823D01*
X140266741Y-99303388D01*
X139619727Y-99105374D01*
X138946516Y-99037390D01*
X138272977Y-99102051D01*
X137624994Y-99296870D01*
X137027470Y-99614361D01*
X137013308Y-99623823D01*
X136701124Y-100072519D01*
X136423000Y-100072519D01*
X136423000Y-95962589D01*
X139839000Y-95962589D01*
X139839000Y-96235411D01*
X139892225Y-96502989D01*
X139996629Y-96755043D01*
X140148201Y-96981886D01*
X140341114Y-97174799D01*
X140567957Y-97326371D01*
X140820011Y-97430775D01*
X141087589Y-97484000D01*
X141360411Y-97484000D01*
X141627989Y-97430775D01*
X141880043Y-97326371D01*
X142106886Y-97174799D01*
X142299799Y-96981886D01*
X142451371Y-96755043D01*
X142555775Y-96502989D01*
X142609000Y-96235411D01*
X142609000Y-95962589D01*
X146639000Y-95962589D01*
X146639000Y-96235411D01*
X146692225Y-96502989D01*
X146796629Y-96755043D01*
X146948201Y-96981886D01*
X147141114Y-97174799D01*
X147367957Y-97326371D01*
X147620011Y-97430775D01*
X147887589Y-97484000D01*
X148160411Y-97484000D01*
X148427989Y-97430775D01*
X148680043Y-97326371D01*
X148906886Y-97174799D01*
X149099799Y-96981886D01*
X149251371Y-96755043D01*
X149355775Y-96502989D01*
X149409000Y-96235411D01*
X149409000Y-95962589D01*
X149355775Y-95695011D01*
X149251371Y-95442957D01*
X149099799Y-95216114D01*
X148906886Y-95023201D01*
X148680043Y-94871629D01*
X148630574Y-94851139D01*
X148735863Y-94794860D01*
X148801388Y-94555993D01*
X148024000Y-93778605D01*
X147246612Y-94555993D01*
X147312137Y-94794860D01*
X147425201Y-94847918D01*
X147367957Y-94871629D01*
X147141114Y-95023201D01*
X146948201Y-95216114D01*
X146796629Y-95442957D01*
X146692225Y-95695011D01*
X146639000Y-95962589D01*
X142609000Y-95962589D01*
X142555775Y-95695011D01*
X142451371Y-95442957D01*
X142299799Y-95216114D01*
X142106886Y-95023201D01*
X141880043Y-94871629D01*
X141830574Y-94851139D01*
X141935863Y-94794860D01*
X142001388Y-94555993D01*
X141224000Y-93778605D01*
X140446612Y-94555993D01*
X140512137Y-94794860D01*
X140625201Y-94847918D01*
X140567957Y-94871629D01*
X140341114Y-95023201D01*
X140148201Y-95216114D01*
X139996629Y-95442957D01*
X139892225Y-95695011D01*
X139839000Y-95962589D01*
X136423000Y-95962589D01*
X136423000Y-93671492D01*
X139834188Y-93671492D01*
X139875035Y-93941238D01*
X139967723Y-94197832D01*
X140028140Y-94310863D01*
X140267007Y-94376388D01*
X141044395Y-93599000D01*
X141403605Y-93599000D01*
X142180993Y-94376388D01*
X142419860Y-94310863D01*
X142535760Y-94063884D01*
X142601250Y-93799040D01*
X142607129Y-93671492D01*
X146634188Y-93671492D01*
X146675035Y-93941238D01*
X146767723Y-94197832D01*
X146828140Y-94310863D01*
X147067007Y-94376388D01*
X147844395Y-93599000D01*
X148203605Y-93599000D01*
X148980993Y-94376388D01*
X149219860Y-94310863D01*
X149335760Y-94063884D01*
X149401250Y-93799040D01*
X149413812Y-93526508D01*
X149372965Y-93256762D01*
X149280277Y-93000168D01*
X149219860Y-92887137D01*
X148980993Y-92821612D01*
X148203605Y-93599000D01*
X147844395Y-93599000D01*
X147067007Y-92821612D01*
X146828140Y-92887137D01*
X146712240Y-93134116D01*
X146646750Y-93398960D01*
X146634188Y-93671492D01*
X142607129Y-93671492D01*
X142613812Y-93526508D01*
X142572965Y-93256762D01*
X142480277Y-93000168D01*
X142419860Y-92887137D01*
X142180993Y-92821612D01*
X141403605Y-93599000D01*
X141044395Y-93599000D01*
X140267007Y-92821612D01*
X140028140Y-92887137D01*
X139912240Y-93134116D01*
X139846750Y-93398960D01*
X139834188Y-93671492D01*
X136423000Y-93671492D01*
X136423000Y-92476840D01*
X136752568Y-92697051D01*
X137183426Y-92875518D01*
X137640822Y-92966500D01*
X138107178Y-92966500D01*
X138564574Y-92875518D01*
X138995432Y-92697051D01*
X139077811Y-92642007D01*
X140446612Y-92642007D01*
X141224000Y-93419395D01*
X142001388Y-92642007D01*
X147246612Y-92642007D01*
X148024000Y-93419395D01*
X148801388Y-92642007D01*
X148735863Y-92403140D01*
X148488884Y-92287240D01*
X148224040Y-92221750D01*
X147951508Y-92209188D01*
X147681762Y-92250035D01*
X147425168Y-92342723D01*
X147312137Y-92403140D01*
X147246612Y-92642007D01*
X142001388Y-92642007D01*
X141935863Y-92403140D01*
X141688884Y-92287240D01*
X141424040Y-92221750D01*
X141151508Y-92209188D01*
X140881762Y-92250035D01*
X140625168Y-92342723D01*
X140512137Y-92403140D01*
X140446612Y-92642007D01*
X139077811Y-92642007D01*
X139383193Y-92437957D01*
X139712957Y-92108193D01*
X139972051Y-91720432D01*
X140150518Y-91289574D01*
X140241500Y-90832178D01*
X140241500Y-90365822D01*
X140150518Y-89908426D01*
X140008607Y-89565822D01*
X142256500Y-89565822D01*
X142256500Y-90032178D01*
X142347482Y-90489574D01*
X142525949Y-90920432D01*
X142785043Y-91308193D01*
X143114807Y-91637957D01*
X143502568Y-91897051D01*
X143933426Y-92075518D01*
X144390822Y-92166500D01*
X144857178Y-92166500D01*
X145314574Y-92075518D01*
X145745432Y-91897051D01*
X146133193Y-91637957D01*
X146462957Y-91308193D01*
X146722051Y-90920432D01*
X146900518Y-90489574D01*
X146925133Y-90365822D01*
X149006500Y-90365822D01*
X149006500Y-90832178D01*
X149097482Y-91289574D01*
X149275949Y-91720432D01*
X149535043Y-92108193D01*
X149864807Y-92437957D01*
X150252568Y-92697051D01*
X150683426Y-92875518D01*
X151140822Y-92966500D01*
X151607178Y-92966500D01*
X152064574Y-92875518D01*
X152495432Y-92697051D01*
X152883193Y-92437957D01*
X153212957Y-92108193D01*
X153472051Y-91720432D01*
X153650518Y-91289574D01*
X153741500Y-90832178D01*
X153741500Y-90365822D01*
X153650518Y-89908426D01*
X153472051Y-89477568D01*
X153212957Y-89089807D01*
X152883193Y-88760043D01*
X152495432Y-88500949D01*
X152064574Y-88322482D01*
X151607178Y-88231500D01*
X151140822Y-88231500D01*
X150683426Y-88322482D01*
X150252568Y-88500949D01*
X149864807Y-88760043D01*
X149535043Y-89089807D01*
X149275949Y-89477568D01*
X149097482Y-89908426D01*
X149006500Y-90365822D01*
X146925133Y-90365822D01*
X146991500Y-90032178D01*
X146991500Y-89565822D01*
X146900518Y-89108426D01*
X146722051Y-88677568D01*
X146462957Y-88289807D01*
X146133193Y-87960043D01*
X145745432Y-87700949D01*
X145314574Y-87522482D01*
X144857178Y-87431500D01*
X144390822Y-87431500D01*
X143933426Y-87522482D01*
X143502568Y-87700949D01*
X143114807Y-87960043D01*
X142785043Y-88289807D01*
X142525949Y-88677568D01*
X142347482Y-89108426D01*
X142256500Y-89565822D01*
X140008607Y-89565822D01*
X139972051Y-89477568D01*
X139712957Y-89089807D01*
X139383193Y-88760043D01*
X138995432Y-88500949D01*
X138564574Y-88322482D01*
X138107178Y-88231500D01*
X137640822Y-88231500D01*
X137183426Y-88322482D01*
X136752568Y-88500949D01*
X136423000Y-88721160D01*
X136423000Y-84480000D01*
X152629001Y-84480000D01*
X152629000Y-85184580D01*
X152629000Y-85184580D01*
G37*
X152629000Y-85184580D02*
X152625807Y-85217000D01*
X152638550Y-85346383D01*
X152676290Y-85470793D01*
X152737575Y-85585450D01*
X152820052Y-85685948D01*
X152920550Y-85768425D01*
X153035207Y-85829710D01*
X153159617Y-85867450D01*
X153289000Y-85880193D01*
X153321419Y-85877000D01*
X178918000Y-85877000D01*
X178918001Y-99686069D01*
X178874692Y-99623823D01*
X178278741Y-99303388D01*
X177631727Y-99105374D01*
X176958516Y-99037390D01*
X176284977Y-99102051D01*
X175636994Y-99296870D01*
X175039470Y-99614361D01*
X175025308Y-99623823D01*
X174713124Y-100072519D01*
X176950000Y-102309395D01*
X176964143Y-102295253D01*
X177143748Y-102474858D01*
X177129605Y-102489000D01*
X177143748Y-102503143D01*
X176964143Y-102682748D01*
X176950000Y-102668605D01*
X174713124Y-104905481D01*
X175025308Y-105354177D01*
X175621259Y-105674612D01*
X176268273Y-105872626D01*
X176941484Y-105940610D01*
X177615023Y-105875949D01*
X178263006Y-105681130D01*
X178860530Y-105363639D01*
X178874692Y-105354177D01*
X178918001Y-105291930D01*
X178918001Y-113386000D01*
X137248430Y-113386000D01*
X136935802Y-110304375D01*
X144546320Y-110304375D01*
X144546320Y-110675625D01*
X144618747Y-111039741D01*
X144760818Y-111382731D01*
X144967074Y-111691413D01*
X145229587Y-111953926D01*
X145538269Y-112160182D01*
X145881259Y-112302253D01*
X146245375Y-112374680D01*
X146616625Y-112374680D01*
X146980741Y-112302253D01*
X147323731Y-112160182D01*
X147632413Y-111953926D01*
X147894926Y-111691413D01*
X148101182Y-111382731D01*
X148243253Y-111039741D01*
X148315680Y-110675625D01*
X148315680Y-110304375D01*
X148243253Y-109940259D01*
X148101182Y-109597269D01*
X147894926Y-109288587D01*
X147632413Y-109026074D01*
X147323731Y-108819818D01*
X146980741Y-108677747D01*
X146616625Y-108605320D01*
X146245375Y-108605320D01*
X145881259Y-108677747D01*
X145538269Y-108819818D01*
X145229587Y-109026074D01*
X144967074Y-109288587D01*
X144760818Y-109597269D01*
X144618747Y-109940259D01*
X144546320Y-110304375D01*
X136935802Y-110304375D01*
X136523513Y-106240375D01*
X144546320Y-106240375D01*
X144546320Y-106611625D01*
X144618747Y-106975741D01*
X144760818Y-107318731D01*
X144967074Y-107627413D01*
X145229587Y-107889926D01*
X145538269Y-108096182D01*
X145881259Y-108238253D01*
X146245375Y-108310680D01*
X146616625Y-108310680D01*
X146980741Y-108238253D01*
X147323731Y-108096182D01*
X147632413Y-107889926D01*
X147894926Y-107627413D01*
X148101182Y-107318731D01*
X148243253Y-106975741D01*
X148315680Y-106611625D01*
X148315680Y-106240375D01*
X148243253Y-105876259D01*
X148101182Y-105533269D01*
X147894926Y-105224587D01*
X147632413Y-104962074D01*
X147323731Y-104755818D01*
X146980741Y-104613747D01*
X146616625Y-104541320D01*
X146245375Y-104541320D01*
X145881259Y-104613747D01*
X145538269Y-104755818D01*
X145229587Y-104962074D01*
X144967074Y-105224587D01*
X144760818Y-105533269D01*
X144618747Y-105876259D01*
X144546320Y-106240375D01*
X136523513Y-106240375D01*
X136423000Y-105249613D01*
X136423000Y-104905481D01*
X136701124Y-104905481D01*
X137013308Y-105354177D01*
X137609259Y-105674612D01*
X138256273Y-105872626D01*
X138929484Y-105940610D01*
X139603023Y-105875949D01*
X140251006Y-105681130D01*
X140848530Y-105363639D01*
X140862692Y-105354177D01*
X141174876Y-104905481D01*
X138938000Y-102668605D01*
X136701124Y-104905481D01*
X136423000Y-104905481D01*
X136423000Y-104657331D01*
X136521519Y-104725876D01*
X138758395Y-102489000D01*
X139117605Y-102489000D01*
X141354481Y-104725876D01*
X141803177Y-104413692D01*
X142123612Y-103817741D01*
X142321626Y-103170727D01*
X142389610Y-102497516D01*
X142346588Y-102049375D01*
X144546320Y-102049375D01*
X144546320Y-102420625D01*
X144618747Y-102784741D01*
X144760818Y-103127731D01*
X144967074Y-103436413D01*
X145229587Y-103698926D01*
X145538269Y-103905182D01*
X145881259Y-104047253D01*
X146245375Y-104119680D01*
X146616625Y-104119680D01*
X146980741Y-104047253D01*
X147323731Y-103905182D01*
X147632413Y-103698926D01*
X147894926Y-103436413D01*
X148101182Y-103127731D01*
X148243253Y-102784741D01*
X148303773Y-102480484D01*
X173498390Y-102480484D01*
X173563051Y-103154023D01*
X173757870Y-103802006D01*
X174075361Y-104399530D01*
X174084823Y-104413692D01*
X174533519Y-104725876D01*
X176770395Y-102489000D01*
X174533519Y-100252124D01*
X174084823Y-100564308D01*
X173764388Y-101160259D01*
X173566374Y-101807273D01*
X173498390Y-102480484D01*
X148303773Y-102480484D01*
X148315680Y-102420625D01*
X148315680Y-102049375D01*
X148243253Y-101685259D01*
X148101182Y-101342269D01*
X147894926Y-101033587D01*
X147632413Y-100771074D01*
X147323731Y-100564818D01*
X146980741Y-100422747D01*
X146616625Y-100350320D01*
X146245375Y-100350320D01*
X145881259Y-100422747D01*
X145538269Y-100564818D01*
X145229587Y-100771074D01*
X144967074Y-101033587D01*
X144760818Y-101342269D01*
X144618747Y-101685259D01*
X144546320Y-102049375D01*
X142346588Y-102049375D01*
X142324949Y-101823977D01*
X142130130Y-101175994D01*
X141812639Y-100578470D01*
X141803177Y-100564308D01*
X141354481Y-100252124D01*
X139117605Y-102489000D01*
X138758395Y-102489000D01*
X136521519Y-100252124D01*
X136423000Y-100320669D01*
X136423000Y-100072519D01*
X136701124Y-100072519D01*
X138938000Y-102309395D01*
X141174876Y-100072519D01*
X140862692Y-99623823D01*
X140266741Y-99303388D01*
X139619727Y-99105374D01*
X138946516Y-99037390D01*
X138272977Y-99102051D01*
X137624994Y-99296870D01*
X137027470Y-99614361D01*
X137013308Y-99623823D01*
X136701124Y-100072519D01*
X136423000Y-100072519D01*
X136423000Y-95962589D01*
X139839000Y-95962589D01*
X139839000Y-96235411D01*
X139892225Y-96502989D01*
X139996629Y-96755043D01*
X140148201Y-96981886D01*
X140341114Y-97174799D01*
X140567957Y-97326371D01*
X140820011Y-97430775D01*
X141087589Y-97484000D01*
X141360411Y-97484000D01*
X141627989Y-97430775D01*
X141880043Y-97326371D01*
X142106886Y-97174799D01*
X142299799Y-96981886D01*
X142451371Y-96755043D01*
X142555775Y-96502989D01*
X142609000Y-96235411D01*
X142609000Y-95962589D01*
X146639000Y-95962589D01*
X146639000Y-96235411D01*
X146692225Y-96502989D01*
X146796629Y-96755043D01*
X146948201Y-96981886D01*
X147141114Y-97174799D01*
X147367957Y-97326371D01*
X147620011Y-97430775D01*
X147887589Y-97484000D01*
X148160411Y-97484000D01*
X148427989Y-97430775D01*
X148680043Y-97326371D01*
X148906886Y-97174799D01*
X149099799Y-96981886D01*
X149251371Y-96755043D01*
X149355775Y-96502989D01*
X149409000Y-96235411D01*
X149409000Y-95962589D01*
X149355775Y-95695011D01*
X149251371Y-95442957D01*
X149099799Y-95216114D01*
X148906886Y-95023201D01*
X148680043Y-94871629D01*
X148630574Y-94851139D01*
X148735863Y-94794860D01*
X148801388Y-94555993D01*
X148024000Y-93778605D01*
X147246612Y-94555993D01*
X147312137Y-94794860D01*
X147425201Y-94847918D01*
X147367957Y-94871629D01*
X147141114Y-95023201D01*
X146948201Y-95216114D01*
X146796629Y-95442957D01*
X146692225Y-95695011D01*
X146639000Y-95962589D01*
X142609000Y-95962589D01*
X142555775Y-95695011D01*
X142451371Y-95442957D01*
X142299799Y-95216114D01*
X142106886Y-95023201D01*
X141880043Y-94871629D01*
X141830574Y-94851139D01*
X141935863Y-94794860D01*
X142001388Y-94555993D01*
X141224000Y-93778605D01*
X140446612Y-94555993D01*
X140512137Y-94794860D01*
X140625201Y-94847918D01*
X140567957Y-94871629D01*
X140341114Y-95023201D01*
X140148201Y-95216114D01*
X139996629Y-95442957D01*
X139892225Y-95695011D01*
X139839000Y-95962589D01*
X136423000Y-95962589D01*
X136423000Y-93671492D01*
X139834188Y-93671492D01*
X139875035Y-93941238D01*
X139967723Y-94197832D01*
X140028140Y-94310863D01*
X140267007Y-94376388D01*
X141044395Y-93599000D01*
X141403605Y-93599000D01*
X142180993Y-94376388D01*
X142419860Y-94310863D01*
X142535760Y-94063884D01*
X142601250Y-93799040D01*
X142607129Y-93671492D01*
X146634188Y-93671492D01*
X146675035Y-93941238D01*
X146767723Y-94197832D01*
X146828140Y-94310863D01*
X147067007Y-94376388D01*
X147844395Y-93599000D01*
X148203605Y-93599000D01*
X148980993Y-94376388D01*
X149219860Y-94310863D01*
X149335760Y-94063884D01*
X149401250Y-93799040D01*
X149413812Y-93526508D01*
X149372965Y-93256762D01*
X149280277Y-93000168D01*
X149219860Y-92887137D01*
X148980993Y-92821612D01*
X148203605Y-93599000D01*
X147844395Y-93599000D01*
X147067007Y-92821612D01*
X146828140Y-92887137D01*
X146712240Y-93134116D01*
X146646750Y-93398960D01*
X146634188Y-93671492D01*
X142607129Y-93671492D01*
X142613812Y-93526508D01*
X142572965Y-93256762D01*
X142480277Y-93000168D01*
X142419860Y-92887137D01*
X142180993Y-92821612D01*
X141403605Y-93599000D01*
X141044395Y-93599000D01*
X140267007Y-92821612D01*
X140028140Y-92887137D01*
X139912240Y-93134116D01*
X139846750Y-93398960D01*
X139834188Y-93671492D01*
X136423000Y-93671492D01*
X136423000Y-92476840D01*
X136752568Y-92697051D01*
X137183426Y-92875518D01*
X137640822Y-92966500D01*
X138107178Y-92966500D01*
X138564574Y-92875518D01*
X138995432Y-92697051D01*
X139077811Y-92642007D01*
X140446612Y-92642007D01*
X141224000Y-93419395D01*
X142001388Y-92642007D01*
X147246612Y-92642007D01*
X148024000Y-93419395D01*
X148801388Y-92642007D01*
X148735863Y-92403140D01*
X148488884Y-92287240D01*
X148224040Y-92221750D01*
X147951508Y-92209188D01*
X147681762Y-92250035D01*
X147425168Y-92342723D01*
X147312137Y-92403140D01*
X147246612Y-92642007D01*
X142001388Y-92642007D01*
X141935863Y-92403140D01*
X141688884Y-92287240D01*
X141424040Y-92221750D01*
X141151508Y-92209188D01*
X140881762Y-92250035D01*
X140625168Y-92342723D01*
X140512137Y-92403140D01*
X140446612Y-92642007D01*
X139077811Y-92642007D01*
X139383193Y-92437957D01*
X139712957Y-92108193D01*
X139972051Y-91720432D01*
X140150518Y-91289574D01*
X140241500Y-90832178D01*
X140241500Y-90365822D01*
X140150518Y-89908426D01*
X140008607Y-89565822D01*
X142256500Y-89565822D01*
X142256500Y-90032178D01*
X142347482Y-90489574D01*
X142525949Y-90920432D01*
X142785043Y-91308193D01*
X143114807Y-91637957D01*
X143502568Y-91897051D01*
X143933426Y-92075518D01*
X144390822Y-92166500D01*
X144857178Y-92166500D01*
X145314574Y-92075518D01*
X145745432Y-91897051D01*
X146133193Y-91637957D01*
X146462957Y-91308193D01*
X146722051Y-90920432D01*
X146900518Y-90489574D01*
X146925133Y-90365822D01*
X149006500Y-90365822D01*
X149006500Y-90832178D01*
X149097482Y-91289574D01*
X149275949Y-91720432D01*
X149535043Y-92108193D01*
X149864807Y-92437957D01*
X150252568Y-92697051D01*
X150683426Y-92875518D01*
X151140822Y-92966500D01*
X151607178Y-92966500D01*
X152064574Y-92875518D01*
X152495432Y-92697051D01*
X152883193Y-92437957D01*
X153212957Y-92108193D01*
X153472051Y-91720432D01*
X153650518Y-91289574D01*
X153741500Y-90832178D01*
X153741500Y-90365822D01*
X153650518Y-89908426D01*
X153472051Y-89477568D01*
X153212957Y-89089807D01*
X152883193Y-88760043D01*
X152495432Y-88500949D01*
X152064574Y-88322482D01*
X151607178Y-88231500D01*
X151140822Y-88231500D01*
X150683426Y-88322482D01*
X150252568Y-88500949D01*
X149864807Y-88760043D01*
X149535043Y-89089807D01*
X149275949Y-89477568D01*
X149097482Y-89908426D01*
X149006500Y-90365822D01*
X146925133Y-90365822D01*
X146991500Y-90032178D01*
X146991500Y-89565822D01*
X146900518Y-89108426D01*
X146722051Y-88677568D01*
X146462957Y-88289807D01*
X146133193Y-87960043D01*
X145745432Y-87700949D01*
X145314574Y-87522482D01*
X144857178Y-87431500D01*
X144390822Y-87431500D01*
X143933426Y-87522482D01*
X143502568Y-87700949D01*
X143114807Y-87960043D01*
X142785043Y-88289807D01*
X142525949Y-88677568D01*
X142347482Y-89108426D01*
X142256500Y-89565822D01*
X140008607Y-89565822D01*
X139972051Y-89477568D01*
X139712957Y-89089807D01*
X139383193Y-88760043D01*
X138995432Y-88500949D01*
X138564574Y-88322482D01*
X138107178Y-88231500D01*
X137640822Y-88231500D01*
X137183426Y-88322482D01*
X136752568Y-88500949D01*
X136423000Y-88721160D01*
X136423000Y-84480000D01*
X152629001Y-84480000D01*
X152629000Y-85184580D01*
M02*
