G04 #@! TF.GenerationSoftware,KiCad,Pcbnew,(5.1.4)-1*
G04 #@! TF.CreationDate,2020-06-09T22:55:59+02:00*
G04 #@! TF.ProjectId,S-VHS ZX Spectrum Rev. B,532d5648-5320-45a5-9820-537065637472,rev?*
G04 #@! TF.SameCoordinates,Original*
G04 #@! TF.FileFunction,Legend,Bot*
G04 #@! TF.FilePolarity,Positive*
%FSLAX46Y46*%
G04 Gerber Fmt 4.6, Leading zero omitted, Abs format (unit mm)*
G04 Created by KiCad (PCBNEW (5.1.4)-1) date 2020-06-09 22:55:59*
%MOMM*%
%LPD*%
G04 APERTURE LIST*
%ADD10C,0.150000*%
%ADD11C,0.200000*%
%ADD12C,0.010000*%
G04 APERTURE END LIST*
D10*
X176235571Y-87026714D02*
X176273666Y-87064809D01*
X176387952Y-87102904D01*
X176464142Y-87102904D01*
X176578428Y-87064809D01*
X176654619Y-86988619D01*
X176692714Y-86912428D01*
X176730809Y-86760047D01*
X176730809Y-86645761D01*
X176692714Y-86493380D01*
X176654619Y-86417190D01*
X176578428Y-86341000D01*
X176464142Y-86302904D01*
X176387952Y-86302904D01*
X176273666Y-86341000D01*
X176235571Y-86379095D01*
X175892714Y-87102904D02*
X175892714Y-86569571D01*
X175892714Y-86721952D02*
X175854619Y-86645761D01*
X175816523Y-86607666D01*
X175740333Y-86569571D01*
X175664142Y-86569571D01*
X175092714Y-87064809D02*
X175168904Y-87102904D01*
X175321285Y-87102904D01*
X175397476Y-87064809D01*
X175435571Y-86988619D01*
X175435571Y-86683857D01*
X175397476Y-86607666D01*
X175321285Y-86569571D01*
X175168904Y-86569571D01*
X175092714Y-86607666D01*
X175054619Y-86683857D01*
X175054619Y-86760047D01*
X175435571Y-86836238D01*
X174368904Y-87102904D02*
X174368904Y-86302904D01*
X174368904Y-87064809D02*
X174445095Y-87102904D01*
X174597476Y-87102904D01*
X174673666Y-87064809D01*
X174711761Y-87026714D01*
X174749857Y-86950523D01*
X174749857Y-86721952D01*
X174711761Y-86645761D01*
X174673666Y-86607666D01*
X174597476Y-86569571D01*
X174445095Y-86569571D01*
X174368904Y-86607666D01*
X173987952Y-87102904D02*
X173987952Y-86569571D01*
X173987952Y-86302904D02*
X174026047Y-86341000D01*
X173987952Y-86379095D01*
X173949857Y-86341000D01*
X173987952Y-86302904D01*
X173987952Y-86379095D01*
X173721285Y-86569571D02*
X173416523Y-86569571D01*
X173607000Y-86302904D02*
X173607000Y-86988619D01*
X173568904Y-87064809D01*
X173492714Y-87102904D01*
X173416523Y-87102904D01*
X173187952Y-87064809D02*
X173111761Y-87102904D01*
X172959380Y-87102904D01*
X172883190Y-87064809D01*
X172845095Y-86988619D01*
X172845095Y-86950523D01*
X172883190Y-86874333D01*
X172959380Y-86836238D01*
X173073666Y-86836238D01*
X173149857Y-86798142D01*
X173187952Y-86721952D01*
X173187952Y-86683857D01*
X173149857Y-86607666D01*
X173073666Y-86569571D01*
X172959380Y-86569571D01*
X172883190Y-86607666D01*
X172007000Y-86569571D02*
X171702238Y-86569571D01*
X171892714Y-86302904D02*
X171892714Y-86988619D01*
X171854619Y-87064809D01*
X171778428Y-87102904D01*
X171702238Y-87102904D01*
X171321285Y-87102904D02*
X171397476Y-87064809D01*
X171435571Y-87026714D01*
X171473666Y-86950523D01*
X171473666Y-86721952D01*
X171435571Y-86645761D01*
X171397476Y-86607666D01*
X171321285Y-86569571D01*
X171207000Y-86569571D01*
X171130809Y-86607666D01*
X171092714Y-86645761D01*
X171054619Y-86721952D01*
X171054619Y-86950523D01*
X171092714Y-87026714D01*
X171130809Y-87064809D01*
X171207000Y-87102904D01*
X171321285Y-87102904D01*
X170711761Y-87026714D02*
X170673666Y-87064809D01*
X170711761Y-87102904D01*
X170749857Y-87064809D01*
X170711761Y-87026714D01*
X170711761Y-87102904D01*
X170711761Y-86607666D02*
X170673666Y-86645761D01*
X170711761Y-86683857D01*
X170749857Y-86645761D01*
X170711761Y-86607666D01*
X170711761Y-86683857D01*
X169302238Y-87102904D02*
X169759380Y-87102904D01*
X169530809Y-87102904D02*
X169530809Y-86302904D01*
X169607000Y-86417190D01*
X169683190Y-86493380D01*
X169759380Y-86531476D01*
X168807000Y-86302904D02*
X168730809Y-86302904D01*
X168654619Y-86341000D01*
X168616523Y-86379095D01*
X168578428Y-86455285D01*
X168540333Y-86607666D01*
X168540333Y-86798142D01*
X168578428Y-86950523D01*
X168616523Y-87026714D01*
X168654619Y-87064809D01*
X168730809Y-87102904D01*
X168807000Y-87102904D01*
X168883190Y-87064809D01*
X168921285Y-87026714D01*
X168959380Y-86950523D01*
X168997476Y-86798142D01*
X168997476Y-86607666D01*
X168959380Y-86455285D01*
X168921285Y-86379095D01*
X168883190Y-86341000D01*
X168807000Y-86302904D01*
X168235571Y-86379095D02*
X168197476Y-86341000D01*
X168121285Y-86302904D01*
X167930809Y-86302904D01*
X167854619Y-86341000D01*
X167816523Y-86379095D01*
X167778428Y-86455285D01*
X167778428Y-86531476D01*
X167816523Y-86645761D01*
X168273666Y-87102904D01*
X167778428Y-87102904D01*
X167092714Y-86569571D02*
X167092714Y-87102904D01*
X167283190Y-86264809D02*
X167473666Y-86836238D01*
X166978428Y-86836238D01*
X166673666Y-87102904D02*
X166673666Y-86302904D01*
X166407000Y-86874333D01*
X166140333Y-86302904D01*
X166140333Y-87102904D01*
X165797476Y-86874333D02*
X165416523Y-86874333D01*
X165873666Y-87102904D02*
X165607000Y-86302904D01*
X165340333Y-87102904D01*
X165073666Y-87102904D02*
X165073666Y-86302904D01*
X164616523Y-87102904D02*
X164959380Y-86645761D01*
X164616523Y-86302904D02*
X165073666Y-86760047D01*
X163016523Y-87102904D02*
X163054619Y-87102904D01*
X163130809Y-87064809D01*
X163245095Y-86950523D01*
X163435571Y-86721952D01*
X163511761Y-86607666D01*
X163549857Y-86493380D01*
X163549857Y-86417190D01*
X163511761Y-86341000D01*
X163435571Y-86302904D01*
X163397476Y-86302904D01*
X163321285Y-86341000D01*
X163283190Y-86417190D01*
X163283190Y-86455285D01*
X163321285Y-86531476D01*
X163359380Y-86569571D01*
X163587952Y-86721952D01*
X163626047Y-86760047D01*
X163664142Y-86836238D01*
X163664142Y-86950523D01*
X163626047Y-87026714D01*
X163587952Y-87064809D01*
X163511761Y-87102904D01*
X163397476Y-87102904D01*
X163321285Y-87064809D01*
X163283190Y-87026714D01*
X163168904Y-86874333D01*
X163130809Y-86760047D01*
X163130809Y-86683857D01*
X161607000Y-87102904D02*
X161873666Y-86721952D01*
X162064142Y-87102904D02*
X162064142Y-86302904D01*
X161759380Y-86302904D01*
X161683190Y-86341000D01*
X161645095Y-86379095D01*
X161607000Y-86455285D01*
X161607000Y-86569571D01*
X161645095Y-86645761D01*
X161683190Y-86683857D01*
X161759380Y-86721952D01*
X162064142Y-86721952D01*
X160845095Y-86341000D02*
X160921285Y-86302904D01*
X161035571Y-86302904D01*
X161149857Y-86341000D01*
X161226047Y-86417190D01*
X161264142Y-86493380D01*
X161302238Y-86645761D01*
X161302238Y-86760047D01*
X161264142Y-86912428D01*
X161226047Y-86988619D01*
X161149857Y-87064809D01*
X161035571Y-87102904D01*
X160959380Y-87102904D01*
X160845095Y-87064809D01*
X160807000Y-87026714D01*
X160807000Y-86760047D01*
X160959380Y-86760047D01*
X160502238Y-86874333D02*
X160121285Y-86874333D01*
X160578428Y-87102904D02*
X160311761Y-86302904D01*
X160045095Y-87102904D01*
X159816523Y-86379095D02*
X159778428Y-86341000D01*
X159702238Y-86302904D01*
X159511761Y-86302904D01*
X159435571Y-86341000D01*
X159397476Y-86379095D01*
X159359380Y-86455285D01*
X159359380Y-86531476D01*
X159397476Y-86645761D01*
X159854619Y-87102904D01*
X159359380Y-87102904D01*
X158673666Y-86569571D02*
X158673666Y-87102904D01*
X158864142Y-86264809D02*
X159054619Y-86836238D01*
X158559380Y-86836238D01*
X157645095Y-87102904D02*
X157645095Y-86302904D01*
X157302238Y-87102904D02*
X157302238Y-86683857D01*
X157340333Y-86607666D01*
X157416523Y-86569571D01*
X157530809Y-86569571D01*
X157607000Y-86607666D01*
X157645095Y-86645761D01*
X157035571Y-86569571D02*
X156730809Y-86569571D01*
X156921285Y-86302904D02*
X156921285Y-86988619D01*
X156883190Y-87064809D01*
X156807000Y-87102904D01*
X156730809Y-87102904D01*
X156578428Y-86569571D02*
X156273666Y-86569571D01*
X156464142Y-86302904D02*
X156464142Y-86988619D01*
X156426047Y-87064809D01*
X156349857Y-87102904D01*
X156273666Y-87102904D01*
X156007000Y-86569571D02*
X156007000Y-87369571D01*
X156007000Y-86607666D02*
X155930809Y-86569571D01*
X155778428Y-86569571D01*
X155702238Y-86607666D01*
X155664142Y-86645761D01*
X155626047Y-86721952D01*
X155626047Y-86950523D01*
X155664142Y-87026714D01*
X155702238Y-87064809D01*
X155778428Y-87102904D01*
X155930809Y-87102904D01*
X156007000Y-87064809D01*
X155283190Y-87026714D02*
X155245095Y-87064809D01*
X155283190Y-87102904D01*
X155321285Y-87064809D01*
X155283190Y-87026714D01*
X155283190Y-87102904D01*
X155283190Y-86607666D02*
X155245095Y-86645761D01*
X155283190Y-86683857D01*
X155321285Y-86645761D01*
X155283190Y-86607666D01*
X155283190Y-86683857D01*
X154330809Y-86264809D02*
X155016523Y-87293380D01*
X153492714Y-86264809D02*
X154178428Y-87293380D01*
X153302238Y-86569571D02*
X153149857Y-87102904D01*
X152997476Y-86721952D01*
X152845095Y-87102904D01*
X152692714Y-86569571D01*
X152464142Y-86569571D02*
X152311761Y-87102904D01*
X152159380Y-86721952D01*
X152007000Y-87102904D01*
X151854619Y-86569571D01*
X151626047Y-86569571D02*
X151473666Y-87102904D01*
X151321285Y-86721952D01*
X151168904Y-87102904D01*
X151016523Y-86569571D01*
X150711761Y-87026714D02*
X150673666Y-87064809D01*
X150711761Y-87102904D01*
X150749857Y-87064809D01*
X150711761Y-87026714D01*
X150711761Y-87102904D01*
X150407000Y-86569571D02*
X150254619Y-87102904D01*
X150102238Y-86721952D01*
X149949857Y-87102904D01*
X149797476Y-86569571D01*
X149378428Y-87102904D02*
X149454619Y-87064809D01*
X149492714Y-87026714D01*
X149530809Y-86950523D01*
X149530809Y-86721952D01*
X149492714Y-86645761D01*
X149454619Y-86607666D01*
X149378428Y-86569571D01*
X149264142Y-86569571D01*
X149187952Y-86607666D01*
X149149857Y-86645761D01*
X149111761Y-86721952D01*
X149111761Y-86950523D01*
X149149857Y-87026714D01*
X149187952Y-87064809D01*
X149264142Y-87102904D01*
X149378428Y-87102904D01*
X148768904Y-87102904D02*
X148768904Y-86569571D01*
X148768904Y-86721952D02*
X148730809Y-86645761D01*
X148692714Y-86607666D01*
X148616523Y-86569571D01*
X148540333Y-86569571D01*
X148159380Y-87102904D02*
X148235571Y-87064809D01*
X148273666Y-86988619D01*
X148273666Y-86302904D01*
X147511761Y-87102904D02*
X147511761Y-86302904D01*
X147511761Y-87064809D02*
X147587952Y-87102904D01*
X147740333Y-87102904D01*
X147816523Y-87064809D01*
X147854619Y-87026714D01*
X147892714Y-86950523D01*
X147892714Y-86721952D01*
X147854619Y-86645761D01*
X147816523Y-86607666D01*
X147740333Y-86569571D01*
X147587952Y-86569571D01*
X147511761Y-86607666D01*
X147016523Y-87102904D02*
X147092714Y-87064809D01*
X147130809Y-87026714D01*
X147168904Y-86950523D01*
X147168904Y-86721952D01*
X147130809Y-86645761D01*
X147092714Y-86607666D01*
X147016523Y-86569571D01*
X146902238Y-86569571D01*
X146826047Y-86607666D01*
X146787952Y-86645761D01*
X146749857Y-86721952D01*
X146749857Y-86950523D01*
X146787952Y-87026714D01*
X146826047Y-87064809D01*
X146902238Y-87102904D01*
X147016523Y-87102904D01*
X146521285Y-86569571D02*
X146216523Y-86569571D01*
X146407000Y-87102904D02*
X146407000Y-86417190D01*
X146368904Y-86341000D01*
X146292714Y-86302904D01*
X146216523Y-86302904D01*
X145987952Y-87064809D02*
X145911761Y-87102904D01*
X145759380Y-87102904D01*
X145683190Y-87064809D01*
X145645095Y-86988619D01*
X145645095Y-86950523D01*
X145683190Y-86874333D01*
X145759380Y-86836238D01*
X145873666Y-86836238D01*
X145949857Y-86798142D01*
X145987952Y-86721952D01*
X145987952Y-86683857D01*
X145949857Y-86607666D01*
X145873666Y-86569571D01*
X145759380Y-86569571D01*
X145683190Y-86607666D01*
X145302238Y-86569571D02*
X145302238Y-87369571D01*
X145302238Y-86607666D02*
X145226047Y-86569571D01*
X145073666Y-86569571D01*
X144997476Y-86607666D01*
X144959380Y-86645761D01*
X144921285Y-86721952D01*
X144921285Y-86950523D01*
X144959380Y-87026714D01*
X144997476Y-87064809D01*
X145073666Y-87102904D01*
X145226047Y-87102904D01*
X145302238Y-87064809D01*
X144273666Y-87064809D02*
X144349857Y-87102904D01*
X144502238Y-87102904D01*
X144578428Y-87064809D01*
X144616523Y-86988619D01*
X144616523Y-86683857D01*
X144578428Y-86607666D01*
X144502238Y-86569571D01*
X144349857Y-86569571D01*
X144273666Y-86607666D01*
X144235571Y-86683857D01*
X144235571Y-86760047D01*
X144616523Y-86836238D01*
X143549857Y-87064809D02*
X143626047Y-87102904D01*
X143778428Y-87102904D01*
X143854619Y-87064809D01*
X143892714Y-87026714D01*
X143930809Y-86950523D01*
X143930809Y-86721952D01*
X143892714Y-86645761D01*
X143854619Y-86607666D01*
X143778428Y-86569571D01*
X143626047Y-86569571D01*
X143549857Y-86607666D01*
X143321285Y-86569571D02*
X143016523Y-86569571D01*
X143207000Y-86302904D02*
X143207000Y-86988619D01*
X143168904Y-87064809D01*
X143092714Y-87102904D01*
X143016523Y-87102904D01*
X142749857Y-87102904D02*
X142749857Y-86569571D01*
X142749857Y-86721952D02*
X142711761Y-86645761D01*
X142673666Y-86607666D01*
X142597476Y-86569571D01*
X142521285Y-86569571D01*
X141911761Y-86569571D02*
X141911761Y-87102904D01*
X142254619Y-86569571D02*
X142254619Y-86988619D01*
X142216523Y-87064809D01*
X142140333Y-87102904D01*
X142026047Y-87102904D01*
X141949857Y-87064809D01*
X141911761Y-87026714D01*
X141530809Y-87102904D02*
X141530809Y-86569571D01*
X141530809Y-86645761D02*
X141492714Y-86607666D01*
X141416523Y-86569571D01*
X141302238Y-86569571D01*
X141226047Y-86607666D01*
X141187952Y-86683857D01*
X141187952Y-87102904D01*
X141187952Y-86683857D02*
X141149857Y-86607666D01*
X141073666Y-86569571D01*
X140959380Y-86569571D01*
X140883190Y-86607666D01*
X140845095Y-86683857D01*
X140845095Y-87102904D01*
X140464142Y-87026714D02*
X140426047Y-87064809D01*
X140464142Y-87102904D01*
X140502238Y-87064809D01*
X140464142Y-87026714D01*
X140464142Y-87102904D01*
X139968904Y-87102904D02*
X140045095Y-87064809D01*
X140083190Y-87026714D01*
X140121285Y-86950523D01*
X140121285Y-86721952D01*
X140083190Y-86645761D01*
X140045095Y-86607666D01*
X139968904Y-86569571D01*
X139854619Y-86569571D01*
X139778428Y-86607666D01*
X139740333Y-86645761D01*
X139702238Y-86721952D01*
X139702238Y-86950523D01*
X139740333Y-87026714D01*
X139778428Y-87064809D01*
X139854619Y-87102904D01*
X139968904Y-87102904D01*
X139359380Y-87102904D02*
X139359380Y-86569571D01*
X139359380Y-86721952D02*
X139321285Y-86645761D01*
X139283190Y-86607666D01*
X139207000Y-86569571D01*
X139130809Y-86569571D01*
X138521285Y-86569571D02*
X138521285Y-87217190D01*
X138559380Y-87293380D01*
X138597476Y-87331476D01*
X138673666Y-87369571D01*
X138787952Y-87369571D01*
X138864142Y-87331476D01*
X138521285Y-87064809D02*
X138597476Y-87102904D01*
X138749857Y-87102904D01*
X138826047Y-87064809D01*
X138864142Y-87026714D01*
X138902238Y-86950523D01*
X138902238Y-86721952D01*
X138864142Y-86645761D01*
X138826047Y-86607666D01*
X138749857Y-86569571D01*
X138597476Y-86569571D01*
X138521285Y-86607666D01*
D11*
X175702809Y-111702904D02*
X175169476Y-111702904D01*
X175702809Y-112502904D01*
X175169476Y-112502904D01*
X174940904Y-111702904D02*
X174407571Y-112502904D01*
X174407571Y-111702904D02*
X174940904Y-112502904D01*
X173531380Y-112464809D02*
X173417095Y-112502904D01*
X173226619Y-112502904D01*
X173150428Y-112464809D01*
X173112333Y-112426714D01*
X173074238Y-112350523D01*
X173074238Y-112274333D01*
X173112333Y-112198142D01*
X173150428Y-112160047D01*
X173226619Y-112121952D01*
X173379000Y-112083857D01*
X173455190Y-112045761D01*
X173493285Y-112007666D01*
X173531380Y-111931476D01*
X173531380Y-111855285D01*
X173493285Y-111779095D01*
X173455190Y-111741000D01*
X173379000Y-111702904D01*
X173188523Y-111702904D01*
X173074238Y-111741000D01*
X172731380Y-111969571D02*
X172731380Y-112769571D01*
X172731380Y-112007666D02*
X172655190Y-111969571D01*
X172502809Y-111969571D01*
X172426619Y-112007666D01*
X172388523Y-112045761D01*
X172350428Y-112121952D01*
X172350428Y-112350523D01*
X172388523Y-112426714D01*
X172426619Y-112464809D01*
X172502809Y-112502904D01*
X172655190Y-112502904D01*
X172731380Y-112464809D01*
X171702809Y-112464809D02*
X171779000Y-112502904D01*
X171931380Y-112502904D01*
X172007571Y-112464809D01*
X172045666Y-112388619D01*
X172045666Y-112083857D01*
X172007571Y-112007666D01*
X171931380Y-111969571D01*
X171779000Y-111969571D01*
X171702809Y-112007666D01*
X171664714Y-112083857D01*
X171664714Y-112160047D01*
X172045666Y-112236238D01*
X170979000Y-112464809D02*
X171055190Y-112502904D01*
X171207571Y-112502904D01*
X171283761Y-112464809D01*
X171321857Y-112426714D01*
X171359952Y-112350523D01*
X171359952Y-112121952D01*
X171321857Y-112045761D01*
X171283761Y-112007666D01*
X171207571Y-111969571D01*
X171055190Y-111969571D01*
X170979000Y-112007666D01*
X170750428Y-111969571D02*
X170445666Y-111969571D01*
X170636142Y-111702904D02*
X170636142Y-112388619D01*
X170598047Y-112464809D01*
X170521857Y-112502904D01*
X170445666Y-112502904D01*
X170179000Y-112502904D02*
X170179000Y-111969571D01*
X170179000Y-112121952D02*
X170140904Y-112045761D01*
X170102809Y-112007666D01*
X170026619Y-111969571D01*
X169950428Y-111969571D01*
X169340904Y-111969571D02*
X169340904Y-112502904D01*
X169683761Y-111969571D02*
X169683761Y-112388619D01*
X169645666Y-112464809D01*
X169569476Y-112502904D01*
X169455190Y-112502904D01*
X169379000Y-112464809D01*
X169340904Y-112426714D01*
X168959952Y-112502904D02*
X168959952Y-111969571D01*
X168959952Y-112045761D02*
X168921857Y-112007666D01*
X168845666Y-111969571D01*
X168731380Y-111969571D01*
X168655190Y-112007666D01*
X168617095Y-112083857D01*
X168617095Y-112502904D01*
X168617095Y-112083857D02*
X168579000Y-112007666D01*
X168502809Y-111969571D01*
X168388523Y-111969571D01*
X168312333Y-112007666D01*
X168274238Y-112083857D01*
X168274238Y-112502904D01*
X167321857Y-112464809D02*
X167207571Y-112502904D01*
X167017095Y-112502904D01*
X166940904Y-112464809D01*
X166902809Y-112426714D01*
X166864714Y-112350523D01*
X166864714Y-112274333D01*
X166902809Y-112198142D01*
X166940904Y-112160047D01*
X167017095Y-112121952D01*
X167169476Y-112083857D01*
X167245666Y-112045761D01*
X167283761Y-112007666D01*
X167321857Y-111931476D01*
X167321857Y-111855285D01*
X167283761Y-111779095D01*
X167245666Y-111741000D01*
X167169476Y-111702904D01*
X166979000Y-111702904D01*
X166864714Y-111741000D01*
X166521857Y-112198142D02*
X165912333Y-112198142D01*
X165645666Y-111702904D02*
X165379000Y-112502904D01*
X165112333Y-111702904D01*
X164845666Y-112502904D02*
X164845666Y-111969571D01*
X164845666Y-111702904D02*
X164883761Y-111741000D01*
X164845666Y-111779095D01*
X164807571Y-111741000D01*
X164845666Y-111702904D01*
X164845666Y-111779095D01*
X164121857Y-112502904D02*
X164121857Y-111702904D01*
X164121857Y-112464809D02*
X164198047Y-112502904D01*
X164350428Y-112502904D01*
X164426619Y-112464809D01*
X164464714Y-112426714D01*
X164502809Y-112350523D01*
X164502809Y-112121952D01*
X164464714Y-112045761D01*
X164426619Y-112007666D01*
X164350428Y-111969571D01*
X164198047Y-111969571D01*
X164121857Y-112007666D01*
X163436142Y-112464809D02*
X163512333Y-112502904D01*
X163664714Y-112502904D01*
X163740904Y-112464809D01*
X163779000Y-112388619D01*
X163779000Y-112083857D01*
X163740904Y-112007666D01*
X163664714Y-111969571D01*
X163512333Y-111969571D01*
X163436142Y-112007666D01*
X163398047Y-112083857D01*
X163398047Y-112160047D01*
X163779000Y-112236238D01*
X162940904Y-112502904D02*
X163017095Y-112464809D01*
X163055190Y-112426714D01*
X163093285Y-112350523D01*
X163093285Y-112121952D01*
X163055190Y-112045761D01*
X163017095Y-112007666D01*
X162940904Y-111969571D01*
X162826619Y-111969571D01*
X162750428Y-112007666D01*
X162712333Y-112045761D01*
X162674238Y-112121952D01*
X162674238Y-112350523D01*
X162712333Y-112426714D01*
X162750428Y-112464809D01*
X162826619Y-112502904D01*
X162940904Y-112502904D01*
X161721857Y-112502904D02*
X161721857Y-111702904D01*
X161455190Y-112274333D01*
X161188523Y-111702904D01*
X161188523Y-112502904D01*
X160693285Y-112502904D02*
X160769476Y-112464809D01*
X160807571Y-112426714D01*
X160845666Y-112350523D01*
X160845666Y-112121952D01*
X160807571Y-112045761D01*
X160769476Y-112007666D01*
X160693285Y-111969571D01*
X160579000Y-111969571D01*
X160502809Y-112007666D01*
X160464714Y-112045761D01*
X160426619Y-112121952D01*
X160426619Y-112350523D01*
X160464714Y-112426714D01*
X160502809Y-112464809D01*
X160579000Y-112502904D01*
X160693285Y-112502904D01*
X159740904Y-112502904D02*
X159740904Y-111702904D01*
X159740904Y-112464809D02*
X159817095Y-112502904D01*
X159969476Y-112502904D01*
X160045666Y-112464809D01*
X160083761Y-112426714D01*
X160121857Y-112350523D01*
X160121857Y-112121952D01*
X160083761Y-112045761D01*
X160045666Y-112007666D01*
X159969476Y-111969571D01*
X159817095Y-111969571D01*
X159740904Y-112007666D01*
X159359952Y-112502904D02*
X159359952Y-111969571D01*
X159359952Y-111702904D02*
X159398047Y-111741000D01*
X159359952Y-111779095D01*
X159321857Y-111741000D01*
X159359952Y-111702904D01*
X159359952Y-111779095D01*
X159093285Y-111969571D02*
X158788523Y-111969571D01*
X158979000Y-112502904D02*
X158979000Y-111817190D01*
X158940904Y-111741000D01*
X158864714Y-111702904D01*
X158788523Y-111702904D01*
X158521857Y-112502904D02*
X158521857Y-111969571D01*
X158521857Y-111702904D02*
X158559952Y-111741000D01*
X158521857Y-111779095D01*
X158483761Y-111741000D01*
X158521857Y-111702904D01*
X158521857Y-111779095D01*
X157798047Y-112464809D02*
X157874238Y-112502904D01*
X158026619Y-112502904D01*
X158102809Y-112464809D01*
X158140904Y-112426714D01*
X158179000Y-112350523D01*
X158179000Y-112121952D01*
X158140904Y-112045761D01*
X158102809Y-112007666D01*
X158026619Y-111969571D01*
X157874238Y-111969571D01*
X157798047Y-112007666D01*
X157112333Y-112502904D02*
X157112333Y-112083857D01*
X157150428Y-112007666D01*
X157226619Y-111969571D01*
X157379000Y-111969571D01*
X157455190Y-112007666D01*
X157112333Y-112464809D02*
X157188523Y-112502904D01*
X157379000Y-112502904D01*
X157455190Y-112464809D01*
X157493285Y-112388619D01*
X157493285Y-112312428D01*
X157455190Y-112236238D01*
X157379000Y-112198142D01*
X157188523Y-112198142D01*
X157112333Y-112160047D01*
X156845666Y-111969571D02*
X156540904Y-111969571D01*
X156731380Y-111702904D02*
X156731380Y-112388619D01*
X156693285Y-112464809D01*
X156617095Y-112502904D01*
X156540904Y-112502904D01*
X156274238Y-112502904D02*
X156274238Y-111969571D01*
X156274238Y-111702904D02*
X156312333Y-111741000D01*
X156274238Y-111779095D01*
X156236142Y-111741000D01*
X156274238Y-111702904D01*
X156274238Y-111779095D01*
X155779000Y-112502904D02*
X155855190Y-112464809D01*
X155893285Y-112426714D01*
X155931380Y-112350523D01*
X155931380Y-112121952D01*
X155893285Y-112045761D01*
X155855190Y-112007666D01*
X155779000Y-111969571D01*
X155664714Y-111969571D01*
X155588523Y-112007666D01*
X155550428Y-112045761D01*
X155512333Y-112121952D01*
X155512333Y-112350523D01*
X155550428Y-112426714D01*
X155588523Y-112464809D01*
X155664714Y-112502904D01*
X155779000Y-112502904D01*
X155169476Y-111969571D02*
X155169476Y-112502904D01*
X155169476Y-112045761D02*
X155131380Y-112007666D01*
X155055190Y-111969571D01*
X154940904Y-111969571D01*
X154864714Y-112007666D01*
X154826619Y-112083857D01*
X154826619Y-112502904D01*
X153836142Y-112198142D02*
X153226619Y-112198142D01*
X151779000Y-112502904D02*
X152045666Y-112121952D01*
X152236142Y-112502904D02*
X152236142Y-111702904D01*
X151931380Y-111702904D01*
X151855190Y-111741000D01*
X151817095Y-111779095D01*
X151779000Y-111855285D01*
X151779000Y-111969571D01*
X151817095Y-112045761D01*
X151855190Y-112083857D01*
X151931380Y-112121952D01*
X152236142Y-112121952D01*
X151131380Y-112464809D02*
X151207571Y-112502904D01*
X151359952Y-112502904D01*
X151436142Y-112464809D01*
X151474238Y-112388619D01*
X151474238Y-112083857D01*
X151436142Y-112007666D01*
X151359952Y-111969571D01*
X151207571Y-111969571D01*
X151131380Y-112007666D01*
X151093285Y-112083857D01*
X151093285Y-112160047D01*
X151474238Y-112236238D01*
X150826619Y-111969571D02*
X150636142Y-112502904D01*
X150445666Y-111969571D01*
X150140904Y-112426714D02*
X150102809Y-112464809D01*
X150140904Y-112502904D01*
X150179000Y-112464809D01*
X150140904Y-112426714D01*
X150140904Y-112502904D01*
X148883761Y-112083857D02*
X148769476Y-112121952D01*
X148731380Y-112160047D01*
X148693285Y-112236238D01*
X148693285Y-112350523D01*
X148731380Y-112426714D01*
X148769476Y-112464809D01*
X148845666Y-112502904D01*
X149150428Y-112502904D01*
X149150428Y-111702904D01*
X148883761Y-111702904D01*
X148807571Y-111741000D01*
X148769476Y-111779095D01*
X148731380Y-111855285D01*
X148731380Y-111931476D01*
X148769476Y-112007666D01*
X148807571Y-112045761D01*
X148883761Y-112083857D01*
X149150428Y-112083857D01*
D12*
G36*
X166649371Y-109457066D02*
G01*
X166609889Y-109457467D01*
X166494200Y-109460259D01*
X166397311Y-109468550D01*
X166315919Y-109483232D01*
X166246723Y-109505193D01*
X166186420Y-109535322D01*
X166131708Y-109574510D01*
X166112167Y-109591532D01*
X166079750Y-109631363D01*
X166050520Y-109685413D01*
X166027991Y-109745323D01*
X166015679Y-109802739D01*
X166014400Y-109823956D01*
X166022417Y-109882769D01*
X166043899Y-109947013D01*
X166074999Y-110007821D01*
X166111866Y-110056330D01*
X166117854Y-110062182D01*
X166168579Y-110103321D01*
X166224125Y-110135435D01*
X166287696Y-110159365D01*
X166362494Y-110175953D01*
X166451722Y-110186041D01*
X166558582Y-110190469D01*
X166607528Y-110190845D01*
X166669762Y-110190545D01*
X166713528Y-110189292D01*
X166742931Y-110186554D01*
X166762079Y-110181801D01*
X166775077Y-110174501D01*
X166782045Y-110168267D01*
X166788626Y-110160694D01*
X166793788Y-110150924D01*
X166797703Y-110136340D01*
X166800543Y-110114326D01*
X166802480Y-110082264D01*
X166803684Y-110037536D01*
X166804328Y-109977526D01*
X166804583Y-109899617D01*
X166804622Y-109823956D01*
X166804870Y-109723041D01*
X166804817Y-109642427D01*
X166803857Y-109603822D01*
X166657867Y-109603822D01*
X166657867Y-110044089D01*
X166564734Y-110044004D01*
X166508693Y-110042396D01*
X166449999Y-110038256D01*
X166401028Y-110032464D01*
X166399538Y-110032226D01*
X166320392Y-110013090D01*
X166259002Y-109983287D01*
X166212305Y-109940878D01*
X166182635Y-109894961D01*
X166164353Y-109844026D01*
X166165771Y-109796200D01*
X166186988Y-109744933D01*
X166228489Y-109691899D01*
X166285998Y-109652600D01*
X166360750Y-109626331D01*
X166410708Y-109617035D01*
X166467416Y-109610507D01*
X166527519Y-109605782D01*
X166578639Y-109603817D01*
X166581667Y-109603808D01*
X166657867Y-109603822D01*
X166803857Y-109603822D01*
X166803260Y-109579851D01*
X166798998Y-109533055D01*
X166790830Y-109499778D01*
X166777556Y-109477759D01*
X166757974Y-109464739D01*
X166730883Y-109458457D01*
X166695082Y-109456653D01*
X166649371Y-109457066D01*
X166649371Y-109457066D01*
G37*
X166649371Y-109457066D02*
X166609889Y-109457467D01*
X166494200Y-109460259D01*
X166397311Y-109468550D01*
X166315919Y-109483232D01*
X166246723Y-109505193D01*
X166186420Y-109535322D01*
X166131708Y-109574510D01*
X166112167Y-109591532D01*
X166079750Y-109631363D01*
X166050520Y-109685413D01*
X166027991Y-109745323D01*
X166015679Y-109802739D01*
X166014400Y-109823956D01*
X166022417Y-109882769D01*
X166043899Y-109947013D01*
X166074999Y-110007821D01*
X166111866Y-110056330D01*
X166117854Y-110062182D01*
X166168579Y-110103321D01*
X166224125Y-110135435D01*
X166287696Y-110159365D01*
X166362494Y-110175953D01*
X166451722Y-110186041D01*
X166558582Y-110190469D01*
X166607528Y-110190845D01*
X166669762Y-110190545D01*
X166713528Y-110189292D01*
X166742931Y-110186554D01*
X166762079Y-110181801D01*
X166775077Y-110174501D01*
X166782045Y-110168267D01*
X166788626Y-110160694D01*
X166793788Y-110150924D01*
X166797703Y-110136340D01*
X166800543Y-110114326D01*
X166802480Y-110082264D01*
X166803684Y-110037536D01*
X166804328Y-109977526D01*
X166804583Y-109899617D01*
X166804622Y-109823956D01*
X166804870Y-109723041D01*
X166804817Y-109642427D01*
X166803857Y-109603822D01*
X166657867Y-109603822D01*
X166657867Y-110044089D01*
X166564734Y-110044004D01*
X166508693Y-110042396D01*
X166449999Y-110038256D01*
X166401028Y-110032464D01*
X166399538Y-110032226D01*
X166320392Y-110013090D01*
X166259002Y-109983287D01*
X166212305Y-109940878D01*
X166182635Y-109894961D01*
X166164353Y-109844026D01*
X166165771Y-109796200D01*
X166186988Y-109744933D01*
X166228489Y-109691899D01*
X166285998Y-109652600D01*
X166360750Y-109626331D01*
X166410708Y-109617035D01*
X166467416Y-109610507D01*
X166527519Y-109605782D01*
X166578639Y-109603817D01*
X166581667Y-109603808D01*
X166657867Y-109603822D01*
X166803857Y-109603822D01*
X166803260Y-109579851D01*
X166798998Y-109533055D01*
X166790830Y-109499778D01*
X166777556Y-109477759D01*
X166757974Y-109464739D01*
X166730883Y-109458457D01*
X166695082Y-109456653D01*
X166649371Y-109457066D01*
G36*
X165240794Y-109457146D02*
G01*
X165171386Y-109457518D01*
X165118997Y-109458385D01*
X165080847Y-109459946D01*
X165054159Y-109462403D01*
X165036153Y-109465957D01*
X165024049Y-109470810D01*
X165015069Y-109477161D01*
X165011818Y-109480084D01*
X164992043Y-109511142D01*
X164988482Y-109546828D01*
X165001491Y-109578510D01*
X165007506Y-109584913D01*
X165017235Y-109591121D01*
X165032901Y-109595910D01*
X165057408Y-109599514D01*
X165093661Y-109602164D01*
X165144565Y-109604095D01*
X165213026Y-109605539D01*
X165275617Y-109606418D01*
X165523334Y-109609467D01*
X165526719Y-109674378D01*
X165530105Y-109739289D01*
X165361958Y-109739289D01*
X165288959Y-109739919D01*
X165235517Y-109742553D01*
X165198628Y-109748309D01*
X165175288Y-109758304D01*
X165162494Y-109773656D01*
X165157242Y-109795482D01*
X165156445Y-109815738D01*
X165158923Y-109840592D01*
X165168277Y-109858906D01*
X165187383Y-109871637D01*
X165219118Y-109879741D01*
X165266359Y-109884176D01*
X165331983Y-109885899D01*
X165367801Y-109886045D01*
X165528978Y-109886045D01*
X165528978Y-110044089D01*
X165280622Y-110044089D01*
X165199213Y-110044202D01*
X165137342Y-110044712D01*
X165091968Y-110045870D01*
X165060054Y-110047930D01*
X165038559Y-110051146D01*
X165024443Y-110055772D01*
X165014668Y-110062059D01*
X165009689Y-110066667D01*
X164992610Y-110093560D01*
X164987111Y-110117467D01*
X164994963Y-110146667D01*
X165009689Y-110168267D01*
X165017546Y-110175066D01*
X165027688Y-110180346D01*
X165042844Y-110184298D01*
X165065741Y-110187113D01*
X165099109Y-110188982D01*
X165145675Y-110190098D01*
X165208167Y-110190651D01*
X165289314Y-110190833D01*
X165331422Y-110190845D01*
X165421598Y-110190765D01*
X165491924Y-110190398D01*
X165545129Y-110189552D01*
X165583940Y-110188036D01*
X165611087Y-110185659D01*
X165629298Y-110182229D01*
X165641300Y-110177554D01*
X165649822Y-110171444D01*
X165653156Y-110168267D01*
X165659755Y-110160670D01*
X165664927Y-110150870D01*
X165668846Y-110136239D01*
X165671684Y-110114152D01*
X165673615Y-110081982D01*
X165674812Y-110037103D01*
X165675448Y-109976889D01*
X165675697Y-109898713D01*
X165675734Y-109825923D01*
X165675700Y-109732707D01*
X165675465Y-109659431D01*
X165674830Y-109603458D01*
X165673594Y-109562151D01*
X165671556Y-109532872D01*
X165668517Y-109512984D01*
X165664277Y-109499850D01*
X165658635Y-109490832D01*
X165651391Y-109483293D01*
X165649606Y-109481612D01*
X165640945Y-109474172D01*
X165630882Y-109468409D01*
X165616625Y-109464112D01*
X165595383Y-109461064D01*
X165564364Y-109459051D01*
X165520777Y-109457860D01*
X165461831Y-109457275D01*
X165384734Y-109457083D01*
X165330001Y-109457067D01*
X165240794Y-109457146D01*
X165240794Y-109457146D01*
G37*
X165240794Y-109457146D02*
X165171386Y-109457518D01*
X165118997Y-109458385D01*
X165080847Y-109459946D01*
X165054159Y-109462403D01*
X165036153Y-109465957D01*
X165024049Y-109470810D01*
X165015069Y-109477161D01*
X165011818Y-109480084D01*
X164992043Y-109511142D01*
X164988482Y-109546828D01*
X165001491Y-109578510D01*
X165007506Y-109584913D01*
X165017235Y-109591121D01*
X165032901Y-109595910D01*
X165057408Y-109599514D01*
X165093661Y-109602164D01*
X165144565Y-109604095D01*
X165213026Y-109605539D01*
X165275617Y-109606418D01*
X165523334Y-109609467D01*
X165526719Y-109674378D01*
X165530105Y-109739289D01*
X165361958Y-109739289D01*
X165288959Y-109739919D01*
X165235517Y-109742553D01*
X165198628Y-109748309D01*
X165175288Y-109758304D01*
X165162494Y-109773656D01*
X165157242Y-109795482D01*
X165156445Y-109815738D01*
X165158923Y-109840592D01*
X165168277Y-109858906D01*
X165187383Y-109871637D01*
X165219118Y-109879741D01*
X165266359Y-109884176D01*
X165331983Y-109885899D01*
X165367801Y-109886045D01*
X165528978Y-109886045D01*
X165528978Y-110044089D01*
X165280622Y-110044089D01*
X165199213Y-110044202D01*
X165137342Y-110044712D01*
X165091968Y-110045870D01*
X165060054Y-110047930D01*
X165038559Y-110051146D01*
X165024443Y-110055772D01*
X165014668Y-110062059D01*
X165009689Y-110066667D01*
X164992610Y-110093560D01*
X164987111Y-110117467D01*
X164994963Y-110146667D01*
X165009689Y-110168267D01*
X165017546Y-110175066D01*
X165027688Y-110180346D01*
X165042844Y-110184298D01*
X165065741Y-110187113D01*
X165099109Y-110188982D01*
X165145675Y-110190098D01*
X165208167Y-110190651D01*
X165289314Y-110190833D01*
X165331422Y-110190845D01*
X165421598Y-110190765D01*
X165491924Y-110190398D01*
X165545129Y-110189552D01*
X165583940Y-110188036D01*
X165611087Y-110185659D01*
X165629298Y-110182229D01*
X165641300Y-110177554D01*
X165649822Y-110171444D01*
X165653156Y-110168267D01*
X165659755Y-110160670D01*
X165664927Y-110150870D01*
X165668846Y-110136239D01*
X165671684Y-110114152D01*
X165673615Y-110081982D01*
X165674812Y-110037103D01*
X165675448Y-109976889D01*
X165675697Y-109898713D01*
X165675734Y-109825923D01*
X165675700Y-109732707D01*
X165675465Y-109659431D01*
X165674830Y-109603458D01*
X165673594Y-109562151D01*
X165671556Y-109532872D01*
X165668517Y-109512984D01*
X165664277Y-109499850D01*
X165658635Y-109490832D01*
X165651391Y-109483293D01*
X165649606Y-109481612D01*
X165640945Y-109474172D01*
X165630882Y-109468409D01*
X165616625Y-109464112D01*
X165595383Y-109461064D01*
X165564364Y-109459051D01*
X165520777Y-109457860D01*
X165461831Y-109457275D01*
X165384734Y-109457083D01*
X165330001Y-109457067D01*
X165240794Y-109457146D01*
G36*
X164219703Y-109458351D02*
G01*
X164144888Y-109463581D01*
X164075306Y-109471750D01*
X164015002Y-109482550D01*
X163968020Y-109495673D01*
X163938406Y-109510813D01*
X163933860Y-109515269D01*
X163918054Y-109549850D01*
X163922847Y-109585351D01*
X163947364Y-109615725D01*
X163948534Y-109616596D01*
X163962954Y-109625954D01*
X163978008Y-109630876D01*
X163999005Y-109631473D01*
X164031257Y-109627861D01*
X164080073Y-109620154D01*
X164084000Y-109619505D01*
X164156739Y-109610569D01*
X164235217Y-109606161D01*
X164313927Y-109606119D01*
X164387361Y-109610279D01*
X164450011Y-109618479D01*
X164496370Y-109630557D01*
X164499416Y-109631771D01*
X164533048Y-109650615D01*
X164544864Y-109669685D01*
X164535614Y-109688439D01*
X164506047Y-109706337D01*
X164456911Y-109722837D01*
X164388957Y-109737396D01*
X164343645Y-109744406D01*
X164249456Y-109757889D01*
X164174544Y-109770214D01*
X164115717Y-109782449D01*
X164069785Y-109795661D01*
X164033555Y-109810917D01*
X164003838Y-109829285D01*
X163977442Y-109851831D01*
X163956230Y-109873971D01*
X163931065Y-109904819D01*
X163918681Y-109931345D01*
X163914808Y-109964026D01*
X163914667Y-109975995D01*
X163917576Y-110015712D01*
X163929202Y-110045259D01*
X163949323Y-110071486D01*
X163990216Y-110111576D01*
X164035817Y-110142149D01*
X164089513Y-110164203D01*
X164154692Y-110178735D01*
X164234744Y-110186741D01*
X164333057Y-110189218D01*
X164349289Y-110189177D01*
X164414849Y-110187818D01*
X164479866Y-110184730D01*
X164537252Y-110180356D01*
X164579922Y-110175140D01*
X164583372Y-110174541D01*
X164625796Y-110164491D01*
X164661780Y-110151796D01*
X164682150Y-110140190D01*
X164701107Y-110109572D01*
X164702427Y-110073918D01*
X164686085Y-110042144D01*
X164682429Y-110038551D01*
X164667315Y-110027876D01*
X164648415Y-110023276D01*
X164619162Y-110024059D01*
X164583651Y-110028127D01*
X164543970Y-110031762D01*
X164488345Y-110034828D01*
X164423406Y-110037053D01*
X164355785Y-110038164D01*
X164338000Y-110038237D01*
X164270128Y-110037964D01*
X164220454Y-110036646D01*
X164184610Y-110033827D01*
X164158224Y-110029050D01*
X164136926Y-110021857D01*
X164124126Y-110015867D01*
X164096000Y-109999233D01*
X164078068Y-109984168D01*
X164075447Y-109979897D01*
X164080976Y-109962263D01*
X164107260Y-109945192D01*
X164152478Y-109929458D01*
X164214808Y-109915838D01*
X164233171Y-109912804D01*
X164329090Y-109897738D01*
X164405641Y-109885146D01*
X164465780Y-109874111D01*
X164512460Y-109863720D01*
X164548637Y-109853056D01*
X164577265Y-109841205D01*
X164601298Y-109827251D01*
X164623692Y-109810281D01*
X164647402Y-109789378D01*
X164655380Y-109782049D01*
X164683353Y-109754699D01*
X164698160Y-109733029D01*
X164703952Y-109708232D01*
X164704889Y-109676983D01*
X164694575Y-109615705D01*
X164663752Y-109563640D01*
X164612595Y-109520958D01*
X164541283Y-109487825D01*
X164490400Y-109472964D01*
X164435100Y-109463366D01*
X164368853Y-109457936D01*
X164295706Y-109456367D01*
X164219703Y-109458351D01*
X164219703Y-109458351D01*
G37*
X164219703Y-109458351D02*
X164144888Y-109463581D01*
X164075306Y-109471750D01*
X164015002Y-109482550D01*
X163968020Y-109495673D01*
X163938406Y-109510813D01*
X163933860Y-109515269D01*
X163918054Y-109549850D01*
X163922847Y-109585351D01*
X163947364Y-109615725D01*
X163948534Y-109616596D01*
X163962954Y-109625954D01*
X163978008Y-109630876D01*
X163999005Y-109631473D01*
X164031257Y-109627861D01*
X164080073Y-109620154D01*
X164084000Y-109619505D01*
X164156739Y-109610569D01*
X164235217Y-109606161D01*
X164313927Y-109606119D01*
X164387361Y-109610279D01*
X164450011Y-109618479D01*
X164496370Y-109630557D01*
X164499416Y-109631771D01*
X164533048Y-109650615D01*
X164544864Y-109669685D01*
X164535614Y-109688439D01*
X164506047Y-109706337D01*
X164456911Y-109722837D01*
X164388957Y-109737396D01*
X164343645Y-109744406D01*
X164249456Y-109757889D01*
X164174544Y-109770214D01*
X164115717Y-109782449D01*
X164069785Y-109795661D01*
X164033555Y-109810917D01*
X164003838Y-109829285D01*
X163977442Y-109851831D01*
X163956230Y-109873971D01*
X163931065Y-109904819D01*
X163918681Y-109931345D01*
X163914808Y-109964026D01*
X163914667Y-109975995D01*
X163917576Y-110015712D01*
X163929202Y-110045259D01*
X163949323Y-110071486D01*
X163990216Y-110111576D01*
X164035817Y-110142149D01*
X164089513Y-110164203D01*
X164154692Y-110178735D01*
X164234744Y-110186741D01*
X164333057Y-110189218D01*
X164349289Y-110189177D01*
X164414849Y-110187818D01*
X164479866Y-110184730D01*
X164537252Y-110180356D01*
X164579922Y-110175140D01*
X164583372Y-110174541D01*
X164625796Y-110164491D01*
X164661780Y-110151796D01*
X164682150Y-110140190D01*
X164701107Y-110109572D01*
X164702427Y-110073918D01*
X164686085Y-110042144D01*
X164682429Y-110038551D01*
X164667315Y-110027876D01*
X164648415Y-110023276D01*
X164619162Y-110024059D01*
X164583651Y-110028127D01*
X164543970Y-110031762D01*
X164488345Y-110034828D01*
X164423406Y-110037053D01*
X164355785Y-110038164D01*
X164338000Y-110038237D01*
X164270128Y-110037964D01*
X164220454Y-110036646D01*
X164184610Y-110033827D01*
X164158224Y-110029050D01*
X164136926Y-110021857D01*
X164124126Y-110015867D01*
X164096000Y-109999233D01*
X164078068Y-109984168D01*
X164075447Y-109979897D01*
X164080976Y-109962263D01*
X164107260Y-109945192D01*
X164152478Y-109929458D01*
X164214808Y-109915838D01*
X164233171Y-109912804D01*
X164329090Y-109897738D01*
X164405641Y-109885146D01*
X164465780Y-109874111D01*
X164512460Y-109863720D01*
X164548637Y-109853056D01*
X164577265Y-109841205D01*
X164601298Y-109827251D01*
X164623692Y-109810281D01*
X164647402Y-109789378D01*
X164655380Y-109782049D01*
X164683353Y-109754699D01*
X164698160Y-109733029D01*
X164703952Y-109708232D01*
X164704889Y-109676983D01*
X164694575Y-109615705D01*
X164663752Y-109563640D01*
X164612595Y-109520958D01*
X164541283Y-109487825D01*
X164490400Y-109472964D01*
X164435100Y-109463366D01*
X164368853Y-109457936D01*
X164295706Y-109456367D01*
X164219703Y-109458351D01*
G36*
X163451822Y-109479645D02*
G01*
X163445242Y-109487218D01*
X163440079Y-109496987D01*
X163436164Y-109511571D01*
X163433324Y-109533585D01*
X163431387Y-109565648D01*
X163430183Y-109610375D01*
X163429539Y-109670385D01*
X163429284Y-109748294D01*
X163429245Y-109823956D01*
X163429314Y-109917802D01*
X163429638Y-109991689D01*
X163430386Y-110048232D01*
X163431732Y-110090049D01*
X163433846Y-110119757D01*
X163436900Y-110139973D01*
X163441066Y-110153314D01*
X163446516Y-110162398D01*
X163451822Y-110168267D01*
X163484826Y-110187947D01*
X163519991Y-110186181D01*
X163551455Y-110164717D01*
X163558684Y-110156337D01*
X163564334Y-110146614D01*
X163568599Y-110132861D01*
X163571673Y-110112389D01*
X163573752Y-110082512D01*
X163575030Y-110040541D01*
X163575701Y-109983789D01*
X163575959Y-109909567D01*
X163576000Y-109825537D01*
X163576000Y-109512485D01*
X163548291Y-109484776D01*
X163514137Y-109461463D01*
X163481006Y-109460623D01*
X163451822Y-109479645D01*
X163451822Y-109479645D01*
G37*
X163451822Y-109479645D02*
X163445242Y-109487218D01*
X163440079Y-109496987D01*
X163436164Y-109511571D01*
X163433324Y-109533585D01*
X163431387Y-109565648D01*
X163430183Y-109610375D01*
X163429539Y-109670385D01*
X163429284Y-109748294D01*
X163429245Y-109823956D01*
X163429314Y-109917802D01*
X163429638Y-109991689D01*
X163430386Y-110048232D01*
X163431732Y-110090049D01*
X163433846Y-110119757D01*
X163436900Y-110139973D01*
X163441066Y-110153314D01*
X163446516Y-110162398D01*
X163451822Y-110168267D01*
X163484826Y-110187947D01*
X163519991Y-110186181D01*
X163551455Y-110164717D01*
X163558684Y-110156337D01*
X163564334Y-110146614D01*
X163568599Y-110132861D01*
X163571673Y-110112389D01*
X163573752Y-110082512D01*
X163575030Y-110040541D01*
X163575701Y-109983789D01*
X163575959Y-109909567D01*
X163576000Y-109825537D01*
X163576000Y-109512485D01*
X163548291Y-109484776D01*
X163514137Y-109461463D01*
X163481006Y-109460623D01*
X163451822Y-109479645D01*
G36*
X162478081Y-109462599D02*
G01*
X162409565Y-109474095D01*
X162356943Y-109491967D01*
X162322708Y-109515499D01*
X162313379Y-109528924D01*
X162303893Y-109560148D01*
X162310277Y-109588395D01*
X162330430Y-109615182D01*
X162361745Y-109627713D01*
X162407183Y-109626696D01*
X162442326Y-109619906D01*
X162520419Y-109606971D01*
X162600226Y-109605742D01*
X162689555Y-109616241D01*
X162714229Y-109620690D01*
X162797291Y-109644108D01*
X162862273Y-109678945D01*
X162908461Y-109724604D01*
X162935145Y-109780494D01*
X162940663Y-109809388D01*
X162937051Y-109868012D01*
X162913729Y-109919879D01*
X162872824Y-109963978D01*
X162816459Y-109999299D01*
X162746760Y-110024829D01*
X162665852Y-110039559D01*
X162575860Y-110042478D01*
X162478910Y-110032575D01*
X162473436Y-110031641D01*
X162434875Y-110024459D01*
X162413494Y-110017521D01*
X162404227Y-110007227D01*
X162402006Y-109989976D01*
X162401956Y-109980841D01*
X162401956Y-109942489D01*
X162470431Y-109942489D01*
X162530900Y-109938347D01*
X162572165Y-109925147D01*
X162596175Y-109901730D01*
X162604877Y-109866936D01*
X162604983Y-109862394D01*
X162599892Y-109832654D01*
X162582433Y-109811419D01*
X162549939Y-109797366D01*
X162499743Y-109789173D01*
X162451123Y-109786161D01*
X162380456Y-109784433D01*
X162329198Y-109787070D01*
X162294239Y-109796800D01*
X162272470Y-109816353D01*
X162260780Y-109848456D01*
X162256060Y-109895838D01*
X162255200Y-109958071D01*
X162256609Y-110027535D01*
X162260848Y-110074786D01*
X162267936Y-110100012D01*
X162269311Y-110101988D01*
X162308228Y-110133508D01*
X162365286Y-110158470D01*
X162436869Y-110176340D01*
X162519358Y-110186586D01*
X162609139Y-110188673D01*
X162702592Y-110182068D01*
X162757556Y-110173956D01*
X162843766Y-110149554D01*
X162923892Y-110109662D01*
X162990977Y-110057887D01*
X163001173Y-110047539D01*
X163034302Y-110004035D01*
X163064194Y-109950118D01*
X163087357Y-109893592D01*
X163100298Y-109842259D01*
X163101858Y-109822544D01*
X163095218Y-109781419D01*
X163077568Y-109730252D01*
X163052297Y-109676394D01*
X163022789Y-109627195D01*
X162996719Y-109594334D01*
X162935765Y-109545452D01*
X162856969Y-109506545D01*
X162763157Y-109478494D01*
X162657150Y-109462179D01*
X162560000Y-109458192D01*
X162478081Y-109462599D01*
X162478081Y-109462599D01*
G37*
X162478081Y-109462599D02*
X162409565Y-109474095D01*
X162356943Y-109491967D01*
X162322708Y-109515499D01*
X162313379Y-109528924D01*
X162303893Y-109560148D01*
X162310277Y-109588395D01*
X162330430Y-109615182D01*
X162361745Y-109627713D01*
X162407183Y-109626696D01*
X162442326Y-109619906D01*
X162520419Y-109606971D01*
X162600226Y-109605742D01*
X162689555Y-109616241D01*
X162714229Y-109620690D01*
X162797291Y-109644108D01*
X162862273Y-109678945D01*
X162908461Y-109724604D01*
X162935145Y-109780494D01*
X162940663Y-109809388D01*
X162937051Y-109868012D01*
X162913729Y-109919879D01*
X162872824Y-109963978D01*
X162816459Y-109999299D01*
X162746760Y-110024829D01*
X162665852Y-110039559D01*
X162575860Y-110042478D01*
X162478910Y-110032575D01*
X162473436Y-110031641D01*
X162434875Y-110024459D01*
X162413494Y-110017521D01*
X162404227Y-110007227D01*
X162402006Y-109989976D01*
X162401956Y-109980841D01*
X162401956Y-109942489D01*
X162470431Y-109942489D01*
X162530900Y-109938347D01*
X162572165Y-109925147D01*
X162596175Y-109901730D01*
X162604877Y-109866936D01*
X162604983Y-109862394D01*
X162599892Y-109832654D01*
X162582433Y-109811419D01*
X162549939Y-109797366D01*
X162499743Y-109789173D01*
X162451123Y-109786161D01*
X162380456Y-109784433D01*
X162329198Y-109787070D01*
X162294239Y-109796800D01*
X162272470Y-109816353D01*
X162260780Y-109848456D01*
X162256060Y-109895838D01*
X162255200Y-109958071D01*
X162256609Y-110027535D01*
X162260848Y-110074786D01*
X162267936Y-110100012D01*
X162269311Y-110101988D01*
X162308228Y-110133508D01*
X162365286Y-110158470D01*
X162436869Y-110176340D01*
X162519358Y-110186586D01*
X162609139Y-110188673D01*
X162702592Y-110182068D01*
X162757556Y-110173956D01*
X162843766Y-110149554D01*
X162923892Y-110109662D01*
X162990977Y-110057887D01*
X163001173Y-110047539D01*
X163034302Y-110004035D01*
X163064194Y-109950118D01*
X163087357Y-109893592D01*
X163100298Y-109842259D01*
X163101858Y-109822544D01*
X163095218Y-109781419D01*
X163077568Y-109730252D01*
X163052297Y-109676394D01*
X163022789Y-109627195D01*
X162996719Y-109594334D01*
X162935765Y-109545452D01*
X162856969Y-109506545D01*
X162763157Y-109478494D01*
X162657150Y-109462179D01*
X162560000Y-109458192D01*
X162478081Y-109462599D01*
G36*
X161828114Y-109461448D02*
G01*
X161804548Y-109475273D01*
X161773735Y-109497881D01*
X161734078Y-109530338D01*
X161683980Y-109573708D01*
X161621843Y-109629058D01*
X161546072Y-109697451D01*
X161459334Y-109776084D01*
X161278711Y-109939878D01*
X161273067Y-109720029D01*
X161271029Y-109644351D01*
X161269063Y-109587994D01*
X161266734Y-109547706D01*
X161263606Y-109520235D01*
X161259245Y-109502329D01*
X161253216Y-109490737D01*
X161245084Y-109482208D01*
X161240772Y-109478623D01*
X161206241Y-109459670D01*
X161173383Y-109462441D01*
X161147318Y-109478633D01*
X161120667Y-109500199D01*
X161117352Y-109815151D01*
X161116435Y-109907779D01*
X161115968Y-109980544D01*
X161116113Y-110036161D01*
X161117032Y-110077342D01*
X161118887Y-110106803D01*
X161121839Y-110127255D01*
X161126050Y-110141413D01*
X161131682Y-110151991D01*
X161137927Y-110160474D01*
X161151439Y-110176207D01*
X161164883Y-110186636D01*
X161180124Y-110190639D01*
X161199026Y-110187094D01*
X161223455Y-110174879D01*
X161255273Y-110152871D01*
X161296348Y-110119949D01*
X161348542Y-110074991D01*
X161413722Y-110016875D01*
X161487556Y-109950099D01*
X161752845Y-109709458D01*
X161758489Y-109928589D01*
X161760531Y-110004128D01*
X161762502Y-110060354D01*
X161764839Y-110100524D01*
X161767981Y-110127896D01*
X161772364Y-110145728D01*
X161778424Y-110157279D01*
X161786600Y-110165807D01*
X161790784Y-110169282D01*
X161827765Y-110188372D01*
X161862708Y-110185493D01*
X161893136Y-110161100D01*
X161900097Y-110151286D01*
X161905523Y-110139826D01*
X161909603Y-110123968D01*
X161912529Y-110100963D01*
X161914492Y-110068062D01*
X161915683Y-110022516D01*
X161916292Y-109961573D01*
X161916511Y-109882486D01*
X161916534Y-109823956D01*
X161916460Y-109732407D01*
X161916113Y-109660687D01*
X161915301Y-109606045D01*
X161913833Y-109565732D01*
X161911519Y-109536998D01*
X161908167Y-109517093D01*
X161903588Y-109503268D01*
X161897589Y-109492772D01*
X161893136Y-109486811D01*
X161881850Y-109472691D01*
X161871301Y-109462029D01*
X161859893Y-109455892D01*
X161846030Y-109455343D01*
X161828114Y-109461448D01*
X161828114Y-109461448D01*
G37*
X161828114Y-109461448D02*
X161804548Y-109475273D01*
X161773735Y-109497881D01*
X161734078Y-109530338D01*
X161683980Y-109573708D01*
X161621843Y-109629058D01*
X161546072Y-109697451D01*
X161459334Y-109776084D01*
X161278711Y-109939878D01*
X161273067Y-109720029D01*
X161271029Y-109644351D01*
X161269063Y-109587994D01*
X161266734Y-109547706D01*
X161263606Y-109520235D01*
X161259245Y-109502329D01*
X161253216Y-109490737D01*
X161245084Y-109482208D01*
X161240772Y-109478623D01*
X161206241Y-109459670D01*
X161173383Y-109462441D01*
X161147318Y-109478633D01*
X161120667Y-109500199D01*
X161117352Y-109815151D01*
X161116435Y-109907779D01*
X161115968Y-109980544D01*
X161116113Y-110036161D01*
X161117032Y-110077342D01*
X161118887Y-110106803D01*
X161121839Y-110127255D01*
X161126050Y-110141413D01*
X161131682Y-110151991D01*
X161137927Y-110160474D01*
X161151439Y-110176207D01*
X161164883Y-110186636D01*
X161180124Y-110190639D01*
X161199026Y-110187094D01*
X161223455Y-110174879D01*
X161255273Y-110152871D01*
X161296348Y-110119949D01*
X161348542Y-110074991D01*
X161413722Y-110016875D01*
X161487556Y-109950099D01*
X161752845Y-109709458D01*
X161758489Y-109928589D01*
X161760531Y-110004128D01*
X161762502Y-110060354D01*
X161764839Y-110100524D01*
X161767981Y-110127896D01*
X161772364Y-110145728D01*
X161778424Y-110157279D01*
X161786600Y-110165807D01*
X161790784Y-110169282D01*
X161827765Y-110188372D01*
X161862708Y-110185493D01*
X161893136Y-110161100D01*
X161900097Y-110151286D01*
X161905523Y-110139826D01*
X161909603Y-110123968D01*
X161912529Y-110100963D01*
X161914492Y-110068062D01*
X161915683Y-110022516D01*
X161916292Y-109961573D01*
X161916511Y-109882486D01*
X161916534Y-109823956D01*
X161916460Y-109732407D01*
X161916113Y-109660687D01*
X161915301Y-109606045D01*
X161913833Y-109565732D01*
X161911519Y-109536998D01*
X161908167Y-109517093D01*
X161903588Y-109503268D01*
X161897589Y-109492772D01*
X161893136Y-109486811D01*
X161881850Y-109472691D01*
X161871301Y-109462029D01*
X161859893Y-109455892D01*
X161846030Y-109455343D01*
X161828114Y-109461448D01*
G36*
X160297657Y-109457260D02*
G01*
X160221299Y-109458174D01*
X160162783Y-109460311D01*
X160119745Y-109464175D01*
X160089817Y-109470267D01*
X160070632Y-109479090D01*
X160059824Y-109491146D01*
X160055027Y-109506939D01*
X160053873Y-109526970D01*
X160053867Y-109529335D01*
X160054869Y-109551992D01*
X160059604Y-109569503D01*
X160070667Y-109582574D01*
X160090652Y-109591913D01*
X160122154Y-109598227D01*
X160167768Y-109602222D01*
X160230087Y-109604606D01*
X160311707Y-109606086D01*
X160336723Y-109606414D01*
X160578800Y-109609467D01*
X160582186Y-109674378D01*
X160585571Y-109739289D01*
X160417424Y-109739289D01*
X160351734Y-109739531D01*
X160304828Y-109740556D01*
X160272917Y-109742811D01*
X160252209Y-109746742D01*
X160238916Y-109752798D01*
X160229245Y-109761424D01*
X160229183Y-109761493D01*
X160211644Y-109795112D01*
X160212278Y-109831448D01*
X160230686Y-109862423D01*
X160234329Y-109865607D01*
X160247259Y-109873812D01*
X160264976Y-109879521D01*
X160291430Y-109883162D01*
X160330568Y-109885167D01*
X160386338Y-109885964D01*
X160422006Y-109886045D01*
X160584445Y-109886045D01*
X160584445Y-110044089D01*
X160337839Y-110044089D01*
X160256420Y-110044231D01*
X160194590Y-110044814D01*
X160149363Y-110046068D01*
X160117752Y-110048227D01*
X160096769Y-110051523D01*
X160083427Y-110056189D01*
X160074739Y-110062457D01*
X160072550Y-110064733D01*
X160056386Y-110096280D01*
X160055203Y-110132168D01*
X160068464Y-110163285D01*
X160078957Y-110173271D01*
X160089871Y-110178769D01*
X160106783Y-110183022D01*
X160132367Y-110186180D01*
X160169299Y-110188392D01*
X160220254Y-110189806D01*
X160287906Y-110190572D01*
X160374931Y-110190838D01*
X160394606Y-110190845D01*
X160483089Y-110190787D01*
X160551773Y-110190467D01*
X160603436Y-110189667D01*
X160640855Y-110188167D01*
X160666810Y-110185749D01*
X160684078Y-110182194D01*
X160695438Y-110177282D01*
X160703668Y-110170795D01*
X160708183Y-110166138D01*
X160714979Y-110157889D01*
X160720288Y-110147669D01*
X160724294Y-110132800D01*
X160727179Y-110110602D01*
X160729126Y-110078393D01*
X160730319Y-110033496D01*
X160730939Y-109973228D01*
X160731171Y-109894911D01*
X160731200Y-109828994D01*
X160731129Y-109736628D01*
X160730792Y-109664117D01*
X160730002Y-109608737D01*
X160728574Y-109567765D01*
X160726321Y-109538478D01*
X160723057Y-109518153D01*
X160718596Y-109504066D01*
X160712752Y-109493495D01*
X160707803Y-109486811D01*
X160684406Y-109457067D01*
X160394226Y-109457067D01*
X160297657Y-109457260D01*
X160297657Y-109457260D01*
G37*
X160297657Y-109457260D02*
X160221299Y-109458174D01*
X160162783Y-109460311D01*
X160119745Y-109464175D01*
X160089817Y-109470267D01*
X160070632Y-109479090D01*
X160059824Y-109491146D01*
X160055027Y-109506939D01*
X160053873Y-109526970D01*
X160053867Y-109529335D01*
X160054869Y-109551992D01*
X160059604Y-109569503D01*
X160070667Y-109582574D01*
X160090652Y-109591913D01*
X160122154Y-109598227D01*
X160167768Y-109602222D01*
X160230087Y-109604606D01*
X160311707Y-109606086D01*
X160336723Y-109606414D01*
X160578800Y-109609467D01*
X160582186Y-109674378D01*
X160585571Y-109739289D01*
X160417424Y-109739289D01*
X160351734Y-109739531D01*
X160304828Y-109740556D01*
X160272917Y-109742811D01*
X160252209Y-109746742D01*
X160238916Y-109752798D01*
X160229245Y-109761424D01*
X160229183Y-109761493D01*
X160211644Y-109795112D01*
X160212278Y-109831448D01*
X160230686Y-109862423D01*
X160234329Y-109865607D01*
X160247259Y-109873812D01*
X160264976Y-109879521D01*
X160291430Y-109883162D01*
X160330568Y-109885167D01*
X160386338Y-109885964D01*
X160422006Y-109886045D01*
X160584445Y-109886045D01*
X160584445Y-110044089D01*
X160337839Y-110044089D01*
X160256420Y-110044231D01*
X160194590Y-110044814D01*
X160149363Y-110046068D01*
X160117752Y-110048227D01*
X160096769Y-110051523D01*
X160083427Y-110056189D01*
X160074739Y-110062457D01*
X160072550Y-110064733D01*
X160056386Y-110096280D01*
X160055203Y-110132168D01*
X160068464Y-110163285D01*
X160078957Y-110173271D01*
X160089871Y-110178769D01*
X160106783Y-110183022D01*
X160132367Y-110186180D01*
X160169299Y-110188392D01*
X160220254Y-110189806D01*
X160287906Y-110190572D01*
X160374931Y-110190838D01*
X160394606Y-110190845D01*
X160483089Y-110190787D01*
X160551773Y-110190467D01*
X160603436Y-110189667D01*
X160640855Y-110188167D01*
X160666810Y-110185749D01*
X160684078Y-110182194D01*
X160695438Y-110177282D01*
X160703668Y-110170795D01*
X160708183Y-110166138D01*
X160714979Y-110157889D01*
X160720288Y-110147669D01*
X160724294Y-110132800D01*
X160727179Y-110110602D01*
X160729126Y-110078393D01*
X160730319Y-110033496D01*
X160730939Y-109973228D01*
X160731171Y-109894911D01*
X160731200Y-109828994D01*
X160731129Y-109736628D01*
X160730792Y-109664117D01*
X160730002Y-109608737D01*
X160728574Y-109567765D01*
X160726321Y-109538478D01*
X160723057Y-109518153D01*
X160718596Y-109504066D01*
X160712752Y-109493495D01*
X160707803Y-109486811D01*
X160684406Y-109457067D01*
X160394226Y-109457067D01*
X160297657Y-109457260D01*
G36*
X159509691Y-109457275D02*
G01*
X159380712Y-109461636D01*
X159271009Y-109474861D01*
X159178774Y-109497741D01*
X159102198Y-109531070D01*
X159039473Y-109575638D01*
X158988788Y-109632236D01*
X158948337Y-109701658D01*
X158947541Y-109703351D01*
X158923399Y-109765483D01*
X158914797Y-109820509D01*
X158921769Y-109875887D01*
X158944346Y-109939073D01*
X158948628Y-109948689D01*
X158977828Y-110004966D01*
X159010644Y-110048451D01*
X159052998Y-110085417D01*
X159110810Y-110122135D01*
X159114169Y-110124052D01*
X159164496Y-110148227D01*
X159221379Y-110166282D01*
X159288473Y-110178839D01*
X159369435Y-110186522D01*
X159467918Y-110189953D01*
X159502714Y-110190251D01*
X159668406Y-110190845D01*
X159691803Y-110161100D01*
X159698743Y-110151319D01*
X159704158Y-110139897D01*
X159708235Y-110124095D01*
X159711163Y-110101175D01*
X159713133Y-110068396D01*
X159713775Y-110044089D01*
X159557156Y-110044089D01*
X159463274Y-110044089D01*
X159408336Y-110042483D01*
X159351940Y-110038255D01*
X159305655Y-110032292D01*
X159302861Y-110031790D01*
X159220652Y-110009736D01*
X159156886Y-109976600D01*
X159109548Y-109930847D01*
X159076618Y-109870939D01*
X159070892Y-109855061D01*
X159065279Y-109830333D01*
X159067709Y-109805902D01*
X159079533Y-109773400D01*
X159086660Y-109757434D01*
X159110000Y-109715006D01*
X159138120Y-109685240D01*
X159169060Y-109664511D01*
X159231034Y-109637537D01*
X159310349Y-109617998D01*
X159402747Y-109606746D01*
X159469667Y-109604270D01*
X159557156Y-109603822D01*
X159557156Y-110044089D01*
X159713775Y-110044089D01*
X159714332Y-110023021D01*
X159714950Y-109962311D01*
X159715175Y-109883526D01*
X159715200Y-109821920D01*
X159715200Y-109512485D01*
X159687491Y-109484776D01*
X159675194Y-109473544D01*
X159661897Y-109465853D01*
X159643328Y-109461040D01*
X159615214Y-109458446D01*
X159573283Y-109457410D01*
X159513263Y-109457270D01*
X159509691Y-109457275D01*
X159509691Y-109457275D01*
G37*
X159509691Y-109457275D02*
X159380712Y-109461636D01*
X159271009Y-109474861D01*
X159178774Y-109497741D01*
X159102198Y-109531070D01*
X159039473Y-109575638D01*
X158988788Y-109632236D01*
X158948337Y-109701658D01*
X158947541Y-109703351D01*
X158923399Y-109765483D01*
X158914797Y-109820509D01*
X158921769Y-109875887D01*
X158944346Y-109939073D01*
X158948628Y-109948689D01*
X158977828Y-110004966D01*
X159010644Y-110048451D01*
X159052998Y-110085417D01*
X159110810Y-110122135D01*
X159114169Y-110124052D01*
X159164496Y-110148227D01*
X159221379Y-110166282D01*
X159288473Y-110178839D01*
X159369435Y-110186522D01*
X159467918Y-110189953D01*
X159502714Y-110190251D01*
X159668406Y-110190845D01*
X159691803Y-110161100D01*
X159698743Y-110151319D01*
X159704158Y-110139897D01*
X159708235Y-110124095D01*
X159711163Y-110101175D01*
X159713133Y-110068396D01*
X159713775Y-110044089D01*
X159557156Y-110044089D01*
X159463274Y-110044089D01*
X159408336Y-110042483D01*
X159351940Y-110038255D01*
X159305655Y-110032292D01*
X159302861Y-110031790D01*
X159220652Y-110009736D01*
X159156886Y-109976600D01*
X159109548Y-109930847D01*
X159076618Y-109870939D01*
X159070892Y-109855061D01*
X159065279Y-109830333D01*
X159067709Y-109805902D01*
X159079533Y-109773400D01*
X159086660Y-109757434D01*
X159110000Y-109715006D01*
X159138120Y-109685240D01*
X159169060Y-109664511D01*
X159231034Y-109637537D01*
X159310349Y-109617998D01*
X159402747Y-109606746D01*
X159469667Y-109604270D01*
X159557156Y-109603822D01*
X159557156Y-110044089D01*
X159713775Y-110044089D01*
X159714332Y-110023021D01*
X159714950Y-109962311D01*
X159715175Y-109883526D01*
X159715200Y-109821920D01*
X159715200Y-109512485D01*
X159687491Y-109484776D01*
X159675194Y-109473544D01*
X159661897Y-109465853D01*
X159643328Y-109461040D01*
X159615214Y-109458446D01*
X159573283Y-109457410D01*
X159513263Y-109457270D01*
X159509691Y-109457275D01*
G36*
X156783335Y-109459034D02*
G01*
X156763745Y-109466035D01*
X156762990Y-109466377D01*
X156736387Y-109486678D01*
X156721730Y-109507561D01*
X156718862Y-109517352D01*
X156719004Y-109530361D01*
X156723039Y-109548895D01*
X156731854Y-109575257D01*
X156746331Y-109611752D01*
X156767355Y-109660687D01*
X156795812Y-109724365D01*
X156832585Y-109805093D01*
X156852825Y-109849216D01*
X156889375Y-109927985D01*
X156923685Y-110000423D01*
X156954448Y-110063880D01*
X156980352Y-110115708D01*
X157000090Y-110153259D01*
X157012350Y-110173884D01*
X157014776Y-110176733D01*
X157045817Y-110189302D01*
X157080879Y-110187619D01*
X157109000Y-110172332D01*
X157110146Y-110171089D01*
X157121332Y-110154154D01*
X157140096Y-110121170D01*
X157164125Y-110076380D01*
X157191103Y-110024032D01*
X157200799Y-110004742D01*
X157273986Y-109858150D01*
X157353760Y-110017393D01*
X157382233Y-110072415D01*
X157408650Y-110120132D01*
X157430852Y-110156893D01*
X157446681Y-110179044D01*
X157452046Y-110183741D01*
X157493743Y-110190102D01*
X157528151Y-110176733D01*
X157538272Y-110162446D01*
X157555786Y-110130692D01*
X157579265Y-110084597D01*
X157607280Y-110027285D01*
X157638401Y-109961880D01*
X157671201Y-109891507D01*
X157704250Y-109819291D01*
X157736119Y-109748355D01*
X157765381Y-109681825D01*
X157790605Y-109622826D01*
X157810364Y-109574481D01*
X157823228Y-109539915D01*
X157827769Y-109522253D01*
X157827723Y-109521613D01*
X157816674Y-109499388D01*
X157794590Y-109476753D01*
X157793290Y-109475768D01*
X157766147Y-109460425D01*
X157741042Y-109460574D01*
X157731632Y-109463466D01*
X157720166Y-109469718D01*
X157707990Y-109482014D01*
X157693643Y-109502908D01*
X157675664Y-109534949D01*
X157652593Y-109580688D01*
X157622970Y-109642677D01*
X157596255Y-109699898D01*
X157565520Y-109766226D01*
X157537979Y-109825874D01*
X157515062Y-109875725D01*
X157498202Y-109912664D01*
X157488827Y-109933573D01*
X157487460Y-109936845D01*
X157481311Y-109931497D01*
X157467178Y-109909109D01*
X157446943Y-109872946D01*
X157422485Y-109826277D01*
X157412752Y-109807022D01*
X157379783Y-109742004D01*
X157354357Y-109694654D01*
X157334388Y-109662219D01*
X157317790Y-109641946D01*
X157302476Y-109631082D01*
X157286360Y-109626875D01*
X157275857Y-109626400D01*
X157257330Y-109628042D01*
X157241096Y-109634831D01*
X157224965Y-109649566D01*
X157206749Y-109675044D01*
X157184261Y-109714061D01*
X157155311Y-109769414D01*
X157139338Y-109800903D01*
X157113430Y-109851087D01*
X157090833Y-109892704D01*
X157073542Y-109922242D01*
X157063550Y-109936189D01*
X157062191Y-109936770D01*
X157055739Y-109925793D01*
X157041292Y-109897290D01*
X157020297Y-109854244D01*
X156994203Y-109799638D01*
X156964454Y-109736454D01*
X156949820Y-109705071D01*
X156911750Y-109624078D01*
X156881095Y-109561756D01*
X156856263Y-109516071D01*
X156835663Y-109484989D01*
X156817702Y-109466478D01*
X156800790Y-109458504D01*
X156783335Y-109459034D01*
X156783335Y-109459034D01*
G37*
X156783335Y-109459034D02*
X156763745Y-109466035D01*
X156762990Y-109466377D01*
X156736387Y-109486678D01*
X156721730Y-109507561D01*
X156718862Y-109517352D01*
X156719004Y-109530361D01*
X156723039Y-109548895D01*
X156731854Y-109575257D01*
X156746331Y-109611752D01*
X156767355Y-109660687D01*
X156795812Y-109724365D01*
X156832585Y-109805093D01*
X156852825Y-109849216D01*
X156889375Y-109927985D01*
X156923685Y-110000423D01*
X156954448Y-110063880D01*
X156980352Y-110115708D01*
X157000090Y-110153259D01*
X157012350Y-110173884D01*
X157014776Y-110176733D01*
X157045817Y-110189302D01*
X157080879Y-110187619D01*
X157109000Y-110172332D01*
X157110146Y-110171089D01*
X157121332Y-110154154D01*
X157140096Y-110121170D01*
X157164125Y-110076380D01*
X157191103Y-110024032D01*
X157200799Y-110004742D01*
X157273986Y-109858150D01*
X157353760Y-110017393D01*
X157382233Y-110072415D01*
X157408650Y-110120132D01*
X157430852Y-110156893D01*
X157446681Y-110179044D01*
X157452046Y-110183741D01*
X157493743Y-110190102D01*
X157528151Y-110176733D01*
X157538272Y-110162446D01*
X157555786Y-110130692D01*
X157579265Y-110084597D01*
X157607280Y-110027285D01*
X157638401Y-109961880D01*
X157671201Y-109891507D01*
X157704250Y-109819291D01*
X157736119Y-109748355D01*
X157765381Y-109681825D01*
X157790605Y-109622826D01*
X157810364Y-109574481D01*
X157823228Y-109539915D01*
X157827769Y-109522253D01*
X157827723Y-109521613D01*
X157816674Y-109499388D01*
X157794590Y-109476753D01*
X157793290Y-109475768D01*
X157766147Y-109460425D01*
X157741042Y-109460574D01*
X157731632Y-109463466D01*
X157720166Y-109469718D01*
X157707990Y-109482014D01*
X157693643Y-109502908D01*
X157675664Y-109534949D01*
X157652593Y-109580688D01*
X157622970Y-109642677D01*
X157596255Y-109699898D01*
X157565520Y-109766226D01*
X157537979Y-109825874D01*
X157515062Y-109875725D01*
X157498202Y-109912664D01*
X157488827Y-109933573D01*
X157487460Y-109936845D01*
X157481311Y-109931497D01*
X157467178Y-109909109D01*
X157446943Y-109872946D01*
X157422485Y-109826277D01*
X157412752Y-109807022D01*
X157379783Y-109742004D01*
X157354357Y-109694654D01*
X157334388Y-109662219D01*
X157317790Y-109641946D01*
X157302476Y-109631082D01*
X157286360Y-109626875D01*
X157275857Y-109626400D01*
X157257330Y-109628042D01*
X157241096Y-109634831D01*
X157224965Y-109649566D01*
X157206749Y-109675044D01*
X157184261Y-109714061D01*
X157155311Y-109769414D01*
X157139338Y-109800903D01*
X157113430Y-109851087D01*
X157090833Y-109892704D01*
X157073542Y-109922242D01*
X157063550Y-109936189D01*
X157062191Y-109936770D01*
X157055739Y-109925793D01*
X157041292Y-109897290D01*
X157020297Y-109854244D01*
X156994203Y-109799638D01*
X156964454Y-109736454D01*
X156949820Y-109705071D01*
X156911750Y-109624078D01*
X156881095Y-109561756D01*
X156856263Y-109516071D01*
X156835663Y-109484989D01*
X156817702Y-109466478D01*
X156800790Y-109458504D01*
X156783335Y-109459034D01*
G36*
X156339386Y-109463877D02*
G01*
X156315673Y-109478647D01*
X156289022Y-109500227D01*
X156289022Y-109821773D01*
X156289107Y-109915830D01*
X156289471Y-109989932D01*
X156290276Y-110046704D01*
X156291687Y-110088768D01*
X156293867Y-110118748D01*
X156296979Y-110139267D01*
X156301186Y-110152949D01*
X156306652Y-110162416D01*
X156310528Y-110167082D01*
X156341966Y-110187575D01*
X156377767Y-110186739D01*
X156409127Y-110169264D01*
X156435778Y-110147684D01*
X156435778Y-109500227D01*
X156409127Y-109478647D01*
X156383406Y-109462949D01*
X156362400Y-109457067D01*
X156339386Y-109463877D01*
X156339386Y-109463877D01*
G37*
X156339386Y-109463877D02*
X156315673Y-109478647D01*
X156289022Y-109500227D01*
X156289022Y-109821773D01*
X156289107Y-109915830D01*
X156289471Y-109989932D01*
X156290276Y-110046704D01*
X156291687Y-110088768D01*
X156293867Y-110118748D01*
X156296979Y-110139267D01*
X156301186Y-110152949D01*
X156306652Y-110162416D01*
X156310528Y-110167082D01*
X156341966Y-110187575D01*
X156377767Y-110186739D01*
X156409127Y-110169264D01*
X156435778Y-110147684D01*
X156435778Y-109500227D01*
X156409127Y-109478647D01*
X156383406Y-109462949D01*
X156362400Y-109457067D01*
X156339386Y-109463877D01*
G36*
X155564935Y-109457163D02*
G01*
X155486228Y-109457542D01*
X155425137Y-109458333D01*
X155379183Y-109459670D01*
X155345886Y-109461683D01*
X155322764Y-109464506D01*
X155307338Y-109468269D01*
X155297129Y-109473105D01*
X155292187Y-109476822D01*
X155266543Y-109509358D01*
X155263441Y-109543138D01*
X155279289Y-109573826D01*
X155289652Y-109586089D01*
X155300804Y-109594450D01*
X155316965Y-109599657D01*
X155342358Y-109602457D01*
X155381202Y-109603596D01*
X155437720Y-109603821D01*
X155448820Y-109603822D01*
X155594756Y-109603822D01*
X155594756Y-109874756D01*
X155594852Y-109960154D01*
X155595289Y-110025864D01*
X155596288Y-110074774D01*
X155598072Y-110109773D01*
X155600863Y-110133749D01*
X155604883Y-110149593D01*
X155610355Y-110160191D01*
X155617334Y-110168267D01*
X155650266Y-110188112D01*
X155684646Y-110186548D01*
X155715824Y-110163906D01*
X155718114Y-110161100D01*
X155725571Y-110150492D01*
X155731253Y-110138081D01*
X155735399Y-110120850D01*
X155738250Y-110095784D01*
X155740046Y-110059867D01*
X155741028Y-110010083D01*
X155741436Y-109943417D01*
X155741511Y-109867589D01*
X155741511Y-109603822D01*
X155880873Y-109603822D01*
X155940678Y-109603418D01*
X155982082Y-109601840D01*
X156009252Y-109598547D01*
X156026354Y-109592992D01*
X156037557Y-109584631D01*
X156038917Y-109583178D01*
X156055275Y-109549939D01*
X156053828Y-109512362D01*
X156035022Y-109479645D01*
X156027750Y-109473298D01*
X156018373Y-109468266D01*
X156004391Y-109464396D01*
X155983304Y-109461537D01*
X155952611Y-109459535D01*
X155909811Y-109458239D01*
X155852405Y-109457498D01*
X155777890Y-109457158D01*
X155683767Y-109457068D01*
X155663740Y-109457067D01*
X155564935Y-109457163D01*
X155564935Y-109457163D01*
G37*
X155564935Y-109457163D02*
X155486228Y-109457542D01*
X155425137Y-109458333D01*
X155379183Y-109459670D01*
X155345886Y-109461683D01*
X155322764Y-109464506D01*
X155307338Y-109468269D01*
X155297129Y-109473105D01*
X155292187Y-109476822D01*
X155266543Y-109509358D01*
X155263441Y-109543138D01*
X155279289Y-109573826D01*
X155289652Y-109586089D01*
X155300804Y-109594450D01*
X155316965Y-109599657D01*
X155342358Y-109602457D01*
X155381202Y-109603596D01*
X155437720Y-109603821D01*
X155448820Y-109603822D01*
X155594756Y-109603822D01*
X155594756Y-109874756D01*
X155594852Y-109960154D01*
X155595289Y-110025864D01*
X155596288Y-110074774D01*
X155598072Y-110109773D01*
X155600863Y-110133749D01*
X155604883Y-110149593D01*
X155610355Y-110160191D01*
X155617334Y-110168267D01*
X155650266Y-110188112D01*
X155684646Y-110186548D01*
X155715824Y-110163906D01*
X155718114Y-110161100D01*
X155725571Y-110150492D01*
X155731253Y-110138081D01*
X155735399Y-110120850D01*
X155738250Y-110095784D01*
X155740046Y-110059867D01*
X155741028Y-110010083D01*
X155741436Y-109943417D01*
X155741511Y-109867589D01*
X155741511Y-109603822D01*
X155880873Y-109603822D01*
X155940678Y-109603418D01*
X155982082Y-109601840D01*
X156009252Y-109598547D01*
X156026354Y-109592992D01*
X156037557Y-109584631D01*
X156038917Y-109583178D01*
X156055275Y-109549939D01*
X156053828Y-109512362D01*
X156035022Y-109479645D01*
X156027750Y-109473298D01*
X156018373Y-109468266D01*
X156004391Y-109464396D01*
X155983304Y-109461537D01*
X155952611Y-109459535D01*
X155909811Y-109458239D01*
X155852405Y-109457498D01*
X155777890Y-109457158D01*
X155683767Y-109457068D01*
X155663740Y-109457067D01*
X155564935Y-109457163D01*
G36*
X154299177Y-109462533D02*
G01*
X154267798Y-109484776D01*
X154240089Y-109512485D01*
X154240089Y-109821920D01*
X154240162Y-109913799D01*
X154240505Y-109985840D01*
X154241308Y-110040780D01*
X154242759Y-110081360D01*
X154245048Y-110110317D01*
X154248364Y-110130391D01*
X154252895Y-110144321D01*
X154258831Y-110154845D01*
X154263486Y-110161100D01*
X154294217Y-110185673D01*
X154329504Y-110188341D01*
X154361755Y-110173271D01*
X154372412Y-110164374D01*
X154379536Y-110152557D01*
X154383833Y-110133526D01*
X154386009Y-110102992D01*
X154386772Y-110056662D01*
X154386845Y-110020871D01*
X154386845Y-109886045D01*
X154883556Y-109886045D01*
X154883556Y-110008700D01*
X154884069Y-110064787D01*
X154886124Y-110103333D01*
X154890492Y-110129361D01*
X154897944Y-110147897D01*
X154906953Y-110161100D01*
X154937856Y-110185604D01*
X154972804Y-110188506D01*
X155006262Y-110171089D01*
X155015396Y-110161959D01*
X155021848Y-110149855D01*
X155026103Y-110131001D01*
X155028648Y-110101620D01*
X155029971Y-110057937D01*
X155030557Y-109996175D01*
X155030625Y-109982000D01*
X155031109Y-109865631D01*
X155031359Y-109769727D01*
X155031277Y-109692177D01*
X155030769Y-109630869D01*
X155029738Y-109583690D01*
X155028087Y-109548530D01*
X155025721Y-109523276D01*
X155022543Y-109505817D01*
X155018456Y-109494041D01*
X155013366Y-109485835D01*
X155007734Y-109479645D01*
X154975872Y-109459844D01*
X154942643Y-109462533D01*
X154911265Y-109484776D01*
X154898567Y-109499126D01*
X154890474Y-109514978D01*
X154885958Y-109537554D01*
X154883994Y-109572078D01*
X154883556Y-109623776D01*
X154883556Y-109739289D01*
X154386845Y-109739289D01*
X154386845Y-109620756D01*
X154386338Y-109566148D01*
X154384302Y-109529275D01*
X154379965Y-109505307D01*
X154372553Y-109489415D01*
X154364267Y-109479645D01*
X154332406Y-109459844D01*
X154299177Y-109462533D01*
X154299177Y-109462533D01*
G37*
X154299177Y-109462533D02*
X154267798Y-109484776D01*
X154240089Y-109512485D01*
X154240089Y-109821920D01*
X154240162Y-109913799D01*
X154240505Y-109985840D01*
X154241308Y-110040780D01*
X154242759Y-110081360D01*
X154245048Y-110110317D01*
X154248364Y-110130391D01*
X154252895Y-110144321D01*
X154258831Y-110154845D01*
X154263486Y-110161100D01*
X154294217Y-110185673D01*
X154329504Y-110188341D01*
X154361755Y-110173271D01*
X154372412Y-110164374D01*
X154379536Y-110152557D01*
X154383833Y-110133526D01*
X154386009Y-110102992D01*
X154386772Y-110056662D01*
X154386845Y-110020871D01*
X154386845Y-109886045D01*
X154883556Y-109886045D01*
X154883556Y-110008700D01*
X154884069Y-110064787D01*
X154886124Y-110103333D01*
X154890492Y-110129361D01*
X154897944Y-110147897D01*
X154906953Y-110161100D01*
X154937856Y-110185604D01*
X154972804Y-110188506D01*
X155006262Y-110171089D01*
X155015396Y-110161959D01*
X155021848Y-110149855D01*
X155026103Y-110131001D01*
X155028648Y-110101620D01*
X155029971Y-110057937D01*
X155030557Y-109996175D01*
X155030625Y-109982000D01*
X155031109Y-109865631D01*
X155031359Y-109769727D01*
X155031277Y-109692177D01*
X155030769Y-109630869D01*
X155029738Y-109583690D01*
X155028087Y-109548530D01*
X155025721Y-109523276D01*
X155022543Y-109505817D01*
X155018456Y-109494041D01*
X155013366Y-109485835D01*
X155007734Y-109479645D01*
X154975872Y-109459844D01*
X154942643Y-109462533D01*
X154911265Y-109484776D01*
X154898567Y-109499126D01*
X154890474Y-109514978D01*
X154885958Y-109537554D01*
X154883994Y-109572078D01*
X154883556Y-109623776D01*
X154883556Y-109739289D01*
X154386845Y-109739289D01*
X154386845Y-109620756D01*
X154386338Y-109566148D01*
X154384302Y-109529275D01*
X154379965Y-109505307D01*
X154372553Y-109489415D01*
X154364267Y-109479645D01*
X154332406Y-109459844D01*
X154299177Y-109462533D01*
G36*
X163474400Y-104677054D02*
G01*
X163463535Y-104790993D01*
X163431918Y-104898616D01*
X163381015Y-104997615D01*
X163312293Y-105085684D01*
X163227219Y-105160516D01*
X163130232Y-105218384D01*
X163023964Y-105258005D01*
X162916950Y-105276573D01*
X162811300Y-105275434D01*
X162709125Y-105255930D01*
X162612534Y-105219406D01*
X162523638Y-105167205D01*
X162444546Y-105100673D01*
X162377369Y-105021152D01*
X162324217Y-104929987D01*
X162287199Y-104828523D01*
X162268427Y-104718102D01*
X162266489Y-104668206D01*
X162266489Y-104580267D01*
X162214560Y-104580267D01*
X162178253Y-104583111D01*
X162151355Y-104594911D01*
X162124249Y-104618649D01*
X162085867Y-104657031D01*
X162085867Y-106848602D01*
X162085876Y-107110739D01*
X162085908Y-107351241D01*
X162085972Y-107571048D01*
X162086076Y-107771101D01*
X162086227Y-107952344D01*
X162086434Y-108115716D01*
X162086706Y-108262160D01*
X162087050Y-108392617D01*
X162087474Y-108508029D01*
X162087987Y-108609338D01*
X162088597Y-108697484D01*
X162089312Y-108773410D01*
X162090140Y-108838057D01*
X162091089Y-108892367D01*
X162092167Y-108937280D01*
X162093383Y-108973740D01*
X162094745Y-109002687D01*
X162096261Y-109025063D01*
X162097938Y-109041809D01*
X162099786Y-109053868D01*
X162101813Y-109062180D01*
X162104025Y-109067687D01*
X162105108Y-109069537D01*
X162109271Y-109076549D01*
X162112805Y-109082996D01*
X162116635Y-109088900D01*
X162121682Y-109094286D01*
X162128871Y-109099178D01*
X162139123Y-109103598D01*
X162153364Y-109107572D01*
X162172514Y-109111121D01*
X162197499Y-109114270D01*
X162229240Y-109117042D01*
X162268662Y-109119461D01*
X162316686Y-109121551D01*
X162374237Y-109123335D01*
X162442237Y-109124837D01*
X162521610Y-109126080D01*
X162613279Y-109127089D01*
X162718166Y-109127885D01*
X162837196Y-109128494D01*
X162971290Y-109128939D01*
X163121373Y-109129243D01*
X163288367Y-109129430D01*
X163473196Y-109129524D01*
X163676783Y-109129548D01*
X163900050Y-109129525D01*
X164143922Y-109129480D01*
X164409321Y-109129437D01*
X164447704Y-109129432D01*
X164714682Y-109129389D01*
X164960002Y-109129318D01*
X165184583Y-109129213D01*
X165389345Y-109129066D01*
X165575206Y-109128869D01*
X165743088Y-109128616D01*
X165893908Y-109128300D01*
X166028587Y-109127913D01*
X166148044Y-109127447D01*
X166253199Y-109126897D01*
X166344971Y-109126253D01*
X166424279Y-109125511D01*
X166492043Y-109124661D01*
X166549182Y-109123697D01*
X166596617Y-109122611D01*
X166635266Y-109121397D01*
X166666049Y-109120047D01*
X166689885Y-109118555D01*
X166707694Y-109116911D01*
X166720395Y-109115111D01*
X166728908Y-109113145D01*
X166733266Y-109111477D01*
X166741728Y-109107906D01*
X166749497Y-109105270D01*
X166756602Y-109102634D01*
X166763073Y-109099062D01*
X166768939Y-109093621D01*
X166774229Y-109085375D01*
X166778974Y-109073390D01*
X166783202Y-109056731D01*
X166786943Y-109034463D01*
X166790227Y-109005652D01*
X166793083Y-108969363D01*
X166795540Y-108924661D01*
X166797629Y-108870611D01*
X166799378Y-108806279D01*
X166800817Y-108730730D01*
X166801976Y-108643030D01*
X166802883Y-108542243D01*
X166803569Y-108427434D01*
X166804063Y-108297670D01*
X166804395Y-108152015D01*
X166804593Y-107989535D01*
X166804687Y-107809295D01*
X166804708Y-107610360D01*
X166804685Y-107391796D01*
X166804646Y-107152668D01*
X166804622Y-106892040D01*
X166804622Y-106849889D01*
X166804636Y-106586992D01*
X166804661Y-106345732D01*
X166804671Y-106125165D01*
X166804642Y-105924352D01*
X166804548Y-105742349D01*
X166804362Y-105578216D01*
X166804059Y-105431011D01*
X166803614Y-105299792D01*
X166803034Y-105189867D01*
X166500197Y-105189867D01*
X166460407Y-105247711D01*
X166449236Y-105263479D01*
X166439166Y-105277441D01*
X166430138Y-105290784D01*
X166422097Y-105304693D01*
X166414986Y-105320356D01*
X166408747Y-105338958D01*
X166403325Y-105361686D01*
X166398662Y-105389727D01*
X166394701Y-105424267D01*
X166391385Y-105466492D01*
X166388659Y-105517589D01*
X166386464Y-105578744D01*
X166384745Y-105651144D01*
X166383444Y-105735975D01*
X166382505Y-105834422D01*
X166381870Y-105947674D01*
X166381484Y-106076916D01*
X166381288Y-106223334D01*
X166381227Y-106388116D01*
X166381243Y-106572447D01*
X166381280Y-106777513D01*
X166381289Y-106900133D01*
X166381265Y-107117082D01*
X166381231Y-107312642D01*
X166381243Y-107487999D01*
X166381358Y-107644341D01*
X166381630Y-107782857D01*
X166382118Y-107904734D01*
X166382876Y-108011160D01*
X166383962Y-108103322D01*
X166385431Y-108182409D01*
X166387340Y-108249608D01*
X166389744Y-108306107D01*
X166392701Y-108353093D01*
X166396266Y-108391755D01*
X166400495Y-108423280D01*
X166405446Y-108448855D01*
X166411173Y-108469670D01*
X166417733Y-108486911D01*
X166425183Y-108501765D01*
X166433579Y-108515422D01*
X166442976Y-108529069D01*
X166453432Y-108543893D01*
X166459523Y-108552783D01*
X166498296Y-108610400D01*
X165966732Y-108610400D01*
X165843483Y-108610365D01*
X165740987Y-108610215D01*
X165657420Y-108609878D01*
X165590956Y-108609286D01*
X165539771Y-108608367D01*
X165502041Y-108607051D01*
X165475940Y-108605269D01*
X165459644Y-108602951D01*
X165451328Y-108600026D01*
X165449168Y-108596424D01*
X165451339Y-108592075D01*
X165452535Y-108590645D01*
X165477685Y-108553573D01*
X165503583Y-108500772D01*
X165527192Y-108438770D01*
X165535461Y-108412357D01*
X165540078Y-108394416D01*
X165543979Y-108373355D01*
X165547248Y-108347089D01*
X165549966Y-108313532D01*
X165552215Y-108270599D01*
X165554077Y-108216204D01*
X165555636Y-108148262D01*
X165556972Y-108064688D01*
X165558169Y-107963395D01*
X165559308Y-107842300D01*
X165559685Y-107797600D01*
X165560702Y-107672449D01*
X165561460Y-107568082D01*
X165561903Y-107482707D01*
X165561970Y-107414533D01*
X165561605Y-107361765D01*
X165560748Y-107322614D01*
X165559341Y-107295285D01*
X165557325Y-107277986D01*
X165554643Y-107268926D01*
X165551236Y-107266312D01*
X165547044Y-107268351D01*
X165542571Y-107272667D01*
X165532216Y-107285602D01*
X165510158Y-107314676D01*
X165477957Y-107357759D01*
X165437174Y-107412718D01*
X165389370Y-107477423D01*
X165336105Y-107549742D01*
X165278940Y-107627544D01*
X165219437Y-107708698D01*
X165159155Y-107791072D01*
X165099655Y-107872536D01*
X165042498Y-107950957D01*
X164989245Y-108024204D01*
X164941457Y-108090147D01*
X164900693Y-108146654D01*
X164868516Y-108191593D01*
X164846485Y-108222834D01*
X164841917Y-108229466D01*
X164818996Y-108266369D01*
X164792188Y-108314359D01*
X164766789Y-108363897D01*
X164763568Y-108370577D01*
X164741890Y-108418772D01*
X164729304Y-108456334D01*
X164723574Y-108492160D01*
X164722456Y-108534200D01*
X164723090Y-108610400D01*
X163568651Y-108610400D01*
X163659815Y-108516669D01*
X163706612Y-108466775D01*
X163756899Y-108410295D01*
X163802944Y-108356026D01*
X163823369Y-108330673D01*
X163853807Y-108291128D01*
X163893862Y-108237916D01*
X163942361Y-108172667D01*
X163998135Y-108097011D01*
X164060011Y-108012577D01*
X164126819Y-107920994D01*
X164197387Y-107823892D01*
X164270545Y-107722901D01*
X164345121Y-107619650D01*
X164419944Y-107515768D01*
X164493843Y-107412885D01*
X164565646Y-107312631D01*
X164634184Y-107216636D01*
X164698284Y-107126527D01*
X164756775Y-107043936D01*
X164808486Y-106970492D01*
X164852247Y-106907824D01*
X164886885Y-106857561D01*
X164911230Y-106821334D01*
X164924111Y-106800771D01*
X164925869Y-106796668D01*
X164917910Y-106785342D01*
X164897115Y-106758162D01*
X164864847Y-106716829D01*
X164822470Y-106663044D01*
X164771347Y-106598506D01*
X164712841Y-106524918D01*
X164648314Y-106443978D01*
X164579131Y-106357388D01*
X164506653Y-106266848D01*
X164432246Y-106174060D01*
X164372517Y-106099702D01*
X163361511Y-106099702D01*
X163355602Y-106112659D01*
X163341272Y-106134908D01*
X163340225Y-106136391D01*
X163321438Y-106166544D01*
X163301791Y-106203375D01*
X163297892Y-106211511D01*
X163294356Y-106219940D01*
X163291230Y-106230059D01*
X163288486Y-106243260D01*
X163286092Y-106260938D01*
X163284019Y-106284484D01*
X163282235Y-106315293D01*
X163280712Y-106354757D01*
X163279419Y-106404269D01*
X163278326Y-106465223D01*
X163277403Y-106539011D01*
X163276619Y-106627028D01*
X163275945Y-106730665D01*
X163275350Y-106851316D01*
X163274805Y-106990374D01*
X163274279Y-107149232D01*
X163273745Y-107328089D01*
X163273206Y-107513207D01*
X163272772Y-107677145D01*
X163272509Y-107821303D01*
X163272484Y-107947079D01*
X163272765Y-108055871D01*
X163273419Y-108149077D01*
X163274514Y-108228097D01*
X163276118Y-108294328D01*
X163278297Y-108349170D01*
X163281119Y-108394021D01*
X163284651Y-108430278D01*
X163288961Y-108459341D01*
X163294117Y-108482609D01*
X163300185Y-108501479D01*
X163307233Y-108517351D01*
X163315329Y-108531622D01*
X163324540Y-108545691D01*
X163333040Y-108558158D01*
X163350176Y-108584452D01*
X163360322Y-108602037D01*
X163361511Y-108605257D01*
X163350604Y-108606334D01*
X163319411Y-108607335D01*
X163270223Y-108608235D01*
X163205333Y-108609010D01*
X163127030Y-108609637D01*
X163037607Y-108610091D01*
X162939356Y-108610349D01*
X162870445Y-108610400D01*
X162765452Y-108610180D01*
X162668610Y-108609548D01*
X162582107Y-108608549D01*
X162508132Y-108607227D01*
X162448874Y-108605626D01*
X162406520Y-108603791D01*
X162383260Y-108601765D01*
X162379378Y-108600493D01*
X162387076Y-108585591D01*
X162395074Y-108577560D01*
X162408246Y-108560434D01*
X162425485Y-108530183D01*
X162437407Y-108505622D01*
X162464045Y-108446711D01*
X162467120Y-107269845D01*
X162470195Y-106092978D01*
X162915853Y-106092978D01*
X163013670Y-106093142D01*
X163104064Y-106093611D01*
X163184630Y-106094347D01*
X163252962Y-106095316D01*
X163306656Y-106096480D01*
X163343305Y-106097803D01*
X163360504Y-106099249D01*
X163361511Y-106099702D01*
X164372517Y-106099702D01*
X164357270Y-106080722D01*
X164283090Y-105988537D01*
X164211069Y-105899204D01*
X164142569Y-105814424D01*
X164078955Y-105735898D01*
X164021588Y-105665326D01*
X163971833Y-105604409D01*
X163931052Y-105554847D01*
X163913888Y-105534178D01*
X163827596Y-105433516D01*
X163750997Y-105350259D01*
X163682183Y-105282438D01*
X163619248Y-105228089D01*
X163609867Y-105220722D01*
X163570356Y-105190117D01*
X164702116Y-105189867D01*
X164696827Y-105237844D01*
X164700130Y-105295188D01*
X164721661Y-105363463D01*
X164761635Y-105443212D01*
X164806943Y-105515495D01*
X164823161Y-105538140D01*
X164851214Y-105575696D01*
X164889430Y-105626021D01*
X164936137Y-105686973D01*
X164989661Y-105756411D01*
X165048331Y-105832194D01*
X165110475Y-105912180D01*
X165174421Y-105994228D01*
X165238495Y-106076196D01*
X165301027Y-106155943D01*
X165360343Y-106231327D01*
X165414771Y-106300207D01*
X165462639Y-106360442D01*
X165502275Y-106409889D01*
X165532006Y-106446408D01*
X165550161Y-106467858D01*
X165553220Y-106471156D01*
X165556079Y-106463149D01*
X165558293Y-106432855D01*
X165559857Y-106380556D01*
X165560767Y-106306531D01*
X165561020Y-106211063D01*
X165560613Y-106094434D01*
X165559704Y-105974445D01*
X165558382Y-105842333D01*
X165556857Y-105730594D01*
X165554881Y-105637025D01*
X165552206Y-105559419D01*
X165548582Y-105495574D01*
X165543761Y-105443283D01*
X165537494Y-105400344D01*
X165529532Y-105364551D01*
X165519627Y-105333700D01*
X165507531Y-105305586D01*
X165492993Y-105278005D01*
X165478311Y-105252966D01*
X165440314Y-105189867D01*
X166500197Y-105189867D01*
X166803034Y-105189867D01*
X166803001Y-105183617D01*
X166802195Y-105081544D01*
X166801170Y-104992633D01*
X166799900Y-104915941D01*
X166798360Y-104850527D01*
X166796524Y-104795449D01*
X166794367Y-104749765D01*
X166791863Y-104712534D01*
X166788987Y-104682813D01*
X166785713Y-104659662D01*
X166782015Y-104642139D01*
X166777869Y-104629301D01*
X166773247Y-104620208D01*
X166768126Y-104613918D01*
X166762478Y-104609488D01*
X166756279Y-104605978D01*
X166749504Y-104602445D01*
X166743508Y-104598876D01*
X166738275Y-104596300D01*
X166730099Y-104593972D01*
X166717886Y-104591878D01*
X166700541Y-104590007D01*
X166676969Y-104588347D01*
X166646077Y-104586884D01*
X166606768Y-104585608D01*
X166557950Y-104584504D01*
X166498527Y-104583561D01*
X166427404Y-104582767D01*
X166343488Y-104582109D01*
X166245683Y-104581575D01*
X166132894Y-104581153D01*
X166004029Y-104580829D01*
X165857991Y-104580592D01*
X165693686Y-104580430D01*
X165510020Y-104580330D01*
X165305897Y-104580280D01*
X165094753Y-104580267D01*
X163474400Y-104580267D01*
X163474400Y-104677054D01*
X163474400Y-104677054D01*
G37*
X163474400Y-104677054D02*
X163463535Y-104790993D01*
X163431918Y-104898616D01*
X163381015Y-104997615D01*
X163312293Y-105085684D01*
X163227219Y-105160516D01*
X163130232Y-105218384D01*
X163023964Y-105258005D01*
X162916950Y-105276573D01*
X162811300Y-105275434D01*
X162709125Y-105255930D01*
X162612534Y-105219406D01*
X162523638Y-105167205D01*
X162444546Y-105100673D01*
X162377369Y-105021152D01*
X162324217Y-104929987D01*
X162287199Y-104828523D01*
X162268427Y-104718102D01*
X162266489Y-104668206D01*
X162266489Y-104580267D01*
X162214560Y-104580267D01*
X162178253Y-104583111D01*
X162151355Y-104594911D01*
X162124249Y-104618649D01*
X162085867Y-104657031D01*
X162085867Y-106848602D01*
X162085876Y-107110739D01*
X162085908Y-107351241D01*
X162085972Y-107571048D01*
X162086076Y-107771101D01*
X162086227Y-107952344D01*
X162086434Y-108115716D01*
X162086706Y-108262160D01*
X162087050Y-108392617D01*
X162087474Y-108508029D01*
X162087987Y-108609338D01*
X162088597Y-108697484D01*
X162089312Y-108773410D01*
X162090140Y-108838057D01*
X162091089Y-108892367D01*
X162092167Y-108937280D01*
X162093383Y-108973740D01*
X162094745Y-109002687D01*
X162096261Y-109025063D01*
X162097938Y-109041809D01*
X162099786Y-109053868D01*
X162101813Y-109062180D01*
X162104025Y-109067687D01*
X162105108Y-109069537D01*
X162109271Y-109076549D01*
X162112805Y-109082996D01*
X162116635Y-109088900D01*
X162121682Y-109094286D01*
X162128871Y-109099178D01*
X162139123Y-109103598D01*
X162153364Y-109107572D01*
X162172514Y-109111121D01*
X162197499Y-109114270D01*
X162229240Y-109117042D01*
X162268662Y-109119461D01*
X162316686Y-109121551D01*
X162374237Y-109123335D01*
X162442237Y-109124837D01*
X162521610Y-109126080D01*
X162613279Y-109127089D01*
X162718166Y-109127885D01*
X162837196Y-109128494D01*
X162971290Y-109128939D01*
X163121373Y-109129243D01*
X163288367Y-109129430D01*
X163473196Y-109129524D01*
X163676783Y-109129548D01*
X163900050Y-109129525D01*
X164143922Y-109129480D01*
X164409321Y-109129437D01*
X164447704Y-109129432D01*
X164714682Y-109129389D01*
X164960002Y-109129318D01*
X165184583Y-109129213D01*
X165389345Y-109129066D01*
X165575206Y-109128869D01*
X165743088Y-109128616D01*
X165893908Y-109128300D01*
X166028587Y-109127913D01*
X166148044Y-109127447D01*
X166253199Y-109126897D01*
X166344971Y-109126253D01*
X166424279Y-109125511D01*
X166492043Y-109124661D01*
X166549182Y-109123697D01*
X166596617Y-109122611D01*
X166635266Y-109121397D01*
X166666049Y-109120047D01*
X166689885Y-109118555D01*
X166707694Y-109116911D01*
X166720395Y-109115111D01*
X166728908Y-109113145D01*
X166733266Y-109111477D01*
X166741728Y-109107906D01*
X166749497Y-109105270D01*
X166756602Y-109102634D01*
X166763073Y-109099062D01*
X166768939Y-109093621D01*
X166774229Y-109085375D01*
X166778974Y-109073390D01*
X166783202Y-109056731D01*
X166786943Y-109034463D01*
X166790227Y-109005652D01*
X166793083Y-108969363D01*
X166795540Y-108924661D01*
X166797629Y-108870611D01*
X166799378Y-108806279D01*
X166800817Y-108730730D01*
X166801976Y-108643030D01*
X166802883Y-108542243D01*
X166803569Y-108427434D01*
X166804063Y-108297670D01*
X166804395Y-108152015D01*
X166804593Y-107989535D01*
X166804687Y-107809295D01*
X166804708Y-107610360D01*
X166804685Y-107391796D01*
X166804646Y-107152668D01*
X166804622Y-106892040D01*
X166804622Y-106849889D01*
X166804636Y-106586992D01*
X166804661Y-106345732D01*
X166804671Y-106125165D01*
X166804642Y-105924352D01*
X166804548Y-105742349D01*
X166804362Y-105578216D01*
X166804059Y-105431011D01*
X166803614Y-105299792D01*
X166803034Y-105189867D01*
X166500197Y-105189867D01*
X166460407Y-105247711D01*
X166449236Y-105263479D01*
X166439166Y-105277441D01*
X166430138Y-105290784D01*
X166422097Y-105304693D01*
X166414986Y-105320356D01*
X166408747Y-105338958D01*
X166403325Y-105361686D01*
X166398662Y-105389727D01*
X166394701Y-105424267D01*
X166391385Y-105466492D01*
X166388659Y-105517589D01*
X166386464Y-105578744D01*
X166384745Y-105651144D01*
X166383444Y-105735975D01*
X166382505Y-105834422D01*
X166381870Y-105947674D01*
X166381484Y-106076916D01*
X166381288Y-106223334D01*
X166381227Y-106388116D01*
X166381243Y-106572447D01*
X166381280Y-106777513D01*
X166381289Y-106900133D01*
X166381265Y-107117082D01*
X166381231Y-107312642D01*
X166381243Y-107487999D01*
X166381358Y-107644341D01*
X166381630Y-107782857D01*
X166382118Y-107904734D01*
X166382876Y-108011160D01*
X166383962Y-108103322D01*
X166385431Y-108182409D01*
X166387340Y-108249608D01*
X166389744Y-108306107D01*
X166392701Y-108353093D01*
X166396266Y-108391755D01*
X166400495Y-108423280D01*
X166405446Y-108448855D01*
X166411173Y-108469670D01*
X166417733Y-108486911D01*
X166425183Y-108501765D01*
X166433579Y-108515422D01*
X166442976Y-108529069D01*
X166453432Y-108543893D01*
X166459523Y-108552783D01*
X166498296Y-108610400D01*
X165966732Y-108610400D01*
X165843483Y-108610365D01*
X165740987Y-108610215D01*
X165657420Y-108609878D01*
X165590956Y-108609286D01*
X165539771Y-108608367D01*
X165502041Y-108607051D01*
X165475940Y-108605269D01*
X165459644Y-108602951D01*
X165451328Y-108600026D01*
X165449168Y-108596424D01*
X165451339Y-108592075D01*
X165452535Y-108590645D01*
X165477685Y-108553573D01*
X165503583Y-108500772D01*
X165527192Y-108438770D01*
X165535461Y-108412357D01*
X165540078Y-108394416D01*
X165543979Y-108373355D01*
X165547248Y-108347089D01*
X165549966Y-108313532D01*
X165552215Y-108270599D01*
X165554077Y-108216204D01*
X165555636Y-108148262D01*
X165556972Y-108064688D01*
X165558169Y-107963395D01*
X165559308Y-107842300D01*
X165559685Y-107797600D01*
X165560702Y-107672449D01*
X165561460Y-107568082D01*
X165561903Y-107482707D01*
X165561970Y-107414533D01*
X165561605Y-107361765D01*
X165560748Y-107322614D01*
X165559341Y-107295285D01*
X165557325Y-107277986D01*
X165554643Y-107268926D01*
X165551236Y-107266312D01*
X165547044Y-107268351D01*
X165542571Y-107272667D01*
X165532216Y-107285602D01*
X165510158Y-107314676D01*
X165477957Y-107357759D01*
X165437174Y-107412718D01*
X165389370Y-107477423D01*
X165336105Y-107549742D01*
X165278940Y-107627544D01*
X165219437Y-107708698D01*
X165159155Y-107791072D01*
X165099655Y-107872536D01*
X165042498Y-107950957D01*
X164989245Y-108024204D01*
X164941457Y-108090147D01*
X164900693Y-108146654D01*
X164868516Y-108191593D01*
X164846485Y-108222834D01*
X164841917Y-108229466D01*
X164818996Y-108266369D01*
X164792188Y-108314359D01*
X164766789Y-108363897D01*
X164763568Y-108370577D01*
X164741890Y-108418772D01*
X164729304Y-108456334D01*
X164723574Y-108492160D01*
X164722456Y-108534200D01*
X164723090Y-108610400D01*
X163568651Y-108610400D01*
X163659815Y-108516669D01*
X163706612Y-108466775D01*
X163756899Y-108410295D01*
X163802944Y-108356026D01*
X163823369Y-108330673D01*
X163853807Y-108291128D01*
X163893862Y-108237916D01*
X163942361Y-108172667D01*
X163998135Y-108097011D01*
X164060011Y-108012577D01*
X164126819Y-107920994D01*
X164197387Y-107823892D01*
X164270545Y-107722901D01*
X164345121Y-107619650D01*
X164419944Y-107515768D01*
X164493843Y-107412885D01*
X164565646Y-107312631D01*
X164634184Y-107216636D01*
X164698284Y-107126527D01*
X164756775Y-107043936D01*
X164808486Y-106970492D01*
X164852247Y-106907824D01*
X164886885Y-106857561D01*
X164911230Y-106821334D01*
X164924111Y-106800771D01*
X164925869Y-106796668D01*
X164917910Y-106785342D01*
X164897115Y-106758162D01*
X164864847Y-106716829D01*
X164822470Y-106663044D01*
X164771347Y-106598506D01*
X164712841Y-106524918D01*
X164648314Y-106443978D01*
X164579131Y-106357388D01*
X164506653Y-106266848D01*
X164432246Y-106174060D01*
X164372517Y-106099702D01*
X163361511Y-106099702D01*
X163355602Y-106112659D01*
X163341272Y-106134908D01*
X163340225Y-106136391D01*
X163321438Y-106166544D01*
X163301791Y-106203375D01*
X163297892Y-106211511D01*
X163294356Y-106219940D01*
X163291230Y-106230059D01*
X163288486Y-106243260D01*
X163286092Y-106260938D01*
X163284019Y-106284484D01*
X163282235Y-106315293D01*
X163280712Y-106354757D01*
X163279419Y-106404269D01*
X163278326Y-106465223D01*
X163277403Y-106539011D01*
X163276619Y-106627028D01*
X163275945Y-106730665D01*
X163275350Y-106851316D01*
X163274805Y-106990374D01*
X163274279Y-107149232D01*
X163273745Y-107328089D01*
X163273206Y-107513207D01*
X163272772Y-107677145D01*
X163272509Y-107821303D01*
X163272484Y-107947079D01*
X163272765Y-108055871D01*
X163273419Y-108149077D01*
X163274514Y-108228097D01*
X163276118Y-108294328D01*
X163278297Y-108349170D01*
X163281119Y-108394021D01*
X163284651Y-108430278D01*
X163288961Y-108459341D01*
X163294117Y-108482609D01*
X163300185Y-108501479D01*
X163307233Y-108517351D01*
X163315329Y-108531622D01*
X163324540Y-108545691D01*
X163333040Y-108558158D01*
X163350176Y-108584452D01*
X163360322Y-108602037D01*
X163361511Y-108605257D01*
X163350604Y-108606334D01*
X163319411Y-108607335D01*
X163270223Y-108608235D01*
X163205333Y-108609010D01*
X163127030Y-108609637D01*
X163037607Y-108610091D01*
X162939356Y-108610349D01*
X162870445Y-108610400D01*
X162765452Y-108610180D01*
X162668610Y-108609548D01*
X162582107Y-108608549D01*
X162508132Y-108607227D01*
X162448874Y-108605626D01*
X162406520Y-108603791D01*
X162383260Y-108601765D01*
X162379378Y-108600493D01*
X162387076Y-108585591D01*
X162395074Y-108577560D01*
X162408246Y-108560434D01*
X162425485Y-108530183D01*
X162437407Y-108505622D01*
X162464045Y-108446711D01*
X162467120Y-107269845D01*
X162470195Y-106092978D01*
X162915853Y-106092978D01*
X163013670Y-106093142D01*
X163104064Y-106093611D01*
X163184630Y-106094347D01*
X163252962Y-106095316D01*
X163306656Y-106096480D01*
X163343305Y-106097803D01*
X163360504Y-106099249D01*
X163361511Y-106099702D01*
X164372517Y-106099702D01*
X164357270Y-106080722D01*
X164283090Y-105988537D01*
X164211069Y-105899204D01*
X164142569Y-105814424D01*
X164078955Y-105735898D01*
X164021588Y-105665326D01*
X163971833Y-105604409D01*
X163931052Y-105554847D01*
X163913888Y-105534178D01*
X163827596Y-105433516D01*
X163750997Y-105350259D01*
X163682183Y-105282438D01*
X163619248Y-105228089D01*
X163609867Y-105220722D01*
X163570356Y-105190117D01*
X164702116Y-105189867D01*
X164696827Y-105237844D01*
X164700130Y-105295188D01*
X164721661Y-105363463D01*
X164761635Y-105443212D01*
X164806943Y-105515495D01*
X164823161Y-105538140D01*
X164851214Y-105575696D01*
X164889430Y-105626021D01*
X164936137Y-105686973D01*
X164989661Y-105756411D01*
X165048331Y-105832194D01*
X165110475Y-105912180D01*
X165174421Y-105994228D01*
X165238495Y-106076196D01*
X165301027Y-106155943D01*
X165360343Y-106231327D01*
X165414771Y-106300207D01*
X165462639Y-106360442D01*
X165502275Y-106409889D01*
X165532006Y-106446408D01*
X165550161Y-106467858D01*
X165553220Y-106471156D01*
X165556079Y-106463149D01*
X165558293Y-106432855D01*
X165559857Y-106380556D01*
X165560767Y-106306531D01*
X165561020Y-106211063D01*
X165560613Y-106094434D01*
X165559704Y-105974445D01*
X165558382Y-105842333D01*
X165556857Y-105730594D01*
X165554881Y-105637025D01*
X165552206Y-105559419D01*
X165548582Y-105495574D01*
X165543761Y-105443283D01*
X165537494Y-105400344D01*
X165529532Y-105364551D01*
X165519627Y-105333700D01*
X165507531Y-105305586D01*
X165492993Y-105278005D01*
X165478311Y-105252966D01*
X165440314Y-105189867D01*
X166500197Y-105189867D01*
X166803034Y-105189867D01*
X166803001Y-105183617D01*
X166802195Y-105081544D01*
X166801170Y-104992633D01*
X166799900Y-104915941D01*
X166798360Y-104850527D01*
X166796524Y-104795449D01*
X166794367Y-104749765D01*
X166791863Y-104712534D01*
X166788987Y-104682813D01*
X166785713Y-104659662D01*
X166782015Y-104642139D01*
X166777869Y-104629301D01*
X166773247Y-104620208D01*
X166768126Y-104613918D01*
X166762478Y-104609488D01*
X166756279Y-104605978D01*
X166749504Y-104602445D01*
X166743508Y-104598876D01*
X166738275Y-104596300D01*
X166730099Y-104593972D01*
X166717886Y-104591878D01*
X166700541Y-104590007D01*
X166676969Y-104588347D01*
X166646077Y-104586884D01*
X166606768Y-104585608D01*
X166557950Y-104584504D01*
X166498527Y-104583561D01*
X166427404Y-104582767D01*
X166343488Y-104582109D01*
X166245683Y-104581575D01*
X166132894Y-104581153D01*
X166004029Y-104580829D01*
X165857991Y-104580592D01*
X165693686Y-104580430D01*
X165510020Y-104580330D01*
X165305897Y-104580280D01*
X165094753Y-104580267D01*
X163474400Y-104580267D01*
X163474400Y-104677054D01*
G36*
X160199571Y-105137071D02*
G01*
X160039430Y-105158245D01*
X159875490Y-105198385D01*
X159705687Y-105257889D01*
X159527957Y-105337154D01*
X159516690Y-105342699D01*
X159458995Y-105370725D01*
X159407448Y-105394802D01*
X159365809Y-105413249D01*
X159337838Y-105424386D01*
X159328267Y-105426933D01*
X159309050Y-105431941D01*
X159304439Y-105436147D01*
X159309542Y-105446580D01*
X159325582Y-105472868D01*
X159350712Y-105512257D01*
X159383086Y-105561991D01*
X159420857Y-105619315D01*
X159462178Y-105681476D01*
X159505202Y-105745718D01*
X159548083Y-105809285D01*
X159588974Y-105869425D01*
X159626029Y-105923380D01*
X159657400Y-105968397D01*
X159681241Y-106001721D01*
X159695706Y-106020597D01*
X159697691Y-106022787D01*
X159707809Y-106018138D01*
X159730150Y-106000962D01*
X159760720Y-105974440D01*
X159776464Y-105959964D01*
X159872953Y-105884682D01*
X159979664Y-105829241D01*
X160095168Y-105794141D01*
X160218038Y-105779880D01*
X160287439Y-105781051D01*
X160408577Y-105798212D01*
X160517795Y-105834094D01*
X160615418Y-105888959D01*
X160701772Y-105963070D01*
X160777185Y-106056688D01*
X160841982Y-106170076D01*
X160879399Y-106256667D01*
X160923252Y-106392366D01*
X160955572Y-106539850D01*
X160976443Y-106695314D01*
X160985949Y-106854956D01*
X160984173Y-107014973D01*
X160971197Y-107171561D01*
X160947106Y-107320918D01*
X160911982Y-107459240D01*
X160865908Y-107582724D01*
X160849627Y-107616978D01*
X160781380Y-107731064D01*
X160700921Y-107827557D01*
X160609430Y-107905670D01*
X160508089Y-107964617D01*
X160398080Y-108003612D01*
X160280585Y-108021868D01*
X160239117Y-108023211D01*
X160117559Y-108012290D01*
X159997122Y-107979474D01*
X159879334Y-107925439D01*
X159765723Y-107850865D01*
X159674315Y-107772539D01*
X159627785Y-107728008D01*
X159446517Y-108025271D01*
X159401420Y-108099433D01*
X159360181Y-108167646D01*
X159324265Y-108227459D01*
X159295134Y-108276420D01*
X159274250Y-108312079D01*
X159263076Y-108331984D01*
X159261625Y-108335079D01*
X159269854Y-108344718D01*
X159295433Y-108361999D01*
X159335127Y-108385283D01*
X159385703Y-108412934D01*
X159443926Y-108443315D01*
X159506563Y-108474790D01*
X159570379Y-108505722D01*
X159632140Y-108534473D01*
X159688612Y-108559408D01*
X159736562Y-108578889D01*
X159760014Y-108587318D01*
X159893779Y-108625133D01*
X160031673Y-108650136D01*
X160179378Y-108663140D01*
X160306167Y-108665468D01*
X160374122Y-108664373D01*
X160439723Y-108662275D01*
X160497153Y-108659434D01*
X160540597Y-108656106D01*
X160554702Y-108654422D01*
X160693716Y-108625587D01*
X160835243Y-108580468D01*
X160972725Y-108521750D01*
X161099606Y-108452120D01*
X161177111Y-108399441D01*
X161304519Y-108291239D01*
X161422822Y-108164671D01*
X161529828Y-108022866D01*
X161623348Y-107868951D01*
X161701190Y-107706053D01*
X161745044Y-107588756D01*
X161795292Y-107405128D01*
X161828791Y-107210581D01*
X161845551Y-107009325D01*
X161845584Y-106805568D01*
X161828899Y-106603521D01*
X161795507Y-106407392D01*
X161745420Y-106221391D01*
X161741603Y-106209803D01*
X161678719Y-106047750D01*
X161601972Y-105899832D01*
X161508758Y-105761865D01*
X161396473Y-105629661D01*
X161352608Y-105584399D01*
X161216466Y-105460457D01*
X161076509Y-105357915D01*
X160930589Y-105275656D01*
X160776558Y-105212564D01*
X160612268Y-105167523D01*
X160516711Y-105150033D01*
X160357977Y-105134466D01*
X160199571Y-105137071D01*
X160199571Y-105137071D01*
G37*
X160199571Y-105137071D02*
X160039430Y-105158245D01*
X159875490Y-105198385D01*
X159705687Y-105257889D01*
X159527957Y-105337154D01*
X159516690Y-105342699D01*
X159458995Y-105370725D01*
X159407448Y-105394802D01*
X159365809Y-105413249D01*
X159337838Y-105424386D01*
X159328267Y-105426933D01*
X159309050Y-105431941D01*
X159304439Y-105436147D01*
X159309542Y-105446580D01*
X159325582Y-105472868D01*
X159350712Y-105512257D01*
X159383086Y-105561991D01*
X159420857Y-105619315D01*
X159462178Y-105681476D01*
X159505202Y-105745718D01*
X159548083Y-105809285D01*
X159588974Y-105869425D01*
X159626029Y-105923380D01*
X159657400Y-105968397D01*
X159681241Y-106001721D01*
X159695706Y-106020597D01*
X159697691Y-106022787D01*
X159707809Y-106018138D01*
X159730150Y-106000962D01*
X159760720Y-105974440D01*
X159776464Y-105959964D01*
X159872953Y-105884682D01*
X159979664Y-105829241D01*
X160095168Y-105794141D01*
X160218038Y-105779880D01*
X160287439Y-105781051D01*
X160408577Y-105798212D01*
X160517795Y-105834094D01*
X160615418Y-105888959D01*
X160701772Y-105963070D01*
X160777185Y-106056688D01*
X160841982Y-106170076D01*
X160879399Y-106256667D01*
X160923252Y-106392366D01*
X160955572Y-106539850D01*
X160976443Y-106695314D01*
X160985949Y-106854956D01*
X160984173Y-107014973D01*
X160971197Y-107171561D01*
X160947106Y-107320918D01*
X160911982Y-107459240D01*
X160865908Y-107582724D01*
X160849627Y-107616978D01*
X160781380Y-107731064D01*
X160700921Y-107827557D01*
X160609430Y-107905670D01*
X160508089Y-107964617D01*
X160398080Y-108003612D01*
X160280585Y-108021868D01*
X160239117Y-108023211D01*
X160117559Y-108012290D01*
X159997122Y-107979474D01*
X159879334Y-107925439D01*
X159765723Y-107850865D01*
X159674315Y-107772539D01*
X159627785Y-107728008D01*
X159446517Y-108025271D01*
X159401420Y-108099433D01*
X159360181Y-108167646D01*
X159324265Y-108227459D01*
X159295134Y-108276420D01*
X159274250Y-108312079D01*
X159263076Y-108331984D01*
X159261625Y-108335079D01*
X159269854Y-108344718D01*
X159295433Y-108361999D01*
X159335127Y-108385283D01*
X159385703Y-108412934D01*
X159443926Y-108443315D01*
X159506563Y-108474790D01*
X159570379Y-108505722D01*
X159632140Y-108534473D01*
X159688612Y-108559408D01*
X159736562Y-108578889D01*
X159760014Y-108587318D01*
X159893779Y-108625133D01*
X160031673Y-108650136D01*
X160179378Y-108663140D01*
X160306167Y-108665468D01*
X160374122Y-108664373D01*
X160439723Y-108662275D01*
X160497153Y-108659434D01*
X160540597Y-108656106D01*
X160554702Y-108654422D01*
X160693716Y-108625587D01*
X160835243Y-108580468D01*
X160972725Y-108521750D01*
X161099606Y-108452120D01*
X161177111Y-108399441D01*
X161304519Y-108291239D01*
X161422822Y-108164671D01*
X161529828Y-108022866D01*
X161623348Y-107868951D01*
X161701190Y-107706053D01*
X161745044Y-107588756D01*
X161795292Y-107405128D01*
X161828791Y-107210581D01*
X161845551Y-107009325D01*
X161845584Y-106805568D01*
X161828899Y-106603521D01*
X161795507Y-106407392D01*
X161745420Y-106221391D01*
X161741603Y-106209803D01*
X161678719Y-106047750D01*
X161601972Y-105899832D01*
X161508758Y-105761865D01*
X161396473Y-105629661D01*
X161352608Y-105584399D01*
X161216466Y-105460457D01*
X161076509Y-105357915D01*
X160930589Y-105275656D01*
X160776558Y-105212564D01*
X160612268Y-105167523D01*
X160516711Y-105150033D01*
X160357977Y-105134466D01*
X160199571Y-105137071D01*
G36*
X157854426Y-106054552D02*
G01*
X157702508Y-106074567D01*
X157567244Y-106108202D01*
X157447761Y-106155725D01*
X157343185Y-106217405D01*
X157265576Y-106280965D01*
X157196735Y-106355099D01*
X157142994Y-106434871D01*
X157100090Y-106527091D01*
X157084616Y-106570161D01*
X157071756Y-106609142D01*
X157060554Y-106645289D01*
X157050880Y-106680434D01*
X157042604Y-106716410D01*
X157035597Y-106755050D01*
X157029728Y-106798185D01*
X157024869Y-106847649D01*
X157020890Y-106905273D01*
X157017660Y-106972891D01*
X157015051Y-107052334D01*
X157012933Y-107145436D01*
X157011176Y-107254027D01*
X157009651Y-107379942D01*
X157008228Y-107525012D01*
X157006975Y-107667778D01*
X157005649Y-107823968D01*
X157004444Y-107959239D01*
X157003234Y-108075246D01*
X157001894Y-108173645D01*
X157000300Y-108256093D01*
X156998325Y-108324246D01*
X156995844Y-108379760D01*
X156992731Y-108424292D01*
X156988862Y-108459498D01*
X156984111Y-108487034D01*
X156978352Y-108508556D01*
X156971461Y-108525722D01*
X156963311Y-108540186D01*
X156953777Y-108553606D01*
X156942734Y-108567638D01*
X156938434Y-108573071D01*
X156922614Y-108595910D01*
X156915578Y-108611463D01*
X156915556Y-108611922D01*
X156926433Y-108614121D01*
X156957418Y-108616147D01*
X157006043Y-108617942D01*
X157069837Y-108619451D01*
X157146331Y-108620616D01*
X157233056Y-108621380D01*
X157327543Y-108621686D01*
X157338450Y-108621689D01*
X157761343Y-108621689D01*
X157764605Y-108525622D01*
X157767867Y-108429556D01*
X157829956Y-108480543D01*
X157927286Y-108548057D01*
X158037187Y-108602749D01*
X158123651Y-108632978D01*
X158192722Y-108647666D01*
X158276075Y-108657659D01*
X158365841Y-108662646D01*
X158454155Y-108662313D01*
X158533149Y-108656351D01*
X158569378Y-108650638D01*
X158709397Y-108612776D01*
X158835822Y-108557932D01*
X158947740Y-108486924D01*
X159044238Y-108400568D01*
X159124400Y-108299679D01*
X159187313Y-108185076D01*
X159231688Y-108058984D01*
X159244022Y-108002401D01*
X159251632Y-107940202D01*
X159255261Y-107865363D01*
X159255755Y-107831467D01*
X159255690Y-107828282D01*
X158495752Y-107828282D01*
X158486459Y-107903333D01*
X158458272Y-107967160D01*
X158409803Y-108022798D01*
X158404746Y-108027211D01*
X158356452Y-108062037D01*
X158304743Y-108084620D01*
X158244011Y-108096540D01*
X158168648Y-108099383D01*
X158150541Y-108098978D01*
X158096722Y-108096325D01*
X158056692Y-108090909D01*
X158021676Y-108080745D01*
X157982897Y-108063850D01*
X157972255Y-108058672D01*
X157911604Y-108022844D01*
X157864785Y-107980212D01*
X157852048Y-107964973D01*
X157807378Y-107908462D01*
X157807378Y-107712586D01*
X157807914Y-107633939D01*
X157809604Y-107575988D01*
X157812572Y-107536875D01*
X157816943Y-107514741D01*
X157821028Y-107508274D01*
X157836953Y-107505111D01*
X157870736Y-107502488D01*
X157917660Y-107500655D01*
X157973007Y-107499857D01*
X157981894Y-107499842D01*
X158102670Y-107505096D01*
X158205340Y-107521263D01*
X158291894Y-107548961D01*
X158364319Y-107588808D01*
X158419249Y-107635758D01*
X158463796Y-107693645D01*
X158488520Y-107756693D01*
X158495752Y-107828282D01*
X159255690Y-107828282D01*
X159253822Y-107737712D01*
X159245478Y-107658812D01*
X159229232Y-107587590D01*
X159203595Y-107516864D01*
X159179599Y-107464493D01*
X159120980Y-107369196D01*
X159042883Y-107281170D01*
X158947685Y-107202017D01*
X158837762Y-107133340D01*
X158715490Y-107076741D01*
X158583245Y-107033821D01*
X158518578Y-107018882D01*
X158382396Y-106996777D01*
X158233951Y-106982194D01*
X158082495Y-106975813D01*
X157955936Y-106977445D01*
X157794050Y-106984224D01*
X157801470Y-106925245D01*
X157820762Y-106826092D01*
X157851896Y-106745372D01*
X157895731Y-106682466D01*
X157953129Y-106636756D01*
X158024952Y-106607622D01*
X158112059Y-106594447D01*
X158215314Y-106596611D01*
X158253289Y-106600612D01*
X158394480Y-106625780D01*
X158531293Y-106666814D01*
X158625822Y-106704815D01*
X158670982Y-106724190D01*
X158709415Y-106739760D01*
X158735766Y-106749405D01*
X158743454Y-106751452D01*
X158753198Y-106742374D01*
X158769917Y-106713405D01*
X158793768Y-106664217D01*
X158824907Y-106594484D01*
X158863493Y-106503879D01*
X158870090Y-106488089D01*
X158900147Y-106415772D01*
X158927126Y-106350425D01*
X158949864Y-106294906D01*
X158967194Y-106252072D01*
X158977952Y-106224781D01*
X158981059Y-106215942D01*
X158971060Y-106211187D01*
X158944783Y-106205910D01*
X158916511Y-106202231D01*
X158886354Y-106197474D01*
X158838567Y-106188028D01*
X158777388Y-106174820D01*
X158707054Y-106158776D01*
X158631806Y-106140820D01*
X158603245Y-106133797D01*
X158498184Y-106108209D01*
X158410520Y-106088147D01*
X158335932Y-106072969D01*
X158270097Y-106062035D01*
X158208693Y-106054704D01*
X158147398Y-106050335D01*
X158081890Y-106048287D01*
X158023872Y-106047889D01*
X157854426Y-106054552D01*
X157854426Y-106054552D01*
G37*
X157854426Y-106054552D02*
X157702508Y-106074567D01*
X157567244Y-106108202D01*
X157447761Y-106155725D01*
X157343185Y-106217405D01*
X157265576Y-106280965D01*
X157196735Y-106355099D01*
X157142994Y-106434871D01*
X157100090Y-106527091D01*
X157084616Y-106570161D01*
X157071756Y-106609142D01*
X157060554Y-106645289D01*
X157050880Y-106680434D01*
X157042604Y-106716410D01*
X157035597Y-106755050D01*
X157029728Y-106798185D01*
X157024869Y-106847649D01*
X157020890Y-106905273D01*
X157017660Y-106972891D01*
X157015051Y-107052334D01*
X157012933Y-107145436D01*
X157011176Y-107254027D01*
X157009651Y-107379942D01*
X157008228Y-107525012D01*
X157006975Y-107667778D01*
X157005649Y-107823968D01*
X157004444Y-107959239D01*
X157003234Y-108075246D01*
X157001894Y-108173645D01*
X157000300Y-108256093D01*
X156998325Y-108324246D01*
X156995844Y-108379760D01*
X156992731Y-108424292D01*
X156988862Y-108459498D01*
X156984111Y-108487034D01*
X156978352Y-108508556D01*
X156971461Y-108525722D01*
X156963311Y-108540186D01*
X156953777Y-108553606D01*
X156942734Y-108567638D01*
X156938434Y-108573071D01*
X156922614Y-108595910D01*
X156915578Y-108611463D01*
X156915556Y-108611922D01*
X156926433Y-108614121D01*
X156957418Y-108616147D01*
X157006043Y-108617942D01*
X157069837Y-108619451D01*
X157146331Y-108620616D01*
X157233056Y-108621380D01*
X157327543Y-108621686D01*
X157338450Y-108621689D01*
X157761343Y-108621689D01*
X157764605Y-108525622D01*
X157767867Y-108429556D01*
X157829956Y-108480543D01*
X157927286Y-108548057D01*
X158037187Y-108602749D01*
X158123651Y-108632978D01*
X158192722Y-108647666D01*
X158276075Y-108657659D01*
X158365841Y-108662646D01*
X158454155Y-108662313D01*
X158533149Y-108656351D01*
X158569378Y-108650638D01*
X158709397Y-108612776D01*
X158835822Y-108557932D01*
X158947740Y-108486924D01*
X159044238Y-108400568D01*
X159124400Y-108299679D01*
X159187313Y-108185076D01*
X159231688Y-108058984D01*
X159244022Y-108002401D01*
X159251632Y-107940202D01*
X159255261Y-107865363D01*
X159255755Y-107831467D01*
X159255690Y-107828282D01*
X158495752Y-107828282D01*
X158486459Y-107903333D01*
X158458272Y-107967160D01*
X158409803Y-108022798D01*
X158404746Y-108027211D01*
X158356452Y-108062037D01*
X158304743Y-108084620D01*
X158244011Y-108096540D01*
X158168648Y-108099383D01*
X158150541Y-108098978D01*
X158096722Y-108096325D01*
X158056692Y-108090909D01*
X158021676Y-108080745D01*
X157982897Y-108063850D01*
X157972255Y-108058672D01*
X157911604Y-108022844D01*
X157864785Y-107980212D01*
X157852048Y-107964973D01*
X157807378Y-107908462D01*
X157807378Y-107712586D01*
X157807914Y-107633939D01*
X157809604Y-107575988D01*
X157812572Y-107536875D01*
X157816943Y-107514741D01*
X157821028Y-107508274D01*
X157836953Y-107505111D01*
X157870736Y-107502488D01*
X157917660Y-107500655D01*
X157973007Y-107499857D01*
X157981894Y-107499842D01*
X158102670Y-107505096D01*
X158205340Y-107521263D01*
X158291894Y-107548961D01*
X158364319Y-107588808D01*
X158419249Y-107635758D01*
X158463796Y-107693645D01*
X158488520Y-107756693D01*
X158495752Y-107828282D01*
X159255690Y-107828282D01*
X159253822Y-107737712D01*
X159245478Y-107658812D01*
X159229232Y-107587590D01*
X159203595Y-107516864D01*
X159179599Y-107464493D01*
X159120980Y-107369196D01*
X159042883Y-107281170D01*
X158947685Y-107202017D01*
X158837762Y-107133340D01*
X158715490Y-107076741D01*
X158583245Y-107033821D01*
X158518578Y-107018882D01*
X158382396Y-106996777D01*
X158233951Y-106982194D01*
X158082495Y-106975813D01*
X157955936Y-106977445D01*
X157794050Y-106984224D01*
X157801470Y-106925245D01*
X157820762Y-106826092D01*
X157851896Y-106745372D01*
X157895731Y-106682466D01*
X157953129Y-106636756D01*
X158024952Y-106607622D01*
X158112059Y-106594447D01*
X158215314Y-106596611D01*
X158253289Y-106600612D01*
X158394480Y-106625780D01*
X158531293Y-106666814D01*
X158625822Y-106704815D01*
X158670982Y-106724190D01*
X158709415Y-106739760D01*
X158735766Y-106749405D01*
X158743454Y-106751452D01*
X158753198Y-106742374D01*
X158769917Y-106713405D01*
X158793768Y-106664217D01*
X158824907Y-106594484D01*
X158863493Y-106503879D01*
X158870090Y-106488089D01*
X158900147Y-106415772D01*
X158927126Y-106350425D01*
X158949864Y-106294906D01*
X158967194Y-106252072D01*
X158977952Y-106224781D01*
X158981059Y-106215942D01*
X158971060Y-106211187D01*
X158944783Y-106205910D01*
X158916511Y-106202231D01*
X158886354Y-106197474D01*
X158838567Y-106188028D01*
X158777388Y-106174820D01*
X158707054Y-106158776D01*
X158631806Y-106140820D01*
X158603245Y-106133797D01*
X158498184Y-106108209D01*
X158410520Y-106088147D01*
X158335932Y-106072969D01*
X158270097Y-106062035D01*
X158208693Y-106054704D01*
X158147398Y-106050335D01*
X158081890Y-106048287D01*
X158023872Y-106047889D01*
X157854426Y-106054552D01*
G36*
X154341493Y-106660245D02*
G01*
X154341474Y-106894662D01*
X154341448Y-107107603D01*
X154341375Y-107300168D01*
X154341218Y-107473459D01*
X154340936Y-107628576D01*
X154340491Y-107766620D01*
X154339844Y-107888692D01*
X154338955Y-107995894D01*
X154337787Y-108089326D01*
X154336299Y-108170090D01*
X154334454Y-108239286D01*
X154332211Y-108298015D01*
X154329531Y-108347379D01*
X154326377Y-108388478D01*
X154322708Y-108422413D01*
X154318487Y-108450286D01*
X154313673Y-108473198D01*
X154308227Y-108492249D01*
X154302112Y-108508540D01*
X154295288Y-108523173D01*
X154287715Y-108537249D01*
X154279355Y-108551868D01*
X154274161Y-108560974D01*
X154239896Y-108621689D01*
X155098045Y-108621689D01*
X155098045Y-108525733D01*
X155098776Y-108482370D01*
X155100728Y-108449205D01*
X155103537Y-108431424D01*
X155104779Y-108429778D01*
X155116201Y-108436662D01*
X155138916Y-108454505D01*
X155161615Y-108473879D01*
X155216200Y-108514614D01*
X155285679Y-108555617D01*
X155362730Y-108593123D01*
X155440035Y-108623364D01*
X155470887Y-108633012D01*
X155539384Y-108647578D01*
X155622236Y-108657539D01*
X155711629Y-108662583D01*
X155799752Y-108662396D01*
X155878793Y-108656666D01*
X155916489Y-108650858D01*
X156054586Y-108612797D01*
X156181887Y-108555073D01*
X156297708Y-108478211D01*
X156401363Y-108382739D01*
X156492167Y-108269179D01*
X156558969Y-108158381D01*
X156613836Y-108041625D01*
X156655837Y-107922276D01*
X156685833Y-107796283D01*
X156704689Y-107659594D01*
X156713268Y-107508158D01*
X156713994Y-107430711D01*
X156711900Y-107373934D01*
X155882783Y-107373934D01*
X155882576Y-107467002D01*
X155879663Y-107554692D01*
X155874000Y-107631772D01*
X155865545Y-107693009D01*
X155862962Y-107705350D01*
X155831160Y-107812633D01*
X155789502Y-107899658D01*
X155737637Y-107966642D01*
X155675219Y-108013805D01*
X155601900Y-108041365D01*
X155517331Y-108049541D01*
X155421165Y-108038551D01*
X155357689Y-108022829D01*
X155308546Y-108004639D01*
X155254417Y-107978791D01*
X155213756Y-107955089D01*
X155143200Y-107908721D01*
X155143200Y-106758530D01*
X155210608Y-106714962D01*
X155289133Y-106674040D01*
X155373319Y-106647389D01*
X155458443Y-106635465D01*
X155539784Y-106638722D01*
X155612620Y-106657615D01*
X155644574Y-106673184D01*
X155702499Y-106716181D01*
X155751456Y-106772953D01*
X155792610Y-106845575D01*
X155827126Y-106936121D01*
X155856167Y-107046666D01*
X155857448Y-107052533D01*
X155867619Y-107114788D01*
X155875261Y-107192594D01*
X155880330Y-107280720D01*
X155882783Y-107373934D01*
X156711900Y-107373934D01*
X156706143Y-107217895D01*
X156684198Y-107022059D01*
X156648214Y-106843332D01*
X156598241Y-106681845D01*
X156534332Y-106537726D01*
X156456538Y-106411106D01*
X156364911Y-106302115D01*
X156259503Y-106210883D01*
X156214338Y-106179932D01*
X156113389Y-106123785D01*
X156010099Y-106084174D01*
X155900011Y-106060014D01*
X155778670Y-106050219D01*
X155686164Y-106051265D01*
X155556510Y-106062231D01*
X155443916Y-106084046D01*
X155345125Y-106117714D01*
X155256879Y-106164236D01*
X155208014Y-106198448D01*
X155178647Y-106220362D01*
X155156957Y-106235333D01*
X155148747Y-106239733D01*
X155147132Y-106228904D01*
X155145841Y-106198251D01*
X155144862Y-106150526D01*
X155144183Y-106088479D01*
X155143790Y-106014862D01*
X155143670Y-105932427D01*
X155143812Y-105843925D01*
X155144203Y-105752107D01*
X155144829Y-105659724D01*
X155145680Y-105569528D01*
X155146740Y-105484271D01*
X155147999Y-105406703D01*
X155149444Y-105339576D01*
X155151062Y-105285641D01*
X155152839Y-105247650D01*
X155153331Y-105240667D01*
X155160908Y-105170251D01*
X155172469Y-105115102D01*
X155190208Y-105067981D01*
X155216318Y-105021647D01*
X155222585Y-105012067D01*
X155247017Y-104975378D01*
X154341689Y-104975378D01*
X154341493Y-106660245D01*
X154341493Y-106660245D01*
G37*
X154341493Y-106660245D02*
X154341474Y-106894662D01*
X154341448Y-107107603D01*
X154341375Y-107300168D01*
X154341218Y-107473459D01*
X154340936Y-107628576D01*
X154340491Y-107766620D01*
X154339844Y-107888692D01*
X154338955Y-107995894D01*
X154337787Y-108089326D01*
X154336299Y-108170090D01*
X154334454Y-108239286D01*
X154332211Y-108298015D01*
X154329531Y-108347379D01*
X154326377Y-108388478D01*
X154322708Y-108422413D01*
X154318487Y-108450286D01*
X154313673Y-108473198D01*
X154308227Y-108492249D01*
X154302112Y-108508540D01*
X154295288Y-108523173D01*
X154287715Y-108537249D01*
X154279355Y-108551868D01*
X154274161Y-108560974D01*
X154239896Y-108621689D01*
X155098045Y-108621689D01*
X155098045Y-108525733D01*
X155098776Y-108482370D01*
X155100728Y-108449205D01*
X155103537Y-108431424D01*
X155104779Y-108429778D01*
X155116201Y-108436662D01*
X155138916Y-108454505D01*
X155161615Y-108473879D01*
X155216200Y-108514614D01*
X155285679Y-108555617D01*
X155362730Y-108593123D01*
X155440035Y-108623364D01*
X155470887Y-108633012D01*
X155539384Y-108647578D01*
X155622236Y-108657539D01*
X155711629Y-108662583D01*
X155799752Y-108662396D01*
X155878793Y-108656666D01*
X155916489Y-108650858D01*
X156054586Y-108612797D01*
X156181887Y-108555073D01*
X156297708Y-108478211D01*
X156401363Y-108382739D01*
X156492167Y-108269179D01*
X156558969Y-108158381D01*
X156613836Y-108041625D01*
X156655837Y-107922276D01*
X156685833Y-107796283D01*
X156704689Y-107659594D01*
X156713268Y-107508158D01*
X156713994Y-107430711D01*
X156711900Y-107373934D01*
X155882783Y-107373934D01*
X155882576Y-107467002D01*
X155879663Y-107554692D01*
X155874000Y-107631772D01*
X155865545Y-107693009D01*
X155862962Y-107705350D01*
X155831160Y-107812633D01*
X155789502Y-107899658D01*
X155737637Y-107966642D01*
X155675219Y-108013805D01*
X155601900Y-108041365D01*
X155517331Y-108049541D01*
X155421165Y-108038551D01*
X155357689Y-108022829D01*
X155308546Y-108004639D01*
X155254417Y-107978791D01*
X155213756Y-107955089D01*
X155143200Y-107908721D01*
X155143200Y-106758530D01*
X155210608Y-106714962D01*
X155289133Y-106674040D01*
X155373319Y-106647389D01*
X155458443Y-106635465D01*
X155539784Y-106638722D01*
X155612620Y-106657615D01*
X155644574Y-106673184D01*
X155702499Y-106716181D01*
X155751456Y-106772953D01*
X155792610Y-106845575D01*
X155827126Y-106936121D01*
X155856167Y-107046666D01*
X155857448Y-107052533D01*
X155867619Y-107114788D01*
X155875261Y-107192594D01*
X155880330Y-107280720D01*
X155882783Y-107373934D01*
X156711900Y-107373934D01*
X156706143Y-107217895D01*
X156684198Y-107022059D01*
X156648214Y-106843332D01*
X156598241Y-106681845D01*
X156534332Y-106537726D01*
X156456538Y-106411106D01*
X156364911Y-106302115D01*
X156259503Y-106210883D01*
X156214338Y-106179932D01*
X156113389Y-106123785D01*
X156010099Y-106084174D01*
X155900011Y-106060014D01*
X155778670Y-106050219D01*
X155686164Y-106051265D01*
X155556510Y-106062231D01*
X155443916Y-106084046D01*
X155345125Y-106117714D01*
X155256879Y-106164236D01*
X155208014Y-106198448D01*
X155178647Y-106220362D01*
X155156957Y-106235333D01*
X155148747Y-106239733D01*
X155147132Y-106228904D01*
X155145841Y-106198251D01*
X155144862Y-106150526D01*
X155144183Y-106088479D01*
X155143790Y-106014862D01*
X155143670Y-105932427D01*
X155143812Y-105843925D01*
X155144203Y-105752107D01*
X155144829Y-105659724D01*
X155145680Y-105569528D01*
X155146740Y-105484271D01*
X155147999Y-105406703D01*
X155149444Y-105339576D01*
X155151062Y-105285641D01*
X155152839Y-105247650D01*
X155153331Y-105240667D01*
X155160908Y-105170251D01*
X155172469Y-105115102D01*
X155190208Y-105067981D01*
X155216318Y-105021647D01*
X155222585Y-105012067D01*
X155247017Y-104975378D01*
X154341689Y-104975378D01*
X154341493Y-106660245D01*
G36*
X162801043Y-104214571D02*
G01*
X162704768Y-104238809D01*
X162618184Y-104281641D01*
X162543373Y-104341419D01*
X162482418Y-104416494D01*
X162437399Y-104505220D01*
X162411136Y-104601530D01*
X162405286Y-104698795D01*
X162420140Y-104792654D01*
X162453840Y-104880511D01*
X162504528Y-104959770D01*
X162570345Y-105027836D01*
X162649434Y-105082112D01*
X162739934Y-105120002D01*
X162791200Y-105132426D01*
X162835698Y-105139947D01*
X162869999Y-105142919D01*
X162902960Y-105141094D01*
X162943434Y-105134225D01*
X162976531Y-105127250D01*
X163069947Y-105095741D01*
X163153619Y-105044617D01*
X163225665Y-104975429D01*
X163284200Y-104889728D01*
X163298148Y-104862489D01*
X163314586Y-104826122D01*
X163324894Y-104795582D01*
X163330460Y-104763450D01*
X163332669Y-104722307D01*
X163332948Y-104676222D01*
X163328861Y-104591865D01*
X163315446Y-104522586D01*
X163290256Y-104461961D01*
X163250846Y-104403567D01*
X163212298Y-104359302D01*
X163140406Y-104293484D01*
X163065313Y-104248053D01*
X162982562Y-104220850D01*
X162904928Y-104210576D01*
X162801043Y-104214571D01*
X162801043Y-104214571D01*
G37*
X162801043Y-104214571D02*
X162704768Y-104238809D01*
X162618184Y-104281641D01*
X162543373Y-104341419D01*
X162482418Y-104416494D01*
X162437399Y-104505220D01*
X162411136Y-104601530D01*
X162405286Y-104698795D01*
X162420140Y-104792654D01*
X162453840Y-104880511D01*
X162504528Y-104959770D01*
X162570345Y-105027836D01*
X162649434Y-105082112D01*
X162739934Y-105120002D01*
X162791200Y-105132426D01*
X162835698Y-105139947D01*
X162869999Y-105142919D01*
X162902960Y-105141094D01*
X162943434Y-105134225D01*
X162976531Y-105127250D01*
X163069947Y-105095741D01*
X163153619Y-105044617D01*
X163225665Y-104975429D01*
X163284200Y-104889728D01*
X163298148Y-104862489D01*
X163314586Y-104826122D01*
X163324894Y-104795582D01*
X163330460Y-104763450D01*
X163332669Y-104722307D01*
X163332948Y-104676222D01*
X163328861Y-104591865D01*
X163315446Y-104522586D01*
X163290256Y-104461961D01*
X163250846Y-104403567D01*
X163212298Y-104359302D01*
X163140406Y-104293484D01*
X163065313Y-104248053D01*
X162982562Y-104220850D01*
X162904928Y-104210576D01*
X162801043Y-104214571D01*
G36*
X143497256Y-111901918D02*
G01*
X143441799Y-111929568D01*
X143392852Y-111980480D01*
X143379371Y-111999338D01*
X143364686Y-112024015D01*
X143355158Y-112050816D01*
X143349707Y-112086587D01*
X143347253Y-112138169D01*
X143346714Y-112206267D01*
X143349148Y-112299588D01*
X143357606Y-112369657D01*
X143373826Y-112421931D01*
X143399546Y-112461869D01*
X143436503Y-112494929D01*
X143439218Y-112496886D01*
X143475640Y-112516908D01*
X143519498Y-112526815D01*
X143575276Y-112529257D01*
X143665952Y-112529257D01*
X143665990Y-112617283D01*
X143666834Y-112666308D01*
X143671976Y-112695065D01*
X143685413Y-112712311D01*
X143711142Y-112726808D01*
X143717321Y-112729769D01*
X143746236Y-112743648D01*
X143768624Y-112752414D01*
X143785271Y-112753171D01*
X143796964Y-112743023D01*
X143804490Y-112719073D01*
X143808634Y-112678426D01*
X143810185Y-112618186D01*
X143809929Y-112535455D01*
X143808651Y-112427339D01*
X143808252Y-112395000D01*
X143806815Y-112283524D01*
X143805528Y-112210603D01*
X143666029Y-112210603D01*
X143665245Y-112272499D01*
X143661760Y-112312997D01*
X143653876Y-112339708D01*
X143639895Y-112360244D01*
X143630403Y-112370260D01*
X143591596Y-112399567D01*
X143557237Y-112401952D01*
X143521784Y-112377750D01*
X143520886Y-112376857D01*
X143506461Y-112358153D01*
X143497687Y-112332732D01*
X143493261Y-112293584D01*
X143491882Y-112233697D01*
X143491857Y-112220430D01*
X143495188Y-112137901D01*
X143506031Y-112080691D01*
X143525660Y-112045766D01*
X143555350Y-112030094D01*
X143572509Y-112028514D01*
X143613234Y-112035926D01*
X143641168Y-112060330D01*
X143657983Y-112104980D01*
X143665350Y-112173130D01*
X143666029Y-112210603D01*
X143805528Y-112210603D01*
X143805292Y-112197245D01*
X143803323Y-112132333D01*
X143800550Y-112084958D01*
X143796612Y-112051290D01*
X143791151Y-112027498D01*
X143783808Y-112009753D01*
X143774223Y-111994224D01*
X143770113Y-111988381D01*
X143715595Y-111933185D01*
X143646664Y-111901890D01*
X143566928Y-111893165D01*
X143497256Y-111901918D01*
X143497256Y-111901918D01*
G37*
X143497256Y-111901918D02*
X143441799Y-111929568D01*
X143392852Y-111980480D01*
X143379371Y-111999338D01*
X143364686Y-112024015D01*
X143355158Y-112050816D01*
X143349707Y-112086587D01*
X143347253Y-112138169D01*
X143346714Y-112206267D01*
X143349148Y-112299588D01*
X143357606Y-112369657D01*
X143373826Y-112421931D01*
X143399546Y-112461869D01*
X143436503Y-112494929D01*
X143439218Y-112496886D01*
X143475640Y-112516908D01*
X143519498Y-112526815D01*
X143575276Y-112529257D01*
X143665952Y-112529257D01*
X143665990Y-112617283D01*
X143666834Y-112666308D01*
X143671976Y-112695065D01*
X143685413Y-112712311D01*
X143711142Y-112726808D01*
X143717321Y-112729769D01*
X143746236Y-112743648D01*
X143768624Y-112752414D01*
X143785271Y-112753171D01*
X143796964Y-112743023D01*
X143804490Y-112719073D01*
X143808634Y-112678426D01*
X143810185Y-112618186D01*
X143809929Y-112535455D01*
X143808651Y-112427339D01*
X143808252Y-112395000D01*
X143806815Y-112283524D01*
X143805528Y-112210603D01*
X143666029Y-112210603D01*
X143665245Y-112272499D01*
X143661760Y-112312997D01*
X143653876Y-112339708D01*
X143639895Y-112360244D01*
X143630403Y-112370260D01*
X143591596Y-112399567D01*
X143557237Y-112401952D01*
X143521784Y-112377750D01*
X143520886Y-112376857D01*
X143506461Y-112358153D01*
X143497687Y-112332732D01*
X143493261Y-112293584D01*
X143491882Y-112233697D01*
X143491857Y-112220430D01*
X143495188Y-112137901D01*
X143506031Y-112080691D01*
X143525660Y-112045766D01*
X143555350Y-112030094D01*
X143572509Y-112028514D01*
X143613234Y-112035926D01*
X143641168Y-112060330D01*
X143657983Y-112104980D01*
X143665350Y-112173130D01*
X143666029Y-112210603D01*
X143805528Y-112210603D01*
X143805292Y-112197245D01*
X143803323Y-112132333D01*
X143800550Y-112084958D01*
X143796612Y-112051290D01*
X143791151Y-112027498D01*
X143783808Y-112009753D01*
X143774223Y-111994224D01*
X143770113Y-111988381D01*
X143715595Y-111933185D01*
X143646664Y-111901890D01*
X143566928Y-111893165D01*
X143497256Y-111901918D01*
G36*
X142380907Y-111909780D02*
G01*
X142334328Y-111936723D01*
X142301943Y-111963466D01*
X142278258Y-111991484D01*
X142261941Y-112025748D01*
X142251661Y-112071227D01*
X142246086Y-112132892D01*
X142243884Y-112215711D01*
X142243629Y-112275246D01*
X142243629Y-112494391D01*
X142305314Y-112522044D01*
X142367000Y-112549697D01*
X142374257Y-112309670D01*
X142377256Y-112220028D01*
X142380402Y-112154962D01*
X142384299Y-112110026D01*
X142389553Y-112080770D01*
X142396769Y-112062748D01*
X142406550Y-112051511D01*
X142409688Y-112049079D01*
X142457239Y-112030083D01*
X142505303Y-112037600D01*
X142533914Y-112057543D01*
X142545553Y-112071675D01*
X142553609Y-112090220D01*
X142558729Y-112118334D01*
X142561559Y-112161173D01*
X142562744Y-112223895D01*
X142562943Y-112289261D01*
X142562982Y-112371268D01*
X142564386Y-112429316D01*
X142569086Y-112468465D01*
X142579013Y-112493780D01*
X142596097Y-112510323D01*
X142622268Y-112523156D01*
X142657225Y-112536491D01*
X142695404Y-112551007D01*
X142690859Y-112293389D01*
X142689029Y-112200519D01*
X142686888Y-112131889D01*
X142683819Y-112082711D01*
X142679206Y-112048198D01*
X142672432Y-112023562D01*
X142662881Y-112004016D01*
X142651366Y-111986770D01*
X142595810Y-111931680D01*
X142528020Y-111899822D01*
X142454287Y-111892191D01*
X142380907Y-111909780D01*
X142380907Y-111909780D01*
G37*
X142380907Y-111909780D02*
X142334328Y-111936723D01*
X142301943Y-111963466D01*
X142278258Y-111991484D01*
X142261941Y-112025748D01*
X142251661Y-112071227D01*
X142246086Y-112132892D01*
X142243884Y-112215711D01*
X142243629Y-112275246D01*
X142243629Y-112494391D01*
X142305314Y-112522044D01*
X142367000Y-112549697D01*
X142374257Y-112309670D01*
X142377256Y-112220028D01*
X142380402Y-112154962D01*
X142384299Y-112110026D01*
X142389553Y-112080770D01*
X142396769Y-112062748D01*
X142406550Y-112051511D01*
X142409688Y-112049079D01*
X142457239Y-112030083D01*
X142505303Y-112037600D01*
X142533914Y-112057543D01*
X142545553Y-112071675D01*
X142553609Y-112090220D01*
X142558729Y-112118334D01*
X142561559Y-112161173D01*
X142562744Y-112223895D01*
X142562943Y-112289261D01*
X142562982Y-112371268D01*
X142564386Y-112429316D01*
X142569086Y-112468465D01*
X142579013Y-112493780D01*
X142596097Y-112510323D01*
X142622268Y-112523156D01*
X142657225Y-112536491D01*
X142695404Y-112551007D01*
X142690859Y-112293389D01*
X142689029Y-112200519D01*
X142686888Y-112131889D01*
X142683819Y-112082711D01*
X142679206Y-112048198D01*
X142672432Y-112023562D01*
X142662881Y-112004016D01*
X142651366Y-111986770D01*
X142595810Y-111931680D01*
X142528020Y-111899822D01*
X142454287Y-111892191D01*
X142380907Y-111909780D01*
G36*
X144055885Y-111903962D02*
G01*
X143987855Y-111939733D01*
X143937649Y-111997301D01*
X143919815Y-112034312D01*
X143905937Y-112089882D01*
X143898833Y-112160096D01*
X143898160Y-112236727D01*
X143903573Y-112311552D01*
X143914730Y-112376342D01*
X143931286Y-112422873D01*
X143936374Y-112430887D01*
X143996645Y-112490707D01*
X144068231Y-112526535D01*
X144145908Y-112537020D01*
X144224452Y-112520810D01*
X144246311Y-112511092D01*
X144288878Y-112481143D01*
X144326237Y-112441433D01*
X144329768Y-112436397D01*
X144344119Y-112412124D01*
X144353606Y-112386178D01*
X144359210Y-112352022D01*
X144361914Y-112303119D01*
X144362701Y-112232935D01*
X144362714Y-112217200D01*
X144362678Y-112212192D01*
X144217571Y-112212192D01*
X144216727Y-112278430D01*
X144213404Y-112322386D01*
X144206417Y-112350779D01*
X144194584Y-112370325D01*
X144188543Y-112376857D01*
X144153814Y-112401680D01*
X144120097Y-112400548D01*
X144086005Y-112379016D01*
X144065671Y-112356029D01*
X144053629Y-112322478D01*
X144046866Y-112269569D01*
X144046402Y-112263399D01*
X144045248Y-112167513D01*
X144057312Y-112096299D01*
X144082430Y-112050194D01*
X144120440Y-112029635D01*
X144134008Y-112028514D01*
X144169636Y-112034152D01*
X144194006Y-112053686D01*
X144208907Y-112091042D01*
X144216125Y-112150150D01*
X144217571Y-112212192D01*
X144362678Y-112212192D01*
X144362174Y-112142413D01*
X144359904Y-112090159D01*
X144354932Y-112053949D01*
X144346287Y-112027299D01*
X144332995Y-112003722D01*
X144330057Y-111999338D01*
X144280687Y-111940249D01*
X144226891Y-111905947D01*
X144161398Y-111892331D01*
X144139158Y-111891665D01*
X144055885Y-111903962D01*
X144055885Y-111903962D01*
G37*
X144055885Y-111903962D02*
X143987855Y-111939733D01*
X143937649Y-111997301D01*
X143919815Y-112034312D01*
X143905937Y-112089882D01*
X143898833Y-112160096D01*
X143898160Y-112236727D01*
X143903573Y-112311552D01*
X143914730Y-112376342D01*
X143931286Y-112422873D01*
X143936374Y-112430887D01*
X143996645Y-112490707D01*
X144068231Y-112526535D01*
X144145908Y-112537020D01*
X144224452Y-112520810D01*
X144246311Y-112511092D01*
X144288878Y-112481143D01*
X144326237Y-112441433D01*
X144329768Y-112436397D01*
X144344119Y-112412124D01*
X144353606Y-112386178D01*
X144359210Y-112352022D01*
X144361914Y-112303119D01*
X144362701Y-112232935D01*
X144362714Y-112217200D01*
X144362678Y-112212192D01*
X144217571Y-112212192D01*
X144216727Y-112278430D01*
X144213404Y-112322386D01*
X144206417Y-112350779D01*
X144194584Y-112370325D01*
X144188543Y-112376857D01*
X144153814Y-112401680D01*
X144120097Y-112400548D01*
X144086005Y-112379016D01*
X144065671Y-112356029D01*
X144053629Y-112322478D01*
X144046866Y-112269569D01*
X144046402Y-112263399D01*
X144045248Y-112167513D01*
X144057312Y-112096299D01*
X144082430Y-112050194D01*
X144120440Y-112029635D01*
X144134008Y-112028514D01*
X144169636Y-112034152D01*
X144194006Y-112053686D01*
X144208907Y-112091042D01*
X144216125Y-112150150D01*
X144217571Y-112212192D01*
X144362678Y-112212192D01*
X144362174Y-112142413D01*
X144359904Y-112090159D01*
X144354932Y-112053949D01*
X144346287Y-112027299D01*
X144332995Y-112003722D01*
X144330057Y-111999338D01*
X144280687Y-111940249D01*
X144226891Y-111905947D01*
X144161398Y-111892331D01*
X144139158Y-111891665D01*
X144055885Y-111903962D01*
G36*
X142928697Y-111913239D02*
G01*
X142871473Y-111951735D01*
X142827251Y-112007335D01*
X142800833Y-112078086D01*
X142795490Y-112130162D01*
X142796097Y-112151893D01*
X142801178Y-112168531D01*
X142815145Y-112183437D01*
X142842411Y-112199973D01*
X142887388Y-112221498D01*
X142954489Y-112251374D01*
X142954829Y-112251524D01*
X143016593Y-112279813D01*
X143067241Y-112304933D01*
X143101596Y-112324179D01*
X143114482Y-112334848D01*
X143114486Y-112334934D01*
X143103128Y-112358166D01*
X143076569Y-112383774D01*
X143046077Y-112402221D01*
X143030630Y-112405886D01*
X142988485Y-112393212D01*
X142952192Y-112361471D01*
X142934483Y-112326572D01*
X142917448Y-112300845D01*
X142884078Y-112271546D01*
X142844851Y-112246235D01*
X142810244Y-112232471D01*
X142803007Y-112231714D01*
X142794861Y-112244160D01*
X142794370Y-112275972D01*
X142800357Y-112318866D01*
X142811643Y-112364558D01*
X142827050Y-112404761D01*
X142827829Y-112406322D01*
X142874196Y-112471062D01*
X142934289Y-112515097D01*
X143002535Y-112536711D01*
X143073362Y-112534185D01*
X143141196Y-112505804D01*
X143144212Y-112503808D01*
X143197573Y-112455448D01*
X143232660Y-112392352D01*
X143252078Y-112309387D01*
X143254684Y-112286078D01*
X143259299Y-112176055D01*
X143253767Y-112124748D01*
X143114486Y-112124748D01*
X143112676Y-112156753D01*
X143102778Y-112166093D01*
X143078102Y-112159105D01*
X143039205Y-112142587D01*
X142995725Y-112121881D01*
X142994644Y-112121333D01*
X142957791Y-112101949D01*
X142943000Y-112089013D01*
X142946647Y-112075451D01*
X142962005Y-112057632D01*
X143001077Y-112031845D01*
X143043154Y-112029950D01*
X143080897Y-112048717D01*
X143106966Y-112084915D01*
X143114486Y-112124748D01*
X143253767Y-112124748D01*
X143249806Y-112088027D01*
X143225450Y-112018212D01*
X143191544Y-111969302D01*
X143130347Y-111919878D01*
X143062937Y-111895359D01*
X142994120Y-111893797D01*
X142928697Y-111913239D01*
X142928697Y-111913239D01*
G37*
X142928697Y-111913239D02*
X142871473Y-111951735D01*
X142827251Y-112007335D01*
X142800833Y-112078086D01*
X142795490Y-112130162D01*
X142796097Y-112151893D01*
X142801178Y-112168531D01*
X142815145Y-112183437D01*
X142842411Y-112199973D01*
X142887388Y-112221498D01*
X142954489Y-112251374D01*
X142954829Y-112251524D01*
X143016593Y-112279813D01*
X143067241Y-112304933D01*
X143101596Y-112324179D01*
X143114482Y-112334848D01*
X143114486Y-112334934D01*
X143103128Y-112358166D01*
X143076569Y-112383774D01*
X143046077Y-112402221D01*
X143030630Y-112405886D01*
X142988485Y-112393212D01*
X142952192Y-112361471D01*
X142934483Y-112326572D01*
X142917448Y-112300845D01*
X142884078Y-112271546D01*
X142844851Y-112246235D01*
X142810244Y-112232471D01*
X142803007Y-112231714D01*
X142794861Y-112244160D01*
X142794370Y-112275972D01*
X142800357Y-112318866D01*
X142811643Y-112364558D01*
X142827050Y-112404761D01*
X142827829Y-112406322D01*
X142874196Y-112471062D01*
X142934289Y-112515097D01*
X143002535Y-112536711D01*
X143073362Y-112534185D01*
X143141196Y-112505804D01*
X143144212Y-112503808D01*
X143197573Y-112455448D01*
X143232660Y-112392352D01*
X143252078Y-112309387D01*
X143254684Y-112286078D01*
X143259299Y-112176055D01*
X143253767Y-112124748D01*
X143114486Y-112124748D01*
X143112676Y-112156753D01*
X143102778Y-112166093D01*
X143078102Y-112159105D01*
X143039205Y-112142587D01*
X142995725Y-112121881D01*
X142994644Y-112121333D01*
X142957791Y-112101949D01*
X142943000Y-112089013D01*
X142946647Y-112075451D01*
X142962005Y-112057632D01*
X143001077Y-112031845D01*
X143043154Y-112029950D01*
X143080897Y-112048717D01*
X143106966Y-112084915D01*
X143114486Y-112124748D01*
X143253767Y-112124748D01*
X143249806Y-112088027D01*
X143225450Y-112018212D01*
X143191544Y-111969302D01*
X143130347Y-111919878D01*
X143062937Y-111895359D01*
X142994120Y-111893797D01*
X142928697Y-111913239D01*
G36*
X141721114Y-111833289D02*
G01*
X141716861Y-111892613D01*
X141711975Y-111927572D01*
X141705205Y-111942820D01*
X141695298Y-111943015D01*
X141692086Y-111941195D01*
X141649356Y-111928015D01*
X141593773Y-111928785D01*
X141537263Y-111942333D01*
X141501918Y-111959861D01*
X141465679Y-111987861D01*
X141439187Y-112019549D01*
X141421001Y-112059813D01*
X141409678Y-112113543D01*
X141403778Y-112185626D01*
X141401857Y-112280951D01*
X141401823Y-112299237D01*
X141401800Y-112504646D01*
X141447509Y-112520580D01*
X141479973Y-112531420D01*
X141497785Y-112536468D01*
X141498309Y-112536514D01*
X141500063Y-112522828D01*
X141501556Y-112485076D01*
X141502674Y-112428224D01*
X141503303Y-112357234D01*
X141503400Y-112314073D01*
X141503602Y-112228973D01*
X141504642Y-112167981D01*
X141507169Y-112126177D01*
X141511836Y-112098642D01*
X141519293Y-112080456D01*
X141530189Y-112066698D01*
X141536993Y-112060073D01*
X141583728Y-112033375D01*
X141634728Y-112031375D01*
X141680999Y-112053955D01*
X141689556Y-112062107D01*
X141702107Y-112077436D01*
X141710812Y-112095618D01*
X141716369Y-112121909D01*
X141719474Y-112161562D01*
X141720824Y-112219832D01*
X141721114Y-112300173D01*
X141721114Y-112504646D01*
X141766823Y-112520580D01*
X141799287Y-112531420D01*
X141817099Y-112536468D01*
X141817623Y-112536514D01*
X141818963Y-112522623D01*
X141820172Y-112483439D01*
X141821199Y-112422700D01*
X141821998Y-112344141D01*
X141822519Y-112251498D01*
X141822714Y-112148509D01*
X141822714Y-111751342D01*
X141775543Y-111731444D01*
X141728371Y-111711547D01*
X141721114Y-111833289D01*
X141721114Y-111833289D01*
G37*
X141721114Y-111833289D02*
X141716861Y-111892613D01*
X141711975Y-111927572D01*
X141705205Y-111942820D01*
X141695298Y-111943015D01*
X141692086Y-111941195D01*
X141649356Y-111928015D01*
X141593773Y-111928785D01*
X141537263Y-111942333D01*
X141501918Y-111959861D01*
X141465679Y-111987861D01*
X141439187Y-112019549D01*
X141421001Y-112059813D01*
X141409678Y-112113543D01*
X141403778Y-112185626D01*
X141401857Y-112280951D01*
X141401823Y-112299237D01*
X141401800Y-112504646D01*
X141447509Y-112520580D01*
X141479973Y-112531420D01*
X141497785Y-112536468D01*
X141498309Y-112536514D01*
X141500063Y-112522828D01*
X141501556Y-112485076D01*
X141502674Y-112428224D01*
X141503303Y-112357234D01*
X141503400Y-112314073D01*
X141503602Y-112228973D01*
X141504642Y-112167981D01*
X141507169Y-112126177D01*
X141511836Y-112098642D01*
X141519293Y-112080456D01*
X141530189Y-112066698D01*
X141536993Y-112060073D01*
X141583728Y-112033375D01*
X141634728Y-112031375D01*
X141680999Y-112053955D01*
X141689556Y-112062107D01*
X141702107Y-112077436D01*
X141710812Y-112095618D01*
X141716369Y-112121909D01*
X141719474Y-112161562D01*
X141720824Y-112219832D01*
X141721114Y-112300173D01*
X141721114Y-112504646D01*
X141766823Y-112520580D01*
X141799287Y-112531420D01*
X141817099Y-112536468D01*
X141817623Y-112536514D01*
X141818963Y-112522623D01*
X141820172Y-112483439D01*
X141821199Y-112422700D01*
X141821998Y-112344141D01*
X141822519Y-112251498D01*
X141822714Y-112148509D01*
X141822714Y-111751342D01*
X141775543Y-111731444D01*
X141728371Y-111711547D01*
X141721114Y-111833289D01*
G36*
X141057256Y-111932968D02*
G01*
X141000384Y-111954087D01*
X140999733Y-111954493D01*
X140964560Y-111980380D01*
X140938593Y-112010633D01*
X140920330Y-112050058D01*
X140908268Y-112103462D01*
X140900904Y-112175651D01*
X140896736Y-112271432D01*
X140896371Y-112285078D01*
X140891124Y-112490842D01*
X140935284Y-112513678D01*
X140967237Y-112529110D01*
X140986530Y-112536423D01*
X140987422Y-112536514D01*
X140990761Y-112523022D01*
X140993413Y-112486626D01*
X140995044Y-112433452D01*
X140995400Y-112390393D01*
X140995408Y-112320641D01*
X140998597Y-112276837D01*
X141009712Y-112255944D01*
X141033499Y-112254925D01*
X141074704Y-112270741D01*
X141136914Y-112299815D01*
X141182659Y-112323963D01*
X141206187Y-112344913D01*
X141213104Y-112367747D01*
X141213114Y-112368877D01*
X141201701Y-112408212D01*
X141167908Y-112429462D01*
X141116191Y-112432539D01*
X141078939Y-112432006D01*
X141059297Y-112442735D01*
X141047048Y-112468505D01*
X141039998Y-112501337D01*
X141050158Y-112519966D01*
X141053983Y-112522632D01*
X141089999Y-112533340D01*
X141140434Y-112534856D01*
X141192374Y-112527759D01*
X141229178Y-112514788D01*
X141280062Y-112471585D01*
X141308986Y-112411446D01*
X141314714Y-112364462D01*
X141310343Y-112322082D01*
X141294525Y-112287488D01*
X141263203Y-112256763D01*
X141212322Y-112225990D01*
X141137824Y-112191252D01*
X141133286Y-112189288D01*
X141066179Y-112158287D01*
X141024768Y-112132862D01*
X141007019Y-112110014D01*
X141010893Y-112086745D01*
X141034357Y-112060056D01*
X141041373Y-112053914D01*
X141088370Y-112030100D01*
X141137067Y-112031103D01*
X141179478Y-112054451D01*
X141207616Y-112097675D01*
X141210231Y-112106160D01*
X141235692Y-112147308D01*
X141267999Y-112167128D01*
X141314714Y-112186770D01*
X141314714Y-112135950D01*
X141300504Y-112062082D01*
X141258325Y-111994327D01*
X141236376Y-111971661D01*
X141186483Y-111942569D01*
X141123033Y-111929400D01*
X141057256Y-111932968D01*
X141057256Y-111932968D01*
G37*
X141057256Y-111932968D02*
X141000384Y-111954087D01*
X140999733Y-111954493D01*
X140964560Y-111980380D01*
X140938593Y-112010633D01*
X140920330Y-112050058D01*
X140908268Y-112103462D01*
X140900904Y-112175651D01*
X140896736Y-112271432D01*
X140896371Y-112285078D01*
X140891124Y-112490842D01*
X140935284Y-112513678D01*
X140967237Y-112529110D01*
X140986530Y-112536423D01*
X140987422Y-112536514D01*
X140990761Y-112523022D01*
X140993413Y-112486626D01*
X140995044Y-112433452D01*
X140995400Y-112390393D01*
X140995408Y-112320641D01*
X140998597Y-112276837D01*
X141009712Y-112255944D01*
X141033499Y-112254925D01*
X141074704Y-112270741D01*
X141136914Y-112299815D01*
X141182659Y-112323963D01*
X141206187Y-112344913D01*
X141213104Y-112367747D01*
X141213114Y-112368877D01*
X141201701Y-112408212D01*
X141167908Y-112429462D01*
X141116191Y-112432539D01*
X141078939Y-112432006D01*
X141059297Y-112442735D01*
X141047048Y-112468505D01*
X141039998Y-112501337D01*
X141050158Y-112519966D01*
X141053983Y-112522632D01*
X141089999Y-112533340D01*
X141140434Y-112534856D01*
X141192374Y-112527759D01*
X141229178Y-112514788D01*
X141280062Y-112471585D01*
X141308986Y-112411446D01*
X141314714Y-112364462D01*
X141310343Y-112322082D01*
X141294525Y-112287488D01*
X141263203Y-112256763D01*
X141212322Y-112225990D01*
X141137824Y-112191252D01*
X141133286Y-112189288D01*
X141066179Y-112158287D01*
X141024768Y-112132862D01*
X141007019Y-112110014D01*
X141010893Y-112086745D01*
X141034357Y-112060056D01*
X141041373Y-112053914D01*
X141088370Y-112030100D01*
X141137067Y-112031103D01*
X141179478Y-112054451D01*
X141207616Y-112097675D01*
X141210231Y-112106160D01*
X141235692Y-112147308D01*
X141267999Y-112167128D01*
X141314714Y-112186770D01*
X141314714Y-112135950D01*
X141300504Y-112062082D01*
X141258325Y-111994327D01*
X141236376Y-111971661D01*
X141186483Y-111942569D01*
X141123033Y-111929400D01*
X141057256Y-111932968D01*
G36*
X140567074Y-111931755D02*
G01*
X140501142Y-111956084D01*
X140447727Y-111999117D01*
X140426836Y-112029409D01*
X140404061Y-112084994D01*
X140404534Y-112125186D01*
X140428438Y-112152217D01*
X140437283Y-112156813D01*
X140475470Y-112171144D01*
X140494972Y-112167472D01*
X140501578Y-112143407D01*
X140501914Y-112130114D01*
X140514008Y-112081210D01*
X140545529Y-112046999D01*
X140589341Y-112030476D01*
X140638305Y-112034634D01*
X140678106Y-112056227D01*
X140691550Y-112068544D01*
X140701079Y-112083487D01*
X140707515Y-112106075D01*
X140711683Y-112141328D01*
X140714403Y-112194266D01*
X140716498Y-112269907D01*
X140717040Y-112293857D01*
X140719019Y-112375790D01*
X140721269Y-112433455D01*
X140724643Y-112471608D01*
X140729994Y-112495004D01*
X140738176Y-112508398D01*
X140750041Y-112516545D01*
X140757638Y-112520144D01*
X140789898Y-112532452D01*
X140808889Y-112536514D01*
X140815164Y-112522948D01*
X140818994Y-112481934D01*
X140820400Y-112412999D01*
X140819402Y-112315669D01*
X140819092Y-112300657D01*
X140816899Y-112211859D01*
X140814307Y-112147019D01*
X140810618Y-112101067D01*
X140805136Y-112068935D01*
X140797165Y-112045553D01*
X140786007Y-112025852D01*
X140780170Y-112017410D01*
X140746704Y-111980057D01*
X140709273Y-111951003D01*
X140704691Y-111948467D01*
X140637574Y-111928443D01*
X140567074Y-111931755D01*
X140567074Y-111931755D01*
G37*
X140567074Y-111931755D02*
X140501142Y-111956084D01*
X140447727Y-111999117D01*
X140426836Y-112029409D01*
X140404061Y-112084994D01*
X140404534Y-112125186D01*
X140428438Y-112152217D01*
X140437283Y-112156813D01*
X140475470Y-112171144D01*
X140494972Y-112167472D01*
X140501578Y-112143407D01*
X140501914Y-112130114D01*
X140514008Y-112081210D01*
X140545529Y-112046999D01*
X140589341Y-112030476D01*
X140638305Y-112034634D01*
X140678106Y-112056227D01*
X140691550Y-112068544D01*
X140701079Y-112083487D01*
X140707515Y-112106075D01*
X140711683Y-112141328D01*
X140714403Y-112194266D01*
X140716498Y-112269907D01*
X140717040Y-112293857D01*
X140719019Y-112375790D01*
X140721269Y-112433455D01*
X140724643Y-112471608D01*
X140729994Y-112495004D01*
X140738176Y-112508398D01*
X140750041Y-112516545D01*
X140757638Y-112520144D01*
X140789898Y-112532452D01*
X140808889Y-112536514D01*
X140815164Y-112522948D01*
X140818994Y-112481934D01*
X140820400Y-112412999D01*
X140819402Y-112315669D01*
X140819092Y-112300657D01*
X140816899Y-112211859D01*
X140814307Y-112147019D01*
X140810618Y-112101067D01*
X140805136Y-112068935D01*
X140797165Y-112045553D01*
X140786007Y-112025852D01*
X140780170Y-112017410D01*
X140746704Y-111980057D01*
X140709273Y-111951003D01*
X140704691Y-111948467D01*
X140637574Y-111928443D01*
X140567074Y-111931755D01*
G36*
X139906883Y-112047358D02*
G01*
X139907067Y-112155837D01*
X139907781Y-112239287D01*
X139909325Y-112301704D01*
X139911999Y-112347085D01*
X139916106Y-112379429D01*
X139921945Y-112402733D01*
X139929818Y-112420995D01*
X139935779Y-112431418D01*
X139985145Y-112487945D01*
X140047736Y-112523377D01*
X140116987Y-112536090D01*
X140186332Y-112524463D01*
X140227625Y-112503568D01*
X140270975Y-112467422D01*
X140300519Y-112423276D01*
X140318345Y-112365462D01*
X140326537Y-112288313D01*
X140327698Y-112231714D01*
X140327542Y-112227647D01*
X140226143Y-112227647D01*
X140225524Y-112292550D01*
X140222686Y-112335514D01*
X140216160Y-112363622D01*
X140204477Y-112383953D01*
X140190517Y-112399288D01*
X140143635Y-112428890D01*
X140093299Y-112431419D01*
X140045724Y-112406705D01*
X140042021Y-112403356D01*
X140026217Y-112385935D01*
X140016307Y-112365209D01*
X140010942Y-112334362D01*
X140008772Y-112286577D01*
X140008429Y-112233748D01*
X140009173Y-112167381D01*
X140012252Y-112123106D01*
X140018939Y-112094009D01*
X140030504Y-112073173D01*
X140039987Y-112062107D01*
X140084040Y-112034198D01*
X140134776Y-112030843D01*
X140183204Y-112052159D01*
X140192550Y-112060073D01*
X140208460Y-112077647D01*
X140218390Y-112098587D01*
X140223722Y-112129782D01*
X140225837Y-112178122D01*
X140226143Y-112227647D01*
X140327542Y-112227647D01*
X140324190Y-112140568D01*
X140312274Y-112072086D01*
X140289865Y-112020600D01*
X140254876Y-111980443D01*
X140227625Y-111959861D01*
X140178093Y-111937625D01*
X140120684Y-111927304D01*
X140067318Y-111930067D01*
X140037457Y-111941212D01*
X140025739Y-111944383D01*
X140017963Y-111932557D01*
X140012535Y-111900866D01*
X140008429Y-111852593D01*
X140003933Y-111798829D01*
X139997687Y-111766482D01*
X139986324Y-111747985D01*
X139966472Y-111735770D01*
X139954000Y-111730362D01*
X139906829Y-111710601D01*
X139906883Y-112047358D01*
X139906883Y-112047358D01*
G37*
X139906883Y-112047358D02*
X139907067Y-112155837D01*
X139907781Y-112239287D01*
X139909325Y-112301704D01*
X139911999Y-112347085D01*
X139916106Y-112379429D01*
X139921945Y-112402733D01*
X139929818Y-112420995D01*
X139935779Y-112431418D01*
X139985145Y-112487945D01*
X140047736Y-112523377D01*
X140116987Y-112536090D01*
X140186332Y-112524463D01*
X140227625Y-112503568D01*
X140270975Y-112467422D01*
X140300519Y-112423276D01*
X140318345Y-112365462D01*
X140326537Y-112288313D01*
X140327698Y-112231714D01*
X140327542Y-112227647D01*
X140226143Y-112227647D01*
X140225524Y-112292550D01*
X140222686Y-112335514D01*
X140216160Y-112363622D01*
X140204477Y-112383953D01*
X140190517Y-112399288D01*
X140143635Y-112428890D01*
X140093299Y-112431419D01*
X140045724Y-112406705D01*
X140042021Y-112403356D01*
X140026217Y-112385935D01*
X140016307Y-112365209D01*
X140010942Y-112334362D01*
X140008772Y-112286577D01*
X140008429Y-112233748D01*
X140009173Y-112167381D01*
X140012252Y-112123106D01*
X140018939Y-112094009D01*
X140030504Y-112073173D01*
X140039987Y-112062107D01*
X140084040Y-112034198D01*
X140134776Y-112030843D01*
X140183204Y-112052159D01*
X140192550Y-112060073D01*
X140208460Y-112077647D01*
X140218390Y-112098587D01*
X140223722Y-112129782D01*
X140225837Y-112178122D01*
X140226143Y-112227647D01*
X140327542Y-112227647D01*
X140324190Y-112140568D01*
X140312274Y-112072086D01*
X140289865Y-112020600D01*
X140254876Y-111980443D01*
X140227625Y-111959861D01*
X140178093Y-111937625D01*
X140120684Y-111927304D01*
X140067318Y-111930067D01*
X140037457Y-111941212D01*
X140025739Y-111944383D01*
X140017963Y-111932557D01*
X140012535Y-111900866D01*
X140008429Y-111852593D01*
X140003933Y-111798829D01*
X139997687Y-111766482D01*
X139986324Y-111747985D01*
X139966472Y-111735770D01*
X139954000Y-111730362D01*
X139906829Y-111710601D01*
X139906883Y-112047358D01*
G36*
X139317167Y-111940663D02*
G01*
X139314952Y-111978850D01*
X139313216Y-112036886D01*
X139312101Y-112110180D01*
X139311743Y-112187055D01*
X139311743Y-112447196D01*
X139357674Y-112493127D01*
X139389325Y-112521429D01*
X139417110Y-112532893D01*
X139455085Y-112532168D01*
X139470160Y-112530321D01*
X139517274Y-112524948D01*
X139556244Y-112521869D01*
X139565743Y-112521585D01*
X139597767Y-112523445D01*
X139643568Y-112528114D01*
X139661326Y-112530321D01*
X139704943Y-112533735D01*
X139734255Y-112526320D01*
X139763320Y-112503427D01*
X139773812Y-112493127D01*
X139819743Y-112447196D01*
X139819743Y-111960602D01*
X139782774Y-111943758D01*
X139750941Y-111931282D01*
X139732317Y-111926914D01*
X139727542Y-111940718D01*
X139723079Y-111979286D01*
X139719225Y-112038356D01*
X139716278Y-112113663D01*
X139714857Y-112177286D01*
X139710886Y-112427657D01*
X139676241Y-112432556D01*
X139644732Y-112429131D01*
X139629292Y-112418041D01*
X139624977Y-112397308D01*
X139621292Y-112353145D01*
X139618531Y-112291146D01*
X139616988Y-112216909D01*
X139616765Y-112178706D01*
X139616543Y-111958783D01*
X139570834Y-111942849D01*
X139538482Y-111932015D01*
X139520885Y-111926962D01*
X139520377Y-111926914D01*
X139518612Y-111940648D01*
X139516671Y-111978730D01*
X139514718Y-112036482D01*
X139512916Y-112109227D01*
X139511657Y-112177286D01*
X139507686Y-112427657D01*
X139420600Y-112427657D01*
X139416604Y-112199240D01*
X139412608Y-111970822D01*
X139370153Y-111948868D01*
X139338808Y-111933793D01*
X139320256Y-111926951D01*
X139319721Y-111926914D01*
X139317167Y-111940663D01*
X139317167Y-111940663D01*
G37*
X139317167Y-111940663D02*
X139314952Y-111978850D01*
X139313216Y-112036886D01*
X139312101Y-112110180D01*
X139311743Y-112187055D01*
X139311743Y-112447196D01*
X139357674Y-112493127D01*
X139389325Y-112521429D01*
X139417110Y-112532893D01*
X139455085Y-112532168D01*
X139470160Y-112530321D01*
X139517274Y-112524948D01*
X139556244Y-112521869D01*
X139565743Y-112521585D01*
X139597767Y-112523445D01*
X139643568Y-112528114D01*
X139661326Y-112530321D01*
X139704943Y-112533735D01*
X139734255Y-112526320D01*
X139763320Y-112503427D01*
X139773812Y-112493127D01*
X139819743Y-112447196D01*
X139819743Y-111960602D01*
X139782774Y-111943758D01*
X139750941Y-111931282D01*
X139732317Y-111926914D01*
X139727542Y-111940718D01*
X139723079Y-111979286D01*
X139719225Y-112038356D01*
X139716278Y-112113663D01*
X139714857Y-112177286D01*
X139710886Y-112427657D01*
X139676241Y-112432556D01*
X139644732Y-112429131D01*
X139629292Y-112418041D01*
X139624977Y-112397308D01*
X139621292Y-112353145D01*
X139618531Y-112291146D01*
X139616988Y-112216909D01*
X139616765Y-112178706D01*
X139616543Y-111958783D01*
X139570834Y-111942849D01*
X139538482Y-111932015D01*
X139520885Y-111926962D01*
X139520377Y-111926914D01*
X139518612Y-111940648D01*
X139516671Y-111978730D01*
X139514718Y-112036482D01*
X139512916Y-112109227D01*
X139511657Y-112177286D01*
X139507686Y-112427657D01*
X139420600Y-112427657D01*
X139416604Y-112199240D01*
X139412608Y-111970822D01*
X139370153Y-111948868D01*
X139338808Y-111933793D01*
X139320256Y-111926951D01*
X139319721Y-111926914D01*
X139317167Y-111940663D01*
G36*
X138952124Y-111938335D02*
G01*
X138910333Y-111957344D01*
X138877531Y-111980378D01*
X138853497Y-112006133D01*
X138836903Y-112039358D01*
X138826423Y-112084800D01*
X138820729Y-112147207D01*
X138818493Y-112231327D01*
X138818257Y-112286721D01*
X138818257Y-112502826D01*
X138855226Y-112519670D01*
X138884344Y-112531981D01*
X138898769Y-112536514D01*
X138901528Y-112523025D01*
X138903718Y-112486653D01*
X138905058Y-112433542D01*
X138905343Y-112391372D01*
X138906566Y-112330447D01*
X138909864Y-112282115D01*
X138914679Y-112252518D01*
X138918504Y-112246229D01*
X138944217Y-112252652D01*
X138984582Y-112269125D01*
X139031321Y-112291458D01*
X139076155Y-112315457D01*
X139110807Y-112336930D01*
X139126998Y-112351685D01*
X139127062Y-112351845D01*
X139125670Y-112379152D01*
X139113182Y-112405219D01*
X139091257Y-112426392D01*
X139059257Y-112433474D01*
X139031908Y-112432649D01*
X138993174Y-112432042D01*
X138972842Y-112441116D01*
X138960631Y-112465092D01*
X138959091Y-112469613D01*
X138953797Y-112503806D01*
X138967953Y-112524568D01*
X139004852Y-112534462D01*
X139044711Y-112536292D01*
X139116438Y-112522727D01*
X139153568Y-112503355D01*
X139199424Y-112457845D01*
X139223744Y-112401983D01*
X139225927Y-112342957D01*
X139205371Y-112287953D01*
X139174451Y-112253486D01*
X139143580Y-112234189D01*
X139095058Y-112209759D01*
X139038515Y-112184985D01*
X139029090Y-112181199D01*
X138966981Y-112153791D01*
X138931178Y-112129634D01*
X138919663Y-112105619D01*
X138930420Y-112078635D01*
X138948886Y-112057543D01*
X138992531Y-112031572D01*
X139040554Y-112029624D01*
X139084594Y-112049637D01*
X139116291Y-112089551D01*
X139120451Y-112099848D01*
X139144673Y-112137724D01*
X139180035Y-112165842D01*
X139224657Y-112188917D01*
X139224657Y-112123485D01*
X139222031Y-112083506D01*
X139210770Y-112051997D01*
X139185801Y-112018378D01*
X139161831Y-111992484D01*
X139124559Y-111955817D01*
X139095599Y-111936121D01*
X139064495Y-111928220D01*
X139029287Y-111926914D01*
X138952124Y-111938335D01*
X138952124Y-111938335D01*
G37*
X138952124Y-111938335D02*
X138910333Y-111957344D01*
X138877531Y-111980378D01*
X138853497Y-112006133D01*
X138836903Y-112039358D01*
X138826423Y-112084800D01*
X138820729Y-112147207D01*
X138818493Y-112231327D01*
X138818257Y-112286721D01*
X138818257Y-112502826D01*
X138855226Y-112519670D01*
X138884344Y-112531981D01*
X138898769Y-112536514D01*
X138901528Y-112523025D01*
X138903718Y-112486653D01*
X138905058Y-112433542D01*
X138905343Y-112391372D01*
X138906566Y-112330447D01*
X138909864Y-112282115D01*
X138914679Y-112252518D01*
X138918504Y-112246229D01*
X138944217Y-112252652D01*
X138984582Y-112269125D01*
X139031321Y-112291458D01*
X139076155Y-112315457D01*
X139110807Y-112336930D01*
X139126998Y-112351685D01*
X139127062Y-112351845D01*
X139125670Y-112379152D01*
X139113182Y-112405219D01*
X139091257Y-112426392D01*
X139059257Y-112433474D01*
X139031908Y-112432649D01*
X138993174Y-112432042D01*
X138972842Y-112441116D01*
X138960631Y-112465092D01*
X138959091Y-112469613D01*
X138953797Y-112503806D01*
X138967953Y-112524568D01*
X139004852Y-112534462D01*
X139044711Y-112536292D01*
X139116438Y-112522727D01*
X139153568Y-112503355D01*
X139199424Y-112457845D01*
X139223744Y-112401983D01*
X139225927Y-112342957D01*
X139205371Y-112287953D01*
X139174451Y-112253486D01*
X139143580Y-112234189D01*
X139095058Y-112209759D01*
X139038515Y-112184985D01*
X139029090Y-112181199D01*
X138966981Y-112153791D01*
X138931178Y-112129634D01*
X138919663Y-112105619D01*
X138930420Y-112078635D01*
X138948886Y-112057543D01*
X138992531Y-112031572D01*
X139040554Y-112029624D01*
X139084594Y-112049637D01*
X139116291Y-112089551D01*
X139120451Y-112099848D01*
X139144673Y-112137724D01*
X139180035Y-112165842D01*
X139224657Y-112188917D01*
X139224657Y-112123485D01*
X139222031Y-112083506D01*
X139210770Y-112051997D01*
X139185801Y-112018378D01*
X139161831Y-111992484D01*
X139124559Y-111955817D01*
X139095599Y-111936121D01*
X139064495Y-111928220D01*
X139029287Y-111926914D01*
X138952124Y-111938335D01*
G36*
X138444400Y-111940752D02*
G01*
X138427052Y-111948334D01*
X138385644Y-111981128D01*
X138350235Y-112028547D01*
X138328336Y-112079151D01*
X138324771Y-112104098D01*
X138336721Y-112138927D01*
X138362933Y-112157357D01*
X138391036Y-112168516D01*
X138403905Y-112170572D01*
X138410171Y-112155649D01*
X138422544Y-112123175D01*
X138427972Y-112108502D01*
X138458410Y-112057744D01*
X138502480Y-112032427D01*
X138558990Y-112033206D01*
X138563175Y-112034203D01*
X138593345Y-112048507D01*
X138615524Y-112076393D01*
X138630673Y-112121287D01*
X138639750Y-112186615D01*
X138643714Y-112275804D01*
X138644086Y-112323261D01*
X138644270Y-112398071D01*
X138645478Y-112449069D01*
X138648691Y-112481471D01*
X138654891Y-112500495D01*
X138665060Y-112511356D01*
X138680181Y-112519272D01*
X138681054Y-112519670D01*
X138710172Y-112531981D01*
X138724597Y-112536514D01*
X138726814Y-112522809D01*
X138728711Y-112484925D01*
X138730153Y-112427715D01*
X138731002Y-112356027D01*
X138731171Y-112303565D01*
X138730308Y-112202047D01*
X138726930Y-112125032D01*
X138719858Y-112068023D01*
X138707912Y-112026526D01*
X138689910Y-111996043D01*
X138664673Y-111972080D01*
X138639753Y-111955355D01*
X138579829Y-111933097D01*
X138510089Y-111928076D01*
X138444400Y-111940752D01*
X138444400Y-111940752D01*
G37*
X138444400Y-111940752D02*
X138427052Y-111948334D01*
X138385644Y-111981128D01*
X138350235Y-112028547D01*
X138328336Y-112079151D01*
X138324771Y-112104098D01*
X138336721Y-112138927D01*
X138362933Y-112157357D01*
X138391036Y-112168516D01*
X138403905Y-112170572D01*
X138410171Y-112155649D01*
X138422544Y-112123175D01*
X138427972Y-112108502D01*
X138458410Y-112057744D01*
X138502480Y-112032427D01*
X138558990Y-112033206D01*
X138563175Y-112034203D01*
X138593345Y-112048507D01*
X138615524Y-112076393D01*
X138630673Y-112121287D01*
X138639750Y-112186615D01*
X138643714Y-112275804D01*
X138644086Y-112323261D01*
X138644270Y-112398071D01*
X138645478Y-112449069D01*
X138648691Y-112481471D01*
X138654891Y-112500495D01*
X138665060Y-112511356D01*
X138680181Y-112519272D01*
X138681054Y-112519670D01*
X138710172Y-112531981D01*
X138724597Y-112536514D01*
X138726814Y-112522809D01*
X138728711Y-112484925D01*
X138730153Y-112427715D01*
X138731002Y-112356027D01*
X138731171Y-112303565D01*
X138730308Y-112202047D01*
X138726930Y-112125032D01*
X138719858Y-112068023D01*
X138707912Y-112026526D01*
X138689910Y-111996043D01*
X138664673Y-111972080D01*
X138639753Y-111955355D01*
X138579829Y-111933097D01*
X138510089Y-111928076D01*
X138444400Y-111940752D01*
G36*
X137943405Y-111948966D02*
G01*
X137885979Y-111986497D01*
X137858281Y-112020096D01*
X137836338Y-112081064D01*
X137834595Y-112129308D01*
X137838543Y-112193816D01*
X137987314Y-112258934D01*
X138059651Y-112292202D01*
X138106916Y-112318964D01*
X138131493Y-112342144D01*
X138135763Y-112364667D01*
X138122111Y-112389455D01*
X138107057Y-112405886D01*
X138063254Y-112432235D01*
X138015611Y-112434081D01*
X137971855Y-112413546D01*
X137939711Y-112372752D01*
X137933962Y-112358347D01*
X137906424Y-112313356D01*
X137874742Y-112294182D01*
X137831286Y-112277779D01*
X137831286Y-112339966D01*
X137835128Y-112382283D01*
X137850177Y-112417969D01*
X137881720Y-112458943D01*
X137886408Y-112464267D01*
X137921494Y-112500720D01*
X137951653Y-112520283D01*
X137989385Y-112529283D01*
X138020665Y-112532230D01*
X138076615Y-112532965D01*
X138116445Y-112523660D01*
X138141292Y-112509846D01*
X138180344Y-112479467D01*
X138207375Y-112446613D01*
X138224483Y-112405294D01*
X138233762Y-112349521D01*
X138237307Y-112273305D01*
X138237590Y-112234622D01*
X138236628Y-112188247D01*
X138148993Y-112188247D01*
X138147977Y-112213126D01*
X138145444Y-112217200D01*
X138128726Y-112211665D01*
X138092751Y-112197017D01*
X138044669Y-112176190D01*
X138034614Y-112171714D01*
X137973848Y-112140814D01*
X137940368Y-112113657D01*
X137933010Y-112088220D01*
X137950609Y-112062481D01*
X137965144Y-112051109D01*
X138017590Y-112028364D01*
X138066678Y-112032122D01*
X138107773Y-112059884D01*
X138136242Y-112109152D01*
X138145369Y-112148257D01*
X138148993Y-112188247D01*
X138236628Y-112188247D01*
X138235715Y-112144249D01*
X138228804Y-112077384D01*
X138215116Y-112028695D01*
X138192904Y-111992849D01*
X138160426Y-111964513D01*
X138146267Y-111955355D01*
X138081947Y-111931507D01*
X138011527Y-111930006D01*
X137943405Y-111948966D01*
X137943405Y-111948966D01*
G37*
X137943405Y-111948966D02*
X137885979Y-111986497D01*
X137858281Y-112020096D01*
X137836338Y-112081064D01*
X137834595Y-112129308D01*
X137838543Y-112193816D01*
X137987314Y-112258934D01*
X138059651Y-112292202D01*
X138106916Y-112318964D01*
X138131493Y-112342144D01*
X138135763Y-112364667D01*
X138122111Y-112389455D01*
X138107057Y-112405886D01*
X138063254Y-112432235D01*
X138015611Y-112434081D01*
X137971855Y-112413546D01*
X137939711Y-112372752D01*
X137933962Y-112358347D01*
X137906424Y-112313356D01*
X137874742Y-112294182D01*
X137831286Y-112277779D01*
X137831286Y-112339966D01*
X137835128Y-112382283D01*
X137850177Y-112417969D01*
X137881720Y-112458943D01*
X137886408Y-112464267D01*
X137921494Y-112500720D01*
X137951653Y-112520283D01*
X137989385Y-112529283D01*
X138020665Y-112532230D01*
X138076615Y-112532965D01*
X138116445Y-112523660D01*
X138141292Y-112509846D01*
X138180344Y-112479467D01*
X138207375Y-112446613D01*
X138224483Y-112405294D01*
X138233762Y-112349521D01*
X138237307Y-112273305D01*
X138237590Y-112234622D01*
X138236628Y-112188247D01*
X138148993Y-112188247D01*
X138147977Y-112213126D01*
X138145444Y-112217200D01*
X138128726Y-112211665D01*
X138092751Y-112197017D01*
X138044669Y-112176190D01*
X138034614Y-112171714D01*
X137973848Y-112140814D01*
X137940368Y-112113657D01*
X137933010Y-112088220D01*
X137950609Y-112062481D01*
X137965144Y-112051109D01*
X138017590Y-112028364D01*
X138066678Y-112032122D01*
X138107773Y-112059884D01*
X138136242Y-112109152D01*
X138145369Y-112148257D01*
X138148993Y-112188247D01*
X138236628Y-112188247D01*
X138235715Y-112144249D01*
X138228804Y-112077384D01*
X138215116Y-112028695D01*
X138192904Y-111992849D01*
X138160426Y-111964513D01*
X138146267Y-111955355D01*
X138081947Y-111931507D01*
X138011527Y-111930006D01*
X137943405Y-111948966D01*
G36*
X140993090Y-107224348D02*
G01*
X140914546Y-107224778D01*
X140857702Y-107225942D01*
X140818895Y-107228207D01*
X140794462Y-107231940D01*
X140780738Y-107237506D01*
X140774060Y-107245273D01*
X140770764Y-107255605D01*
X140770444Y-107256943D01*
X140765438Y-107281079D01*
X140756171Y-107328701D01*
X140743608Y-107394741D01*
X140728713Y-107474128D01*
X140712449Y-107561796D01*
X140711881Y-107564875D01*
X140695590Y-107650789D01*
X140680348Y-107726696D01*
X140667139Y-107788045D01*
X140656946Y-107830282D01*
X140650752Y-107848855D01*
X140650457Y-107849184D01*
X140632212Y-107858253D01*
X140594595Y-107873367D01*
X140545729Y-107891262D01*
X140545457Y-107891358D01*
X140483907Y-107914493D01*
X140411343Y-107943965D01*
X140342943Y-107973597D01*
X140339706Y-107975062D01*
X140228298Y-108025626D01*
X139981601Y-107857160D01*
X139905923Y-107805803D01*
X139837369Y-107759889D01*
X139779912Y-107722030D01*
X139737524Y-107694837D01*
X139714175Y-107680921D01*
X139711958Y-107679889D01*
X139694990Y-107684484D01*
X139663299Y-107706655D01*
X139615648Y-107747447D01*
X139550802Y-107807905D01*
X139484603Y-107872227D01*
X139420786Y-107935612D01*
X139363671Y-107993451D01*
X139316695Y-108042175D01*
X139283297Y-108078210D01*
X139266915Y-108097984D01*
X139266306Y-108099002D01*
X139264495Y-108112572D01*
X139271317Y-108134733D01*
X139288460Y-108168478D01*
X139317607Y-108216800D01*
X139360445Y-108282692D01*
X139417552Y-108367517D01*
X139468234Y-108442177D01*
X139513539Y-108509140D01*
X139550850Y-108564516D01*
X139577548Y-108604420D01*
X139591015Y-108624962D01*
X139591863Y-108626356D01*
X139590219Y-108646038D01*
X139577755Y-108684293D01*
X139556952Y-108733889D01*
X139549538Y-108749728D01*
X139517186Y-108820290D01*
X139482672Y-108900353D01*
X139454635Y-108969629D01*
X139434432Y-109021045D01*
X139418385Y-109060119D01*
X139409112Y-109080541D01*
X139407959Y-109082114D01*
X139390904Y-109084721D01*
X139350702Y-109091863D01*
X139292698Y-109102523D01*
X139222237Y-109115685D01*
X139144665Y-109130333D01*
X139065328Y-109145449D01*
X138989569Y-109160018D01*
X138922736Y-109173022D01*
X138870172Y-109183445D01*
X138837224Y-109190270D01*
X138829143Y-109192199D01*
X138820795Y-109196962D01*
X138814494Y-109207718D01*
X138809955Y-109228098D01*
X138806896Y-109261734D01*
X138805033Y-109312255D01*
X138804082Y-109383292D01*
X138803760Y-109478476D01*
X138803743Y-109517492D01*
X138803743Y-109834799D01*
X138879943Y-109849839D01*
X138922337Y-109857995D01*
X138985600Y-109869899D01*
X139062038Y-109884116D01*
X139143957Y-109899210D01*
X139166600Y-109903355D01*
X139242194Y-109918053D01*
X139308047Y-109932505D01*
X139358634Y-109945375D01*
X139388426Y-109955322D01*
X139393388Y-109958287D01*
X139405574Y-109979283D01*
X139423047Y-110019967D01*
X139442423Y-110072322D01*
X139446266Y-110083600D01*
X139471661Y-110153523D01*
X139503183Y-110232418D01*
X139534031Y-110303266D01*
X139534183Y-110303595D01*
X139585553Y-110414733D01*
X139416601Y-110663253D01*
X139247648Y-110911772D01*
X139464571Y-111129058D01*
X139530181Y-111193726D01*
X139590021Y-111250733D01*
X139640733Y-111297033D01*
X139678954Y-111329584D01*
X139701325Y-111345343D01*
X139704534Y-111346343D01*
X139723374Y-111338469D01*
X139761820Y-111316578D01*
X139815670Y-111283267D01*
X139880724Y-111241131D01*
X139951060Y-111193943D01*
X140022445Y-111145810D01*
X140086092Y-111103928D01*
X140137959Y-111070871D01*
X140174005Y-111049218D01*
X140190133Y-111041543D01*
X140209811Y-111048037D01*
X140247125Y-111065150D01*
X140294379Y-111089326D01*
X140299388Y-111092013D01*
X140363023Y-111123927D01*
X140406659Y-111139579D01*
X140433798Y-111139745D01*
X140447943Y-111125204D01*
X140448025Y-111125000D01*
X140455095Y-111107779D01*
X140471958Y-111066899D01*
X140497305Y-111005525D01*
X140529829Y-110926819D01*
X140568222Y-110833947D01*
X140611178Y-110730072D01*
X140652778Y-110629502D01*
X140698496Y-110518516D01*
X140740474Y-110415703D01*
X140777452Y-110324215D01*
X140808173Y-110247201D01*
X140831378Y-110187815D01*
X140845810Y-110149209D01*
X140850257Y-110134800D01*
X140839104Y-110118272D01*
X140809931Y-110091930D01*
X140771029Y-110062887D01*
X140660243Y-109971039D01*
X140573649Y-109865759D01*
X140512284Y-109749266D01*
X140477185Y-109623776D01*
X140469392Y-109491507D01*
X140475057Y-109430457D01*
X140505922Y-109303795D01*
X140559080Y-109191941D01*
X140631233Y-109096001D01*
X140719083Y-109017076D01*
X140819335Y-108956270D01*
X140928690Y-108914687D01*
X141043853Y-108893428D01*
X141161525Y-108893599D01*
X141278410Y-108916301D01*
X141391211Y-108962638D01*
X141496631Y-109033713D01*
X141540632Y-109073911D01*
X141625021Y-109177129D01*
X141683778Y-109289925D01*
X141717296Y-109409010D01*
X141725965Y-109531095D01*
X141710177Y-109652893D01*
X141670322Y-109771116D01*
X141606793Y-109882475D01*
X141519979Y-109983684D01*
X141422971Y-110062887D01*
X141382563Y-110093162D01*
X141354018Y-110119219D01*
X141343743Y-110134825D01*
X141349123Y-110151843D01*
X141364425Y-110192500D01*
X141388388Y-110253642D01*
X141419756Y-110332119D01*
X141457268Y-110424780D01*
X141499667Y-110528472D01*
X141541337Y-110629526D01*
X141587310Y-110740607D01*
X141629893Y-110843541D01*
X141667779Y-110935165D01*
X141699660Y-111012316D01*
X141724229Y-111071831D01*
X141740180Y-111110544D01*
X141746090Y-111125000D01*
X141760052Y-111139685D01*
X141787060Y-111139642D01*
X141830587Y-111124099D01*
X141894110Y-111092284D01*
X141894612Y-111092013D01*
X141942440Y-111067323D01*
X141981103Y-111049338D01*
X142002905Y-111041614D01*
X142003867Y-111041543D01*
X142020279Y-111049378D01*
X142056513Y-111071165D01*
X142108526Y-111104328D01*
X142172275Y-111146291D01*
X142242940Y-111193943D01*
X142314884Y-111242191D01*
X142379726Y-111284151D01*
X142433265Y-111317227D01*
X142471303Y-111338821D01*
X142489467Y-111346343D01*
X142506192Y-111336457D01*
X142539820Y-111308826D01*
X142586990Y-111266495D01*
X142644342Y-111212505D01*
X142708516Y-111149899D01*
X142729503Y-111128983D01*
X142946501Y-110911623D01*
X142781332Y-110669220D01*
X142731136Y-110594781D01*
X142687081Y-110527972D01*
X142651638Y-110472665D01*
X142627281Y-110432729D01*
X142616478Y-110412036D01*
X142616162Y-110410563D01*
X142621857Y-110391058D01*
X142637174Y-110351822D01*
X142659463Y-110299430D01*
X142675107Y-110264355D01*
X142704359Y-110197201D01*
X142731906Y-110129358D01*
X142753263Y-110072034D01*
X142759065Y-110054572D01*
X142775548Y-110007938D01*
X142791660Y-109971905D01*
X142800510Y-109958287D01*
X142820040Y-109949952D01*
X142862666Y-109938137D01*
X142922855Y-109924181D01*
X142995078Y-109909422D01*
X143027400Y-109903355D01*
X143109478Y-109888273D01*
X143188205Y-109873669D01*
X143255891Y-109860980D01*
X143304840Y-109851642D01*
X143314057Y-109849839D01*
X143390257Y-109834799D01*
X143390257Y-109517492D01*
X143390086Y-109413154D01*
X143389384Y-109334213D01*
X143387866Y-109277038D01*
X143385251Y-109237999D01*
X143381254Y-109213465D01*
X143375591Y-109199805D01*
X143367980Y-109193389D01*
X143364857Y-109192199D01*
X143346022Y-109187980D01*
X143304412Y-109179562D01*
X143245370Y-109167961D01*
X143174243Y-109154195D01*
X143096375Y-109139280D01*
X143017113Y-109124232D01*
X142941802Y-109110069D01*
X142875787Y-109097806D01*
X142824413Y-109088461D01*
X142793025Y-109083050D01*
X142786041Y-109082114D01*
X142779715Y-109069596D01*
X142765710Y-109036246D01*
X142746645Y-108988377D01*
X142739366Y-108969629D01*
X142710004Y-108897195D01*
X142675429Y-108817170D01*
X142644463Y-108749728D01*
X142621677Y-108698159D01*
X142606518Y-108655785D01*
X142601458Y-108629834D01*
X142602264Y-108626356D01*
X142612959Y-108609936D01*
X142637380Y-108573417D01*
X142672905Y-108520687D01*
X142716913Y-108455635D01*
X142766783Y-108382151D01*
X142776644Y-108367645D01*
X142834508Y-108281704D01*
X142877044Y-108216261D01*
X142905946Y-108168304D01*
X142922910Y-108134820D01*
X142929633Y-108112795D01*
X142927810Y-108099217D01*
X142927764Y-108099131D01*
X142913414Y-108081297D01*
X142881677Y-108046817D01*
X142835990Y-107999268D01*
X142779796Y-107942222D01*
X142716532Y-107879255D01*
X142709398Y-107872227D01*
X142629670Y-107795020D01*
X142568143Y-107738330D01*
X142523579Y-107701110D01*
X142494743Y-107682315D01*
X142482042Y-107679889D01*
X142463506Y-107690471D01*
X142425039Y-107714916D01*
X142370614Y-107750612D01*
X142304202Y-107794947D01*
X142229775Y-107845311D01*
X142212399Y-107857160D01*
X141965703Y-108025626D01*
X141854294Y-107975062D01*
X141786543Y-107945595D01*
X141713817Y-107915959D01*
X141651297Y-107892330D01*
X141648543Y-107891358D01*
X141599640Y-107873457D01*
X141561943Y-107858320D01*
X141543575Y-107849210D01*
X141543544Y-107849184D01*
X141537715Y-107832717D01*
X141527808Y-107792219D01*
X141514805Y-107732242D01*
X141499691Y-107657340D01*
X141483448Y-107572064D01*
X141482119Y-107564875D01*
X141465825Y-107477014D01*
X141450867Y-107397260D01*
X141438209Y-107330681D01*
X141428814Y-107282347D01*
X141423646Y-107257325D01*
X141423556Y-107256943D01*
X141420411Y-107246299D01*
X141414296Y-107238262D01*
X141401547Y-107232467D01*
X141378500Y-107228547D01*
X141341491Y-107226135D01*
X141286856Y-107224865D01*
X141210933Y-107224371D01*
X141110056Y-107224286D01*
X141097000Y-107224286D01*
X140993090Y-107224348D01*
X140993090Y-107224348D01*
G37*
X140993090Y-107224348D02*
X140914546Y-107224778D01*
X140857702Y-107225942D01*
X140818895Y-107228207D01*
X140794462Y-107231940D01*
X140780738Y-107237506D01*
X140774060Y-107245273D01*
X140770764Y-107255605D01*
X140770444Y-107256943D01*
X140765438Y-107281079D01*
X140756171Y-107328701D01*
X140743608Y-107394741D01*
X140728713Y-107474128D01*
X140712449Y-107561796D01*
X140711881Y-107564875D01*
X140695590Y-107650789D01*
X140680348Y-107726696D01*
X140667139Y-107788045D01*
X140656946Y-107830282D01*
X140650752Y-107848855D01*
X140650457Y-107849184D01*
X140632212Y-107858253D01*
X140594595Y-107873367D01*
X140545729Y-107891262D01*
X140545457Y-107891358D01*
X140483907Y-107914493D01*
X140411343Y-107943965D01*
X140342943Y-107973597D01*
X140339706Y-107975062D01*
X140228298Y-108025626D01*
X139981601Y-107857160D01*
X139905923Y-107805803D01*
X139837369Y-107759889D01*
X139779912Y-107722030D01*
X139737524Y-107694837D01*
X139714175Y-107680921D01*
X139711958Y-107679889D01*
X139694990Y-107684484D01*
X139663299Y-107706655D01*
X139615648Y-107747447D01*
X139550802Y-107807905D01*
X139484603Y-107872227D01*
X139420786Y-107935612D01*
X139363671Y-107993451D01*
X139316695Y-108042175D01*
X139283297Y-108078210D01*
X139266915Y-108097984D01*
X139266306Y-108099002D01*
X139264495Y-108112572D01*
X139271317Y-108134733D01*
X139288460Y-108168478D01*
X139317607Y-108216800D01*
X139360445Y-108282692D01*
X139417552Y-108367517D01*
X139468234Y-108442177D01*
X139513539Y-108509140D01*
X139550850Y-108564516D01*
X139577548Y-108604420D01*
X139591015Y-108624962D01*
X139591863Y-108626356D01*
X139590219Y-108646038D01*
X139577755Y-108684293D01*
X139556952Y-108733889D01*
X139549538Y-108749728D01*
X139517186Y-108820290D01*
X139482672Y-108900353D01*
X139454635Y-108969629D01*
X139434432Y-109021045D01*
X139418385Y-109060119D01*
X139409112Y-109080541D01*
X139407959Y-109082114D01*
X139390904Y-109084721D01*
X139350702Y-109091863D01*
X139292698Y-109102523D01*
X139222237Y-109115685D01*
X139144665Y-109130333D01*
X139065328Y-109145449D01*
X138989569Y-109160018D01*
X138922736Y-109173022D01*
X138870172Y-109183445D01*
X138837224Y-109190270D01*
X138829143Y-109192199D01*
X138820795Y-109196962D01*
X138814494Y-109207718D01*
X138809955Y-109228098D01*
X138806896Y-109261734D01*
X138805033Y-109312255D01*
X138804082Y-109383292D01*
X138803760Y-109478476D01*
X138803743Y-109517492D01*
X138803743Y-109834799D01*
X138879943Y-109849839D01*
X138922337Y-109857995D01*
X138985600Y-109869899D01*
X139062038Y-109884116D01*
X139143957Y-109899210D01*
X139166600Y-109903355D01*
X139242194Y-109918053D01*
X139308047Y-109932505D01*
X139358634Y-109945375D01*
X139388426Y-109955322D01*
X139393388Y-109958287D01*
X139405574Y-109979283D01*
X139423047Y-110019967D01*
X139442423Y-110072322D01*
X139446266Y-110083600D01*
X139471661Y-110153523D01*
X139503183Y-110232418D01*
X139534031Y-110303266D01*
X139534183Y-110303595D01*
X139585553Y-110414733D01*
X139416601Y-110663253D01*
X139247648Y-110911772D01*
X139464571Y-111129058D01*
X139530181Y-111193726D01*
X139590021Y-111250733D01*
X139640733Y-111297033D01*
X139678954Y-111329584D01*
X139701325Y-111345343D01*
X139704534Y-111346343D01*
X139723374Y-111338469D01*
X139761820Y-111316578D01*
X139815670Y-111283267D01*
X139880724Y-111241131D01*
X139951060Y-111193943D01*
X140022445Y-111145810D01*
X140086092Y-111103928D01*
X140137959Y-111070871D01*
X140174005Y-111049218D01*
X140190133Y-111041543D01*
X140209811Y-111048037D01*
X140247125Y-111065150D01*
X140294379Y-111089326D01*
X140299388Y-111092013D01*
X140363023Y-111123927D01*
X140406659Y-111139579D01*
X140433798Y-111139745D01*
X140447943Y-111125204D01*
X140448025Y-111125000D01*
X140455095Y-111107779D01*
X140471958Y-111066899D01*
X140497305Y-111005525D01*
X140529829Y-110926819D01*
X140568222Y-110833947D01*
X140611178Y-110730072D01*
X140652778Y-110629502D01*
X140698496Y-110518516D01*
X140740474Y-110415703D01*
X140777452Y-110324215D01*
X140808173Y-110247201D01*
X140831378Y-110187815D01*
X140845810Y-110149209D01*
X140850257Y-110134800D01*
X140839104Y-110118272D01*
X140809931Y-110091930D01*
X140771029Y-110062887D01*
X140660243Y-109971039D01*
X140573649Y-109865759D01*
X140512284Y-109749266D01*
X140477185Y-109623776D01*
X140469392Y-109491507D01*
X140475057Y-109430457D01*
X140505922Y-109303795D01*
X140559080Y-109191941D01*
X140631233Y-109096001D01*
X140719083Y-109017076D01*
X140819335Y-108956270D01*
X140928690Y-108914687D01*
X141043853Y-108893428D01*
X141161525Y-108893599D01*
X141278410Y-108916301D01*
X141391211Y-108962638D01*
X141496631Y-109033713D01*
X141540632Y-109073911D01*
X141625021Y-109177129D01*
X141683778Y-109289925D01*
X141717296Y-109409010D01*
X141725965Y-109531095D01*
X141710177Y-109652893D01*
X141670322Y-109771116D01*
X141606793Y-109882475D01*
X141519979Y-109983684D01*
X141422971Y-110062887D01*
X141382563Y-110093162D01*
X141354018Y-110119219D01*
X141343743Y-110134825D01*
X141349123Y-110151843D01*
X141364425Y-110192500D01*
X141388388Y-110253642D01*
X141419756Y-110332119D01*
X141457268Y-110424780D01*
X141499667Y-110528472D01*
X141541337Y-110629526D01*
X141587310Y-110740607D01*
X141629893Y-110843541D01*
X141667779Y-110935165D01*
X141699660Y-111012316D01*
X141724229Y-111071831D01*
X141740180Y-111110544D01*
X141746090Y-111125000D01*
X141760052Y-111139685D01*
X141787060Y-111139642D01*
X141830587Y-111124099D01*
X141894110Y-111092284D01*
X141894612Y-111092013D01*
X141942440Y-111067323D01*
X141981103Y-111049338D01*
X142002905Y-111041614D01*
X142003867Y-111041543D01*
X142020279Y-111049378D01*
X142056513Y-111071165D01*
X142108526Y-111104328D01*
X142172275Y-111146291D01*
X142242940Y-111193943D01*
X142314884Y-111242191D01*
X142379726Y-111284151D01*
X142433265Y-111317227D01*
X142471303Y-111338821D01*
X142489467Y-111346343D01*
X142506192Y-111336457D01*
X142539820Y-111308826D01*
X142586990Y-111266495D01*
X142644342Y-111212505D01*
X142708516Y-111149899D01*
X142729503Y-111128983D01*
X142946501Y-110911623D01*
X142781332Y-110669220D01*
X142731136Y-110594781D01*
X142687081Y-110527972D01*
X142651638Y-110472665D01*
X142627281Y-110432729D01*
X142616478Y-110412036D01*
X142616162Y-110410563D01*
X142621857Y-110391058D01*
X142637174Y-110351822D01*
X142659463Y-110299430D01*
X142675107Y-110264355D01*
X142704359Y-110197201D01*
X142731906Y-110129358D01*
X142753263Y-110072034D01*
X142759065Y-110054572D01*
X142775548Y-110007938D01*
X142791660Y-109971905D01*
X142800510Y-109958287D01*
X142820040Y-109949952D01*
X142862666Y-109938137D01*
X142922855Y-109924181D01*
X142995078Y-109909422D01*
X143027400Y-109903355D01*
X143109478Y-109888273D01*
X143188205Y-109873669D01*
X143255891Y-109860980D01*
X143304840Y-109851642D01*
X143314057Y-109849839D01*
X143390257Y-109834799D01*
X143390257Y-109517492D01*
X143390086Y-109413154D01*
X143389384Y-109334213D01*
X143387866Y-109277038D01*
X143385251Y-109237999D01*
X143381254Y-109213465D01*
X143375591Y-109199805D01*
X143367980Y-109193389D01*
X143364857Y-109192199D01*
X143346022Y-109187980D01*
X143304412Y-109179562D01*
X143245370Y-109167961D01*
X143174243Y-109154195D01*
X143096375Y-109139280D01*
X143017113Y-109124232D01*
X142941802Y-109110069D01*
X142875787Y-109097806D01*
X142824413Y-109088461D01*
X142793025Y-109083050D01*
X142786041Y-109082114D01*
X142779715Y-109069596D01*
X142765710Y-109036246D01*
X142746645Y-108988377D01*
X142739366Y-108969629D01*
X142710004Y-108897195D01*
X142675429Y-108817170D01*
X142644463Y-108749728D01*
X142621677Y-108698159D01*
X142606518Y-108655785D01*
X142601458Y-108629834D01*
X142602264Y-108626356D01*
X142612959Y-108609936D01*
X142637380Y-108573417D01*
X142672905Y-108520687D01*
X142716913Y-108455635D01*
X142766783Y-108382151D01*
X142776644Y-108367645D01*
X142834508Y-108281704D01*
X142877044Y-108216261D01*
X142905946Y-108168304D01*
X142922910Y-108134820D01*
X142929633Y-108112795D01*
X142927810Y-108099217D01*
X142927764Y-108099131D01*
X142913414Y-108081297D01*
X142881677Y-108046817D01*
X142835990Y-107999268D01*
X142779796Y-107942222D01*
X142716532Y-107879255D01*
X142709398Y-107872227D01*
X142629670Y-107795020D01*
X142568143Y-107738330D01*
X142523579Y-107701110D01*
X142494743Y-107682315D01*
X142482042Y-107679889D01*
X142463506Y-107690471D01*
X142425039Y-107714916D01*
X142370614Y-107750612D01*
X142304202Y-107794947D01*
X142229775Y-107845311D01*
X142212399Y-107857160D01*
X141965703Y-108025626D01*
X141854294Y-107975062D01*
X141786543Y-107945595D01*
X141713817Y-107915959D01*
X141651297Y-107892330D01*
X141648543Y-107891358D01*
X141599640Y-107873457D01*
X141561943Y-107858320D01*
X141543575Y-107849210D01*
X141543544Y-107849184D01*
X141537715Y-107832717D01*
X141527808Y-107792219D01*
X141514805Y-107732242D01*
X141499691Y-107657340D01*
X141483448Y-107572064D01*
X141482119Y-107564875D01*
X141465825Y-107477014D01*
X141450867Y-107397260D01*
X141438209Y-107330681D01*
X141428814Y-107282347D01*
X141423646Y-107257325D01*
X141423556Y-107256943D01*
X141420411Y-107246299D01*
X141414296Y-107238262D01*
X141401547Y-107232467D01*
X141378500Y-107228547D01*
X141341491Y-107226135D01*
X141286856Y-107224865D01*
X141210933Y-107224371D01*
X141110056Y-107224286D01*
X141097000Y-107224286D01*
X140993090Y-107224348D01*
M02*
