G04 #@! TF.GenerationSoftware,KiCad,Pcbnew,(5.1.4)-1*
G04 #@! TF.CreationDate,2020-06-09T22:55:58+02:00*
G04 #@! TF.ProjectId,S-VHS ZX Spectrum Rev. B,532d5648-5320-45a5-9820-537065637472,rev?*
G04 #@! TF.SameCoordinates,Original*
G04 #@! TF.FileFunction,Copper,L1,Top*
G04 #@! TF.FilePolarity,Positive*
%FSLAX46Y46*%
G04 Gerber Fmt 4.6, Leading zero omitted, Abs format (unit mm)*
G04 Created by KiCad (PCBNEW (5.1.4)-1) date 2020-06-09 22:55:58*
%MOMM*%
%LPD*%
G04 APERTURE LIST*
%ADD10R,0.508000X1.143000*%
%ADD11R,1.500000X1.300000*%
%ADD12C,1.500000*%
%ADD13C,3.465000*%
%ADD14C,5.600000*%
%ADD15R,1.500000X1.250000*%
%ADD16R,2.600000X1.600000*%
%ADD17R,3.500000X1.600000*%
%ADD18C,2.499360*%
%ADD19R,1.500000X0.450000*%
%ADD20C,0.800000*%
%ADD21C,0.250000*%
%ADD22C,0.254000*%
G04 APERTURE END LIST*
D10*
X155194000Y-93726000D03*
X156464000Y-93726000D03*
X157734000Y-93726000D03*
X159004000Y-93726000D03*
X159004000Y-87376000D03*
X157734000Y-87376000D03*
X156464000Y-87376000D03*
X155194000Y-87376000D03*
D11*
X154766000Y-103378000D03*
X152066000Y-103378000D03*
D12*
X141224000Y-93599000D03*
X148024000Y-93599000D03*
X141224000Y-96099000D03*
X148024000Y-96099000D03*
D13*
X137874000Y-90599000D03*
X144624000Y-89799000D03*
X151374000Y-90599000D03*
D14*
X138938000Y-102489000D03*
X176950000Y-102489000D03*
D15*
X158135000Y-97155000D03*
X160635000Y-97155000D03*
X160635000Y-101219000D03*
X158135000Y-101219000D03*
X165715000Y-88138000D03*
X163215000Y-88138000D03*
D16*
X166265000Y-92329000D03*
X162665000Y-92329000D03*
D17*
X176944000Y-89916000D03*
X171544000Y-89916000D03*
D18*
X146431000Y-102235000D03*
X146431000Y-106426000D03*
X146431000Y-110490000D03*
D11*
X170895000Y-102489000D03*
X168195000Y-102489000D03*
X168195000Y-106172000D03*
X170895000Y-106172000D03*
X170895000Y-109982000D03*
X168195000Y-109982000D03*
X152066000Y-99822000D03*
X154766000Y-99822000D03*
D19*
X172145000Y-97282000D03*
X169485000Y-97932000D03*
X169485000Y-96632000D03*
D20*
X159004000Y-88548100D03*
X167101200Y-88448900D03*
X166265000Y-93733200D03*
X170895000Y-104920100D03*
D21*
X170895000Y-102489000D02*
X170895000Y-103464300D01*
X168195000Y-106172000D02*
X168195000Y-105196700D01*
X168195000Y-105196700D02*
X169927400Y-103464300D01*
X169927400Y-103464300D02*
X170895000Y-103464300D01*
X172509100Y-96139200D02*
X172016300Y-96632000D01*
X172016300Y-96632000D02*
X170560300Y-96632000D01*
X176944000Y-91041300D02*
X172804700Y-95180600D01*
X172804700Y-95180600D02*
X172804700Y-95843600D01*
X172804700Y-95843600D02*
X172509100Y-96139200D01*
X172509100Y-96139200D02*
X173220400Y-96850600D01*
X173220400Y-96850600D02*
X173220400Y-99188300D01*
X173220400Y-99188300D02*
X170895000Y-101513700D01*
X170895000Y-102489000D02*
X170895000Y-101513700D01*
X176944000Y-89916000D02*
X176944000Y-91041300D01*
X169485000Y-96632000D02*
X170560300Y-96632000D01*
X171544000Y-89916000D02*
X171544000Y-88790700D01*
X146431000Y-106426000D02*
X146431000Y-104910800D01*
X146431000Y-104910800D02*
X140120300Y-98600100D01*
X140120300Y-98600100D02*
X140120300Y-95596500D01*
X140120300Y-95596500D02*
X140693200Y-95023600D01*
X140693200Y-95023600D02*
X144012700Y-95023600D01*
X144012700Y-95023600D02*
X152598900Y-86437400D01*
X152598900Y-86437400D02*
X169190700Y-86437400D01*
X169190700Y-86437400D02*
X171544000Y-88790700D01*
X159004000Y-88548100D02*
X159004000Y-87376000D01*
X159004000Y-87376000D02*
X157734000Y-87376000D01*
X170895000Y-106172000D02*
X170895000Y-109982000D01*
X170895000Y-104920100D02*
X170895000Y-106172000D01*
X166790300Y-88138000D02*
X167101200Y-88448900D01*
X165715000Y-88138000D02*
X166790300Y-88138000D01*
X166265000Y-92329000D02*
X166265000Y-93733200D01*
X154766000Y-99822000D02*
X154766000Y-100797300D01*
X154766000Y-100797300D02*
X147931900Y-100797300D01*
X147931900Y-100797300D02*
X143233600Y-96099000D01*
X143233600Y-96099000D02*
X141224000Y-96099000D01*
X154766000Y-103378000D02*
X154766000Y-102402700D01*
X148024000Y-96099000D02*
X152908200Y-96099000D01*
X152908200Y-96099000D02*
X155841400Y-99032200D01*
X155841400Y-99032200D02*
X155841400Y-101327300D01*
X155841400Y-101327300D02*
X154766000Y-102402700D01*
X170624000Y-97282000D02*
X171069700Y-97282000D01*
X162665000Y-93454300D02*
X166492700Y-97282000D01*
X166492700Y-97282000D02*
X170624000Y-97282000D01*
X170624000Y-97282000D02*
X170624000Y-99084700D01*
X170624000Y-99084700D02*
X168195000Y-101513700D01*
X168195000Y-102489000D02*
X168195000Y-101513700D01*
X168195000Y-102489000D02*
X168195000Y-103464300D01*
X168195000Y-103464300D02*
X167119600Y-104539700D01*
X167119600Y-104539700D02*
X167119600Y-106956700D01*
X167119600Y-106956700D02*
X169270400Y-109107500D01*
X169270400Y-109107500D02*
X169270400Y-110841800D01*
X169270400Y-110841800D02*
X169154800Y-110957400D01*
X169154800Y-110957400D02*
X146898400Y-110957400D01*
X146898400Y-110957400D02*
X146431000Y-110490000D01*
X159004000Y-93477500D02*
X162641800Y-93477500D01*
X162641800Y-93477500D02*
X162665000Y-93454300D01*
X162665000Y-92329000D02*
X162665000Y-93454300D01*
X159004000Y-93726000D02*
X159004000Y-93477500D01*
X172145000Y-97282000D02*
X171069700Y-97282000D01*
X162665000Y-92329000D02*
X162665000Y-91203700D01*
X163215000Y-88138000D02*
X163215000Y-90653700D01*
X163215000Y-90653700D02*
X162665000Y-91203700D01*
X155194000Y-93726000D02*
X155194000Y-94622800D01*
X158135000Y-97155000D02*
X158135000Y-96204700D01*
X158135000Y-96204700D02*
X156775900Y-96204700D01*
X156775900Y-96204700D02*
X155194000Y-94622800D01*
X146431000Y-102235000D02*
X149016800Y-104820800D01*
X149016800Y-104820800D02*
X156370100Y-104820800D01*
X156370100Y-104820800D02*
X159210400Y-101980500D01*
X159210400Y-101980500D02*
X159210400Y-100384300D01*
X159210400Y-100384300D02*
X160635000Y-98959700D01*
X160635000Y-98959700D02*
X160635000Y-97155000D01*
X162765000Y-103576700D02*
X168195000Y-109006700D01*
X160635000Y-102169300D02*
X161357600Y-102169300D01*
X161357600Y-102169300D02*
X162765000Y-103576700D01*
X168409700Y-97932000D02*
X162765000Y-103576700D01*
X169485000Y-97932000D02*
X168409700Y-97932000D01*
X160635000Y-101219000D02*
X160635000Y-102169300D01*
X168195000Y-109982000D02*
X168195000Y-109006700D01*
X158135000Y-101219000D02*
X158135000Y-100268700D01*
X156464000Y-93726000D02*
X156464000Y-94622800D01*
X156464000Y-94622800D02*
X157517400Y-94622800D01*
X157517400Y-94622800D02*
X159210400Y-96315800D01*
X159210400Y-96315800D02*
X159210400Y-99193300D01*
X159210400Y-99193300D02*
X158135000Y-100268700D01*
X152066000Y-99822000D02*
X150210000Y-99822000D01*
X150210000Y-99822000D02*
X146933000Y-96545000D01*
X146933000Y-96545000D02*
X146933000Y-95629500D01*
X146933000Y-95629500D02*
X147713500Y-94849000D01*
X147713500Y-94849000D02*
X150052100Y-94849000D01*
X150052100Y-94849000D02*
X155194000Y-89707100D01*
X155194000Y-89707100D02*
X155194000Y-87376000D01*
X152066000Y-103378000D02*
X152066000Y-104353300D01*
X152066000Y-104353300D02*
X155650900Y-104353300D01*
X155650900Y-104353300D02*
X156316900Y-103687300D01*
X156316900Y-103687300D02*
X156316900Y-97298500D01*
X156316900Y-97298500D02*
X154614600Y-95596200D01*
X154614600Y-95596200D02*
X154614600Y-91885300D01*
X154614600Y-91885300D02*
X156464000Y-90035900D01*
X156464000Y-90035900D02*
X156464000Y-87376000D01*
D22*
G36*
X178918001Y-99672737D02*
G01*
X178577082Y-99444943D01*
X177951952Y-99186006D01*
X177288318Y-99054000D01*
X176611682Y-99054000D01*
X175948048Y-99186006D01*
X175322918Y-99444943D01*
X174760315Y-99820862D01*
X174281862Y-100299315D01*
X173905943Y-100861918D01*
X173647006Y-101487048D01*
X173515000Y-102150682D01*
X173515000Y-102827318D01*
X173647006Y-103490952D01*
X173905943Y-104116082D01*
X174281862Y-104678685D01*
X174760315Y-105157138D01*
X175322918Y-105533057D01*
X175948048Y-105791994D01*
X176611682Y-105924000D01*
X177288318Y-105924000D01*
X177951952Y-105791994D01*
X178577082Y-105533057D01*
X178918001Y-105305263D01*
X178918001Y-113386000D01*
X137248430Y-113386000D01*
X137087875Y-111803377D01*
X145297229Y-111803377D01*
X145423104Y-112093315D01*
X145755262Y-112259139D01*
X146113387Y-112356975D01*
X146483719Y-112383065D01*
X146852025Y-112336405D01*
X147204151Y-112218789D01*
X147438896Y-112093315D01*
X147564771Y-111803377D01*
X146431000Y-110669605D01*
X145297229Y-111803377D01*
X137087875Y-111803377D01*
X136959982Y-110542719D01*
X144537935Y-110542719D01*
X144584595Y-110911025D01*
X144702211Y-111263151D01*
X144827685Y-111497896D01*
X145117623Y-111623771D01*
X146251395Y-110490000D01*
X146610605Y-110490000D01*
X147744377Y-111623771D01*
X148034315Y-111497896D01*
X148200139Y-111165738D01*
X148297975Y-110807613D01*
X148324065Y-110437281D01*
X148277405Y-110068975D01*
X148159789Y-109716849D01*
X148034315Y-109482104D01*
X147744377Y-109356229D01*
X146610605Y-110490000D01*
X146251395Y-110490000D01*
X145117623Y-109356229D01*
X144827685Y-109482104D01*
X144661861Y-109814262D01*
X144564025Y-110172387D01*
X144537935Y-110542719D01*
X136959982Y-110542719D01*
X136821393Y-109176623D01*
X145297229Y-109176623D01*
X146431000Y-110310395D01*
X147564771Y-109176623D01*
X147438896Y-108886685D01*
X147106738Y-108720861D01*
X146748613Y-108623025D01*
X146378281Y-108596935D01*
X146009975Y-108643595D01*
X145657849Y-108761211D01*
X145423104Y-108886685D01*
X145297229Y-109176623D01*
X136821393Y-109176623D01*
X136423000Y-105249613D01*
X136423000Y-104831823D01*
X136748315Y-105157138D01*
X137310918Y-105533057D01*
X137936048Y-105791994D01*
X138599682Y-105924000D01*
X139276318Y-105924000D01*
X139939952Y-105791994D01*
X140565082Y-105533057D01*
X141127685Y-105157138D01*
X141606138Y-104678685D01*
X141982057Y-104116082D01*
X142240994Y-103490952D01*
X142373000Y-102827318D01*
X142373000Y-102150682D01*
X142317608Y-101872209D01*
X145336221Y-104890823D01*
X145229587Y-104962074D01*
X144967074Y-105224587D01*
X144760818Y-105533269D01*
X144618747Y-105876259D01*
X144546320Y-106240375D01*
X144546320Y-106611625D01*
X144618747Y-106975741D01*
X144760818Y-107318731D01*
X144967074Y-107627413D01*
X145229587Y-107889926D01*
X145538269Y-108096182D01*
X145881259Y-108238253D01*
X146245375Y-108310680D01*
X146616625Y-108310680D01*
X146980741Y-108238253D01*
X147323731Y-108096182D01*
X147632413Y-107889926D01*
X147894926Y-107627413D01*
X148101182Y-107318731D01*
X148243253Y-106975741D01*
X148315680Y-106611625D01*
X148315680Y-106240375D01*
X148243253Y-105876259D01*
X148101182Y-105533269D01*
X147894926Y-105224587D01*
X147632413Y-104962074D01*
X147323731Y-104755818D01*
X147157268Y-104686867D01*
X147136546Y-104618553D01*
X147065974Y-104486524D01*
X146994799Y-104399797D01*
X146971001Y-104370799D01*
X146942003Y-104347001D01*
X146698413Y-104103411D01*
X146980741Y-104047253D01*
X147113472Y-103992274D01*
X148453005Y-105331808D01*
X148476799Y-105360801D01*
X148505792Y-105384595D01*
X148505796Y-105384599D01*
X148552585Y-105422997D01*
X148592524Y-105455774D01*
X148724553Y-105526346D01*
X148867814Y-105569803D01*
X148979467Y-105580800D01*
X148979476Y-105580800D01*
X149016799Y-105584476D01*
X149054122Y-105580800D01*
X156332778Y-105580800D01*
X156370100Y-105584476D01*
X156407422Y-105580800D01*
X156407433Y-105580800D01*
X156519086Y-105569803D01*
X156662347Y-105526346D01*
X156794376Y-105455774D01*
X156910101Y-105360801D01*
X156933904Y-105331797D01*
X159721404Y-102544298D01*
X159750401Y-102520501D01*
X159789646Y-102472681D01*
X159885000Y-102482072D01*
X159940425Y-102482072D01*
X160000026Y-102593576D01*
X160094999Y-102709301D01*
X160210724Y-102804274D01*
X160342753Y-102874846D01*
X160486014Y-102918303D01*
X160597667Y-102929300D01*
X160635000Y-102932977D01*
X160672333Y-102929300D01*
X161042799Y-102929300D01*
X162201200Y-104087702D01*
X162224999Y-104116701D01*
X162254003Y-104140504D01*
X166994089Y-108880590D01*
X166993815Y-108880815D01*
X166914463Y-108977506D01*
X166855498Y-109087820D01*
X166819188Y-109207518D01*
X166806928Y-109332000D01*
X166806928Y-110632000D01*
X166819188Y-110756482D01*
X166855498Y-110876180D01*
X166914463Y-110986494D01*
X166993815Y-111083185D01*
X167090506Y-111162537D01*
X167200820Y-111221502D01*
X167320518Y-111257812D01*
X167445000Y-111270072D01*
X168945000Y-111270072D01*
X169069482Y-111257812D01*
X169189180Y-111221502D01*
X169299494Y-111162537D01*
X169396185Y-111083185D01*
X169475537Y-110986494D01*
X169534502Y-110876180D01*
X169545000Y-110841573D01*
X169555498Y-110876180D01*
X169614463Y-110986494D01*
X169693815Y-111083185D01*
X169790506Y-111162537D01*
X169900820Y-111221502D01*
X170020518Y-111257812D01*
X170145000Y-111270072D01*
X171645000Y-111270072D01*
X171769482Y-111257812D01*
X171889180Y-111221502D01*
X171999494Y-111162537D01*
X172096185Y-111083185D01*
X172175537Y-110986494D01*
X172234502Y-110876180D01*
X172270812Y-110756482D01*
X172283072Y-110632000D01*
X172283072Y-109332000D01*
X172270812Y-109207518D01*
X172234502Y-109087820D01*
X172175537Y-108977506D01*
X172096185Y-108880815D01*
X171999494Y-108801463D01*
X171889180Y-108742498D01*
X171769482Y-108706188D01*
X171655000Y-108694913D01*
X171655000Y-107459087D01*
X171769482Y-107447812D01*
X171889180Y-107411502D01*
X171999494Y-107352537D01*
X172096185Y-107273185D01*
X172175537Y-107176494D01*
X172234502Y-107066180D01*
X172270812Y-106946482D01*
X172283072Y-106822000D01*
X172283072Y-105522000D01*
X172270812Y-105397518D01*
X172234502Y-105277820D01*
X172175537Y-105167506D01*
X172096185Y-105070815D01*
X171999494Y-104991463D01*
X171930000Y-104954317D01*
X171930000Y-104818161D01*
X171890226Y-104618202D01*
X171812205Y-104429844D01*
X171698937Y-104260326D01*
X171554774Y-104116163D01*
X171413621Y-104021848D01*
X171435001Y-104004301D01*
X171529974Y-103888576D01*
X171589575Y-103777072D01*
X171645000Y-103777072D01*
X171769482Y-103764812D01*
X171889180Y-103728502D01*
X171999494Y-103669537D01*
X172096185Y-103590185D01*
X172175537Y-103493494D01*
X172234502Y-103383180D01*
X172270812Y-103263482D01*
X172283072Y-103139000D01*
X172283072Y-101839000D01*
X172270812Y-101714518D01*
X172234502Y-101594820D01*
X172175537Y-101484506D01*
X172096185Y-101387815D01*
X172095911Y-101387590D01*
X173731403Y-99752099D01*
X173760401Y-99728301D01*
X173855374Y-99612576D01*
X173925946Y-99480547D01*
X173969403Y-99337286D01*
X173980400Y-99225633D01*
X173980400Y-99225624D01*
X173984076Y-99188301D01*
X173980400Y-99150978D01*
X173980400Y-96887950D01*
X173984076Y-96850653D01*
X173980400Y-96813302D01*
X173980400Y-96813267D01*
X173975006Y-96758499D01*
X173969413Y-96701666D01*
X173969406Y-96701642D01*
X173969403Y-96701614D01*
X173945763Y-96623681D01*
X173925966Y-96558403D01*
X173925955Y-96558382D01*
X173925946Y-96558353D01*
X173890031Y-96491162D01*
X173855404Y-96426368D01*
X173855385Y-96426345D01*
X173855374Y-96426324D01*
X173808408Y-96369095D01*
X173784235Y-96339637D01*
X173784217Y-96339619D01*
X173760401Y-96310599D01*
X173731423Y-96286818D01*
X173526593Y-96081959D01*
X173553703Y-95992586D01*
X173564700Y-95880933D01*
X173568377Y-95843600D01*
X173564700Y-95806267D01*
X173564700Y-95495401D01*
X177455003Y-91605099D01*
X177484001Y-91581301D01*
X177578974Y-91465576D01*
X177638575Y-91354072D01*
X178694000Y-91354072D01*
X178818482Y-91341812D01*
X178918000Y-91311623D01*
X178918001Y-99672737D01*
X178918001Y-99672737D01*
G37*
X178918001Y-99672737D02*
X178577082Y-99444943D01*
X177951952Y-99186006D01*
X177288318Y-99054000D01*
X176611682Y-99054000D01*
X175948048Y-99186006D01*
X175322918Y-99444943D01*
X174760315Y-99820862D01*
X174281862Y-100299315D01*
X173905943Y-100861918D01*
X173647006Y-101487048D01*
X173515000Y-102150682D01*
X173515000Y-102827318D01*
X173647006Y-103490952D01*
X173905943Y-104116082D01*
X174281862Y-104678685D01*
X174760315Y-105157138D01*
X175322918Y-105533057D01*
X175948048Y-105791994D01*
X176611682Y-105924000D01*
X177288318Y-105924000D01*
X177951952Y-105791994D01*
X178577082Y-105533057D01*
X178918001Y-105305263D01*
X178918001Y-113386000D01*
X137248430Y-113386000D01*
X137087875Y-111803377D01*
X145297229Y-111803377D01*
X145423104Y-112093315D01*
X145755262Y-112259139D01*
X146113387Y-112356975D01*
X146483719Y-112383065D01*
X146852025Y-112336405D01*
X147204151Y-112218789D01*
X147438896Y-112093315D01*
X147564771Y-111803377D01*
X146431000Y-110669605D01*
X145297229Y-111803377D01*
X137087875Y-111803377D01*
X136959982Y-110542719D01*
X144537935Y-110542719D01*
X144584595Y-110911025D01*
X144702211Y-111263151D01*
X144827685Y-111497896D01*
X145117623Y-111623771D01*
X146251395Y-110490000D01*
X146610605Y-110490000D01*
X147744377Y-111623771D01*
X148034315Y-111497896D01*
X148200139Y-111165738D01*
X148297975Y-110807613D01*
X148324065Y-110437281D01*
X148277405Y-110068975D01*
X148159789Y-109716849D01*
X148034315Y-109482104D01*
X147744377Y-109356229D01*
X146610605Y-110490000D01*
X146251395Y-110490000D01*
X145117623Y-109356229D01*
X144827685Y-109482104D01*
X144661861Y-109814262D01*
X144564025Y-110172387D01*
X144537935Y-110542719D01*
X136959982Y-110542719D01*
X136821393Y-109176623D01*
X145297229Y-109176623D01*
X146431000Y-110310395D01*
X147564771Y-109176623D01*
X147438896Y-108886685D01*
X147106738Y-108720861D01*
X146748613Y-108623025D01*
X146378281Y-108596935D01*
X146009975Y-108643595D01*
X145657849Y-108761211D01*
X145423104Y-108886685D01*
X145297229Y-109176623D01*
X136821393Y-109176623D01*
X136423000Y-105249613D01*
X136423000Y-104831823D01*
X136748315Y-105157138D01*
X137310918Y-105533057D01*
X137936048Y-105791994D01*
X138599682Y-105924000D01*
X139276318Y-105924000D01*
X139939952Y-105791994D01*
X140565082Y-105533057D01*
X141127685Y-105157138D01*
X141606138Y-104678685D01*
X141982057Y-104116082D01*
X142240994Y-103490952D01*
X142373000Y-102827318D01*
X142373000Y-102150682D01*
X142317608Y-101872209D01*
X145336221Y-104890823D01*
X145229587Y-104962074D01*
X144967074Y-105224587D01*
X144760818Y-105533269D01*
X144618747Y-105876259D01*
X144546320Y-106240375D01*
X144546320Y-106611625D01*
X144618747Y-106975741D01*
X144760818Y-107318731D01*
X144967074Y-107627413D01*
X145229587Y-107889926D01*
X145538269Y-108096182D01*
X145881259Y-108238253D01*
X146245375Y-108310680D01*
X146616625Y-108310680D01*
X146980741Y-108238253D01*
X147323731Y-108096182D01*
X147632413Y-107889926D01*
X147894926Y-107627413D01*
X148101182Y-107318731D01*
X148243253Y-106975741D01*
X148315680Y-106611625D01*
X148315680Y-106240375D01*
X148243253Y-105876259D01*
X148101182Y-105533269D01*
X147894926Y-105224587D01*
X147632413Y-104962074D01*
X147323731Y-104755818D01*
X147157268Y-104686867D01*
X147136546Y-104618553D01*
X147065974Y-104486524D01*
X146994799Y-104399797D01*
X146971001Y-104370799D01*
X146942003Y-104347001D01*
X146698413Y-104103411D01*
X146980741Y-104047253D01*
X147113472Y-103992274D01*
X148453005Y-105331808D01*
X148476799Y-105360801D01*
X148505792Y-105384595D01*
X148505796Y-105384599D01*
X148552585Y-105422997D01*
X148592524Y-105455774D01*
X148724553Y-105526346D01*
X148867814Y-105569803D01*
X148979467Y-105580800D01*
X148979476Y-105580800D01*
X149016799Y-105584476D01*
X149054122Y-105580800D01*
X156332778Y-105580800D01*
X156370100Y-105584476D01*
X156407422Y-105580800D01*
X156407433Y-105580800D01*
X156519086Y-105569803D01*
X156662347Y-105526346D01*
X156794376Y-105455774D01*
X156910101Y-105360801D01*
X156933904Y-105331797D01*
X159721404Y-102544298D01*
X159750401Y-102520501D01*
X159789646Y-102472681D01*
X159885000Y-102482072D01*
X159940425Y-102482072D01*
X160000026Y-102593576D01*
X160094999Y-102709301D01*
X160210724Y-102804274D01*
X160342753Y-102874846D01*
X160486014Y-102918303D01*
X160597667Y-102929300D01*
X160635000Y-102932977D01*
X160672333Y-102929300D01*
X161042799Y-102929300D01*
X162201200Y-104087702D01*
X162224999Y-104116701D01*
X162254003Y-104140504D01*
X166994089Y-108880590D01*
X166993815Y-108880815D01*
X166914463Y-108977506D01*
X166855498Y-109087820D01*
X166819188Y-109207518D01*
X166806928Y-109332000D01*
X166806928Y-110632000D01*
X166819188Y-110756482D01*
X166855498Y-110876180D01*
X166914463Y-110986494D01*
X166993815Y-111083185D01*
X167090506Y-111162537D01*
X167200820Y-111221502D01*
X167320518Y-111257812D01*
X167445000Y-111270072D01*
X168945000Y-111270072D01*
X169069482Y-111257812D01*
X169189180Y-111221502D01*
X169299494Y-111162537D01*
X169396185Y-111083185D01*
X169475537Y-110986494D01*
X169534502Y-110876180D01*
X169545000Y-110841573D01*
X169555498Y-110876180D01*
X169614463Y-110986494D01*
X169693815Y-111083185D01*
X169790506Y-111162537D01*
X169900820Y-111221502D01*
X170020518Y-111257812D01*
X170145000Y-111270072D01*
X171645000Y-111270072D01*
X171769482Y-111257812D01*
X171889180Y-111221502D01*
X171999494Y-111162537D01*
X172096185Y-111083185D01*
X172175537Y-110986494D01*
X172234502Y-110876180D01*
X172270812Y-110756482D01*
X172283072Y-110632000D01*
X172283072Y-109332000D01*
X172270812Y-109207518D01*
X172234502Y-109087820D01*
X172175537Y-108977506D01*
X172096185Y-108880815D01*
X171999494Y-108801463D01*
X171889180Y-108742498D01*
X171769482Y-108706188D01*
X171655000Y-108694913D01*
X171655000Y-107459087D01*
X171769482Y-107447812D01*
X171889180Y-107411502D01*
X171999494Y-107352537D01*
X172096185Y-107273185D01*
X172175537Y-107176494D01*
X172234502Y-107066180D01*
X172270812Y-106946482D01*
X172283072Y-106822000D01*
X172283072Y-105522000D01*
X172270812Y-105397518D01*
X172234502Y-105277820D01*
X172175537Y-105167506D01*
X172096185Y-105070815D01*
X171999494Y-104991463D01*
X171930000Y-104954317D01*
X171930000Y-104818161D01*
X171890226Y-104618202D01*
X171812205Y-104429844D01*
X171698937Y-104260326D01*
X171554774Y-104116163D01*
X171413621Y-104021848D01*
X171435001Y-104004301D01*
X171529974Y-103888576D01*
X171589575Y-103777072D01*
X171645000Y-103777072D01*
X171769482Y-103764812D01*
X171889180Y-103728502D01*
X171999494Y-103669537D01*
X172096185Y-103590185D01*
X172175537Y-103493494D01*
X172234502Y-103383180D01*
X172270812Y-103263482D01*
X172283072Y-103139000D01*
X172283072Y-101839000D01*
X172270812Y-101714518D01*
X172234502Y-101594820D01*
X172175537Y-101484506D01*
X172096185Y-101387815D01*
X172095911Y-101387590D01*
X173731403Y-99752099D01*
X173760401Y-99728301D01*
X173855374Y-99612576D01*
X173925946Y-99480547D01*
X173969403Y-99337286D01*
X173980400Y-99225633D01*
X173980400Y-99225624D01*
X173984076Y-99188301D01*
X173980400Y-99150978D01*
X173980400Y-96887950D01*
X173984076Y-96850653D01*
X173980400Y-96813302D01*
X173980400Y-96813267D01*
X173975006Y-96758499D01*
X173969413Y-96701666D01*
X173969406Y-96701642D01*
X173969403Y-96701614D01*
X173945763Y-96623681D01*
X173925966Y-96558403D01*
X173925955Y-96558382D01*
X173925946Y-96558353D01*
X173890031Y-96491162D01*
X173855404Y-96426368D01*
X173855385Y-96426345D01*
X173855374Y-96426324D01*
X173808408Y-96369095D01*
X173784235Y-96339637D01*
X173784217Y-96339619D01*
X173760401Y-96310599D01*
X173731423Y-96286818D01*
X173526593Y-96081959D01*
X173553703Y-95992586D01*
X173564700Y-95880933D01*
X173568377Y-95843600D01*
X173564700Y-95806267D01*
X173564700Y-95495401D01*
X177455003Y-91605099D01*
X177484001Y-91581301D01*
X177578974Y-91465576D01*
X177638575Y-91354072D01*
X178694000Y-91354072D01*
X178818482Y-91341812D01*
X178918000Y-91311623D01*
X178918001Y-99672737D01*
G36*
X169555498Y-107066180D02*
G01*
X169614463Y-107176494D01*
X169693815Y-107273185D01*
X169790506Y-107352537D01*
X169900820Y-107411502D01*
X170020518Y-107447812D01*
X170135000Y-107459087D01*
X170135001Y-108694913D01*
X170020518Y-108706188D01*
X169900820Y-108742498D01*
X169790506Y-108801463D01*
X169693815Y-108880815D01*
X169614463Y-108977506D01*
X169555498Y-109087820D01*
X169545000Y-109122427D01*
X169534502Y-109087820D01*
X169475537Y-108977506D01*
X169396185Y-108880815D01*
X169299494Y-108801463D01*
X169189180Y-108742498D01*
X169069482Y-108706188D01*
X168945000Y-108693928D01*
X168889575Y-108693928D01*
X168829974Y-108582424D01*
X168735001Y-108466699D01*
X168706003Y-108442901D01*
X167723174Y-107460072D01*
X168945000Y-107460072D01*
X169069482Y-107447812D01*
X169189180Y-107411502D01*
X169299494Y-107352537D01*
X169396185Y-107273185D01*
X169475537Y-107176494D01*
X169534502Y-107066180D01*
X169545000Y-107031573D01*
X169555498Y-107066180D01*
X169555498Y-107066180D01*
G37*
X169555498Y-107066180D02*
X169614463Y-107176494D01*
X169693815Y-107273185D01*
X169790506Y-107352537D01*
X169900820Y-107411502D01*
X170020518Y-107447812D01*
X170135000Y-107459087D01*
X170135001Y-108694913D01*
X170020518Y-108706188D01*
X169900820Y-108742498D01*
X169790506Y-108801463D01*
X169693815Y-108880815D01*
X169614463Y-108977506D01*
X169555498Y-109087820D01*
X169545000Y-109122427D01*
X169534502Y-109087820D01*
X169475537Y-108977506D01*
X169396185Y-108880815D01*
X169299494Y-108801463D01*
X169189180Y-108742498D01*
X169069482Y-108706188D01*
X168945000Y-108693928D01*
X168889575Y-108693928D01*
X168829974Y-108582424D01*
X168735001Y-108466699D01*
X168706003Y-108442901D01*
X167723174Y-107460072D01*
X168945000Y-107460072D01*
X169069482Y-107447812D01*
X169189180Y-107411502D01*
X169299494Y-107352537D01*
X169396185Y-107273185D01*
X169475537Y-107176494D01*
X169534502Y-107066180D01*
X169545000Y-107031573D01*
X169555498Y-107066180D01*
G36*
X172292000Y-97380000D02*
G01*
X172272000Y-97380000D01*
X172272000Y-97983250D01*
X172430750Y-98142000D01*
X172460401Y-98142196D01*
X172460401Y-98873497D01*
X170383998Y-100949901D01*
X170355000Y-100973699D01*
X170331202Y-101002697D01*
X170331201Y-101002698D01*
X170260026Y-101089424D01*
X170200425Y-101200928D01*
X170145000Y-101200928D01*
X170020518Y-101213188D01*
X169900820Y-101249498D01*
X169790506Y-101308463D01*
X169693815Y-101387815D01*
X169614463Y-101484506D01*
X169555498Y-101594820D01*
X169545000Y-101629427D01*
X169534502Y-101594820D01*
X169475537Y-101484506D01*
X169396185Y-101387815D01*
X169299494Y-101308463D01*
X169189180Y-101249498D01*
X169069482Y-101213188D01*
X168945000Y-101200928D01*
X168480750Y-101204000D01*
X168322000Y-101362750D01*
X168322000Y-102362000D01*
X168342000Y-102362000D01*
X168342000Y-102616000D01*
X168322000Y-102616000D01*
X168322000Y-103615250D01*
X168480750Y-103774000D01*
X168542490Y-103774409D01*
X167683998Y-104632901D01*
X167655000Y-104656699D01*
X167631202Y-104685697D01*
X167631201Y-104685698D01*
X167560026Y-104772424D01*
X167500425Y-104883928D01*
X167445000Y-104883928D01*
X167320518Y-104896188D01*
X167200820Y-104932498D01*
X167090506Y-104991463D01*
X166993815Y-105070815D01*
X166914463Y-105167506D01*
X166855498Y-105277820D01*
X166819188Y-105397518D01*
X166806928Y-105522000D01*
X166806928Y-106543826D01*
X163839801Y-103576700D01*
X164277501Y-103139000D01*
X166806928Y-103139000D01*
X166819188Y-103263482D01*
X166855498Y-103383180D01*
X166914463Y-103493494D01*
X166993815Y-103590185D01*
X167090506Y-103669537D01*
X167200820Y-103728502D01*
X167320518Y-103764812D01*
X167445000Y-103777072D01*
X167909250Y-103774000D01*
X168068000Y-103615250D01*
X168068000Y-102616000D01*
X166968750Y-102616000D01*
X166810000Y-102774750D01*
X166806928Y-103139000D01*
X164277501Y-103139000D01*
X165577501Y-101839000D01*
X166806928Y-101839000D01*
X166810000Y-102203250D01*
X166968750Y-102362000D01*
X168068000Y-102362000D01*
X168068000Y-101362750D01*
X167909250Y-101204000D01*
X167445000Y-101200928D01*
X167320518Y-101213188D01*
X167200820Y-101249498D01*
X167090506Y-101308463D01*
X166993815Y-101387815D01*
X166914463Y-101484506D01*
X166855498Y-101594820D01*
X166819188Y-101714518D01*
X166806928Y-101839000D01*
X165577501Y-101839000D01*
X168631612Y-98784890D01*
X168735000Y-98795072D01*
X170235000Y-98795072D01*
X170359482Y-98782812D01*
X170479180Y-98746502D01*
X170589494Y-98687537D01*
X170686185Y-98608185D01*
X170765537Y-98511494D01*
X170824502Y-98401180D01*
X170860812Y-98281482D01*
X170873072Y-98157000D01*
X170873072Y-97873221D01*
X170950574Y-97964844D01*
X171048434Y-98042750D01*
X171159613Y-98100067D01*
X171279838Y-98134593D01*
X171404488Y-98145001D01*
X171859250Y-98142000D01*
X172018000Y-97983250D01*
X172018000Y-97395509D01*
X172053622Y-97392000D01*
X172053633Y-97392000D01*
X172165286Y-97381003D01*
X172292000Y-97342565D01*
X172292000Y-97380000D01*
X172292000Y-97380000D01*
G37*
X172292000Y-97380000D02*
X172272000Y-97380000D01*
X172272000Y-97983250D01*
X172430750Y-98142000D01*
X172460401Y-98142196D01*
X172460401Y-98873497D01*
X170383998Y-100949901D01*
X170355000Y-100973699D01*
X170331202Y-101002697D01*
X170331201Y-101002698D01*
X170260026Y-101089424D01*
X170200425Y-101200928D01*
X170145000Y-101200928D01*
X170020518Y-101213188D01*
X169900820Y-101249498D01*
X169790506Y-101308463D01*
X169693815Y-101387815D01*
X169614463Y-101484506D01*
X169555498Y-101594820D01*
X169545000Y-101629427D01*
X169534502Y-101594820D01*
X169475537Y-101484506D01*
X169396185Y-101387815D01*
X169299494Y-101308463D01*
X169189180Y-101249498D01*
X169069482Y-101213188D01*
X168945000Y-101200928D01*
X168480750Y-101204000D01*
X168322000Y-101362750D01*
X168322000Y-102362000D01*
X168342000Y-102362000D01*
X168342000Y-102616000D01*
X168322000Y-102616000D01*
X168322000Y-103615250D01*
X168480750Y-103774000D01*
X168542490Y-103774409D01*
X167683998Y-104632901D01*
X167655000Y-104656699D01*
X167631202Y-104685697D01*
X167631201Y-104685698D01*
X167560026Y-104772424D01*
X167500425Y-104883928D01*
X167445000Y-104883928D01*
X167320518Y-104896188D01*
X167200820Y-104932498D01*
X167090506Y-104991463D01*
X166993815Y-105070815D01*
X166914463Y-105167506D01*
X166855498Y-105277820D01*
X166819188Y-105397518D01*
X166806928Y-105522000D01*
X166806928Y-106543826D01*
X163839801Y-103576700D01*
X164277501Y-103139000D01*
X166806928Y-103139000D01*
X166819188Y-103263482D01*
X166855498Y-103383180D01*
X166914463Y-103493494D01*
X166993815Y-103590185D01*
X167090506Y-103669537D01*
X167200820Y-103728502D01*
X167320518Y-103764812D01*
X167445000Y-103777072D01*
X167909250Y-103774000D01*
X168068000Y-103615250D01*
X168068000Y-102616000D01*
X166968750Y-102616000D01*
X166810000Y-102774750D01*
X166806928Y-103139000D01*
X164277501Y-103139000D01*
X165577501Y-101839000D01*
X166806928Y-101839000D01*
X166810000Y-102203250D01*
X166968750Y-102362000D01*
X168068000Y-102362000D01*
X168068000Y-101362750D01*
X167909250Y-101204000D01*
X167445000Y-101200928D01*
X167320518Y-101213188D01*
X167200820Y-101249498D01*
X167090506Y-101308463D01*
X166993815Y-101387815D01*
X166914463Y-101484506D01*
X166855498Y-101594820D01*
X166819188Y-101714518D01*
X166806928Y-101839000D01*
X165577501Y-101839000D01*
X168631612Y-98784890D01*
X168735000Y-98795072D01*
X170235000Y-98795072D01*
X170359482Y-98782812D01*
X170479180Y-98746502D01*
X170589494Y-98687537D01*
X170686185Y-98608185D01*
X170765537Y-98511494D01*
X170824502Y-98401180D01*
X170860812Y-98281482D01*
X170873072Y-98157000D01*
X170873072Y-97873221D01*
X170950574Y-97964844D01*
X171048434Y-98042750D01*
X171159613Y-98100067D01*
X171279838Y-98134593D01*
X171404488Y-98145001D01*
X171859250Y-98142000D01*
X172018000Y-97983250D01*
X172018000Y-97395509D01*
X172053622Y-97392000D01*
X172053633Y-97392000D01*
X172165286Y-97381003D01*
X172292000Y-97342565D01*
X172292000Y-97380000D01*
G36*
X178918000Y-88520376D02*
G01*
X178818482Y-88490188D01*
X178694000Y-88477928D01*
X175194000Y-88477928D01*
X175069518Y-88490188D01*
X174949820Y-88526498D01*
X174839506Y-88585463D01*
X174742815Y-88664815D01*
X174663463Y-88761506D01*
X174604498Y-88871820D01*
X174568188Y-88991518D01*
X174555928Y-89116000D01*
X174555928Y-90716000D01*
X174568188Y-90840482D01*
X174604498Y-90960180D01*
X174663463Y-91070494D01*
X174742815Y-91167185D01*
X174839506Y-91246537D01*
X174949820Y-91305502D01*
X175069518Y-91341812D01*
X175194000Y-91354072D01*
X175556426Y-91354072D01*
X172293703Y-94616796D01*
X172264699Y-94640599D01*
X172215939Y-94700014D01*
X172169726Y-94756324D01*
X172120993Y-94847497D01*
X172099154Y-94888354D01*
X172055697Y-95031615D01*
X172044700Y-95143268D01*
X172044700Y-95143278D01*
X172041024Y-95180600D01*
X172044700Y-95217922D01*
X172044700Y-95528799D01*
X171998120Y-95575379D01*
X171969137Y-95599161D01*
X171945320Y-95628178D01*
X171701499Y-95872000D01*
X170581144Y-95872000D01*
X170479180Y-95817498D01*
X170359482Y-95781188D01*
X170235000Y-95768928D01*
X168735000Y-95768928D01*
X168610518Y-95781188D01*
X168490820Y-95817498D01*
X168380506Y-95876463D01*
X168283815Y-95955815D01*
X168204463Y-96052506D01*
X168145498Y-96162820D01*
X168109188Y-96282518D01*
X168096928Y-96407000D01*
X168096928Y-96857000D01*
X168109188Y-96981482D01*
X168145498Y-97101180D01*
X168199204Y-97201655D01*
X168117453Y-97226454D01*
X167985424Y-97297026D01*
X167869699Y-97391999D01*
X167845901Y-97420997D01*
X162765000Y-102501899D01*
X162023072Y-101759971D01*
X162023072Y-100594000D01*
X162010812Y-100469518D01*
X161974502Y-100349820D01*
X161915537Y-100239506D01*
X161836185Y-100142815D01*
X161739494Y-100063463D01*
X161629180Y-100004498D01*
X161509482Y-99968188D01*
X161385000Y-99955928D01*
X160713574Y-99955928D01*
X161146004Y-99523498D01*
X161175001Y-99499701D01*
X161269974Y-99383976D01*
X161340546Y-99251947D01*
X161384003Y-99108686D01*
X161395000Y-98997033D01*
X161395000Y-98997025D01*
X161398676Y-98959700D01*
X161395000Y-98922375D01*
X161395000Y-98417087D01*
X161509482Y-98405812D01*
X161629180Y-98369502D01*
X161739494Y-98310537D01*
X161836185Y-98231185D01*
X161915537Y-98134494D01*
X161974502Y-98024180D01*
X162010812Y-97904482D01*
X162023072Y-97780000D01*
X162023072Y-96530000D01*
X162010812Y-96405518D01*
X161974502Y-96285820D01*
X161915537Y-96175506D01*
X161836185Y-96078815D01*
X161739494Y-95999463D01*
X161629180Y-95940498D01*
X161509482Y-95904188D01*
X161385000Y-95891928D01*
X159885000Y-95891928D01*
X159847561Y-95895615D01*
X159845374Y-95891524D01*
X159774199Y-95804797D01*
X159750401Y-95775799D01*
X159721404Y-95752002D01*
X158810076Y-94840674D01*
X158877000Y-94773750D01*
X158877000Y-93853000D01*
X159131000Y-93853000D01*
X159131000Y-94773750D01*
X159289750Y-94932500D01*
X159393635Y-94920989D01*
X159512666Y-94882548D01*
X159621910Y-94821624D01*
X159717169Y-94740558D01*
X159794782Y-94642465D01*
X159851767Y-94531116D01*
X159885934Y-94410788D01*
X159895970Y-94286108D01*
X159893000Y-94011750D01*
X159734250Y-93853000D01*
X159131000Y-93853000D01*
X158877000Y-93853000D01*
X158857000Y-93853000D01*
X158857000Y-93599000D01*
X158877000Y-93599000D01*
X158877000Y-92678250D01*
X159131000Y-92678250D01*
X159131000Y-93599000D01*
X159734250Y-93599000D01*
X159893000Y-93440250D01*
X159895970Y-93165892D01*
X159893001Y-93129000D01*
X160726928Y-93129000D01*
X160739188Y-93253482D01*
X160775498Y-93373180D01*
X160834463Y-93483494D01*
X160913815Y-93580185D01*
X161010506Y-93659537D01*
X161120820Y-93718502D01*
X161240518Y-93754812D01*
X161365000Y-93767072D01*
X162379250Y-93764000D01*
X162538000Y-93605250D01*
X162538000Y-92456000D01*
X160888750Y-92456000D01*
X160730000Y-92614750D01*
X160726928Y-93129000D01*
X159893001Y-93129000D01*
X159885934Y-93041212D01*
X159851767Y-92920884D01*
X159794782Y-92809535D01*
X159717169Y-92711442D01*
X159621910Y-92630376D01*
X159512666Y-92569452D01*
X159393635Y-92531011D01*
X159289750Y-92519500D01*
X159131000Y-92678250D01*
X158877000Y-92678250D01*
X158718250Y-92519500D01*
X158614365Y-92531011D01*
X158495334Y-92569452D01*
X158386090Y-92630376D01*
X158368524Y-92645325D01*
X158342494Y-92623963D01*
X158232180Y-92564998D01*
X158112482Y-92528688D01*
X157988000Y-92516428D01*
X157480000Y-92516428D01*
X157355518Y-92528688D01*
X157235820Y-92564998D01*
X157125506Y-92623963D01*
X157099000Y-92645716D01*
X157072494Y-92623963D01*
X156962180Y-92564998D01*
X156842482Y-92528688D01*
X156718000Y-92516428D01*
X156210000Y-92516428D01*
X156085518Y-92528688D01*
X155965820Y-92564998D01*
X155855506Y-92623963D01*
X155829000Y-92645716D01*
X155802494Y-92623963D01*
X155692180Y-92564998D01*
X155572482Y-92528688D01*
X155448000Y-92516428D01*
X155374600Y-92516428D01*
X155374600Y-92200101D01*
X156045701Y-91529000D01*
X160726928Y-91529000D01*
X160730000Y-92043250D01*
X160888750Y-92202000D01*
X162538000Y-92202000D01*
X162538000Y-91052750D01*
X162792000Y-91052750D01*
X162792000Y-92202000D01*
X162812000Y-92202000D01*
X162812000Y-92456000D01*
X162792000Y-92456000D01*
X162792000Y-93605250D01*
X162950750Y-93764000D01*
X163965000Y-93767072D01*
X164089482Y-93754812D01*
X164209180Y-93718502D01*
X164319494Y-93659537D01*
X164416185Y-93580185D01*
X164465000Y-93520704D01*
X164513815Y-93580185D01*
X164610506Y-93659537D01*
X164720820Y-93718502D01*
X164840518Y-93754812D01*
X164965000Y-93767072D01*
X165230000Y-93767072D01*
X165230000Y-93835139D01*
X165269774Y-94035098D01*
X165347795Y-94223456D01*
X165461063Y-94392974D01*
X165605226Y-94537137D01*
X165774744Y-94650405D01*
X165963102Y-94728426D01*
X166163061Y-94768200D01*
X166366939Y-94768200D01*
X166566898Y-94728426D01*
X166755256Y-94650405D01*
X166924774Y-94537137D01*
X167068937Y-94392974D01*
X167182205Y-94223456D01*
X167260226Y-94035098D01*
X167300000Y-93835139D01*
X167300000Y-93767072D01*
X167565000Y-93767072D01*
X167689482Y-93754812D01*
X167809180Y-93718502D01*
X167919494Y-93659537D01*
X168016185Y-93580185D01*
X168095537Y-93483494D01*
X168154502Y-93373180D01*
X168190812Y-93253482D01*
X168203072Y-93129000D01*
X168203072Y-91529000D01*
X168190812Y-91404518D01*
X168154502Y-91284820D01*
X168095537Y-91174506D01*
X168016185Y-91077815D01*
X167919494Y-90998463D01*
X167809180Y-90939498D01*
X167689482Y-90903188D01*
X167565000Y-90890928D01*
X164965000Y-90890928D01*
X164840518Y-90903188D01*
X164720820Y-90939498D01*
X164610506Y-90998463D01*
X164513815Y-91077815D01*
X164465000Y-91137296D01*
X164416185Y-91077815D01*
X164319494Y-90998463D01*
X164209180Y-90939498D01*
X164089482Y-90903188D01*
X163965000Y-90890928D01*
X162950750Y-90894000D01*
X162792000Y-91052750D01*
X162538000Y-91052750D01*
X162379250Y-90894000D01*
X161365000Y-90890928D01*
X161240518Y-90903188D01*
X161120820Y-90939498D01*
X161010506Y-90998463D01*
X160913815Y-91077815D01*
X160834463Y-91174506D01*
X160775498Y-91284820D01*
X160739188Y-91404518D01*
X160726928Y-91529000D01*
X156045701Y-91529000D01*
X156975004Y-90599698D01*
X157004001Y-90575901D01*
X157098974Y-90460176D01*
X157169546Y-90328147D01*
X157213003Y-90184886D01*
X157224000Y-90073233D01*
X157224000Y-90073232D01*
X157227677Y-90035900D01*
X157224000Y-89998567D01*
X157224000Y-88530684D01*
X157235820Y-88537002D01*
X157355518Y-88573312D01*
X157480000Y-88585572D01*
X157969000Y-88585572D01*
X157969000Y-88650039D01*
X158008774Y-88849998D01*
X158086795Y-89038356D01*
X158200063Y-89207874D01*
X158344226Y-89352037D01*
X158513744Y-89465305D01*
X158702102Y-89543326D01*
X158902061Y-89583100D01*
X159105939Y-89583100D01*
X159305898Y-89543326D01*
X159494256Y-89465305D01*
X159663774Y-89352037D01*
X159807937Y-89207874D01*
X159921205Y-89038356D01*
X159999226Y-88849998D01*
X160016530Y-88763000D01*
X161826928Y-88763000D01*
X161839188Y-88887482D01*
X161875498Y-89007180D01*
X161934463Y-89117494D01*
X162013815Y-89214185D01*
X162110506Y-89293537D01*
X162220820Y-89352502D01*
X162340518Y-89388812D01*
X162465000Y-89401072D01*
X162929250Y-89398000D01*
X163088000Y-89239250D01*
X163088000Y-88265000D01*
X161988750Y-88265000D01*
X161830000Y-88423750D01*
X161826928Y-88763000D01*
X160016530Y-88763000D01*
X160039000Y-88650039D01*
X160039000Y-88446161D01*
X159999226Y-88246202D01*
X159921205Y-88057844D01*
X159889829Y-88010887D01*
X159896072Y-87947500D01*
X159896072Y-87197400D01*
X161913673Y-87197400D01*
X161875498Y-87268820D01*
X161839188Y-87388518D01*
X161826928Y-87513000D01*
X161830000Y-87852250D01*
X161988750Y-88011000D01*
X163088000Y-88011000D01*
X163088000Y-87991000D01*
X163342000Y-87991000D01*
X163342000Y-88011000D01*
X163362000Y-88011000D01*
X163362000Y-88265000D01*
X163342000Y-88265000D01*
X163342000Y-89239250D01*
X163500750Y-89398000D01*
X163965000Y-89401072D01*
X164089482Y-89388812D01*
X164209180Y-89352502D01*
X164319494Y-89293537D01*
X164416185Y-89214185D01*
X164465000Y-89154704D01*
X164513815Y-89214185D01*
X164610506Y-89293537D01*
X164720820Y-89352502D01*
X164840518Y-89388812D01*
X164965000Y-89401072D01*
X166465000Y-89401072D01*
X166589482Y-89388812D01*
X166633516Y-89375455D01*
X166799302Y-89444126D01*
X166999261Y-89483900D01*
X167203139Y-89483900D01*
X167403098Y-89444126D01*
X167591456Y-89366105D01*
X167760974Y-89252837D01*
X167905137Y-89108674D01*
X168018405Y-88939156D01*
X168096426Y-88750798D01*
X168136200Y-88550839D01*
X168136200Y-88346961D01*
X168096426Y-88147002D01*
X168018405Y-87958644D01*
X167905137Y-87789126D01*
X167760974Y-87644963D01*
X167591456Y-87531695D01*
X167403098Y-87453674D01*
X167203139Y-87413900D01*
X167093312Y-87413900D01*
X167090812Y-87388518D01*
X167054502Y-87268820D01*
X167016327Y-87197400D01*
X168875899Y-87197400D01*
X170156426Y-88477928D01*
X169794000Y-88477928D01*
X169669518Y-88490188D01*
X169549820Y-88526498D01*
X169439506Y-88585463D01*
X169342815Y-88664815D01*
X169263463Y-88761506D01*
X169204498Y-88871820D01*
X169168188Y-88991518D01*
X169155928Y-89116000D01*
X169155928Y-90716000D01*
X169168188Y-90840482D01*
X169204498Y-90960180D01*
X169263463Y-91070494D01*
X169342815Y-91167185D01*
X169439506Y-91246537D01*
X169549820Y-91305502D01*
X169669518Y-91341812D01*
X169794000Y-91354072D01*
X173294000Y-91354072D01*
X173418482Y-91341812D01*
X173538180Y-91305502D01*
X173648494Y-91246537D01*
X173745185Y-91167185D01*
X173824537Y-91070494D01*
X173883502Y-90960180D01*
X173919812Y-90840482D01*
X173932072Y-90716000D01*
X173932072Y-89116000D01*
X173919812Y-88991518D01*
X173883502Y-88871820D01*
X173824537Y-88761506D01*
X173745185Y-88664815D01*
X173648494Y-88585463D01*
X173538180Y-88526498D01*
X173418482Y-88490188D01*
X173294000Y-88477928D01*
X172238575Y-88477928D01*
X172178974Y-88366424D01*
X172084001Y-88250699D01*
X172055003Y-88226901D01*
X169754504Y-85926403D01*
X169730701Y-85897399D01*
X169705845Y-85877000D01*
X178918000Y-85877000D01*
X178918000Y-88520376D01*
X178918000Y-88520376D01*
G37*
X178918000Y-88520376D02*
X178818482Y-88490188D01*
X178694000Y-88477928D01*
X175194000Y-88477928D01*
X175069518Y-88490188D01*
X174949820Y-88526498D01*
X174839506Y-88585463D01*
X174742815Y-88664815D01*
X174663463Y-88761506D01*
X174604498Y-88871820D01*
X174568188Y-88991518D01*
X174555928Y-89116000D01*
X174555928Y-90716000D01*
X174568188Y-90840482D01*
X174604498Y-90960180D01*
X174663463Y-91070494D01*
X174742815Y-91167185D01*
X174839506Y-91246537D01*
X174949820Y-91305502D01*
X175069518Y-91341812D01*
X175194000Y-91354072D01*
X175556426Y-91354072D01*
X172293703Y-94616796D01*
X172264699Y-94640599D01*
X172215939Y-94700014D01*
X172169726Y-94756324D01*
X172120993Y-94847497D01*
X172099154Y-94888354D01*
X172055697Y-95031615D01*
X172044700Y-95143268D01*
X172044700Y-95143278D01*
X172041024Y-95180600D01*
X172044700Y-95217922D01*
X172044700Y-95528799D01*
X171998120Y-95575379D01*
X171969137Y-95599161D01*
X171945320Y-95628178D01*
X171701499Y-95872000D01*
X170581144Y-95872000D01*
X170479180Y-95817498D01*
X170359482Y-95781188D01*
X170235000Y-95768928D01*
X168735000Y-95768928D01*
X168610518Y-95781188D01*
X168490820Y-95817498D01*
X168380506Y-95876463D01*
X168283815Y-95955815D01*
X168204463Y-96052506D01*
X168145498Y-96162820D01*
X168109188Y-96282518D01*
X168096928Y-96407000D01*
X168096928Y-96857000D01*
X168109188Y-96981482D01*
X168145498Y-97101180D01*
X168199204Y-97201655D01*
X168117453Y-97226454D01*
X167985424Y-97297026D01*
X167869699Y-97391999D01*
X167845901Y-97420997D01*
X162765000Y-102501899D01*
X162023072Y-101759971D01*
X162023072Y-100594000D01*
X162010812Y-100469518D01*
X161974502Y-100349820D01*
X161915537Y-100239506D01*
X161836185Y-100142815D01*
X161739494Y-100063463D01*
X161629180Y-100004498D01*
X161509482Y-99968188D01*
X161385000Y-99955928D01*
X160713574Y-99955928D01*
X161146004Y-99523498D01*
X161175001Y-99499701D01*
X161269974Y-99383976D01*
X161340546Y-99251947D01*
X161384003Y-99108686D01*
X161395000Y-98997033D01*
X161395000Y-98997025D01*
X161398676Y-98959700D01*
X161395000Y-98922375D01*
X161395000Y-98417087D01*
X161509482Y-98405812D01*
X161629180Y-98369502D01*
X161739494Y-98310537D01*
X161836185Y-98231185D01*
X161915537Y-98134494D01*
X161974502Y-98024180D01*
X162010812Y-97904482D01*
X162023072Y-97780000D01*
X162023072Y-96530000D01*
X162010812Y-96405518D01*
X161974502Y-96285820D01*
X161915537Y-96175506D01*
X161836185Y-96078815D01*
X161739494Y-95999463D01*
X161629180Y-95940498D01*
X161509482Y-95904188D01*
X161385000Y-95891928D01*
X159885000Y-95891928D01*
X159847561Y-95895615D01*
X159845374Y-95891524D01*
X159774199Y-95804797D01*
X159750401Y-95775799D01*
X159721404Y-95752002D01*
X158810076Y-94840674D01*
X158877000Y-94773750D01*
X158877000Y-93853000D01*
X159131000Y-93853000D01*
X159131000Y-94773750D01*
X159289750Y-94932500D01*
X159393635Y-94920989D01*
X159512666Y-94882548D01*
X159621910Y-94821624D01*
X159717169Y-94740558D01*
X159794782Y-94642465D01*
X159851767Y-94531116D01*
X159885934Y-94410788D01*
X159895970Y-94286108D01*
X159893000Y-94011750D01*
X159734250Y-93853000D01*
X159131000Y-93853000D01*
X158877000Y-93853000D01*
X158857000Y-93853000D01*
X158857000Y-93599000D01*
X158877000Y-93599000D01*
X158877000Y-92678250D01*
X159131000Y-92678250D01*
X159131000Y-93599000D01*
X159734250Y-93599000D01*
X159893000Y-93440250D01*
X159895970Y-93165892D01*
X159893001Y-93129000D01*
X160726928Y-93129000D01*
X160739188Y-93253482D01*
X160775498Y-93373180D01*
X160834463Y-93483494D01*
X160913815Y-93580185D01*
X161010506Y-93659537D01*
X161120820Y-93718502D01*
X161240518Y-93754812D01*
X161365000Y-93767072D01*
X162379250Y-93764000D01*
X162538000Y-93605250D01*
X162538000Y-92456000D01*
X160888750Y-92456000D01*
X160730000Y-92614750D01*
X160726928Y-93129000D01*
X159893001Y-93129000D01*
X159885934Y-93041212D01*
X159851767Y-92920884D01*
X159794782Y-92809535D01*
X159717169Y-92711442D01*
X159621910Y-92630376D01*
X159512666Y-92569452D01*
X159393635Y-92531011D01*
X159289750Y-92519500D01*
X159131000Y-92678250D01*
X158877000Y-92678250D01*
X158718250Y-92519500D01*
X158614365Y-92531011D01*
X158495334Y-92569452D01*
X158386090Y-92630376D01*
X158368524Y-92645325D01*
X158342494Y-92623963D01*
X158232180Y-92564998D01*
X158112482Y-92528688D01*
X157988000Y-92516428D01*
X157480000Y-92516428D01*
X157355518Y-92528688D01*
X157235820Y-92564998D01*
X157125506Y-92623963D01*
X157099000Y-92645716D01*
X157072494Y-92623963D01*
X156962180Y-92564998D01*
X156842482Y-92528688D01*
X156718000Y-92516428D01*
X156210000Y-92516428D01*
X156085518Y-92528688D01*
X155965820Y-92564998D01*
X155855506Y-92623963D01*
X155829000Y-92645716D01*
X155802494Y-92623963D01*
X155692180Y-92564998D01*
X155572482Y-92528688D01*
X155448000Y-92516428D01*
X155374600Y-92516428D01*
X155374600Y-92200101D01*
X156045701Y-91529000D01*
X160726928Y-91529000D01*
X160730000Y-92043250D01*
X160888750Y-92202000D01*
X162538000Y-92202000D01*
X162538000Y-91052750D01*
X162792000Y-91052750D01*
X162792000Y-92202000D01*
X162812000Y-92202000D01*
X162812000Y-92456000D01*
X162792000Y-92456000D01*
X162792000Y-93605250D01*
X162950750Y-93764000D01*
X163965000Y-93767072D01*
X164089482Y-93754812D01*
X164209180Y-93718502D01*
X164319494Y-93659537D01*
X164416185Y-93580185D01*
X164465000Y-93520704D01*
X164513815Y-93580185D01*
X164610506Y-93659537D01*
X164720820Y-93718502D01*
X164840518Y-93754812D01*
X164965000Y-93767072D01*
X165230000Y-93767072D01*
X165230000Y-93835139D01*
X165269774Y-94035098D01*
X165347795Y-94223456D01*
X165461063Y-94392974D01*
X165605226Y-94537137D01*
X165774744Y-94650405D01*
X165963102Y-94728426D01*
X166163061Y-94768200D01*
X166366939Y-94768200D01*
X166566898Y-94728426D01*
X166755256Y-94650405D01*
X166924774Y-94537137D01*
X167068937Y-94392974D01*
X167182205Y-94223456D01*
X167260226Y-94035098D01*
X167300000Y-93835139D01*
X167300000Y-93767072D01*
X167565000Y-93767072D01*
X167689482Y-93754812D01*
X167809180Y-93718502D01*
X167919494Y-93659537D01*
X168016185Y-93580185D01*
X168095537Y-93483494D01*
X168154502Y-93373180D01*
X168190812Y-93253482D01*
X168203072Y-93129000D01*
X168203072Y-91529000D01*
X168190812Y-91404518D01*
X168154502Y-91284820D01*
X168095537Y-91174506D01*
X168016185Y-91077815D01*
X167919494Y-90998463D01*
X167809180Y-90939498D01*
X167689482Y-90903188D01*
X167565000Y-90890928D01*
X164965000Y-90890928D01*
X164840518Y-90903188D01*
X164720820Y-90939498D01*
X164610506Y-90998463D01*
X164513815Y-91077815D01*
X164465000Y-91137296D01*
X164416185Y-91077815D01*
X164319494Y-90998463D01*
X164209180Y-90939498D01*
X164089482Y-90903188D01*
X163965000Y-90890928D01*
X162950750Y-90894000D01*
X162792000Y-91052750D01*
X162538000Y-91052750D01*
X162379250Y-90894000D01*
X161365000Y-90890928D01*
X161240518Y-90903188D01*
X161120820Y-90939498D01*
X161010506Y-90998463D01*
X160913815Y-91077815D01*
X160834463Y-91174506D01*
X160775498Y-91284820D01*
X160739188Y-91404518D01*
X160726928Y-91529000D01*
X156045701Y-91529000D01*
X156975004Y-90599698D01*
X157004001Y-90575901D01*
X157098974Y-90460176D01*
X157169546Y-90328147D01*
X157213003Y-90184886D01*
X157224000Y-90073233D01*
X157224000Y-90073232D01*
X157227677Y-90035900D01*
X157224000Y-89998567D01*
X157224000Y-88530684D01*
X157235820Y-88537002D01*
X157355518Y-88573312D01*
X157480000Y-88585572D01*
X157969000Y-88585572D01*
X157969000Y-88650039D01*
X158008774Y-88849998D01*
X158086795Y-89038356D01*
X158200063Y-89207874D01*
X158344226Y-89352037D01*
X158513744Y-89465305D01*
X158702102Y-89543326D01*
X158902061Y-89583100D01*
X159105939Y-89583100D01*
X159305898Y-89543326D01*
X159494256Y-89465305D01*
X159663774Y-89352037D01*
X159807937Y-89207874D01*
X159921205Y-89038356D01*
X159999226Y-88849998D01*
X160016530Y-88763000D01*
X161826928Y-88763000D01*
X161839188Y-88887482D01*
X161875498Y-89007180D01*
X161934463Y-89117494D01*
X162013815Y-89214185D01*
X162110506Y-89293537D01*
X162220820Y-89352502D01*
X162340518Y-89388812D01*
X162465000Y-89401072D01*
X162929250Y-89398000D01*
X163088000Y-89239250D01*
X163088000Y-88265000D01*
X161988750Y-88265000D01*
X161830000Y-88423750D01*
X161826928Y-88763000D01*
X160016530Y-88763000D01*
X160039000Y-88650039D01*
X160039000Y-88446161D01*
X159999226Y-88246202D01*
X159921205Y-88057844D01*
X159889829Y-88010887D01*
X159896072Y-87947500D01*
X159896072Y-87197400D01*
X161913673Y-87197400D01*
X161875498Y-87268820D01*
X161839188Y-87388518D01*
X161826928Y-87513000D01*
X161830000Y-87852250D01*
X161988750Y-88011000D01*
X163088000Y-88011000D01*
X163088000Y-87991000D01*
X163342000Y-87991000D01*
X163342000Y-88011000D01*
X163362000Y-88011000D01*
X163362000Y-88265000D01*
X163342000Y-88265000D01*
X163342000Y-89239250D01*
X163500750Y-89398000D01*
X163965000Y-89401072D01*
X164089482Y-89388812D01*
X164209180Y-89352502D01*
X164319494Y-89293537D01*
X164416185Y-89214185D01*
X164465000Y-89154704D01*
X164513815Y-89214185D01*
X164610506Y-89293537D01*
X164720820Y-89352502D01*
X164840518Y-89388812D01*
X164965000Y-89401072D01*
X166465000Y-89401072D01*
X166589482Y-89388812D01*
X166633516Y-89375455D01*
X166799302Y-89444126D01*
X166999261Y-89483900D01*
X167203139Y-89483900D01*
X167403098Y-89444126D01*
X167591456Y-89366105D01*
X167760974Y-89252837D01*
X167905137Y-89108674D01*
X168018405Y-88939156D01*
X168096426Y-88750798D01*
X168136200Y-88550839D01*
X168136200Y-88346961D01*
X168096426Y-88147002D01*
X168018405Y-87958644D01*
X167905137Y-87789126D01*
X167760974Y-87644963D01*
X167591456Y-87531695D01*
X167403098Y-87453674D01*
X167203139Y-87413900D01*
X167093312Y-87413900D01*
X167090812Y-87388518D01*
X167054502Y-87268820D01*
X167016327Y-87197400D01*
X168875899Y-87197400D01*
X170156426Y-88477928D01*
X169794000Y-88477928D01*
X169669518Y-88490188D01*
X169549820Y-88526498D01*
X169439506Y-88585463D01*
X169342815Y-88664815D01*
X169263463Y-88761506D01*
X169204498Y-88871820D01*
X169168188Y-88991518D01*
X169155928Y-89116000D01*
X169155928Y-90716000D01*
X169168188Y-90840482D01*
X169204498Y-90960180D01*
X169263463Y-91070494D01*
X169342815Y-91167185D01*
X169439506Y-91246537D01*
X169549820Y-91305502D01*
X169669518Y-91341812D01*
X169794000Y-91354072D01*
X173294000Y-91354072D01*
X173418482Y-91341812D01*
X173538180Y-91305502D01*
X173648494Y-91246537D01*
X173745185Y-91167185D01*
X173824537Y-91070494D01*
X173883502Y-90960180D01*
X173919812Y-90840482D01*
X173932072Y-90716000D01*
X173932072Y-89116000D01*
X173919812Y-88991518D01*
X173883502Y-88871820D01*
X173824537Y-88761506D01*
X173745185Y-88664815D01*
X173648494Y-88585463D01*
X173538180Y-88526498D01*
X173418482Y-88490188D01*
X173294000Y-88477928D01*
X172238575Y-88477928D01*
X172178974Y-88366424D01*
X172084001Y-88250699D01*
X172055003Y-88226901D01*
X169754504Y-85926403D01*
X169730701Y-85897399D01*
X169705845Y-85877000D01*
X178918000Y-85877000D01*
X178918000Y-88520376D01*
G36*
X170827162Y-97471588D02*
G01*
X170824502Y-97462820D01*
X170795735Y-97409002D01*
X170889748Y-97409002D01*
X170827162Y-97471588D01*
X170827162Y-97471588D01*
G37*
X170827162Y-97471588D02*
X170824502Y-97462820D01*
X170795735Y-97409002D01*
X170889748Y-97409002D01*
X170827162Y-97471588D01*
M02*
